<svg xmlns="http://www.w3.org/2000/svg" viewBox="0 0 48.42 48.42"><defs><style>.cls-1{fill:none;}.cls-2{fill:#4b4af7;}</style></defs><g id="Layer_2" data-name="Layer 2"><g id="Layer_1-2" data-name="Layer 1"><path class="cls-1" d="M4.07,21.66a2.55,2.55,0,1,0,2.55,2.55A2.55,2.55,0,0,0,4.07,21.66Z"/><circle class="cls-1" cx="24.21" cy="44.35" r="2.55"/><circle class="cls-1" cx="24.21" cy="4.07" r="2.55"/><path class="cls-1" d="M44.35,21.66a2.55,2.55,0,1,0,2.54,2.55A2.55,2.55,0,0,0,44.35,21.66Z"/><path class="cls-2" d="M28.75,22.29a4.54,4.54,0,1,0-4.54,4.54A4.54,4.54,0,0,0,28.75,22.29Z"/><path class="cls-2" d="M44.35,20.14a4.07,4.07,0,0,0-4,3.31H35.8A11.61,11.61,0,0,0,25,12.62V8.07a4.07,4.07,0,1,0-1.52,0v4.55A11.61,11.61,0,0,0,12.62,23.45H8.07a4.07,4.07,0,1,0,0,1.52h4.55a11.48,11.48,0,0,0,2.71,6.73,11.76,11.76,0,0,0,8.12,4.1v4.55a4.07,4.07,0,1,0,1.52,0V35.8A11.61,11.61,0,0,0,35.8,25h4.55a4.07,4.07,0,1,0,4-4.83ZM4.07,26.76a2.55,2.55,0,1,1,2.55-2.55A2.55,2.55,0,0,1,4.07,26.76ZM26.76,44.35a2.55,2.55,0,1,1-2.55-2.55A2.55,2.55,0,0,1,26.76,44.35ZM21.66,4.07a2.55,2.55,0,1,1,2.55,2.55A2.55,2.55,0,0,1,21.66,4.07ZM32.14,30.44a10.08,10.08,0,1,1,2.17-6.23A10.09,10.09,0,0,1,32.14,30.44Zm12.21-3.68a2.55,2.55,0,1,1,2.54-2.55A2.55,2.55,0,0,1,44.35,26.76Z"/><path class="cls-2" d="M24.21,34.5a10.71,10.71,0,0,0,8.43-4.11C31,28.91,27.82,27.9,24.21,27.9s-6.78,1-8.44,2.49A10.73,10.73,0,0,0,24.21,34.5Z"/><path class="cls-2" d="M41.8,10.78a4.07,4.07,0,1,0-2.87-1.19A4.06,4.06,0,0,0,41.8,10.78ZM40,4.91a2.55,2.55,0,0,1,3.61,0,2.55,2.55,0,1,1-3.61,0Z"/><path class="cls-2" d="M6.81,37.64a4,4,0,0,0-2.88,1.19,4.08,4.08,0,0,0,2.88,7,4,4,0,0,0,2.87-1.2,4.06,4.06,0,0,0,0-5.75A4,4,0,0,0,6.81,37.64Zm1.8,5.87a2.54,2.54,0,0,1-1.8.75,2.55,2.55,0,1,1,0-5.1,2.53,2.53,0,0,1,1.8.74A2.57,2.57,0,0,1,8.61,43.51Z"/><path class="cls-2" d="M41.8,37.64a4,4,0,0,0-2.87,1.19,4.06,4.06,0,0,0,0,5.75,4,4,0,0,0,5.75,0,4.06,4.06,0,0,0,0-5.75A4,4,0,0,0,41.8,37.64Zm1.81,5.87a2.55,2.55,0,1,1,0-3.61A2.54,2.54,0,0,1,43.61,43.51Z"/><path class="cls-2" d="M6.81,10.78A4.07,4.07,0,1,0,3.93,9.59,4.05,4.05,0,0,0,6.81,10.78ZM5,4.91a2.53,2.53,0,0,1,1.81-.75,2.49,2.49,0,0,1,1.8.75A2.55,2.55,0,1,1,5,4.91Z"/><path class="cls-2" d="M11.82,12.67a.95.95,0,1,0,0-1.89.95.95,0,0,0,0,1.89Z"/><circle class="cls-2" cx="13.96" cy="13.86" r="0.95"/><circle class="cls-2" cx="34.81" cy="34.71" r="0.95"/><circle class="cls-2" cx="36.95" cy="36.85" r="0.95"/><circle class="cls-2" cx="36.95" cy="11.72" r="0.95"/><path class="cls-2" d="M34.81,14.81a.95.95,0,1,0-1-1A.95.95,0,0,0,34.81,14.81Z"/><circle class="cls-2" cx="13.96" cy="34.71" r="0.95"/><circle class="cls-2" cx="11.82" cy="36.85" r="0.95"/></g></g></svg>