<svg xmlns="http://www.w3.org/2000/svg" xmlns:xlink="http://www.w3.org/1999/xlink" viewBox="0 0 21.03 24.17"><defs><style>.cls-1{fill:none;}.cls-2{clip-path:url(#clip-path);}.cls-3{fill:#4b4af7;}</style><clipPath id="clip-path"><rect class="cls-1" width="21" height="24.17"/></clipPath></defs><g id="Layer_2" data-name="Layer 2"><g id="Layer_1-2" data-name="Layer 1"><g class="cls-2"><g id="그룹_40" data-name="그룹 40"><path id="패스_284" data-name="패스 284" class="cls-3" d="M20.79,0c.06.41.12.79.15,1.2a20.12,20.12,0,0,1-.53,6.87,13.06,13.06,0,0,1-2.26,4.44,27.1,27.1,0,0,1-6.64,6.31l-1.17.85a.24.24,0,0,1-.3,0,32,32,0,0,1-4.61-3.34.22.22,0,0,1-.11-.27c.56-1.7,1-3.4,1.73-5.05A24.06,24.06,0,0,1,11,4.7a12.35,12.35,0,0,1,4-2.88A21.21,21.21,0,0,1,20.68,0h.11M15.21,5a2.68,2.68,0,1,0,2.68,2.67v0A2.68,2.68,0,0,0,15.21,5"/><path id="패스_285" data-name="패스 285" class="cls-3" d="M7.57,23.41c-.14-.32-.29-.59-.41-.88a4.19,4.19,0,0,1-.23-.91c-1.06,1.61-1.53,1.14-3.41,1.64-.11-1.94-.7-2.2.5-3.76a4.44,4.44,0,0,1-1.85-.06C3,18,5.23,17.12,6.43,17.92c-.23.17-.5.32-.73.5a2.14,2.14,0,0,0-.79,1.7c0,.47,0,.91-.06,1.29L5.9,21a2.32,2.32,0,0,0,1.74-2.09V18.8a2.28,2.28,0,0,1,.76,1.52,4.19,4.19,0,0,1-.79,3l-.09.09"/><path id="패스_286" data-name="패스 286" class="cls-3" d="M7.08,9.4a29.56,29.56,0,0,0-1.85,4.87,4.87,4.87,0,0,0-5.23,0l.21-.42a9,9,0,0,1,3-3.5,6.07,6.07,0,0,1,3.91-.94"/><path id="패스_287" data-name="패스 287" class="cls-3" d="M12.07,19.21a27.86,27.86,0,0,0,4.05-3.29,5.49,5.49,0,0,1,.47,1.73A6.74,6.74,0,0,1,15,22.73q-.6.75-1.26,1.44a5.07,5.07,0,0,0-1.68-5"/></g></g></g></g></svg>