<svg xmlns="http://www.w3.org/2000/svg" viewBox="0 0 21 21.14"><defs><style>.cls-1{fill:#4053a3;}</style></defs><g id="Layer_2" data-name="Layer 2"><g id="Layer_1-2" data-name="Layer 1"><g id="그룹_37" data-name="그룹 37"><path id="패스_280" data-name="패스 280" class="cls-1" d="M18.78,21.14l-.33-.09a2.64,2.64,0,0,1-1.25-.77L15,18.09l-2-2L13,16A8.79,8.79,0,0,0,16,13.1l.11.11,4.15,4.19a2.42,2.42,0,0,1,.69,1.08c0,.11.06.22.09.36v.25a2.06,2.06,0,0,1-.39,1,2.45,2.45,0,0,1-1.28,1l-.33.08Z"/><path id="패스_281" data-name="패스 281" class="cls-1" d="M8.37,16.73a8.37,8.37,0,1,1,8.36-8.36v.16a8.36,8.36,0,0,1-8.36,8.2m6.34-8.31A6.42,6.42,0,1,0,12.82,13a6.42,6.42,0,0,0,1.89-4.56"/></g></g></g></svg>