<svg xmlns="http://www.w3.org/2000/svg" xmlns:xlink="http://www.w3.org/1999/xlink" viewBox="0 0 21 22.75"><defs><style>.cls-1{fill:none;}.cls-2{clip-path:url(#clip-path);}.cls-3{fill:#4b4af7;}</style><clipPath id="clip-path" transform="translate(-0.03 0)"><rect class="cls-1" width="21" height="22.72"/></clipPath></defs><g id="Layer_2" data-name="Layer 2"><g id="Layer_1-2" data-name="Layer 1"><g class="cls-2"><g id="그룹_38" data-name="그룹 38"><path id="패스_282" data-name="패스 282" class="cls-3" d="M21,13.14a3.78,3.78,0,0,0-.34-1.36l-.5-1.12a16.28,16.28,0,0,1-1.2-3.48c0-.21-.08-.42-.11-.64a1.68,1.68,0,0,1,.11-.8,9.15,9.15,0,0,1,.81-1.59L20,3.76a.35.35,0,0,0,.06-.14A.37.37,0,0,0,20,3.34,30.14,30.14,0,0,0,18,.83q-.36-.37-.75-.72A.36.36,0,0,0,16.85,0l-2,.72a9.53,9.53,0,0,1-1.64.39,15.39,15.39,0,0,1-1.78.2l-1.2,0a8.62,8.62,0,0,1-1.53-.11c-.6-.09-1.2-.21-1.79-.36A14,14,0,0,1,5.35.39L4.57.06H4.43l-.2.08a5.91,5.91,0,0,0-1,.81A24.41,24.41,0,0,0,1.31,3.09a.39.39,0,0,0-.11.31.28.28,0,0,0,.05.16,5.52,5.52,0,0,1,.64,1A4.28,4.28,0,0,1,2.28,6.9a6.76,6.76,0,0,1-.61,2.29c-.17.33-.33.67-.53,1s-.47.9-.67,1.36a5.06,5.06,0,0,0-.39,1.31c0,.23,0,.42,0,.64v1.09a5,5,0,0,0,1.22,2.92,8.46,8.46,0,0,0,4,2.54,14.47,14.47,0,0,1,2,.72,7.83,7.83,0,0,1,1.2.67,14.27,14.27,0,0,1,1.34,1l.28.25.06.09h.13a.36.36,0,0,0,.26-.11,6.11,6.11,0,0,1,1.44-1A27.21,27.21,0,0,1,15.37,20l1.34-.53a10.08,10.08,0,0,0,2.11-1.22,5.87,5.87,0,0,0,1.42-1.48,4.63,4.63,0,0,0,.7-1.59,3,3,0,0,0,.09-.72c0-.42,0-.84,0-1.28M14.73,6A1.73,1.73,0,1,1,13,7.77,1.74,1.74,0,0,1,14.73,6h0M10.08,6A2.32,2.32,0,1,1,7.77,8.35h0A2.31,2.31,0,0,1,10.08,6h0M5.43,6A1.73,1.73,0,1,1,3.7,7.77,1.74,1.74,0,0,1,5.43,6m9.77,7.85a6.39,6.39,0,0,1,1.17,2.76H3.79A6.27,6.27,0,0,1,5,13.89H.78a4.72,4.72,0,0,1,8.1-2.45,6.56,6.56,0,0,1,2.42,0,4.74,4.74,0,0,1,8.1,2.45Z" transform="translate(-0.03 0)"/></g></g></g></g></svg>