<svg xmlns="http://www.w3.org/2000/svg" viewBox="0 0 36.49 36.49"><defs><style>.cls-1{fill:#4b4af7;}</style></defs><g id="Layer_2" data-name="Layer 2"><g id="Layer_1-2" data-name="Layer 1"><path class="cls-1" d="M18.24,19.87c-3.57,0-6.49,1.46-6.49,3.25v1.62h13V23.12C24.74,21.33,21.82,19.87,18.24,19.87Z"/><circle class="cls-1" cx="18.24" cy="15" r="3.25" transform="translate(2.96 33) rotate(-89.1)"/><path class="cls-1" d="M18.91,4.06V4H17.58v0A14.18,14.18,0,0,0,4.06,17.58H4v1.33h.07A14.18,14.18,0,0,0,17.58,32.43v0h1.33v0a14.2,14.2,0,0,0,0-28.37Zm0,27v-3H17.58v3A12.88,12.88,0,0,1,5.39,18.91H8.32V17.58H5.39A12.88,12.88,0,0,1,17.58,5.39V8.25h1.33V5.39A12.88,12.88,0,0,1,31.1,17.58H28.23v1.33H31.1A12.88,12.88,0,0,1,18.91,31.1Z"/><path class="cls-1" d="M18.24,0A18.25,18.25,0,1,0,36.49,18.24,18.24,18.24,0,0,0,18.24,0Zm0,34.63A16.39,16.39,0,1,1,34.63,18.24,16.4,16.4,0,0,1,18.24,34.63Z"/></g></g></svg>