<svg xmlns="http://www.w3.org/2000/svg" viewBox="0 0 122.85 135.16"><title>자산 1</title><g id="b21bbae1-830a-4fc1-8930-f08364218ad2" data-name="레이어 2"><g id="abf36159-7974-422e-8f97-2de9edeb4abd" data-name="레이어 1"><path d="M.33,134.79a1.28,1.28,0,0,1-.33-.9V81a1.32,1.32,0,0,1,.33-.9,1.06,1.06,0,0,1,.81-.37H14.68a1.06,1.06,0,0,1,.81.37,1.32,1.32,0,0,1,.33.9V119.6c0,.35.16.53.48.53H35.74a1.06,1.06,0,0,1,.81.37,1.32,1.32,0,0,1,.33.9v12.49a1.28,1.28,0,0,1-.33.9,1.06,1.06,0,0,1-.81.37H1.14A1.06,1.06,0,0,1,.33,134.79Z" fill="#fff"/><path d="M48.23,134.11,36.8,81.69v-.42c0-.64.35-1,1.05-1H52.62c.7,0,1.08.38,1.14,1.16l3.15,26.37c0,.21.09.31.28.31s.29-.1.29-.31l3.14-26.37c.06-.78.45-1.16,1.15-1.16l14.86.21q1.34,0,1.05,1.38l-11.43,52.2a1.28,1.28,0,0,1-1.34,1H49.57A1.28,1.28,0,0,1,48.23,134.11Z" fill="#fff"/><path d="M113.85,2.91a19.31,19.31,0,0,1,6.62,8.21,29.09,29.09,0,0,1,2.38,12.07,28.56,28.56,0,0,1-2.24,11.7,17.87,17.87,0,0,1-6.33,7.78,16.51,16.51,0,0,1-9.44,2.75H98.65c-.32,0-.48.18-.48.53v87.94a1.28,1.28,0,0,1-.33.9,1.06,1.06,0,0,1-.81.37H83.49a1.06,1.06,0,0,1-.81-.37,1.28,1.28,0,0,1-.33-.9V1.27a1.32,1.32,0,0,1,.33-.9A1.06,1.06,0,0,1,83.49,0h20.59A16.87,16.87,0,0,1,113.85,2.91ZM105.46,29.7A10.24,10.24,0,0,0,107,23.61a10.89,10.89,0,0,0-1.57-6.35A4.86,4.86,0,0,0,101.31,15H98.65c-.32,0-.48.17-.48.52V31.34c0,.36.16.53.48.53h2.66A4.88,4.88,0,0,0,105.46,29.7Z" fill="#fff"/><path d="M76.11.37A1,1,0,0,0,75.3,0H61.77A1,1,0,0,0,61,.37a1.28,1.28,0,0,0-.34.9V6.93l8.9,15.41h-8.9V54.21a7.12,7.12,0,0,1-1.09,4.13,3.46,3.46,0,0,1-5.82,0,7.12,7.12,0,0,1-1.09-4.13V22.34h-8.9l8.9-15.41V1.27a1.28,1.28,0,0,0-.34-.9A1,1,0,0,0,51.47,0H37.94a1,1,0,0,0-.81.37,1.32,1.32,0,0,0-.33.9V52.52a26.38,26.38,0,0,0,2.48,11.75,18.77,18.77,0,0,0,6.95,7.89A19.18,19.18,0,0,0,56.62,75,19.18,19.18,0,0,0,67,72.16,18.77,18.77,0,0,0,74,64.27a26.38,26.38,0,0,0,2.48-11.75V1.27A1.32,1.32,0,0,0,76.11.37Z" fill="#fff"/></g></g></svg>