<svg xmlns="http://www.w3.org/2000/svg" viewBox="0 0 1674.56 581.5"><defs><style>.cls-1{fill:#fff;}</style></defs><g id="Layer_2" data-name="Layer 2"><g id="레이어_1" data-name="레이어 1"><path class="cls-1" d="M1201.71,517.4c-53.56,42.11-114.21,64-182.18,64s-128.58-22-182.17-64c-53.48,42.09-114.11,64-182.05,64S526.7,559.49,473.09,517.46c-70.32,54-149.21,74.88-236.58,58.69-72.15-13.37-130.91-50.11-176-108C-26.71,356.05-18.72,196.58,78.46,92,176.64-13.7,349.16-35.28,473,63.91,581.18-23,733.88-19.42,837.36,64,890.76,22,951.46.14,1019.64.15S1148.25,22,1201.75,64c62.3-48.45,132.72-70.19,211.4-62.31s143.36,42.87,194.22,103.06c92.74,109.75,88.83,274.78-7.71,381.1C1500.3,595.25,1327.76,617.1,1201.71,517.4ZM1245.5,474c88.32,68.36,224.82,64.31,310.18-30.16,82.62-91.42,77-234.26-13.53-320s-220.77-77-296.5-16.21C1332.69,214.4,1330.85,369.08,1245.5,474ZM429.08,107.4C345.53,41.84,210.16,41,122.87,133.49c-85.31,90.42-82.39,234.29,6.76,321.25,90.1,87.89,221.16,81.34,299.37,19.14C344.08,372.56,342.08,211.1,429.08,107.4Zm729.06,366.42c-42.59-53.56-64.69-114.6-64.72-183s22.09-129.52,64.67-183.13c-80.39-64-201.72-60.81-276.9.1,42.48,53.65,64.59,114.64,64.54,183.16S923.51,420.34,881,473.9C963.37,537.56,1080.32,534.82,1158.14,473.82Zm-364.38.1C751.05,420,729,359,729,290.5s22.21-129.41,64.67-182.95c-80.16-62.79-198.78-61.71-276.94-.07,86.34,104.45,85.91,262.23.09,366.39C591.36,533,708.79,539.27,793.76,473.92Zm43.71-43.32c68.59-88.59,58.13-208.08-.19-279.41C774.93,229.1,772.7,348.72,837.47,430.6Zm364.37-279.51c-64.91,80.65-62.32,202.7.14,279.25C1267.09,347.73,1263.62,228,1201.84,151.09ZM473.05,430.6c68.84-89,57.78-208.69-.25-279.45C409.48,230.71,409.28,350.42,473.05,430.6Z"/></g></g></svg>