<svg xmlns="http://www.w3.org/2000/svg" viewBox="0 0 560.69 36.04"><defs><style>.cls-1{fill:#6d7579;stroke:#6d7579;}.cls-1,.cls-4{stroke-miterlimit:10;}.cls-1,.cls-3{opacity:0.8;}.cls-2{fill:#fff;}.cls-3,.cls-5{fill:#c03;}.cls-4{fill:none;stroke:#c03;stroke-linecap:round;stroke-width:2px;}</style></defs><g id="Layer_2" data-name="Layer 2"><g id="레이어_1" data-name="레이어 1"><rect class="cls-1" x="0.5" y="0.5" width="98.54" height="35.04"/><path class="cls-2" d="M34.37,21.44a4.87,4.87,0,0,1-.53.21,4.59,4.59,0,0,1-.59.16,6.34,6.34,0,0,1-.69.1c-.25,0-.54,0-.85,0a4.19,4.19,0,0,1-1.16-.14,3.11,3.11,0,0,1-.94-.43,2.87,2.87,0,0,1-.72-.67,3.51,3.51,0,0,1-.51-.91,5.31,5.31,0,0,1-.31-1.11,8.91,8.91,0,0,1-.1-1.3,7,7,0,0,1,.11-1.24,5,5,0,0,1,.31-1.09,3.88,3.88,0,0,1,.53-.91,3.42,3.42,0,0,1,.74-.68,3.31,3.31,0,0,1,.95-.44,4.38,4.38,0,0,1,1.18-.15,6.06,6.06,0,0,1,.75,0,6.25,6.25,0,0,1,.67.11l.58.17a4.48,4.48,0,0,1,.49.23v1.42c-.15-.07-.31-.14-.48-.2a4.58,4.58,0,0,0-.56-.16,5.73,5.73,0,0,0-.64-.1,5.33,5.33,0,0,0-.71,0,2.17,2.17,0,0,0-.69.1,1.79,1.79,0,0,0-.55.28,2,2,0,0,0-.43.44,2.67,2.67,0,0,0-.3.61,3.82,3.82,0,0,0-.18.74,7.85,7.85,0,0,0,0,.87,7.21,7.21,0,0,0,.06,1,4.07,4.07,0,0,0,.18.78,2.24,2.24,0,0,0,.3.6,1.75,1.75,0,0,0,.44.42,1.5,1.5,0,0,0,.56.25,2.64,2.64,0,0,0,.7.08c.26,0,.49,0,.71,0l.62-.08q.29-.06.57-.15a3.93,3.93,0,0,0,.54-.2Z"/><path class="cls-2" d="M38.42,21.94a4.22,4.22,0,0,1-1-.1,3.34,3.34,0,0,1-.79-.31,2.21,2.21,0,0,1-.59-.5,2.59,2.59,0,0,1-.42-.65,3.3,3.3,0,0,1-.24-.79,5.34,5.34,0,0,1-.08-.92,4.46,4.46,0,0,1,.09-.91,3.3,3.3,0,0,1,.24-.79,2.59,2.59,0,0,1,.42-.65,2.42,2.42,0,0,1,.6-.5,3,3,0,0,1,.78-.31,4.17,4.17,0,0,1,1-.11,4.35,4.35,0,0,1,1,.11,3,3,0,0,1,.78.31,2.62,2.62,0,0,1,.6.49,2.93,2.93,0,0,1,.41.66,4.31,4.31,0,0,1,.24.79,5.22,5.22,0,0,1,.08.91,5.31,5.31,0,0,1-.08.91,3.66,3.66,0,0,1-.25.79,2.84,2.84,0,0,1-.42.66,2.39,2.39,0,0,1-.6.49,3,3,0,0,1-.78.32A4.13,4.13,0,0,1,38.42,21.94Zm0-1.34a1.34,1.34,0,0,0,.66-.15,1.26,1.26,0,0,0,.45-.41,1.87,1.87,0,0,0,.26-.61,3.69,3.69,0,0,0,.08-.76,3.62,3.62,0,0,0-.08-.76,1.87,1.87,0,0,0-.26-.61,1.36,1.36,0,0,0-.45-.41,1.34,1.34,0,0,0-.66-.15,1.4,1.4,0,0,0-.66.15,1.36,1.36,0,0,0-.45.41,1.93,1.93,0,0,0-.26.62,3.59,3.59,0,0,0-.08.75,3.55,3.55,0,0,0,.08.76,1.79,1.79,0,0,0,.26.61,1.26,1.26,0,0,0,.45.41A1.4,1.4,0,0,0,38.42,20.6Z"/><path class="cls-2" d="M47.09,21.75V18a1.92,1.92,0,0,0-.07-.52.91.91,0,0,0-.22-.37.72.72,0,0,0-.36-.21,1.5,1.5,0,0,0-.5-.08,2.6,2.6,0,0,0-.4,0l-.35.07a3,3,0,0,0-.32.12,1.59,1.59,0,0,0-.29.15v4.55H43V15.6h1.39l.13.53a3,3,0,0,1,.39-.31,2.38,2.38,0,0,1,.45-.23,2.73,2.73,0,0,1,.51-.14,3.41,3.41,0,0,1,1.27,0,2.4,2.4,0,0,1,.57.21,1.79,1.79,0,0,1,.43.34,2,2,0,0,1,.32.47,3.14,3.14,0,0,1,.19.59,4,4,0,0,1,.06.71v4Z"/><path class="cls-2" d="M54.38,21.66l-.35.11-.37.08c-.12,0-.25,0-.39.06h-.4a3.07,3.07,0,0,1-1-.15,1.51,1.51,0,0,1-.65-.43,1.78,1.78,0,0,1-.35-.7,4.54,4.54,0,0,1-.1-.95V17h-1V15.6h1l0-1.85h1.55V15.6h2V17h-2v2.6a1.76,1.76,0,0,0,0,.42.56.56,0,0,0,.14.29.59.59,0,0,0,.28.16,1.51,1.51,0,0,0,.46.06h.3l.29,0,.27,0,.26-.05Z"/><path class="cls-2" d="M59.08,21.75l-.08-.5a3.47,3.47,0,0,1-.38.29,3.61,3.61,0,0,1-.44.22,3.8,3.8,0,0,1-.51.13,2.48,2.48,0,0,1-.56.05,2.3,2.3,0,0,1-.81-.13,1.77,1.77,0,0,1-.62-.37,1.56,1.56,0,0,1-.39-.58,2.11,2.11,0,0,1-.14-.77,1.89,1.89,0,0,1,.1-.65,1.38,1.38,0,0,1,.28-.52,1.7,1.7,0,0,1,.46-.38,3,3,0,0,1,.63-.27,4.44,4.44,0,0,1,.79-.15,9,9,0,0,1,.93-.05h.59V18a1.6,1.6,0,0,0-.07-.52.79.79,0,0,0-.24-.35,1,1,0,0,0-.42-.2,2.06,2.06,0,0,0-.6-.07,4.8,4.8,0,0,0-.55,0l-.52.08-.48.13-.43.17V15.93l.44-.21a4.1,4.1,0,0,1,.53-.16,5.33,5.33,0,0,1,.6-.11,4.49,4.49,0,0,1,.64,0,4.42,4.42,0,0,1,1.15.14,2.2,2.2,0,0,1,.85.43,1.91,1.91,0,0,1,.52.77,3.17,3.17,0,0,1,.18,1.14v3.86Zm-.15-2.6h-.26a7,7,0,0,0-.84,0,2.13,2.13,0,0,0-.59.14.69.69,0,0,0-.34.25.56.56,0,0,0-.12.36.88.88,0,0,0,0,.29.78.78,0,0,0,.16.24.85.85,0,0,0,.28.16,1.2,1.2,0,0,0,.4.06,2.22,2.22,0,0,0,.37,0l.33-.08a2.68,2.68,0,0,0,.3-.12,2.26,2.26,0,0,0,.26-.16Z"/><path class="cls-2" d="M66.6,21.56a2.08,2.08,0,0,1-.4.15,3.23,3.23,0,0,1-.47.12,4.25,4.25,0,0,1-.53.07,5.12,5.12,0,0,1-.56,0,3.17,3.17,0,0,1-1.2-.22,2.43,2.43,0,0,1-.87-.65A2.9,2.9,0,0,1,62,20a4.72,4.72,0,0,1-.18-1.36,5.61,5.61,0,0,1,.08-.95,3.67,3.67,0,0,1,.24-.81,2.47,2.47,0,0,1,1-1.12,2.86,2.86,0,0,1,.72-.29,4,4,0,0,1,.88-.1l.5,0,.51.07a3,3,0,0,1,.45.12,1.69,1.69,0,0,1,.35.14v1.35L66.21,17a2.46,2.46,0,0,0-.39-.09l-.42-.05a3.39,3.39,0,0,0-.45,0,1.41,1.41,0,0,0-.64.13,1.24,1.24,0,0,0-.45.37,1.52,1.52,0,0,0-.28.57,3.24,3.24,0,0,0-.08.72,3,3,0,0,0,.09.75,1.88,1.88,0,0,0,.27.59,1.41,1.41,0,0,0,.45.39,1.44,1.44,0,0,0,.64.14l.47,0,.43,0,.39-.09.36-.11Z"/><path class="cls-2" d="M71.88,21.66l-.34.11-.37.08-.39.06h-.4a3,3,0,0,1-1-.15,1.51,1.51,0,0,1-.65-.43,1.65,1.65,0,0,1-.35-.7,4,4,0,0,1-.1-.95V17h-1V15.6h1l0-1.85h1.55V15.6h2V17h-2v2.6a2.5,2.5,0,0,0,0,.42.67.67,0,0,0,.15.29.55.55,0,0,0,.28.16,1.47,1.47,0,0,0,.46.06h.3l.28,0,.27,0,.26-.05Z"/><rect class="cls-1" x="115.91" y="0.5" width="98.54" height="35.04"/><path class="cls-2" d="M155.26,21.75l-3.11-8.69H154l1.82,5.63c.05.19.11.38.17.57s.11.39.16.58l.15-.58.18-.57,1.85-5.63h1.76L157,21.75Z"/><path class="cls-2" d="M161.13,14.68V13.06h1.6v1.62Zm0,7.07V15.6h1.6v6.15Z"/><path class="cls-2" d="M164.26,20.19l.25.1.32.09.36.07a2.32,2.32,0,0,0,.38.06l.37,0h.36a3.89,3.89,0,0,0,.51,0,1.23,1.23,0,0,0,.38-.1.61.61,0,0,0,.24-.17.45.45,0,0,0,.08-.26.42.42,0,0,0-.07-.26.58.58,0,0,0-.22-.18,1.5,1.5,0,0,0-.38-.15l-.56-.14a4.81,4.81,0,0,1-.88-.28,2,2,0,0,1-.62-.39,1.4,1.4,0,0,1-.35-.55,2.09,2.09,0,0,1-.12-.74,2,2,0,0,1,.15-.78,1.37,1.37,0,0,1,.47-.6,2.19,2.19,0,0,1,.81-.39,4.36,4.36,0,0,1,1.17-.14l.37,0,.38,0,.37.07.34.08.28.1a1,1,0,0,1,.21.12v1.32l-.24-.1-.31-.09-.35-.08-.36-.06-.36,0-.33,0a2.38,2.38,0,0,0-.39,0,1.05,1.05,0,0,0-.3.1.48.48,0,0,0-.2.17.38.38,0,0,0-.07.24.42.42,0,0,0,.07.26.56.56,0,0,0,.22.17,2,2,0,0,0,.38.14l.56.14a5.08,5.08,0,0,1,.88.28,1.88,1.88,0,0,1,.61.39,1.42,1.42,0,0,1,.36.54,2.11,2.11,0,0,1,.12.75,1.72,1.72,0,0,1-.7,1.4,2.69,2.69,0,0,1-.87.4,4.38,4.38,0,0,1-1.2.15q-.31,0-.63,0l-.6-.09c-.19,0-.36-.09-.52-.14a1.63,1.63,0,0,1-.37-.16Z"/><path class="cls-2" d="M170.54,14.68V13.06h1.6v1.62Zm0,7.07V15.6h1.6v6.15Z"/><path class="cls-2" d="M178,21.66l-.34.11-.37.08-.39.06h-.41a3,3,0,0,1-1-.15,1.49,1.49,0,0,1-.66-.43,1.64,1.64,0,0,1-.34-.7,4,4,0,0,1-.1-.95V17h-1V15.6h1l0-1.85H176V15.6H178V17H176v2.6a1.76,1.76,0,0,0,0,.42.66.66,0,0,0,.14.29.59.59,0,0,0,.28.16,1.51,1.51,0,0,0,.46.06h.3l.29,0,.27,0,.26-.05Z"/><rect class="cls-1" x="231.33" y="0.5" width="98.54" height="35.04"/><path class="cls-2" d="M254.86,21.75V14.46h-2.3v-1.4h6.24v1.4h-2.3v7.29Z"/><path class="cls-2" d="M264,21.47a3,3,0,0,1-.45.19c-.16.06-.33.1-.52.15a4.89,4.89,0,0,1-.59.09c-.21,0-.43,0-.67,0a3.82,3.82,0,0,1-.92-.1,2.94,2.94,0,0,1-.77-.3,2.48,2.48,0,0,1-.59-.48,2.53,2.53,0,0,1-.42-.64,3.66,3.66,0,0,1-.26-.79,5.25,5.25,0,0,1-.08-.92,6.11,6.11,0,0,1,.06-.86,4.81,4.81,0,0,1,.21-.79,3,3,0,0,1,.37-.66,2.26,2.26,0,0,1,.54-.53,2.66,2.66,0,0,1,.72-.34,3.18,3.18,0,0,1,.91-.12,2.94,2.94,0,0,1,.93.13,2.57,2.57,0,0,1,.73.33,2.43,2.43,0,0,1,.54.52,3.39,3.39,0,0,1,.36.65,3.5,3.5,0,0,1,.2.74,5.42,5.42,0,0,1,.06.81v.13a.92.92,0,0,1,0,.16.76.76,0,0,1,0,.15.53.53,0,0,1,0,.13h-4a1.92,1.92,0,0,0,.13.56,1.17,1.17,0,0,0,.29.43,1.42,1.42,0,0,0,.5.28,2.41,2.41,0,0,0,.71.09l.56,0,.54-.07.5-.11a3.81,3.81,0,0,0,.44-.14ZM262.76,18a2.11,2.11,0,0,0-.13-.55,1.38,1.38,0,0,0-.24-.41,1,1,0,0,0-.37-.25,1.33,1.33,0,0,0-1,0,1,1,0,0,0-.36.25,1.38,1.38,0,0,0-.24.41,2.67,2.67,0,0,0-.11.55Z"/><path class="cls-2" d="M265.37,20.19l.26.1.31.09.36.07a2.5,2.5,0,0,0,.38.06l.38,0h.36a3.84,3.84,0,0,0,.5,0,1.39,1.39,0,0,0,.39-.1.61.61,0,0,0,.24-.17.45.45,0,0,0,.08-.26.5.5,0,0,0-.07-.26.58.58,0,0,0-.22-.18,1.44,1.44,0,0,0-.39-.15l-.56-.14a5.08,5.08,0,0,1-.88-.28,1.94,1.94,0,0,1-.61-.39,1.54,1.54,0,0,1-.36-.55,2.35,2.35,0,0,1-.11-.74,2,2,0,0,1,.15-.78,1.43,1.43,0,0,1,.46-.6,2.19,2.19,0,0,1,.81-.39,4.49,4.49,0,0,1,1.18-.14l.37,0,.38,0,.36.07.34.08.29.1.21.12v1.32l-.25-.1-.31-.09-.34-.08-.37-.06-.35,0-.33,0a2.38,2.38,0,0,0-.39,0,1.25,1.25,0,0,0-.31.1.45.45,0,0,0-.19.17.38.38,0,0,0-.07.24.42.42,0,0,0,.07.26.56.56,0,0,0,.22.17,1.8,1.8,0,0,0,.38.14l.55.14a4.81,4.81,0,0,1,.88.28,1.93,1.93,0,0,1,.62.39,1.42,1.42,0,0,1,.36.54,2.11,2.11,0,0,1,.12.75,1.72,1.72,0,0,1-.18.78,1.74,1.74,0,0,1-.53.62,2.54,2.54,0,0,1-.86.4,4.38,4.38,0,0,1-1.2.15q-.31,0-.63,0l-.61-.09a4.6,4.6,0,0,1-.51-.14,1.73,1.73,0,0,1-.38-.16Z"/><path class="cls-2" d="M275.57,21.66l-.35.11-.36.08c-.13,0-.26,0-.4.06h-.4a3.07,3.07,0,0,1-1-.15,1.51,1.51,0,0,1-.65-.43,1.78,1.78,0,0,1-.35-.7,4.54,4.54,0,0,1-.1-.95V17h-1V15.6h1l0-1.85h1.55V15.6h2.05V17h-2.05v2.6a1.76,1.76,0,0,0,0,.42.56.56,0,0,0,.14.29.59.59,0,0,0,.28.16,1.51,1.51,0,0,0,.46.06h.3l.29,0,.27,0,.26-.05Z"/><path class="cls-2" d="M276.26,19V17.36h3.26V19Z"/><path class="cls-2" d="M285.23,21.75l-.14-.56a1.93,1.93,0,0,1-.33.31,2.86,2.86,0,0,1-.42.24,3.27,3.27,0,0,1-.5.15,3.09,3.09,0,0,1-1.7-.17,2.32,2.32,0,0,1-.84-.65,2.89,2.89,0,0,1-.52-1,4.47,4.47,0,0,1-.19-1.36,4.94,4.94,0,0,1,.19-1.4,3,3,0,0,1,.55-1,2.44,2.44,0,0,1,.88-.64,3.21,3.21,0,0,1,1.2-.22,3.44,3.44,0,0,1,.46,0,2.71,2.71,0,0,1,.41.09,2.15,2.15,0,0,1,.38.15,2.39,2.39,0,0,1,.34.21V12.73h1.61v9Zm-.23-4.6a1.4,1.4,0,0,0-.3-.15,1.51,1.51,0,0,0-.32-.11,2,2,0,0,0-.35-.06,2.36,2.36,0,0,0-.38,0,1.41,1.41,0,0,0-.64.13,1.38,1.38,0,0,0-.44.39,1.76,1.76,0,0,0-.26.59,2.9,2.9,0,0,0-.08.74,2.94,2.94,0,0,0,.09.74,1.83,1.83,0,0,0,.27.6,1.33,1.33,0,0,0,.46.39,1.32,1.32,0,0,0,.64.15l.38,0,.34-.06.31-.11a1.51,1.51,0,0,0,.28-.15Z"/><path class="cls-2" d="M288.54,21.75V15.6H290l.06.83a3.3,3.3,0,0,1,.29-.41,1.89,1.89,0,0,1,.37-.32,1.63,1.63,0,0,1,.44-.21,1.68,1.68,0,0,1,.52-.07,1.37,1.37,0,0,1,.28,0,.91.91,0,0,1,.26.06v1.58l-.21,0a1.13,1.13,0,0,0-.18,0h-.41l-.28,0-.25,0a1.7,1.7,0,0,0-.24.09l-.2.11-.19.13-.16.15v4.21Z"/><path class="cls-2" d="M293.43,14.68V13.06H295v1.62Zm0,7.07V15.6H295v6.15Z"/><path class="cls-2" d="M298.32,21.75l-2.27-6.15h1.74L299,19.22c0,.13.08.28.12.44s.08.32.12.49c0-.17.08-.34.12-.49s.09-.3.14-.43l1.2-3.63h1.64L300,21.75Z"/><path class="cls-2" d="M308.07,21.47a3.71,3.71,0,0,1-.46.19c-.16.06-.33.1-.51.15a5.58,5.58,0,0,1-.59.09c-.21,0-.44,0-.67,0a3.84,3.84,0,0,1-.93-.1,2.87,2.87,0,0,1-.76-.3,2.3,2.3,0,0,1-.59-.48,2.87,2.87,0,0,1-.43-.64,3.66,3.66,0,0,1-.25-.79,4.42,4.42,0,0,1-.09-.92,4.91,4.91,0,0,1,.07-.86,3.4,3.4,0,0,1,.21-.79,3,3,0,0,1,.37-.66,2.22,2.22,0,0,1,.53-.53,2.66,2.66,0,0,1,.72-.34,3.26,3.26,0,0,1,.92-.12,3,3,0,0,1,.93.13,2.64,2.64,0,0,1,.72.33,2.43,2.43,0,0,1,.54.52,2.57,2.57,0,0,1,.36.65,3.5,3.5,0,0,1,.2.74,4.36,4.36,0,0,1,.07.81v.13a.81.81,0,0,0,0,.16c0,.05,0,.1,0,.15a.51.51,0,0,1,0,.13h-4a1.64,1.64,0,0,0,.12.56,1.19,1.19,0,0,0,.3.43,1.37,1.37,0,0,0,.49.28,2.5,2.5,0,0,0,.71.09l.57,0,.54-.07.5-.11.44-.14ZM306.82,18a2.13,2.13,0,0,0-.12-.55,1.22,1.22,0,0,0-.25-.41,1,1,0,0,0-.36-.25,1.22,1.22,0,0,0-.49-.09,1.21,1.21,0,0,0-.48.09,1,1,0,0,0-.36.25,1.62,1.62,0,0,0-.23.41,2.13,2.13,0,0,0-.12.55Z"/><rect class="cls-1" x="346.74" y="0.5" width="98.54" height="35.04"/><path class="cls-2" d="M380.75,21.44a4.87,4.87,0,0,1-.53.21,4.59,4.59,0,0,1-.59.16,6.34,6.34,0,0,1-.69.1c-.25,0-.53,0-.85,0a4.24,4.24,0,0,1-1.16-.14,3.23,3.23,0,0,1-.94-.43,3.05,3.05,0,0,1-.72-.67,3.51,3.51,0,0,1-.51-.91,4.76,4.76,0,0,1-.3-1.11,7.71,7.71,0,0,1-.1-1.3,7,7,0,0,1,.1-1.24,5,5,0,0,1,.31-1.09,3.88,3.88,0,0,1,.53-.91,3.42,3.42,0,0,1,.74-.68,3.25,3.25,0,0,1,1-.44,4.25,4.25,0,0,1,1.17-.15,5.86,5.86,0,0,1,.75,0,6.25,6.25,0,0,1,.67.11c.21.05.4.11.58.17a4.48,4.48,0,0,1,.49.23v1.42c-.15-.07-.31-.14-.48-.2a4.12,4.12,0,0,0-.56-.16,5.73,5.73,0,0,0-.64-.1,5.33,5.33,0,0,0-.71,0,2.17,2.17,0,0,0-.69.1,1.79,1.79,0,0,0-.55.28,2,2,0,0,0-.42.44,2.33,2.33,0,0,0-.31.61,3.83,3.83,0,0,0-.17.74,5.94,5.94,0,0,0-.06.87,7.21,7.21,0,0,0,.06,1,4.07,4.07,0,0,0,.18.78,2,2,0,0,0,.31.6,1.56,1.56,0,0,0,.43.42,1.63,1.63,0,0,0,.57.25,2.54,2.54,0,0,0,.7.08c.25,0,.48,0,.7,0l.62-.08a4.74,4.74,0,0,0,.57-.15,3.93,3.93,0,0,0,.54-.2Z"/><path class="cls-2" d="M384.8,21.94a4.22,4.22,0,0,1-1-.1,3.34,3.34,0,0,1-.79-.31,2.37,2.37,0,0,1-.59-.5,2.31,2.31,0,0,1-.41-.65,3.84,3.84,0,0,1-.25-.79,5.37,5.37,0,0,1-.07-.92,4.47,4.47,0,0,1,.08-.91A2.92,2.92,0,0,1,382,17a2.59,2.59,0,0,1,.42-.65,2.21,2.21,0,0,1,.59-.5,3,3,0,0,1,.78-.31,4.17,4.17,0,0,1,1-.11,4.28,4.28,0,0,1,1,.11,3,3,0,0,1,.78.31,2.62,2.62,0,0,1,.6.49,2.93,2.93,0,0,1,.41.66,3.17,3.17,0,0,1,.24.79,5.22,5.22,0,0,1,.08.91,5.31,5.31,0,0,1-.08.91,3.66,3.66,0,0,1-.25.79,2.84,2.84,0,0,1-.42.66,2.39,2.39,0,0,1-.6.49,3,3,0,0,1-.78.32A4.13,4.13,0,0,1,384.8,21.94Zm0-1.34a1.33,1.33,0,0,0,.65-.15,1.11,1.11,0,0,0,.45-.41,1.68,1.68,0,0,0,.26-.61,3.69,3.69,0,0,0,.08-.76,3.62,3.62,0,0,0-.08-.76,1.68,1.68,0,0,0-.26-.61,1.19,1.19,0,0,0-.45-.41,1.33,1.33,0,0,0-.65-.15,1.41,1.41,0,0,0-.67.15,1.36,1.36,0,0,0-.45.41,1.92,1.92,0,0,0-.25.62,3,3,0,0,0-.09.75,3,3,0,0,0,.09.76,1.78,1.78,0,0,0,.25.61,1.26,1.26,0,0,0,.45.41A1.41,1.41,0,0,0,384.81,20.6Z"/><path class="cls-2" d="M393.47,21.75V18a1.6,1.6,0,0,0-.07-.52.91.91,0,0,0-.22-.37.72.72,0,0,0-.36-.21,1.5,1.5,0,0,0-.5-.08,2.38,2.38,0,0,0-.39,0l-.36.07a3,3,0,0,0-.32.12,2,2,0,0,0-.29.15v4.55h-1.6V15.6h1.39l.13.53a3,3,0,0,1,.4-.31,2.37,2.37,0,0,1,1-.37,3.48,3.48,0,0,1,.58,0,3.55,3.55,0,0,1,.68.07,2.4,2.4,0,0,1,.57.21,2.07,2.07,0,0,1,.44.34,1.92,1.92,0,0,1,.31.47,2.55,2.55,0,0,1,.19.59,4,4,0,0,1,.06.71v4Z"/><path class="cls-2" d="M396.46,20.19l.25.1.32.09.36.07a2.32,2.32,0,0,0,.38.06l.38,0h.35a3.89,3.89,0,0,0,.51,0,1.23,1.23,0,0,0,.38-.1.5.5,0,0,0,.24-.17.38.38,0,0,0,.08-.26.42.42,0,0,0-.07-.26.51.51,0,0,0-.22-.18,1.37,1.37,0,0,0-.38-.15l-.56-.14a4.81,4.81,0,0,1-.88-.28,2.12,2.12,0,0,1-.62-.39,1.52,1.52,0,0,1-.35-.55,2.09,2.09,0,0,1-.12-.74,2,2,0,0,1,.15-.78,1.45,1.45,0,0,1,.47-.6,2.19,2.19,0,0,1,.81-.39,4.41,4.41,0,0,1,1.17-.14l.37,0,.38,0,.37.07.34.08.28.1.22.12v1.32l-.25-.1-.31-.09-.35-.08-.36-.06-.36,0-.33,0a2.38,2.38,0,0,0-.39,0,1.17,1.17,0,0,0-.3.1.48.48,0,0,0-.2.17.45.45,0,0,0-.07.24.5.5,0,0,0,.07.26.56.56,0,0,0,.22.17,2,2,0,0,0,.38.14l.56.14a5.08,5.08,0,0,1,.88.28,1.78,1.78,0,0,1,.61.39,1.23,1.23,0,0,1,.36.54,2.11,2.11,0,0,1,.12.75,1.85,1.85,0,0,1-.17.78,1.74,1.74,0,0,1-.53.62,2.59,2.59,0,0,1-.87.4,4.28,4.28,0,0,1-1.2.15l-.63,0-.6-.09c-.19,0-.36-.09-.52-.14a1.63,1.63,0,0,1-.37-.16Z"/><path class="cls-2" d="M406.81,21.75l-.13-.52a2.69,2.69,0,0,1-.37.3,3.55,3.55,0,0,1-.43.23,2.52,2.52,0,0,1-.49.13,2.39,2.39,0,0,1-.55.05,3,3,0,0,1-.68-.07,2,2,0,0,1-.56-.2,1.89,1.89,0,0,1-.44-.35,1.86,1.86,0,0,1-.31-.46,2.22,2.22,0,0,1-.19-.6,3.84,3.84,0,0,1-.06-.71v-4h1.6v3.73a1.66,1.66,0,0,0,.07.53.91.91,0,0,0,.22.37.81.81,0,0,0,.36.22,1.53,1.53,0,0,0,.51.07l.34,0,.32-.07.3-.11.28-.15V15.6h1.6v6.15Z"/><path class="cls-2" d="M412.81,21.69l-.24.07-.27,0-.3,0h-.33a1.86,1.86,0,0,1-.7-.12,1.16,1.16,0,0,1-.48-.32,1.31,1.31,0,0,1-.28-.52,2.53,2.53,0,0,1-.09-.7V12.73h1.6V20a1.27,1.27,0,0,0,0,.22.28.28,0,0,0,.09.14.38.38,0,0,0,.15.09.78.78,0,0,0,.24,0l.3,0,.29-.05Z"/><path class="cls-2" d="M418,21.66l-.34.11-.37.08-.39.06h-.41a3,3,0,0,1-1-.15,1.55,1.55,0,0,1-.66-.43,1.64,1.64,0,0,1-.34-.7,4,4,0,0,1-.1-.95V17h-1V15.6h1l0-1.85h1.55V15.6H418V17h-2.05v2.6a2.5,2.5,0,0,0,0,.42.66.66,0,0,0,.14.29.63.63,0,0,0,.29.16,1.47,1.47,0,0,0,.46.06h.29l.29,0,.27,0,.26-.05Z"/><rect class="cls-3" x="462.15" y="0.5" width="98.54" height="35.04"/><path class="cls-2" d="M493.64,21.44a5,5,0,0,1-.54.21,4.43,4.43,0,0,1-.58.16,6.34,6.34,0,0,1-.69.1c-.25,0-.54,0-.86,0a4.17,4.17,0,0,1-1.15-.14,3.11,3.11,0,0,1-.94-.43,2.87,2.87,0,0,1-.72-.67,3.85,3.85,0,0,1-.52-.91,6,6,0,0,1-.3-1.11,8.91,8.91,0,0,1-.1-1.3,8.09,8.09,0,0,1,.1-1.24,5,5,0,0,1,.32-1.09,3.56,3.56,0,0,1,.53-.91,3.21,3.21,0,0,1,.74-.68,3.31,3.31,0,0,1,.95-.44,4.38,4.38,0,0,1,1.18-.15,6.35,6.35,0,0,1,1.41.15,5.83,5.83,0,0,1,.58.17,3.75,3.75,0,0,1,.49.23v1.42a4.15,4.15,0,0,0-.47-.2,4.58,4.58,0,0,0-.56-.16,5.73,5.73,0,0,0-.64-.1,5.43,5.43,0,0,0-.71,0,2.17,2.17,0,0,0-.69.1,1.68,1.68,0,0,0-.55.28,1.8,1.8,0,0,0-.43.44,2.67,2.67,0,0,0-.3.61,3.82,3.82,0,0,0-.18.74,5.94,5.94,0,0,0-.06.87,7.21,7.21,0,0,0,.06,1,3.43,3.43,0,0,0,.19.78,2.24,2.24,0,0,0,.3.6,1.6,1.6,0,0,0,.44.42,1.5,1.5,0,0,0,.56.25,2.59,2.59,0,0,0,.7.08c.25,0,.49,0,.7,0l.62-.08a4.74,4.74,0,0,0,.57-.15,3.62,3.62,0,0,0,.55-.2Z"/><path class="cls-2" d="M497.69,21.94a4.22,4.22,0,0,1-1-.1,3.34,3.34,0,0,1-.79-.31,2.42,2.42,0,0,1-.6-.5,2.87,2.87,0,0,1-.41-.65,3.3,3.3,0,0,1-.24-.79,5.27,5.27,0,0,1,0-1.83,3.84,3.84,0,0,1,.25-.79,2.59,2.59,0,0,1,.42-.65,2.42,2.42,0,0,1,.6-.5,3,3,0,0,1,.78-.31,4.11,4.11,0,0,1,1-.11,4.2,4.2,0,0,1,1,.11,3,3,0,0,1,.79.31,2.41,2.41,0,0,1,1,1.15,3.66,3.66,0,0,1,.25.79,5.22,5.22,0,0,1,.08.91,4.46,4.46,0,0,1-.09.91,3.17,3.17,0,0,1-.24.79A3.22,3.22,0,0,1,500,21a2.39,2.39,0,0,1-.6.49,3,3,0,0,1-.78.32A4.19,4.19,0,0,1,497.69,21.94Zm0-1.34a1.34,1.34,0,0,0,.66-.15,1.26,1.26,0,0,0,.45-.41,1.87,1.87,0,0,0,.26-.61,3.69,3.69,0,0,0,.08-.76,3.62,3.62,0,0,0-.08-.76,1.87,1.87,0,0,0-.26-.61,1.36,1.36,0,0,0-.45-.41,1.53,1.53,0,0,0-1.32,0,1.36,1.36,0,0,0-.45.41,1.93,1.93,0,0,0-.26.62,3.59,3.59,0,0,0-.08.75,3.55,3.55,0,0,0,.08.76,1.79,1.79,0,0,0,.26.61,1.26,1.26,0,0,0,.45.41A1.34,1.34,0,0,0,497.69,20.6Z"/><path class="cls-2" d="M506.36,21.75V18a1.58,1.58,0,0,0-.08-.52.8.8,0,0,0-.21-.37.82.82,0,0,0-.36-.21,1.56,1.56,0,0,0-.51-.08,2.56,2.56,0,0,0-.39,0l-.35.07a2.38,2.38,0,0,0-.32.12,1.59,1.59,0,0,0-.29.15v4.55h-1.6V15.6h1.39l.13.53a3,3,0,0,1,.39-.31,2.38,2.38,0,0,1,.45-.23,2.73,2.73,0,0,1,.51-.14,3.58,3.58,0,0,1,.58,0,3.66,3.66,0,0,1,.69.07,2.17,2.17,0,0,1,.56.21,1.67,1.67,0,0,1,.44.34,2,2,0,0,1,.32.47,3.14,3.14,0,0,1,.19.59,4,4,0,0,1,.06.71v4Z"/><path class="cls-2" d="M513.64,21.66l-.34.11-.37.08c-.12,0-.26,0-.39.06h-.4a3,3,0,0,1-1-.15,1.51,1.51,0,0,1-.65-.43,1.65,1.65,0,0,1-.35-.7,4,4,0,0,1-.1-.95V17h-1V15.6h1l0-1.85h1.55V15.6h2V17h-2v2.6a1.76,1.76,0,0,0,0,.42.56.56,0,0,0,.14.29.59.59,0,0,0,.28.16,1.47,1.47,0,0,0,.46.06h.3l.28,0,.28,0,.25-.05Z"/><path class="cls-2" d="M514.91,21.75V15.6h1.5l.06.83a3.3,3.3,0,0,1,.29-.41,1.89,1.89,0,0,1,.37-.32,1.63,1.63,0,0,1,.44-.21,1.72,1.72,0,0,1,.52-.07,1.37,1.37,0,0,1,.28,0,.91.91,0,0,1,.26.06v1.58l-.21,0a1.13,1.13,0,0,0-.18,0h-.4l-.29,0-.25,0-.24.09-.2.11-.19.13-.16.15v4.21Z"/><path class="cls-2" d="M523.12,21.75l-.09-.5a2.24,2.24,0,0,1-.38.29,2.58,2.58,0,0,1-.44.22,3.31,3.31,0,0,1-.5.13,2.48,2.48,0,0,1-.56.05,2.3,2.3,0,0,1-.81-.13,1.68,1.68,0,0,1-.62-.37,1.56,1.56,0,0,1-.39-.58,1.92,1.92,0,0,1-.14-.77,2.17,2.17,0,0,1,.09-.65,1.55,1.55,0,0,1,.29-.52,1.7,1.7,0,0,1,.46-.38,2.6,2.6,0,0,1,.63-.27,4.44,4.44,0,0,1,.79-.15,9,9,0,0,1,.93-.05H523V18a1.35,1.35,0,0,0-.08-.52.77.77,0,0,0-.23-.35,1,1,0,0,0-.42-.2,2.15,2.15,0,0,0-.6-.07,5.12,5.12,0,0,0-.56,0l-.51.08-.48.13-.43.17V15.93l.44-.21a4.1,4.1,0,0,1,.53-.16,5.33,5.33,0,0,1,.6-.11,4.91,4.91,0,0,1,1.79.1,2.2,2.2,0,0,1,.85.43,1.91,1.91,0,0,1,.52.77,3.18,3.18,0,0,1,.17,1.14v3.86Zm-.15-2.6h-.26a6.85,6.85,0,0,0-.84,0,2.13,2.13,0,0,0-.59.14.69.69,0,0,0-.34.25.56.56,0,0,0-.12.36.88.88,0,0,0,0,.29.78.78,0,0,0,.16.24.85.85,0,0,0,.28.16,1.16,1.16,0,0,0,.4.06,2.22,2.22,0,0,0,.37,0l.33-.08c.1,0,.2-.08.3-.12a2.26,2.26,0,0,0,.26-.16Z"/><path class="cls-2" d="M530.64,21.56a2.08,2.08,0,0,1-.4.15,3.23,3.23,0,0,1-.47.12,4.51,4.51,0,0,1-.53.07,5.25,5.25,0,0,1-.56,0,3.13,3.13,0,0,1-1.2-.22,2.27,2.27,0,0,1-.87-.65,2.9,2.9,0,0,1-.53-1,4.72,4.72,0,0,1-.18-1.36,5.61,5.61,0,0,1,.08-.95,3.2,3.2,0,0,1,.24-.81,2.57,2.57,0,0,1,.4-.64,2.34,2.34,0,0,1,.56-.48,2.71,2.71,0,0,1,.72-.29,4,4,0,0,1,.88-.1l.5,0,.5.07a2.8,2.8,0,0,1,.46.12,1.69,1.69,0,0,1,.35.14v1.35l-.34-.11a2.74,2.74,0,0,0-.39-.09l-.42-.05a3.39,3.39,0,0,0-.45,0,1.41,1.41,0,0,0-.64.13,1.28,1.28,0,0,0-.46.37,1.67,1.67,0,0,0-.27.57,2.73,2.73,0,0,0-.09.72,3,3,0,0,0,.09.75,2.15,2.15,0,0,0,.28.59,1.41,1.41,0,0,0,.45.39,1.44,1.44,0,0,0,.64.14l.47,0,.43,0,.39-.09.36-.11Z"/><path class="cls-2" d="M535.92,21.66l-.34.11-.37.08-.39.06h-.41a3,3,0,0,1-1-.15,1.55,1.55,0,0,1-.66-.43,1.76,1.76,0,0,1-.34-.7,4,4,0,0,1-.1-.95V17h-1V15.6h1l0-1.85h1.55V15.6h2V17h-2v2.6a2.5,2.5,0,0,0,0,.42.78.78,0,0,0,.14.29.63.63,0,0,0,.29.16,1.47,1.47,0,0,0,.46.06h.29l.29,0,.27,0,.26-.05Z"/><line class="cls-4" x1="98.34" y1="18.02" x2="115.91" y2="18.02"/><path class="cls-5" d="M98.34,21.78A3.76,3.76,0,1,1,102.1,18,3.77,3.77,0,0,1,98.34,21.78Z"/><polygon class="cls-5" points="112.05 21.41 115.44 18.02 112.05 14.63 114.93 14.63 118.32 18.02 114.93 21.41 112.05 21.41"/><line class="cls-4" x1="214.1" y1="18.02" x2="231.67" y2="18.02"/><path class="cls-5" d="M214.1,21.78A3.76,3.76,0,1,1,217.86,18,3.77,3.77,0,0,1,214.1,21.78Z"/><polygon class="cls-5" points="227.81 21.41 231.2 18.02 227.81 14.63 230.69 14.63 234.08 18.02 230.69 21.41 227.81 21.41"/><line class="cls-4" x1="329.86" y1="18.02" x2="347.43" y2="18.02"/><path class="cls-5" d="M329.86,21.78A3.76,3.76,0,1,1,333.62,18,3.77,3.77,0,0,1,329.86,21.78Z"/><polygon class="cls-5" points="343.57 21.41 346.96 18.02 343.57 14.63 346.45 14.63 349.84 18.02 346.45 21.41 343.57 21.41"/><line class="cls-4" x1="445.62" y1="18.02" x2="463.19" y2="18.02"/><path class="cls-5" d="M445.62,21.78A3.76,3.76,0,1,1,449.38,18,3.77,3.77,0,0,1,445.62,21.78Z"/><polygon class="cls-5" points="459.33 21.41 462.72 18.02 459.33 14.63 462.21 14.63 465.6 18.02 462.21 21.41 459.33 21.41"/></g></g></svg>