<svg xmlns="http://www.w3.org/2000/svg" viewBox="0 0 682.71 280.47"><defs><style>.cls-1{fill:#c03;}.cls-1,.cls-3{opacity:0.8;}.cls-2{fill:#fff;}.cls-3,.cls-5{fill:#6d7579;}.cls-4{fill:none;stroke:#6d7579;stroke-linecap:round;stroke-miterlimit:10;}</style></defs><g id="Layer_2" data-name="Layer 2"><g id="레이어_1" data-name="레이어 1"><rect class="cls-1" x="415.01" width="133.77" height="47.57"/><path class="cls-2" d="M444.49,20.31l-1.7-2.77-.15-.24c-.05-.06-.09-.12-.14-.17a.45.45,0,0,0-.13-.11.46.46,0,0,0-.16-.07l-.2,0h-.76v3.41h-1.64V11.63h2.93a5.35,5.35,0,0,1,1.33.15,2.75,2.75,0,0,1,1,.48,2.07,2.07,0,0,1,.59.81,3,3,0,0,1,.2,1.14,2.77,2.77,0,0,1-.13.89,2.53,2.53,0,0,1-.37.69,2.17,2.17,0,0,1-.55.5,2.4,2.4,0,0,1-.67.31,1.27,1.27,0,0,1,.33.24,2,2,0,0,1,.28.35l1.92,3.12Zm-2.1-4.71a2.19,2.19,0,0,0,.66-.09,1.34,1.34,0,0,0,.49-.25,1.06,1.06,0,0,0,.29-.43,1.66,1.66,0,0,0,.11-.61,1.31,1.31,0,0,0-.11-.55,1,1,0,0,0-.3-.4,1.54,1.54,0,0,0-.48-.24,2.62,2.62,0,0,0-.66-.07h-1.14V15.6Z"/><path class="cls-2" d="M452.14,20a4.68,4.68,0,0,1-.45.19l-.52.14a5.21,5.21,0,0,1-.59.09c-.21,0-.43,0-.67,0a3.84,3.84,0,0,1-.93-.1,3,3,0,0,1-.76-.3,2.48,2.48,0,0,1-.59-.48,2.53,2.53,0,0,1-.42-.64,3.19,3.19,0,0,1-.26-.79,4.4,4.4,0,0,1-.08-.91,6.15,6.15,0,0,1,.06-.87,4.44,4.44,0,0,1,.21-.78,2.89,2.89,0,0,1,.37-.67,2.31,2.31,0,0,1,1.25-.86,3.63,3.63,0,0,1,1.85,0,2.34,2.34,0,0,1,.73.34,2,2,0,0,1,.53.51,2.76,2.76,0,0,1,.36.65,3.79,3.79,0,0,1,.21.75,5.29,5.29,0,0,1,.06.8v.13c0,.05,0,.11,0,.16a.71.71,0,0,1,0,.15c0,.05,0,.1,0,.13h-4a1.7,1.7,0,0,0,.12.57,1.19,1.19,0,0,0,.79.7,2.5,2.5,0,0,0,.72.1,5.25,5.25,0,0,0,.56,0l.54-.07a4,4,0,0,0,.5-.11,4.56,4.56,0,0,0,.44-.14Zm-1.25-3.49a2.13,2.13,0,0,0-.12-.55,1.22,1.22,0,0,0-.24-.4,1.18,1.18,0,0,0-.37-.26,1.42,1.42,0,0,0-.48-.08,1.48,1.48,0,0,0-.49.08.92.92,0,0,0-.35.26,1.22,1.22,0,0,0-.24.4,2.13,2.13,0,0,0-.12.55Z"/><path class="cls-2" d="M453.92,23V14.16h1.39l.13.55a2,2,0,0,1,.34-.31,2.13,2.13,0,0,1,.42-.23,2.07,2.07,0,0,1,.5-.15,3.18,3.18,0,0,1,1.7.16,2.35,2.35,0,0,1,.83.63,2.89,2.89,0,0,1,.52,1,4.91,4.91,0,0,1,.18,1.38,4.49,4.49,0,0,1-.19,1.37,3,3,0,0,1-.55,1,2.33,2.33,0,0,1-.89.66,3,3,0,0,1-1.19.23,3.44,3.44,0,0,1-.46,0,3.15,3.15,0,0,1-.42-.09,2.39,2.39,0,0,1-.37-.15,3.79,3.79,0,0,1-.34-.2v3Zm1.6-4.24a2,2,0,0,0,.29.15,1.7,1.7,0,0,0,.32.1,1.86,1.86,0,0,0,.34.06,2.42,2.42,0,0,0,.39,0,1.31,1.31,0,0,0,.64-.14,1.33,1.33,0,0,0,.44-.38,1.78,1.78,0,0,0,.27-.59,3.36,3.36,0,0,0,.08-.74,3.5,3.5,0,0,0-.08-.74,1.83,1.83,0,0,0-.27-.6,1.2,1.2,0,0,0-.45-.39,1.32,1.32,0,0,0-.64-.15l-.39,0-.34.07a1.6,1.6,0,0,0-.31.1l-.29.15Z"/><path class="cls-2" d="M461.4,20.31V14.16h1.5L463,15a3.08,3.08,0,0,1,.3-.41,1.83,1.83,0,0,1,.36-.32,1.6,1.6,0,0,1,.44-.2,1.72,1.72,0,0,1,.52-.08l.28,0a.91.91,0,0,1,.26.06v1.58l-.21,0-.18,0h-.4a1.27,1.27,0,0,0-.28,0l-.26.05-.23.08a1,1,0,0,0-.21.11l-.19.13-.16.16v4.2Z"/><path class="cls-2" d="M471.06,20a4.68,4.68,0,0,1-.45.19c-.16.05-.33.1-.52.14a4.89,4.89,0,0,1-.59.09c-.21,0-.43,0-.67,0a3.82,3.82,0,0,1-.92-.1,2.94,2.94,0,0,1-.77-.3,2.48,2.48,0,0,1-.59-.48,2.53,2.53,0,0,1-.42-.64,3.66,3.66,0,0,1-.26-.79,5.22,5.22,0,0,1-.08-.91,6.15,6.15,0,0,1,.06-.87,4.44,4.44,0,0,1,.21-.78,2.89,2.89,0,0,1,.37-.67,2.22,2.22,0,0,1,.54-.52,2.28,2.28,0,0,1,.72-.34,3.18,3.18,0,0,1,.91-.12,3.28,3.28,0,0,1,.93.12,2.34,2.34,0,0,1,.73.34,2.18,2.18,0,0,1,.54.51,3.72,3.72,0,0,1,.36.65,3.77,3.77,0,0,1,.2.75,5.29,5.29,0,0,1,.06.8v.13a.86.86,0,0,1,0,.16.71.71,0,0,1,0,.15.49.49,0,0,1,0,.13h-4a2,2,0,0,0,.13.57,1.13,1.13,0,0,0,.29.43,1.26,1.26,0,0,0,.5.27,2.38,2.38,0,0,0,.71.1,5.25,5.25,0,0,0,.56,0l.54-.07a3.67,3.67,0,0,0,.5-.11,3.81,3.81,0,0,0,.44-.14Zm-1.24-3.49a2.62,2.62,0,0,0-.13-.55,1.22,1.22,0,0,0-.24-.4,1,1,0,0,0-.37-.26,1.48,1.48,0,0,0-1,0,1,1,0,0,0-.36.26,1.22,1.22,0,0,0-.24.4,1.79,1.79,0,0,0-.11.55Z"/><path class="cls-2" d="M472.43,18.75a1.28,1.28,0,0,0,.26.1l.31.09.36.08.38.06.38,0h.35a3.89,3.89,0,0,0,.51,0,1.87,1.87,0,0,0,.39-.09.76.76,0,0,0,.24-.18.45.45,0,0,0,.08-.26.53.53,0,0,0-.07-.26.58.58,0,0,0-.22-.18A2.68,2.68,0,0,0,475,18l-.56-.14a4.37,4.37,0,0,1-.88-.27,2,2,0,0,1-.61-.4,1.46,1.46,0,0,1-.36-.55,2.29,2.29,0,0,1-.11-.73,2,2,0,0,1,.15-.79,1.56,1.56,0,0,1,.46-.6,2.35,2.35,0,0,1,.81-.39,4.52,4.52,0,0,1,1.18-.13h.37l.38,0,.36.07a2.79,2.79,0,0,1,.34.09l.29.1a1.05,1.05,0,0,1,.21.12v1.32a1.18,1.18,0,0,0-.25-.1,2.26,2.26,0,0,0-.31-.1l-.34-.08-.37-.06-.35,0h-.33a2.38,2.38,0,0,0-.39,0,1.26,1.26,0,0,0-.31.09.53.53,0,0,0-.19.17.41.41,0,0,0-.07.25.39.39,0,0,0,.07.25.58.58,0,0,0,.22.18,1.85,1.85,0,0,0,.38.13c.15,0,.34.09.55.14a4.81,4.81,0,0,1,.88.28,2.35,2.35,0,0,1,.62.39,1.46,1.46,0,0,1,.36.55,2,2,0,0,1,.12.74,1.76,1.76,0,0,1-.18.79,1.71,1.71,0,0,1-.53.61,2.51,2.51,0,0,1-.87.41,4.27,4.27,0,0,1-1.19.14q-.31,0-.63,0a5.24,5.24,0,0,1-.61-.09,4.71,4.71,0,0,1-.51-.13,2.41,2.41,0,0,1-.38-.16Z"/><path class="cls-2" d="M483.5,20a4.68,4.68,0,0,1-.45.19c-.16.05-.33.1-.52.14a4.89,4.89,0,0,1-.59.09c-.21,0-.43,0-.67,0a3.82,3.82,0,0,1-.92-.1,2.74,2.74,0,0,1-.76-.3,2.35,2.35,0,0,1-.6-.48,2.83,2.83,0,0,1-.42-.64,3.66,3.66,0,0,1-.26-.79,5.22,5.22,0,0,1-.08-.91,4.94,4.94,0,0,1,.07-.87,3.19,3.19,0,0,1,.21-.78,2.53,2.53,0,0,1,.36-.67,2.22,2.22,0,0,1,.54-.52,2.39,2.39,0,0,1,.72-.34A3.18,3.18,0,0,1,481,14a3.28,3.28,0,0,1,.93.12,2.34,2.34,0,0,1,.73.34,2.18,2.18,0,0,1,.54.51,3.72,3.72,0,0,1,.36.65,3.77,3.77,0,0,1,.2.75,5.29,5.29,0,0,1,.06.8v.13a.86.86,0,0,1,0,.16.71.71,0,0,1,0,.15.49.49,0,0,1,0,.13h-4a2,2,0,0,0,.13.57,1.14,1.14,0,0,0,.79.7,2.38,2.38,0,0,0,.71.1,5.12,5.12,0,0,0,.56,0l.54-.07a3.36,3.36,0,0,0,.5-.11,3.81,3.81,0,0,0,.44-.14Zm-1.24-3.49a1.78,1.78,0,0,0-.13-.55,1.22,1.22,0,0,0-.24-.4,1,1,0,0,0-.37-.26,1.48,1.48,0,0,0-1,0,1,1,0,0,0-.36.26,1.22,1.22,0,0,0-.24.4,2.67,2.67,0,0,0-.11.55Z"/><path class="cls-2" d="M489.39,20.31V16.58a1.66,1.66,0,0,0-.07-.53,1,1,0,0,0-.21-.36,1,1,0,0,0-.36-.22,1.61,1.61,0,0,0-.51-.07l-.39,0a2,2,0,0,0-.35.08,2.39,2.39,0,0,0-.32.11l-.29.15v4.55h-1.61V14.16h1.4l.12.54a4,4,0,0,1,.4-.32,2.35,2.35,0,0,1,.45-.22,2.74,2.74,0,0,1,.51-.15,3.6,3.6,0,0,1,.58,0,3,3,0,0,1,.69.07,2,2,0,0,1,.56.2,1.89,1.89,0,0,1,.44.35,1.86,1.86,0,0,1,.31.46,2.22,2.22,0,0,1,.19.6,3.11,3.11,0,0,1,.07.71v3.95Z"/><path class="cls-2" d="M496.68,20.22l-.34.12-.37.08-.39,0-.4,0a3,3,0,0,1-1-.15,1.63,1.63,0,0,1-.66-.44,1.7,1.7,0,0,1-.34-.7,3.87,3.87,0,0,1-.1-.94V15.52h-1V14.16h1l0-1.84h1.55v1.84h2.05v1.36h-2.05v2.61a2.27,2.27,0,0,0,0,.41.62.62,0,0,0,.15.29.56.56,0,0,0,.28.17,1.89,1.89,0,0,0,.46.05h.29l.29,0,.27,0,.26-.06Z"/><path class="cls-2" d="M501.39,20.31l-.09-.49a2.66,2.66,0,0,1-.38.28,2,2,0,0,1-.44.22,3.29,3.29,0,0,1-.5.14,3.36,3.36,0,0,1-.57.05,2.53,2.53,0,0,1-.8-.13A1.83,1.83,0,0,1,498,20a1.87,1.87,0,0,1-.4-.59,2.06,2.06,0,0,1-.13-.76,2.19,2.19,0,0,1,.09-.66,1.66,1.66,0,0,1,.29-.52,1.73,1.73,0,0,1,.46-.38,2.59,2.59,0,0,1,.63-.26,5.24,5.24,0,0,1,.79-.16,9,9,0,0,1,.93,0h.59v-.11a1.62,1.62,0,0,0-.08-.52.79.79,0,0,0-.24-.35.93.93,0,0,0-.41-.2,2.6,2.6,0,0,0-.6-.07,5.12,5.12,0,0,0-.56,0,4.34,4.34,0,0,0-.52.09,3.59,3.59,0,0,0-.47.12l-.43.17V14.5a2.56,2.56,0,0,1,.44-.21,3.66,3.66,0,0,1,.53-.17l.59-.11c.21,0,.43,0,.65,0a4.47,4.47,0,0,1,1.15.14,2,2,0,0,1,.84.44,1.86,1.86,0,0,1,.53.77,3.4,3.4,0,0,1,.17,1.13v3.86Zm-.15-2.6H501a6.67,6.67,0,0,0-.83,0,2.44,2.44,0,0,0-.59.14.79.79,0,0,0-.35.25.62.62,0,0,0-.11.37.93.93,0,0,0,.05.29.6.6,0,0,0,.16.23.69.69,0,0,0,.28.16,1.16,1.16,0,0,0,.4.06,2.1,2.1,0,0,0,.36,0,1.87,1.87,0,0,0,.34-.08A1.48,1.48,0,0,0,501,19a1.75,1.75,0,0,0,.27-.16Z"/><path class="cls-2" d="M508.53,20.22l-.34.12-.37.08-.39,0-.41,0a3,3,0,0,1-1-.15,1.57,1.57,0,0,1-.66-.44,1.58,1.58,0,0,1-.34-.7,3.87,3.87,0,0,1-.1-.94V15.52h-1V14.16h1l0-1.84h1.55v1.84h2.05v1.36h-2.05v2.61a1.62,1.62,0,0,0,0,.41.61.61,0,0,0,.14.29A.64.64,0,0,0,507,19a1.89,1.89,0,0,0,.46.05h.29l.29,0,.27,0,.26-.06Z"/><path class="cls-2" d="M509.8,13.24V11.63h1.6v1.61Zm0,7.07V14.16h1.6v6.15Z"/><path class="cls-2" d="M514.69,20.31l-2.27-6.15h1.74l1.16,3.63c0,.13.08.27.12.43s.08.32.12.49l.12-.49c.05-.16.09-.3.14-.43l1.2-3.63h1.64l-2.25,6.15Z"/><path class="cls-2" d="M524.44,20l-.46.19-.51.14a5.4,5.4,0,0,1-.6.09c-.2,0-.43,0-.66,0a3.84,3.84,0,0,1-.93-.1,2.87,2.87,0,0,1-.76-.3,2.3,2.3,0,0,1-.59-.48,2.87,2.87,0,0,1-.43-.64,3.18,3.18,0,0,1-.25-.79,4.39,4.39,0,0,1-.09-.91,4.94,4.94,0,0,1,.07-.87,3.19,3.19,0,0,1,.21-.78,2.56,2.56,0,0,1,.37-.67,2.18,2.18,0,0,1,.53-.52,2.39,2.39,0,0,1,.72-.34A3.23,3.23,0,0,1,522,14a3.4,3.4,0,0,1,.94.12,2.39,2.39,0,0,1,.72.34,2.18,2.18,0,0,1,.54.51,2.76,2.76,0,0,1,.36.65,3.77,3.77,0,0,1,.2.75,4.25,4.25,0,0,1,.07.8.62.62,0,0,1,0,.13v.16c0,.05,0,.11,0,.15s0,.1,0,.13h-4a2,2,0,0,0,.13.57,1.28,1.28,0,0,0,.3.43,1.22,1.22,0,0,0,.49.27,2.48,2.48,0,0,0,.71.1,5.44,5.44,0,0,0,.57,0l.54-.07a4,4,0,0,0,.5-.11l.44-.14Zm-1.25-3.49a2.13,2.13,0,0,0-.12-.55,1.09,1.09,0,0,0-.25-.4,1,1,0,0,0-.36-.26,1.48,1.48,0,0,0-.49-.08,1.42,1.42,0,0,0-.48.08,1,1,0,0,0-.36.26,1.2,1.2,0,0,0-.23.4,2.13,2.13,0,0,0-.12.55Z"/><path class="cls-2" d="M427.22,34.91a4.28,4.28,0,0,1-1-.11,3.1,3.1,0,0,1-.79-.31,2.57,2.57,0,0,1-.59-.49,2.23,2.23,0,0,1-.41-.66,3.17,3.17,0,0,1-.24-.79,4.47,4.47,0,0,1-.08-.91,4.4,4.4,0,0,1,.08-.91,2.81,2.81,0,0,1,.25-.79,2.65,2.65,0,0,1,.42-.66,2.34,2.34,0,0,1,.59-.49,3,3,0,0,1,.78-.32,4.28,4.28,0,0,1,1-.1,4.22,4.22,0,0,1,1,.1,3,3,0,0,1,.78.32,2.19,2.19,0,0,1,.6.49,2.56,2.56,0,0,1,.41.65,3.17,3.17,0,0,1,.24.79,5.31,5.31,0,0,1,.08.91,5.22,5.22,0,0,1-.08.91,3.4,3.4,0,0,1-.25.8,2.59,2.59,0,0,1-.42.65,2.42,2.42,0,0,1-.6.5,3,3,0,0,1-.78.31A4.08,4.08,0,0,1,427.22,34.91Zm0-1.34a1.33,1.33,0,0,0,.65-.15,1.3,1.3,0,0,0,.46-.41,1.92,1.92,0,0,0,.25-.62,3.06,3.06,0,0,0,.08-.76,3.11,3.11,0,0,0-.08-.76,2,2,0,0,0-.25-.61,1.27,1.27,0,0,0-.46-.4,1.33,1.33,0,0,0-.65-.15,1.41,1.41,0,0,0-.67.15,1.26,1.26,0,0,0-.45.41,1.86,1.86,0,0,0-.25.61,3.65,3.65,0,0,0,0,1.52,1.86,1.86,0,0,0,.25.61,1.36,1.36,0,0,0,.45.41A1.41,1.41,0,0,0,427.22,33.57Z"/><path class="cls-2" d="M432.08,34.71V29.92h-1V28.56h1v-.62a3,3,0,0,1,.17-1.05,1.92,1.92,0,0,1,1.24-1.2,3.14,3.14,0,0,1,1-.14h.38l.34,0,.3.06.27.07V27l-.2,0-.24,0-.26,0h-.28a1.7,1.7,0,0,0-.48.06.81.81,0,0,0-.35.2.72.72,0,0,0-.21.36,1.62,1.62,0,0,0-.07.53v.52h1.85v1.36h-1.85v4.79Z"/><path class="cls-2" d="M443.11,34.71l-.08-.49a3.37,3.37,0,0,1-.38.28,2.58,2.58,0,0,1-.44.22,2.85,2.85,0,0,1-.5.14,3.45,3.45,0,0,1-.57,0,2.59,2.59,0,0,1-.81-.13,1.78,1.78,0,0,1-.61-.37,1.59,1.59,0,0,1-.4-.59,2.06,2.06,0,0,1-.14-.76,1.91,1.91,0,0,1,.1-.66,1.75,1.75,0,0,1,.28-.52,1.78,1.78,0,0,1,.47-.38,2.31,2.31,0,0,1,.62-.26,4.44,4.44,0,0,1,.79-.15,6.87,6.87,0,0,1,.93-.05H443v-.11a1.64,1.64,0,0,0-.07-.52.79.79,0,0,0-.24-.35,1,1,0,0,0-.42-.2,2.47,2.47,0,0,0-.6-.07,4.93,4.93,0,0,0-.55,0,4.34,4.34,0,0,0-.52.09,3.74,3.74,0,0,0-.48.12,4.08,4.08,0,0,0-.42.17V28.9a2.25,2.25,0,0,1,.44-.21,3.52,3.52,0,0,1,.52-.17l.6-.11c.21,0,.42,0,.64,0a4.39,4.39,0,0,1,1.15.13,2.08,2.08,0,0,1,.85.44,1.88,1.88,0,0,1,.52.76,3.25,3.25,0,0,1,.18,1.14v3.86Zm-.15-2.6h-.26a7,7,0,0,0-.84,0,2.56,2.56,0,0,0-.59.14.76.76,0,0,0-.34.25.57.57,0,0,0-.12.37.72.72,0,0,0,.06.29.46.46,0,0,0,.16.23.72.72,0,0,0,.27.16,1.2,1.2,0,0,0,.4.06,2.22,2.22,0,0,0,.37,0,1.59,1.59,0,0,0,.33-.08,1.34,1.34,0,0,0,.3-.12,2.26,2.26,0,0,0,.26-.16Z"/><path class="cls-2" d="M453.63,34.71l-.14-.55a2,2,0,0,1-.34.3,1.44,1.44,0,0,1-.42.24,1.87,1.87,0,0,1-.49.15,2.74,2.74,0,0,1-.59.06,2.65,2.65,0,0,1-1.11-.23,2.3,2.3,0,0,1-.84-.64,3,3,0,0,1-.53-1,4.76,4.76,0,0,1-.18-1.36,4.54,4.54,0,0,1,.19-1.39,2.73,2.73,0,0,1,.54-1,2.29,2.29,0,0,1,.89-.64,3,3,0,0,1,1.19-.22,3.44,3.44,0,0,1,.46,0,2.84,2.84,0,0,1,.42.09,2.46,2.46,0,0,1,.38.14,2.39,2.39,0,0,1,.34.21V25.69H455v9Zm-.23-4.6a2.1,2.1,0,0,0-.3-.15l-.32-.11a2.14,2.14,0,0,0-.35-.06l-.39,0a1.36,1.36,0,0,0-.63.14,1.2,1.2,0,0,0-.45.39,1.7,1.7,0,0,0-.25.58,2.94,2.94,0,0,0-.09.74,2.89,2.89,0,0,0,.09.74,1.66,1.66,0,0,0,.28.6,1.33,1.33,0,0,0,.45.4,1.48,1.48,0,0,0,.65.14l.38,0a1.86,1.86,0,0,0,.34-.06l.3-.1.29-.15Z"/><path class="cls-2" d="M461.72,34.44a4.68,4.68,0,0,1-.45.19c-.16,0-.33.1-.52.14a4.89,4.89,0,0,1-.59.09c-.2,0-.43,0-.66,0a3.84,3.84,0,0,1-.93-.1,2.87,2.87,0,0,1-.76-.3,2.14,2.14,0,0,1-.59-.48,2.87,2.87,0,0,1-.43-.64,3.24,3.24,0,0,1-.25-.78,4.56,4.56,0,0,1-.09-.92,4.94,4.94,0,0,1,.07-.87,3.19,3.19,0,0,1,.21-.78,2.86,2.86,0,0,1,.36-.67,2.22,2.22,0,0,1,.54-.52,2.39,2.39,0,0,1,.72-.34,3.18,3.18,0,0,1,.91-.12,3.4,3.4,0,0,1,.94.12,2.39,2.39,0,0,1,.72.34,2.18,2.18,0,0,1,.54.51,2.76,2.76,0,0,1,.36.65,3.59,3.59,0,0,1,.2.75,4.25,4.25,0,0,1,.07.8s0,.08,0,.13v.16a.81.81,0,0,0,0,.15c0,.05,0,.1,0,.13h-4a2,2,0,0,0,.13.57,1.28,1.28,0,0,0,.3.43,1.22,1.22,0,0,0,.49.27,2.43,2.43,0,0,0,.71.1,5.12,5.12,0,0,0,.56,0l.55-.07a3.52,3.52,0,0,0,.49-.11,3.81,3.81,0,0,0,.44-.14ZM460.48,31a2.22,2.22,0,0,0-.12-.55,1.24,1.24,0,0,0-.25-.4,1,1,0,0,0-.36-.26,1.53,1.53,0,0,0-.49-.08,1.42,1.42,0,0,0-.48.08,1,1,0,0,0-.36.26,1.05,1.05,0,0,0-.23.4,2.22,2.22,0,0,0-.12.55Z"/><path class="cls-2" d="M467,34.71l-.09-.49a2.66,2.66,0,0,1-.38.28,2.26,2.26,0,0,1-.44.22,2.63,2.63,0,0,1-.5.14,3.45,3.45,0,0,1-.57,0,2.53,2.53,0,0,1-.8-.13,1.83,1.83,0,0,1-.62-.37,1.87,1.87,0,0,1-.4-.59,2.06,2.06,0,0,1-.14-.76,1.91,1.91,0,0,1,.1-.66,1.75,1.75,0,0,1,.28-.52,1.78,1.78,0,0,1,.47-.38,2.25,2.25,0,0,1,.63-.26,4.32,4.32,0,0,1,.78-.15,6.93,6.93,0,0,1,.94-.05h.58v-.11a1.64,1.64,0,0,0-.07-.52.79.79,0,0,0-.24-.35,1,1,0,0,0-.41-.2,2.6,2.6,0,0,0-.6-.07,5,5,0,0,0-.56,0,4.34,4.34,0,0,0-.52.09,3.59,3.59,0,0,0-.47.12l-.43.17V28.9a2.56,2.56,0,0,1,.44-.21,3.66,3.66,0,0,1,.53-.17l.59-.11c.21,0,.42,0,.65,0a4.49,4.49,0,0,1,1.15.13,2.11,2.11,0,0,1,.84.44,1.78,1.78,0,0,1,.52.76,3.25,3.25,0,0,1,.18,1.14v3.86Zm-.16-2.6h-.26a7,7,0,0,0-.84,0,2.47,2.47,0,0,0-.58.14.79.79,0,0,0-.35.25.56.56,0,0,0-.11.37.71.71,0,0,0,.05.29.53.53,0,0,0,.16.23.72.72,0,0,0,.27.16,1.25,1.25,0,0,0,.4.06,2.13,2.13,0,0,0,.37,0,1.59,1.59,0,0,0,.33-.08,1.34,1.34,0,0,0,.3-.12,1.64,1.64,0,0,0,.26-.16Z"/><path class="cls-2" d="M472.87,34.66l-.24.07-.27.05-.3,0h-.33a1.87,1.87,0,0,1-.7-.11,1.21,1.21,0,0,1-.48-.33,1.24,1.24,0,0,1-.28-.52,2.53,2.53,0,0,1-.09-.7V25.69h1.6v7.25a1.25,1.25,0,0,0,0,.21.38.38,0,0,0,.09.15.31.31,0,0,0,.15.08.78.78,0,0,0,.24,0,1.51,1.51,0,0,0,.3,0l.29,0Z"/><path class="cls-2" d="M479,34.44a4.68,4.68,0,0,1-.45.19l-.52.14a5.21,5.21,0,0,1-.59.09c-.21,0-.43,0-.67,0a3.84,3.84,0,0,1-.93-.1,3,3,0,0,1-.76-.3,2.48,2.48,0,0,1-.59-.48,2.53,2.53,0,0,1-.42-.64,3.25,3.25,0,0,1-.26-.78,4.56,4.56,0,0,1-.09-.92,6.13,6.13,0,0,1,.07-.87A3.72,3.72,0,0,1,474,30a2.89,2.89,0,0,1,.37-.67,2.31,2.31,0,0,1,1.25-.86,3.26,3.26,0,0,1,.92-.12,3.33,3.33,0,0,1,.93.12,2.45,2.45,0,0,1,.73.34,2.14,2.14,0,0,1,.53.51,2.76,2.76,0,0,1,.36.65,3.61,3.61,0,0,1,.21.75,5.29,5.29,0,0,1,.06.8v.13s0,.11,0,.16,0,.11,0,.15,0,.1,0,.13h-4a1.7,1.7,0,0,0,.12.57,1.28,1.28,0,0,0,.3.43,1.22,1.22,0,0,0,.49.27,2.5,2.5,0,0,0,.72.1l.56,0,.54-.07a4,4,0,0,0,.5-.11,4.56,4.56,0,0,0,.44-.14ZM477.71,31a2.22,2.22,0,0,0-.12-.55,1.22,1.22,0,0,0-.24-.4,1.18,1.18,0,0,0-.37-.26,1.42,1.42,0,0,0-.48-.08,1.44,1.44,0,0,0-.49.08,1,1,0,0,0-.36.26,1.4,1.4,0,0,0-.23.4,2.22,2.22,0,0,0-.12.55Z"/><path class="cls-2" d="M480.74,34.71V28.56h1.5l.06.83a4.27,4.27,0,0,1,.29-.41,1.85,1.85,0,0,1,.37-.31,1.63,1.63,0,0,1,.44-.21,1.67,1.67,0,0,1,.52-.08l.28,0a1.43,1.43,0,0,1,.26.06V30l-.21,0-.18,0h-.41a1.32,1.32,0,0,0-.28,0l-.25.05-.24.08-.2.11-.19.13-.16.16v4.2Z"/><path class="cls-2" d="M493,34.52a3.7,3.7,0,0,1-.4.16l-.47.12-.53.07-.57,0a2.94,2.94,0,0,1-1.19-.22A2.27,2.27,0,0,1,489,34a2.75,2.75,0,0,1-.53-1,4.69,4.69,0,0,1-.18-1.35,4.78,4.78,0,0,1,.08-1,3.33,3.33,0,0,1,.24-.81,2.77,2.77,0,0,1,.4-.64,2.09,2.09,0,0,1,.56-.47,2.31,2.31,0,0,1,.72-.29,3.43,3.43,0,0,1,.88-.1l.49,0,.51.08.46.11a1.42,1.42,0,0,1,.35.15v1.35a2.06,2.06,0,0,0-.35-.12l-.38-.09-.42-.05-.46,0a1.47,1.47,0,0,0-.64.13,1.36,1.36,0,0,0-.45.37,1.67,1.67,0,0,0-.27.57,2.75,2.75,0,0,0-.09.73,2.94,2.94,0,0,0,.09.74,1.78,1.78,0,0,0,.27.59,1.23,1.23,0,0,0,.46.39,1.41,1.41,0,0,0,.64.14,3.46,3.46,0,0,0,.46,0l.44-.05a2.74,2.74,0,0,0,.39-.09l.36-.11Z"/><path class="cls-2" d="M497,34.91a4.35,4.35,0,0,1-1-.11,3,3,0,0,1-.78-.31,2.62,2.62,0,0,1-.6-.49,2.73,2.73,0,0,1-.41-.66,3.17,3.17,0,0,1-.24-.79,5.31,5.31,0,0,1-.08-.91,5.22,5.22,0,0,1,.08-.91,3.66,3.66,0,0,1,.25-.79,2.65,2.65,0,0,1,.42-.66,2.39,2.39,0,0,1,.6-.49,3,3,0,0,1,.78-.32,4.13,4.13,0,0,1,1-.1,4.22,4.22,0,0,1,1,.1,3,3,0,0,1,.79.32,2.14,2.14,0,0,1,.59.49,2.31,2.31,0,0,1,.41.65,3.66,3.66,0,0,1,.25.79,5.33,5.33,0,0,1,.07.91,4.4,4.4,0,0,1-.08.91,3.38,3.38,0,0,1-.24.8,2.93,2.93,0,0,1-.43.65,2.37,2.37,0,0,1-.59.5,3,3,0,0,1-.78.31A4.17,4.17,0,0,1,497,34.91Zm0-1.34a1.34,1.34,0,0,0,.66-.15,1.36,1.36,0,0,0,.45-.41,1.93,1.93,0,0,0,.26-.62,3.62,3.62,0,0,0,.08-.76,3.69,3.69,0,0,0-.08-.76,2,2,0,0,0-.26-.61,1.33,1.33,0,0,0-.45-.4,1.53,1.53,0,0,0-1.32,0,1.18,1.18,0,0,0-.45.41,1.87,1.87,0,0,0-.26.61,3.65,3.65,0,0,0,0,1.52,1.87,1.87,0,0,0,.26.61,1.27,1.27,0,0,0,.45.41A1.34,1.34,0,0,0,497,33.57Z"/><path class="cls-2" d="M509.76,34.71V31a2,2,0,0,0-.07-.53.88.88,0,0,0-.22-.36.81.81,0,0,0-.36-.22,1.53,1.53,0,0,0-.51-.07l-.39,0a2,2,0,0,0-.35.08l-.32.11-.29.15v4.55h-1.6V31a1.64,1.64,0,0,0-.08-.53.86.86,0,0,0-.21-.36,1,1,0,0,0-.36-.22,1.61,1.61,0,0,0-.51-.07l-.39,0a2,2,0,0,0-.35.08,2.39,2.39,0,0,0-.32.11,2.69,2.69,0,0,0-.29.16v4.54h-1.6V28.56h1.39l.12.54a2.87,2.87,0,0,1,.4-.31,2.42,2.42,0,0,1,.45-.24,3.8,3.8,0,0,1,.51-.14,3.6,3.6,0,0,1,.58,0,3.05,3.05,0,0,1,.62.05,2,2,0,0,1,.52.17,1.77,1.77,0,0,1,.43.28,1.51,1.51,0,0,1,.33.38,2.61,2.61,0,0,1,.44-.37,2.36,2.36,0,0,1,.52-.28,2.88,2.88,0,0,1,.59-.18,4.65,4.65,0,0,1,.66-.05,3,3,0,0,1,.69.07,1.85,1.85,0,0,1,.56.2,1.7,1.7,0,0,1,.44.35,1.89,1.89,0,0,1,.32.46,2.64,2.64,0,0,1,.19.6,3.84,3.84,0,0,1,.06.71v3.95Z"/><path class="cls-2" d="M513.16,37.41V28.56h1.39l.13.55a1.67,1.67,0,0,1,.34-.31,2.13,2.13,0,0,1,.42-.23,1.94,1.94,0,0,1,.5-.15,2.76,2.76,0,0,1,.59-.05,2.82,2.82,0,0,1,1.11.21,2.35,2.35,0,0,1,.83.63,3.06,3.06,0,0,1,.52,1,4.91,4.91,0,0,1,.18,1.38A4.82,4.82,0,0,1,519,33a3.05,3.05,0,0,1-.56,1,2.52,2.52,0,0,1-.88.66,3,3,0,0,1-1.19.23,3.44,3.44,0,0,1-.46,0,2.59,2.59,0,0,1-.42-.09,2.5,2.5,0,0,1-.38-.15l-.33-.2v3Zm1.6-4.24a2,2,0,0,0,.6.25,2,2,0,0,0,.35.06,2.42,2.42,0,0,0,.39,0,1.29,1.29,0,0,0,1.08-.52,1.59,1.59,0,0,0,.26-.59,2.83,2.83,0,0,0,.09-.74,2.94,2.94,0,0,0-.09-.74,1.82,1.82,0,0,0-.26-.6,1.2,1.2,0,0,0-.45-.39,1.36,1.36,0,0,0-.65-.15l-.38,0-.34.07a1.6,1.6,0,0,0-.31.1,2.69,2.69,0,0,0-.29.16Z"/><path class="cls-2" d="M524.08,34.71l-.09-.49a2.2,2.2,0,0,1-.38.28,2,2,0,0,1-.44.22,2.44,2.44,0,0,1-.5.14,3.24,3.24,0,0,1-.56,0,2.55,2.55,0,0,1-.81-.13,1.83,1.83,0,0,1-.62-.37,1.69,1.69,0,0,1-.39-.59,1.87,1.87,0,0,1-.14-.76,2.19,2.19,0,0,1,.09-.66,1.78,1.78,0,0,1,.29-.52,1.73,1.73,0,0,1,.46-.38,2.25,2.25,0,0,1,.63-.26,4.44,4.44,0,0,1,.79-.15,6.87,6.87,0,0,1,.93-.05h.59v-.11a1.62,1.62,0,0,0-.08-.52.86.86,0,0,0-.23-.35,1,1,0,0,0-.42-.2,2.6,2.6,0,0,0-.6-.07,5.12,5.12,0,0,0-.56,0,3.86,3.86,0,0,0-.51.09,3.37,3.37,0,0,0-.48.12l-.43.17V28.9a2.56,2.56,0,0,1,.44-.21,4.11,4.11,0,0,1,.53-.17l.6-.11c.2,0,.42,0,.64,0a4.44,4.44,0,0,1,1.15.13,2.08,2.08,0,0,1,.85.44,1.88,1.88,0,0,1,.52.76,3.51,3.51,0,0,1,.17,1.14v3.86Zm-.15-2.6h-.27a6.67,6.67,0,0,0-.83,0,2.56,2.56,0,0,0-.59.14.85.85,0,0,0-.35.25.62.62,0,0,0-.11.37.93.93,0,0,0,.05.29.63.63,0,0,0,.16.23.76.76,0,0,0,.28.16,1.16,1.16,0,0,0,.4.06,2.22,2.22,0,0,0,.37,0,2,2,0,0,0,.33-.08,1.88,1.88,0,0,0,.3-.12,2.26,2.26,0,0,0,.26-.16Z"/><path class="cls-2" d="M531.44,34.71V31a1.66,1.66,0,0,0-.07-.53,1,1,0,0,0-.21-.36,1,1,0,0,0-.36-.22,1.61,1.61,0,0,0-.51-.07l-.39,0a2.33,2.33,0,0,0-.36.08l-.32.11-.28.16v4.54h-1.61V28.56h1.39l.13.54a2.87,2.87,0,0,1,.4-.31,2.42,2.42,0,0,1,.45-.24,3.8,3.8,0,0,1,.51-.14,3.52,3.52,0,0,1,.58,0,3,3,0,0,1,.69.07,2.07,2.07,0,0,1,.56.2,1.89,1.89,0,0,1,.44.35,1.86,1.86,0,0,1,.31.46,2.22,2.22,0,0,1,.19.6,3.11,3.11,0,0,1,.07.71v3.95Z"/><path class="cls-2" d="M533.85,36.05a1.26,1.26,0,0,0,.28,0l.3,0,.4,0a1.87,1.87,0,0,0,.34-.08,1.23,1.23,0,0,0,.31-.14,1.58,1.58,0,0,0,.49-.56,3.18,3.18,0,0,0,.2-.45l0-.07-2.31-6.23h1.74l1.16,3.61c0,.14.08.28.12.44a4.54,4.54,0,0,1,.12.5c0-.17.08-.33.13-.49s.09-.31.13-.44l1.2-3.62h1.64l-2.27,6.24a8.28,8.28,0,0,1-.38.88,4.19,4.19,0,0,1-.43.7,3,3,0,0,1-.49.51,2.3,2.3,0,0,1-.58.35,2.48,2.48,0,0,1-.67.2,3.94,3.94,0,0,1-.79.07h-.18l-.18,0-.18,0-.13,0Z"/><rect class="cls-3" x="421.63" y="77.57" width="120.54" height="47.57"/><path class="cls-2" d="M436,97.88V89.19h3a4.63,4.63,0,0,1,1.26.15,2.6,2.6,0,0,1,.88.45,1.79,1.79,0,0,1,.51.73,2.57,2.57,0,0,1,.17,1,3,3,0,0,1-.06.62,2.47,2.47,0,0,1-.19.5,2.1,2.1,0,0,1-.31.41,2.59,2.59,0,0,1-.41.31,2.49,2.49,0,0,1,.59.35,2.22,2.22,0,0,1,.44.48,2,2,0,0,1,.27.6,2.71,2.71,0,0,1,.09.71,2.87,2.87,0,0,1-.07.67,2,2,0,0,1-.23.58,1.75,1.75,0,0,1-.39.47,2.08,2.08,0,0,1-.56.36,3.09,3.09,0,0,1-.76.23,5.47,5.47,0,0,1-1,.08Zm2.82-5.06a1.82,1.82,0,0,0,.6-.08,1,1,0,0,0,.41-.23,1,1,0,0,0,.23-.37,1.61,1.61,0,0,0,.07-.51,1.5,1.5,0,0,0-.07-.44.89.89,0,0,0-.23-.34.93.93,0,0,0-.39-.22,1.77,1.77,0,0,0-.55-.08h-1.23v2.27Zm.42,3.71a1.78,1.78,0,0,0,.6-.08,1,1,0,0,0,.41-.23.93.93,0,0,0,.23-.37,1.81,1.81,0,0,0,.07-.49,1.7,1.7,0,0,0-.08-.51,1,1,0,0,0-.24-.4,1.18,1.18,0,0,0-.44-.25,1.87,1.87,0,0,0-.66-.1h-1.47v2.43Z"/><path class="cls-2" d="M443.83,97.88V91.73h1.5l.06.83a2.55,2.55,0,0,1,.3-.41,1.59,1.59,0,0,1,.36-.32,1.63,1.63,0,0,1,.44-.21,1.72,1.72,0,0,1,.52-.07,1.37,1.37,0,0,1,.28,0,.91.91,0,0,1,.26.06v1.58l-.21,0-.18,0h-.4l-.28,0-.26,0a1.57,1.57,0,0,0-.23.09,1,1,0,0,0-.21.1,1.33,1.33,0,0,0-.19.14l-.16.15v4.21Z"/><path class="cls-2" d="M452,97.88l-.08-.5a3.47,3.47,0,0,1-.38.29,2.31,2.31,0,0,1-.45.21,2.44,2.44,0,0,1-.5.14,2.48,2.48,0,0,1-.56,0,2.3,2.3,0,0,1-.81-.13,1.77,1.77,0,0,1-.62-.37,1.56,1.56,0,0,1-.39-.58,2.11,2.11,0,0,1-.14-.77,2.17,2.17,0,0,1,.09-.65,1.55,1.55,0,0,1,.29-.52,1.7,1.7,0,0,1,.46-.38,3,3,0,0,1,.63-.27,4.44,4.44,0,0,1,.79-.15,9,9,0,0,1,.93,0h.59v-.11a1.6,1.6,0,0,0-.07-.52.79.79,0,0,0-.24-.35,1,1,0,0,0-.42-.2,2.1,2.1,0,0,0-.6-.07,5.12,5.12,0,0,0-.56,0l-.51.08-.48.13-.43.17V92.06l.44-.21a4.1,4.1,0,0,1,.53-.16,5.33,5.33,0,0,1,.6-.11,4.49,4.49,0,0,1,.64,0,4.42,4.42,0,0,1,1.15.14,2.2,2.2,0,0,1,.85.43,1.91,1.91,0,0,1,.52.77,3.17,3.17,0,0,1,.18,1.14v3.86Zm-.15-2.6h-.26a7,7,0,0,0-.84,0,2.13,2.13,0,0,0-.59.14.69.69,0,0,0-.34.25.56.56,0,0,0-.12.36.88.88,0,0,0,.05.29.78.78,0,0,0,.16.24.85.85,0,0,0,.28.16,1.2,1.2,0,0,0,.4.06,2.22,2.22,0,0,0,.37,0l.33-.08.3-.12a2.26,2.26,0,0,0,.26-.16Z"/><path class="cls-2" d="M459.41,97.88V94.14a1.58,1.58,0,0,0-.08-.52.9.9,0,0,0-.21-.37.82.82,0,0,0-.36-.21,1.6,1.6,0,0,0-.51-.08,2.47,2.47,0,0,0-.39,0l-.35.07a1.52,1.52,0,0,0-.32.12,1.59,1.59,0,0,0-.29.15v4.55h-1.61V91.73h1.4l.12.53a3.9,3.9,0,0,1,.4-.31,2.38,2.38,0,0,1,.45-.23,2.73,2.73,0,0,1,.51-.14,3.58,3.58,0,0,1,.58,0,3.66,3.66,0,0,1,.69.07,2.32,2.32,0,0,1,.56.21,1.7,1.7,0,0,1,.75.81,2.56,2.56,0,0,1,.2.59,4,4,0,0,1,.06.71v4Z"/><path class="cls-2" d="M467.07,97.69a2.08,2.08,0,0,1-.4.15,3.23,3.23,0,0,1-.47.12,4.51,4.51,0,0,1-.53.07,5.25,5.25,0,0,1-.56,0,3.13,3.13,0,0,1-1.2-.22,2.27,2.27,0,0,1-.87-.65,2.9,2.9,0,0,1-.53-1,4.72,4.72,0,0,1-.18-1.36,5.61,5.61,0,0,1,.08-1,3.2,3.2,0,0,1,.24-.81,2.57,2.57,0,0,1,.4-.64,2.34,2.34,0,0,1,.56-.48,2.71,2.71,0,0,1,.72-.29,4,4,0,0,1,.88-.1l.5,0,.5.07a2.8,2.8,0,0,1,.46.12,1.69,1.69,0,0,1,.35.14v1.35a2.89,2.89,0,0,0-.35-.11,2.34,2.34,0,0,0-.38-.09l-.42,0a3.39,3.39,0,0,0-.45,0,1.41,1.41,0,0,0-.64.13,1.2,1.2,0,0,0-.46.37,1.67,1.67,0,0,0-.27.57,2.73,2.73,0,0,0-.09.72,2.83,2.83,0,0,0,.09.74,2.08,2.08,0,0,0,.28.6,1.27,1.27,0,0,0,1.09.53l.47,0,.43-.05.39-.09.36-.11Z"/><path class="cls-2" d="M472.55,97.88V94.14a1.92,1.92,0,0,0-.07-.52.91.91,0,0,0-.22-.37.82.82,0,0,0-.36-.21,1.52,1.52,0,0,0-.51-.08,2.56,2.56,0,0,0-.39,0l-.35.07a1.75,1.75,0,0,0-.32.12,1.59,1.59,0,0,0-.29.15v4.55h-1.6v-9H470v3.32a2.47,2.47,0,0,1,.38-.28,2.19,2.19,0,0,1,.44-.2,2.42,2.42,0,0,1,.48-.13,4.75,4.75,0,0,1,.56,0,3.64,3.64,0,0,1,.68.07,2.17,2.17,0,0,1,.56.21,1.67,1.67,0,0,1,.44.34,2,2,0,0,1,.32.47,3.14,3.14,0,0,1,.19.59,4,4,0,0,1,.06.71v4Z"/><path class="cls-2" d="M486.39,97.88V93.12c0-.27,0-.55,0-.86l.06-.9c-.12.3-.24.59-.37.87a7.33,7.33,0,0,1-.42.79l-1.62,2.79h-1L481.39,93l-.21-.38c-.06-.13-.13-.26-.19-.4s-.13-.27-.19-.41-.12-.29-.18-.45c0,.3,0,.6.05.88s0,.57,0,.86v4.76h-1.56V89.19h1.74L483,92.81c.11.18.21.38.32.6a6.54,6.54,0,0,1,.28.66,6.21,6.21,0,0,1,.28-.66c.1-.22.21-.42.32-.61l2.08-3.61H488v8.69Z"/><path class="cls-2" d="M493.42,97.88l-.08-.5a3.47,3.47,0,0,1-.38.29,2.23,2.23,0,0,1-.44.21,2.85,2.85,0,0,1-.5.14,2.63,2.63,0,0,1-.57,0,2.28,2.28,0,0,1-.8-.13,1.68,1.68,0,0,1-.62-.37,1.59,1.59,0,0,1-.4-.58,2.11,2.11,0,0,1-.14-.77,1.89,1.89,0,0,1,.1-.65,1.53,1.53,0,0,1,.28-.52,1.6,1.6,0,0,1,.47-.38,2.6,2.6,0,0,1,.63-.27,4.15,4.15,0,0,1,.78-.15,9,9,0,0,1,.94,0h.58v-.11a1.6,1.6,0,0,0-.07-.52.79.79,0,0,0-.24-.35,1,1,0,0,0-.41-.2A2.15,2.15,0,0,0,492,93a5,5,0,0,0-.56,0l-.52.08-.47.13-.43.17V92.06a4.59,4.59,0,0,1,.44-.21,4,4,0,0,1,.52-.16,5.33,5.33,0,0,1,.6-.11,5,5,0,0,1,1.8.1,2.23,2.23,0,0,1,.84.43,1.91,1.91,0,0,1,.52.77,3.17,3.17,0,0,1,.18,1.14v3.86Zm-.15-2.6H493a7,7,0,0,0-.84,0,2.05,2.05,0,0,0-.58.14.72.72,0,0,0-.35.25.55.55,0,0,0-.11.36.68.68,0,0,0,.05.29.54.54,0,0,0,.16.24.72.72,0,0,0,.27.16,1.25,1.25,0,0,0,.4.06,2.22,2.22,0,0,0,.37,0l.33-.08.3-.12a2.26,2.26,0,0,0,.26-.16Z"/><path class="cls-2" d="M500.79,97.88V94.14a1.92,1.92,0,0,0-.07-.52.91.91,0,0,0-.22-.37.72.72,0,0,0-.36-.21,1.5,1.5,0,0,0-.5-.08,2.38,2.38,0,0,0-.39,0l-.36.07a1.75,1.75,0,0,0-.32.12,1.59,1.59,0,0,0-.29.15v4.55h-1.6V91.73h1.39l.13.53a3,3,0,0,1,.39-.31,2.38,2.38,0,0,1,.45-.23,2.73,2.73,0,0,1,.51-.14,3.41,3.41,0,0,1,1.27,0,2.4,2.4,0,0,1,.57.21,1.79,1.79,0,0,1,.43.34,2,2,0,0,1,.32.47,2.55,2.55,0,0,1,.19.59,4,4,0,0,1,.06.71v4Z"/><path class="cls-2" d="M507.63,97.88l-.09-.5a2.72,2.72,0,0,1-.38.29,2,2,0,0,1-.44.21,2.95,2.95,0,0,1-1.07.19,2.28,2.28,0,0,1-.8-.13,1.68,1.68,0,0,1-.62-.37,1.72,1.72,0,0,1-.4-.58,2.11,2.11,0,0,1-.13-.77,2.17,2.17,0,0,1,.09-.65,1.4,1.4,0,0,1,.29-.52,1.56,1.56,0,0,1,.46-.38,2.6,2.6,0,0,1,.63-.27,4.44,4.44,0,0,1,.79-.15,9,9,0,0,1,.93,0h.59v-.11a1.58,1.58,0,0,0-.08-.52.79.79,0,0,0-.24-.35.93.93,0,0,0-.41-.2,2.15,2.15,0,0,0-.6-.07,5.12,5.12,0,0,0-.56,0l-.52.08-.47.13-.43.17V92.06l.44-.21a3.67,3.67,0,0,1,.53-.16,5.15,5.15,0,0,1,.59-.11,4.63,4.63,0,0,1,.65,0,4.47,4.47,0,0,1,1.15.14,2.16,2.16,0,0,1,.84.43,1.93,1.93,0,0,1,.53.77,3.42,3.42,0,0,1,.17,1.14v3.86Zm-.15-2.6h-.27a6.67,6.67,0,0,0-.83,0,2,2,0,0,0-.59.14.72.72,0,0,0-.35.25.61.61,0,0,0-.11.36.88.88,0,0,0,.05.29.63.63,0,0,0,.16.24.76.76,0,0,0,.28.16,1.16,1.16,0,0,0,.4.06,2.1,2.1,0,0,0,.36,0l.34-.08.29-.12a1.75,1.75,0,0,0,.27-.16Z"/><path class="cls-2" d="M514.83,97.39a2.1,2.1,0,0,1-.33.26,2.15,2.15,0,0,1-.4.21,2.93,2.93,0,0,1-.47.12,3.1,3.1,0,0,1-.54,0,2.7,2.7,0,0,1-1.12-.22,2.21,2.21,0,0,1-.83-.65,2.9,2.9,0,0,1-.53-1,4.56,4.56,0,0,1-.19-1.34,4.87,4.87,0,0,1,.19-1.39,2.85,2.85,0,0,1,.55-1,2.47,2.47,0,0,1,.89-.64,3,3,0,0,1,1.2-.22,4,4,0,0,1,.5,0,3.09,3.09,0,0,1,.46.12,2.35,2.35,0,0,1,.74.45l.12-.41h1.37v5.94a4,4,0,0,1-.22,1.37,2.44,2.44,0,0,1-.63.95,2.55,2.55,0,0,1-1,.56,4.64,4.64,0,0,1-1.35.18c-.25,0-.48,0-.7,0l-.62-.08c-.19,0-.37-.09-.53-.14a4.68,4.68,0,0,1-.45-.19V98.92l.43.15c.15,0,.32.09.5.12a4.89,4.89,0,0,0,.57.08,6.08,6.08,0,0,0,.61,0,3.7,3.7,0,0,0,.79-.08,1.28,1.28,0,0,0,.56-.27,1,1,0,0,0,.33-.48,2,2,0,0,0,.11-.74Zm0-4.11a1.59,1.59,0,0,0-.29-.15,1.73,1.73,0,0,0-.32-.11,2.14,2.14,0,0,0-.35-.06,2.48,2.48,0,0,0-.39,0,1.36,1.36,0,0,0-.63.13,1.3,1.3,0,0,0-.45.39,1.62,1.62,0,0,0-.25.58,2.73,2.73,0,0,0-.09.72,2.83,2.83,0,0,0,.09.74,1.79,1.79,0,0,0,.28.59,1.35,1.35,0,0,0,.46.39,1.41,1.41,0,0,0,.64.14l.38,0a1.86,1.86,0,0,0,.34-.06,2.64,2.64,0,0,0,.3-.1,1.51,1.51,0,0,0,.28-.15Z"/><path class="cls-2" d="M523.16,97.6a3,3,0,0,1-.45.19,3.57,3.57,0,0,1-.52.14,4.83,4.83,0,0,1-.59.1c-.21,0-.43,0-.67,0A3.82,3.82,0,0,1,520,98a2.74,2.74,0,0,1-.76-.3,2.35,2.35,0,0,1-.6-.48,2.83,2.83,0,0,1-.42-.64,3.66,3.66,0,0,1-.26-.79,5.25,5.25,0,0,1-.08-.92A4.91,4.91,0,0,1,518,94a3.4,3.4,0,0,1,.21-.79,2.89,2.89,0,0,1,.36-.67,2.43,2.43,0,0,1,.54-.52,2.66,2.66,0,0,1,.72-.34,3.18,3.18,0,0,1,.91-.12,2.94,2.94,0,0,1,.93.13,2.57,2.57,0,0,1,.73.33,2.43,2.43,0,0,1,.54.52,3.39,3.39,0,0,1,.36.65,3.5,3.5,0,0,1,.2.74,5.42,5.42,0,0,1,.06.81v.13a.92.92,0,0,1,0,.16.76.76,0,0,1,0,.15.53.53,0,0,1,0,.13h-4a1.92,1.92,0,0,0,.13.56,1.3,1.3,0,0,0,.29.43,1.42,1.42,0,0,0,.5.28,2.41,2.41,0,0,0,.71.09l.56,0,.54-.07.5-.11a3.81,3.81,0,0,0,.44-.14Zm-1.24-3.48a1.78,1.78,0,0,0-.13-.55,1.38,1.38,0,0,0-.24-.41,1,1,0,0,0-.37-.25,1.33,1.33,0,0,0-1,0,1,1,0,0,0-.36.25,1.38,1.38,0,0,0-.24.41,2.67,2.67,0,0,0-.11.55Z"/><path class="cls-2" d="M524.94,97.88V91.73h1.5l.07.83a2,2,0,0,1,.29-.41,2.17,2.17,0,0,1,.36-.32,1.63,1.63,0,0,1,.44-.21,1.72,1.72,0,0,1,.52-.07,1.46,1.46,0,0,1,.29,0,.92.92,0,0,1,.25.06v1.58l-.2,0-.19,0h-.4l-.28,0-.26,0a1.57,1.57,0,0,0-.23.09l-.21.1a1.24,1.24,0,0,0-.18.14l-.16.15v4.21Z"/><path class="cls-2" d="M479,112.28v-8.69h3a4.24,4.24,0,0,1,1.26.16,2.35,2.35,0,0,1,.88.44,1.79,1.79,0,0,1,.51.73,2.57,2.57,0,0,1,.17,1,3,3,0,0,1-.06.62,2.47,2.47,0,0,1-.19.5,2.1,2.1,0,0,1-.31.41,2.59,2.59,0,0,1-.41.31,2.3,2.3,0,0,1,.59.35,2.22,2.22,0,0,1,.44.48,2,2,0,0,1,.27.6,2.65,2.65,0,0,1,.09.71,2.87,2.87,0,0,1-.07.67,2,2,0,0,1-.23.58,1.75,1.75,0,0,1-.39.47,2.08,2.08,0,0,1-.56.36,3.09,3.09,0,0,1-.76.23,5.47,5.47,0,0,1-1,.08Zm2.82-5.06a1.78,1.78,0,0,0,.6-.08,1,1,0,0,0,.41-.23,1,1,0,0,0,.23-.37,1.61,1.61,0,0,0,.07-.51,1.23,1.23,0,0,0-.07-.44.89.89,0,0,0-.23-.34,1,1,0,0,0-.38-.22,1.89,1.89,0,0,0-.56-.08h-1.23v2.27Zm.42,3.71a1.74,1.74,0,0,0,.6-.08,1,1,0,0,0,.41-.23,1,1,0,0,0,.23-.37,1.49,1.49,0,0,0,.07-.49,1.7,1.7,0,0,0-.08-.51,1,1,0,0,0-.24-.4,1.35,1.35,0,0,0-.44-.26,2.1,2.1,0,0,0-.66-.09h-1.47v2.43Z"/><rect class="cls-1" x="281.09" y="77.57" width="120.54" height="47.57"/><path class="cls-2" d="M295.46,97.88V89.19h3a4.73,4.73,0,0,1,1.26.15,2.7,2.7,0,0,1,.88.45,1.79,1.79,0,0,1,.51.73,2.78,2.78,0,0,1,.17,1,2.45,2.45,0,0,1-.07.62,1.67,1.67,0,0,1-.19.5,1.73,1.73,0,0,1-.3.41,2.29,2.29,0,0,1-.42.31,2.14,2.14,0,0,1,.59.35,2,2,0,0,1,.44.48,2.36,2.36,0,0,1,.28.6,2.71,2.71,0,0,1,.09.71,3.53,3.53,0,0,1-.07.67,2.27,2.27,0,0,1-.23.58,1.75,1.75,0,0,1-.39.47,2.44,2.44,0,0,1-.56.36,3.23,3.23,0,0,1-.76.23,5.64,5.64,0,0,1-1,.08Zm2.82-5.06a1.82,1.82,0,0,0,.6-.08,1,1,0,0,0,.41-.23.87.87,0,0,0,.22-.37,1.6,1.6,0,0,0,.08-.51,1.23,1.23,0,0,0-.08-.44.87.87,0,0,0-.22-.34.93.93,0,0,0-.39-.22,1.77,1.77,0,0,0-.55-.08h-1.24v2.27Zm.42,3.71a1.82,1.82,0,0,0,.6-.08,1,1,0,0,0,.4-.23.83.83,0,0,0,.23-.37,1.48,1.48,0,0,0,.08-.49,1.7,1.7,0,0,0-.08-.51.94.94,0,0,0-.25-.4,1.11,1.11,0,0,0-.44-.25,1.81,1.81,0,0,0-.65-.1h-1.48v2.43Z"/><path class="cls-2" d="M303.29,97.88V91.73h1.5l.06.83a3.3,3.3,0,0,1,.29-.41,1.89,1.89,0,0,1,.37-.32,1.63,1.63,0,0,1,.44-.21,1.66,1.66,0,0,1,.51-.07,1.42,1.42,0,0,1,.29,0,1,1,0,0,1,.26.06v1.58l-.21,0-.18,0h-.41l-.28,0-.25,0a1.7,1.7,0,0,0-.24.09l-.2.1a1.33,1.33,0,0,0-.19.14l-.16.15v4.21Z"/><path class="cls-2" d="M311.5,97.88l-.09-.5a2.24,2.24,0,0,1-.38.29,2,2,0,0,1-.44.21,2.44,2.44,0,0,1-.5.14,2.54,2.54,0,0,1-.56,0,2.3,2.3,0,0,1-.81-.13,1.68,1.68,0,0,1-.62-.37,1.56,1.56,0,0,1-.39-.58,1.92,1.92,0,0,1-.14-.77,2.17,2.17,0,0,1,.09-.65,1.61,1.61,0,0,1,.75-.9,2.6,2.6,0,0,1,.63-.27,4.44,4.44,0,0,1,.79-.15,9,9,0,0,1,.93,0h.59v-.11a1.58,1.58,0,0,0-.08-.52.86.86,0,0,0-.23-.35,1,1,0,0,0-.42-.2A2.15,2.15,0,0,0,310,93a5.12,5.12,0,0,0-.56,0l-.51.08-.48.13-.43.17V92.06l.44-.21a3.67,3.67,0,0,1,.53-.16,5.59,5.59,0,0,1,.59-.11,4.63,4.63,0,0,1,.65,0,4.47,4.47,0,0,1,1.15.14,2.27,2.27,0,0,1,.85.43,1.91,1.91,0,0,1,.52.77,3.42,3.42,0,0,1,.17,1.14v3.86Zm-.15-2.6h-.27a6.67,6.67,0,0,0-.83,0,2.13,2.13,0,0,0-.59.14.77.77,0,0,0-.35.25.61.61,0,0,0-.11.36.88.88,0,0,0,.05.29.78.78,0,0,0,.16.24.76.76,0,0,0,.28.16,1.16,1.16,0,0,0,.4.06,2.22,2.22,0,0,0,.37,0l.33-.08.29-.12a1.75,1.75,0,0,0,.27-.16Z"/><path class="cls-2" d="M318.86,97.88V94.14a1.6,1.6,0,0,0-.07-.52,1,1,0,0,0-.21-.37.82.82,0,0,0-.36-.21,1.6,1.6,0,0,0-.51-.08,2.38,2.38,0,0,0-.39,0l-.36.07a2.08,2.08,0,0,0-.32.12,1.51,1.51,0,0,0-.28.15v4.55h-1.61V91.73h1.39l.13.53a3.9,3.9,0,0,1,.4-.31,2.38,2.38,0,0,1,.45-.23,2.73,2.73,0,0,1,.51-.14,3.48,3.48,0,0,1,.58,0,3.66,3.66,0,0,1,.69.07,2.49,2.49,0,0,1,.56.21,1.85,1.85,0,0,1,.44.34,1.92,1.92,0,0,1,.31.47,2.15,2.15,0,0,1,.19.59,3.23,3.23,0,0,1,.07.71v4Z"/><path class="cls-2" d="M326.53,97.69a2.37,2.37,0,0,1-.4.15,3.59,3.59,0,0,1-.47.12,4.51,4.51,0,0,1-.53.07,5.44,5.44,0,0,1-.57,0,3.12,3.12,0,0,1-1.19-.22,2.27,2.27,0,0,1-.87-.65,2.75,2.75,0,0,1-.53-1,5.4,5.4,0,0,1-.1-2.31,3.2,3.2,0,0,1,.24-.81,2.57,2.57,0,0,1,.4-.64,2.34,2.34,0,0,1,.56-.48,2.58,2.58,0,0,1,.72-.29,3.94,3.94,0,0,1,.88-.1l.49,0,.51.07a3.09,3.09,0,0,1,.46.12,2,2,0,0,1,.35.14v1.35l-.35-.11a2.34,2.34,0,0,0-.38-.09l-.42,0a3.46,3.46,0,0,0-.46,0,1.47,1.47,0,0,0-.64.13,1.24,1.24,0,0,0-.45.37,1.67,1.67,0,0,0-.27.57,2.73,2.73,0,0,0-.09.72,2.83,2.83,0,0,0,.09.74,1.83,1.83,0,0,0,.27.6,1.45,1.45,0,0,0,.46.39,1.41,1.41,0,0,0,.64.14l.46,0,.44-.05.39-.09.36-.11Z"/><path class="cls-2" d="M332,97.88V94.14a1.6,1.6,0,0,0-.07-.52,1,1,0,0,0-.21-.37.82.82,0,0,0-.36-.21,1.6,1.6,0,0,0-.51-.08,2.38,2.38,0,0,0-.39,0l-.35.07a1.52,1.52,0,0,0-.32.12,1.59,1.59,0,0,0-.29.15v4.55h-1.61v-9h1.61v3.32a2.47,2.47,0,0,1,.38-.28,2.39,2.39,0,0,1,.43-.2,2.52,2.52,0,0,1,.49-.13,4.74,4.74,0,0,1,.55,0,3.66,3.66,0,0,1,.69.07,2.32,2.32,0,0,1,.56.21,1.85,1.85,0,0,1,.44.34,1.92,1.92,0,0,1,.31.47,2.15,2.15,0,0,1,.19.59,3.23,3.23,0,0,1,.07.71v4Z"/><path class="cls-2" d="M345.85,97.88V93.12c0-.27,0-.55,0-.86l.06-.9c-.12.3-.24.59-.37.87s-.27.55-.42.79l-1.63,2.79h-1L340.85,93l-.21-.38c-.07-.13-.13-.26-.2-.4l-.18-.41-.19-.45c0,.3.05.6.06.88s0,.57,0,.86v4.76h-1.56V89.19h1.75l2.08,3.62c.11.18.21.38.32.6s.19.43.28.66a6.11,6.11,0,0,1,.27-.66c.11-.22.22-.42.33-.61l2.07-3.61h1.72v8.69Z"/><path class="cls-2" d="M352.88,97.88l-.08-.5a3.47,3.47,0,0,1-.38.29,2.53,2.53,0,0,1-.44.21,2.73,2.73,0,0,1-.51.14,2.48,2.48,0,0,1-.56,0,2.33,2.33,0,0,1-.81-.13,1.64,1.64,0,0,1-.61-.37,1.47,1.47,0,0,1-.4-.58,2.11,2.11,0,0,1-.14-.77,2.17,2.17,0,0,1,.09-.65,1.55,1.55,0,0,1,.29-.52,1.7,1.7,0,0,1,.46-.38,3,3,0,0,1,.63-.27,4.44,4.44,0,0,1,.79-.15,9,9,0,0,1,.93,0h.59v-.11a1.6,1.6,0,0,0-.07-.52.79.79,0,0,0-.24-.35A1,1,0,0,0,352,93a2.06,2.06,0,0,0-.6-.07,4.93,4.93,0,0,0-.55,0l-.52.08-.48.13-.43.17V92.06l.45-.21a3.53,3.53,0,0,1,.52-.16,5.33,5.33,0,0,1,.6-.11,4.49,4.49,0,0,1,.64,0,4.42,4.42,0,0,1,1.15.14,2.2,2.2,0,0,1,.85.43,1.91,1.91,0,0,1,.52.77,3.17,3.17,0,0,1,.18,1.14v3.86Zm-.15-2.6h-.26a7,7,0,0,0-.84,0,2.13,2.13,0,0,0-.59.14.69.69,0,0,0-.34.25.56.56,0,0,0-.12.36.88.88,0,0,0,.05.29.78.78,0,0,0,.16.24.85.85,0,0,0,.28.16,1.2,1.2,0,0,0,.4.06,2.22,2.22,0,0,0,.37,0l.33-.08.3-.12a2.26,2.26,0,0,0,.26-.16Z"/><path class="cls-2" d="M360.25,97.88V94.14a1.58,1.58,0,0,0-.08-.52.9.9,0,0,0-.21-.37.82.82,0,0,0-.36-.21,1.56,1.56,0,0,0-.51-.08,2.56,2.56,0,0,0-.39,0l-.35.07a1.52,1.52,0,0,0-.32.12,1.59,1.59,0,0,0-.29.15v4.55h-1.6V91.73h1.39l.13.53a3,3,0,0,1,.39-.31,2.38,2.38,0,0,1,.45-.23,2.73,2.73,0,0,1,.51-.14,3.58,3.58,0,0,1,.58,0,3.66,3.66,0,0,1,.69.07,2.17,2.17,0,0,1,.56.21,1.67,1.67,0,0,1,.44.34,2,2,0,0,1,.32.47,3.14,3.14,0,0,1,.19.59,4,4,0,0,1,.06.71v4Z"/><path class="cls-2" d="M367.08,97.88l-.08-.5a3.47,3.47,0,0,1-.38.29,2.23,2.23,0,0,1-.44.21,2.95,2.95,0,0,1-1.07.19,2.28,2.28,0,0,1-.8-.13,1.68,1.68,0,0,1-.62-.37,1.59,1.59,0,0,1-.4-.58,2.11,2.11,0,0,1-.14-.77,1.89,1.89,0,0,1,.1-.65,1.53,1.53,0,0,1,.28-.52,1.6,1.6,0,0,1,.47-.38,2.6,2.6,0,0,1,.63-.27,4.15,4.15,0,0,1,.78-.15,9,9,0,0,1,.94,0h.58v-.11a1.6,1.6,0,0,0-.07-.52.79.79,0,0,0-.24-.35,1,1,0,0,0-.41-.2,2.15,2.15,0,0,0-.6-.07,5,5,0,0,0-.56,0l-.52.08-.47.13-.43.17V92.06l.44-.21a3.67,3.67,0,0,1,.53-.16,4.77,4.77,0,0,1,.59-.11,4.54,4.54,0,0,1,.65,0,4.47,4.47,0,0,1,1.15.14,2.23,2.23,0,0,1,.84.43,1.82,1.82,0,0,1,.52.77,3.17,3.17,0,0,1,.18,1.14v3.86Zm-.15-2.6h-.26a7,7,0,0,0-.84,0,2.05,2.05,0,0,0-.58.14.72.72,0,0,0-.35.25.55.55,0,0,0-.11.36.68.68,0,0,0,0,.29.63.63,0,0,0,.16.24.72.72,0,0,0,.27.16,1.25,1.25,0,0,0,.4.06,2.22,2.22,0,0,0,.37,0l.33-.08.3-.12a1.64,1.64,0,0,0,.26-.16Z"/><path class="cls-2" d="M374.29,97.39a2.1,2.1,0,0,1-.33.26,2.52,2.52,0,0,1-.4.21,3.23,3.23,0,0,1-.47.12,3.1,3.1,0,0,1-.54,0,2.67,2.67,0,0,1-1.12-.22,2.32,2.32,0,0,1-.84-.65,2.89,2.89,0,0,1-.52-1,4.25,4.25,0,0,1-.19-1.34,4.87,4.87,0,0,1,.19-1.39,2.85,2.85,0,0,1,.55-1,2.39,2.39,0,0,1,.89-.64,3,3,0,0,1,1.19-.22,4.06,4.06,0,0,1,.51,0,3,3,0,0,1,.45.12,1.64,1.64,0,0,1,.4.19,1.7,1.7,0,0,1,.34.26l.13-.41h1.36v5.94a4,4,0,0,1-.21,1.37,2.42,2.42,0,0,1-1.64,1.51,4.69,4.69,0,0,1-1.35.18c-.25,0-.48,0-.7,0l-.62-.08c-.19,0-.37-.09-.53-.14a3.21,3.21,0,0,1-.45-.19V98.92l.42.15c.16,0,.33.09.51.12a4.89,4.89,0,0,0,.57.08,5.93,5.93,0,0,0,.61,0,3.7,3.7,0,0,0,.79-.08,1.28,1.28,0,0,0,.56-.27,1,1,0,0,0,.33-.48,2.26,2.26,0,0,0,.11-.74Zm0-4.11a1.59,1.59,0,0,0-.29-.15,2.32,2.32,0,0,0-.68-.17,2.36,2.36,0,0,0-.38,0,1.41,1.41,0,0,0-.64.13,1.27,1.27,0,0,0-.44.39,1.82,1.82,0,0,0-.26.58,3.24,3.24,0,0,0-.08.72,2.83,2.83,0,0,0,.09.74,1.61,1.61,0,0,0,.28.59,1.41,1.41,0,0,0,.45.39,1.48,1.48,0,0,0,.65.14l.37,0a1.72,1.72,0,0,0,.34-.06l.31-.1a1.51,1.51,0,0,0,.28-.15Z"/><path class="cls-2" d="M382.62,97.6a3,3,0,0,1-.45.19,4,4,0,0,1-.52.14,4.83,4.83,0,0,1-.59.1c-.21,0-.43,0-.67,0a4,4,0,0,1-.93-.1,3,3,0,0,1-.76-.3,2.48,2.48,0,0,1-.59-.48,2.53,2.53,0,0,1-.42-.64,3.66,3.66,0,0,1-.26-.79,4.44,4.44,0,0,1-.08-.92,6.11,6.11,0,0,1,.06-.86,4.81,4.81,0,0,1,.21-.79,3.36,3.36,0,0,1,.37-.67,2.43,2.43,0,0,1,.54-.52,2.46,2.46,0,0,1,.71-.34,3.31,3.31,0,0,1,.92-.12,2.94,2.94,0,0,1,.93.13,2.57,2.57,0,0,1,.73.33,2.18,2.18,0,0,1,.53.52,2.57,2.57,0,0,1,.36.65,3,3,0,0,1,.21.74,5.42,5.42,0,0,1,.06.81v.13a.92.92,0,0,1,0,.16.76.76,0,0,1,0,.15s0,.09,0,.13h-4a1.64,1.64,0,0,0,.13.56,1.06,1.06,0,0,0,.29.43,1.46,1.46,0,0,0,.49.28,2.53,2.53,0,0,0,.72.09l.56,0,.54-.07.5-.11a3.81,3.81,0,0,0,.44-.14Zm-1.25-3.48a2.13,2.13,0,0,0-.12-.55,1.38,1.38,0,0,0-.24-.41,1.05,1.05,0,0,0-.37-.25,1.21,1.21,0,0,0-.48-.09,1.3,1.3,0,0,0-.49.09,1.07,1.07,0,0,0-.35.25,1.38,1.38,0,0,0-.24.41,2.13,2.13,0,0,0-.12.55Z"/><path class="cls-2" d="M384.4,97.88V91.73h1.5l.06.83a2.55,2.55,0,0,1,.3-.41,2.17,2.17,0,0,1,.36-.32,1.63,1.63,0,0,1,.44-.21,1.72,1.72,0,0,1,.52-.07,1.37,1.37,0,0,1,.28,0,.91.91,0,0,1,.26.06v1.58l-.21,0-.18,0h-.4l-.28,0-.26,0a1.57,1.57,0,0,0-.23.09,1,1,0,0,0-.21.1,1.33,1.33,0,0,0-.19.14l-.16.15v4.21Z"/><path class="cls-2" d="M343.67,112.28l-.64-1.86h-3.42l-.63,1.86h-1.72l3.22-8.69h1.76l3.22,8.69Zm-1.91-5.59c-.09-.25-.17-.51-.24-.76s-.14-.51-.2-.77c-.05.26-.12.52-.19.77l-.24.76-.8,2.34h2.46Z"/><rect class="cls-3" x="562.17" y="77.57" width="120.54" height="47.57"/><path class="cls-2" d="M617.53,103.08v-1.82h1.84v1.82Z"/><path class="cls-2" d="M621.52,103.08v-1.82h1.84v1.82Z"/><path class="cls-2" d="M625.52,103.08v-1.82h1.84v1.82Z"/><rect class="cls-3" x="281.09" y="155.13" width="120.54" height="47.57"/><path class="cls-2" d="M328.49,175.45v-7.3H326.2v-1.39h6.24v1.39h-2.3v7.3Z"/><path class="cls-2" d="M337.64,175.17a4.68,4.68,0,0,1-.45.19l-.52.14a5.21,5.21,0,0,1-.59.09c-.21,0-.43,0-.67,0a3.83,3.83,0,0,1-.93-.11,3,3,0,0,1-.76-.3,2.48,2.48,0,0,1-.59-.48,2.37,2.37,0,0,1-.42-.64,3.25,3.25,0,0,1-.26-.78,4.49,4.49,0,0,1-.09-.92,5.87,5.87,0,0,1,.07-.86,3.81,3.81,0,0,1,.21-.79,3.11,3.11,0,0,1,.37-.67,2.31,2.31,0,0,1,1.25-.86,3.63,3.63,0,0,1,1.85,0,2.72,2.72,0,0,1,.73.34,2.14,2.14,0,0,1,.53.51,2.76,2.76,0,0,1,.36.65,3.79,3.79,0,0,1,.21.75,5.29,5.29,0,0,1,.06.8v.14c0,.05,0,.1,0,.15s0,.11,0,.16,0,.09,0,.12h-4a1.7,1.7,0,0,0,.12.57,1.19,1.19,0,0,0,.3.43,1.22,1.22,0,0,0,.49.27,2.5,2.5,0,0,0,.72.1l.56,0a4.68,4.68,0,0,0,.54-.07l.5-.1a4.53,4.53,0,0,0,.44-.15Zm-1.25-3.49a2.22,2.22,0,0,0-.12-.55,1.33,1.33,0,0,0-.24-.4,1,1,0,0,0-.37-.25,1.21,1.21,0,0,0-.48-.09,1.22,1.22,0,0,0-.49.09.9.9,0,0,0-.36.25,1.55,1.55,0,0,0-.23.4,2.22,2.22,0,0,0-.12.55Z"/><path class="cls-2" d="M342.86,175.45l-.09-.5a2.2,2.2,0,0,1-.38.28,2,2,0,0,1-.44.22,2.44,2.44,0,0,1-.5.14,3.24,3.24,0,0,1-.56,0,2.3,2.3,0,0,1-.81-.13,1.83,1.83,0,0,1-.62-.37,1.6,1.6,0,0,1-.39-.59,1.87,1.87,0,0,1-.14-.76,2.24,2.24,0,0,1,.09-.66,1.61,1.61,0,0,1,.29-.51,1.76,1.76,0,0,1,.46-.39,2.77,2.77,0,0,1,.63-.26,4.44,4.44,0,0,1,.79-.15,9,9,0,0,1,.93,0h.59v-.1a1.54,1.54,0,0,0-.08-.52.83.83,0,0,0-.23-.36,1,1,0,0,0-.42-.2,2.64,2.64,0,0,0-.6-.06,5.12,5.12,0,0,0-.56,0,3.89,3.89,0,0,0-.51.08,3.37,3.37,0,0,0-.48.12l-.43.17v-1.31a2.56,2.56,0,0,1,.44-.21,4.11,4.11,0,0,1,.53-.17,5.36,5.36,0,0,1,.6-.1,5.15,5.15,0,0,1,1.79.09,2.21,2.21,0,0,1,.85.44,1.85,1.85,0,0,1,.52.77,3.16,3.16,0,0,1,.17,1.13v3.87Zm-.15-2.61h-.26c-.33,0-.6,0-.84,0a2.56,2.56,0,0,0-.59.14,1,1,0,0,0-.35.25.65.65,0,0,0-.11.37.93.93,0,0,0,.05.29.63.63,0,0,0,.16.23.64.64,0,0,0,.28.16,1.16,1.16,0,0,0,.4.06,2.22,2.22,0,0,0,.37,0,1.32,1.32,0,0,0,.33-.08,1.88,1.88,0,0,0,.3-.12,2.2,2.2,0,0,0,.26-.15Z"/><path class="cls-2" d="M354.33,175.45v-3.74a1.7,1.7,0,0,0-.07-.53.82.82,0,0,0-.21-.36,1,1,0,0,0-.36-.22,1.57,1.57,0,0,0-.51-.07l-.39,0-.35.08a3.19,3.19,0,0,0-.33.11l-.28.15v4.56h-1.61v-3.74a1.7,1.7,0,0,0-.07-.53,1.07,1.07,0,0,0-.21-.36,1,1,0,0,0-.36-.22,1.61,1.61,0,0,0-.51-.07l-.39,0-.35.08a2.39,2.39,0,0,0-.32.11,2.69,2.69,0,0,0-.29.16v4.55h-1.61v-6.16h1.4l.12.54a2.87,2.87,0,0,1,.4-.31,1.91,1.91,0,0,1,.45-.23,2.13,2.13,0,0,1,.51-.14,2.67,2.67,0,0,1,.58-.05,4,4,0,0,1,.62.05,2.64,2.64,0,0,1,.52.17,1.77,1.77,0,0,1,.43.28,2,2,0,0,1,.33.38,2.61,2.61,0,0,1,.44-.37,2.87,2.87,0,0,1,.52-.28,2.7,2.7,0,0,1,.59-.17,3.52,3.52,0,0,1,.66-.06,3,3,0,0,1,.69.07,1.71,1.71,0,0,1,.56.21,1.48,1.48,0,0,1,.44.34,1.77,1.77,0,0,1,.32.47,2.41,2.41,0,0,1,.18.59,3.17,3.17,0,0,1,.07.71v4Z"/><path class="cls-2" d="M337.5,189.85l-.65-1.86h-3.42l-.63,1.86h-1.71l3.21-8.69h1.76l3.22,8.69Zm-1.92-5.59-.24-.76c-.07-.25-.14-.51-.19-.78-.06.27-.13.53-.2.78s-.15.51-.24.76l-.8,2.33h2.46Z"/><path class="cls-2" d="M339.94,187.08v-1.62h3.26v1.62Z"/><path class="cls-2" d="M344.53,189.85v-1.26l1.91-1.64c.26-.22.5-.44.72-.64s.41-.39.58-.57a4.87,4.87,0,0,0,.44-.52,3.24,3.24,0,0,0,.31-.48,2.27,2.27,0,0,0,.18-.47,1.84,1.84,0,0,0,.06-.47,1.69,1.69,0,0,0-.09-.56,1.12,1.12,0,0,0-.3-.44,1.27,1.27,0,0,0-.51-.29,2.32,2.32,0,0,0-.74-.1,3.56,3.56,0,0,0-.65.05,4.53,4.53,0,0,0-.64.13,4.92,4.92,0,0,0-.58.19l-.48.21v-1.41l.44-.23a3.81,3.81,0,0,1,.57-.19,4.42,4.42,0,0,1,.69-.14,4.92,4.92,0,0,1,.79-.05,5.52,5.52,0,0,1,1,.09,3.58,3.58,0,0,1,.82.28,2.55,2.55,0,0,1,.61.43,2.49,2.49,0,0,1,.42.56,3.71,3.71,0,0,1,.24.66,4.3,4.3,0,0,1,.07.73,3.2,3.2,0,0,1-.11.83,4.22,4.22,0,0,1-.32.76,4.73,4.73,0,0,1-.49.71,7.4,7.4,0,0,1-.6.67q-.33.33-.69.63l-.73.61-.66.52h4v1.4Z"/><rect class="cls-1" x="140.54" y="155.13" width="120.54" height="47.57"/><path class="cls-2" d="M188,175.45v-7.3h-2.29v-1.39h6.23v1.39H189.6v7.3Z"/><path class="cls-2" d="M197.1,175.17l-.46.19-.51.14a5.58,5.58,0,0,1-.59.09c-.21,0-.44,0-.67,0a3.83,3.83,0,0,1-.93-.11,2.87,2.87,0,0,1-.76-.3,2.3,2.3,0,0,1-.59-.48,2.66,2.66,0,0,1-.43-.64,3.24,3.24,0,0,1-.25-.78,4.49,4.49,0,0,1-.09-.92,4.76,4.76,0,0,1,.07-.86,3.27,3.27,0,0,1,.21-.79,2.73,2.73,0,0,1,.37-.67,2.18,2.18,0,0,1,.53-.52,2.39,2.39,0,0,1,.72-.34,3.23,3.23,0,0,1,.91-.12,3.4,3.4,0,0,1,.94.12,2.66,2.66,0,0,1,.72.34,2.18,2.18,0,0,1,.54.51,2.76,2.76,0,0,1,.36.65,3.77,3.77,0,0,1,.2.75,4.25,4.25,0,0,1,.07.8v.14a.76.76,0,0,0,0,.15c0,.06,0,.11,0,.16s0,.09,0,.12h-4a2,2,0,0,0,.13.57,1.19,1.19,0,0,0,.3.43,1.22,1.22,0,0,0,.49.27,2.48,2.48,0,0,0,.71.1l.57,0a5,5,0,0,0,.54-.07l.5-.1c.15,0,.3-.09.44-.15Zm-1.25-3.49a2.22,2.22,0,0,0-.12-.55,1.18,1.18,0,0,0-.25-.4.9.9,0,0,0-.36-.25,1.26,1.26,0,0,0-.49-.09,1.21,1.21,0,0,0-.48.09.9.9,0,0,0-.36.25,1.31,1.31,0,0,0-.23.4,2.22,2.22,0,0,0-.12.55Z"/><path class="cls-2" d="M202.32,175.45l-.09-.5a2.66,2.66,0,0,1-.38.28,2.26,2.26,0,0,1-.44.22,2.63,2.63,0,0,1-.5.14,3.45,3.45,0,0,1-.57,0,2.28,2.28,0,0,1-.8-.13,1.83,1.83,0,0,1-.62-.37,1.76,1.76,0,0,1-.4-.59,2.06,2.06,0,0,1-.14-.76,2.23,2.23,0,0,1,.1-.66,1.44,1.44,0,0,1,.29-.51,1.76,1.76,0,0,1,.46-.39,2.59,2.59,0,0,1,.63-.26,4.27,4.27,0,0,1,.79-.15,8.85,8.85,0,0,1,.93,0h.59v-.1a1.54,1.54,0,0,0-.08-.52.76.76,0,0,0-.24-.36.93.93,0,0,0-.41-.2,2.64,2.64,0,0,0-.6-.06,5.12,5.12,0,0,0-.56,0,4.34,4.34,0,0,0-.52.08,3.59,3.59,0,0,0-.47.12l-.43.17v-1.31a2.56,2.56,0,0,1,.44-.21,3.66,3.66,0,0,1,.53-.17,5.18,5.18,0,0,1,.59-.1,4.63,4.63,0,0,1,.65,0,4.49,4.49,0,0,1,1.15.13,2.24,2.24,0,0,1,.84.44,1.76,1.76,0,0,1,.52.77,3.15,3.15,0,0,1,.18,1.13v3.87Zm-.15-2.61h-.27c-.32,0-.6,0-.83,0a2.44,2.44,0,0,0-.59.14.88.88,0,0,0-.35.25.65.65,0,0,0-.11.37.93.93,0,0,0,0,.29.53.53,0,0,0,.16.23.59.59,0,0,0,.28.16,1.16,1.16,0,0,0,.4.06,2.1,2.1,0,0,0,.36,0,1.3,1.3,0,0,0,.34-.08,1.48,1.48,0,0,0,.29-.12,2.34,2.34,0,0,0,.27-.15Z"/><path class="cls-2" d="M213.79,175.45v-3.74a1.7,1.7,0,0,0-.07-.53,1.07,1.07,0,0,0-.21-.36,1,1,0,0,0-.36-.22,1.61,1.61,0,0,0-.51-.07l-.39,0-.36.08-.32.11-.28.15v4.56h-1.61v-3.74a1.7,1.7,0,0,0-.07-.53,1,1,0,0,0-.22-.36.81.81,0,0,0-.36-.22,1.51,1.51,0,0,0-.5-.07l-.39,0-.36.08-.32.11-.29.16v4.55h-1.6v-6.16H207l.13.54a2.38,2.38,0,0,1,.4-.31,1.91,1.91,0,0,1,.45-.23,2.13,2.13,0,0,1,.51-.14,2.67,2.67,0,0,1,.58-.05,3.86,3.86,0,0,1,.61.05,2.54,2.54,0,0,1,.53.17,1.77,1.77,0,0,1,.43.28,2,2,0,0,1,.32.38,2.69,2.69,0,0,1,.45-.37,2.87,2.87,0,0,1,.52-.28,2.7,2.7,0,0,1,.59-.17,3.52,3.52,0,0,1,.66-.06,2.84,2.84,0,0,1,.68.07,1.77,1.77,0,0,1,.57.21,1.62,1.62,0,0,1,.44.34,1.74,1.74,0,0,1,.31.47,2,2,0,0,1,.19.59,3.88,3.88,0,0,1,.07.71v4Z"/><path class="cls-2" d="M197,189.85l-.64-1.86h-3.42l-.63,1.86h-1.72l3.22-8.69h1.76l3.22,8.69ZM195,184.26c-.09-.26-.17-.51-.24-.76s-.14-.51-.2-.78c0,.27-.12.53-.19.78l-.24.76-.8,2.33h2.46Z"/><path class="cls-2" d="M199.39,187.08v-1.62h3.26v1.62Z"/><path class="cls-2" d="M206.85,189.85v-7.11l-2.24.44v-1.44l2.8-.58h1.08v8.69Z"/><rect class="cls-3" x="421.63" y="155.13" width="120.54" height="47.57"/><path class="cls-2" d="M477,180.65v-1.82h1.84v1.82Z"/><path class="cls-2" d="M481,180.65v-1.82h1.84v1.82Z"/><path class="cls-2" d="M485,180.65v-1.82h1.84v1.82Z"/><rect class="cls-3" x="140.54" y="232.77" width="120.54" height="47.57"/><path class="cls-2" d="M183.15,253.09V244.4h3.12a5.16,5.16,0,0,1,1.3.15,3.57,3.57,0,0,1,1,.42,3,3,0,0,1,.75.66,3.72,3.72,0,0,1,.5.87,4.75,4.75,0,0,1,.28,1.05,7.38,7.38,0,0,1,0,2.36,4.75,4.75,0,0,1-.29,1.05,3.85,3.85,0,0,1-.52.88,2.86,2.86,0,0,1-.75.67,3.71,3.71,0,0,1-1,.43,5.05,5.05,0,0,1-1.28.15Zm3-1.4a2.74,2.74,0,0,0,.72-.08,2.15,2.15,0,0,0,.58-.24,2,2,0,0,0,.46-.41,2.16,2.16,0,0,0,.32-.58,3.61,3.61,0,0,0,.2-.74,6.17,6.17,0,0,0,.06-.9,6.27,6.27,0,0,0-.06-.9,3.8,3.8,0,0,0-.2-.74,2.1,2.1,0,0,0-.32-.57,2,2,0,0,0-.46-.41,2.15,2.15,0,0,0-.58-.24,2.73,2.73,0,0,0-.72-.09H184.8v5.9Z"/><path class="cls-2" d="M196.61,252.81a4.68,4.68,0,0,1-.45.19,4,4,0,0,1-.52.14l-.59.1c-.21,0-.43,0-.67,0a4.42,4.42,0,0,1-.93-.1,3,3,0,0,1-.76-.3,2.3,2.3,0,0,1-.59-.48,2.53,2.53,0,0,1-.42-.64,3.33,3.33,0,0,1-.26-.79,4.49,4.49,0,0,1-.09-.92,6.11,6.11,0,0,1,.07-.86,4,4,0,0,1,.21-.79,3.36,3.36,0,0,1,.37-.67,2.61,2.61,0,0,1,.53-.52,2.39,2.39,0,0,1,.72-.34,3.26,3.26,0,0,1,.92-.12,3.33,3.33,0,0,1,.93.12,3.07,3.07,0,0,1,.73.34,2.38,2.38,0,0,1,.53.52,2.57,2.57,0,0,1,.36.65,4.23,4.23,0,0,1,.21.74,5.39,5.39,0,0,1,.06.8v.14a.81.81,0,0,0,0,.16s0,.1,0,.15,0,.09,0,.13h-4a1.69,1.69,0,0,0,.12.56,1.19,1.19,0,0,0,.3.43,1.37,1.37,0,0,0,.49.28,2.53,2.53,0,0,0,.72.09l.56,0,.54-.07.5-.11.44-.14Zm-1.25-3.49a2.14,2.14,0,0,0-.12-.54,1.27,1.27,0,0,0-.24-.41,1.15,1.15,0,0,0-.37-.25,1.21,1.21,0,0,0-.48-.09,1.22,1.22,0,0,0-.49.09,1,1,0,0,0-.36.25,1.46,1.46,0,0,0-.23.41,2.14,2.14,0,0,0-.12.54Z"/><path class="cls-2" d="M201.83,253.09l-.09-.5a2.24,2.24,0,0,1-.38.29,2.56,2.56,0,0,1-.44.21,2.44,2.44,0,0,1-.5.14,2.48,2.48,0,0,1-.56.05,2.3,2.3,0,0,1-.81-.13,1.68,1.68,0,0,1-.62-.37,1.65,1.65,0,0,1-.39-.58,1.92,1.92,0,0,1-.14-.77,2.29,2.29,0,0,1,.09-.66,1.61,1.61,0,0,1,.29-.51,1.76,1.76,0,0,1,.46-.39,3.06,3.06,0,0,1,.63-.26,4.44,4.44,0,0,1,.79-.15,9,9,0,0,1,.93-.05h.59v-.11a1.58,1.58,0,0,0-.08-.52.86.86,0,0,0-.23-.35,1,1,0,0,0-.42-.21,2.64,2.64,0,0,0-.6-.06,5.12,5.12,0,0,0-.56,0l-.51.08-.48.13a3.2,3.2,0,0,0-.43.17v-1.32a3.61,3.61,0,0,1,.44-.21,3.67,3.67,0,0,1,.53-.16,5.59,5.59,0,0,1,.59-.11,4.63,4.63,0,0,1,.65,0,4.47,4.47,0,0,1,1.15.14,2.14,2.14,0,0,1,.85.43,1.91,1.91,0,0,1,.52.77,3.4,3.4,0,0,1,.17,1.13v3.87Zm-.15-2.61h-.27a6.48,6.48,0,0,0-.83.05,2.13,2.13,0,0,0-.59.14.84.84,0,0,0-.35.24.65.65,0,0,0-.11.37.93.93,0,0,0,.05.29.78.78,0,0,0,.16.24.94.94,0,0,0,.28.16,1.16,1.16,0,0,0,.4.06,2.22,2.22,0,0,0,.37,0l.33-.08.29-.12a1.75,1.75,0,0,0,.27-.16Z"/><path class="cls-2" d="M207.75,253l-.24.07-.27.05-.3,0h-.33a1.86,1.86,0,0,1-.7-.12,1.23,1.23,0,0,1-.48-.32,1.31,1.31,0,0,1-.28-.52,2.55,2.55,0,0,1-.09-.71v-7.46h1.6v7.24a.73.73,0,0,0,0,.22.25.25,0,0,0,.08.14.38.38,0,0,0,.15.09.83.83,0,0,0,.24,0l.3,0,.29-.05Z"/><path class="cls-2" d="M213.84,252.81a4.68,4.68,0,0,1-.45.19,3.57,3.57,0,0,1-.52.14l-.59.1c-.21,0-.43,0-.67,0a4.4,4.4,0,0,1-.92-.1,2.94,2.94,0,0,1-.77-.3,2.48,2.48,0,0,1-.59-.48,2.53,2.53,0,0,1-.42-.64,3.85,3.85,0,0,1-.26-.79,5.34,5.34,0,0,1-.08-.92,6.11,6.11,0,0,1,.06-.86,4.81,4.81,0,0,1,.21-.79,3.36,3.36,0,0,1,.37-.67,2.43,2.43,0,0,1,.54-.52,2.34,2.34,0,0,1,.71-.34,3.63,3.63,0,0,1,1.85,0,2.9,2.9,0,0,1,.73.34,2.43,2.43,0,0,1,.54.52,3.39,3.39,0,0,1,.36.65,3.5,3.5,0,0,1,.2.74,5.39,5.39,0,0,1,.06.8v.14a.92.92,0,0,1,0,.16.76.76,0,0,1,0,.15s0,.09,0,.13h-4a1.7,1.7,0,0,0,.13.56,1.06,1.06,0,0,0,.29.43,1.46,1.46,0,0,0,.49.28,2.53,2.53,0,0,0,.72.09l.56,0,.54-.07.5-.11.44-.14Zm-1.25-3.49a2.14,2.14,0,0,0-.12-.54,1.27,1.27,0,0,0-.24-.41,1.05,1.05,0,0,0-.37-.25,1.33,1.33,0,0,0-1,0,1,1,0,0,0-.36.25,1.27,1.27,0,0,0-.24.41,2.14,2.14,0,0,0-.12.54Z"/><path class="cls-2" d="M215.62,253.09v-6.16h1.5l.06.84a2.55,2.55,0,0,1,.3-.41,2.17,2.17,0,0,1,.36-.32,1.63,1.63,0,0,1,.44-.21,1.72,1.72,0,0,1,.52-.07,1.37,1.37,0,0,1,.28,0l.26.05v1.59l-.21,0-.18,0-.19,0h-.21l-.28,0-.26.05a1.57,1.57,0,0,0-.23.09,1,1,0,0,0-.21.1.86.86,0,0,0-.18.14l-.16.15v4.21Z"/><path class="cls-2" d="M190.78,267.49l-.65-1.86h-3.42l-.63,1.86h-1.71l3.21-8.69h1.76l3.22,8.69Zm-1.92-5.59-.24-.76c-.07-.25-.14-.51-.19-.77-.06.26-.13.52-.2.77s-.15.51-.24.76l-.8,2.34h2.46Z"/><path class="cls-2" d="M193.22,264.72V263.1h3.26v1.62Z"/><path class="cls-2" d="M200.67,267.49v-7.1l-2.23.43v-1.44l2.8-.58h1.08v8.69Z"/><path class="cls-2" d="M205.57,264.72V263.1h3.26v1.62Z"/><path class="cls-2" d="M210.16,267.49v-1.26l1.91-1.63c.27-.23.51-.45.72-.65s.41-.39.58-.57a6.09,6.09,0,0,0,.44-.51,3,3,0,0,0,.31-.49,2.42,2.42,0,0,0,.18-.46,1.89,1.89,0,0,0,.06-.47,1.7,1.7,0,0,0-.09-.57,1.09,1.09,0,0,0-.29-.44,1.58,1.58,0,0,0-.51-.29,2.72,2.72,0,0,0-.75-.1,4.87,4.87,0,0,0-.65.05,5.84,5.84,0,0,0-.63.13c-.21.06-.4.12-.58.19a4.79,4.79,0,0,0-.49.21v-1.41a4.75,4.75,0,0,1,.45-.22,3.79,3.79,0,0,1,.57-.2,5.81,5.81,0,0,1,.68-.14,6.56,6.56,0,0,1,.79-.05,4.71,4.71,0,0,1,1,.1,3,3,0,0,1,.82.28,2.32,2.32,0,0,1,1,1,2.41,2.41,0,0,1,.24.65,3.55,3.55,0,0,1,.08.73,2.82,2.82,0,0,1-.12.83,3.69,3.69,0,0,1-.32.77,5.21,5.21,0,0,1-.48.71c-.19.22-.39.45-.61.66a7,7,0,0,1-.69.63c-.24.21-.48.42-.73.62l-.65.51h4v1.4Z"/><rect class="cls-1" y="232.77" width="120.54" height="47.57"/><path class="cls-2" d="M26.57,253.09v-7.3H24.28V244.4h6.23v1.39H28.22v7.3Z"/><path class="cls-2" d="M35.71,252.81a4.68,4.68,0,0,1-.45.19,3.57,3.57,0,0,1-.52.14l-.59.1c-.2,0-.43,0-.67,0a4.4,4.4,0,0,1-.92-.1,2.87,2.87,0,0,1-.76-.3,2.14,2.14,0,0,1-.59-.48,2.87,2.87,0,0,1-.43-.64,3.32,3.32,0,0,1-.25-.79,4.49,4.49,0,0,1-.09-.92,4.91,4.91,0,0,1,.07-.86,3.4,3.4,0,0,1,.21-.79,2.89,2.89,0,0,1,.36-.67,2.43,2.43,0,0,1,.54-.52,2.39,2.39,0,0,1,.72-.34,3.18,3.18,0,0,1,.91-.12,3.4,3.4,0,0,1,.94.12,3,3,0,0,1,.72.34,2.43,2.43,0,0,1,.54.52,2.57,2.57,0,0,1,.36.65,3.5,3.5,0,0,1,.2.74,5.4,5.4,0,0,1,.07.8s0,.09,0,.14v.16a.76.76,0,0,0,0,.15s0,.09,0,.13H32a2,2,0,0,0,.13.56,1.19,1.19,0,0,0,.3.43,1.37,1.37,0,0,0,.49.28,2.45,2.45,0,0,0,.71.09l.56,0,.55-.07.49-.11.44-.14Zm-1.24-3.49a2.14,2.14,0,0,0-.12-.54,1.29,1.29,0,0,0-.25-.41,1,1,0,0,0-.36-.25,1.3,1.3,0,0,0-.49-.09,1.21,1.21,0,0,0-.48.09,1,1,0,0,0-.36.25,1.27,1.27,0,0,0-.24.41,2.71,2.71,0,0,0-.11.54Z"/><path class="cls-2" d="M40.94,253.09l-.09-.5a2.72,2.72,0,0,1-.38.29,3,3,0,0,1-.44.21,2.95,2.95,0,0,1-1.07.19,2.28,2.28,0,0,1-.8-.13,1.68,1.68,0,0,1-1-1,2.11,2.11,0,0,1-.14-.77,2,2,0,0,1,.1-.66,1.58,1.58,0,0,1,.28-.51,1.81,1.81,0,0,1,.47-.39,3.06,3.06,0,0,1,.63-.26,4.32,4.32,0,0,1,.78-.15,9,9,0,0,1,.94-.05h.59v-.11a1.58,1.58,0,0,0-.08-.52.79.79,0,0,0-.24-.35,1.06,1.06,0,0,0-.41-.21,2.64,2.64,0,0,0-.6-.06,5,5,0,0,0-.56,0l-.52.08-.47.13a2.75,2.75,0,0,0-.43.17v-1.32a3,3,0,0,1,.44-.21,3.67,3.67,0,0,1,.53-.16,4.77,4.77,0,0,1,.59-.11,4.54,4.54,0,0,1,.65,0,4.47,4.47,0,0,1,1.15.14,2.09,2.09,0,0,1,.84.43,1.91,1.91,0,0,1,.52.77,3.15,3.15,0,0,1,.18,1.13v3.87Zm-.15-2.61h-.27a6.78,6.78,0,0,0-.84.05,2.05,2.05,0,0,0-.58.14.78.78,0,0,0-.35.24.58.58,0,0,0-.11.37.71.71,0,0,0,0,.29.63.63,0,0,0,.16.24.88.88,0,0,0,.27.16,1.25,1.25,0,0,0,.4.06,2.22,2.22,0,0,0,.37,0l.33-.08.3-.12.27-.16Z"/><path class="cls-2" d="M52.41,253.09v-3.74a1.6,1.6,0,0,0-.07-.52.91.91,0,0,0-.22-.37.81.81,0,0,0-.36-.22,1.83,1.83,0,0,0-.5-.07,2.38,2.38,0,0,0-.39,0,2.09,2.09,0,0,0-.36.07,1.75,1.75,0,0,0-.32.12,1.59,1.59,0,0,0-.29.15v4.55H48.3v-3.74a1.6,1.6,0,0,0-.07-.52.91.91,0,0,0-.22-.37.81.81,0,0,0-.36-.22,1.83,1.83,0,0,0-.5-.07,2.38,2.38,0,0,0-.39,0,1.91,1.91,0,0,0-.36.07,1.75,1.75,0,0,0-.32.12,1.59,1.59,0,0,0-.29.15v4.55h-1.6v-6.16h1.39l.13.54a3,3,0,0,1,.39-.31,2.53,2.53,0,0,1,1-.37,3.7,3.7,0,0,1,.59,0,2.93,2.93,0,0,1,.61.06,2.06,2.06,0,0,1,.53.16,1.81,1.81,0,0,1,.42.28,1.7,1.7,0,0,1,.33.38,2.61,2.61,0,0,1,.44-.37,3.74,3.74,0,0,1,.52-.28,3.78,3.78,0,0,1,.6-.17,3.37,3.37,0,0,1,.66-.06,3,3,0,0,1,.68.07A2.4,2.4,0,0,1,53,247a1.62,1.62,0,0,1,.44.34,1.92,1.92,0,0,1,.31.47,2.15,2.15,0,0,1,.19.59,4,4,0,0,1,.06.71v4Z"/><path class="cls-2" d="M59,253.09V244.4h1.64v7.29h3.45v1.4Z"/><path class="cls-2" d="M70.08,252.81a4.68,4.68,0,0,1-.45.19,3.57,3.57,0,0,1-.52.14l-.59.1c-.2,0-.43,0-.67,0a4.4,4.4,0,0,1-.92-.1,2.87,2.87,0,0,1-.76-.3,2.14,2.14,0,0,1-.59-.48,2.87,2.87,0,0,1-.43-.64,3.32,3.32,0,0,1-.25-.79,4.49,4.49,0,0,1-.09-.92,4.91,4.91,0,0,1,.07-.86,3.4,3.4,0,0,1,.21-.79,2.89,2.89,0,0,1,.36-.67,2.43,2.43,0,0,1,.54-.52,2.39,2.39,0,0,1,.72-.34,3.18,3.18,0,0,1,.91-.12,3.4,3.4,0,0,1,.94.12,3,3,0,0,1,.72.34,2.43,2.43,0,0,1,.54.52,2.57,2.57,0,0,1,.36.65,3.5,3.5,0,0,1,.2.74,5.4,5.4,0,0,1,.07.8s0,.09,0,.14v.16a.76.76,0,0,0,0,.15s0,.09,0,.13h-4a2,2,0,0,0,.13.56,1.19,1.19,0,0,0,.3.43,1.37,1.37,0,0,0,.49.28,2.45,2.45,0,0,0,.71.09l.56,0,.55-.07.49-.11.44-.14Zm-1.24-3.49a2.14,2.14,0,0,0-.12-.54,1.29,1.29,0,0,0-.25-.41,1,1,0,0,0-.36-.25,1.3,1.3,0,0,0-.49-.09,1.21,1.21,0,0,0-.48.09,1,1,0,0,0-.36.25,1.27,1.27,0,0,0-.24.41,2.71,2.71,0,0,0-.11.54Z"/><path class="cls-2" d="M75.3,253.09l-.08-.5a3.47,3.47,0,0,1-.38.29,3,3,0,0,1-.44.21,2.95,2.95,0,0,1-1.07.19,2.28,2.28,0,0,1-.8-.13,1.68,1.68,0,0,1-1-1,2.11,2.11,0,0,1-.14-.77,2,2,0,0,1,.1-.66,1.58,1.58,0,0,1,.28-.51,1.81,1.81,0,0,1,.47-.39,3.06,3.06,0,0,1,.63-.26,4.15,4.15,0,0,1,.78-.15,9,9,0,0,1,.94-.05h.58v-.11a1.6,1.6,0,0,0-.07-.52.79.79,0,0,0-.24-.35,1.06,1.06,0,0,0-.41-.21,2.64,2.64,0,0,0-.6-.06,5,5,0,0,0-.56,0l-.52.08-.47.13a2.75,2.75,0,0,0-.43.17v-1.32a3,3,0,0,1,.44-.21,3.67,3.67,0,0,1,.53-.16,4.77,4.77,0,0,1,.59-.11,4.54,4.54,0,0,1,.65,0,4.47,4.47,0,0,1,1.15.14,2.09,2.09,0,0,1,.84.43,1.82,1.82,0,0,1,.52.77,3.15,3.15,0,0,1,.18,1.13v3.87Zm-.15-2.61h-.26a6.78,6.78,0,0,0-.84.05,2.05,2.05,0,0,0-.58.14.78.78,0,0,0-.35.24.58.58,0,0,0-.11.37.71.71,0,0,0,0,.29.63.63,0,0,0,.16.24.88.88,0,0,0,.27.16,1.25,1.25,0,0,0,.4.06,2.22,2.22,0,0,0,.37,0l.33-.08.3-.12a1.64,1.64,0,0,0,.26-.16Z"/><path class="cls-2" d="M82.72,253.09l-.14-.56a2.42,2.42,0,0,1-.33.31,2.86,2.86,0,0,1-.42.24,3.27,3.27,0,0,1-.5.15,3.48,3.48,0,0,1-.58.05,2.67,2.67,0,0,1-1.12-.22,2.41,2.41,0,0,1-.84-.65,3,3,0,0,1-.52-1,4.72,4.72,0,0,1-.18-1.36,4.93,4.93,0,0,1,.18-1.39,2.9,2.9,0,0,1,.55-1,2.39,2.39,0,0,1,.89-.64,3,3,0,0,1,1.19-.22,3.44,3.44,0,0,1,.46,0,2.71,2.71,0,0,1,.41.09,2.15,2.15,0,0,1,.38.15,1.9,1.9,0,0,1,.34.2v-3.14H84.1v9Zm-.23-4.6a2.69,2.69,0,0,0-.29-.16l-.33-.1-.35-.07-.38,0a1.41,1.41,0,0,0-.64.14,1.49,1.49,0,0,0-.44.39,1.76,1.76,0,0,0-.26.59,3.36,3.36,0,0,0-.08.74,2.94,2.94,0,0,0,.09.74,1.69,1.69,0,0,0,.27.59,1.28,1.28,0,0,0,1.11.54,2.36,2.36,0,0,0,.38,0,1.86,1.86,0,0,0,.34-.06,1.76,1.76,0,0,0,.3-.1,1.51,1.51,0,0,0,.28-.15Z"/><path class="cls-2" d="M90.82,252.81a4.68,4.68,0,0,1-.45.19,3.57,3.57,0,0,1-.52.14l-.59.1c-.21,0-.43,0-.67,0a4.57,4.57,0,0,1-.93-.1,3,3,0,0,1-.76-.3,2.48,2.48,0,0,1-.59-.48,2.53,2.53,0,0,1-.42-.64,3.85,3.85,0,0,1-.26-.79,5.34,5.34,0,0,1-.08-.92,6.11,6.11,0,0,1,.06-.86,4.81,4.81,0,0,1,.21-.79,3.36,3.36,0,0,1,.37-.67,2.43,2.43,0,0,1,.54-.52,2.18,2.18,0,0,1,.72-.34,3.18,3.18,0,0,1,.91-.12,3.28,3.28,0,0,1,.93.12,2.9,2.9,0,0,1,.73.34,2.43,2.43,0,0,1,.54.52,3.39,3.39,0,0,1,.36.65,3.5,3.5,0,0,1,.2.74,5.39,5.39,0,0,1,.06.8v.14a.92.92,0,0,1,0,.16.76.76,0,0,1,0,.15.53.53,0,0,1,0,.13h-4a1.7,1.7,0,0,0,.13.56,1.06,1.06,0,0,0,.29.43,1.42,1.42,0,0,0,.5.28,2.41,2.41,0,0,0,.71.09l.56,0,.54-.07.5-.11.44-.14Zm-1.25-3.49a2.14,2.14,0,0,0-.12-.54,1.27,1.27,0,0,0-.24-.41,1,1,0,0,0-.37-.25,1.33,1.33,0,0,0-1,0,1,1,0,0,0-.36.25,1.27,1.27,0,0,0-.24.41,2.14,2.14,0,0,0-.12.54Z"/><path class="cls-2" d="M92.6,253.09v-6.16h1.5l.06.84a2.55,2.55,0,0,1,.3-.41,2.17,2.17,0,0,1,.36-.32,1.63,1.63,0,0,1,.44-.21,1.72,1.72,0,0,1,.52-.07,1.37,1.37,0,0,1,.28,0l.26.05v1.59l-.21,0-.18,0-.19,0h-.21l-.28,0-.26.05a1.57,1.57,0,0,0-.23.09l-.21.1a.86.86,0,0,0-.18.14l-.16.15v4.21Z"/><path class="cls-2" d="M24.53,267.49V258.8h3.11A5.19,5.19,0,0,1,29,259a3.69,3.69,0,0,1,1,.42,3,3,0,0,1,.75.66,3.72,3.72,0,0,1,.5.87,5.37,5.37,0,0,1,.28,1.05,8.87,8.87,0,0,1,.08,1.18,7.43,7.43,0,0,1-.09,1.18,4.75,4.75,0,0,1-.29,1.05,3.85,3.85,0,0,1-.52.88,3.22,3.22,0,0,1-.75.67,3.71,3.71,0,0,1-1,.43,5.08,5.08,0,0,1-1.29.15Zm3-1.4a2.74,2.74,0,0,0,.72-.08,1.89,1.89,0,0,0,.58-.25,1.92,1.92,0,0,0,.46-.4,2.48,2.48,0,0,0,.32-.58,3.61,3.61,0,0,0,.2-.74,6.78,6.78,0,0,0,0-1.8,3.8,3.8,0,0,0-.2-.74,2.41,2.41,0,0,0-.32-.57,2.22,2.22,0,0,0-.46-.41,2.15,2.15,0,0,0-.58-.24,2.73,2.73,0,0,0-.72-.09H26.18v5.9Z"/><path class="cls-2" d="M38,267.21a4,4,0,0,1-.46.19,3.8,3.8,0,0,1-.51.14l-.59.1c-.21,0-.43,0-.67,0a4.42,4.42,0,0,1-.93-.1,2.87,2.87,0,0,1-.76-.3,2.3,2.3,0,0,1-.59-.48,3.12,3.12,0,0,1-.43-.64,3.84,3.84,0,0,1-.25-.79,4.49,4.49,0,0,1-.09-.92,4.91,4.91,0,0,1,.07-.86,3.4,3.4,0,0,1,.21-.79,2.93,2.93,0,0,1,.37-.67,2.31,2.31,0,0,1,1.25-.86,3.26,3.26,0,0,1,.92-.12,3.38,3.38,0,0,1,.93.12,3.07,3.07,0,0,1,.73.34,2.61,2.61,0,0,1,.53.52,2.57,2.57,0,0,1,.36.65,3.5,3.5,0,0,1,.2.74,4.25,4.25,0,0,1,.07.8v.14a.76.76,0,0,0,0,.15c0,.06,0,.11,0,.16s0,.09,0,.13h-4a1.69,1.69,0,0,0,.12.56,1.19,1.19,0,0,0,.3.43,1.22,1.22,0,0,0,.49.27,2.2,2.2,0,0,0,.72.1l.56,0,.54-.06.5-.11.44-.14Zm-1.25-3.49a2.14,2.14,0,0,0-.12-.54,1.13,1.13,0,0,0-.25-.41,1,1,0,0,0-.36-.25,1.21,1.21,0,0,0-.48-.09,1.22,1.22,0,0,0-.49.09,1,1,0,0,0-.36.25,1.25,1.25,0,0,0-.23.41,2.14,2.14,0,0,0-.12.54Z"/><path class="cls-2" d="M43.21,267.49l-.09-.5a2.72,2.72,0,0,1-.38.29,2.56,2.56,0,0,1-.44.21,2.95,2.95,0,0,1-1.07.19,2.28,2.28,0,0,1-.8-.13,1.68,1.68,0,0,1-1-.95,2.11,2.11,0,0,1-.13-.77,2.29,2.29,0,0,1,.09-.66,1.44,1.44,0,0,1,.29-.51,1.76,1.76,0,0,1,.46-.39,3.06,3.06,0,0,1,.63-.26,4.44,4.44,0,0,1,.79-.15,9,9,0,0,1,.93-.05h.59v-.11a1.58,1.58,0,0,0-.08-.52.73.73,0,0,0-.24-.35.94.94,0,0,0-.41-.21,2.64,2.64,0,0,0-.6-.06,5.12,5.12,0,0,0-.56,0l-.52.08-.47.13a3.2,3.2,0,0,0-.43.17v-1.32a2.56,2.56,0,0,1,.44-.21,3.67,3.67,0,0,1,.53-.16,3.63,3.63,0,0,1,.59-.11,4.63,4.63,0,0,1,.65,0,4.47,4.47,0,0,1,1.15.14,2.14,2.14,0,0,1,.85.43,2,2,0,0,1,.52.77,3.42,3.42,0,0,1,.17,1.14v3.86Zm-.15-2.61h-.27a6.48,6.48,0,0,0-.83.05,2,2,0,0,0-.59.14.78.78,0,0,0-.35.24.67.67,0,0,0-.11.37A.88.88,0,0,0,41,266a.63.63,0,0,0,.16.24.94.94,0,0,0,.28.16,1.16,1.16,0,0,0,.4.06,2.1,2.1,0,0,0,.36,0l.34-.08.29-.12a1.75,1.75,0,0,0,.27-.16Z"/><path class="cls-2" d="M49.13,267.43l-.24.07-.27.05-.3,0H48a1.86,1.86,0,0,1-.7-.12,1.16,1.16,0,0,1-.48-.32,1.35,1.35,0,0,1-.28-.53,2.43,2.43,0,0,1-.09-.7v-7.46H48v7.24a.69.69,0,0,0,0,.22.25.25,0,0,0,.08.14.38.38,0,0,0,.15.09.78.78,0,0,0,.24,0l.3,0,.29-.05Z"/><path class="cls-2" d="M55.22,267.21a4.68,4.68,0,0,1-.45.19,4,4,0,0,1-.52.14l-.59.1c-.21,0-.43,0-.67,0a4.57,4.57,0,0,1-.93-.1,3,3,0,0,1-.76-.3,2.48,2.48,0,0,1-.59-.48,2.72,2.72,0,0,1-.42-.64,3.33,3.33,0,0,1-.26-.79,4.5,4.5,0,0,1-.08-.92,6.11,6.11,0,0,1,.06-.86,4.81,4.81,0,0,1,.21-.79,3.36,3.36,0,0,1,.37-.67,2.43,2.43,0,0,1,.54-.52,2.23,2.23,0,0,1,.71-.34,3.63,3.63,0,0,1,1.85,0,2.9,2.9,0,0,1,.73.34,2.18,2.18,0,0,1,.53.52,2.57,2.57,0,0,1,.36.65,3,3,0,0,1,.21.74,5.29,5.29,0,0,1,.06.8v.14a.76.76,0,0,1,0,.15.81.81,0,0,1,0,.16c0,.05,0,.09,0,.13h-4a2,2,0,0,0,.12.56,1.19,1.19,0,0,0,.3.43,1.29,1.29,0,0,0,.49.27,2.2,2.2,0,0,0,.72.1,5.25,5.25,0,0,0,.56,0,4.46,4.46,0,0,0,.54-.06l.5-.11a4.56,4.56,0,0,0,.44-.14ZM54,263.72a2.14,2.14,0,0,0-.12-.54,1.27,1.27,0,0,0-.24-.41,1.05,1.05,0,0,0-.37-.25,1.21,1.21,0,0,0-.48-.09,1.26,1.26,0,0,0-.49.09,1,1,0,0,0-.35.25,1.27,1.27,0,0,0-.24.41,2.14,2.14,0,0,0-.12.54Z"/><path class="cls-2" d="M57,267.49v-6.16h1.5l.06.84a2.55,2.55,0,0,1,.3-.41,1.59,1.59,0,0,1,.36-.32,1.63,1.63,0,0,1,.44-.21,1.72,1.72,0,0,1,.52-.07,1.37,1.37,0,0,1,.28,0l.26.05v1.59l-.21-.05-.18,0-.19,0h-.21l-.28,0-.26.05-.23.08L59,263a1.33,1.33,0,0,0-.19.14l-.16.15v4.21Z"/><path class="cls-2" d="M70.51,267.49l-.65-1.86H66.44l-.63,1.86H64.1l3.21-8.69h1.76l3.22,8.69Zm-1.92-5.59-.24-.76c-.07-.25-.14-.51-.19-.77-.06.26-.12.52-.2.77s-.15.51-.24.76l-.8,2.34h2.47Z"/><path class="cls-2" d="M73,264.72V263.1h3.26v1.62Z"/><path class="cls-2" d="M80.4,267.49v-7.1l-2.23.43v-1.44l2.8-.58h1.08v8.69Z"/><path class="cls-2" d="M85.3,264.72V263.1h3.26v1.62Z"/><path class="cls-2" d="M92.75,267.49v-7.1l-2.23.43v-1.44l2.8-.58H94.4v8.69Z"/><rect class="cls-3" x="281.09" y="232.91" width="120.54" height="47.57"/><path class="cls-2" d="M336.44,260.42v-1.81h1.84v1.81Z"/><path class="cls-2" d="M340.44,260.42v-1.81h1.84v1.81Z"/><path class="cls-2" d="M344.43,260.42v-1.81h1.84v1.81Z"/><line class="cls-4" x1="481.9" y1="77.57" x2="481.9" y2="47.57"/><path class="cls-5" d="M483.78,77.57a1.88,1.88,0,1,1-1.88-1.88A1.88,1.88,0,0,1,483.78,77.57Z"/><line class="cls-4" x1="341.36" y1="77.57" x2="341.36" y2="62.57"/><path class="cls-5" d="M343.24,77.57a1.88,1.88,0,1,1-1.88-1.88A1.89,1.89,0,0,1,343.24,77.57Z"/><line class="cls-4" x1="341.36" y1="62.57" x2="622.44" y2="62.57"/><line class="cls-4" x1="622.44" y1="77.57" x2="622.44" y2="62.57"/><path class="cls-5" d="M624.32,77.57a1.88,1.88,0,1,1-1.88-1.88A1.88,1.88,0,0,1,624.32,77.57Z"/><line class="cls-4" x1="341.36" y1="155.17" x2="341.36" y2="125.17"/><path class="cls-5" d="M343.24,155.17a1.88,1.88,0,1,1-1.88-1.88A1.88,1.88,0,0,1,343.24,155.17Z"/><line class="cls-4" x1="200.81" y1="155.17" x2="200.81" y2="140.17"/><path class="cls-5" d="M202.69,155.17a1.88,1.88,0,1,1-1.88-1.88A1.88,1.88,0,0,1,202.69,155.17Z"/><line class="cls-4" x1="200.81" y1="140.17" x2="481.9" y2="140.17"/><line class="cls-4" x1="481.9" y1="155.17" x2="481.9" y2="140.17"/><path class="cls-5" d="M483.78,155.17a1.88,1.88,0,1,1-1.88-1.88A1.88,1.88,0,0,1,483.78,155.17Z"/><line class="cls-4" x1="200.81" y1="232.66" x2="200.81" y2="202.66"/><path class="cls-5" d="M202.69,232.66a1.88,1.88,0,1,1-1.88-1.88A1.88,1.88,0,0,1,202.69,232.66Z"/><line class="cls-4" x1="60.27" y1="232.66" x2="60.27" y2="217.66"/><path class="cls-5" d="M62.15,232.66a1.88,1.88,0,1,1-1.88-1.88A1.88,1.88,0,0,1,62.15,232.66Z"/><line class="cls-4" x1="60.27" y1="217.66" x2="341.36" y2="217.66"/><line class="cls-4" x1="341.36" y1="232.66" x2="341.36" y2="217.66"/><path class="cls-5" d="M343.24,232.66a1.88,1.88,0,1,1-1.88-1.88A1.88,1.88,0,0,1,343.24,232.66Z"/></g></g></svg>