<?xml version="1.0" encoding="utf-8"?>
<!-- Generator: Adobe Illustrator 23.0.3, SVG Export Plug-In . SVG Version: 6.00 Build 0)  -->
<svg version="1.1" id="레이어_1" xmlns="http://www.w3.org/2000/svg" xmlns:xlink="http://www.w3.org/1999/xlink" x="0px"
	 y="0px" viewBox="0 0 2499 2500" style="enable-background:new 0 0 2499 2500;" xml:space="preserve">
<style type="text/css">
	.st0{fill-rule:evenodd;clip-rule:evenodd;fill:#FFFFFF;}
	.st1{fill-rule:evenodd;clip-rule:evenodd;fill:#E61E29;}
	.st2{fill:#FFFFFF;}
	.st3{fill-rule:evenodd;clip-rule:evenodd;fill:#0074AD;}
</style>
<g>
	<g>
		<path class="st0" d="M972.1,1534.9c78.6-78.3,205.7-78.1,284,0.5c78.3,78.6,78.1,205.7-0.5,284c-78.6,78.3-205.7,78.1-284-0.5
			C893.4,1740.3,893.6,1613.2,972.1,1534.9L972.1,1534.9z"/>
	</g>
	<g>
		<path class="st0" d="M1537.3,677.8c78.6-78.3,205.7-78.1,284,0.5c78.3,78.6,78.1,205.7-0.5,284c-78.6,78.3-205.7,78.1-284-0.5
			C1458.6,883.2,1458.8,756.1,1537.3,677.8L1537.3,677.8z"/>
	</g>
	<g>
		<path class="st0" d="M384.3,1534.9c78.6-78.3,205.7-78.1,284,0.5c78.3,78.6,78.1,205.7-0.5,284c-78.6,78.3-205.7,78.1-284-0.5
			C305.5,1740.3,305.7,1613.2,384.3,1534.9L384.3,1534.9z"/>
	</g>
	<g>
		<path class="st1" d="M866.9,810.1l748.2-745.6c31.3-31.2,82.4-31.1,113.6,0.2l705.9,708.4c31.2,31.3,31.1,82.4-0.2,113.6
			l-748.2,745.6L866.9,810.1L866.9,810.1z M1537.3,677.8c78.6-78.3,205.7-78.1,284,0.5s78.1,205.7-0.5,284
			c-78.6,78.3-205.7,78.1-284-0.5C1458.6,883.3,1458.8,756.1,1537.3,677.8z"/>
		<path class="st2" d="M1671.8,41.2c20.6,0,41.3,7.8,56.9,23.5l705.9,708.4c31.2,31.3,31.1,82.4-0.2,113.6l-748.2,745.6L866.9,810.1
			h0l748.2-745.6C1630.7,49,1651.3,41.2,1671.8,41.2 M1679.1,1020.8c51.3,0,102.6-19.5,141.7-58.6c78.6-78.3,78.8-205.4,0.5-284
			c-39.2-39.4-90.7-59.1-142.2-59.1c-51.3,0-102.6,19.5-141.8,58.6c-78.6,78.3-78.8,205.4-0.5,284
			C1576.1,1001.2,1627.6,1020.8,1679.1,1020.8 M1671.8,0.1v41.1V0.1c-32.4,0-62.8,12.5-85.7,35.3L837.9,781l-29.1,29l29,29.1
			l819.3,822.2l29,29.1l29.1-29l748.2-745.6c22.9-22.8,35.6-53.3,35.6-85.8c0.1-32.5-12.5-63-35.3-85.9L1757.8,35.7
			C1734.9,12.8,1704.4,0.1,1671.8,0.1L1671.8,0.1z M1679.1,979.8c-42.8,0-83-16.7-113.1-47c-30.1-30.2-46.7-70.4-46.6-113
			c0.1-42.7,16.8-82.8,47-112.9c30.2-30,70.2-46.6,112.8-46.6c42.8,0,82.9,16.7,113.1,47c30.1,30.2,46.7,70.4,46.6,113
			c-0.1,42.7-16.8,82.8-47,112.9C1761.7,963.2,1721.6,979.8,1679.1,979.8L1679.1,979.8z"/>
	</g>
	<g>
		<path class="st3" d="M972.1,1533.1c78.6-78.3,205.7-78.1,284,0.5c78.3,78.6,78.1,205.7-0.5,284c-78.6,78.3-205.7,78.1-284-0.5
			C893.3,1738.5,893.6,1611.3,972.1,1533.1L972.1,1533.1z M384.3,1534.9c78.6-78.3,205.7-78.1,284,0.5c78.3,78.6,78.1,205.7-0.5,284
			c-78.6,78.3-205.7,78.1-284-0.5C305.5,1740.3,305.7,1613.2,384.3,1534.9L384.3,1534.9z M64.7,1609.6L812.8,864l819.3,822.2
			l-748.2,745.6c-31.3,31.2-82.4,31.1-113.6-0.2L64.4,1723.2C33.3,1691.9,33.4,1640.8,64.7,1609.6L64.7,1609.6z"/>
		<path class="st2" d="M812.8,864l819.3,822.2l-748.2,745.6c-15.6,15.6-36.2,23.3-56.7,23.3c-20.6,0-41.3-7.8-56.9-23.5L64.4,1723.2
			c-31.2-31.3-31.1-82.4,0.2-113.6L812.8,864 M1113.9,1876.1c51.3,0,102.6-19.5,141.7-58.6c78.6-78.3,78.8-205.4,0.5-284
			c-39.2-39.4-90.7-59.1-142.2-59.1c-51.3,0-102.6,19.5-141.8,58.6c-78.6,78.3-78.8,205.4-0.5,284
			C1010.9,1856.4,1062.4,1876.1,1113.9,1876.1 M526,1877.9c51.3,0,102.6-19.5,141.7-58.6c78.6-78.3,78.8-205.4,0.5-284
			c-39.2-39.4-90.7-59.1-142.2-59.1c-51.3,0-102.6,19.5-141.8,58.6c-78.6,78.3-78.8,205.4-0.5,284
			C423,1858.2,474.5,1877.9,526,1877.9 M812.9,805.9l-29.1,29L35.7,1580.5c-47.4,47.2-47.6,124.3-0.3,171.7l705.9,708.4
			c22.9,23,53.4,35.6,86,35.6c32.4,0,62.8-12.5,85.7-35.3l748.2-745.6l29.1-29l-29-29.1L841.9,835L812.9,805.9L812.9,805.9z
			 M1113.9,1835c-42.8,0-83-16.7-113.2-47c-30.1-30.2-46.7-70.3-46.6-113c0.1-42.7,16.8-82.7,47-112.9c30.2-30,70.2-46.6,112.8-46.6
			c42.8,0,82.9,16.7,113.1,47c30.1,30.2,46.7,70.4,46.6,113c-0.1,42.7-16.8,82.8-47,112.9C1196.5,1818.5,1156.5,1835,1113.9,1835
			L1113.9,1835z M526,1836.8c-42.8,0-83-16.7-113.2-47c-30.1-30.2-46.7-70.3-46.6-113c0.1-42.7,16.8-82.7,47-112.9
			c30.1-30,70.2-46.6,112.8-46.6c42.8,0,82.9,16.7,113.1,47c30.1,30.2,46.7,70.4,46.6,113c-0.1,42.7-16.8,82.8-47,112.9
			C608.6,1820.3,568.6,1836.8,526,1836.8L526,1836.8z"/>
	</g>
</g>
</svg>
