<svg xmlns="http://www.w3.org/2000/svg" viewBox="0 0 162.52 28.21"><defs><style>.cls-1{fill:#d2243f;}.cls-2{fill:#0071a7;}</style></defs><g id="Layer_2" data-name="Layer 2"><g id="Layer_1-2" data-name="Layer 1"><path class="cls-1" d="M0,28V11.45H7v3.06H3.2v3.35H6.61v3H3.2v3.88H7V28Z"/><path class="cls-1" d="M7.8,28l3.85-16.55h3.46L18.78,28h-3.3l-.55-2.9H11.61L11.1,28Zm4.41-5.47h2.2c-.23-1.16-.43-2.37-.62-3.64s-.33-2.6-.47-4c-.17,1.24-.34,2.49-.53,3.77S12.41,21.22,12.21,22.53Z"/><path class="cls-1" d="M19.47,27.42V24a5.59,5.59,0,0,0,1.23.82,2.91,2.91,0,0,0,1.21.27,1.9,1.9,0,0,0,1.32-.44,1.57,1.57,0,0,0,.48-1.21,3,3,0,0,0-1.3-2l-.54-.47a9.26,9.26,0,0,1-2.09-2.45A5.18,5.18,0,0,1,19.21,16a4.94,4.94,0,0,1,1.21-3.46,4.09,4.09,0,0,1,3.16-1.32,4.53,4.53,0,0,1,1.36.2,6.81,6.81,0,0,1,1.43.61V15A11.91,11.91,0,0,0,25,14.4a2.62,2.62,0,0,0-.85-.16,1.56,1.56,0,0,0-1.63,1.62,2.23,2.23,0,0,0,.35,1.19,8.78,8.78,0,0,0,1.58,1.62,8.75,8.75,0,0,1,2.14,2.38,5,5,0,0,1,.48,2.28,4.9,4.9,0,0,1-1.27,3.57,4.64,4.64,0,0,1-3.48,1.31,5.87,5.87,0,0,1-1.55-.2A4.43,4.43,0,0,1,19.47,27.42Z"/><path class="cls-1" d="M29,28V11.45H32.4V28Z"/><path class="cls-1" d="M35.16,28V11.45h7v3.06H38.36v3.35h3.41v3H38.36v3.88h3.76V28Z"/><path class="cls-1" d="M44.36,28V11.45h3.43a6.2,6.2,0,0,1,4.11,1.11,4.48,4.48,0,0,1,1.27,3.55A5.36,5.36,0,0,1,52.52,19a3.49,3.49,0,0,1-2,1.5L53.73,28H50.25l-2.7-6.85V28Zm3.19-9.37h.38a2.1,2.1,0,0,0,1.62-.6,2.57,2.57,0,0,0,.54-1.77,2.47,2.47,0,0,0-.5-1.73A2,2,0,0,0,48,14h-.43Z"/><path d="M58.73,28l3.85-16.55H66L69.71,28h-3.3l-.55-2.9H62.54L62,28Zm4.41-5.47h2.2c-.23-1.16-.43-2.37-.61-3.64s-.34-2.6-.48-4c-.17,1.24-.34,2.49-.53,3.77S63.34,21.22,63.14,22.53Z"/><path d="M70.92,28V11.45h3.34l3.34,8.91q.15.43.42,1.32c.17.59.38,1.29.6,2.09-.17-1.17-.3-2.24-.38-3.22s-.13-1.89-.13-2.74V11.45h3.06V28H78.11l-3.62-9.26c-.07-.14-.22-.7-.48-1.69-.12-.45-.22-.81-.28-1.06.07.64.13,1.36.17,2.17s0,1.76,0,2.88v7Z"/><path d="M83.78,28V11.45h2.83c2.56,0,4.46.69,5.72,2.05s1.89,3.45,1.89,6.24A11.2,11.2,0,0,1,93.53,24a6.54,6.54,0,0,1-2.17,2.82,5.55,5.55,0,0,1-2,.95,13.29,13.29,0,0,1-3.13.28Zm3.27-3.06h.26A3.07,3.07,0,0,0,90,23.62a6.64,6.64,0,0,0,.93-3.84,7.11,7.11,0,0,0-.9-4,3.1,3.1,0,0,0-2.76-1.31h-.21Z"/><path class="cls-2" d="M101.39,28V11.45h7.14v3.06h-4V18h3.61V21h-3.61v7Z"/><path class="cls-2" d="M108.64,28l3.85-16.55H116L119.62,28h-3.3l-.55-2.9h-3.32l-.51,2.9Zm4.41-5.47h2.2c-.23-1.16-.43-2.37-.61-3.64s-.34-2.6-.48-4c-.17,1.24-.34,2.49-.53,3.77S113.25,21.22,113.05,22.53Z"/><path class="cls-2" d="M120.32,27.42V24a5.33,5.33,0,0,0,1.22.82,2.91,2.91,0,0,0,1.21.27,1.9,1.9,0,0,0,1.32-.44,1.58,1.58,0,0,0,.49-1.21,3,3,0,0,0-1.31-2l-.54-.47a9.26,9.26,0,0,1-2.09-2.45,5.17,5.17,0,0,1-.56-2.45,4.94,4.94,0,0,1,1.2-3.46,4.09,4.09,0,0,1,3.16-1.32,4.48,4.48,0,0,1,1.36.2,6.81,6.81,0,0,1,1.43.61V15a11.19,11.19,0,0,0-1.36-.58,2.62,2.62,0,0,0-.85-.16,1.54,1.54,0,0,0-1.62,1.62,2.22,2.22,0,0,0,.34,1.19,8.78,8.78,0,0,0,1.58,1.62,9,9,0,0,1,2.15,2.38,5.12,5.12,0,0,1,.47,2.28,4.9,4.9,0,0,1-1.27,3.57,4.64,4.64,0,0,1-3.48,1.31,5.87,5.87,0,0,1-1.55-.2A4.37,4.37,0,0,1,120.32,27.42Z"/><path class="cls-2" d="M131.29,28V14.51h-2.53V11.45h8.38v3.06h-2.53V28Z"/><path class="cls-2" d="M138.77,28V11.45h7v3.06H142v3.35h3.41v3H142v3.88h3.76V28Z"/><path class="cls-2" d="M148,28V11.45h3.44a6.2,6.2,0,0,1,4.11,1.11,4.48,4.48,0,0,1,1.27,3.55,5.45,5.45,0,0,1-.65,2.84,3.51,3.51,0,0,1-2,1.5L157.34,28h-3.48l-2.7-6.85V28Zm3.2-9.37h.37a2.07,2.07,0,0,0,1.62-.6,2.52,2.52,0,0,0,.55-1.77,2.52,2.52,0,0,0-.5-1.73,2.05,2.05,0,0,0-1.6-.55h-.43Z"/><path class="cls-2" d="M162.52,26.21a2,2,0,0,1-2,2,2,2,0,0,1-1.43-.57,1.94,1.94,0,0,1-.57-1.43,1.89,1.89,0,0,1,.58-1.42,2.05,2.05,0,0,1,2.84,0A1.93,1.93,0,0,1,162.52,26.21ZM159,23.15V11.45h3.11v11.7Z"/><rect class="cls-1" y="0.16" width="53.73" height="8.18"/><rect class="cls-2" x="101.86" width="60.21" height="8.18"/></g></g></svg>