<svg xmlns="http://www.w3.org/2000/svg" xmlns:xlink="http://www.w3.org/1999/xlink" viewBox="0 0 1233.38 391.14"><defs><style>.cls-1{fill:#9e9e9e;}.cls-2{fill:#a60505;}.cls-3{fill:#d9d9d9;}.cls-4{fill:#232526;}.cls-10,.cls-11,.cls-12,.cls-5{fill:#d7121b;}.cls-5{opacity:0.22;}.cls-13,.cls-14,.cls-16,.cls-18,.cls-20,.cls-6{fill:none;stroke-miterlimit:10;}.cls-13,.cls-6{stroke:#a40a11;opacity:0.5;}.cls-6{stroke-width:4px;}.cls-11,.cls-7{opacity:0.4;}.cls-8{fill:#e8e8e8;}.cls-9{fill:#fff;}.cls-10{opacity:0.1;}.cls-12{opacity:0.6;}.cls-13{stroke-width:2px;}.cls-14,.cls-16,.cls-18,.cls-20{stroke-width:5px;}.cls-14{stroke:url(#무제_그라디언트_4);}.cls-15{fill:url(#무제_그라디언트_4-2);}.cls-16{stroke:url(#linear-gradient);}.cls-17{fill:url(#linear-gradient-2);}.cls-18{stroke:url(#linear-gradient-3);}.cls-19{fill:url(#linear-gradient-4);}.cls-20{stroke:url(#linear-gradient-5);}.cls-21{fill:url(#linear-gradient-6);}.cls-22{fill:url(#linear-gradient-7);}</style><linearGradient id="무제_그라디언트_4" x1="715.57" y1="224.14" x2="1008.61" y2="224.14" gradientUnits="userSpaceOnUse"><stop offset="0" stop-color="#fff"/><stop offset="1" stop-color="#d7121b" stop-opacity="0.6"/></linearGradient><linearGradient id="무제_그라디언트_4-2" x1="715.57" y1="224.14" x2="1008.61" y2="224.14" xlink:href="#무제_그라디언트_4"/><linearGradient id="linear-gradient" x1="825.39" y1="153.08" x2="1008.91" y2="153.08" gradientUnits="userSpaceOnUse"><stop offset="0" stop-color="#ee9b9e"/><stop offset="1" stop-color="#d7121b" stop-opacity="0.6"/></linearGradient><linearGradient id="linear-gradient-2" x1="825.39" y1="153.08" x2="1008.91" y2="153.08" xlink:href="#linear-gradient"/><linearGradient id="linear-gradient-3" x1="825.39" y1="295.19" x2="1008.91" y2="295.19" xlink:href="#linear-gradient"/><linearGradient id="linear-gradient-4" x1="825.39" y1="295.19" x2="1008.91" y2="295.19" xlink:href="#linear-gradient"/><linearGradient id="linear-gradient-5" x1="822.89" y1="223.91" x2="1008.91" y2="223.91" xlink:href="#linear-gradient"/><linearGradient id="linear-gradient-6" x1="822.89" y1="81.58" x2="1008.91" y2="81.58" xlink:href="#linear-gradient"/><linearGradient id="linear-gradient-7" x1="822.89" y1="366.25" x2="1008.91" y2="366.25" xlink:href="#linear-gradient"/></defs><g id="Layer_2" data-name="Layer 2"><g id="레이어_1" data-name="레이어 1"><path class="cls-1" d="M261.59,34.13,255,1l0-.2c0-.29.18-.44.54-.44h6a.56.56,0,0,1,.64.54l2.79,17.63c0,.13.08.19.15.19s.11-.06.14-.19L267.81.93a.55.55,0,0,1,.63-.54h4.95a.56.56,0,0,1,.64.54l2.88,17.63c0,.13.09.19.15.19s.12-.06.15-.19L279.71.93a.55.55,0,0,1,.63-.54h5.78c.42,0,.6.21.54.64l-6.22,33.1c0,.36-.24.54-.64.54h-5.28c-.4,0-.61-.18-.64-.54L271,16c0-.13-.08-.19-.15-.19s-.11.06-.14.19l-2.6,18.12c0,.36-.24.54-.64.54h-5.24A.58.58,0,0,1,261.59,34.13Z"/><path class="cls-1" d="M307.64,6.15a.57.57,0,0,1-.41.17H297a.21.21,0,0,0-.24.24V14.3a.21.21,0,0,0,.24.24h5.88a.58.58,0,0,1,.58.59v4.75a.58.58,0,0,1-.58.59H297a.21.21,0,0,0-.24.24V28.5a.21.21,0,0,0,.24.24h10.24a.54.54,0,0,1,.41.18.53.53,0,0,1,.17.41v4.75a.55.55,0,0,1-.17.42.57.57,0,0,1-.41.17h-16.8a.61.61,0,0,1-.42-.17.59.59,0,0,1-.17-.42V1A.61.61,0,0,1,290,.56a.61.61,0,0,1,.42-.17h16.8a.58.58,0,0,1,.58.59V5.73A.57.57,0,0,1,307.64,6.15Z"/><path class="cls-1" d="M328.23,32.22a10.27,10.27,0,0,1-7.1,2.45h-9.25a.57.57,0,0,1-.42-.17.59.59,0,0,1-.17-.42V1a.61.61,0,0,1,.17-.42.57.57,0,0,1,.42-.17h8.17c3.27,0,5.82.78,7.67,2.35s2.76,3.9,2.76,7-1.11,5.59-3.33,7.06c-.13.09-.14.19,0,.29Q331,19.84,331,25.22A8.89,8.89,0,0,1,328.23,32.22Zm-10-25.66v7.69c0,.16.08.24.25.24h1.76a3.3,3.3,0,0,0,2.6-1.05,4.32,4.32,0,0,0,.93-3,4.71,4.71,0,0,0-.91-3.09,3.25,3.25,0,0,0-2.62-1.07h-1.76C318.27,6.32,318.19,6.4,318.19,6.56Zm4.95,21a5.24,5.24,0,0,0,.93-3.33,5.69,5.69,0,0,0-.93-3.43,2.93,2.93,0,0,0-2.5-1.27h-2.2c-.17,0-.25.08-.25.24v8.72a.22.22,0,0,0,.25.25h2.15A3.09,3.09,0,0,0,323.14,27.52Z"/><path class="cls-1" d="M338.12,33.93a8.16,8.16,0,0,1-3.33-3.15,9.24,9.24,0,0,1-1.17-4.68V24.68a.57.57,0,0,1,.17-.42.57.57,0,0,1,.42-.17h5.63a.58.58,0,0,1,.58.59v1.08a3.71,3.71,0,0,0,.79,2.45,2.45,2.45,0,0,0,2,.93,2.53,2.53,0,0,0,2-.89,3.32,3.32,0,0,0,.78-2.3,3.58,3.58,0,0,0-1-2.52,29.41,29.41,0,0,0-3.82-3.11,47,47,0,0,1-4-3.13,12.53,12.53,0,0,1-2.59-3.38,9.67,9.67,0,0,1-1.08-4.65,8.8,8.8,0,0,1,2.6-6.66,10.6,10.6,0,0,1,13.78.09,9.16,9.16,0,0,1,2.62,6.81v1.18a.57.57,0,0,1-.17.41.55.55,0,0,1-.42.17h-5.63a.53.53,0,0,1-.41-.17.54.54,0,0,1-.18-.41V9.25a3.64,3.64,0,0,0-.76-2.42,2.46,2.46,0,0,0-2-.91,2.41,2.41,0,0,0-1.91.86,3.55,3.55,0,0,0-.73,2.38,3.94,3.94,0,0,0,.93,2.59,22.11,22.11,0,0,0,3.67,3.14q3,2.25,4.58,3.64a10.59,10.59,0,0,1,2.4,3.09,8.86,8.86,0,0,1,.86,4,9.07,9.07,0,0,1-2.65,6.85,9.59,9.59,0,0,1-6.95,2.55A10.65,10.65,0,0,1,338.12,33.93Z"/><path class="cls-1" d="M356.22,34.5a.56.56,0,0,1-.18-.42V1a.58.58,0,0,1,.18-.42.57.57,0,0,1,.41-.17h5.73a.61.61,0,0,1,.42.17A.61.61,0,0,1,363,1v33.1a.59.59,0,0,1-.17.42.61.61,0,0,1-.42.17h-5.73A.57.57,0,0,1,356.22,34.5Z"/><path class="cls-1" d="M386.72.56a.57.57,0,0,1,.17.42V5.73a.58.58,0,0,1-.58.59h-6.12c-.17,0-.25.08-.25.24V34.08a.58.58,0,0,1-.59.59h-5.73a.57.57,0,0,1-.41-.17.55.55,0,0,1-.17-.42V6.56a.22.22,0,0,0-.25-.24h-5.88a.58.58,0,0,1-.58-.59V1a.58.58,0,0,1,.58-.59h19.4A.57.57,0,0,1,386.72.56Z"/><path class="cls-1" d="M408,6.15a.57.57,0,0,1-.41.17H397.37a.21.21,0,0,0-.24.24V14.3a.21.21,0,0,0,.24.24h5.88a.58.58,0,0,1,.59.59v4.75a.58.58,0,0,1-.59.59h-5.88a.21.21,0,0,0-.24.24V28.5a.21.21,0,0,0,.24.24h10.24a.54.54,0,0,1,.41.18.53.53,0,0,1,.17.41v4.75a.55.55,0,0,1-.17.42.57.57,0,0,1-.41.17h-16.8a.57.57,0,0,1-.41-.17.56.56,0,0,1-.18-.42V1a.58.58,0,0,1,.18-.42.57.57,0,0,1,.41-.17h16.8a.58.58,0,0,1,.58.59V5.73A.57.57,0,0,1,408,6.15Z"/><path class="cls-2" d="M567.19,65.58a.57.57,0,0,1-.17-.42V32.06a.58.58,0,0,1,.59-.58h5.73a.58.58,0,0,1,.59.58v33.1a.57.57,0,0,1-.17.42.57.57,0,0,1-.42.17h-5.73A.57.57,0,0,1,567.19,65.58Z"/><path class="cls-2" d="M591.12,65.26l-3.78-13.51c-.06-.13-.14-.2-.24-.2h-1.67c-.16,0-.24.08-.24.25V65.16a.57.57,0,0,1-.17.42.55.55,0,0,1-.42.17h-5.73a.53.53,0,0,1-.41-.17.54.54,0,0,1-.17-.42V32.06a.58.58,0,0,1,.58-.58h9.89a9,9,0,0,1,4.8,1.29,8.64,8.64,0,0,1,3.26,3.65A12.07,12.07,0,0,1,598,41.81a11.31,11.31,0,0,1-1.1,5.09,8.44,8.44,0,0,1-3.06,3.43.31.31,0,0,0-.15.12.17.17,0,0,0,0,.17l4.51,14.45.05.19c0,.33-.18.49-.54.49H591.8A.63.63,0,0,1,591.12,65.26Zm-5.93-27.61V46a.21.21,0,0,0,.24.24h2.21a3,3,0,0,0,2.47-1.2,5,5,0,0,0,1-3.2,5.06,5.06,0,0,0-1-3.26,3,3,0,0,0-2.47-1.2h-2.21C585.27,37.4,585.19,37.48,585.19,37.65Z"/><path class="cls-2" d="M603.53,63.52a9.37,9.37,0,0,1-2.67-7V40.63a9.25,9.25,0,0,1,2.67-7,11,11,0,0,1,14.2,0,9.25,9.25,0,0,1,2.67,7v.54a.58.58,0,0,1-.59.59l-5.73.24c-.39,0-.59-.18-.59-.54V40.19a3.34,3.34,0,0,0-.78-2.3A2.66,2.66,0,0,0,610.6,37a2.59,2.59,0,0,0-2.05.88,3.3,3.3,0,0,0-.79,2.3v16.9a3.2,3.2,0,0,0,.79,2.27,2.64,2.64,0,0,0,2.05.86,2.71,2.71,0,0,0,2.11-.86,3.24,3.24,0,0,0,.78-2.27V55.76a.58.58,0,0,1,.59-.58l5.73.24a.58.58,0,0,1,.59.59v.49a9.31,9.31,0,0,1-2.7,7,10.89,10.89,0,0,1-14.17,0Z"/><path class="cls-2" d="M626.25,63.52a9.37,9.37,0,0,1-2.67-7V40.63a9.25,9.25,0,0,1,2.67-7,11,11,0,0,1,14.2,0,9.25,9.25,0,0,1,2.67,7v.54a.58.58,0,0,1-.59.59L636.8,42c-.39,0-.59-.18-.59-.54V40.19a3.34,3.34,0,0,0-.78-2.3,2.66,2.66,0,0,0-2.11-.88,2.61,2.61,0,0,0-2.05.88,3.34,3.34,0,0,0-.79,2.3v16.9a3.25,3.25,0,0,0,.79,2.27,2.66,2.66,0,0,0,2.05.86,2.71,2.71,0,0,0,2.11-.86,3.24,3.24,0,0,0,.78-2.27V55.76a.58.58,0,0,1,.59-.58l5.73.24a.58.58,0,0,1,.59.59v.49a9.31,9.31,0,0,1-2.7,7,10.89,10.89,0,0,1-14.17,0Z"/><path class="cls-2" d="M529.69,110.29a9.39,9.39,0,0,1-2.67-7V87.4a9.24,9.24,0,0,1,2.67-7,9.69,9.69,0,0,1,7.07-2.6,9.8,9.8,0,0,1,7.13,2.6,9.27,9.27,0,0,1,2.66,7v.54a.53.53,0,0,1-.17.41.54.54,0,0,1-.41.18l-5.73.24c-.39,0-.59-.18-.59-.54V87a3.32,3.32,0,0,0-.78-2.3,2.69,2.69,0,0,0-2.11-.88,2.63,2.63,0,0,0-2.06.88,3.32,3.32,0,0,0-.78,2.3v16.89a3.25,3.25,0,0,0,.78,2.28,2.68,2.68,0,0,0,2.06.86,2.74,2.74,0,0,0,2.11-.86,3.25,3.25,0,0,0,.78-2.28v-1.32a.61.61,0,0,1,.17-.42.59.59,0,0,1,.42-.17l5.73.25a.57.57,0,0,1,.41.17.54.54,0,0,1,.17.42v.48a9.33,9.33,0,0,1-2.69,7,9.72,9.72,0,0,1-7.1,2.62A9.62,9.62,0,0,1,529.69,110.29Z"/><path class="cls-2" d="M562.69,78.41a.57.57,0,0,1,.42-.17h5.72a.57.57,0,0,1,.42.17.57.57,0,0,1,.17.42v33.1a.55.55,0,0,1-.17.42.57.57,0,0,1-.42.17h-5.72a.57.57,0,0,1-.42-.17.55.55,0,0,1-.17-.42V98.56c0-.16-.08-.24-.25-.24h-4.89c-.17,0-.25.08-.25.24v13.37a.58.58,0,0,1-.59.59h-5.73a.57.57,0,0,1-.41-.17.55.55,0,0,1-.17-.42V78.83a.58.58,0,0,1,.58-.59h5.73a.59.59,0,0,1,.42.17.61.61,0,0,1,.17.42V92.15c0,.16.08.24.25.24h4.89c.17,0,.25-.08.25-.24V78.83A.57.57,0,0,1,562.69,78.41Z"/><path class="cls-2" d="M587.49,112l-.78-4.7q0-.24-.3-.24h-6.22c-.19,0-.29.08-.29.24l-.78,4.7a.56.56,0,0,1-.64.54h-5.73c-.42,0-.59-.21-.49-.64l7.2-33.1a.59.59,0,0,1,.64-.54h6.61a.58.58,0,0,1,.63.54l7.15,33.1,0,.2c0,.29-.18.44-.54.44h-5.87A.56.56,0,0,1,587.49,112Zm-6.41-10.28h4.4c.17,0,.23-.08.2-.25l-2.3-13.37c0-.09-.08-.14-.15-.14s-.11,0-.15.14l-2.2,13.37C580.88,101.62,581,101.7,581.08,101.7Z"/><path class="cls-2" d="M613.86,78.41a.61.61,0,0,1,.17.42v4.75a.61.61,0,0,1-.17.42.57.57,0,0,1-.42.17h-6.12a.21.21,0,0,0-.24.24v27.52a.59.59,0,0,1-.17.42.61.61,0,0,1-.42.17h-5.73a.57.57,0,0,1-.41-.17.56.56,0,0,1-.18-.42V84.41a.21.21,0,0,0-.24-.24h-5.88a.57.57,0,0,1-.41-.17.58.58,0,0,1-.18-.42V78.83a.58.58,0,0,1,.18-.42.57.57,0,0,1,.41-.17h19.39A.57.57,0,0,1,613.86,78.41Z"/><path class="cls-2" d="M634.3,110.07a10.27,10.27,0,0,1-7.1,2.45H618a.58.58,0,0,1-.59-.59V78.83a.61.61,0,0,1,.17-.42.59.59,0,0,1,.42-.17h8.18a11.52,11.52,0,0,1,7.66,2.35c1.84,1.57,2.77,3.9,2.77,7s-1.11,5.59-3.33,7.06c-.13.09-.15.19-.05.29q3.87,2.75,3.87,8.13A8.9,8.9,0,0,1,634.3,110.07Zm-10-25.66V92.1a.22.22,0,0,0,.25.24h1.76a3.3,3.3,0,0,0,2.6-1,4.32,4.32,0,0,0,.93-3,4.65,4.65,0,0,0-.91-3.09,3.25,3.25,0,0,0-2.62-1.07h-1.76A.22.22,0,0,0,624.26,84.41Zm5,21a5.24,5.24,0,0,0,.93-3.33,5.69,5.69,0,0,0-.93-3.43,2.93,2.93,0,0,0-2.5-1.27h-2.2a.22.22,0,0,0-.25.24v8.72a.23.23,0,0,0,.25.25h2.15A3.09,3.09,0,0,0,629.21,105.37Z"/><path class="cls-2" d="M642.58,110.27a9.44,9.44,0,0,1-2.69-7V87.55a9.44,9.44,0,0,1,2.69-7.06,11.17,11.17,0,0,1,14.42,0,9.42,9.42,0,0,1,2.72,7.06v15.67a9.42,9.42,0,0,1-2.72,7,11.17,11.17,0,0,1-14.42,0ZM652,106a3.68,3.68,0,0,0,.83-2.52V87.25a3.68,3.68,0,0,0-.83-2.52,2.77,2.77,0,0,0-2.2-1,2.69,2.69,0,0,0-2.18,1,3.78,3.78,0,0,0-.81,2.52v16.26a3.78,3.78,0,0,0,.81,2.52,2.7,2.7,0,0,0,2.18,1A2.78,2.78,0,0,0,652,106Z"/><path class="cls-2" d="M683,78.41a.57.57,0,0,1,.17.42v4.75a.58.58,0,0,1-.58.59h-6.13a.21.21,0,0,0-.24.24v27.52a.58.58,0,0,1-.59.59h-5.73a.57.57,0,0,1-.41-.17.55.55,0,0,1-.17-.42V84.41a.22.22,0,0,0-.25-.24h-5.88a.58.58,0,0,1-.58-.59V78.83a.58.58,0,0,1,.58-.59h19.4A.57.57,0,0,1,683,78.41Z"/><rect class="cls-3" x="215.46" y="57.13" width="232.56" height="334.01"/><rect class="cls-3" x="1008.76" y="57.13" width="224.62" height="49.79"/><rect class="cls-3" x="1008.76" y="128.18" width="224.62" height="49.79"/><rect class="cls-3" x="1008.76" y="199.24" width="224.62" height="49.79"/><rect class="cls-3" x="1008.76" y="270.29" width="224.62" height="49.79"/><rect class="cls-3" x="1008.76" y="341.35" width="224.62" height="49.79"/><path class="cls-1" d="M1031.76,1.67A8.72,8.72,0,0,1,1035,5.36a12.25,12.25,0,0,1,1.15,5.41,10.56,10.56,0,0,1-2.44,7.3,8.2,8.2,0,0,1-6.42,2.74h-3.67a.22.22,0,0,0-.25.25v13a.55.55,0,0,1-.17.42.57.57,0,0,1-.41.17h-5.73a.57.57,0,0,1-.42-.17.59.59,0,0,1-.17-.42V.93a.61.61,0,0,1,.17-.42.57.57,0,0,1,.42-.17H1027A8.8,8.8,0,0,1,1031.76,1.67Zm-3.45,12.55a5.18,5.18,0,0,0,1-3.3,5.41,5.41,0,0,0-1-3.38,3.07,3.07,0,0,0-2.53-1.22h-2.15c-.17,0-.25.08-.25.24v8.62c0,.16.08.24.25.24h2.15A3,3,0,0,0,1028.31,14.22Z"/><path class="cls-1" d="M1051.76.56a.57.57,0,0,1,.42-.17h5.73a.58.58,0,0,1,.58.59v33.1a.55.55,0,0,1-.17.42.57.57,0,0,1-.41.17h-5.73a.57.57,0,0,1-.42-.17.59.59,0,0,1-.17-.42V20.71c0-.16-.08-.24-.25-.24h-4.89c-.17,0-.25.08-.25.24V34.08a.55.55,0,0,1-.17.42.57.57,0,0,1-.42.17h-5.72a.57.57,0,0,1-.42-.17.55.55,0,0,1-.17-.42V1a.57.57,0,0,1,.17-.42.57.57,0,0,1,.42-.17h5.72a.57.57,0,0,1,.42.17.57.57,0,0,1,.17.42V14.3c0,.16.08.24.25.24h4.89c.17,0,.25-.08.25-.24V1A.61.61,0,0,1,1051.76.56Z"/><path class="cls-1" d="M1065,32.42a9.44,9.44,0,0,1-2.7-7V9.7a9.45,9.45,0,0,1,2.7-7.06A9.82,9.82,0,0,1,1072.2,0a9.93,9.93,0,0,1,7.23,2.64,9.42,9.42,0,0,1,2.72,7.06V25.37a9.42,9.42,0,0,1-2.72,7.05,9.93,9.93,0,0,1-7.23,2.64A9.82,9.82,0,0,1,1065,32.42Zm9.4-4.24a3.73,3.73,0,0,0,.83-2.52V9.4a3.73,3.73,0,0,0-.83-2.52,2.79,2.79,0,0,0-2.21-1,2.71,2.71,0,0,0-2.18,1,3.82,3.82,0,0,0-.8,2.52V25.66a3.82,3.82,0,0,0,.8,2.52,2.71,2.71,0,0,0,2.18,1A2.79,2.79,0,0,0,1074.41,28.18Z"/><path class="cls-1" d="M1100.14.56a.57.57,0,0,1,.42-.17h5.68a.58.58,0,0,1,.58.59v33.1a.55.55,0,0,1-.17.42.57.57,0,0,1-.41.17h-6.47a.6.6,0,0,1-.63-.49l-6.08-18.95c0-.1-.09-.14-.17-.12s-.12.07-.12.17l0,18.8a.59.59,0,0,1-.17.42.61.61,0,0,1-.42.17h-5.68a.57.57,0,0,1-.41-.17.56.56,0,0,1-.18-.42V1a.58.58,0,0,1,.18-.42.57.57,0,0,1,.41-.17H1093a.61.61,0,0,1,.63.49l6.12,19c0,.1.09.14.18.12s.12-.07.12-.17L1100,1A.57.57,0,0,1,1100.14.56Z"/><path class="cls-1" d="M1128.93,6.15a.57.57,0,0,1-.41.17h-10.24a.21.21,0,0,0-.24.24V14.3a.21.21,0,0,0,.24.24h5.88a.57.57,0,0,1,.41.17.58.58,0,0,1,.18.42v4.75a.58.58,0,0,1-.18.42.57.57,0,0,1-.41.17h-5.88a.21.21,0,0,0-.24.24V28.5a.21.21,0,0,0,.24.24h10.24a.54.54,0,0,1,.41.18.53.53,0,0,1,.17.41v4.75a.55.55,0,0,1-.17.42.57.57,0,0,1-.41.17h-16.8a.61.61,0,0,1-.42-.17.59.59,0,0,1-.17-.42V1a.61.61,0,0,1,.17-.42.61.61,0,0,1,.42-.17h16.8a.58.58,0,0,1,.58.59V5.73A.57.57,0,0,1,1128.93,6.15Z"/><path class="cls-1" d="M1144.55,32.44a9.39,9.39,0,0,1-2.67-7V9.55a9.27,9.27,0,0,1,2.67-7,11,11,0,0,1,14.2,0,9.27,9.27,0,0,1,2.67,7v.54a.57.57,0,0,1-.17.41.54.54,0,0,1-.42.17l-5.72.25c-.4,0-.59-.18-.59-.54V9.11a3.28,3.28,0,0,0-.79-2.3,2.66,2.66,0,0,0-2.1-.89,2.62,2.62,0,0,0-2.06.89,3.32,3.32,0,0,0-.78,2.3V26a3.25,3.25,0,0,0,.78,2.28,2.66,2.66,0,0,0,2.06.86,2.71,2.71,0,0,0,2.1-.86,3.21,3.21,0,0,0,.79-2.28V24.68a.57.57,0,0,1,.17-.42.57.57,0,0,1,.42-.17l5.72.25a.54.54,0,0,1,.42.17.57.57,0,0,1,.17.41v.49a9.37,9.37,0,0,1-2.69,7,10.9,10.9,0,0,1-14.18,0Z"/><path class="cls-1" d="M1178.37,34.13l-.79-4.7c0-.16-.1-.25-.29-.25h-6.22c-.2,0-.3.09-.3.25l-.78,4.7c0,.36-.24.54-.64.54h-5.72c-.43,0-.59-.21-.49-.64l7.19-33.1a.59.59,0,0,1,.64-.54h6.61a.59.59,0,0,1,.64.54l7.15,33.1.05.2c0,.29-.18.44-.54.44H1179A.55.55,0,0,1,1178.37,34.13ZM1172,23.85h4.41c.16,0,.23-.08.19-.25l-2.3-13.37c0-.09-.08-.14-.15-.14s-.11.05-.14.14l-2.21,13.37C1171.75,23.77,1171.82,23.85,1172,23.85Z"/><path class="cls-1" d="M1188.38,34.5a.55.55,0,0,1-.17-.42V1a.58.58,0,0,1,.58-.59h5.73a.59.59,0,0,1,.42.17.61.61,0,0,1,.17.42V28.5c0,.16.08.24.25.24h10.28a.58.58,0,0,1,.42.18.57.57,0,0,1,.17.41v4.75a.59.59,0,0,1-.17.42.61.61,0,0,1-.42.17h-16.85A.57.57,0,0,1,1188.38,34.5Z"/><path class="cls-1" d="M1209.24,34.5a.55.55,0,0,1-.17-.42V1a.58.58,0,0,1,.58-.59h5.73a.57.57,0,0,1,.42.17A.61.61,0,0,1,1216,1V28.5c0,.16.08.24.25.24h10.28a.58.58,0,0,1,.42.18.57.57,0,0,1,.17.41v4.75a.59.59,0,0,1-.17.42.61.61,0,0,1-.42.17h-16.85A.57.57,0,0,1,1209.24,34.5Z"/><path class="cls-4" d="M1094.64,88.59a1.26,1.26,0,0,1-.42,1,1.35,1.35,0,0,1-.94.4,1.13,1.13,0,0,1-.66-.23,1.33,1.33,0,0,1-.47-.65l-1.79-4.51h-9.9l-1.79,4.51a1.36,1.36,0,0,1-.49.65,1.15,1.15,0,0,1-.67.23,1.38,1.38,0,0,1-1-.4,1.26,1.26,0,0,1-.42-1,1.76,1.76,0,0,1,.13-.6l7.63-18.55a1.56,1.56,0,0,1,.61-.75,1.57,1.57,0,0,1,1.76,0,1.56,1.56,0,0,1,.61.75L1094.5,88A1.81,1.81,0,0,1,1094.64,88.59Zm-13.18-6.49h7.93l-4-9.95Z"/><path class="cls-4" d="M1112.08,78.88a1.29,1.29,0,0,1,.31.9v7a3.13,3.13,0,0,1-.26,1.47,1.8,1.8,0,0,1-1,.72,11.22,11.22,0,0,1-2.57.75,15.56,15.56,0,0,1-2.94.28,9.41,9.41,0,0,1-5-1.3,8.2,8.2,0,0,1-3.22-3.73,15.71,15.71,0,0,1,0-11.6,8.43,8.43,0,0,1,3.18-3.74,8.84,8.84,0,0,1,4.86-1.31,9.71,9.71,0,0,1,3.5.61,7.71,7.71,0,0,1,2.75,1.79,1.54,1.54,0,0,1,.54,1.21,1.51,1.51,0,0,1-.27.91.8.8,0,0,1-.65.38,1,1,0,0,1-.44-.09,4.11,4.11,0,0,1-.48-.3,9.87,9.87,0,0,0-2.41-1.52,6.63,6.63,0,0,0-2.49-.44,5.58,5.58,0,0,0-4.71,2.12,10,10,0,0,0-1.62,6.15q0,4.13,1.66,6.24a5.85,5.85,0,0,0,4.89,2.12,12.17,12.17,0,0,0,4.16-.72V80.9h-3.54a1.13,1.13,0,0,1-.85-.32,1.16,1.16,0,0,1-.31-.86,1.09,1.09,0,0,1,1.16-1.17h5A1.1,1.1,0,0,1,1112.08,78.88Z"/><path class="cls-4" d="M1117,89.39a1.6,1.6,0,0,1-.36-1.1V70.1A1.62,1.62,0,0,1,1117,69a1.32,1.32,0,0,1,1-.4h10a1.33,1.33,0,0,1,1,.33,1.26,1.26,0,0,1,.33.93,1.22,1.22,0,0,1-.33.92,1.37,1.37,0,0,1-1,.31h-8.61v6.68h8.06a1.34,1.34,0,0,1,1,.33,1.48,1.48,0,0,1,0,1.86,1.34,1.34,0,0,1-1,.33h-8.06v7H1128q1.29,0,1.29,1.23a1.26,1.26,0,0,1-.33.93,1.33,1.33,0,0,1-1,.33h-10A1.32,1.32,0,0,1,1117,89.39Z"/><path class="cls-4" d="M1147.74,68.88a1.72,1.72,0,0,1,.36,1.13V88.38a1.67,1.67,0,0,1-.37,1.13,1.26,1.26,0,0,1-1,.44,1.19,1.19,0,0,1-1.08-.61L1135.06,73.8V88.38a1.72,1.72,0,0,1-.36,1.13,1.21,1.21,0,0,1-1,.44,1.17,1.17,0,0,1-1-.43,1.69,1.69,0,0,1-.35-1.14V70a1.63,1.63,0,0,1,.38-1.13,1.21,1.21,0,0,1,1-.43,1.2,1.2,0,0,1,1.08.6l10.61,15.57V70a1.77,1.77,0,0,1,.35-1.13,1.16,1.16,0,0,1,1-.43A1.18,1.18,0,0,1,1147.74,68.88Z"/><path class="cls-4" d="M1157.48,89.51a1.63,1.63,0,0,1-.39-1.13V71.18h-5.41a1.14,1.14,0,0,1-1.3-1.29,1.26,1.26,0,0,1,.34-1,1.3,1.3,0,0,1,1-.33h13.63a1.3,1.3,0,0,1,1,.33,1.26,1.26,0,0,1,.34,1,1.14,1.14,0,0,1-1.3,1.29h-5.41v17.2a1.63,1.63,0,0,1-.38,1.13,1.28,1.28,0,0,1-1,.44A1.31,1.31,0,0,1,1157.48,89.51Z"/><path class="cls-4" d="M1094.64,160.1a1.26,1.26,0,0,1-.42,1,1.35,1.35,0,0,1-.94.4,1.13,1.13,0,0,1-.66-.23,1.33,1.33,0,0,1-.47-.65l-1.79-4.51h-9.9l-1.79,4.51a1.36,1.36,0,0,1-.49.65,1.15,1.15,0,0,1-.67.23,1.38,1.38,0,0,1-1-.4,1.26,1.26,0,0,1-.42-1,1.76,1.76,0,0,1,.13-.6l7.63-18.55a1.56,1.56,0,0,1,.61-.75,1.57,1.57,0,0,1,1.76,0,1.56,1.56,0,0,1,.61.75l7.63,18.55A1.81,1.81,0,0,1,1094.64,160.1Zm-13.18-6.49h7.93l-4-10Z"/><path class="cls-4" d="M1112.08,150.39a1.29,1.29,0,0,1,.31.9v7a3.13,3.13,0,0,1-.26,1.47,1.8,1.8,0,0,1-1,.72,11.22,11.22,0,0,1-2.57.75,15.54,15.54,0,0,1-2.94.27,9.41,9.41,0,0,1-5-1.29,8.2,8.2,0,0,1-3.22-3.73,15.71,15.71,0,0,1,0-11.6,8.38,8.38,0,0,1,3.18-3.74,8.84,8.84,0,0,1,4.86-1.31,9.71,9.71,0,0,1,3.5.61,7.71,7.71,0,0,1,2.75,1.79,1.54,1.54,0,0,1,.54,1.21,1.51,1.51,0,0,1-.27.91.8.8,0,0,1-.65.38,1,1,0,0,1-.44-.09,4.11,4.11,0,0,1-.48-.3,9.87,9.87,0,0,0-2.41-1.52,6.63,6.63,0,0,0-2.49-.44,5.58,5.58,0,0,0-4.71,2.12,10,10,0,0,0-1.62,6.15q0,4.13,1.66,6.24a5.85,5.85,0,0,0,4.89,2.12,12.17,12.17,0,0,0,4.16-.72v-5.92h-3.54a1.13,1.13,0,0,1-.85-.32,1.16,1.16,0,0,1-.31-.86,1.09,1.09,0,0,1,1.16-1.17h5A1.1,1.1,0,0,1,1112.08,150.39Z"/><path class="cls-4" d="M1117,160.9a1.6,1.6,0,0,1-.36-1.1V141.61a1.62,1.62,0,0,1,.36-1.1,1.32,1.32,0,0,1,1-.4h10a1.33,1.33,0,0,1,1,.33,1.26,1.26,0,0,1,.33.93,1.22,1.22,0,0,1-.33.92,1.37,1.37,0,0,1-1,.31h-8.61v6.68h8.06a1.34,1.34,0,0,1,1,.33,1.48,1.48,0,0,1,0,1.86,1.34,1.34,0,0,1-1,.33h-8.06v7H1128q1.29,0,1.29,1.23a1.26,1.26,0,0,1-.33.93,1.33,1.33,0,0,1-1,.33h-10A1.32,1.32,0,0,1,1117,160.9Z"/><path class="cls-4" d="M1147.74,140.39a1.72,1.72,0,0,1,.36,1.13v18.37a1.67,1.67,0,0,1-.37,1.13,1.26,1.26,0,0,1-1,.44,1.21,1.21,0,0,1-1.08-.61l-10.61-15.54v14.58a1.72,1.72,0,0,1-.36,1.13,1.21,1.21,0,0,1-1,.44,1.17,1.17,0,0,1-1-.43,1.69,1.69,0,0,1-.35-1.14V141.52a1.63,1.63,0,0,1,.38-1.13,1.21,1.21,0,0,1,1-.43,1.2,1.2,0,0,1,1.08.6l10.61,15.57V141.52a1.77,1.77,0,0,1,.35-1.13,1.16,1.16,0,0,1,1-.43A1.18,1.18,0,0,1,1147.74,140.39Z"/><path class="cls-4" d="M1157.48,161a1.63,1.63,0,0,1-.39-1.13v-17.2h-5.41a1.14,1.14,0,0,1-1.3-1.29,1.26,1.26,0,0,1,.34-1,1.3,1.3,0,0,1,1-.33h13.63a1.3,1.3,0,0,1,1,.33,1.26,1.26,0,0,1,.34,1,1.14,1.14,0,0,1-1.3,1.29h-5.41v17.2a1.63,1.63,0,0,1-.38,1.13,1.28,1.28,0,0,1-1,.44A1.31,1.31,0,0,1,1157.48,161Z"/><path class="cls-4" d="M1094.64,231.61a1.26,1.26,0,0,1-.42,1,1.34,1.34,0,0,1-.94.39,1.11,1.11,0,0,1-.66-.22,1.33,1.33,0,0,1-.47-.65l-1.79-4.51h-9.9l-1.79,4.51a1.36,1.36,0,0,1-.49.65,1.14,1.14,0,0,1-.67.22,1.37,1.37,0,0,1-1-.39,1.26,1.26,0,0,1-.42-1,1.76,1.76,0,0,1,.13-.6l7.63-18.55a1.56,1.56,0,0,1,.61-.75,1.57,1.57,0,0,1,1.76,0,1.56,1.56,0,0,1,.61.75L1094.5,231A1.81,1.81,0,0,1,1094.64,231.61Zm-13.18-6.49h7.93l-4-10Z"/><path class="cls-4" d="M1112.08,221.9a1.29,1.29,0,0,1,.31.9v7a3.13,3.13,0,0,1-.26,1.47,1.8,1.8,0,0,1-1,.72,11.22,11.22,0,0,1-2.57.75,16.41,16.41,0,0,1-2.94.27,9.41,9.41,0,0,1-5-1.29,8.2,8.2,0,0,1-3.22-3.73,15.71,15.71,0,0,1,0-11.6,8.38,8.38,0,0,1,3.18-3.74,8.84,8.84,0,0,1,4.86-1.31,9.71,9.71,0,0,1,3.5.61,7.71,7.71,0,0,1,2.75,1.79,1.54,1.54,0,0,1,.54,1.21,1.51,1.51,0,0,1-.27.91.8.8,0,0,1-.65.38,1,1,0,0,1-.44-.09,4.11,4.11,0,0,1-.48-.3,9.87,9.87,0,0,0-2.41-1.52,6.63,6.63,0,0,0-2.49-.44,5.58,5.58,0,0,0-4.71,2.12,10,10,0,0,0-1.62,6.15q0,4.13,1.66,6.24a5.85,5.85,0,0,0,4.89,2.12,12.17,12.17,0,0,0,4.16-.72v-5.92h-3.54a1.13,1.13,0,0,1-.85-.32,1.16,1.16,0,0,1-.31-.86,1.14,1.14,0,0,1,.31-.85,1.09,1.09,0,0,1,.85-.32h5A1.1,1.1,0,0,1,1112.08,221.9Z"/><path class="cls-4" d="M1117,232.41a1.6,1.6,0,0,1-.36-1.1V213.12a1.6,1.6,0,0,1,.36-1.1,1.32,1.32,0,0,1,1-.4h10a1.33,1.33,0,0,1,1,.33,1.26,1.26,0,0,1,.33.93,1.22,1.22,0,0,1-.33.92,1.37,1.37,0,0,1-1,.31h-8.61v6.68h8.06a1.34,1.34,0,0,1,1,.33,1.48,1.48,0,0,1,0,1.86,1.34,1.34,0,0,1-1,.33h-8.06v7H1128q1.29,0,1.29,1.23a1.26,1.26,0,0,1-.33.93,1.33,1.33,0,0,1-1,.33h-10A1.32,1.32,0,0,1,1117,232.41Z"/><path class="cls-4" d="M1147.74,211.9a1.72,1.72,0,0,1,.36,1.13V231.4a1.67,1.67,0,0,1-.37,1.13,1.25,1.25,0,0,1-1,.43,1.2,1.2,0,0,1-1.08-.6l-10.61-15.54V231.4a1.72,1.72,0,0,1-.36,1.13,1.21,1.21,0,0,1-1,.43,1.17,1.17,0,0,1-1-.42,1.69,1.69,0,0,1-.35-1.14V213a1.63,1.63,0,0,1,.38-1.13,1.21,1.21,0,0,1,1-.43,1.2,1.2,0,0,1,1.08.6l10.61,15.57V213a1.77,1.77,0,0,1,.35-1.13,1.16,1.16,0,0,1,1-.43A1.18,1.18,0,0,1,1147.74,211.9Z"/><path class="cls-4" d="M1157.48,232.53a1.63,1.63,0,0,1-.39-1.13V214.2h-5.41a1.14,1.14,0,0,1-1.3-1.29,1.26,1.26,0,0,1,.34-1,1.3,1.3,0,0,1,1-.33h13.63a1.3,1.3,0,0,1,1,.33,1.26,1.26,0,0,1,.34,1,1.14,1.14,0,0,1-1.3,1.29h-5.41v17.2a1.63,1.63,0,0,1-.38,1.13,1.27,1.27,0,0,1-1,.43A1.3,1.3,0,0,1,1157.48,232.53Z"/><path class="cls-4" d="M1094.64,303.12a1.26,1.26,0,0,1-.42,1,1.34,1.34,0,0,1-.94.39,1.11,1.11,0,0,1-.66-.22,1.33,1.33,0,0,1-.47-.65l-1.79-4.51h-9.9l-1.79,4.51a1.36,1.36,0,0,1-.49.65,1.14,1.14,0,0,1-.67.22,1.37,1.37,0,0,1-1-.39,1.26,1.26,0,0,1-.42-1,1.76,1.76,0,0,1,.13-.6l7.63-18.55a1.56,1.56,0,0,1,.61-.75,1.57,1.57,0,0,1,1.76,0,1.56,1.56,0,0,1,.61.75l7.63,18.55A1.81,1.81,0,0,1,1094.64,303.12Zm-13.18-6.49h7.93l-4-10Z"/><path class="cls-4" d="M1112.08,293.41a1.29,1.29,0,0,1,.31.9v7a3.13,3.13,0,0,1-.26,1.47,1.8,1.8,0,0,1-1,.72,11.22,11.22,0,0,1-2.57.75,16.41,16.41,0,0,1-2.94.27,9.41,9.41,0,0,1-5-1.29,8.2,8.2,0,0,1-3.22-3.73,15.71,15.71,0,0,1,0-11.6,8.46,8.46,0,0,1,3.18-3.75,8.92,8.92,0,0,1,4.86-1.3,9.71,9.71,0,0,1,3.5.61,7.58,7.58,0,0,1,2.75,1.79,1.64,1.64,0,0,1,.27,2.12.8.8,0,0,1-.65.38,1,1,0,0,1-.44-.09,4.11,4.11,0,0,1-.48-.3,9.57,9.57,0,0,0-2.41-1.52,6.63,6.63,0,0,0-2.49-.44,5.58,5.58,0,0,0-4.71,2.12,10,10,0,0,0-1.62,6.15q0,4.13,1.66,6.24a5.85,5.85,0,0,0,4.89,2.12,12.17,12.17,0,0,0,4.16-.72v-5.93h-3.54a1.13,1.13,0,0,1-.85-.31,1.35,1.35,0,0,1,0-1.72,1.13,1.13,0,0,1,.85-.31h5A1.1,1.1,0,0,1,1112.08,293.41Z"/><path class="cls-4" d="M1117,303.92a1.6,1.6,0,0,1-.36-1.1V284.63a1.6,1.6,0,0,1,.36-1.1,1.32,1.32,0,0,1,1-.4h10a1.33,1.33,0,0,1,1,.33,1.26,1.26,0,0,1,.33.93,1.22,1.22,0,0,1-.33.92,1.37,1.37,0,0,1-1,.31h-8.61v6.68h8.06a1.34,1.34,0,0,1,1,.33,1.48,1.48,0,0,1,0,1.86,1.34,1.34,0,0,1-1,.33h-8.06v7H1128q1.29,0,1.29,1.23a1.26,1.26,0,0,1-.33.93,1.33,1.33,0,0,1-1,.33h-10A1.32,1.32,0,0,1,1117,303.92Z"/><path class="cls-4" d="M1147.74,283.41a1.72,1.72,0,0,1,.36,1.13v18.37a1.67,1.67,0,0,1-.37,1.13,1.25,1.25,0,0,1-1,.43,1.2,1.2,0,0,1-1.08-.6l-10.61-15.54v14.58a1.72,1.72,0,0,1-.36,1.13,1.21,1.21,0,0,1-1,.43,1.17,1.17,0,0,1-1-.42,1.69,1.69,0,0,1-.35-1.14V284.54a1.63,1.63,0,0,1,.38-1.13,1.21,1.21,0,0,1,1-.43,1.2,1.2,0,0,1,1.08.6l10.61,15.57V284.54a1.77,1.77,0,0,1,.35-1.13,1.16,1.16,0,0,1,1-.43A1.18,1.18,0,0,1,1147.74,283.41Z"/><path class="cls-4" d="M1157.48,304a1.63,1.63,0,0,1-.39-1.13v-17.2h-5.41a1.14,1.14,0,0,1-1.3-1.29,1.26,1.26,0,0,1,.34-1,1.3,1.3,0,0,1,1-.33h13.63a1.3,1.3,0,0,1,1,.33,1.26,1.26,0,0,1,.34,1,1.14,1.14,0,0,1-1.3,1.29h-5.41v17.2a1.63,1.63,0,0,1-.38,1.13,1.27,1.27,0,0,1-1,.43A1.3,1.3,0,0,1,1157.48,304Z"/><path class="cls-4" d="M1094.64,374.63a1.26,1.26,0,0,1-.42,1,1.34,1.34,0,0,1-.94.39,1.11,1.11,0,0,1-.66-.22,1.33,1.33,0,0,1-.47-.65l-1.79-4.51h-9.9l-1.79,4.51a1.36,1.36,0,0,1-.49.65,1.14,1.14,0,0,1-.67.22,1.37,1.37,0,0,1-1-.39,1.26,1.26,0,0,1-.42-1,1.76,1.76,0,0,1,.13-.6l7.63-18.55a1.56,1.56,0,0,1,.61-.75,1.57,1.57,0,0,1,1.76,0,1.56,1.56,0,0,1,.61.75L1094.5,374A1.81,1.81,0,0,1,1094.64,374.63Zm-13.18-6.49h7.93l-4-10Z"/><path class="cls-4" d="M1112.08,364.92a1.29,1.29,0,0,1,.31.9v7a3.13,3.13,0,0,1-.26,1.47,1.8,1.8,0,0,1-1,.72,11.22,11.22,0,0,1-2.57.75,16.41,16.41,0,0,1-2.94.27,9.41,9.41,0,0,1-5-1.29,8.2,8.2,0,0,1-3.22-3.73,15.71,15.71,0,0,1,0-11.6,8.46,8.46,0,0,1,3.18-3.75,8.92,8.92,0,0,1,4.86-1.3,9.71,9.71,0,0,1,3.5.61,7.58,7.58,0,0,1,2.75,1.79,1.64,1.64,0,0,1,.27,2.12.8.8,0,0,1-.65.38,1,1,0,0,1-.44-.09,4.11,4.11,0,0,1-.48-.3,9.57,9.57,0,0,0-2.41-1.52,6.63,6.63,0,0,0-2.49-.44,5.58,5.58,0,0,0-4.71,2.12,10,10,0,0,0-1.62,6.15c0,2.75.55,4.82,1.66,6.24a5.85,5.85,0,0,0,4.89,2.12,12.17,12.17,0,0,0,4.16-.72v-5.93h-3.54a1.13,1.13,0,0,1-.85-.31,1.35,1.35,0,0,1,0-1.72,1.13,1.13,0,0,1,.85-.31h5A1.1,1.1,0,0,1,1112.08,364.92Z"/><path class="cls-4" d="M1117,375.43a1.6,1.6,0,0,1-.36-1.1V356.14a1.6,1.6,0,0,1,.36-1.1,1.32,1.32,0,0,1,1-.4h10a1.33,1.33,0,0,1,1,.33,1.26,1.26,0,0,1,.33.93,1.22,1.22,0,0,1-.33.92,1.37,1.37,0,0,1-1,.31h-8.61v6.68h8.06a1.34,1.34,0,0,1,1,.33,1.48,1.48,0,0,1,0,1.86,1.34,1.34,0,0,1-1,.33h-8.06v7H1128q1.29,0,1.29,1.23a1.26,1.26,0,0,1-.33.93,1.33,1.33,0,0,1-1,.33h-10A1.32,1.32,0,0,1,1117,375.43Z"/><path class="cls-4" d="M1147.74,354.92a1.72,1.72,0,0,1,.36,1.13v18.37a1.67,1.67,0,0,1-.37,1.13,1.25,1.25,0,0,1-1,.43,1.2,1.2,0,0,1-1.08-.6l-10.61-15.54v14.58a1.72,1.72,0,0,1-.36,1.13,1.21,1.21,0,0,1-1,.43,1.17,1.17,0,0,1-1-.42,1.69,1.69,0,0,1-.35-1.14V356.05a1.63,1.63,0,0,1,.38-1.13,1.21,1.21,0,0,1,1-.43,1.2,1.2,0,0,1,1.08.6l10.61,15.57V356.05a1.77,1.77,0,0,1,.35-1.13,1.16,1.16,0,0,1,1-.43A1.18,1.18,0,0,1,1147.74,354.92Z"/><path class="cls-4" d="M1157.48,375.55a1.63,1.63,0,0,1-.39-1.13v-17.2h-5.41a1.14,1.14,0,0,1-1.3-1.29,1.26,1.26,0,0,1,.34-1,1.3,1.3,0,0,1,1-.33h13.63a1.3,1.3,0,0,1,1,.33,1.26,1.26,0,0,1,.34,1,1.14,1.14,0,0,1-1.3,1.29h-5.41v17.2a1.63,1.63,0,0,1-.38,1.13,1.27,1.27,0,0,1-1,.43A1.3,1.3,0,0,1,1157.48,375.55Z"/><circle class="cls-5" cx="607.92" cy="224.14" r="89.9"/><circle class="cls-6" cx="607.92" cy="224.14" r="63.82"/><circle class="cls-2" cx="607.92" cy="224.14" r="50.72"/><path class="cls-7" d="M618.47,220h15.6a13.17,13.17,0,0,1,13.13,13.13h0a13.08,13.08,0,0,1-3.6,9h0c-.33.35-.68.68-1,1l-7.72,7.31v-4.21l-.76,0h-15.6a13.17,13.17,0,0,1-13.13-13.13h0A13.17,13.17,0,0,1,618.47,220Z"/><path class="cls-8" d="M618.43,218.28H634a13.17,13.17,0,0,1,13.13,13.13h0a13.08,13.08,0,0,1-3.6,9h0a13.85,13.85,0,0,1-1,1l-7.72,7.31v-4.21c-.25,0-.51,0-.76,0h-15.6a13.17,13.17,0,0,1-13.13-13.13h0A13.17,13.17,0,0,1,618.43,218.28Z"/><circle class="cls-2" cx="634.03" cy="231.41" r="2.49"/><circle class="cls-2" cx="626.23" cy="231.41" r="2.49"/><circle class="cls-2" cx="618.43" cy="231.41" r="2.49"/><path class="cls-7" d="M615.21,199.89H590.6a20.78,20.78,0,0,0-20.73,20.72h0a20.64,20.64,0,0,0,5.68,14.21h0a18.8,18.8,0,0,0,1.65,1.57l12.19,11.54V241.3q.58,0,1.2,0h24.61a20.78,20.78,0,0,0,20.72-20.72h0A20.78,20.78,0,0,0,615.21,199.89Z"/><path class="cls-9" d="M614,197.83H589.36a20.78,20.78,0,0,0-20.72,20.72h0a20.6,20.6,0,0,0,5.68,14.21h0a20.4,20.4,0,0,0,1.65,1.57l12.18,11.53v-6.63l1.2,0H614a20.78,20.78,0,0,0,20.72-20.72h0A20.78,20.78,0,0,0,614,197.83Z"/><circle class="cls-2" cx="589.36" cy="218.55" r="3.93"/><circle class="cls-2" cx="601.67" cy="218.55" r="3.93"/><circle class="cls-2" cx="613.97" cy="218.55" r="3.93"/><polygon class="cls-10" points="16.05 150.6 0 150.6 25.48 105.28 0 59.97 16.05 59.97 41.52 105.28 16.05 150.6"/><polygon class="cls-11" points="42.09 150.6 26.04 150.6 51.52 105.28 26.04 59.97 42.09 59.97 67.56 105.28 42.09 150.6"/><polygon class="cls-12" points="165.53 150.6 52.08 150.6 77.55 105.28 52.08 59.97 165.53 59.97 191.01 105.28 165.53 150.6"/><path class="cls-9" d="M89.36,113.05c-1.29-1.3-1.94-3.24-1.94-5.8,0-.25,0-.65,0-1.19l.68-9.66a2.47,2.47,0,0,1,.66-1.61,2,2,0,0,1,1.5-.59,1.7,1.7,0,0,1,1.41.61,2.24,2.24,0,0,1,.41,1.62l-.68,9.75c0,.21,0,.51,0,.89a4.94,4.94,0,0,0,1,3.33,3.71,3.71,0,0,0,2.94,1.1,3.51,3.51,0,0,0,2.75-1.11,6,6,0,0,0,1.16-3.64L100,96.4a2.47,2.47,0,0,1,.66-1.61,2,2,0,0,1,1.47-.59,1.74,1.74,0,0,1,1.42.61,2.16,2.16,0,0,1,.43,1.62l-.7,10a10.12,10.12,0,0,1-2.36,6.4A7.54,7.54,0,0,1,95.13,115Q91.29,115,89.36,113.05Z"/><path class="cls-9" d="M109.24,114.52a9,9,0,0,1-2.79-1.26,2.32,2.32,0,0,1-.68-.82,2.26,2.26,0,0,1-.23-1,2,2,0,0,1,.39-1.24,1.2,1.2,0,0,1,1-.52,1.89,1.89,0,0,1,1,.34,7.58,7.58,0,0,0,2.25,1,10,10,0,0,0,2.9.41,4.76,4.76,0,0,0,2.59-.58,1.84,1.84,0,0,0,.9-1.65,1.73,1.73,0,0,0-.48-1.23,3.73,3.73,0,0,0-1.24-.82c-.5-.21-1.19-.47-2.06-.75a27,27,0,0,1-3.13-1.23,5.68,5.68,0,0,1-2.08-1.78,5,5,0,0,1-.88-3.07,5.86,5.86,0,0,1,.94-3.31,6,6,0,0,1,2.65-2.21,9.66,9.66,0,0,1,4-.79,11.91,11.91,0,0,1,3.6.53A7,7,0,0,1,120.61,96a1.86,1.86,0,0,1,.65,1.51,2.1,2.1,0,0,1-.41,1.27,1.29,1.29,0,0,1-1.07.55,1.81,1.81,0,0,1-1.09-.4,7.31,7.31,0,0,0-2-1,7.62,7.62,0,0,0-2.42-.39,4.52,4.52,0,0,0-2.57.63,2,2,0,0,0-.92,1.77,1.79,1.79,0,0,0,.51,1.3,3.77,3.77,0,0,0,1.27.85c.51.22,1.22.48,2.12.77a21.45,21.45,0,0,1,3.07,1.2,5.71,5.71,0,0,1,2,1.72,4.82,4.82,0,0,1,.85,3,5.59,5.59,0,0,1-2,4.59A8.8,8.8,0,0,1,113,115,13.61,13.61,0,0,1,109.24,114.52Z"/><path class="cls-9" d="M128.32,97.85l-.34,4.77h6.64A1.91,1.91,0,0,1,136,103a1.57,1.57,0,0,1,.46,1.2c0,1.25-.67,1.88-2,1.88h-6.66l-.37,5.12h7.16a1.88,1.88,0,0,1,1.33.43,1.6,1.6,0,0,1,.47,1.22c0,1.23-.69,1.85-2.06,1.85h-9.22a1.65,1.65,0,0,1-1.36-.55,2.1,2.1,0,0,1-.38-1.56l1.15-16.17a2.37,2.37,0,0,1,.61-1.56,1.88,1.88,0,0,1,1.44-.55h9.22a1.86,1.86,0,0,1,1.34.43,1.57,1.57,0,0,1,.46,1.19c0,1.25-.68,1.88-2,1.88Z"/><path class="cls-9" d="M153.39,112.05a2.55,2.55,0,0,1,.21.92,1.89,1.89,0,0,1-.64,1.44,2.1,2.1,0,0,1-1.44.59,1.75,1.75,0,0,1-1-.32,2.27,2.27,0,0,1-.74-1l-2.42-5.5a2.5,2.5,0,0,0-.83-1.08,2.2,2.2,0,0,0-1.28-.34h-2.08l-.39,5.88a2.59,2.59,0,0,1-.65,1.62,2,2,0,0,1-1.49.6,1.79,1.79,0,0,1-1.44-.6,2.24,2.24,0,0,1-.43-1.65l1.14-16.2a2.43,2.43,0,0,1,.62-1.56,1.88,1.88,0,0,1,1.44-.55h6.61A6.1,6.1,0,0,1,153,95.91a5.76,5.76,0,0,1,1.58,4.28,6.87,6.87,0,0,1-1.18,4.25,5.68,5.68,0,0,1-3.63,2,2.49,2.49,0,0,1,1.14.7,5.26,5.26,0,0,1,.89,1.44Zm-5.7-8.65a3.28,3.28,0,0,0,2.33-.75,2.89,2.89,0,0,0,.79-2.2,2.67,2.67,0,0,0-.67-2,2.91,2.91,0,0,0-2.09-.65h-4.29l-.37,5.61Z"/><path class="cls-9" d="M159.74,114.52a9,9,0,0,1-2.78-1.26,2.32,2.32,0,0,1-.68-.82,2.13,2.13,0,0,1-.23-1,2,2,0,0,1,.39-1.24,1.2,1.2,0,0,1,1-.52,1.84,1.84,0,0,1,1,.34,7.82,7.82,0,0,0,2.25,1,10.08,10.08,0,0,0,2.91.41,4.76,4.76,0,0,0,2.59-.58,1.84,1.84,0,0,0,.9-1.65,1.7,1.7,0,0,0-.49-1.23,3.68,3.68,0,0,0-1.23-.82c-.51-.21-1.19-.47-2.06-.75a28,28,0,0,1-3.14-1.23,5.77,5.77,0,0,1-2.08-1.78,5.05,5.05,0,0,1-.87-3.07,5.86,5.86,0,0,1,.94-3.31,6,6,0,0,1,2.65-2.21,9.63,9.63,0,0,1,4-.79,11.85,11.85,0,0,1,3.59.53A7,7,0,0,1,171.12,96a1.89,1.89,0,0,1,.65,1.51,2,2,0,0,1-.42,1.27,1.26,1.26,0,0,1-1.06.55,1.84,1.84,0,0,1-1.1-.4,7.17,7.17,0,0,0-2-1,7.57,7.57,0,0,0-2.42-.39,4.51,4.51,0,0,0-2.56.63,2,2,0,0,0-.92,1.77,1.78,1.78,0,0,0,.5,1.3,3.92,3.92,0,0,0,1.28.85c.51.22,1.22.48,2.12.77a21.94,21.94,0,0,1,3.07,1.2,5.71,5.71,0,0,1,2.05,1.72,4.82,4.82,0,0,1,.84,3,5.56,5.56,0,0,1-2,4.59,8.75,8.75,0,0,1-5.66,1.63A13.74,13.74,0,0,1,159.74,114.52Z"/><polygon class="cls-10" points="16.05 267.82 0 267.82 25.48 222.5 0 177.18 16.05 177.18 41.52 222.5 16.05 267.82"/><polygon class="cls-11" points="42.09 267.82 26.04 267.82 51.52 222.5 26.04 177.18 42.09 177.18 67.56 222.5 42.09 267.82"/><polygon class="cls-12" points="165.53 267.82 52.08 267.82 77.55 222.5 52.08 177.18 165.53 177.18 191.01 222.5 165.53 267.82"/><path class="cls-9" d="M89.36,230.26q-1.94-1.95-1.94-5.8c0-.25,0-.64,0-1.18l.68-9.67a2.44,2.44,0,0,1,.66-1.6,2,2,0,0,1,1.5-.59,1.72,1.72,0,0,1,1.41.6,2.27,2.27,0,0,1,.41,1.62l-.68,9.75c0,.21,0,.51,0,.9a4.93,4.93,0,0,0,1,3.32,3.68,3.68,0,0,0,2.94,1.1,3.51,3.51,0,0,0,2.75-1.11A6,6,0,0,0,99.24,224l.73-10.36a2.44,2.44,0,0,1,.66-1.6,2,2,0,0,1,1.47-.59,1.76,1.76,0,0,1,1.42.6,2.19,2.19,0,0,1,.43,1.62l-.7,10a10.15,10.15,0,0,1-2.36,6.41,7.54,7.54,0,0,1-5.76,2.15Q91.29,232.21,89.36,230.26Z"/><path class="cls-9" d="M109.24,231.74a9,9,0,0,1-2.79-1.26,2.35,2.35,0,0,1-.68-.83,2.26,2.26,0,0,1-.23-1,2,2,0,0,1,.39-1.24,1.2,1.2,0,0,1,1-.52,1.91,1.91,0,0,1,1,.35,7.83,7.83,0,0,0,2.25,1,10,10,0,0,0,2.9.4,4.76,4.76,0,0,0,2.59-.58,1.83,1.83,0,0,0,.9-1.64,1.7,1.7,0,0,0-.48-1.23,3.6,3.6,0,0,0-1.24-.83c-.5-.21-1.19-.46-2.06-.75a23.8,23.8,0,0,1-3.13-1.23,5.59,5.59,0,0,1-2.08-1.78,5,5,0,0,1-.88-3.06,5.89,5.89,0,0,1,.94-3.32,6.1,6.1,0,0,1,2.65-2.21,9.66,9.66,0,0,1,4-.78,11.91,11.91,0,0,1,3.6.52,7,7,0,0,1,2.65,1.42,1.84,1.84,0,0,1,.65,1.5,2.08,2.08,0,0,1-.41,1.27,1.29,1.29,0,0,1-1.07.55,1.81,1.81,0,0,1-1.09-.4,7.31,7.31,0,0,0-2-1,7.62,7.62,0,0,0-2.42-.39,4.44,4.44,0,0,0-2.57.64,2,2,0,0,0-.92,1.76,1.77,1.77,0,0,0,.51,1.3,4,4,0,0,0,1.27.86c.51.22,1.22.47,2.12.76a24.12,24.12,0,0,1,3.07,1.2,5.82,5.82,0,0,1,2,1.72,4.84,4.84,0,0,1,.85,3,5.59,5.59,0,0,1-2,4.59,8.8,8.8,0,0,1-5.67,1.63A14,14,0,0,1,109.24,231.74Z"/><path class="cls-9" d="M128.32,215.06l-.34,4.77h6.64a1.91,1.91,0,0,1,1.34.42,1.57,1.57,0,0,1,.46,1.2c0,1.26-.67,1.88-2,1.88h-6.66l-.37,5.12h7.16a1.89,1.89,0,0,1,1.33.44,1.57,1.57,0,0,1,.47,1.21c0,1.24-.69,1.85-2.06,1.85h-9.22a1.65,1.65,0,0,1-1.36-.55,2.08,2.08,0,0,1-.38-1.56l1.15-16.17a2.41,2.41,0,0,1,.61-1.56,1.88,1.88,0,0,1,1.44-.55h9.22a1.86,1.86,0,0,1,1.34.43,1.59,1.59,0,0,1,.46,1.19c0,1.25-.68,1.88-2,1.88Z"/><path class="cls-9" d="M153.39,229.26a2.55,2.55,0,0,1,.21.93,1.86,1.86,0,0,1-.64,1.43,2.05,2.05,0,0,1-1.44.59,1.74,1.74,0,0,1-1-.31,2.31,2.31,0,0,1-.74-1l-2.42-5.5a2.5,2.5,0,0,0-.83-1.08,2.27,2.27,0,0,0-1.28-.33h-2.08l-.39,5.87a2.59,2.59,0,0,1-.65,1.62,2,2,0,0,1-1.49.61,1.79,1.79,0,0,1-1.44-.61,2.24,2.24,0,0,1-.43-1.65l1.14-16.2a2.47,2.47,0,0,1,.62-1.56,1.88,1.88,0,0,1,1.44-.55h6.61a6.1,6.1,0,0,1,4.46,1.56,5.76,5.76,0,0,1,1.58,4.28,6.91,6.91,0,0,1-1.18,4.26,5.67,5.67,0,0,1-3.63,2,2.51,2.51,0,0,1,1.14.71,5.18,5.18,0,0,1,.89,1.43Zm-5.7-8.65a3.28,3.28,0,0,0,2.33-.75,2.87,2.87,0,0,0,.79-2.2,2.7,2.7,0,0,0-.67-2,3,3,0,0,0-2.09-.65h-4.29l-.37,5.61Z"/><path class="cls-9" d="M159.74,231.74a9,9,0,0,1-2.78-1.26,2.35,2.35,0,0,1-.68-.83,2.13,2.13,0,0,1-.23-1,2,2,0,0,1,.39-1.24,1.2,1.2,0,0,1,1-.52,1.85,1.85,0,0,1,1,.35,8.1,8.1,0,0,0,2.25,1,10.08,10.08,0,0,0,2.91.4,4.76,4.76,0,0,0,2.59-.58,1.83,1.83,0,0,0,.9-1.64,1.67,1.67,0,0,0-.49-1.23,3.55,3.55,0,0,0-1.23-.83c-.51-.21-1.19-.46-2.06-.75a24.59,24.59,0,0,1-3.14-1.23,5.67,5.67,0,0,1-2.08-1.78,5,5,0,0,1-.87-3.06,5.89,5.89,0,0,1,.94-3.32,6.1,6.1,0,0,1,2.65-2.21,9.63,9.63,0,0,1,4-.78,11.85,11.85,0,0,1,3.59.52,7.06,7.06,0,0,1,2.66,1.42,1.87,1.87,0,0,1,.65,1.5,2,2,0,0,1-.42,1.27,1.26,1.26,0,0,1-1.06.55,1.84,1.84,0,0,1-1.1-.4,7.17,7.17,0,0,0-2-1,7.57,7.57,0,0,0-2.42-.39,4.43,4.43,0,0,0-2.56.64,2,2,0,0,0-.92,1.76,1.76,1.76,0,0,0,.5,1.3,4.11,4.11,0,0,0,1.28.86c.51.22,1.22.47,2.12.76a24.74,24.74,0,0,1,3.07,1.2,5.82,5.82,0,0,1,2.05,1.72,4.84,4.84,0,0,1,.84,3,5.56,5.56,0,0,1-2,4.59,8.75,8.75,0,0,1-5.66,1.63A14.15,14.15,0,0,1,159.74,231.74Z"/><polygon class="cls-10" points="333.69 258.25 321.03 258.25 341.12 222.5 321.03 186.75 333.69 186.75 353.78 222.5 333.69 258.25"/><polygon class="cls-11" points="354.23 258.25 341.57 258.25 361.66 222.5 341.57 186.75 354.23 186.75 374.32 222.5 354.23 258.25"/><polygon class="cls-12" points="481.6 258.25 362.11 258.25 382.2 222.5 362.11 186.75 481.6 186.75 501.69 222.5 481.6 258.25"/><path class="cls-9" d="M396.76,230.26c-1.3-1.3-1.94-3.23-1.94-5.8,0-.25,0-.64.05-1.18l.68-9.67a2.44,2.44,0,0,1,.66-1.6,2,2,0,0,1,1.5-.59,1.7,1.7,0,0,1,1.4.6,2.23,2.23,0,0,1,.42,1.62l-.68,9.75c0,.21,0,.51,0,.9a4.93,4.93,0,0,0,1,3.32,3.68,3.68,0,0,0,2.94,1.1,3.51,3.51,0,0,0,2.75-1.11,6,6,0,0,0,1.16-3.63l.73-10.36A2.44,2.44,0,0,1,408,212a2,2,0,0,1,1.47-.59,1.76,1.76,0,0,1,1.42.6,2.19,2.19,0,0,1,.43,1.62l-.7,10a10.15,10.15,0,0,1-2.36,6.41,7.54,7.54,0,0,1-5.77,2.15Q398.7,232.21,396.76,230.26Z"/><path class="cls-9" d="M416.63,231.74a9.07,9.07,0,0,1-2.78-1.26,2.35,2.35,0,0,1-.68-.83,2.26,2.26,0,0,1-.23-1,2,2,0,0,1,.39-1.24,1.2,1.2,0,0,1,1-.52,1.85,1.85,0,0,1,1,.35,8,8,0,0,0,2.26,1,10,10,0,0,0,2.9.4,4.76,4.76,0,0,0,2.59-.58,1.83,1.83,0,0,0,.9-1.64,1.7,1.7,0,0,0-.48-1.23,3.6,3.6,0,0,0-1.24-.83c-.5-.21-1.19-.46-2.06-.75a23.8,23.8,0,0,1-3.13-1.23,5.62,5.62,0,0,1-2.09-1.78,5,5,0,0,1-.87-3.06,5.89,5.89,0,0,1,.94-3.32,6.1,6.1,0,0,1,2.65-2.21,9.66,9.66,0,0,1,4-.78,12,12,0,0,1,3.6.52,7,7,0,0,1,2.65,1.42,1.87,1.87,0,0,1,.65,1.5,2.08,2.08,0,0,1-.41,1.27,1.29,1.29,0,0,1-1.07.55,1.84,1.84,0,0,1-1.1-.4,7.1,7.1,0,0,0-2-1,7.62,7.62,0,0,0-2.42-.39,4.44,4.44,0,0,0-2.57.64,2,2,0,0,0-.92,1.76,1.8,1.8,0,0,0,.5,1.3,4.11,4.11,0,0,0,1.28.86c.51.22,1.22.47,2.12.76a24.12,24.12,0,0,1,3.07,1.2,5.82,5.82,0,0,1,2.05,1.72,4.84,4.84,0,0,1,.84,3,5.58,5.58,0,0,1-2,4.59,8.8,8.8,0,0,1-5.67,1.63A14.15,14.15,0,0,1,416.63,231.74Z"/><path class="cls-9" d="M435.72,215.06l-.34,4.77H442a1.92,1.92,0,0,1,1.34.42,1.56,1.56,0,0,1,.45,1.2c0,1.26-.66,1.88-2,1.88h-6.66l-.37,5.12h7.16a1.9,1.9,0,0,1,1.33.44,1.57,1.57,0,0,1,.47,1.21c0,1.24-.69,1.85-2.06,1.85h-9.22a1.65,1.65,0,0,1-1.36-.55,2.08,2.08,0,0,1-.38-1.56l1.14-16.17a2.47,2.47,0,0,1,.62-1.56,1.88,1.88,0,0,1,1.44-.55h9.22a1.88,1.88,0,0,1,1.34.43,1.58,1.58,0,0,1,.45,1.19c0,1.25-.67,1.88-2,1.88Z"/><path class="cls-9" d="M460.79,229.26a2.55,2.55,0,0,1,.21.93,1.89,1.89,0,0,1-.64,1.43,2.06,2.06,0,0,1-1.45.59,1.74,1.74,0,0,1-1-.31,2.31,2.31,0,0,1-.74-1l-2.42-5.5a2.58,2.58,0,0,0-.83-1.08,2.27,2.27,0,0,0-1.28-.33h-2.08l-.39,5.87a2.65,2.65,0,0,1-.65,1.62,2,2,0,0,1-1.49.61,1.79,1.79,0,0,1-1.44-.61,2.24,2.24,0,0,1-.43-1.65l1.14-16.2a2.52,2.52,0,0,1,.61-1.56,1.92,1.92,0,0,1,1.45-.55H456a6.06,6.06,0,0,1,4.45,1.56A5.73,5.73,0,0,1,462,217.4a6.91,6.91,0,0,1-1.18,4.26,5.67,5.67,0,0,1-3.63,2,2.51,2.51,0,0,1,1.14.71,5.43,5.43,0,0,1,.89,1.43Zm-5.7-8.65a3.28,3.28,0,0,0,2.33-.75,2.87,2.87,0,0,0,.79-2.2,2.66,2.66,0,0,0-.68-2,2.91,2.91,0,0,0-2.08-.65h-4.29l-.37,5.61Z"/><path class="cls-9" d="M467.14,231.74a8.86,8.86,0,0,1-2.78-1.26,2.25,2.25,0,0,1-.68-.83,2.14,2.14,0,0,1-.24-1,2,2,0,0,1,.39-1.24,1.21,1.21,0,0,1,1-.52,1.88,1.88,0,0,1,1,.35,8.1,8.1,0,0,0,2.25,1,10,10,0,0,0,2.91.4,4.78,4.78,0,0,0,2.59-.58,1.84,1.84,0,0,0,.89-1.64,1.7,1.7,0,0,0-.48-1.23,3.55,3.55,0,0,0-1.23-.83c-.51-.21-1.19-.46-2.06-.75a24,24,0,0,1-3.14-1.23,5.67,5.67,0,0,1-2.08-1.78,5,5,0,0,1-.87-3.06,6,6,0,0,1,.93-3.32,6.13,6.13,0,0,1,2.66-2.21,9.6,9.6,0,0,1,4-.78,11.89,11.89,0,0,1,3.59.52,7.06,7.06,0,0,1,2.66,1.42,1.87,1.87,0,0,1,.65,1.5,2,2,0,0,1-.42,1.27,1.27,1.27,0,0,1-1.07.55,1.84,1.84,0,0,1-1.09-.4,7.31,7.31,0,0,0-2-1,7.62,7.62,0,0,0-2.42-.39,4.41,4.41,0,0,0-2.56.64,2,2,0,0,0-.93,1.76,1.77,1.77,0,0,0,.51,1.3,4,4,0,0,0,1.28.86c.51.22,1.21.47,2.12.76a24.74,24.74,0,0,1,3.07,1.2,5.7,5.7,0,0,1,2,1.72,4.78,4.78,0,0,1,.85,3,5.56,5.56,0,0,1-2,4.59,8.75,8.75,0,0,1-5.66,1.63A14.15,14.15,0,0,1,467.14,231.74Z"/><polygon class="cls-10" points="16.05 385.03 0 385.03 25.48 339.71 0 294.39 16.05 294.39 41.52 339.71 16.05 385.03"/><polygon class="cls-11" points="42.09 385.03 26.04 385.03 51.52 339.71 26.04 294.39 42.09 294.39 67.56 339.71 42.09 385.03"/><polygon class="cls-12" points="165.53 385.03 52.08 385.03 77.55 339.71 52.08 294.39 165.53 294.39 191.01 339.71 165.53 385.03"/><path class="cls-9" d="M89.36,347.48a7.94,7.94,0,0,1-1.94-5.8c0-.25,0-.65,0-1.19l.68-9.66a2.47,2.47,0,0,1,.66-1.61,2,2,0,0,1,1.5-.59,1.7,1.7,0,0,1,1.41.61,2.24,2.24,0,0,1,.41,1.62l-.68,9.75c0,.21,0,.51,0,.89a4.94,4.94,0,0,0,1,3.33,3.71,3.71,0,0,0,2.94,1.1,3.49,3.49,0,0,0,2.75-1.12,6,6,0,0,0,1.16-3.63l.73-10.35a2.47,2.47,0,0,1,.66-1.61,2,2,0,0,1,1.47-.59,1.74,1.74,0,0,1,1.42.61,2.16,2.16,0,0,1,.43,1.62l-.7,10a10.12,10.12,0,0,1-2.36,6.4,7.54,7.54,0,0,1-5.76,2.16Q91.29,349.43,89.36,347.48Z"/><path class="cls-9" d="M109.24,349a9,9,0,0,1-2.79-1.26,2.32,2.32,0,0,1-.68-.82,2.26,2.26,0,0,1-.23-1,2,2,0,0,1,.39-1.24,1.21,1.21,0,0,1,1-.53,1.91,1.91,0,0,1,1,.35,7.58,7.58,0,0,0,2.25,1,10,10,0,0,0,2.9.41,4.76,4.76,0,0,0,2.59-.58,1.86,1.86,0,0,0,.9-1.65,1.73,1.73,0,0,0-.48-1.23,3.58,3.58,0,0,0-1.24-.82c-.5-.22-1.19-.47-2.06-.76a25.46,25.46,0,0,1-3.13-1.22,5.68,5.68,0,0,1-2.08-1.78,5,5,0,0,1-.88-3.07,5.86,5.86,0,0,1,.94-3.31,6.12,6.12,0,0,1,2.65-2.22,9.66,9.66,0,0,1,4-.78,11.91,11.91,0,0,1,3.6.53,6.86,6.86,0,0,1,2.65,1.41,1.86,1.86,0,0,1,.65,1.51,2.1,2.1,0,0,1-.41,1.27,1.29,1.29,0,0,1-1.07.55,1.83,1.83,0,0,1-1.09-.41,7.94,7.94,0,0,0-2-1,7.62,7.62,0,0,0-2.42-.39,4.52,4.52,0,0,0-2.57.64,2,2,0,0,0-.92,1.77,1.79,1.79,0,0,0,.51,1.3,3.93,3.93,0,0,0,1.27.85c.51.22,1.22.48,2.12.77a21.45,21.45,0,0,1,3.07,1.2,5.71,5.71,0,0,1,2,1.72,4.8,4.8,0,0,1,.85,2.95,5.56,5.56,0,0,1-2,4.58,8.8,8.8,0,0,1-5.67,1.64A13.61,13.61,0,0,1,109.24,349Z"/><path class="cls-9" d="M128.32,332.27l-.34,4.78h6.64a1.91,1.91,0,0,1,1.34.42,1.57,1.57,0,0,1,.46,1.2c0,1.25-.67,1.88-2,1.88h-6.66l-.37,5.12h7.16a1.88,1.88,0,0,1,1.33.43,1.6,1.6,0,0,1,.47,1.22c0,1.23-.69,1.85-2.06,1.85h-9.22a1.65,1.65,0,0,1-1.36-.55,2.1,2.1,0,0,1-.38-1.56l1.15-16.17a2.42,2.42,0,0,1,.61-1.57,1.92,1.92,0,0,1,1.44-.55h9.22a1.86,1.86,0,0,1,1.34.44,1.57,1.57,0,0,1,.46,1.18c0,1.26-.68,1.88-2,1.88Z"/><path class="cls-9" d="M153.39,346.48a2.5,2.5,0,0,1,.21.92,1.86,1.86,0,0,1-.64,1.43,2.06,2.06,0,0,1-1.44.6,1.75,1.75,0,0,1-1-.32,2.27,2.27,0,0,1-.74-.95l-2.42-5.5a2.6,2.6,0,0,0-.83-1.09,2.27,2.27,0,0,0-1.28-.33h-2.08l-.39,5.87a2.54,2.54,0,0,1-.65,1.62,2,2,0,0,1-1.49.61,1.76,1.76,0,0,1-1.44-.61,2.21,2.21,0,0,1-.43-1.65l1.14-16.19a2.48,2.48,0,0,1,.62-1.57,1.92,1.92,0,0,1,1.44-.55h6.61a6.07,6.07,0,0,1,4.46,1.57,5.74,5.74,0,0,1,1.58,4.28,6.87,6.87,0,0,1-1.18,4.25,5.63,5.63,0,0,1-3.63,2,2.6,2.6,0,0,1,1.14.71,5.26,5.26,0,0,1,.89,1.44Zm-5.7-8.65a3.28,3.28,0,0,0,2.33-.75,2.89,2.89,0,0,0,.79-2.2,2.67,2.67,0,0,0-.67-2,2.91,2.91,0,0,0-2.09-.65h-4.29l-.37,5.61Z"/><path class="cls-9" d="M159.74,349a9,9,0,0,1-2.78-1.26,2.32,2.32,0,0,1-.68-.82,2.13,2.13,0,0,1-.23-1,2,2,0,0,1,.39-1.24,1.21,1.21,0,0,1,1-.53,1.85,1.85,0,0,1,1,.35,7.82,7.82,0,0,0,2.25,1,10.08,10.08,0,0,0,2.91.41,4.76,4.76,0,0,0,2.59-.58,1.86,1.86,0,0,0,.9-1.65,1.7,1.7,0,0,0-.49-1.23,3.54,3.54,0,0,0-1.23-.82c-.51-.22-1.19-.47-2.06-.76a26.35,26.35,0,0,1-3.14-1.22,5.77,5.77,0,0,1-2.08-1.78,5.07,5.07,0,0,1-.87-3.07,5.86,5.86,0,0,1,.94-3.31,6.12,6.12,0,0,1,2.65-2.22,9.63,9.63,0,0,1,4-.78,11.85,11.85,0,0,1,3.59.53,6.91,6.91,0,0,1,2.66,1.41,1.89,1.89,0,0,1,.65,1.51,2,2,0,0,1-.42,1.27,1.26,1.26,0,0,1-1.06.55,1.86,1.86,0,0,1-1.1-.41,7.77,7.77,0,0,0-2-1,7.57,7.57,0,0,0-2.42-.39,4.51,4.51,0,0,0-2.56.64,2,2,0,0,0-.92,1.77,1.78,1.78,0,0,0,.5,1.3,4.09,4.09,0,0,0,1.28.85c.51.22,1.22.48,2.12.77a21.94,21.94,0,0,1,3.07,1.2,5.71,5.71,0,0,1,2.05,1.72,4.8,4.8,0,0,1,.84,2.95,5.53,5.53,0,0,1-2,4.58,8.75,8.75,0,0,1-5.66,1.64A13.74,13.74,0,0,1,159.74,349Z"/><circle class="cls-5" cx="400.82" cy="337.1" r="38.73"/><circle class="cls-13" cx="400.82" cy="337.1" r="27.49"/><circle class="cls-2" cx="400.82" cy="337.1" r="21.85"/><path class="cls-7" d="M405.37,335.32h6.72a5.68,5.68,0,0,1,5.66,5.66h0a5.64,5.64,0,0,1-1.55,3.88h0a4.57,4.57,0,0,1-.45.43l-3.32,3.15v-1.81h-7.05a5.68,5.68,0,0,1-5.66-5.66h0A5.68,5.68,0,0,1,405.37,335.32Z"/><path class="cls-8" d="M405.35,334.58h6.72a5.68,5.68,0,0,1,5.66,5.66h0a5.64,5.64,0,0,1-1.55,3.88h0c-.15.15-.3.3-.45.43l-3.33,3.15v-1.81h-7a5.67,5.67,0,0,1-5.65-5.66h0A5.67,5.67,0,0,1,405.35,334.58Z"/><circle class="cls-2" cx="412.07" cy="340.24" r="1.07"/><circle class="cls-2" cx="408.71" cy="340.24" r="1.07"/><circle class="cls-2" cx="405.35" cy="340.24" r="1.07"/><path class="cls-7" d="M404,326.66H393.36a9,9,0,0,0-8.93,8.93h0a8.91,8.91,0,0,0,2.45,6.12h0a7.6,7.6,0,0,0,.71.68l5.25,5V344.5H404a8.94,8.94,0,0,0,8.92-8.92h0A9,9,0,0,0,404,326.66Z"/><path class="cls-9" d="M403.43,325.77h-10.6a9,9,0,0,0-8.93,8.93h0a8.87,8.87,0,0,0,2.45,6.12h0c.23.23.47.46.71.67l5.25,5v-2.86l.52,0h10.6a9,9,0,0,0,8.93-8.93h0A9,9,0,0,0,403.43,325.77Z"/><circle class="cls-2" cx="392.83" cy="334.7" r="1.69"/><circle class="cls-2" cx="398.13" cy="334.7" r="1.69"/><circle class="cls-2" cx="403.43" cy="334.7" r="1.69"/><path class="cls-1" d="M225.1,330.49a.29.29,0,0,1-.08-.22V313.33a.28.28,0,0,1,.08-.21.29.29,0,0,1,.22-.08h2.93a.28.28,0,0,1,.21.08.29.29,0,0,1,.09.21v16.94a.29.29,0,0,1-.09.22.32.32,0,0,1-.21.08h-2.93A.33.33,0,0,1,225.1,330.49Z"/><path class="cls-1" d="M237.34,330.32l-1.93-6.91c0-.07-.07-.1-.12-.1h-.85c-.09,0-.13,0-.13.12v6.84a.29.29,0,0,1-.09.22.32.32,0,0,1-.21.08h-2.93a.29.29,0,0,1-.21-.08.29.29,0,0,1-.09-.22V313.33a.29.29,0,0,1,.09-.21.25.25,0,0,1,.21-.08h5.06a4.62,4.62,0,0,1,2.46.66,4.39,4.39,0,0,1,1.66,1.87,6.21,6.21,0,0,1,.59,2.75,5.83,5.83,0,0,1-.56,2.61,4.3,4.3,0,0,1-1.57,1.75.22.22,0,0,0-.07.06.08.08,0,0,0,0,.09l2.3,7.39,0,.1c0,.17-.1.25-.28.25h-3A.33.33,0,0,1,237.34,330.32Zm-3-14.13v4.29c0,.08,0,.12.13.12h1.12a1.55,1.55,0,0,0,1.27-.61,2.6,2.6,0,0,0,.49-1.64,2.63,2.63,0,0,0-.49-1.67,1.55,1.55,0,0,0-1.27-.61h-1.12C234.35,316.07,234.31,316.11,234.31,316.19Z"/><path class="cls-1" d="M243.69,329.43a4.79,4.79,0,0,1-1.36-3.59v-8.12a4.74,4.74,0,0,1,1.36-3.56,5.63,5.63,0,0,1,7.27,0,4.74,4.74,0,0,1,1.36,3.56V318a.28.28,0,0,1-.08.21.29.29,0,0,1-.22.09l-2.93.12q-.3,0-.3-.27v-.66a1.68,1.68,0,0,0-.4-1.17,1.37,1.37,0,0,0-1.08-.45,1.35,1.35,0,0,0-1.05.45,1.68,1.68,0,0,0-.4,1.17v8.65a1.64,1.64,0,0,0,.4,1.16,1.34,1.34,0,0,0,1.05.44,1.36,1.36,0,0,0,1.08-.44,1.64,1.64,0,0,0,.4-1.16v-.68a.31.31,0,0,1,.3-.3l2.93.13a.33.33,0,0,1,.22.08.29.29,0,0,1,.08.22v.25a4.76,4.76,0,0,1-1.37,3.59,5.59,5.59,0,0,1-7.26,0Z"/><path class="cls-1" d="M255.32,329.43a4.8,4.8,0,0,1-1.37-3.59v-8.12a4.75,4.75,0,0,1,1.37-3.56,5.62,5.62,0,0,1,7.26,0,4.75,4.75,0,0,1,1.37,3.56V318a.31.31,0,0,1-.3.3l-2.93.12q-.3,0-.3-.27v-.66a1.73,1.73,0,0,0-.4-1.17,1.38,1.38,0,0,0-1.08-.45,1.32,1.32,0,0,0-1.05.45,1.68,1.68,0,0,0-.4,1.17v8.65a1.64,1.64,0,0,0,.4,1.16,1.31,1.31,0,0,0,1.05.44,1.37,1.37,0,0,0,1.08-.44,1.68,1.68,0,0,0,.4-1.16v-.68a.32.32,0,0,1,.08-.21.29.29,0,0,1,.22-.09l2.93.13a.32.32,0,0,1,.21.08.29.29,0,0,1,.09.22v.25a4.77,4.77,0,0,1-1.38,3.59,5.57,5.57,0,0,1-7.25,0Z"/><path class="cls-1" d="M272,329.43a4.79,4.79,0,0,1-1.36-3.59v-8.12a4.74,4.74,0,0,1,1.36-3.56,5.63,5.63,0,0,1,7.27,0,4.75,4.75,0,0,1,1.37,3.56V318a.29.29,0,0,1-.09.21.29.29,0,0,1-.22.09l-2.93.12q-.3,0-.3-.27v-.66a1.68,1.68,0,0,0-.4-1.17,1.37,1.37,0,0,0-1.08-.45,1.35,1.35,0,0,0-1.05.45,1.73,1.73,0,0,0-.4,1.17v8.65a1.68,1.68,0,0,0,.4,1.16,1.34,1.34,0,0,0,1.05.44,1.36,1.36,0,0,0,1.08-.44,1.64,1.64,0,0,0,.4-1.16v-.68a.31.31,0,0,1,.3-.3l2.93.13a.33.33,0,0,1,.22.08.29.29,0,0,1,.09.22v.25a4.77,4.77,0,0,1-1.38,3.59,5.59,5.59,0,0,1-7.26,0Z"/><path class="cls-1" d="M288.84,313.12a.28.28,0,0,1,.21-.08H292a.28.28,0,0,1,.21.08.29.29,0,0,1,.09.21v16.94a.29.29,0,0,1-.09.22.32.32,0,0,1-.21.08h-2.94a.32.32,0,0,1-.21-.08.29.29,0,0,1-.09-.22v-6.84a.11.11,0,0,0-.12-.12h-2.51a.11.11,0,0,0-.12.12v6.84a.29.29,0,0,1-.09.22.32.32,0,0,1-.21.08h-2.93a.33.33,0,0,1-.22-.08.29.29,0,0,1-.08-.22V313.33a.28.28,0,0,1,.08-.21.29.29,0,0,1,.22-.08h2.93a.28.28,0,0,1,.21.08.29.29,0,0,1,.09.21v6.82c0,.08,0,.13.12.13h2.51c.08,0,.12,0,.12-.13v-6.82A.29.29,0,0,1,288.84,313.12Z"/><path class="cls-1" d="M301.53,330.3l-.4-2.41q0-.12-.15-.12H297.8q-.15,0-.15.12l-.4,2.41a.29.29,0,0,1-.33.27H294c-.22,0-.3-.11-.25-.32l3.68-16.94a.3.3,0,0,1,.33-.27h3.38a.31.31,0,0,1,.33.27l3.65,16.94,0,.1c0,.15-.09.22-.28.22h-3A.29.29,0,0,1,301.53,330.3ZM298.25,325h2.25c.09,0,.12-.05.1-.13l-1.17-6.84c0-.05-.05-.07-.08-.07s-.06,0-.07.07l-1.13,6.84C298.15,325,298.18,325,298.25,325Z"/><path class="cls-1" d="M315,313.12a.29.29,0,0,1,.09.21v2.44a.31.31,0,0,1-.3.3h-3.13c-.08,0-.13,0-.13.12v14.08a.28.28,0,0,1-.3.3h-2.93a.32.32,0,0,1-.21-.08.29.29,0,0,1-.09-.22V316.19a.11.11,0,0,0-.12-.12h-3a.27.27,0,0,1-.21-.09.29.29,0,0,1-.09-.21v-2.44a.29.29,0,0,1,.09-.21.26.26,0,0,1,.21-.08h9.92A.28.28,0,0,1,315,313.12Z"/><path class="cls-1" d="M325.48,329.32a5.2,5.2,0,0,1-3.63,1.25h-4.73a.33.33,0,0,1-.22-.08.29.29,0,0,1-.09-.22V313.33a.29.29,0,0,1,.31-.29h4.18a5.87,5.87,0,0,1,3.92,1.2,4.44,4.44,0,0,1,1.42,3.58,4,4,0,0,1-1.71,3.61c-.06.05-.07.1,0,.15a4.76,4.76,0,0,1,2,4.16A4.53,4.53,0,0,1,325.48,329.32Zm-5.13-13.13v3.93c0,.09,0,.13.12.13h.9a1.67,1.67,0,0,0,1.33-.54,2.19,2.19,0,0,0,.48-1.51,2.44,2.44,0,0,0-.46-1.58,1.66,1.66,0,0,0-1.35-.55h-.9A.11.11,0,0,0,320.35,316.19Zm2.53,10.73a2.76,2.76,0,0,0,.47-1.71,3,3,0,0,0-.47-1.75,1.5,1.5,0,0,0-1.28-.65h-1.13a.11.11,0,0,0-.12.12v4.46c0,.08,0,.13.12.13h1.11A1.57,1.57,0,0,0,322.88,326.92Z"/><path class="cls-1" d="M329.72,329.42a4.81,4.81,0,0,1-1.38-3.61v-8a4.81,4.81,0,0,1,1.38-3.6,5,5,0,0,1,3.68-1.36,5.1,5.1,0,0,1,3.7,1.36,4.81,4.81,0,0,1,1.39,3.6v8a4.82,4.82,0,0,1-1.39,3.61,5.09,5.09,0,0,1-3.7,1.35A5,5,0,0,1,329.72,329.42Zm4.81-2.17A1.89,1.89,0,0,0,335,326v-8.32a1.93,1.93,0,0,0-.42-1.29,1.44,1.44,0,0,0-1.13-.48,1.38,1.38,0,0,0-1.11.48,1.93,1.93,0,0,0-.42,1.29V326a1.89,1.89,0,0,0,.42,1.29,1.35,1.35,0,0,0,1.11.49A1.42,1.42,0,0,0,334.53,327.25Z"/><path class="cls-1" d="M350.38,313.12a.32.32,0,0,1,.08.21v2.44a.32.32,0,0,1-.08.21.29.29,0,0,1-.22.09H347c-.08,0-.13,0-.13.12v14.08a.29.29,0,0,1-.08.22.33.33,0,0,1-.22.08h-2.93a.32.32,0,0,1-.21-.08.29.29,0,0,1-.09-.22V316.19a.11.11,0,0,0-.12-.12h-3a.31.31,0,0,1-.3-.3v-2.44a.29.29,0,0,1,.09-.21.28.28,0,0,1,.21-.08h9.92A.29.29,0,0,1,350.38,313.12Z"/><path class="cls-1" d="M246.22,359.71a3.92,3.92,0,0,1-1.26-3.08v-4.86a3.93,3.93,0,0,1,1.28-3.06,5.89,5.89,0,0,1,7,0,3.93,3.93,0,0,1,1.27,3.06v4.86a3.92,3.92,0,0,1-1.26,3.08,6,6,0,0,1-7,0Zm4.4-2.33a1.5,1.5,0,0,0,.35-1V352a1.53,1.53,0,0,0-.35-1,1.15,1.15,0,0,0-.9-.4,1.13,1.13,0,0,0-.89.4,1.52,1.52,0,0,0-.34,1v4.34a1.5,1.5,0,0,0,.34,1,1.1,1.1,0,0,0,.89.4A1.12,1.12,0,0,0,250.62,357.38Z"/><path class="cls-1" d="M264.75,348.69a5.12,5.12,0,0,1,.85,3.16v8.49a.32.32,0,0,1-.08.21.29.29,0,0,1-.22.09h-2.93a.31.31,0,0,1-.3-.3v-8.22a1.87,1.87,0,0,0-.29-1.13,1,1,0,0,0-.84-.4,1.05,1.05,0,0,0-.89.42,1.93,1.93,0,0,0-.31,1.16v8.17a.29.29,0,0,1-.09.21.27.27,0,0,1-.21.09h-2.93a.27.27,0,0,1-.21-.09.29.29,0,0,1-.09-.21V348.06a.29.29,0,0,1,.09-.21.27.27,0,0,1,.21-.09h2.93a.27.27,0,0,1,.21.09.29.29,0,0,1,.09.21v.48s0,.07.06.07.1,0,.17-.1a2.75,2.75,0,0,1,2.23-.95A3,3,0,0,1,264.75,348.69Z"/><path class="cls-1" d="M275.37,360.36,272,343.43l0-.1c0-.15.09-.23.27-.23h3.06a.29.29,0,0,1,.33.28l1.42,9c0,.06.05.1.08.1s.06,0,.07-.1l1.36-9c0-.19.12-.28.32-.28h2.53a.29.29,0,0,1,.33.28l1.48,9c0,.06,0,.1.07.1s.06,0,.08-.1l1.28-9c0-.19.12-.28.32-.28h3c.21,0,.31.11.27.33L285,360.36a.28.28,0,0,1-.32.28H282a.29.29,0,0,1-.33-.28l-1.47-9.27c0-.06-.05-.1-.08-.1s-.06,0-.08.1l-1.32,9.27a.29.29,0,0,1-.33.28H275.7A.31.31,0,0,1,275.37,360.36Z"/><path class="cls-1" d="M298.94,346a.29.29,0,0,1-.21.09h-5.24a.12.12,0,0,0-.13.13v4c0,.08.05.12.13.12h3a.31.31,0,0,1,.3.3v2.43a.29.29,0,0,1-.09.22.32.32,0,0,1-.21.08h-3a.12.12,0,0,0-.13.13v4a.12.12,0,0,0,.13.13h5.24a.29.29,0,0,1,.21.09.27.27,0,0,1,.09.21v2.43a.31.31,0,0,1-.3.3h-8.6a.31.31,0,0,1-.3-.3V343.4a.31.31,0,0,1,.3-.3h8.6a.31.31,0,0,1,.3.3v2.43A.26.26,0,0,1,298.94,346Z"/><path class="cls-1" d="M309.47,359.39a5.25,5.25,0,0,1-3.63,1.25h-4.73a.29.29,0,0,1-.22-.09.28.28,0,0,1-.08-.21V343.4a.28.28,0,0,1,.08-.21.29.29,0,0,1,.22-.09h4.18a5.87,5.87,0,0,1,3.92,1.2,4.48,4.48,0,0,1,1.42,3.59,4,4,0,0,1-1.71,3.6c-.06.05-.07.1,0,.15a4.78,4.78,0,0,1,2,4.16A4.55,4.55,0,0,1,309.47,359.39Zm-5.13-13.13v3.93c0,.09,0,.13.12.13h.9a1.67,1.67,0,0,0,1.33-.54,2.22,2.22,0,0,0,.48-1.52,2.46,2.46,0,0,0-.46-1.58,1.69,1.69,0,0,0-1.35-.55h-.9C304.38,346.13,304.34,346.17,304.34,346.26ZM306.87,357a2.67,2.67,0,0,0,.47-1.7,2.91,2.91,0,0,0-.47-1.76,1.53,1.53,0,0,0-1.28-.65h-1.13c-.08,0-.12,0-.12.13v4.46a.11.11,0,0,0,.12.12h1.11A1.57,1.57,0,0,0,306.87,357Z"/><path class="cls-1" d="M314.53,360.26a4.13,4.13,0,0,1-1.7-1.61,4.7,4.7,0,0,1-.6-2.4v-.72a.27.27,0,0,1,.09-.21.29.29,0,0,1,.21-.09h2.88a.31.31,0,0,1,.3.3v.55a1.89,1.89,0,0,0,.4,1.25,1.26,1.26,0,0,0,1,.48,1.29,1.29,0,0,0,1-.45,1.75,1.75,0,0,0,.4-1.18,1.85,1.85,0,0,0-.5-1.29,15.31,15.31,0,0,0-2-1.59c-.83-.6-1.51-1.14-2-1.6a6.44,6.44,0,0,1-1.32-1.73,5,5,0,0,1-.56-2.38,4.53,4.53,0,0,1,1.33-3.41A4.87,4.87,0,0,1,317,342.9a4.82,4.82,0,0,1,3.55,1.33,4.69,4.69,0,0,1,1.34,3.48v.6a.29.29,0,0,1-.09.22.33.33,0,0,1-.22.08h-2.88a.32.32,0,0,1-.21-.08.29.29,0,0,1-.09-.22v-.67a1.86,1.86,0,0,0-.39-1.24,1.32,1.32,0,0,0-2,0,1.82,1.82,0,0,0-.37,1.22,2,2,0,0,0,.47,1.32,11.64,11.64,0,0,0,1.88,1.61q1.56,1.16,2.34,1.86a5.5,5.5,0,0,1,1.23,1.58A4.58,4.58,0,0,1,322,356a4.66,4.66,0,0,1-1.35,3.51,4.91,4.91,0,0,1-3.56,1.3A5.4,5.4,0,0,1,314.53,360.26Z"/><path class="cls-1" d="M323.79,360.55a.29.29,0,0,1-.09-.21V343.4a.29.29,0,0,1,.09-.21.29.29,0,0,1,.22-.09h2.93a.31.31,0,0,1,.3.3v16.94a.31.31,0,0,1-.3.3H324A.29.29,0,0,1,323.79,360.55Z"/><path class="cls-1" d="M339.4,343.19a.29.29,0,0,1,.09.21v2.43a.26.26,0,0,1-.09.21.29.29,0,0,1-.21.09h-3.13c-.09,0-.13,0-.13.13v14.08a.31.31,0,0,1-.3.3H332.7a.27.27,0,0,1-.21-.09.29.29,0,0,1-.09-.21V346.26c0-.09,0-.13-.13-.13h-3a.29.29,0,0,1-.22-.09.25.25,0,0,1-.08-.21V343.4a.28.28,0,0,1,.08-.21.29.29,0,0,1,.22-.09h9.92A.29.29,0,0,1,339.4,343.19Z"/><path class="cls-1" d="M350.3,346a.29.29,0,0,1-.21.09h-5.24c-.08,0-.12,0-.12.13v4a.11.11,0,0,0,.12.12h3a.31.31,0,0,1,.3.3v2.43a.29.29,0,0,1-.09.22.32.32,0,0,1-.21.08h-3c-.08,0-.12.05-.12.13v4c0,.09,0,.13.12.13h5.24a.29.29,0,0,1,.21.09.27.27,0,0,1,.09.21v2.43a.31.31,0,0,1-.3.3h-8.6a.31.31,0,0,1-.3-.3V343.4a.31.31,0,0,1,.3-.3h8.6a.31.31,0,0,1,.3.3v2.43A.26.26,0,0,1,350.3,346Z"/><line class="cls-14" x1="715.57" y1="224.14" x2="993.52" y2="224.14"/><path class="cls-15" d="M1008.61,224.14c-7.1,2.63-15.91,7.12-21.37,11.89l4.3-11.89-4.3-11.89C992.7,217,1001.51,221.5,1008.61,224.14Z"/><line class="cls-16" x1="825.39" y1="153.08" x2="993.83" y2="153.08"/><path class="cls-17" d="M1008.91,153.08c-7.1,2.63-15.9,7.13-21.36,11.89l4.3-11.89-4.3-11.89C993,146,1001.81,150.45,1008.91,153.08Z"/><line class="cls-18" x1="825.39" y1="295.19" x2="993.83" y2="295.19"/><path class="cls-19" d="M1008.91,295.19c-7.1,2.64-15.9,7.13-21.36,11.89l4.3-11.89-4.3-11.89C993,288.06,1001.81,292.56,1008.91,295.19Z"/><polyline class="cls-20" points="993.83 81.58 825.39 81.58 825.39 366.25 993.83 366.25"/><path class="cls-21" d="M1008.91,81.58c-7.1-2.64-15.9-7.13-21.36-11.89l4.3,11.89-4.3,11.88C993,88.7,1001.81,84.21,1008.91,81.58Z"/><path class="cls-22" d="M1008.91,366.25c-7.1,2.63-15.9,7.13-21.36,11.89l4.3-11.89-4.3-11.89C993,359.12,1001.81,363.61,1008.91,366.25Z"/></g></g></svg>