<svg xmlns="http://www.w3.org/2000/svg" xmlns:xlink="http://www.w3.org/1999/xlink" viewBox="0 0 1457.18 398.1"><defs><linearGradient id="a3aaad43-59c1-422f-8932-9c677bf26296" x1="879.41" y1="159.87" x2="1123.16" y2="159.87" gradientUnits="userSpaceOnUse"><stop offset="0" stop-color="#fff"/><stop offset="1" stop-color="#d7121b" stop-opacity="0.6"/></linearGradient><linearGradient id="a26c8d76-477e-42bb-8cad-3116d01ec75b" x1="879.41" y1="89.73" x2="1123.16" y2="89.73" xlink:href="#a3aaad43-59c1-422f-8932-9c677bf26296"/><linearGradient id="b9df0f12-641f-4e7b-9b94-b931d7f834d5" x1="879.39" y1="301.96" x2="1123.47" y2="301.96" xlink:href="#a3aaad43-59c1-422f-8932-9c677bf26296"/><linearGradient id="f771131c-6527-484d-84a9-59d727c69201" x1="879.39" y1="372.45" x2="1123.47" y2="372.45" xlink:href="#a3aaad43-59c1-422f-8932-9c677bf26296"/><linearGradient id="b72f0a72-a5f6-435e-9d79-04950f822269" x1="879.58" y1="195.76" x2="1123.38" y2="195.76" xlink:href="#a3aaad43-59c1-422f-8932-9c677bf26296"/><linearGradient id="b265adc3-239c-4db7-9065-c0a84327ac50" x1="879.58" y1="161.78" x2="1123.38" y2="161.78" xlink:href="#a3aaad43-59c1-422f-8932-9c677bf26296"/><linearGradient id="ea127e70-b412-4040-b01a-5ec06f58babb" x1="879.58" y1="265.92" x2="1123.38" y2="265.92" xlink:href="#a3aaad43-59c1-422f-8932-9c677bf26296"/><linearGradient id="ed913ad1-5474-4505-b69e-36f0d58ae6e7" x1="879.58" y1="300.1" x2="1123.38" y2="300.1" xlink:href="#a3aaad43-59c1-422f-8932-9c677bf26296"/><linearGradient id="b2f81765-ccd1-4fe1-ae76-a2174a954651" x1="879.65" y1="230.23" x2="1123.18" y2="230.23" xlink:href="#a3aaad43-59c1-422f-8932-9c677bf26296"/><linearGradient id="fb945289-339c-49a1-a3f1-533b612590d1" x1="879.65" y1="229.75" x2="1123.18" y2="229.75" xlink:href="#a3aaad43-59c1-422f-8932-9c677bf26296"/></defs><title>자산 1</title><g id="b04000a2-5561-4328-8d56-b4c7ea876481" data-name="레이어 2"><g id="aad0691c-d8fb-47e7-a007-eb499e74b6d0" data-name="레이어 1"><path d="M879.66,230.74s111.27-11.21,139.12-76.84c20.33-47.9,65.7-61.22,89.37-64.93" fill="none" stroke-miterlimit="10" stroke-width="5" stroke="url(#a3aaad43-59c1-422f-8932-9c677bf26296)"/><path d="M1123.16,87.55c-6.79,3.34-15.09,8.71-20,14l3.07-12.26L1100.7,77.9C1106.61,82.08,1115.83,85.65,1123.16,87.55Z" fill="url(#a26c8d76-477e-42bb-8cad-3116d01ec75b)"/><path d="M1108.45,373.2c-23.66-3.7-69-17-89.36-64.92-27.86-65.63-139.43-77.54-139.43-77.54" fill="none" stroke-miterlimit="10" stroke-width="5" stroke="url(#b9df0f12-641f-4e7b-9b94-b931d7f834d5)"/><path d="M1123.47,374.63c-6.79-3.34-15.1-8.71-20-14l3.06,12.27L1101,384.28C1106.92,380.1,1116.14,376.53,1123.47,374.63Z" fill="url(#f771131c-6527-484d-84a9-59d727c69201)"/><path d="M879.66,230.74s111.05-3.2,146.72-35c24.65-22,61.46-31.31,81.85-35" fill="none" stroke-miterlimit="10" stroke-width="5" stroke="url(#b72f0a72-a5f6-435e-9d79-04950f822269)"/><path d="M1123.16,158.6c-6.63,3.66-14.67,9.41-19.36,14.93l2.49-12.39-6-11.12C1106.37,153.92,1115.75,157.05,1123.16,158.6Z" fill="url(#b265adc3-239c-4db7-9065-c0a84327ac50)"/><path d="M1108.23,301.14c-20.39-3.66-57.2-13-81.85-35-35.67-31.83-146.72-35.43-146.72-35.43" fill="none" stroke-miterlimit="10" stroke-width="5" stroke="url(#ea127e70-b412-4040-b01a-5ec06f58babb)"/><path d="M1123.16,303.27c-6.63-3.66-14.67-9.41-19.36-14.93l2.49,12.4-6,11.11C1106.37,308,1115.75,304.82,1123.16,303.27Z" fill="url(#ed913ad1-5474-4505-b69e-36f0d58ae6e7)"/><line x1="879.66" y1="230.74" x2="1108.08" y2="229.72" fill="none" stroke-miterlimit="10" stroke-width="5" stroke="url(#b2f81765-ccd1-4fe1-ae76-a2174a954651)"/><path d="M1123.16,229.66c-7.08,2.66-15.87,7.2-21.31,12l4.25-11.91-4.36-11.86C1107.22,222.6,1116.05,227.06,1123.16,229.66Z" fill="url(#fb945289-339c-49a1-a3f1-533b612590d1)"/><text transform="translate(313.29 41.62)" font-size="48.97" fill="#232526" font-family="BarlowCondensed-Bold, Barlow Condensed" font-weight="700">WEBSITE</text><text transform="translate(715.44 119.47)" font-size="48.97" fill="#232526" font-family="BarlowCondensed-Bold, Barlow Condensed" font-weight="700">IRCC CH<tspan x="135.79" y="0" letter-spacing="-0.06em">A</tspan><tspan x="156.5" y="0">TBOT</tspan></text><rect x="224.07" y="64.08" width="334.01" height="334.01" fill="#d9d9d9"/><rect x="1123.16" y="64.08" width="334.01" height="49.79" fill="#d9d9d9"/><rect x="1123.16" y="135.14" width="334.01" height="49.79" fill="#d9d9d9"/><rect x="1123.16" y="206.19" width="334.01" height="49.79" fill="#d9d9d9"/><rect x="1123.16" y="277.25" width="334.01" height="49.79" fill="#d9d9d9"/><rect x="1123.16" y="348.3" width="334.01" height="49.79" fill="#d9d9d9"/><text transform="translate(1183.47 41.62)" font-size="48.97" fill="#232526" font-family="BarlowCondensed-Bold, Barlow Condensed" font-weight="700">PHONE <tspan x="125.85" y="0" letter-spacing="-0.01em">C</tspan><tspan x="148.08" y="0" letter-spacing="0em">ALL</tspan></text><text transform="translate(1217.61 96.75) scale(0.9 1)" font-size="30.07" fill="#232526" font-family="Nunito-SemiBold, Nunito" font-weight="600">OPE<tspan x="60.37" y="0" letter-spacing="-0.01em">R</tspan><tspan x="80.91" y="0" letter-spacing="-0.08em">A</tspan><tspan x="100.42" y="0" letter-spacing="-0.04em">T</tspan><tspan x="117.32" y="0">OR</tspan></text><text transform="translate(1217.61 168.26) scale(0.9 1)" font-size="30.07" fill="#232526" font-family="Nunito-SemiBold, Nunito" font-weight="600">OPE<tspan x="60.37" y="0" letter-spacing="-0.01em">R</tspan><tspan x="80.91" y="0" letter-spacing="-0.08em">A</tspan><tspan x="100.42" y="0" letter-spacing="-0.04em">T</tspan><tspan x="117.32" y="0">OR</tspan></text><text transform="translate(1217.61 239.77) scale(0.9 1)" font-size="30.07" fill="#232526" font-family="Nunito-SemiBold, Nunito" font-weight="600">OPE<tspan x="60.37" y="0" letter-spacing="-0.01em">R</tspan><tspan x="80.91" y="0" letter-spacing="-0.08em">A</tspan><tspan x="100.42" y="0" letter-spacing="-0.04em">T</tspan><tspan x="117.32" y="0">OR</tspan></text><text transform="translate(1217.61 311.28) scale(0.9 1)" font-size="30.07" fill="#232526" font-family="Nunito-SemiBold, Nunito" font-weight="600">OPE<tspan x="60.37" y="0" letter-spacing="-0.01em">R</tspan><tspan x="80.91" y="0" letter-spacing="-0.08em">A</tspan><tspan x="100.42" y="0" letter-spacing="-0.04em">T</tspan><tspan x="117.32" y="0">OR</tspan></text><text transform="translate(1217.61 382.79) scale(0.9 1)" font-size="30.07" fill="#232526" font-family="Nunito-SemiBold, Nunito" font-weight="600">OPE<tspan x="60.37" y="0" letter-spacing="-0.01em">R</tspan><tspan x="80.91" y="0" letter-spacing="-0.08em">A</tspan><tspan x="100.42" y="0" letter-spacing="-0.04em">T</tspan><tspan x="117.32" y="0">OR</tspan></text><circle cx="839.7" cy="231.09" r="89.9" fill="#d7121b" opacity="0.22"/><circle cx="839.7" cy="231.09" r="50.72" fill="#a40a11"/><circle cx="839.7" cy="231.09" r="63.82" fill="none" stroke="#a40a11" stroke-miterlimit="10" stroke-width="4" opacity="0.5"/><circle cx="506.98" cy="344.06" r="38.73" fill="#d7121b" opacity="0.22"/><circle cx="506.98" cy="344.06" r="21.85" fill="#a40a11"/><circle cx="506.98" cy="344.06" r="27.49" fill="none" stroke="#a40a11" stroke-miterlimit="10" stroke-width="2" opacity="0.5"/><polygon points="16.05 157.56 0 157.56 25.48 112.24 0 66.92 16.05 66.92 41.52 112.24 16.05 157.56" fill="#d7121b" opacity="0.1"/><polygon points="42.09 157.56 26.04 157.56 51.52 112.24 26.04 66.92 42.09 66.92 67.56 112.24 42.09 157.56" fill="#d7121b" opacity="0.4"/><polygon points="165.53 157.56 52.08 157.56 77.55 112.24 52.08 66.92 165.53 66.92 191.01 112.24 165.53 157.56" fill="#d7121b" opacity="0.6"/><text transform="translate(85.65 121.69) scale(0.9 1)" font-size="28.93" fill="#fff" font-family="Nunito-ExtraBoldItalic, Nunito" font-weight="800" font-style="italic">USE<tspan x="57.36" y="0" letter-spacing="-0.01em">R</tspan><tspan x="77.49" y="0">S</tspan></text><polygon points="16.05 274.77 0 274.77 25.48 229.45 0 184.13 16.05 184.13 41.52 229.45 16.05 274.77" fill="#d7121b" opacity="0.1"/><polygon points="42.09 274.77 26.04 274.77 51.52 229.45 26.04 184.13 42.09 184.13 67.56 229.45 42.09 274.77" fill="#d7121b" opacity="0.4"/><polygon points="165.53 274.77 52.08 274.77 77.55 229.45 52.08 184.13 165.53 184.13 191.01 229.45 165.53 274.77" fill="#d7121b" opacity="0.6"/><text transform="translate(85.65 238.91) scale(0.9 1)" font-size="28.93" fill="#fff" font-family="Nunito-ExtraBoldItalic, Nunito" font-weight="800" font-style="italic">USE<tspan x="57.36" y="0" letter-spacing="-0.01em">R</tspan><tspan x="77.49" y="0">S</tspan></text><polygon points="541.88 276.41 525.83 276.41 551.31 231.09 525.83 185.77 541.88 185.77 567.36 231.09 541.88 276.41" fill="#d7121b" opacity="0.1"/><polygon points="567.92 276.41 551.87 276.41 577.35 231.09 551.87 185.77 567.92 185.77 593.4 231.09 567.92 276.41" fill="#d7121b" opacity="0.4"/><polygon points="741.36 276.41 577.91 276.41 603.39 231.09 577.91 185.77 741.36 185.77 766.84 231.09 741.36 276.41" fill="#d7121b" opacity="0.6"/><text transform="translate(629.03 240.54) scale(0.9 1)" font-size="28.93" fill="#fff" font-family="Nunito-ExtraBoldItalic, Nunito" font-weight="800" font-style="italic">USE<tspan x="57.36" y="0" letter-spacing="0em">R</tspan><tspan x="77.49" y="0">S</tspan></text><polygon points="16.05 391.99 0 391.99 25.48 346.67 0 301.35 16.05 301.35 41.52 346.67 16.05 391.99" fill="#d7121b" opacity="0.1"/><polygon points="42.09 391.99 26.04 391.99 51.52 346.67 26.04 301.35 42.09 301.35 67.56 346.67 42.09 391.99" fill="#d7121b" opacity="0.4"/><polygon points="165.53 391.99 52.08 391.99 77.55 346.67 52.08 301.35 165.53 301.35 191.01 346.67 165.53 391.99" fill="#d7121b" opacity="0.6"/><text transform="translate(85.65 356.12) scale(0.9 1)" font-size="28.93" fill="#fff" font-family="Nunito-ExtraBoldItalic, Nunito" font-weight="800" font-style="italic">USE<tspan x="57.36" y="0" letter-spacing="-0.01em">R</tspan><tspan x="77.49" y="0">S</tspan></text><text transform="translate(330.07 337.53)" font-size="25.05" fill="#232526" font-family="BarlowCondensed-Bold, Barlow Condensed" font-weight="700">IRCC CH<tspan x="69.48" y="0" letter-spacing="-0.06em">A</tspan><tspan x="80.07" y="0">TBOT</tspan><tspan x="20.27" y="30.07">on WEBSITE</tspan></text></g></g></svg>