<svg xmlns="http://www.w3.org/2000/svg" viewBox="0 0 4003.02 1250.88"><title>자산 1</title><g id="e00bb966-4f7f-4c03-86a3-0380810867b2" data-name="레이어 2"><g id="a604d0cd-e543-4f09-a988-176810193289" data-name="레이어 1"><g id="b5bf2d6e-6c3b-42aa-898f-73934803ebb6" data-name="Start Finish"><g id="f8931caa-ced8-4b73-b171-f12787987b68" data-name="Main Nav"><g id="f3053392-7d7c-4938-a6da-e9bec4595fd4" data-name="사각형 1"><rect y="370.52" width="180" height="69" rx="2" fill="#a60505"/><rect x="1" y="371.52" width="178" height="67" rx="1" fill="none" stroke="#a60505" stroke-width="2"/></g></g><g id="b8ef9280-c11f-4bde-88cc-e24b9cb035ef" data-name="Website" style="isolation:isolate"><text transform="translate(50.56 411.52)" font-size="20" fill="#fff" font-family="Nunito-Bold, Nunito" font-weight="700" style="isolation:isolate"><tspan letter-spacing="-0.06em">W</tspan><tspan x="21.04" y="0" letter-spacing="0em">ebs</tspan><tspan x="53.38" y="0" letter-spacing="0.02em">i</tspan><tspan x="58.88" y="0">te</tspan></text></g></g><g id="f1d02eb2-9275-4336-8cbb-b4744ae93f14" data-name="Start Finish-2"><g id="bcd4156f-c37a-4d0b-8808-70cfe2e827fa" data-name="Main Nav-2"><g id="e29fcb88-0b42-412f-919e-1e464a99e0b1" data-name="사각형 1-2"><rect x="529" y="225.52" width="180" height="69" rx="2" fill="#a60505"/><rect x="530" y="226.52" width="178" height="67" rx="1" fill="none" stroke="#a60505" stroke-width="2"/></g></g><g id="baa78cd1-1bea-4810-87a9-6c683dd97d4f" data-name="Finish" style="isolation:isolate"><text transform="translate(589.69 266.52)" font-size="19" fill="#fff" font-family="Nunito-Bold, Nunito" font-weight="700" style="isolation:isolate"><tspan letter-spacing="0.04em">F</tspan><tspan x="11.51" y="0">inish</tspan></text></g></g><g id="ae4f213e-de05-4000-b8d7-b5489a1fb9ab" data-name="Decision"><path id="ba8f8311-5562-4261-9454-cd7078dbfd14" data-name="패스 1" d="M348.93,465.61,234.79,405.67l114.14-59.94,114.15,59.94Z" fill="none" stroke="#1a1311" stroke-miterlimit="10"/><g id="b6cbbf03-c284-476c-8c29-a3088463f6f3" data-name="Cleared the issue " style="isolation:isolate"><text transform="translate(267.98 410.52)" font-size="19" fill="#1a1311" font-family="Nunito-Bold, Nunito" font-weight="700" style="isolation:isolate">Clea<tspan x="38.06" y="0" letter-spacing="-0.01em">r</tspan><tspan x="45.14" y="0">ed the issu</tspan><tspan x="139.42" y="0" letter-spacing="-0.01em">e</tspan><tspan x="149.32" y="0">?</tspan></text></g></g><g id="b3ed77ce-7da4-4f60-935e-c07c913dab92" data-name="Decision-2"><path id="ae3f4025-aa6f-46da-872f-adec4c9cdbba" data-name="패스 1-2" d="M925.54,612.05,811.39,552.12l114.15-59.94,114.14,59.94Z" fill="none" stroke="#1a1311" stroke-miterlimit="10"/><g id="bf805d78-9e41-4336-bb39-26788e0d0a89" data-name="Can it be solved on the website " style="isolation:isolate"><text transform="translate(854.21 548.52)" font-size="19" fill="#1a1311" font-family="Nunito-Bold, Nunito" font-weight="700" style="isolation:isolate"><tspan letter-spacing="-0.01em">C</tspan><tspan x="12.69" y="0">an </tspan><tspan x="39.22" y="0" letter-spacing="0.02em">i</tspan><tspan x="44.44" y="0">t be sol</tspan><tspan x="108.22" y="0" letter-spacing="-0.01em">v</tspan><tspan x="118.06" y="0">ed</tspan></text><text transform="translate(854.88 567.52)" font-size="19" fill="#1a1311" font-family="Nunito-Bold, Nunito" font-weight="700" style="isolation:isolate">on the <tspan x="60.55" y="0" letter-spacing="-0.01em">w</tspan><tspan x="76.66" y="0">ebs</tspan><tspan x="107.39" y="0" letter-spacing="0.02em">i</tspan><tspan x="112.61" y="0">t</tspan><tspan x="119.62" y="0" letter-spacing="-0.01em">e</tspan><tspan x="129.52" y="0">?</tspan></text></g></g><g id="b3e2cb51-459d-4b90-8cfd-8d3332ea59f4" data-name="Decision-3"><path id="eccc5504-5e95-49be-afd8-a691a15b3c6d" data-name="패스 1-3" d="M3119.54,239.05l-114.15-59.93,114.15-59.94,114.14,59.94Z" fill="none" stroke="#1a1311" stroke-miterlimit="10"/><g id="bab7f88f-2e5f-465c-9202-9d2d152da167" data-name="Too long to wait " style="isolation:isolate"><text transform="translate(3042.38 185.52)" font-size="19" fill="#1a1311" font-family="Nunito-Bold, Nunito" font-weight="700" style="isolation:isolate"><tspan letter-spacing="-0.08em">T</tspan><tspan x="10.17" y="0">oo long to </tspan><tspan x="103.76" y="0" letter-spacing="-0.01em">w</tspan><tspan x="119.89" y="0">a</tspan><tspan x="130.15" y="0" letter-spacing="0.02em">i</tspan><tspan x="135.37" y="0" letter-spacing="0.01em">t</tspan><tspan x="142.52" y="0" letter-spacing="0em">?</tspan></text></g></g><g id="a430149e-6bc3-4e07-9c63-72295c81974d" data-name="Decision-4"><path id="b339ee55-e87c-491b-90fd-9dda4def23e0" data-name="패스 1-4" d="M2530.54,388.05l-114.15-59.93,114.15-59.94,114.14,59.94Z" fill="none" stroke="#1a1311" stroke-miterlimit="10"/><g id="f5e37f08-5f5c-4bf2-8006-1182e655f45c" data-name="Need to talk on the phone " style="isolation:isolate"><text transform="translate(2494.56 319.52)" font-size="19" fill="#1a1311" font-family="Nunito-Bold, Nunito" font-weight="700" style="isolation:isolate">Need to</text><text transform="translate(2448.41 338.52)" font-size="19" fill="#1a1311" font-family="Nunito-Bold, Nunito" font-weight="700" style="isolation:isolate">talk on the phon<tspan x="142.56" y="0" letter-spacing="-0.01em">e</tspan><tspan x="152.45" y="0" letter-spacing="0em">?</tspan></text></g></g><g id="fc1eed16-dc50-4c07-99dc-d4f47df21fd0" data-name="Decision-5"><path id="af9c272c-173a-46a9-8af5-d40a959ad963" data-name="패스 1-5" d="M1232.53,759.05l-114.14-59.93,114.14-59.94,114.15,59.94Z" fill="none" stroke="#1a1311" stroke-miterlimit="10"/><g id="eb401683-6b72-4829-8fb9-b74a734d1cc7" data-name="Need to talk to agents " style="isolation:isolate"><text transform="translate(1177.85 695.52)" font-size="19" fill="#1a1311" font-family="Nunito-Bold, Nunito" font-weight="700" style="isolation:isolate">Need to talk</text><text transform="translate(1185.6 714.52)" font-size="19" fill="#1a1311" font-family="Nunito-Bold, Nunito" font-weight="700" style="isolation:isolate">to agent<tspan x="73.05" y="0" letter-spacing="-0.01em">s</tspan><tspan x="82.08" y="0">?</tspan></text></g></g><g id="ad95212a-6a63-4eb0-8dc6-e6a0a819832c" data-name="Decision-6"><path id="b85edbe2-a12f-4cd7-a911-2c28151081d5" data-name="패스 1-6" d="M1538.53,534.05l-114.14-59.93,114.14-59.94,114.15,59.94Z" fill="none" stroke="#1a1311" stroke-miterlimit="10"/><g id="b09981ef-b0ad-41d3-9ad5-75472d76bd3e" data-name="Is it business hour " style="isolation:isolate"><text transform="translate(1521.03 470.52)" font-size="19" fill="#1a1311" font-family="Nunito-Bold, Nunito" font-weight="700" style="isolation:isolate">Is <tspan x="19.7" y="0" letter-spacing="0.02em">i</tspan><tspan x="24.93" y="0">t</tspan></text><text transform="translate(1471.86 489.52)" font-size="19" fill="#1a1311" font-family="Nunito-Bold, Nunito" font-weight="700" style="isolation:isolate">business hour?</text></g></g><g id="f942d279-ef33-4efd-939d-33e38cf65bb9" data-name="Decision-7"><path id="e7a880f6-a153-4281-ae88-869ab37f941c" data-name="패스 1-7" d="M1538.53,933.05l-114.14-59.93,114.14-59.94,114.15,59.94Z" fill="none" stroke="#1a1311" stroke-miterlimit="10"/><g id="e9a99c2e-cdb6-41f8-b489-3aef12ecd88d" data-name="Want to leave the question " style="isolation:isolate"><text transform="translate(1476.14 869.52)" font-size="19" fill="#1a1311" font-family="Nunito-Bold, Nunito" font-weight="700" style="isolation:isolate"><tspan letter-spacing="-0.06em">W</tspan><tspan x="19.99" y="0">ant to lea</tspan><tspan x="101.78" y="0" letter-spacing="-0.01em">v</tspan><tspan x="111.62" y="0">e</tspan></text><text transform="translate(1478.3 888.52)" font-size="19" fill="#1a1311" font-family="Nunito-Bold, Nunito" font-weight="700" style="isolation:isolate">the que<tspan x="65.87" y="0" letter-spacing="0em">s</tspan><tspan x="74.99" y="0">tio</tspan><tspan x="97.75" y="0" letter-spacing="-0.01em">n</tspan><tspan x="108.68" y="0" letter-spacing="0em">?</tspan></text></g></g><g id="f2f704c9-1bdb-498d-8d16-55e00112a6b2" data-name="Page"><rect id="f9ebce9a-7263-4007-a85d-b5596310e079" data-name="사각형 8" x="528.98" y="521.5" width="181.77" height="64.67" fill="#1a1311"/><g id="a4142943-a1d2-4d6d-a193-6224a49bc065" data-name="Chat Bot" style="isolation:isolate"><text transform="translate(579.36 558.52)" font-size="19" fill="#fff" font-family="Nunito-Bold, Nunito" font-weight="700" style="isolation:isolate">Chat B<tspan x="59.39" y="0" letter-spacing="0em">o</tspan><tspan x="70.26" y="0">t</tspan></text></g></g><g id="b3f259dc-2871-4cfb-a221-775727cbe418" data-name="flowKitConnector"><path id="adbb23e6-c0d3-42d5-9939-9d4ec1a4c495" data-name="line" d="M186.34,406h48.45" fill="none" stroke="#000"/><g id="be14b683-242a-4d40-aa8d-74bfc08ccf19" data-name="leftEdge"><circle cx="181.41" cy="405.96" r="4.93"/><circle cx="181.41" cy="405.96" r="4.43" fill="none" stroke="#000"/></g><path id="a6699392-28fe-40ba-8814-9c1ab9abb9ba" data-name="rightEdge" d="M225.54,401h0l9.25,4.93-9.25,4.94Z" stroke="#000"/></g><g id="a1a07091-103b-4c8e-9a19-8ba210610107" data-name="flowKitConnector-2"><path id="be58d212-6f00-4367-9421-e0875b1b0ea6" data-name="line-2" d="M347.65,342.65h0V259.42H528.84" fill="none" stroke="#000"/><g id="fcbaa070-6580-44cb-80b9-99d03b313a4a" data-name="leftEdge-2"><circle cx="348" cy="347.52" r="5"/><circle cx="348" cy="347.52" r="4.5" fill="none" stroke="#000"/></g><path id="e7369e1e-a80b-43e4-89d8-ce071354f0b9" data-name="rightEdge-2" d="M519.59,264.36h0l9.25-4.94-9.25-4.93Z" stroke="#000"/></g><g id="b36f70d3-6b04-487a-9e4c-de26bb175416" data-name="Y"><circle id="ab6b786a-7864-4056-9c5e-0df20539abcd" data-name="타원 1" cx="440.46" cy="259.66" r="15.69" fill="#fff" stroke="#1a1311" stroke-miterlimit="10"/><g id="b1dc352c-8ea6-49af-87f5-3288929cf6cf" data-name="그룹 5"><path id="a98575c1-690d-48db-b729-7ac912e451d3" data-name="패스 3" d="M439.69,266.85v-6l-4.44-7.11h1.8l3.42,5.68,3.41-5.68h1.8l-4.44,7.11v6Z" fill="#1a1311"/></g></g><g id="a8747e75-bd76-482d-acde-3612a8c2af73" data-name="flowKitConnector-3"><path id="be0cabf9-6d9f-406e-8c57-b320b3d8f457" data-name="line-3" d="M347.65,470.35h0v83.23H528.84" fill="none" stroke="#000"/><g id="f24ea768-5c24-4bd0-a47d-3e785f262d7e" data-name="leftEdge-3"><circle cx="347.66" cy="465.42" r="4.93"/><circle cx="347.66" cy="465.42" r="4.43" fill="none" stroke="#000"/></g><path id="ad648254-55c0-400e-9e96-9455255eab13" data-name="rightEdge-3" d="M519.59,548.64h0l9.25,4.94-9.25,4.93Z" stroke="#000"/></g><g id="f9e12b80-622c-435b-b998-13311acd63d5" data-name="N"><circle id="a8c0908c-464b-49f4-bf87-a9508757b4a6" data-name="타원 3" cx="440.46" cy="552.61" r="15.69" fill="#fff" stroke="#1a1311" stroke-miterlimit="10"/><g id="f86872cd-182a-4469-99ff-c1e0b1af1aa2" data-name="그룹 9"><path id="ab73be4a-9da1-4703-9f08-000a791adb51" data-name="패스 5" d="M434.92,559.17V545.54L444.51,556v-10H446v13.62l-9.59-10.36v9.85Z" fill="#1a1311"/></g></g><g id="baf790bd-a4bd-4eff-89f8-0d2dd68bf999" data-name="flowKitConnector-4"><path id="e90a8943-1596-4695-91cc-033366436f0c" data-name="line-4" d="M710.57,552.75H811.44" fill="none" stroke="#000"/><g id="fbf964a4-5c04-4e2e-ab2d-30f99743cd2f" data-name="leftEdge-4"><circle cx="710.57" cy="552.75" r="4.93"/><circle cx="710.57" cy="552.75" r="4.43" fill="none" stroke="#000"/></g><path id="ab570b22-2297-40b2-8574-9a71e66ccb3e" data-name="rightEdge-4" d="M802.19,547.81h0l9.25,4.94-9.25,4.93Z" stroke="#000"/></g><g id="f14b1272-6703-4149-9329-4718c42f0ef0" data-name="flowKitConnector-5"><path id="ac5827ac-d4ab-480c-b2d6-d3cdda2c123e" data-name="line-5" d="M2904.57,179.75h100.87" fill="none" stroke="#000"/><g id="a1c34fbd-b58f-4e05-b3fa-66d72d7d1d6d" data-name="leftEdge-5"><circle cx="2904.57" cy="179.75" r="4.93"/><circle cx="2904.57" cy="179.75" r="4.43" fill="none" stroke="#000"/></g><path id="e45ee6a2-1167-4bc9-ad89-21968fa47194" data-name="rightEdge-5" d="M2996.19,174.81h0l9.25,4.94-9.25,4.93Z" stroke="#000"/></g><g id="beaa9536-bb80-48fc-a1cf-8178c4098a68" data-name="flowKitConnector-6"><path id="e9e28345-61dc-46ca-a87b-faf097cc3f8e" data-name="line-6" d="M2199.57,328.75h216.82" fill="none" stroke="#000"/><g id="f282f6a4-a018-408a-a868-73e2e119d12c" data-name="leftEdge-6"><circle cx="2199.57" cy="328.75" r="4.93"/><circle cx="2199.57" cy="328.75" r="4.43" fill="none" stroke="#000"/></g><path id="b02c6ec3-18a1-4af5-99fb-52965d719a9c" data-name="rightEdge-6" d="M2407.14,323.81h0l9.25,4.94-9.25,4.93Z" stroke="#000"/></g><g id="a12fff11-3c69-4975-8b82-62744408ee4f" data-name="flowKitConnector-7"><path id="b1314866-bcb6-42e9-92b8-1a43cbca7fe4" data-name="line-7" d="M925.49,487.87h0V404.64h192.64" fill="none" stroke="#000"/><g id="f35df229-282a-4cb8-b660-54d87a744566" data-name="leftEdge-7"><ellipse cx="925.5" cy="492.52" rx="4.5" ry="5"/><ellipse cx="925.5" cy="492.52" rx="4" ry="4.5" fill="none" stroke="#000"/></g><path id="b4d0f070-343a-43f4-b4d8-adfb236b3a8a" data-name="rightEdge-7" d="M1108.88,409.58h0l9.25-4.94-9.25-4.93Z" stroke="#000"/></g><g id="a4c6a346-1e80-4f2c-829a-6ae82886eb19" data-name="flowKitConnector-8"><path id="a7938e34-e55e-4fcc-9f3e-7a82f4427e0d" data-name="line-8" d="M3119.49,114.87h0V31.64h192.64" fill="none" stroke="#000"/><g id="f52743f6-08cc-49c8-9a7b-7fcfddca0995" data-name="leftEdge-8"><ellipse cx="3119.5" cy="119.52" rx="4.5" ry="5"/><ellipse cx="3119.5" cy="119.52" rx="4" ry="4.5" fill="none" stroke="#000"/></g><path id="f72a46e7-715a-48cf-a127-5232ec4af86f" data-name="rightEdge-8" d="M3302.88,36.58h0l9.25-4.94-9.25-4.93Z" stroke="#000"/></g><g id="f57a9bf9-b073-4141-a3ad-824167a3df4c" data-name="flowKitConnector-9"><path id="e6385d4c-59bf-46e0-b662-bc0fe89c5ce4" data-name="line-9" d="M2530.49,263.87h0V180.64h192.64" fill="none" stroke="#000"/><g id="a6a9df32-62fd-476e-9bfd-1ccafe3eea9d" data-name="leftEdge-9"><ellipse cx="2530.5" cy="268.52" rx="4.5" ry="5"/><ellipse cx="2530.5" cy="268.52" rx="4" ry="4.5" fill="none" stroke="#000"/></g><path id="a9ccd911-ff15-44c9-9b97-691f6e0caa66" data-name="rightEdge-9" d="M2713.88,185.58h0l9.25-4.94-9.25-4.93Z" stroke="#000"/></g><g id="e90cc8b8-6b78-45ec-9596-5d0edd9606a3" data-name="flowKitConnector-10"><path id="bbf2a315-548f-48da-bc79-e3fd2d6e1a92" data-name="line-10" d="M1231.49,634.74h0V473.31h192.64" fill="none" stroke="#000"/><g id="fb46954d-60d9-4a9e-9c82-2695ace75185" data-name="leftEdge-10"><ellipse cx="1231.5" cy="639.52" rx="4.5" ry="5"/><ellipse cx="1231.5" cy="639.52" rx="4" ry="4.5" fill="none" stroke="#000"/></g><path id="ea7214f3-b8c2-46f4-8fca-1a13a477258b" data-name="rightEdge-10" d="M1414.88,478.24h0l9.25-4.93-9.25-4.93Z" stroke="#000"/></g><g id="e57fba37-36fb-4e6d-adbc-ab4210efe1f0" data-name="flowKitConnector-11"><path id="f93ae91b-094a-4d78-94ed-10b430cdef03" data-name="line-11" d="M1537.49,409.87h0V326.64h192.64" fill="none" stroke="#000"/><g id="b848ca29-aee4-4bfa-a340-54331b2f94a3" data-name="leftEdge-11"><ellipse cx="1537.5" cy="414.52" rx="4.5" ry="5"/><ellipse cx="1537.5" cy="414.52" rx="4" ry="4.5" fill="none" stroke="#000"/></g><path id="b8e4c666-a9bb-4236-afd9-47fee9107535" data-name="rightEdge-11" d="M1720.88,331.58h0l9.25-4.94-9.25-4.93Z" stroke="#000"/></g><g id="a4e2e361-5161-4b41-979f-96a7b52a5d66" data-name="flowKitConnector-12"><path id="b1609a42-2127-4a25-ac64-a1ce5d062f2e" data-name="line-12" d="M1537.49,808.87h0V725.64h192.64" fill="none" stroke="#000"/><g id="b0783629-8191-4c39-89a7-6e7a31a32b01" data-name="leftEdge-12"><ellipse cx="1537.5" cy="813.52" rx="4.5" ry="5"/><ellipse cx="1537.5" cy="813.52" rx="4" ry="4.5" fill="none" stroke="#000"/></g><path id="f1312f10-54e6-4168-a91f-6162a0a72c4a" data-name="rightEdge-12" d="M1720.88,730.57h0l9.25-4.93-9.25-4.93Z" stroke="#000"/></g><g id="aaa23723-ccff-4ba0-8c63-29f6253996f1" data-name="flowKitConnector-13"><path id="b52ce280-9af5-4f68-b25b-dd6e5bb3c441" data-name="line-13" d="M925.49,615.56h0v83.23h192.64" fill="none" stroke="#000"/><g id="ba9ef3c0-faa9-4ebf-a5fc-4b35bceeef34" data-name="leftEdge-13"><circle cx="925.49" cy="610.63" r="4.93"/><circle cx="925.49" cy="610.63" r="4.43" fill="none" stroke="#000"/></g><path id="b015e4a9-3613-4f34-93a7-8940dd1d4a8d" data-name="rightEdge-13" d="M1108.88,693.85h0l9.25,4.94-9.25,4.93Z" stroke="#000"/></g><g id="bb8a4161-13d5-4b50-8cd1-266d1aadaa1f" data-name="flowKitConnector-14"><path id="a04db404-e6f9-426e-a8d7-ed1d2874f657" data-name="line-14" d="M3119.49,242.56h0v83.23h192.64" fill="none" stroke="#000"/><g id="a30d8a08-ac17-4573-9c82-8591141dd515" data-name="leftEdge-14"><circle cx="3119.49" cy="237.63" r="4.93"/><circle cx="3119.49" cy="237.63" r="4.43" fill="none" stroke="#000"/></g><path id="a7589c31-acb4-4895-8ed6-7291747dcd1e" data-name="rightEdge-14" d="M3302.88,320.85h0l9.25,4.94-9.25,4.93Z" stroke="#000"/></g><g id="b2bb0b05-e8c5-41b7-812a-03f8d9f86e71" data-name="flowKitConnector-15"><path id="e9977373-1cf7-42ca-9ced-facd6a946889" data-name="line-15" d="M1231.49,762.56h0V873h192.64" fill="none" stroke="#000"/><g id="a7b8b138-5c94-48d6-9db2-397efa112157" data-name="leftEdge-15"><circle cx="1231.49" cy="757.63" r="4.93"/><circle cx="1231.49" cy="757.63" r="4.43" fill="none" stroke="#000"/></g><path id="f7103b1c-c35f-4fd2-aaab-70815e6b330a" data-name="rightEdge-15" d="M1414.88,868.1h0l9.25,4.94-9.25,4.93Z" stroke="#000"/></g><g id="aa980c7a-d4e1-446a-bcf4-54a7c69cba0e" data-name="flowKitConnector-16"><path id="ebb46a1e-d567-47d2-9bdf-fec5d1c6439b" data-name="line-16" d="M1537.49,537.56h0v83.23h192.64" fill="none" stroke="#000"/><g id="bc7d7b29-ea98-45f7-8e35-3e27a9c68d48" data-name="leftEdge-16"><circle cx="1537.49" cy="532.63" r="4.93"/><circle cx="1537.49" cy="532.63" r="4.43" fill="none" stroke="#000"/></g><path id="e1787015-3e7f-4b99-9228-9fed442fdb56" data-name="rightEdge-16" d="M1720.88,615.85h0l9.25,4.94-9.25,4.93Z" stroke="#000"/></g><g id="ba0cf286-5a6f-46fb-b83a-75a985c962d9" data-name="그룹 51"><circle id="f74263f8-810c-40e2-a84b-4ad3f87199ba" data-name="타원 2" cx="1024.56" cy="406.13" r="15.69" fill="#fff" stroke="#1a1311" stroke-miterlimit="10"/><g id="feca0fe8-2bcd-4c97-bc9b-31da65ada817" data-name="그룹 7"><path id="b316cf41-76d9-4075-8855-792144d34de0" data-name="패스 4" d="M1023.78,413.32v-6l-4.44-7.1h1.8l3.43,5.68,3.41-5.68h1.79l-4.43,7.1v6Z" fill="#1a1311"/></g></g><g id="f3f58c76-098a-4af8-bda7-a4ee789a9fa8" data-name="그룹 64"><circle id="e7accfd7-4a73-408c-9ba9-f868222d3ede" data-name="타원 2-2" cx="3218.56" cy="33.13" r="15.69" fill="#fff" stroke="#1a1311" stroke-miterlimit="10"/><g id="e67b6b82-afaf-4a63-af9a-0b059a57a919" data-name="그룹 7-2"><path id="a95e1a48-9184-4389-a214-4549f7965766" data-name="패스 4-2" d="M3217.78,40.32v-6l-4.44-7.1h1.8l3.43,5.68,3.41-5.68h1.79l-4.43,7.1v6Z" fill="#1a1311"/></g></g><g id="a3a76d88-6499-4f66-b951-e8035497a561" data-name="그룹 61"><circle id="b34498ab-1a61-4a51-81ff-7bcc9f207163" data-name="타원 2-3" cx="2624.56" cy="182.13" r="15.69" fill="#fff" stroke="#1a1311" stroke-miterlimit="10"/><g id="b1f6e803-0f67-46dd-9723-9f1d2ff2d889" data-name="그룹 7-3"><path id="a59213e9-d589-4392-a521-b02a743237d0" data-name="패스 4-3" d="M2623.78,189.32v-6l-4.44-7.1h1.8l3.43,5.68,3.41-5.68h1.79l-4.43,7.1v6Z" fill="#1a1311"/></g></g><g id="a843a1b2-38b8-45de-992c-0cc33531f870" data-name="그룹 53"><circle id="e50ede4d-f4b7-4023-83d8-7140a40cb626" data-name="타원 2-4" cx="1330.56" cy="474.13" r="15.69" fill="#fff" stroke="#1a1311" stroke-miterlimit="10"/><g id="a4b6d0e9-8f20-4190-b30d-c1292335f1c2" data-name="그룹 7-4"><path id="e61fe3c4-004c-4ffc-98d8-ba7d894d76e2" data-name="패스 4-4" d="M1329.78,481.32v-6l-4.44-7.1h1.8l3.43,5.68,3.41-5.68h1.79l-4.43,7.1v6Z" fill="#1a1311"/></g></g><g id="a923600c-ac82-4ba0-85f2-e49f46684659" data-name="그룹 56"><circle id="a2d5fc3a-f28d-4d9f-8694-9fd06e807204" data-name="타원 2-5" cx="1636.56" cy="328.13" r="15.69" fill="#fff" stroke="#1a1311" stroke-miterlimit="10"/><g id="b5d61f9a-dfd3-4746-ad57-5416de878f89" data-name="그룹 7-5"><path id="bbbc8bdc-a4bb-4eed-9a8e-fdc6c45c21f2" data-name="패스 4-5" d="M1635.78,335.32v-6l-4.44-7.1h1.8l3.43,5.68,3.41-5.68h1.79l-4.43,7.1v6Z" fill="#1a1311"/></g></g><g id="e56d3fd8-84c1-4e09-8d3c-1f40b237aabd" data-name="그룹 58"><circle id="b038b6f0-f3b6-4454-be3b-99656ab4f628" data-name="타원 2-6" cx="1636.56" cy="727.13" r="15.69" fill="#fff" stroke="#1a1311" stroke-miterlimit="10"/><g id="f537c67e-2c83-4b22-bf29-34efcdd15947" data-name="그룹 7-6"><path id="fe9c8678-7af0-432b-bcb9-3b0c180f04a3" data-name="패스 4-6" d="M1635.78,734.32v-6l-4.44-7.1h1.8l3.43,5.68,3.41-5.68h1.79l-4.43,7.1v6Z" fill="#1a1311"/></g></g><g id="a9f52ae4-466c-4c46-95a8-b5a98bce5f53" data-name="그룹 50"><circle id="a1de5db2-8e5b-415b-8c99-eea9768ca371" data-name="타원 4" cx="1024.56" cy="698.79" r="15.69" fill="#fff" stroke="#1a1311" stroke-miterlimit="10"/><g id="a7986499-590f-47e4-9c71-81bafbebe11e" data-name="그룹 11"><path id="a32f5b34-4ec8-41d6-962d-6555a98b9a4e" data-name="패스 6" d="M1019,705.34V691.72l9.59,10.47v-10h1.49v13.62l-9.59-10.36v9.84Z" fill="#1a1311"/></g></g><g id="ba8a8d2d-e9e8-4c7e-8718-8d01ac8abfd9" data-name="그룹 65"><circle id="bd5c6e0f-8386-4df3-b47c-031edacb22ae" data-name="타원 4-2" cx="3218.56" cy="325.79" r="15.69" fill="#fff" stroke="#1a1311" stroke-miterlimit="10"/><g id="a1025ef2-d020-4cc4-8626-d10ff07ebf76" data-name="그룹 11-2"><path id="a3689f54-f6f7-4a70-965e-2a96948dffb6" data-name="패스 6-2" d="M3213,332.34V318.72l9.59,10.47v-9.95h1.49v13.62l-9.59-10.36v9.84Z" fill="#1a1311"/></g></g><g id="a8eeb33d-d477-42db-a5dd-29c51d6ff4d2" data-name="그룹 54"><circle id="ae1cec5f-fb04-4213-b04d-a6dd5e142b27" data-name="타원 4-3" cx="1330.56" cy="873.04" r="15.69" fill="#fff" stroke="#1a1311" stroke-miterlimit="10"/><g id="a1e03b92-2502-442e-a0fa-09e8d76d80c5" data-name="그룹 11-3"><path id="af7325e2-c215-4550-abb6-1b6aebf21eb1" data-name="패스 6-3" d="M1325,879.59V866l9.59,10.47v-10h1.49v13.62l-9.59-10.36v9.84Z" fill="#1a1311"/></g></g><g id="bbaa91d1-0ed7-4fd9-ba0d-27cdc00684e7" data-name="그룹 55"><circle id="a6f80df4-c755-4c9f-b1c3-549583ad851d" data-name="타원 4-4" cx="1636.56" cy="620.79" r="15.69" fill="#fff" stroke="#1a1311" stroke-miterlimit="10"/><g id="f2815d4f-f5d1-4b1b-9c4a-5a580c4f43ea" data-name="그룹 11-4"><path id="a5616de2-fa3b-4385-8691-2b1d20a77f25" data-name="패스 6-4" d="M1631,627.34V613.72l9.59,10.47v-10h1.49v13.62l-9.59-10.36v9.84Z" fill="#1a1311"/></g></g><g id="e48c9d07-5f46-4f37-9255-73f46515b1b0" data-name="Step Task"><rect id="af9b0ce4-8d81-4c22-8b84-d1f254811bf2" data-name="사각형 11" x="1117.91" y="373.5" width="181.77" height="64.67" fill="none" stroke="#1a1311" stroke-miterlimit="10"/><g id="add50f05-24e5-4160-81ed-db3932eb1d0b" data-name="Go to the page guided on Chat bot" style="isolation:isolate"><text transform="translate(1143.77 402.62)" font-size="19" fill="#1a1311" font-family="Nunito-Bold, Nunito" font-weight="700" style="isolation:isolate">Go to the page</text><text transform="translate(1124.48 420.62)" font-size="19" fill="#1a1311" font-family="Nunito-Bold, Nunito" font-weight="700" style="isolation:isolate">guided on Chat b<tspan x="150.42" y="0" letter-spacing="0em">o</tspan><tspan x="161.29" y="0">t</tspan></text></g></g><g id="f307c38b-a0ed-4f8a-b9fb-f4807b875bfc" data-name="그룹 52"><path id="f2656dbf-5ec0-450d-9145-f64e2e9715be" data-name="패스 100" d="M1299.66,406.13H1413V175.64H91.51V362.19" fill="none" stroke="#000"/><g id="a045086a-43f3-4ec4-8c82-808933d10f86" data-name="leftEdge-17"><circle cx="1299.49" cy="406.63" r="4.93"/><circle cx="1299.49" cy="406.63" r="4.43" fill="none" stroke="#000"/></g><path id="a14a6e62-0aaf-4f79-85f4-a35862dda218" data-name="rightEdge-17" d="M96.44,361.16h0l-4.93,9.25-4.94-9.25Z" stroke="#000"/></g><g id="ab2dfccb-f82e-4fde-9fa7-93e7be76c03b" data-name="그룹 59"><path id="e841406c-e322-4e63-816e-3ba1cf7dc2b1" data-name="패스 100-2" d="M1537.49,934.52v136h-1204V473" fill="none" stroke="#000"/><g id="a057242c-aeb4-4a80-a460-873d651a23cd" data-name="leftEdge-18"><circle cx="1537.49" cy="934.5" r="4.93"/><circle cx="1537.49" cy="934.5" r="4.43" fill="none" stroke="#000"/></g><path id="b41e0f3f-e040-4b52-84be-1f952ae54841" data-name="rightEdge-18" d="M328.55,478h0l4.93-9.25,4.94,9.25Z" stroke="#000"/></g><g id="ba429cb7-de20-4491-89e8-66789c30a26c" data-name="그룹 60"><path id="b22e589c-57c5-49a8-be24-f3eff09ed962" data-name="패스 100-3" d="M2391.86,760.79,2390.33,1118H318.08V473" fill="none" stroke="#000"/><g id="a264ac66-e8bc-492e-8b29-b7d49a0e64e4" data-name="leftEdge-19"><circle cx="2391.86" cy="762.74" r="4.93"/><circle cx="2391.86" cy="762.74" r="4.43" fill="none" stroke="#000"/></g><path id="b51964d2-3ca4-4bc4-873c-db6270695017" data-name="rightEdge-19" d="M313.22,478h0l4.93-9.25,4.93,9.25Z" stroke="#000"/></g><g id="b6c043d4-71b9-49d8-a28d-0b9f6010c101" data-name="그룹 63"><path id="bae90475-ab5f-4286-b9cb-73d7f5a48f20" data-name="패스 100-4" d="M2530.69,386.35l-1.48,792.22H301.65V473" fill="none" stroke="#000"/><g id="af434cc9-42ad-4eb6-a510-7054c3d2f4a2" data-name="leftEdge-20"><circle cx="2530.86" cy="386.71" r="4.93"/><circle cx="2530.86" cy="386.71" r="4.43" fill="none" stroke="#000"/></g><path id="b2072b21-2e5c-4c83-b3c4-7a2fda58d4c0" data-name="rightEdge-20" d="M296.78,478h0l4.94-9.25,4.93,9.25Z" stroke="#000"/></g><g id="a29a6a7f-370b-4ad1-933b-433ee37dc923" data-name="Step Task-2"><rect id="eba9f42a-9179-4b9a-8449-8f607f1b2a89" data-name="사각형 11-2" x="2017.91" y="694.5" width="181.77" height="64.67" fill="none" stroke="#1a1311" stroke-miterlimit="10"/><g id="b9e17328-194f-44a0-9bdb-bc315acf0fea" data-name="Leave questions" style="isolation:isolate"><text transform="translate(2036.31 732.62)" font-size="19" fill="#1a1311" font-family="Nunito-Bold, Nunito" font-weight="700" style="isolation:isolate"><tspan letter-spacing="0em">L</tspan><tspan x="10.49" y="0" letter-spacing="0em">ea</tspan><tspan x="30.84" y="0" letter-spacing="-0.01em">v</tspan><tspan x="40.68" y="0">e que</tspan><tspan x="88.42" y="0" letter-spacing="0em">s</tspan><tspan x="97.54" y="0">tions</tspan></text></g></g><g id="a0eb0bd1-d1e0-4f51-896b-be8559b76c24" data-name="Step Task-3"><rect id="a21823bd-d352-48dc-b227-31f1def9a68b" data-name="사각형 11-3" x="2017.91" y="298.5" width="181.77" height="64.67" fill="none" stroke="#1a1311" stroke-miterlimit="10"/><g id="b5d995ad-ba04-4f45-be2c-7440c587b4a4" data-name="Connect to an agent and chat" style="isolation:isolate"><text transform="translate(2058.38 327.62)" font-size="19" fill="#1a1311" font-family="Nunito-Bold, Nunito" font-weight="700" style="isolation:isolate"><tspan letter-spacing="-0.01em">C</tspan><tspan x="12.69" y="0">onne</tspan><tspan x="55.94" y="0" letter-spacing="0em">c</tspan><tspan x="65.26" y="0">t to </tspan></text><text transform="translate(2030.01 345.62)" font-size="19" fill="#1a1311" font-family="Nunito-Bold, Nunito" font-weight="700" style="isolation:isolate">an agent and chat</text></g></g><g id="bd516894-56f2-4505-8e36-696c64ac6248" data-name="Step Task-4"><rect id="af38d993-8813-4b23-ba76-6ea83fd4046a" data-name="사각형 11-4" x="2722.91" y="147.5" width="181.77" height="64.67" fill="none" stroke="#1a1311" stroke-miterlimit="10"/><g id="a4b8958f-c14f-42f5-9fc4-136047f5cc2d" data-name="Guide the agent s number" style="isolation:isolate"><text transform="translate(2771.32 176.62)" font-size="19" fill="#1a1311" font-family="Nunito-Bold, Nunito" font-weight="700" style="isolation:isolate">Guide the</text><text transform="translate(2745.58 194.62)" font-size="19" fill="#1a1311" font-family="Nunito-Bold, Nunito" font-weight="700" style="isolation:isolate">agen<tspan x="42.96" y="0" letter-spacing="0em">t</tspan><tspan x="50.05" y="0" letter-spacing="-0.03em">’</tspan><tspan x="54.24" y="0">s number</tspan></text></g></g><g id="b24bb316-5075-44f2-9445-fdd91caf1ce1" data-name="Step Task-5"><rect id="e4250c19-0697-4377-aa45-cafb887c6f4f" data-name="사각형 11-5" x="3311.91" y="0.5" width="181.77" height="64.67" fill="none" stroke="#1a1311" stroke-miterlimit="10"/><g id="bd56f26f-5ced-4117-9576-d1468249940b" data-name="Book the phone call" style="isolation:isolate"><text transform="translate(3360.87 29.62)" font-size="19" fill="#1a1311" font-family="Nunito-Bold, Nunito" font-weight="700" style="isolation:isolate">Book the </text><text transform="translate(3358.13 47.62)" font-size="19" fill="#1a1311" font-family="Nunito-Bold, Nunito" font-weight="700" style="isolation:isolate">phone call</text></g></g><g id="a731093a-8496-4aa7-a7d8-9afc76b6843f" data-name="Step Task-6"><rect id="e72c9f12-b4a2-4e41-8b53-d2596c8fde55" data-name="사각형 11-6" x="3311.91" y="292.5" width="181.77" height="64.67" fill="none" stroke="#1a1311" stroke-miterlimit="10"/><g id="ab2201cc-ed10-41a3-8a32-426b2df68c1e" data-name="Call to the agent" style="isolation:isolate"><text transform="translate(3358.1 321.62)" font-size="19" fill="#1a1311" font-family="Nunito-Bold, Nunito" font-weight="700" style="isolation:isolate"><tspan letter-spacing="-0.01em">C</tspan><tspan x="12.69" y="0">all to the</tspan></text><text transform="translate(3377.65 339.62)" font-size="19" fill="#1a1311" font-family="Nunito-Bold, Nunito" font-weight="700" style="isolation:isolate">agent</text></g></g><g id="a95f1eb9-2af1-492d-b640-7f8c6e257976" data-name="Step Task-7"><rect id="b677ad0b-f5ba-4427-bb36-86e3e2929ff3" data-name="사각형 11-7" x="3742.91" y="145.5" width="181.77" height="64.67" fill="none" stroke="#1a1311" stroke-miterlimit="10"/><g id="a1ac72e5-3750-47aa-8e1b-6b90f3d93fb1" data-name="Talk to the agent" style="isolation:isolate"><text transform="translate(3787.69 174.62)" font-size="19" fill="#1a1311" font-family="Nunito-Bold, Nunito" font-weight="700" style="isolation:isolate"><tspan letter-spacing="-0.08em">T</tspan><tspan x="10.17" y="0">alk to the</tspan></text><text transform="translate(3808.65 192.62)" font-size="19" fill="#1a1311" font-family="Nunito-Bold, Nunito" font-weight="700" style="isolation:isolate">agent</text></g></g><g id="a0f74a70-11ee-4d9b-b1b8-34f3152c0cd8" data-name="Step Task-8"><rect id="b1594e52-e15f-483e-a39b-d7d099778743" data-name="사각형 11-8" x="1730.91" y="588.5" width="181.77" height="64.67" fill="none" stroke="#1a1311" stroke-miterlimit="10"/><g id="fe6c8d51-4556-4158-bb36-e1ad92e7f522" data-name="Check the business hour" style="isolation:isolate"><text transform="translate(1776.18 617.62)" font-size="19" fill="#1a1311" font-family="Nunito-Bold, Nunito" font-weight="700" style="isolation:isolate">Check the</text><text transform="translate(1758.85 635.62)" font-size="19" fill="#1a1311" font-family="Nunito-Bold, Nunito" font-weight="700" style="isolation:isolate">business hour</text></g></g><g id="b10c8e9a-ca4b-4eaa-8407-710491d0d0bd" data-name="Step Task-9"><rect id="fa59782c-a661-4f2b-9bac-8a90fd4e597b" data-name="사각형 11-9" x="1730.91" y="295.5" width="181.77" height="64.67" fill="none" stroke="#1a1311" stroke-miterlimit="10"/><g id="b2d8afa0-4078-449d-88c7-f0bbfd6d7bce" data-name="Enter user information" style="isolation:isolate"><text transform="translate(1796.29 324.62)" font-size="19" fill="#1a1311" font-family="Nunito-Bold, Nunito" font-weight="700" style="isolation:isolate">Enter</text><text transform="translate(1747.48 342.62)" font-size="19" fill="#1a1311" font-family="Nunito-Bold, Nunito" font-weight="700" style="isolation:isolate">user in<tspan x="58.67" y="0" letter-spacing="0em">f</tspan><tspan x="65.38" y="0">ormation</tspan></text></g></g><g id="a9897c3c-0181-4974-91c0-a5bb2a815d2d" data-name="Step Task-10"><rect id="e993872f-b29e-47d2-8d8a-6c7b63222cc2" data-name="사각형 11-10" x="2300.91" y="694.5" width="181.77" height="64.67" fill="none" stroke="#1a1311" stroke-miterlimit="10"/><g id="b6dcdf92-0499-4bfa-b67c-5a932f5a36c5" data-name="Get an update" style="isolation:isolate"><text transform="translate(2327.75 732.62)" font-size="19" fill="#1a1311" font-family="Nunito-Bold, Nunito" font-weight="700" style="isolation:isolate">G<tspan x="13.93" y="0" letter-spacing="-0.01em">e</tspan><tspan x="23.88" y="0">t an update</tspan></text></g></g><g id="afc0a486-f2ee-4cd6-be7b-6584e67df7c3" data-name=" Guide users to the Q A Page from Chat bot" style="isolation:isolate"><text transform="translate(1730.13 779.08)" font-size="12" fill="#1a1311" font-family="Nunito-Regular, Nunito" style="isolation:isolate">* Guide use<tspan x="61.92" y="0" letter-spacing="0em">r</tspan><tspan x="66.1" y="0">s to the </tspan><tspan x="109.1" y="0" letter-spacing="-0.01em">Q</tspan><tspan x="118.15" y="0" letter-spacing="-0.02em">/</tspan><tspan x="121.31" y="0" letter-spacing="0em">A </tspan><tspan x="133.13" y="0" letter-spacing="-0.01em">P</tspan><tspan x="140.73" y="0" letter-spacing="0em">age </tspan></text><text transform="translate(1730.13 792.08)" font-size="12" fill="#1a1311" font-family="Nunito-Regular, Nunito" style="isolation:isolate"><tspan xml:space="preserve">   f</tspan><tspan x="13.22" y="0" letter-spacing="-0.01em">r</tspan><tspan x="17.34" y="0" letter-spacing="0em">om Chat b</tspan><tspan x="72.78" y="0" letter-spacing="0em">o</tspan><tspan x="79.43" y="0">t</tspan></text></g><g id="fe764528-f71d-48ee-ad67-c9ce0690c798" data-name=" Guide the business hour to the users" style="isolation:isolate"><text transform="translate(1730.13 560.08)" font-size="12" fill="#1a1311" font-family="Nunito-Regular, Nunito" style="isolation:isolate">* Guide the business hour</text><text transform="translate(1730.13 573.08)" font-size="12" fill="#1a1311" font-family="Nunito-Regular, Nunito" style="isolation:isolate"><tspan xml:space="preserve">   to the use</tspan><tspan x="62.25" y="0" letter-spacing="0em">r</tspan><tspan x="66.43" y="0" letter-spacing="0em">s</tspan></text></g><g id="fd125d93-51c2-4b49-b3f5-793ea8c44afb" data-name=" Issue the number" style="isolation:isolate"><text transform="translate(2018.13 779.08)" font-size="12" fill="#1a1311" font-family="Nunito-Regular, Nunito" style="isolation:isolate">* Issue the number</text></g><g id="bf016fa5-2584-4a17-9657-26522391a894" data-name=" Show the waiting time" style="isolation:isolate"><text transform="translate(2018.13 383.08)" font-size="12" fill="#1a1311" font-family="Nunito-Regular, Nunito" style="isolation:isolate">* Sh<tspan x="22.72" y="0" letter-spacing="-0.01em">o</tspan><tspan x="29.3" y="0">w the </tspan><tspan x="62.82" y="0" letter-spacing="-0.01em">w</tspan><tspan x="72.82" y="0">a</tspan><tspan x="79.18" y="0" letter-spacing="0.01em">i</tspan><tspan x="82.06" y="0">ting time</tspan></text></g><g id="afccf969-cd23-47fb-93fc-1df7358b67f3" data-name=" Show the waiting time-2" style="isolation:isolate"><text transform="translate(2723.13 232.08)" font-size="12" fill="#1a1311" font-family="Nunito-Regular, Nunito" style="isolation:isolate">* Sh<tspan x="22.72" y="0" letter-spacing="-0.01em">o</tspan><tspan x="29.3" y="0">w the </tspan><tspan x="62.82" y="0" letter-spacing="-0.01em">w</tspan><tspan x="72.82" y="0">a</tspan><tspan x="79.18" y="0" letter-spacing="0.01em">i</tspan><tspan x="82.06" y="0">ting time</tspan></text></g><g id="a5fd7762-33c0-483f-852a-92ef25b5af2f" data-name=" The agent will call to the user" style="isolation:isolate"><text transform="translate(3312.13 84.08)" font-size="12" fill="#1a1311" font-family="Nunito-Regular, Nunito" style="isolation:isolate">* <tspan x="8.5" y="0" letter-spacing="0.06em">T</tspan><tspan x="16.36" y="0" letter-spacing="0em">he agent </tspan><tspan x="66.3" y="0" letter-spacing="0.01em">w</tspan><tspan x="76.56" y="0">ill call to the user</tspan></text></g><g id="e210abaf-8bce-40ca-a89b-9b71dc514483" data-name=" Deliver the issue no to the agent" style="isolation:isolate"><text transform="translate(3312.13 376.08)" font-size="12" fill="#1a1311" font-family="Nunito-Regular, Nunito" style="isolation:isolate">* Deli<tspan x="29.26" y="0" letter-spacing="-0.01em">v</tspan><tspan x="35.35" y="0" letter-spacing="0em">er the issue no to the agent</tspan></text></g><g id="e7e98211-b543-4690-b58c-6ff944cafc5b" data-name=" Track the issue no and send the record to the user s email" style="isolation:isolate"><text transform="translate(3743.13 229.08)" font-size="12" fill="#1a1311" font-family="Nunito-Regular, Nunito" style="isolation:isolate">* <tspan x="8.5" y="0" letter-spacing="-0.08em">T</tspan><tspan x="14.76" y="0" letter-spacing="0em">r</tspan><tspan x="18.95" y="0" letter-spacing="0em">ack the issue no and </tspan></text><text transform="translate(3743.13 242.08)" font-size="12" fill="#1a1311" font-family="Nunito-Regular, Nunito" style="isolation:isolate"><tspan xml:space="preserve">   send the </tspan><tspan x="58.58" y="0" letter-spacing="-0.01em">r</tspan><tspan x="62.7" y="0">eco</tspan><tspan x="81.43" y="0" letter-spacing="-0.01em">r</tspan><tspan x="85.55" y="0">d to the use</tspan><tspan x="148.59" y="0" letter-spacing="0.03em">r</tspan><tspan x="153.18" y="0" letter-spacing="-0.03em">’</tspan><tspan x="155.58" y="0" letter-spacing="0em">s email</tspan></text></g><g id="ac3d7e8d-f52b-4494-af6f-bb0cc4e46fab" data-name=" Issue the number-2" style="isolation:isolate"><text transform="translate(1730.13 383.08)" font-size="12" fill="#1a1311" font-family="Nunito-Regular, Nunito" style="isolation:isolate">* Issue the number</text></g><g id="f7e94854-fdbc-4b09-8ebc-92594722a6da" data-name=" Notifications by email" style="isolation:isolate"><text transform="translate(2301.13 779.08)" font-size="12" fill="#1a1311" font-family="Nunito-Regular, Nunito" style="isolation:isolate">* N<tspan x="17.36" y="0" letter-spacing="0em">o</tspan><tspan x="24.01" y="0">tifications </tspan></text><text transform="translate(2301.13 792.08)" font-size="12" fill="#1a1311" font-family="Nunito-Regular, Nunito" style="isolation:isolate"><tspan xml:space="preserve">   </tspan><tspan x="9.29" y="0" letter-spacing="-0.01em">b</tspan><tspan x="16.2" y="0">y email</tspan></text></g><g id="e15bb2f5-9063-42a9-8800-0711577735ac" data-name="Page-2"><rect id="f2a9541f-35b6-42e6-92ea-1d7df6124acb" data-name="사각형 8-2" x="1730.44" y="694.5" width="181.77" height="64.67" fill="#1a1311"/><g id="b2501599-c3f2-4dd0-a603-7e5ccd5a94a1" data-name="Q A Page" style="isolation:isolate"><text transform="translate(1776.22 731.52)" font-size="19" fill="#fff" font-family="Nunito-Bold, Nunito" font-weight="700" style="isolation:isolate"><tspan letter-spacing="-0.01em">Q</tspan><tspan x="14.61" y="0" letter-spacing="-0.02em">/</tspan><tspan x="20.18" y="0" letter-spacing="0em">A </tspan><tspan x="39.42" y="0" letter-spacing="-0.01em">P</tspan><tspan x="51.72" y="0">age</tspan></text></g></g><g id="f5d76cb6-7e2c-4577-b199-737513e1bf9e" data-name="flowKitConnector-17"><path id="f05c8481-42fc-4e36-bbf9-9522f7617465" data-name="line-17" d="M1917,725.75h100.87" fill="none" stroke="#000"/><g id="e1786ac0-e8aa-45fd-97a0-403eb8bf8757" data-name="leftEdge-21"><circle cx="1917.04" cy="725.75" r="4.93"/><circle cx="1917.04" cy="725.75" r="4.43" fill="none" stroke="#000"/></g><path id="f70d17ae-e700-498f-b798-552a1570a3eb" data-name="rightEdge-21" d="M2008.66,720.81h0l9.25,4.94-9.25,4.93Z" stroke="#000"/></g><g id="b5c0c2f1-f1d5-4077-995f-e2e933fc13c3" data-name="flowKitConnector-18"><path id="b7017b31-5264-436d-a32a-4c63274dbd64" data-name="line-18" d="M1917,329.75h100.87" fill="none" stroke="#000"/><g id="a3c8a847-b0cd-4d4d-8ec2-5ebf0019a126" data-name="leftEdge-22"><circle cx="1917.04" cy="329.75" r="4.93"/><circle cx="1917.04" cy="329.75" r="4.43" fill="none" stroke="#000"/></g><path id="f792ade6-c0c9-4640-b59f-f64a56064a04" data-name="rightEdge-22" d="M2008.66,324.81h0l9.25,4.94-9.25,4.93Z" stroke="#000"/></g><g id="b997f43b-baac-4b97-9e45-311a25260d6f" data-name="flowKitConnector-19"><path id="e645998e-7040-404b-9f24-212672a61f02" data-name="line-19" d="M2200,725.75h100.87" fill="none" stroke="#000"/><g id="a175278c-d846-4da4-adc6-511004580661" data-name="leftEdge-23"><circle cx="2200.04" cy="725.75" r="4.93"/><circle cx="2200.04" cy="725.75" r="4.43" fill="none" stroke="#000"/></g><path id="f581cf7f-bdb7-4ccb-81e2-2d7a089b6c1c" data-name="rightEdge-23" d="M2291.66,720.81h0l9.25,4.94-9.25,4.93Z" stroke="#000"/></g><g id="a688d3b3-e739-4428-931d-0720f071edad" data-name="그룹 57"><circle id="b0ef57b8-39bc-45e3-b8d3-83f33305e49a" data-name="타원 4-5" cx="1538.56" cy="992.79" r="15.69" fill="#fff" stroke="#1a1311" stroke-miterlimit="10"/><g id="bdf9a4e9-e7da-4b35-a409-e73b07893871" data-name="그룹 11-5"><path id="af27b097-615d-4705-a887-96e275709f80" data-name="패스 6-5" d="M1533,999.34V985.72l9.59,10.47v-10h1.49v13.62l-9.59-10.36v9.84Z" fill="#1a1311"/></g></g><g id="f3dda547-1ce8-4b9f-807f-5558006c8c04" data-name="그룹 62"><circle id="a7c5ea44-8fc5-4503-a637-1076c774a3f4" data-name="타원 4-6" cx="2530.56" cy="474.79" r="15.69" fill="#fff" stroke="#1a1311" stroke-miterlimit="10"/><g id="e1de4344-f5af-433e-9906-e24c1a87b310" data-name="그룹 11-6"><path id="bb94302b-3143-431f-8247-9310c43fb482" data-name="패스 6-6" d="M2525,481.34V467.72l9.59,10.47v-9.95h1.49v13.62l-9.59-10.36v9.84Z" fill="#1a1311"/></g></g><g id="a6f62aa5-c355-42a5-8d34-9c87d3eb143e" data-name="flowKitConnector-20"><path id="f95db099-ea81-45a6-a304-d719e61f252b" data-name="line-20" d="M3498.32,32.22h117.29V177.29H3743.1" fill="none" stroke="#000"/><g id="ad721cf4-f844-4a82-a324-5b92a4c04a4d" data-name="leftEdge-24"><circle cx="3493.39" cy="32.22" r="4.93"/><circle cx="3493.39" cy="32.22" r="4.43" fill="none" stroke="#000"/></g><path id="f2ee1ab3-7433-4313-92bf-1ff13432172c" data-name="rightEdge-24" d="M3733.85,172.36h0l9.25,4.93-9.25,4.94Z" stroke="#000"/></g><g id="a3356226-6c2d-4325-923b-dfaf1c28f949" data-name="flowKitConnector-21"><path id="b116e37a-c4ea-4835-b001-cbb72691c5cb" data-name="line-21" d="M3499.14,325.79H3616V177.29H3743.1" fill="none" stroke="#000"/><g id="fac08c11-8a53-4a34-bfb9-16e36bb29671" data-name="leftEdge-25"><circle cx="3494.21" cy="325.79" r="4.93"/><circle cx="3494.21" cy="325.79" r="4.43" fill="none" stroke="#000"/></g><path id="e50b97bf-a597-4cc2-a3f8-9ffdbcae70f2" data-name="rightEdge-25" d="M3733.85,182.23h0l9.25-4.94-9.25-4.93Z" stroke="#000"/></g><g id="bb6e58d1-7531-470f-9992-bb1b5f069f89" data-name="그룹 66"><path id="b698084d-ead4-4569-9bc0-88e42b10dc31" data-name="패스 101" d="M3924.76,177.83h77.76V1250.38H285.14v-774" fill="none" stroke="#000"/><path id="fb608de7-d5bb-465f-b6b6-6eac849477b1" data-name="rightEdge-26" d="M279.78,478h0l4.94-9.25,4.93,9.25Z" stroke="#000"/><g id="f3b96cdc-a2f5-48a5-ae33-87e9e0a5bcc0" data-name="leftEdge-26"><circle cx="3924.65" cy="177.42" r="4.93"/><circle cx="3924.65" cy="177.42" r="4.43" fill="none" stroke="#000"/></g></g><g id="e16797db-4609-463e-bb1a-b0a7fad6b273" data-name="그룹 49"><rect id="bfe8a53e-1829-4bbe-a9ba-f7dd9aefbc16" data-name="사각형 1-3" x="3677" y="851.52" width="56" height="56" rx="2" fill="#1a1311"/><g id="faab7b1f-6374-4272-ad24-595cf7961810" data-name="사각형 3"><rect x="3677" y="768.52" width="56" height="56" rx="2" fill="#a60505"/><rect x="3678" y="769.52" width="54" height="54" rx="1" fill="none" stroke="#a60505" stroke-width="2"/></g><g id="f30c1de3-a9c8-458b-ad11-4cd123f07c5d" data-name="사각형 2"><rect x="3677" y="934.52" width="56" height="56" rx="2" fill="#fff"/><rect x="3677.5" y="935.02" width="55" height="55" rx="1.5" fill="none" stroke="#000"/></g><g id="e49f8a24-9e59-4ca7-a0fb-4d24e120955e" data-name="사각형 4"><rect x="3677" y="1017.52" width="56" height="56" rx="2" transform="translate(345.88 2926.06) rotate(-45)" fill="#fff"/><rect x="3677.5" y="1018.02" width="55" height="55" rx="1.5" transform="translate(345.88 2926.06) rotate(-45)" fill="none" stroke="#000"/></g><g id="b5891c1d-8e17-4ea2-80b9-4eac5e9a1019" data-name="Page-3" style="isolation:isolate"><text transform="translate(3760 886.52)" font-size="20" fill="#707070" font-family="Nunito-Regular, Nunito" style="isolation:isolate"><tspan letter-spacing="-0.01em">P</tspan><tspan x="12.68" y="0">age</tspan></text></g><g id="f43eea7f-d075-4db1-8046-ffdb1c3dc18f" data-name="Start Finish-3" style="isolation:isolate"><text transform="translate(3760 803.52)" font-size="20" fill="#707070" font-family="Nunito-Regular, Nunito" style="isolation:isolate"><tspan letter-spacing="0em">S</tspan><tspan x="12.28" y="0" letter-spacing="0em">ta</tspan><tspan x="29.68" y="0" letter-spacing="0.04em">r</tspan><tspan x="37.52" y="0">t / </tspan><tspan x="60.3" y="0" letter-spacing="0.04em">F</tspan><tspan x="72.24" y="0" letter-spacing="0em">inish</tspan></text></g><g id="b9fade2b-3ce7-4cb0-b838-2dc7c89c7046" data-name=" Legend " style="isolation:isolate"><text transform="translate(3677 709.52)" font-size="30" fill="#707070" font-family="Nunito-Bold, Nunito" font-weight="700" style="isolation:isolate">&lt;<tspan x="18" y="0" letter-spacing="0em">L</tspan><tspan x="34.56" y="0">egend&gt;</tspan></text></g><g id="be7e7824-0cc9-4160-8fae-2aaa169cee12" data-name="Step Task-11" style="isolation:isolate"><text transform="translate(3760 969.52)" font-size="20" fill="#707070" font-family="Nunito-Regular, Nunito" style="isolation:isolate"><tspan letter-spacing="0em">S</tspan><tspan x="12.28" y="0" letter-spacing="0em">tep / </tspan><tspan x="57.24" y="0" letter-spacing="-0.08em">T</tspan><tspan x="67.68" y="0">ask</tspan></text></g><g id="be354546-6987-42fc-abd8-87b6daa21b7d" data-name="Decision-8" style="isolation:isolate"><text transform="translate(3760 1052.52)" font-size="20" fill="#707070" font-family="Nunito-Regular, Nunito" style="isolation:isolate">Decision</text></g><g id="aafd236b-13b4-465e-989c-cc6ae0504589" data-name="Yes" style="isolation:isolate"><text transform="translate(3760 1128.52)" font-size="20" fill="#707070" font-family="Nunito-Regular, Nunito" style="isolation:isolate"><tspan letter-spacing="-0.08em">Y</tspan><tspan x="10.5" y="0">es</tspan></text></g><g id="b73a5827-c2c7-4737-87f2-e5736a1c96a9" data-name="No" style="isolation:isolate"><text transform="translate(3760 1165.52)" font-size="20" fill="#707070" font-family="Nunito-Regular, Nunito" style="isolation:isolate">No</text></g><g id="b3446818-8e10-4e04-8580-005e45c006a6" data-name="사각형 5"><rect x="3634" y="656.52" width="298" height="542" fill="none"/><rect x="3634.5" y="657.02" width="297" height="541" fill="none" stroke="#707070"/></g><g id="a2141838-d1cd-44a7-a516-aee9a6d59bc0" data-name="N-2"><circle id="a82e1543-8f39-45dd-91a8-4f29416616b2" data-name="타원 3-2" cx="3704.72" cy="1159.23" r="12.72" fill="#fff" stroke="#1a1311" stroke-miterlimit="10"/><g id="ab5fa03f-2fee-4e46-9ef0-65b69dde0c19" data-name="그룹 9-2"><path id="b2f8f5cb-e41e-4545-bce4-1a7e86a183e4" data-name="패스 5-2" d="M3700.23,1164.55v-11L3708,1162v-8.07h1.2v11l-7.77-8.4v8Z" fill="#1a1311"/></g></g><g id="a80accfd-2341-44df-8fec-156288549975" data-name="Y-2"><circle id="ad75edda-069c-486b-a996-1a7ef1becebe" data-name="타원 1-2" cx="3704.72" cy="1122.23" r="12.72" fill="#fff" stroke="#1a1311" stroke-miterlimit="10"/><g id="bfc8268a-0b5a-4d60-a2ad-6c133e7e5274" data-name="그룹 5-2"><path id="a033565d-c49b-4c62-8f0c-360dff9c4d5e" data-name="패스 3-2" d="M3704.09,1128.06v-4.86l-3.6-5.76H3702l2.78,4.61,2.76-4.61H3709l-3.6,5.76v4.86Z" fill="#1a1311"/></g></g></g></g></g></svg>