<svg xmlns="http://www.w3.org/2000/svg" viewBox="0 0 3249.46 929.32"><title>자산 1</title><g id="aec74348-b372-41b6-a852-13b60eefe6e1" data-name="레이어 2"><g id="f942f7d0-c17b-47cb-a15b-24276ca8401c" data-name="레이어 1"><rect x="575.21" y="147.98" width="233.41" height="111.06" fill="#d9d9d9"/><rect x="2974.23" y="147.98" width="233.41" height="111.06" fill="#d9d9d9"/><rect x="834.97" y="147.98" width="502.35" height="111.06" fill="#d9d9d9"/><rect x="1363.66" y="147.98" width="1584.22" height="111.06" fill="#d9d9d9"/><rect x="55.69" y="630.69" width="3151.95" height="298.64" fill="#d9d9d9"/><rect x="55.69" y="147.98" width="233.41" height="111.06" fill="#d9d9d9"/><rect x="315.45" y="147.98" width="233.41" height="111.06" fill="#d9d9d9"/><polygon points="277.35 82.48 19.93 82.48 44.35 41.24 19.93 0 277.35 0 301.77 41.24 277.35 82.48" fill="#adacac"/><polyline points="305.31 21.39 317.7 41.24 305.31 61.09" fill="none" stroke="#647586" stroke-linecap="round" stroke-linejoin="round"/><polyline points="823.19 21.39 835.59 41.24 823.19 61.09" fill="none" stroke="#647586" stroke-linecap="round" stroke-linejoin="round"/><polyline points="2949.22 21.39 2961.61 41.24 2949.22 61.09" fill="none" stroke="#647586" stroke-linecap="round" stroke-linejoin="round"/><polyline points="3236.57 21.39 3248.96 41.24 3236.57 61.09" fill="none" stroke="#647586" stroke-linecap="round" stroke-linejoin="round"/><polygon points="795.09 82.48 308.49 82.48 332.92 41.24 308.49 0 795.09 0 819.52 41.24 795.09 82.48" fill="#adacac"/><polygon points="2921.25 82.48 829.52 82.48 853.94 41.24 829.52 0 2921.25 0 2945.68 41.24 2921.25 82.48" fill="#adacac"/><text transform="translate(1730.17 53.16)" font-size="39.09" fill="#fff" font-family="BarlowCondensed-Bold, Barlow Condensed" font-weight="700">INTE<tspan x="64.49" y="0" letter-spacing="0em">R</tspan><tspan x="83.1" y="0" letter-spacing="-0.02em">A</tspan><tspan x="101.2" y="0" letter-spacing="0em">CT </tspan><tspan x="145.44" y="0" letter-spacing="-0.02em">T</tspan><tspan x="162.99" y="0" letter-spacing="0em">O T</tspan><tspan x="207.59" y="0" letter-spacing="0em">H</tspan><tspan x="226.24" y="0" letter-spacing="0em">E IRCC</tspan></text><polygon points="3208.6 82.48 2951.19 82.48 2975.61 41.24 2951.19 0 3208.6 0 3233.03 41.24 3208.6 82.48" fill="#adacac"/><text transform="translate(73.82 53.16)" font-size="39.09" fill="#fff" font-family="BarlowCondensed-Bold, Barlow Condensed" font-weight="700" letter-spacing="-0.08em">A<tspan x="15.87" y="0" letter-spacing="-0.08em">W</tspan><tspan x="39.87" y="0" letter-spacing="0em">ARENESS</tspan></text><text transform="translate(67.82 200.72) scale(0.9 1)" font-size="26" fill="#232526" font-family="Nunito-Bold, Nunito" font-weight="700" letter-spacing="-0.01em">F<tspan x="14.46" y="0" letter-spacing="0em">riends</tspan></text><text transform="translate(333.15 200.72) scale(0.9 1)" font-size="26" fill="#232526" font-family="Nunito-Bold, Nunito" font-weight="700">N<tspan x="19.42" y="0" letter-spacing="-0.01em">e</tspan><tspan x="33.02" y="0" letter-spacing="-0.01em">w</tspan><tspan x="55.09" y="0">s</tspan></text><text transform="translate(863.79 200.72) scale(0.9 1)" font-size="26" fill="#232526" font-family="Nunito-Bold, Nunito" font-weight="700">I<tspan x="7.31" y="0" letter-spacing="0em">R</tspan><tspan x="25.25" y="0" letter-spacing="-0.01em">C</tspan><tspan x="42.54" y="0">C </tspan><tspan x="67.21" y="0" letter-spacing="-0.06em">W</tspan><tspan x="94.56" y="0" letter-spacing="0em">ebs</tspan><tspan x="136.6" y="0" letter-spacing="0.02em">i</tspan><tspan x="143.75" y="0">te</tspan></text><text transform="translate(1394.43 200.72) scale(0.9 1)" font-size="26" fill="#232526" font-family="Nunito-Bold, Nunito" font-weight="700">I<tspan x="7.31" y="0" letter-spacing="0em">R</tspan><tspan x="25.25" y="0" letter-spacing="-0.01em">C</tspan><tspan x="42.54" y="0">C Phone </tspan><tspan x="150.59" y="0" letter-spacing="-0.01em">C</tspan><tspan x="167.96" y="0">all</tspan></text><text transform="translate(2986.36 200.72) scale(0.9 1)" font-size="26" fill="#232526" font-family="Nunito-Bold, Nunito" font-weight="700">Mail</text><path d="M612.61,192.87a5,5,0,0,1,.79,2.86,4.63,4.63,0,0,1-1.51,3.66,6.06,6.06,0,0,1-4.16,1.33h-6a1.38,1.38,0,0,1-1.07-.42,1.62,1.62,0,0,1-.38-1.17V184a1.62,1.62,0,0,1,.38-1.17,1.38,1.38,0,0,1,1.07-.42h5.8a6,6,0,0,1,4,1.26,4.42,4.42,0,0,1,1.46,3.52,4.57,4.57,0,0,1-.69,2.53,4,4,0,0,1-1.91,1.56A4,4,0,0,1,612.61,192.87Zm-9.42-2.76H607c2.07,0,3.11-.86,3.11-2.57a2.35,2.35,0,0,0-.77-1.93A3.74,3.74,0,0,0,607,185h-3.82Zm6.6,7.36a2.54,2.54,0,0,0,.75-2,2.59,2.59,0,0,0-.76-2.05,3.51,3.51,0,0,0-2.37-.68h-4.22v5.41h4.22A3.6,3.6,0,0,0,609.79,197.47Z" fill="#232526"/><path d="M616.38,200.47a1.55,1.55,0,0,1-.41-1.15V183.79a1.51,1.51,0,0,1,.41-1.14,1.44,1.44,0,0,1,1-.39,1.41,1.41,0,0,1,1.48,1.53v15.53a1.52,1.52,0,0,1-.43,1.15,1.46,1.46,0,0,1-1.05.41A1.42,1.42,0,0,1,616.38,200.47Z" fill="#232526"/><path d="M624.06,200.12a5.31,5.31,0,0,1-2-2.31,8,8,0,0,1-.73-3.51,7.84,7.84,0,0,1,.73-3.5,5.28,5.28,0,0,1,2-2.3,6.24,6.24,0,0,1,6.15,0,5.32,5.32,0,0,1,2,2.3,8.13,8.13,0,0,1,.71,3.5,8.24,8.24,0,0,1-.71,3.51,5.35,5.35,0,0,1-2,2.31,6.24,6.24,0,0,1-6.15,0Zm5.23-2.75a6.72,6.72,0,0,0,0-6.13,2.75,2.75,0,0,0-4.32,0,5.16,5.16,0,0,0-.76,3.06,5.25,5.25,0,0,0,.75,3.07,2.49,2.49,0,0,0,2.15,1A2.53,2.53,0,0,0,629.29,197.37Z" fill="#232526"/><path d="M646.11,188.16a1.54,1.54,0,0,1,.4,1.12v10.27a6.21,6.21,0,0,1-1.5,4.52,5.88,5.88,0,0,1-4.42,1.54,7.92,7.92,0,0,1-4.26-1.07,1.64,1.64,0,0,1-.87-1.38,1.49,1.49,0,0,1,.25-.91.76.76,0,0,1,.64-.33,1.47,1.47,0,0,1,.52.11c.2.08.41.17.63.28a12.17,12.17,0,0,0,1.51.59,5.05,5.05,0,0,0,1.53.21c2,0,3.07-1.11,3.07-3.33v-1.66a3.87,3.87,0,0,1-1.5,1.65,4.34,4.34,0,0,1-2.25.59,4.56,4.56,0,0,1-2.65-.8,5.29,5.29,0,0,1-1.82-2.22,7.93,7.93,0,0,1-.65-3.3,8.06,8.06,0,0,1,.64-3.32,5.16,5.16,0,0,1,1.81-2.23,4.64,4.64,0,0,1,2.67-.8,4.34,4.34,0,0,1,2.25.59,3.87,3.87,0,0,1,1.5,1.65v-.68a1.53,1.53,0,0,1,.39-1.09,1.56,1.56,0,0,1,2.11,0Zm-3.29,8.66a4.46,4.46,0,0,0,.79-2.78,4.51,4.51,0,0,0-.79-2.81,2.86,2.86,0,0,0-4.36,0,4.45,4.45,0,0,0-.8,2.81,4.4,4.4,0,0,0,.8,2.78,2.86,2.86,0,0,0,4.36,0Z" fill="#232526"/><path d="M649.55,199.81a1.59,1.59,0,0,1-.75-1.4,1.35,1.35,0,0,1,.26-.85.76.76,0,0,1,.63-.32,2.38,2.38,0,0,1,1.1.41,10.07,10.07,0,0,0,1.37.6,5,5,0,0,0,1.58.21,2.71,2.71,0,0,0,1.53-.37,1.14,1.14,0,0,0,.55-1,1,1,0,0,0-.22-.7,1.89,1.89,0,0,0-.8-.48,14.4,14.4,0,0,0-1.74-.51,6.23,6.23,0,0,1-3-1.33,3.11,3.11,0,0,1-.91-2.36,3.75,3.75,0,0,1,.61-2.07,4.13,4.13,0,0,1,1.68-1.43,5.51,5.51,0,0,1,2.42-.51,6.27,6.27,0,0,1,1.89.28,5.31,5.31,0,0,1,1.64.79,1.61,1.61,0,0,1,.75,1.38,1.4,1.4,0,0,1-.26.87.77.77,0,0,1-.63.35,1.11,1.11,0,0,1-.5-.12,5.5,5.5,0,0,1-.62-.35,8.93,8.93,0,0,0-1.17-.58,3.31,3.31,0,0,0-1.22-.2,2.19,2.19,0,0,0-1.37.39,1.3,1.3,0,0,0-.5,1.07,1.12,1.12,0,0,0,.51,1,7,7,0,0,0,2,.67,10.42,10.42,0,0,1,2.46.83,3.12,3.12,0,0,1,1.28,1.17,3.81,3.81,0,0,1,.38,1.8,3.45,3.45,0,0,1-1.32,2.83,5.45,5.45,0,0,1-3.52,1.07A6.9,6.9,0,0,1,649.55,199.81Z" fill="#232526"/><path d="M663.38,197.63a3.07,3.07,0,0,1,.49,1.89,6.38,6.38,0,0,1-1.54,4.27.93.93,0,0,1-.66.34.85.85,0,0,1-.61-.26.89.89,0,0,1-.26-.63.92.92,0,0,1,.24-.6,4.09,4.09,0,0,0,.91-1.87,1.68,1.68,0,0,1-1.11-.58,1.87,1.87,0,0,1-.43-1.26,2.09,2.09,0,0,1,.48-1.4,1.6,1.6,0,0,1,2.49.1Z" fill="#232526"/><path d="M673.57,200.42a1.77,1.77,0,0,1-.41-1.23V184a1.62,1.62,0,0,1,.39-1.17,1.36,1.36,0,0,1,1.06-.42h5.76a5.61,5.61,0,1,1,0,11.21h-4.19v5.59a1.77,1.77,0,0,1-.41,1.23,1.44,1.44,0,0,1-1.11.46A1.4,1.4,0,0,1,673.57,200.42ZM683.1,188c0-2-1-3-3.11-3h-3.81v6H680C682.07,191,683.1,190,683.1,188Z" fill="#232526"/><path d="M690.07,200.12a5.31,5.31,0,0,1-2.05-2.31,8,8,0,0,1-.73-3.51,7.84,7.84,0,0,1,.73-3.5,5.28,5.28,0,0,1,2.05-2.3,6.24,6.24,0,0,1,6.15,0,5.32,5.32,0,0,1,2,2.3,8.13,8.13,0,0,1,.71,3.5,8.24,8.24,0,0,1-.71,3.51,5.35,5.35,0,0,1-2,2.31,6.24,6.24,0,0,1-6.15,0Zm5.23-2.75a6.72,6.72,0,0,0,0-6.13,2.75,2.75,0,0,0-4.32,0,5.16,5.16,0,0,0-.76,3.06,5.25,5.25,0,0,0,.75,3.07,2.49,2.49,0,0,0,2.15,1A2.53,2.53,0,0,0,695.3,197.37Z" fill="#232526"/><path d="M701.4,199.81a1.59,1.59,0,0,1-.75-1.4,1.35,1.35,0,0,1,.26-.85.76.76,0,0,1,.63-.32,2.35,2.35,0,0,1,1.1.41,10.07,10.07,0,0,0,1.37.6,5,5,0,0,0,1.58.21,2.66,2.66,0,0,0,1.53-.37,1.14,1.14,0,0,0,.55-1,1,1,0,0,0-.22-.7,1.85,1.85,0,0,0-.79-.48,15.28,15.28,0,0,0-1.75-.51,6.23,6.23,0,0,1-3-1.33,3.1,3.1,0,0,1-.9-2.36,3.67,3.67,0,0,1,.61-2.07,4,4,0,0,1,1.67-1.43,5.55,5.55,0,0,1,2.42-.51,6.33,6.33,0,0,1,1.9.28,5.25,5.25,0,0,1,1.63.79,1.61,1.61,0,0,1,.75,1.38,1.46,1.46,0,0,1-.25.87.8.8,0,0,1-.64.35,1.15,1.15,0,0,1-.5-.12,6.55,6.55,0,0,1-.62-.35,8.93,8.93,0,0,0-1.17-.58,3.31,3.31,0,0,0-1.22-.2,2.16,2.16,0,0,0-1.36.39,1.28,1.28,0,0,0-.51,1.07,1.11,1.11,0,0,0,.52,1,6.79,6.79,0,0,0,2,.67,10.48,10.48,0,0,1,2.45.83,3.06,3.06,0,0,1,1.28,1.17,3.69,3.69,0,0,1,.39,1.8,3.46,3.46,0,0,1-1.33,2.83,5.44,5.44,0,0,1-3.52,1.07A6.93,6.93,0,0,1,701.4,199.81Z" fill="#232526"/><path d="M719.73,199.63a1.12,1.12,0,0,1-.46,1,2.09,2.09,0,0,1-1.3.27l-.63,0q-3.93-.31-3.93-4.68v-5.67h-1.17a1.36,1.36,0,0,1-1-.31,1.39,1.39,0,0,1,0-1.82,1.36,1.36,0,0,1,1-.31h1.17v-2.4a1.55,1.55,0,0,1,.39-1.11,1.43,1.43,0,0,1,1.08-.42,1.36,1.36,0,0,1,1,.42,1.51,1.51,0,0,1,.4,1.11V188h2a1.36,1.36,0,0,1,1,.31,1.39,1.39,0,0,1,0,1.82,1.36,1.36,0,0,1-1,.31h-2v5.9c0,1.28.53,2,1.59,2.06l.64.05C719.33,198.51,719.73,198.9,719.73,199.63Z" fill="#232526"/><path d="M721.27,199.81a1.59,1.59,0,0,1-.75-1.4,1.35,1.35,0,0,1,.26-.85.76.76,0,0,1,.63-.32,2.38,2.38,0,0,1,1.1.41,9.56,9.56,0,0,0,1.37.6,5,5,0,0,0,1.58.21,2.71,2.71,0,0,0,1.53-.37,1.14,1.14,0,0,0,.55-1,1,1,0,0,0-.22-.7,1.89,1.89,0,0,0-.8-.48,14.4,14.4,0,0,0-1.74-.51,6.23,6.23,0,0,1-3-1.33,3.07,3.07,0,0,1-.91-2.36,3.75,3.75,0,0,1,.61-2.07,4.13,4.13,0,0,1,1.68-1.43,5.51,5.51,0,0,1,2.42-.51,6.31,6.31,0,0,1,1.89.28,5.31,5.31,0,0,1,1.64.79,1.61,1.61,0,0,1,.75,1.38,1.47,1.47,0,0,1-.26.87.77.77,0,0,1-.63.35,1.11,1.11,0,0,1-.5-.12,5.5,5.5,0,0,1-.62-.35,8.93,8.93,0,0,0-1.17-.58,3.35,3.35,0,0,0-1.22-.2,2.19,2.19,0,0,0-1.37.39,1.3,1.3,0,0,0-.5,1.07,1.12,1.12,0,0,0,.51,1,7,7,0,0,0,2,.67,10.42,10.42,0,0,1,2.46.83,3,3,0,0,1,1.27,1.17,3.69,3.69,0,0,1,.39,1.8,3.45,3.45,0,0,1-1.32,2.83,5.45,5.45,0,0,1-3.52,1.07A6.9,6.9,0,0,1,721.27,199.81Z" fill="#232526"/><path d="M735.1,197.63a3.07,3.07,0,0,1,.49,1.89,6.33,6.33,0,0,1-1.54,4.27.93.93,0,0,1-.66.34.85.85,0,0,1-.61-.26.89.89,0,0,1-.26-.63.92.92,0,0,1,.24-.6,4.09,4.09,0,0,0,.91-1.87,1.68,1.68,0,0,1-1.11-.58,1.87,1.87,0,0,1-.43-1.26,2.09,2.09,0,0,1,.48-1.4,1.6,1.6,0,0,1,2.49.1Z" fill="#232526"/><path d="M611.2,225.93a1.28,1.28,0,0,1-.35.89,1.06,1.06,0,0,1-.82.39,1.24,1.24,0,0,1-.91-.46l-6.59-6.87v5.94a1.54,1.54,0,0,1-.35,1,1.19,1.19,0,0,1-.94.39,1.17,1.17,0,0,1-.92-.39,1.54,1.54,0,0,1-.35-1V212.91a1.49,1.49,0,0,1,.35-1,1.2,1.2,0,0,1,.92-.38,1.21,1.21,0,0,1,.94.38,1.49,1.49,0,0,1,.35,1v5.65l6.37-6.64a1,1,0,0,1,1.62,0,1.27,1.27,0,0,1,.34.89,1.31,1.31,0,0,1-.39.92l-5.33,5.41L610.8,225A1.3,1.3,0,0,1,611.2,225.93Z" fill="#232526"/><path d="M614.53,226.61a4.52,4.52,0,0,1-1.73-2,6.76,6.76,0,0,1-.61-3,6.69,6.69,0,0,1,.61-3,4.52,4.52,0,0,1,1.73-1.95,5,5,0,0,1,2.61-.68,4.92,4.92,0,0,1,2.6.68,4.37,4.37,0,0,1,1.72,1.95,6.69,6.69,0,0,1,.61,3,6.76,6.76,0,0,1-.61,3,4.37,4.37,0,0,1-1.72,2,4.83,4.83,0,0,1-2.6.69A4.89,4.89,0,0,1,614.53,226.61Zm4.43-2.33a5.64,5.64,0,0,0,0-5.18,2.1,2.1,0,0,0-1.82-.89,2.13,2.13,0,0,0-1.83.89,5.52,5.52,0,0,0,0,5.18,2.1,2.1,0,0,0,1.82.88A2.12,2.12,0,0,0,619,224.28Z" fill="#232526"/><path d="M630.33,216.38a1.18,1.18,0,0,1,.29.86,1.28,1.28,0,0,1-.25.88,1.55,1.55,0,0,1-.94.38l-.59.06a2.31,2.31,0,0,0-1.71.88,3,3,0,0,0-.55,1.87v4.62a1.32,1.32,0,0,1-.35,1,1.24,1.24,0,0,1-.89.34,1.22,1.22,0,0,1-.89-.34,1.31,1.31,0,0,1-.34-1v-8.51a1.26,1.26,0,0,1,.34-.95,1.22,1.22,0,0,1,.87-.33,1.13,1.13,0,0,1,.83.32,1.24,1.24,0,0,1,.31.91v.88a3.23,3.23,0,0,1,1.12-1.49,3.31,3.31,0,0,1,1.66-.6l.27,0A1,1,0,0,1,630.33,216.38Z" fill="#232526"/><path d="M639.7,224.46a1.28,1.28,0,0,1,.21.77,1.36,1.36,0,0,1-.73,1.14,6.27,6.27,0,0,1-1.53.67,5.69,5.69,0,0,1-1.62.26,4.75,4.75,0,0,1-3.7-1.5,5.84,5.84,0,0,1-1.37-4.09,7,7,0,0,1,.59-2.93,4.68,4.68,0,0,1,1.68-2,4.35,4.35,0,0,1,2.44-.7,4,4,0,0,1,2.28.64,4.12,4.12,0,0,1,1.5,1.8,6.49,6.49,0,0,1,.54,2.75c0,.63-.25,1-.75,1h-5.85a3.66,3.66,0,0,0,.78,2.23,2.42,2.42,0,0,0,1.9.71,3.25,3.25,0,0,0,1.12-.17,10.55,10.55,0,0,0,1.1-.49,2,2,0,0,1,.87-.35A.65.65,0,0,1,639.7,224.46Zm-5.58-5.72a3.47,3.47,0,0,0-.73,2h4.48a3.38,3.38,0,0,0-.6-2,1.83,1.83,0,0,0-1.54-.7A2,2,0,0,0,634.12,218.74Z" fill="#232526"/><path d="M649.2,217.21a5,5,0,0,1,1,3.38V226a1.33,1.33,0,0,1-.31.94,1.12,1.12,0,0,1-.87.34,1.09,1.09,0,0,1-.84-.35,1.32,1.32,0,0,1-.33-.93v-.48a2.84,2.84,0,0,1-1.06,1.34,3,3,0,0,1-1.67.49,3.63,3.63,0,0,1-1.77-.44,3.35,3.35,0,0,1-1.24-1.21,3.28,3.28,0,0,1-.46-1.72,2.93,2.93,0,0,1,.54-1.87,3.21,3.21,0,0,1,1.78-1,14.25,14.25,0,0,1,3.38-.31h.5v-.5a2.43,2.43,0,0,0-.42-1.58,1.64,1.64,0,0,0-1.34-.49,4,4,0,0,0-1.17.18q-.6.19-1.41.54a1.85,1.85,0,0,1-.75.29.71.71,0,0,1-.58-.29,1.11,1.11,0,0,1-.23-.74,1.15,1.15,0,0,1,.17-.65,1.58,1.58,0,0,1,.56-.52,5.92,5.92,0,0,1,1.65-.66,7.77,7.77,0,0,1,1.89-.24A3.79,3.79,0,0,1,649.2,217.21Zm-2,7.37a2.83,2.83,0,0,0,.63-1.9v-.47h-.36a12,12,0,0,0-2.06.14,1.84,1.84,0,0,0-1,.46,1.25,1.25,0,0,0-.31.9,1.58,1.58,0,0,0,.44,1.15,1.47,1.47,0,0,0,1.1.46A2,2,0,0,0,647.2,224.58Z" fill="#232526"/><path d="M660.92,217.2a5.43,5.43,0,0,1,.85,3.32v5.41a1.36,1.36,0,0,1-.33,1,1.19,1.19,0,0,1-.9.35,1.21,1.21,0,0,1-.91-.35,1.32,1.32,0,0,1-.34-1v-5.26a3.11,3.11,0,0,0-.42-1.82,1.57,1.57,0,0,0-1.34-.57,2.17,2.17,0,0,0-1.71.74,3,3,0,0,0-.65,2v4.9a1.36,1.36,0,0,1-.33,1,1.23,1.23,0,0,1-.91.35,1.16,1.16,0,0,1-.9-.35,1.36,1.36,0,0,1-.33-1v-8.51a1.29,1.29,0,0,1,.34-.93,1.2,1.2,0,0,1,.91-.35,1.15,1.15,0,0,1,.84.34,1.23,1.23,0,0,1,.32.89v.6a3.56,3.56,0,0,1,1.33-1.39,3.7,3.7,0,0,1,1.88-.48A3.07,3.07,0,0,1,660.92,217.2Z" fill="#232526"/><path d="M671.4,226.61a4.43,4.43,0,0,1-1.69-1.93,7.36,7.36,0,0,1,0-5.89,4.66,4.66,0,0,1,1.75-2,4.79,4.79,0,0,1,2.59-.7,5.28,5.28,0,0,1,1.56.24A4.71,4.71,0,0,1,677,217a1.39,1.39,0,0,1,.64,1.17,1.33,1.33,0,0,1-.21.78.65.65,0,0,1-.55.29,1,1,0,0,1-.45-.11,3.77,3.77,0,0,1-.48-.26,4.89,4.89,0,0,0-.83-.45,2.31,2.31,0,0,0-.91-.17,2.22,2.22,0,0,0-1.89.89,4.28,4.28,0,0,0-.66,2.57,4.22,4.22,0,0,0,.66,2.54,2.43,2.43,0,0,0,2.77.72,6.57,6.57,0,0,0,.86-.45,3.19,3.19,0,0,1,.52-.29,1,1,0,0,1,.44-.1.63.63,0,0,1,.53.31,1.32,1.32,0,0,1,.22.77,1.29,1.29,0,0,1-.15.64,1.37,1.37,0,0,1-.49.5,5.07,5.07,0,0,1-1.42.69,5.55,5.55,0,0,1-1.67.26A4.67,4.67,0,0,1,671.4,226.61Z" fill="#232526"/><path d="M681.12,226.61a4.52,4.52,0,0,1-1.73-2,6.76,6.76,0,0,1-.61-3,6.69,6.69,0,0,1,.61-3,4.52,4.52,0,0,1,1.73-1.95,5.33,5.33,0,0,1,5.21,0,4.37,4.37,0,0,1,1.72,1.95,6.83,6.83,0,0,1,.61,3,6.91,6.91,0,0,1-.61,3,4.37,4.37,0,0,1-1.72,2,5.26,5.26,0,0,1-5.21,0Zm4.43-2.33a5.64,5.64,0,0,0,0-5.18,2.12,2.12,0,0,0-1.82-.89,2.14,2.14,0,0,0-1.84.89,5.6,5.6,0,0,0,0,5.18,2.35,2.35,0,0,0,3.67,0Z" fill="#232526"/><path d="M704.62,217.14a5.42,5.42,0,0,1,.85,3.38v5.41a1.32,1.32,0,0,1-.35,1,1.21,1.21,0,0,1-.9.34,1.18,1.18,0,0,1-.88-.34,1.32,1.32,0,0,1-.35-1v-5.41a2.94,2.94,0,0,0-.39-1.73,1.37,1.37,0,0,0-1.17-.51,1.86,1.86,0,0,0-1.55.73,3.23,3.23,0,0,0-.57,2v4.9a1.32,1.32,0,0,1-.35,1,1.18,1.18,0,0,1-.88.34,1.22,1.22,0,0,1-.89-.34,1.28,1.28,0,0,1-.36-1v-5.41a3,3,0,0,0-.38-1.73,1.39,1.39,0,0,0-1.18-.51,1.84,1.84,0,0,0-1.54.73,3.3,3.3,0,0,0-.56,2v4.9a1.28,1.28,0,0,1-.36,1,1.32,1.32,0,0,1-1.77,0,1.32,1.32,0,0,1-.35-1v-8.51a1.23,1.23,0,0,1,.36-.95,1.27,1.27,0,0,1,.89-.33,1.14,1.14,0,0,1,.84.32,1.21,1.21,0,0,1,.33.91v.53a3.19,3.19,0,0,1,3-1.8,2.84,2.84,0,0,1,2.91,2,3.47,3.47,0,0,1,1.29-1.47,3.42,3.42,0,0,1,1.92-.55A2.94,2.94,0,0,1,704.62,217.14Z" fill="#232526"/><path d="M721.91,217.14a5.43,5.43,0,0,1,.84,3.38v5.41a1.32,1.32,0,0,1-.35,1,1.21,1.21,0,0,1-.9.34,1.2,1.2,0,0,1-.88-.34,1.31,1.31,0,0,1-.34-1v-5.41a2.94,2.94,0,0,0-.39-1.73,1.39,1.39,0,0,0-1.18-.51,1.84,1.84,0,0,0-1.54.73,3.17,3.17,0,0,0-.58,2v4.9a1.31,1.31,0,0,1-.34,1,1.21,1.21,0,0,1-.88.34,1.25,1.25,0,0,1-.9-.34,1.32,1.32,0,0,1-.35-1v-5.41a2.94,2.94,0,0,0-.39-1.73,1.39,1.39,0,0,0-1.18-.51A1.83,1.83,0,0,0,711,219a3.23,3.23,0,0,0-.56,2v4.9a1.28,1.28,0,0,1-.36,1,1.24,1.24,0,0,1-.89.34,1.18,1.18,0,0,1-.88-.34,1.28,1.28,0,0,1-.35-1v-8.51a1.19,1.19,0,0,1,1.25-1.28,1.17,1.17,0,0,1,.84.32,1.21,1.21,0,0,1,.33.91v.53a3.29,3.29,0,0,1,1.21-1.34,3.33,3.33,0,0,1,1.76-.46,2.84,2.84,0,0,1,2.91,2,3.51,3.51,0,0,1,1.28-1.47,3.45,3.45,0,0,1,1.92-.55A3,3,0,0,1,721.91,217.14Z" fill="#232526"/><path d="M733.82,216.49a1.35,1.35,0,0,1,.34.95V226a1.25,1.25,0,0,1-.35.92,1.22,1.22,0,0,1-.9.35,1.11,1.11,0,0,1-.85-.33,1.21,1.21,0,0,1-.32-.9v-.55a3.27,3.27,0,0,1-3,1.83c-2.38,0-3.56-1.49-3.56-4.45v-5.41a1.34,1.34,0,0,1,.33-.95,1.33,1.33,0,0,1,1.8,0,1.3,1.3,0,0,1,.34.95v5.43a2.8,2.8,0,0,0,.42,1.7,1.53,1.53,0,0,0,1.3.55,2.07,2.07,0,0,0,1.66-.76,3.11,3.11,0,0,0,.62-2v-4.91a1.3,1.3,0,0,1,.34-.95,1.18,1.18,0,0,1,.89-.35A1.23,1.23,0,0,1,733.82,216.49Z" fill="#232526"/><path d="M745,217.2a5.43,5.43,0,0,1,.85,3.32v5.41a1.36,1.36,0,0,1-.33,1,1.19,1.19,0,0,1-.9.35,1.21,1.21,0,0,1-.91-.35,1.32,1.32,0,0,1-.34-1v-5.26a3.11,3.11,0,0,0-.42-1.82,1.57,1.57,0,0,0-1.34-.57,2.17,2.17,0,0,0-1.71.74,3,3,0,0,0-.65,2v4.9a1.36,1.36,0,0,1-.33,1,1.23,1.23,0,0,1-.91.35,1.16,1.16,0,0,1-.9-.35,1.36,1.36,0,0,1-.33-1v-8.51a1.29,1.29,0,0,1,.34-.93,1.2,1.2,0,0,1,.91-.35,1.15,1.15,0,0,1,.84.34,1.23,1.23,0,0,1,.32.89v.6a3.56,3.56,0,0,1,1.33-1.39,3.7,3.7,0,0,1,1.88-.48A3.07,3.07,0,0,1,745,217.2Z" fill="#232526"/><path d="M748.47,213.78a1.49,1.49,0,0,1-.4-1.07,1.52,1.52,0,0,1,2.53-1.06,1.42,1.42,0,0,1,.4,1.06,1.48,1.48,0,0,1-.39,1.07,1.43,1.43,0,0,1-1.07.4A1.42,1.42,0,0,1,748.47,213.78Zm.19,13.13a1.32,1.32,0,0,1-.35-1v-8.49a1.28,1.28,0,0,1,.35-1,1.22,1.22,0,0,1,.88-.33,1.19,1.19,0,0,1,1.25,1.3v8.49a1.28,1.28,0,0,1-.36,1,1.22,1.22,0,0,1-.89.34A1.18,1.18,0,0,1,748.66,226.91Z" fill="#232526"/><path d="M759.78,226.2a.91.91,0,0,1-.39.8,1.71,1.71,0,0,1-1.1.23l-.53,0q-3.33-.27-3.33-4v-4.8h-1a1.19,1.19,0,0,1-.82-.26,1,1,0,0,1-.29-.77,1,1,0,0,1,.29-.77,1.14,1.14,0,0,1,.82-.27h1v-2a1.3,1.3,0,0,1,.34-1,1.33,1.33,0,0,1,1.8,0,1.35,1.35,0,0,1,.34,1v2h1.68a1.16,1.16,0,0,1,.82.27,1,1,0,0,1,.29.77,1,1,0,0,1-.29.77,1.2,1.2,0,0,1-.82.26h-1.68v5c0,1.09.44,1.67,1.34,1.74l.54.05Q759.78,225.27,759.78,226.2Z" fill="#232526"/><path d="M761.22,213.78a1.48,1.48,0,0,1-.39-1.07,1.51,1.51,0,0,1,2.52-1.06,1.43,1.43,0,0,1,.41,1.06,1.49,1.49,0,0,1-.4,1.07,1.42,1.42,0,0,1-1.07.4A1.43,1.43,0,0,1,761.22,213.78Zm.19,13.13a1.32,1.32,0,0,1-.35-1v-8.49a1.28,1.28,0,0,1,.35-1,1.22,1.22,0,0,1,.88-.33,1.19,1.19,0,0,1,1.25,1.3v8.49a1.28,1.28,0,0,1-.36,1,1.22,1.22,0,0,1-.89.34A1.18,1.18,0,0,1,761.41,226.91Z" fill="#232526"/><path d="M774.3,224.46a1.28,1.28,0,0,1,.21.77,1.35,1.35,0,0,1-.74,1.14,6,6,0,0,1-1.52.67,5.69,5.69,0,0,1-1.62.26,4.77,4.77,0,0,1-3.71-1.5,5.84,5.84,0,0,1-1.36-4.09,6.82,6.82,0,0,1,.59-2.93,4.66,4.66,0,0,1,1.67-2,4.39,4.39,0,0,1,2.45-.7,4,4,0,0,1,2.28.64,4.19,4.19,0,0,1,1.5,1.8,6.49,6.49,0,0,1,.54,2.75c0,.63-.26,1-.76,1H768a3.72,3.72,0,0,0,.77,2.23,2.45,2.45,0,0,0,1.91.71,3.16,3.16,0,0,0,1.11-.17,9.7,9.7,0,0,0,1.1-.49,2.14,2.14,0,0,1,.87-.35A.65.65,0,0,1,774.3,224.46Zm-5.58-5.72a3.47,3.47,0,0,0-.73,2h4.48a3.38,3.38,0,0,0-.6-2,1.84,1.84,0,0,0-1.54-.7A2,2,0,0,0,768.72,218.74Z" fill="#232526"/><path d="M776.62,226.35a1.34,1.34,0,0,1-.63-1.19,1.08,1.08,0,0,1,.22-.71.63.63,0,0,1,.53-.28,2,2,0,0,1,.93.35,9,9,0,0,0,1.16.51,4.21,4.21,0,0,0,1.34.18,2.4,2.4,0,0,0,1.3-.31,1,1,0,0,0,.46-.86.84.84,0,0,0-.19-.59,1.57,1.57,0,0,0-.67-.41,11.68,11.68,0,0,0-1.48-.43,5.39,5.39,0,0,1-2.52-1.12,2.63,2.63,0,0,1-.76-2,3.12,3.12,0,0,1,.51-1.75,3.43,3.43,0,0,1,1.42-1.21,4.64,4.64,0,0,1,2-.43,5.34,5.34,0,0,1,1.6.23,4.6,4.6,0,0,1,1.39.67,1.35,1.35,0,0,1,.63,1.17,1.17,1.17,0,0,1-.22.73.63.63,0,0,1-.53.3.94.94,0,0,1-.43-.1,4.62,4.62,0,0,1-.52-.3,7.44,7.44,0,0,0-1-.49,2.81,2.81,0,0,0-1-.17,1.84,1.84,0,0,0-1.16.33,1.1,1.1,0,0,0-.43.91.94.94,0,0,0,.44.83,5.8,5.8,0,0,0,1.68.57,8.72,8.72,0,0,1,2.08.71,2.49,2.49,0,0,1,1.08,1,3.08,3.08,0,0,1,.33,1.52,2.94,2.94,0,0,1-1.12,2.39,4.57,4.57,0,0,1-3,.91A5.91,5.91,0,0,1,776.62,226.35Z" fill="#232526"/><text transform="translate(509.44 53.16)" font-size="39.09" fill="#fff" font-family="BarlowCondensed-Bold, Barlow Condensed" font-weight="700"><tspan letter-spacing="0em">S</tspan><tspan x="17.24" y="0" letter-spacing="0.02em">E</tspan><tspan x="34.98" y="0">ARCH</tspan></text><text transform="translate(3014.67 53.16)" font-size="39.09" fill="#fff" font-family="BarlowCondensed-Bold, Barlow Condensed" font-weight="700">COMPLETE</text><text transform="translate(81.55 742.52) scale(0.9 1)" font-size="24" fill="#232526" font-family="Nunito-Regular, Nunito" letter-spacing="0.03em">Ma<tspan x="34.34" y="0" letter-spacing="0.04em">y</tspan><tspan x="47.71" y="0">be I can g</tspan><tspan x="158.16" y="0" letter-spacing="0.03em">e</tspan><tspan x="171.45" y="0" letter-spacing="0.03em">t </tspan><tspan x="187.24" y="0" letter-spacing="0.04em">i</tspan><tspan x="193.72" y="0">t </tspan><tspan x="79.71" y="26">too!</tspan></text><text transform="translate(80.88 679.27) scale(0.9 1)" font-size="26" fill="#232526" font-family="Nunito-Bold, Nunito" font-weight="700">Hear that friends <tspan x="17.07" y="28">g</tspan><tspan x="32.8" y="28" letter-spacing="0em">o</tspan><tspan x="47.67" y="28">t </tspan><tspan x="64.31" y="28" letter-spacing="-0.01em">r</tspan><tspan x="74.01" y="28">eli</tspan><tspan x="101.02" y="28" letter-spacing="0em">e</tspan><tspan x="114.75" y="28">f fund</tspan></text><text transform="translate(344.6 742.52) scale(0.9 1)" font-size="24" fill="#232526" font-family="Nunito-Regular, Nunito" letter-spacing="0.03em">I’m n<tspan x="55.51" y="0" letter-spacing="0.03em">o</tspan><tspan x="69.53" y="0">t in the case </tspan><tspan x="-12.3" y="26">that the g</tspan><tspan x="98.46" y="26" letter-spacing="0.02em">ov</tspan><tspan x="125.27" y="26">ernment </tspan><tspan x="-0.5" y="52">said as a case, but </tspan><tspan x="-4.73" y="78">some </tspan><tspan x="63" y="78" letter-spacing="0.03em">o</tspan><tspan x="77.01" y="78">f my friends </tspan><tspan x="19.18" y="104">g</tspan><tspan x="33.96" y="104" letter-spacing="0.03em">o</tspan><tspan x="47.98" y="104">t the mon</tspan><tspan x="156.84" y="104" letter-spacing="0.02em">e</tspan><tspan x="170.06" y="104" letter-spacing="-0.01em">y</tspan><tspan x="182.25" y="104">.</tspan></text><text transform="translate(348.52 679.27) scale(0.9 1)" font-size="26" fill="#232526" font-family="Nunito-Bold, Nunito" font-weight="700">Sea<tspan x="44.43" y="0" letter-spacing="-0.01em">r</tspan><tspan x="54.13" y="0">ch the n</tspan><tspan x="149.94" y="0" letter-spacing="-0.01em">e</tspan><tspan x="163.54" y="0" letter-spacing="-0.01em">w</tspan><tspan x="185.61" y="0">s </tspan><tspan x="-0.04" y="28">about </tspan><tspan x="76.27" y="28" letter-spacing="-0.01em">r</tspan><tspan x="85.97" y="28">eli</tspan><tspan x="112.98" y="28" letter-spacing="0em">e</tspan><tspan x="126.71" y="28">f fund</tspan></text><text transform="translate(601.18 742.52) scale(0.9 1)" font-size="24" fill="#232526" font-family="Nunito-Regular, Nunito" letter-spacing="0.01em">P<tspan x="15.82" y="0" letter-spacing="0.03em">eople say dif</tspan><tspan x="159.69" y="0" letter-spacing="0.03em">f</tspan><tspan x="168.16" y="0" letter-spacing="0.03em">e</tspan><tspan x="181.53" y="0" letter-spacing="0.02em">r</tspan><tspan x="190.48" y="0" letter-spacing="0.03em">ent </tspan><tspan letter-spacing="0.03em"><tspan x="21.74" y="26">in</tspan><tspan x="42.38" y="26" letter-spacing="0.03em">f</tspan><tspan x="50.86" y="26">ormation. But </tspan><tspan x="1.49" y="52">ma</tspan><tspan x="36.1" y="52" letter-spacing="0.04em">y</tspan><tspan x="49.46" y="52">be I can g</tspan><tspan x="159.91" y="52" letter-spacing="0.03em">e</tspan><tspan x="173.2" y="52" letter-spacing="0.03em">t the </tspan><tspan x="84.53" y="78">fund.</tspan></tspan></text><text transform="translate(601.78 679.27) scale(0.9 1)" font-size="26" fill="#232526" font-family="Nunito-Bold, Nunito" font-weight="700">Sea<tspan x="44.43" y="0" letter-spacing="-0.01em">r</tspan><tspan x="54.13" y="0">ch same cases</tspan></text><text transform="translate(880.88 742.52) scale(0.9 1)" font-size="24" fill="#232526" font-family="Nunito-Regular, Nunito" letter-spacing="0.03em">H<tspan x="18.91" y="0" letter-spacing="0.02em">o</tspan><tspan x="32.81" y="0">w can I log i</tspan><tspan x="169.65" y="0" letter-spacing="0.02em">n</tspan><tspan x="183.77" y="0">?</tspan><tspan letter-spacing="0.08em"><tspan x="-17.84" y="26">W</tspan><tspan x="10.62" y="26" letter-spacing="0.03em">hat is GC </tspan><tspan x="121.62" y="26" letter-spacing="0.03em">K</tspan><tspan x="137.29" y="26" letter-spacing="0.02em">e</tspan><tspan x="150.51" y="26" letter-spacing="0.03em">y and </tspan></tspan><tspan x="66.35" y="52">C</tspan><tspan x="83.31" y="52" letter-spacing="0.02em">R</tspan><tspan x="100.35" y="52" letter-spacing="-0.02em">A</tspan><tspan x="117.42" y="52">?</tspan></text><text transform="translate(935.11 679.27) scale(0.9 1)" font-size="26" fill="#232526" font-family="Nunito-Bold, Nunito" font-weight="700"><tspan letter-spacing="0em">L</tspan><tspan x="14.35" y="0">og in</tspan></text><text transform="translate(1143.97 742.52) scale(0.9 1)" font-size="24" fill="#232526" font-family="Nunito-Regular, Nunito" letter-spacing="0.03em">My add<tspan x="83.69" y="0" letter-spacing="0.02em">r</tspan><tspan x="92.64" y="0">ess is n</tspan><tspan x="177.19" y="0" letter-spacing="0.03em">o</tspan><tspan x="191.2" y="0">t </tspan><tspan letter-spacing="0.02em"><tspan x="54.96" y="26">v</tspan><tspan x="67.87" y="26" letter-spacing="0.03em">erified.</tspan></tspan><tspan letter-spacing="0.08em"><tspan x="-4.14" y="52">W</tspan><tspan x="24.32" y="52" letter-spacing="0.03em">hat should I d</tspan><tspan x="179.07" y="52" letter-spacing="0.02em">o</tspan><tspan x="192.87" y="52" letter-spacing="0.03em">?</tspan></tspan><tspan letter-spacing="0.03em"><tspan x="-11.75" y="78">L</tspan><tspan x="1.91" y="78" letter-spacing="0.03em">e</tspan><tspan x="15.2" y="78" letter-spacing="0.03em">t me t</tspan><tspan x="81.32" y="78" letter-spacing="0.06em">r</tspan><tspan x="91.23" y="78" letter-spacing="0.03em">y to phone </tspan></tspan><tspan x="-2.68" y="104">call to the number </tspan><tspan x="12.62" y="130">on the </tspan><tspan x="91.44" y="130" letter-spacing="0.02em">w</tspan><tspan x="112.22" y="130">ebs</tspan><tspan x="152.52" y="130" letter-spacing="0.04em">i</tspan><tspan x="159" y="130">te.</tspan></text><text transform="translate(1196.34 679.27) scale(0.9 1)" font-size="26" fill="#232526" font-family="Nunito-Bold, Nunito" font-weight="700">Sign in</text><text transform="translate(1396.99 742.52) scale(0.9 1)" font-size="24" fill="#232526" font-family="Nunito-Regular, Nunito" letter-spacing="0.03em">Automatic <tspan x="124.17" y="0" letter-spacing="0.02em">r</tspan><tspan x="133.13" y="0">esponse </tspan><tspan x="20.76" y="26">guided me to h</tspan><tspan x="191.3" y="26" letter-spacing="0.04em">i</tspan><tspan x="197.78" y="26">t </tspan><tspan x="27.26" y="52">some numbe</tspan><tspan x="172.75" y="52" letter-spacing="0.03em">rs</tspan><tspan x="193.94" y="52">. </tspan><tspan x="17.82" y="78">But </tspan><tspan x="64.69" y="78" letter-spacing="0.04em">i</tspan><tspan x="71.17" y="78">t&apos;s n</tspan><tspan x="119.58" y="78" letter-spacing="0.03em">o</tspan><tspan x="133.59" y="78">t clea</tspan><tspan x="194.7" y="78" letter-spacing="0.01em">r</tspan><tspan x="203.38" y="78">.</tspan></text><text transform="translate(1443.51 679.27) scale(0.9 1)" font-size="26" fill="#232526" font-family="Nunito-Bold, Nunito" font-weight="700">Phone call</text><text transform="translate(1677.77 742.52) scale(0.9 1)" font-size="24" fill="#232526" font-family="Nunito-Regular, Nunito" letter-spacing="-0.03em">W<tspan x="25.8" y="0" letter-spacing="0.03em">a</tspan><tspan x="39.24" y="0" letter-spacing="0.04em">i</tspan><tspan x="45.72" y="0" letter-spacing="0.03em">ting </tspan><tspan x="96.94" y="0" letter-spacing="0.03em">f</tspan><tspan x="105.41" y="0" letter-spacing="0.03em">or mo</tspan><tspan x="170.76" y="0" letter-spacing="0.02em">r</tspan><tspan x="179.71" y="0" letter-spacing="0.03em">e </tspan><tspan letter-spacing="0.03em"><tspan x="46.62" y="26">than 1h..</tspan></tspan></text><text transform="translate(1721.27 679.27) scale(0.9 1)" font-size="26" fill="#232526" font-family="Nunito-Bold, Nunito" font-weight="700"><tspan letter-spacing="-0.06em">W</tspan><tspan x="27.35" y="0">a</tspan><tspan x="41.39" y="0" letter-spacing="0.02em">i</tspan><tspan x="48.54" y="0">ting</tspan></text><text transform="translate(1940.35 742.52) scale(0.9 1)" font-size="24" fill="#232526" font-family="Nunito-Regular, Nunito" letter-spacing="0.07em">F<tspan x="15.05" y="0" letter-spacing="0.03em">ianlly conne</tspan><tspan x="150" y="0" letter-spacing="0.03em">c</tspan><tspan x="162.24" y="0" letter-spacing="0.03em">ted</tspan><tspan letter-spacing="0.03em"><tspan x="72.24" y="26">to </tspan><tspan x="102.07" y="26" letter-spacing="0.05em">A</tspan><tspan x="120.72" y="26" letter-spacing="0.03em">.</tspan><tspan x="-11.03" y="52">But A guided me to </tspan><tspan x="65.57" y="78">call </tspan><tspan x="110.71" y="78" letter-spacing="0.02em">B</tspan><tspan x="127.39" y="78">.</tspan></tspan></text><text transform="translate(1968.25 679.27) scale(0.9 1)" font-size="26" fill="#232526" font-family="Nunito-Bold, Nunito" font-weight="700"><tspan letter-spacing="-0.01em">C</tspan><tspan x="17.37" y="0">onne</tspan><tspan x="76.54" y="0" letter-spacing="0em">c</tspan><tspan x="89.31" y="0">ting</tspan></text><text transform="translate(2206.42 742.52) scale(0.9 1)" font-size="24" fill="#232526" font-family="Nunito-Regular, Nunito" letter-spacing="0.03em">Again <tspan x="73.94" y="0" letter-spacing="0.02em">w</tspan><tspan x="94.66" y="0">a</tspan><tspan x="108.1" y="0" letter-spacing="0.04em">i</tspan><tspan x="114.58" y="0">ting </tspan><tspan x="165.79" y="0" letter-spacing="0.03em">f</tspan><tspan x="174.26" y="0">or </tspan><tspan x="16.61" y="26">mo</tspan><tspan x="51.82" y="26" letter-spacing="0.02em">r</tspan><tspan x="60.77" y="26">e than 1h..</tspan></text><text transform="translate(2251.92 679.27) scale(0.9 1)" font-size="26" fill="#232526" font-family="Nunito-Bold, Nunito" font-weight="700"><tspan letter-spacing="-0.06em">W</tspan><tspan x="27.35" y="0">a</tspan><tspan x="41.39" y="0" letter-spacing="0.02em">i</tspan><tspan x="48.54" y="0">ting</tspan></text><text transform="translate(2459.23 742.52) scale(0.9 1)" font-size="24" fill="#232526" font-family="Nunito-Regular, Nunito" letter-spacing="0.03em">I <tspan x="13.78" y="0" letter-spacing="0.02em">e</tspan><tspan x="26.9" y="0">xplained all again </tspan><tspan x="3.78" y="26">but B guided me to </tspan><tspan x="77.65" y="52">call </tspan><tspan x="122.8" y="52" letter-spacing="0.05em">A</tspan><tspan x="141.44" y="52">.</tspan></text><text transform="translate(2498.89 679.27) scale(0.9 1)" font-size="26" fill="#232526" font-family="Nunito-Bold, Nunito" font-weight="700"><tspan letter-spacing="-0.01em">C</tspan><tspan x="17.37" y="0">onne</tspan><tspan x="76.54" y="0" letter-spacing="0em">c</tspan><tspan x="89.31" y="0">ting</tspan></text><text transform="translate(2741.88 742.52) scale(0.9 1)" font-size="24" fill="#232526" font-family="Nunito-Regular, Nunito" letter-spacing="0.03em">I’m so fru<tspan x="106.32" y="0" letter-spacing="0.03em">s</tspan><tspan x="118.44" y="0">t</tspan><tspan x="127.32" y="0" letter-spacing="0.03em">r</tspan><tspan x="136.41" y="0">ated </tspan><tspan x="39.5" y="26">and ti</tspan><tspan x="104.06" y="26" letter-spacing="0.02em">r</tspan><tspan x="113.01" y="26">ed. </tspan><tspan x="-9.19" y="52">Ma</tspan><tspan x="25.15" y="52" letter-spacing="0.04em">y</tspan><tspan x="38.52" y="52">be I’ll t</tspan><tspan x="114.93" y="52" letter-spacing="0.06em">r</tspan><tspan x="124.84" y="52">y later </tspan><tspan x="56.03" y="78">again..</tspan></text><text transform="translate(2784.82 679.27) scale(0.9 1)" font-size="26" fill="#232526" font-family="Nunito-Bold, Nunito" font-weight="700">Gi<tspan x="25.66" y="0" letter-spacing="-0.01em">v</tspan><tspan x="39.13" y="0">e up</tspan></text><text transform="translate(3003.09 742.52) scale(0.9 1)" font-size="24" fill="#232526" font-family="Nunito-Regular, Nunito" letter-spacing="0.03em">I do<tspan x="42.5" y="0" letter-spacing="0.01em">n</tspan><tspan x="56.4" y="0" letter-spacing="0.03em">’</tspan><tspan x="62.69" y="0">t kn</tspan><tspan x="105.55" y="0" letter-spacing="0.02em">o</tspan><tspan x="119.45" y="0">w </tspan><tspan x="147.29" y="0" letter-spacing="0.04em">w</tspan><tspan x="168.52" y="0" letter-spacing="0.03em">hy </tspan><tspan x="7.86" y="26">but I g</tspan><tspan x="81.08" y="26" letter-spacing="0.03em">o</tspan><tspan x="95.1" y="26">t a </tspan><tspan x="131.24" y="26" letter-spacing="0.02em">r</tspan><tspan x="140.19" y="26">eli</tspan><tspan x="166.14" y="26" letter-spacing="0.03em">e</tspan><tspan x="179.48" y="26">f </tspan><tspan x="-5.56" y="52">fund a</tspan><tspan x="66.61" y="52" letter-spacing="0.01em">f</tspan><tspan x="74.65" y="52">ter 1 </tspan><tspan x="135.03" y="52" letter-spacing="0.02em">w</tspan><tspan x="155.82" y="52" letter-spacing="0.03em">eek!</tspan><tspan x="-1.92" y="78">But can I use </tspan><tspan x="152.35" y="78" letter-spacing="0.04em">i</tspan><tspan x="158.83" y="78">t or </tspan><tspan x="73.63" y="104">n</tspan><tspan x="87.98" y="104" letter-spacing="0.03em">o</tspan><tspan x="102" y="104" letter-spacing="0.03em">t</tspan><tspan x="110.95" y="104">?</tspan><tspan x="-3.37" y="130">Should I call them </tspan><tspan x="-10.46" y="156">and check </tspan><tspan x="110.71" y="156" letter-spacing="0.04em">i</tspan><tspan x="117.19" y="156">t agai</tspan><tspan x="180.93" y="156" letter-spacing="0.02em">n</tspan><tspan x="195.04" y="156">?</tspan></text><text transform="translate(3037.8 679.27) scale(0.9 1)" font-size="26" fill="#232526" font-family="Nunito-Bold, Nunito" font-weight="700">G<tspan x="19.06" y="0" letter-spacing="-0.01em">e</tspan><tspan x="32.68" y="0">t CERB</tspan></text><text transform="translate(19.93 263.71) rotate(-90)" font-size="23.45" fill="#232526" font-family="BarlowCondensed-SemiBoldItalic, Barlow Condensed" font-weight="600" font-style="italic" letter-spacing="0em">T<tspan x="10.2" y="0" letter-spacing="0.02em">O</tspan><tspan x="21.29" y="0" letter-spacing="0.02em">U</tspan><tspan x="32.54" y="0" letter-spacing="0.02em">CH POINTS</tspan></text><text transform="translate(19.93 871.71) rotate(-90)" font-size="23.45" fill="#232526" font-family="BarlowCondensed-SemiBoldItalic, Barlow Condensed" font-weight="600" font-style="italic" letter-spacing="0.02em"> <tspan x="5.02" y="0" letter-spacing="0.01em">S</tspan><tspan x="15.15" y="0">TEPS &amp; EXPERIENCE</tspan></text><text transform="translate(19.93 473.85) rotate(-90)" font-size="23.45" fill="#232526" font-family="BarlowCondensed-SemiBoldItalic, Barlow Condensed" font-weight="600" font-style="italic" letter-spacing="0.02em">EMOTION</text><line x1="67.82" y1="437.29" x2="3195.51" y2="437.29" fill="none" stroke="#647586" stroke-miterlimit="10" stroke-width="0.5"/><path d="M191.67,303.78a19.27,19.27,0,1,1-19.27-19.27A19.27,19.27,0,0,1,191.67,303.78Z" fill="#fff" stroke="#647586" stroke-miterlimit="10" stroke-width="2"/><path d="M172.4,314.67a10.89,10.89,0,1,1,10.89-10.89A10.91,10.91,0,0,1,172.4,314.67Z" fill="#a40a11"/><path d="M457,437.29A19.27,19.27,0,1,1,437.72,418,19.27,19.27,0,0,1,457,437.29Z" fill="#fff" stroke="#647586" stroke-miterlimit="10" stroke-width="2"/><path d="M437.72,448.18a10.89,10.89,0,1,1,10.89-10.89A10.9,10.9,0,0,1,437.72,448.18Z" fill="#a40a11"/><path d="M987.63,437.29A19.27,19.27,0,1,1,968.36,418,19.27,19.27,0,0,1,987.63,437.29Z" fill="#fff" stroke="#647586" stroke-miterlimit="10" stroke-width="2"/><path d="M968.36,448.18a10.89,10.89,0,1,1,10.89-10.89A10.9,10.9,0,0,1,968.36,448.18Z" fill="#a40a11"/><path d="M1253,504.05a19.27,19.27,0,1,1-19.27-19.27A19.26,19.26,0,0,1,1253,504.05Z" fill="#fff" stroke="#647586" stroke-miterlimit="10" stroke-width="2"/><path d="M1233.68,514.94a10.9,10.9,0,1,1,10.9-10.89A10.91,10.91,0,0,1,1233.68,514.94Z" fill="#a40a11"/><path d="M1518.28,504.05A19.27,19.27,0,1,1,1499,484.78,19.26,19.26,0,0,1,1518.28,504.05Z" fill="#fff" stroke="#647586" stroke-miterlimit="10" stroke-width="2"/><path d="M1499,514.94a10.9,10.9,0,1,1,10.89-10.89A10.91,10.91,0,0,1,1499,514.94Z" fill="#a40a11"/><path d="M1783.6,570.8a19.27,19.27,0,1,1-19.27-19.27A19.27,19.27,0,0,1,1783.6,570.8Z" fill="#fff" stroke="#647586" stroke-miterlimit="10" stroke-width="2"/><path d="M1764.33,581.69a10.89,10.89,0,1,1,10.89-10.89A10.9,10.9,0,0,1,1764.33,581.69Z" fill="#a40a11"/><path d="M2048.92,370.53a19.27,19.27,0,1,1-19.27-19.26A19.27,19.27,0,0,1,2048.92,370.53Z" fill="#fff" stroke="#647586" stroke-miterlimit="10" stroke-width="2"/><path d="M2029.65,381.43a10.9,10.9,0,1,1,10.89-10.9A10.9,10.9,0,0,1,2029.65,381.43Z" fill="#a40a11"/><path d="M2314.24,504.05A19.27,19.27,0,1,1,2295,484.78,19.26,19.26,0,0,1,2314.24,504.05Z" fill="#fff" stroke="#647586" stroke-miterlimit="10" stroke-width="2"/><path d="M2295,514.94a10.9,10.9,0,1,1,10.9-10.89A10.91,10.91,0,0,1,2295,514.94Z" fill="#a40a11"/><path d="M3106.64,504.05a19.27,19.27,0,1,1-19.27-19.27A19.26,19.26,0,0,1,3106.64,504.05Z" fill="#fff" stroke="#647586" stroke-miterlimit="10" stroke-width="2"/><path d="M3087.37,514.94a10.9,10.9,0,1,1,10.9-10.89A10.91,10.91,0,0,1,3087.37,514.94Z" fill="#a40a11"/><path d="M2579.56,570.8a19.27,19.27,0,1,1-19.27-19.27A19.27,19.27,0,0,1,2579.56,570.8Z" fill="#fff" stroke="#647586" stroke-miterlimit="10" stroke-width="2"/><path d="M2560.29,581.69a10.89,10.89,0,1,1,10.9-10.89A10.91,10.91,0,0,1,2560.29,581.69Z" fill="#a40a11"/><path d="M2844.88,570.8a19.27,19.27,0,1,1-19.27-19.27A19.27,19.27,0,0,1,2844.88,570.8Z" fill="#fff" stroke="#647586" stroke-miterlimit="10" stroke-width="2"/><path d="M2825.61,581.69a10.89,10.89,0,1,1,10.9-10.89A10.91,10.91,0,0,1,2825.61,581.69Z" fill="#a40a11"/><path d="M722.31,370.53A19.27,19.27,0,1,1,703,351.27,19.27,19.27,0,0,1,722.31,370.53Z" fill="#fff" stroke="#647586" stroke-miterlimit="10" stroke-width="2"/><path d="M703,381.43a10.9,10.9,0,1,1,10.89-10.9A10.9,10.9,0,0,1,703,381.43Z" fill="#a40a11"/><line x1="191.67" y1="303.78" x2="418.45" y2="437.29" fill="#fff" stroke="#647586" stroke-miterlimit="10" stroke-width="2"/><line x1="456.99" y1="437.29" x2="683.77" y2="370.53" fill="#fff" stroke="#647586" stroke-miterlimit="10" stroke-width="2"/><line x1="722.31" y1="370.53" x2="949.09" y2="437.29" fill="#fff" stroke="#647586" stroke-miterlimit="10" stroke-width="2"/><line x1="987.63" y1="437.29" x2="1214.41" y2="504.05" fill="#fff" stroke="#647586" stroke-miterlimit="10" stroke-width="2"/><line x1="1252.95" y1="504.05" x2="1479.74" y2="504.05" fill="#fff" stroke="#647586" stroke-miterlimit="10" stroke-width="2"/><line x1="1518.28" y1="504.05" x2="1745.06" y2="570.8" fill="#fff" stroke="#647586" stroke-miterlimit="10" stroke-width="2"/><line x1="1783.6" y1="565.28" x2="2010.38" y2="370.53" fill="#fff" stroke="#647586" stroke-miterlimit="10" stroke-width="2"/><line x1="2048.92" y1="370.53" x2="2275.7" y2="504.05" fill="#fff" stroke="#647586" stroke-miterlimit="10" stroke-width="2"/><line x1="2314.24" y1="504.05" x2="2541.02" y2="570.8" fill="#fff" stroke="#647586" stroke-miterlimit="10" stroke-width="2"/><line x1="2579.56" y1="570.8" x2="2806.35" y2="570.8" fill="#fff" stroke="#647586" stroke-miterlimit="10" stroke-width="2"/><line x1="2844.88" y1="570.8" x2="3068.11" y2="504.05" fill="#fff" stroke="#647586" stroke-miterlimit="10" stroke-width="2"/><line x1="172.4" y1="323.05" x2="172.4" y2="324.05" fill="none" stroke="#a40a11" stroke-miterlimit="10"/><line x1="172.4" y1="326.05" x2="172.4" y2="628.69" fill="none" stroke="#a40a11" stroke-miterlimit="10" stroke-dasharray="2 2"/><line x1="172.4" y1="629.69" x2="172.4" y2="630.69" fill="none" stroke="#a40a11" stroke-miterlimit="10"/><line x1="437.72" y1="456.56" x2="437.72" y2="630.69" fill="none" stroke="#a40a11" stroke-miterlimit="10" stroke-dasharray="2"/><line x1="703.04" y1="389.8" x2="703.04" y2="630.69" fill="none" stroke="#a40a11" stroke-miterlimit="10" stroke-dasharray="2"/><line x1="968.36" y1="456.56" x2="968.36" y2="630.69" fill="none" stroke="#a40a11" stroke-miterlimit="10" stroke-dasharray="2"/><line x1="1233.68" y1="523.31" x2="1233.68" y2="630.69" fill="none" stroke="#a40a11" stroke-miterlimit="10" stroke-dasharray="2"/><line x1="1499.01" y1="523.31" x2="1499.01" y2="630.69" fill="none" stroke="#a40a11" stroke-miterlimit="10" stroke-dasharray="2"/><line x1="1764.33" y1="590.07" x2="1764.33" y2="630.69" fill="none" stroke="#a40a11" stroke-miterlimit="10" stroke-dasharray="2"/><line x1="2029.65" y1="389.8" x2="2029.65" y2="630.69" fill="none" stroke="#a40a11" stroke-miterlimit="10" stroke-dasharray="2"/><line x1="2294.97" y1="523.31" x2="2294.97" y2="630.69" fill="none" stroke="#a40a11" stroke-miterlimit="10" stroke-dasharray="2"/><line x1="2560.29" y1="590.07" x2="2560.29" y2="630.69" fill="none" stroke="#a40a11" stroke-miterlimit="10" stroke-dasharray="2"/><line x1="2825.61" y1="590.07" x2="2825.61" y2="630.69" fill="none" stroke="#a40a11" stroke-miterlimit="10" stroke-dasharray="2"/><line x1="3087.37" y1="523.31" x2="3087.37" y2="630.69" fill="none" stroke="#a40a11" stroke-miterlimit="10" stroke-dasharray="2"/></g></g></svg>