<svg id="레이어_1" data-name="레이어 1" xmlns="http://www.w3.org/2000/svg" xmlns:xlink="http://www.w3.org/1999/xlink" width="1457.2" height="391.1" viewBox="0 0 1457.2 391.1"><defs><style>.cls-1,.cls-16,.cls-17,.cls-3,.cls-5,.cls-7,.cls-9{fill:none;stroke-miterlimit:10;}.cls-1,.cls-3,.cls-5,.cls-7,.cls-9{stroke-width:5px;}.cls-1{stroke:url(#무제_그라디언트);}.cls-2{fill:url(#무제_그라디언트_2);}.cls-3{stroke:url(#무제_그라디언트_3);}.cls-4{fill:url(#무제_그라디언트_4);}.cls-5{stroke:url(#무제_그라디언트_5);}.cls-6{fill:url(#무제_그라디언트_6);}.cls-7{stroke:url(#무제_그라디언트_7);}.cls-8{fill:url(#무제_그라디언트_8);}.cls-9{stroke:url(#무제_그라디언트_9);}.cls-10{fill:url(#무제_그라디언트_10);}.cls-11,.cls-14,.cls-16,.cls-17,.cls-18,.cls-19,.cls-20{isolation:isolate;}.cls-12{fill:#232526;}.cls-13{fill:#d9d9d9;}.cls-14,.cls-18,.cls-19,.cls-20{fill:#d7121b;}.cls-14{opacity:0.22;}.cls-15{fill:#a40a11;}.cls-16,.cls-17{stroke:#a40a11;opacity:0.5;}.cls-16{stroke-width:4px;}.cls-17{stroke-width:2px;}.cls-18{opacity:0.1;}.cls-19{opacity:0.4;}.cls-20{opacity:0.6;}.cls-21{fill:#fff;}</style><linearGradient id="무제_그라디언트" x1="879.41" y1="240.14" x2="1123.16" y2="240.14" gradientTransform="matrix(1, 0, 0, -1, 0, 400)" gradientUnits="userSpaceOnUse"><stop offset="0" stop-color="#fff"/><stop offset="1" stop-color="#d7121b" stop-opacity="0.6"/></linearGradient><linearGradient id="무제_그라디언트_2" x1="879.41" y1="310.27" x2="1123.16" y2="310.27" xlink:href="#무제_그라디언트"/><linearGradient id="무제_그라디언트_3" x1="879.39" y1="98.04" x2="1123.47" y2="98.04" xlink:href="#무제_그라디언트"/><linearGradient id="무제_그라디언트_4" x1="879.39" y1="27.54" x2="1123.47" y2="27.54" xlink:href="#무제_그라디언트"/><linearGradient id="무제_그라디언트_5" x1="879.59" y1="204.24" x2="1123.39" y2="204.24" xlink:href="#무제_그라디언트"/><linearGradient id="무제_그라디언트_6" x1="879.58" y1="238.22" x2="1123.38" y2="238.22" xlink:href="#무제_그라디언트"/><linearGradient id="무제_그라디언트_7" x1="879.58" y1="134.09" x2="1123.38" y2="134.09" xlink:href="#무제_그라디언트"/><linearGradient id="무제_그라디언트_8" x1="879.58" y1="99.91" x2="1123.38" y2="99.91" xlink:href="#무제_그라디언트"/><linearGradient id="무제_그라디언트_9" x1="879.65" y1="169.77" x2="1123.18" y2="169.77" gradientTransform="matrix(1, 0, 0, -1, 0, 393.05)" xlink:href="#무제_그라디언트"/><linearGradient id="무제_그라디언트_10" x1="879.65" y1="170.22" x2="1123.18" y2="170.22" xlink:href="#무제_그라디언트"/></defs><title>ircc_solution2</title><g id="aad0691c-d8fb-47e7-a007-eb499e74b6d0"><path class="cls-1" d="M879.7,230.7s111.2-11.2,139.1-76.8c20.3-47.9,65.7-61.2,89.4-64.9" transform="translate(0 -6.9)"/><path class="cls-2" d="M1123.2,87.6c-6.8,3.3-15.1,8.7-20,14l3-12.3-5.5-11.4C1106.6,82.1,1115.8,85.7,1123.2,87.6Z" transform="translate(0 -6.9)"/><path class="cls-3" d="M1108.4,373.2c-23.6-3.7-69-17-89.3-64.9-27.9-65.6-139.4-77.6-139.4-77.6" transform="translate(0 -6.9)"/><path class="cls-4" d="M1123.5,374.6c-6.8-3.3-15.1-8.7-20-14l3,12.3-5.5,11.4C1106.9,380.1,1116.1,376.5,1123.5,374.6Z" transform="translate(0 -6.9)"/><path class="cls-5" d="M879.7,230.7s111-3.2,146.7-35c24.6-22,61.4-31.3,81.8-35" transform="translate(0 -6.9)"/><path class="cls-6" d="M1123.2,158.6c-6.7,3.7-14.7,9.4-19.4,14.9l2.5-12.4-6-11.1C1106.4,153.9,1115.8,157.1,1123.2,158.6Z" transform="translate(0 -6.9)"/><path class="cls-7" d="M1108.2,301.1c-20.4-3.6-57.2-13-81.8-35-35.7-31.8-146.7-35.4-146.7-35.4" transform="translate(0 -6.9)"/><path class="cls-8" d="M1123.2,303.3c-6.7-3.7-14.7-9.4-19.4-15l2.5,12.4-6,11.1C1106.4,308,1115.8,304.8,1123.2,303.3Z" transform="translate(0 -6.9)"/><line class="cls-9" x1="879.7" y1="223.8" x2="1108.1" y2="222.8"/><path class="cls-10" d="M1123.2,229.7c-7.1,2.6-15.9,7.2-21.4,12l4.3-11.9-4.4-11.9C1107.2,222.6,1116.1,227.1,1123.2,229.7Z" transform="translate(0 -6.9)"/><g class="cls-11"><path class="cls-12" d="M320.9,41.1,314.3,8V7.8c0-.3.1-.5.5-.5h6a.5.5,0,0,1,.6.6l2.8,17.6a.2.2,0,0,0,.2.2.3.3,0,0,0,.1-.2l2.6-17.6a.7.7,0,0,1,.7-.6h4.9a.7.7,0,0,1,.7.6l2.9,17.6c0,.1,0,.2.1.2l.2-.2L339,7.9a.7.7,0,0,1,.7-.6h5.8a.5.5,0,0,1,.5.7l-6.2,33.1c0,.3-.3.5-.7.5h-5.2a.7.7,0,0,1-.7-.5L330.3,23c0-.2-.1-.2-.1-.2l-.2.2-2.6,18.1c0,.3-.2.5-.6.5h-5.2A.7.7,0,0,1,320.9,41.1Z" transform="translate(0 -6.9)"/><path class="cls-12" d="M367,13.1l-.4.2H356.3c-.1,0-.2,0-.2.2v7.7c0,.2.1.3.2.3h5.9l.4.2a.5.5,0,0,1,.2.4v4.7a.5.5,0,0,1-.2.4c-.1.2-.2.2-.4.2h-5.9c-.1,0-.2.1-.2.3v7.8a.2.2,0,0,0,.2.2h10.3l.4.2a.5.5,0,0,1,.2.4V41a.5.5,0,0,1-.2.4.4.4,0,0,1-.4.2H349.8c-.2,0-.3,0-.4-.2s-.2-.2-.2-.4V7.9a.4.4,0,0,1,.2-.4l.4-.2h16.8l.4.2a.8.8,0,0,1,.2.4v4.8A.8.8,0,0,1,367,13.1Z" transform="translate(0 -6.9)"/><path class="cls-12" d="M387.6,39.2a10.5,10.5,0,0,1-7.1,2.4h-9.3a.4.4,0,0,1-.4-.2.5.5,0,0,1-.2-.4V7.9a.8.8,0,0,1,.2-.4l.4-.2h8.2a11.5,11.5,0,0,1,7.7,2.4c1.8,1.6,2.7,3.9,2.7,7s-1.1,5.6-3.3,7a.2.2,0,0,0,0,.3,9.7,9.7,0,0,1,3.8,8.2A9.1,9.1,0,0,1,387.6,39.2ZM377.5,13.5v7.7c0,.2.1.2.3.2h1.7a3.1,3.1,0,0,0,2.6-1,4,4,0,0,0,1-3,5,5,0,0,0-.9-3.1,3.3,3.3,0,0,0-2.7-1h-1.7C377.6,13.3,377.5,13.3,377.5,13.5Zm5,21a5.5,5.5,0,0,0,.9-3.4,5.9,5.9,0,0,0-.9-3.4,3.1,3.1,0,0,0-2.5-1.3h-2.2a.3.3,0,0,0-.3.3v8.7c0,.2.1.2.3.2h2.1A3,3,0,0,0,382.5,34.5Z" transform="translate(0 -6.9)"/><path class="cls-12" d="M397.5,40.9a8.1,8.1,0,0,1-3.4-3.2,9.8,9.8,0,0,1-1.1-4.6V31.6a.6.6,0,0,1,.1-.4l.5-.2h5.6l.4.2a.8.8,0,0,1,.2.4v1.1a3.6,3.6,0,0,0,.8,2.5,2.3,2.3,0,0,0,1.9.9,2.7,2.7,0,0,0,2-.9,3.4,3.4,0,0,0,.8-2.3,3.7,3.7,0,0,0-1-2.5,33.6,33.6,0,0,0-3.8-3.1,30.9,30.9,0,0,1-4-3.2,12.3,12.3,0,0,1-2.6-3.3,10.2,10.2,0,0,1-1.1-4.7,9,9,0,0,1,2.6-6.7,10.6,10.6,0,0,1,13.8.1,9.5,9.5,0,0,1,2.6,6.9v1.1c0,.2,0,.3-.2.4s-.2.2-.4.2h-5.6c-.2,0-.3,0-.4-.2a.5.5,0,0,1-.2-.4V16.2a3.6,3.6,0,0,0-.7-2.4,2.7,2.7,0,0,0-2-.9,2.4,2.4,0,0,0-1.9.8,3.6,3.6,0,0,0-.8,2.4,3.5,3.5,0,0,0,1,2.6,18,18,0,0,0,3.6,3.1c2,1.5,3.6,2.8,4.6,3.7a10.3,10.3,0,0,1,2.4,3.1,8.2,8.2,0,0,1,.9,4,9,9,0,0,1-2.7,6.9,9.5,9.5,0,0,1-6.9,2.5A11.2,11.2,0,0,1,397.5,40.9Z" transform="translate(0 -6.9)"/><path class="cls-12" d="M415.6,41.4c-.2-.1-.2-.2-.2-.4V7.9a.4.4,0,0,1,.2-.4.5.5,0,0,1,.4-.2h5.7l.4.2a.8.8,0,0,1,.2.4V41a.5.5,0,0,1-.2.4c-.1.2-.2.2-.4.2H416C415.8,41.6,415.7,41.6,415.6,41.4Z" transform="translate(0 -6.9)"/><path class="cls-12" d="M446.1,7.5a.6.6,0,0,1,.1.4v4.8a.6.6,0,0,1-.1.4l-.4.2h-6.2c-.1,0-.2,0-.2.2V41a.5.5,0,0,1-.2.4c-.1.2-.2.2-.4.2H433c-.2,0-.3,0-.4-.2s-.2-.2-.2-.4V13.5c0-.2-.1-.2-.3-.2h-5.8l-.5-.2a.6.6,0,0,1-.1-.4V7.9a.6.6,0,0,1,.1-.4l.5-.2h19.4Z" transform="translate(0 -6.9)"/><path class="cls-12" d="M467.4,13.1l-.4.2H456.7c-.1,0-.2,0-.2.2v7.7c0,.2.1.3.2.3h5.9a.7.7,0,0,1,.6.6v4.7a.5.5,0,0,1-.2.4c-.1.2-.2.2-.4.2h-5.9c-.1,0-.2.1-.2.3v7.8a.2.2,0,0,0,.2.2H467l.4.2c.1.1.1.2.1.4V41c0,.2,0,.3-.1.4a.4.4,0,0,1-.4.2H450.2a.6.6,0,0,1-.5-.2c-.1-.1-.1-.2-.1-.4V7.9a.6.6,0,0,1,.1-.4l.5-.2H467l.4.2a.6.6,0,0,1,.1.4v4.8A.6.6,0,0,1,467.4,13.1Z" transform="translate(0 -6.9)"/></g><g class="cls-11"><g class="cls-11"><path class="cls-12" d="M717.8,119.3l-.2-.4V85.8a.5.5,0,0,1,.2-.4c.1-.2.2-.2.4-.2h5.7c.2,0,.3,0,.4.2a.5.5,0,0,1,.2.4v33.1a.8.8,0,0,1-.2.4.5.5,0,0,1-.4.2h-5.7Z" transform="translate(0 -6.9)"/><path class="cls-12" d="M741.7,119l-3.8-13.5c0-.2-.1-.2-.2-.2H736c-.2,0-.2.1-.2.2v13.4a.8.8,0,0,1-.2.4l-.4.2h-5.8l-.4-.2a.6.6,0,0,1-.1-.4V85.8c0-.2,0-.3.1-.4a.4.4,0,0,1,.4-.2h9.9a8.6,8.6,0,0,1,4.8,1.3,9.5,9.5,0,0,1,3.3,3.6,11.9,11.9,0,0,1,1.1,5.4,10.4,10.4,0,0,1-1.1,5.1,7.7,7.7,0,0,1-3,3.4l-.2.2h0l4.5,14.5v.2c0,.3-.2.5-.6.5h-5.8A.7.7,0,0,1,741.7,119Zm-5.9-27.6v8.3c0,.2,0,.3.2.3h2.2a3.2,3.2,0,0,0,2.5-1.2,5.3,5.3,0,0,0,.9-3.2,5.4,5.4,0,0,0-.9-3.3,3.2,3.2,0,0,0-2.5-1.2H736C735.8,91.1,735.8,91.2,735.8,91.4Z" transform="translate(0 -6.9)"/><path class="cls-12" d="M754.1,117.2a9.1,9.1,0,0,1-2.7-7V94.3a9,9,0,0,1,2.7-6.9,9.8,9.8,0,0,1,7.1-2.6,10,10,0,0,1,7.1,2.6,9,9,0,0,1,2.7,6.9v.6a.5.5,0,0,1-.2.4l-.4.2-5.7.2c-.4,0-.6-.2-.6-.5V93.9a3.6,3.6,0,0,0-.8-2.3,2.9,2.9,0,0,0-4.2,0,3.6,3.6,0,0,0-.8,2.3v16.9a3.6,3.6,0,0,0,.8,2.3,3.2,3.2,0,0,0,4.2,0,3.6,3.6,0,0,0,.8-2.3v-1.3c0-.2,0-.3.1-.4a.6.6,0,0,1,.5-.2l5.7.2.4.2a.8.8,0,0,1,.2.4v.5a9.1,9.1,0,0,1-2.7,7,9.7,9.7,0,0,1-7.1,2.7A9.5,9.5,0,0,1,754.1,117.2Z" transform="translate(0 -6.9)"/><path class="cls-12" d="M776.8,117.2c-1.8-1.7-2.6-4-2.6-7V94.3a9,9,0,0,1,2.6-6.9,10,10,0,0,1,7.1-2.6,9.8,9.8,0,0,1,7.1,2.6,9,9,0,0,1,2.7,6.9v.6a.5.5,0,0,1-.2.4l-.4.2-5.7.2c-.4,0-.6-.2-.6-.5V93.9a3.6,3.6,0,0,0-.8-2.3,2.6,2.6,0,0,0-2.1-.9,2.7,2.7,0,0,0-2.1.9,3.5,3.5,0,0,0-.7,2.3v16.9a3.5,3.5,0,0,0,.7,2.3,2.6,2.6,0,0,0,2.1.8,2.5,2.5,0,0,0,2.1-.8,3.6,3.6,0,0,0,.8-2.3v-1.3c0-.2,0-.3.2-.4s.2-.2.4-.2l5.7.2.4.2a.8.8,0,0,1,.2.4v.5a9.1,9.1,0,0,1-2.7,7,10.7,10.7,0,0,1-14.2,0Z" transform="translate(0 -6.9)"/><path class="cls-12" d="M809.3,117.2a9.4,9.4,0,0,1-2.6-7V94.3a9.4,9.4,0,0,1,2.6-6.9,10,10,0,0,1,7.1-2.6,9.7,9.7,0,0,1,7.1,2.6,9,9,0,0,1,2.7,6.9v.6c0,.2,0,.3-.2.4l-.4.2-5.7.2c-.4,0-.6-.2-.6-.5V93.9a3.6,3.6,0,0,0-.8-2.3,2.6,2.6,0,0,0-2.1-.9,2.5,2.5,0,0,0-2,.9,3.1,3.1,0,0,0-.8,2.3v16.9a3.1,3.1,0,0,0,.8,2.3,2.4,2.4,0,0,0,2,.8,2.5,2.5,0,0,0,2.1-.8,3.6,3.6,0,0,0,.8-2.3v-1.3a.5.5,0,0,1,.2-.4c.1-.2.2-.2.4-.2l5.7.2.4.2a.4.4,0,0,1,.2.4v.5a9.1,9.1,0,0,1-2.7,7,9.5,9.5,0,0,1-7.1,2.7A9.7,9.7,0,0,1,809.3,117.2Z" transform="translate(0 -6.9)"/><path class="cls-12" d="M842.3,85.4a.6.6,0,0,1,.5-.2h5.7c.2,0,.3,0,.4.2a.5.5,0,0,1,.2.4v33.1a.8.8,0,0,1-.2.4.5.5,0,0,1-.4.2h-5.7l-.5-.2a.6.6,0,0,1-.1-.4V105.5c0-.1-.1-.2-.3-.2H837a.2.2,0,0,0-.2.2v13.4a.8.8,0,0,1-.2.4l-.4.2h-5.7a.5.5,0,0,1-.4-.2.4.4,0,0,1-.2-.4V85.8c0-.2,0-.3.2-.4s.2-.2.4-.2h5.7c.2,0,.3,0,.4.2a.5.5,0,0,1,.2.4V99.1c0,.2.1.2.2.2h4.9c.2,0,.3,0,.3-.2V85.8C842.2,85.6,842.2,85.5,842.3,85.4Z" transform="translate(0 -6.9)"/></g><g class="cls-11"><path class="cls-12" d="M867.1,118.9l-.7-4.7c0-.1-.1-.2-.3-.2h-6.3a.2.2,0,0,0-.2.2l-.8,4.7a.7.7,0,0,1-.7.6h-5.7c-.4,0-.6-.2-.5-.7l7.2-33.1a.7.7,0,0,1,.7-.5h6.6a.6.6,0,0,1,.6.5l7.1,33.1v.2a.5.5,0,0,1-.5.5h-5.9A.7.7,0,0,1,867.1,118.9Zm-6.4-10.3h4.4c.2,0,.3,0,.2-.2L863,95h-.3l-2.2,13.4C860.5,108.6,860.6,108.6,860.7,108.6Z" transform="translate(0 -6.9)"/></g><g class="cls-11"><path class="cls-12" d="M893.5,85.4a.5.5,0,0,1,.2.4v4.7a.5.5,0,0,1-.2.4c-.1.2-.2.2-.4.2H887a.3.3,0,0,0-.3.3v27.5a.6.6,0,0,1-.1.4l-.5.2h-5.7l-.4-.2a.8.8,0,0,1-.2-.4V91.4c0-.2-.1-.3-.2-.3h-5.9c-.2,0-.3,0-.4-.2a.5.5,0,0,1-.2-.4V85.8a.5.5,0,0,1,.2-.4c.1-.2.2-.2.4-.2h19.4C893.3,85.2,893.4,85.2,893.5,85.4Z" transform="translate(0 -6.9)"/><path class="cls-12" d="M914,117a10.1,10.1,0,0,1-7.1,2.5h-9.3a.5.5,0,0,1-.4-.2.8.8,0,0,1-.2-.4V85.8a.5.5,0,0,1,.2-.4c.1-.2.2-.2.4-.2h8.2a11.7,11.7,0,0,1,7.6,2.3c1.9,1.6,2.8,3.9,2.8,7s-1.1,5.6-3.3,7.1c-.2.1-.2.2-.1.3q3.9,2.7,3.9,8.1C916.7,113.1,915.8,115.4,914,117ZM903.9,91.4V99a.3.3,0,0,0,.3.3h1.7a3.3,3.3,0,0,0,2.6-1.1,4.2,4.2,0,0,0,1-2.9,4.6,4.6,0,0,0-1-3.1,3.2,3.2,0,0,0-2.6-1.1h-1.7A.3.3,0,0,0,903.9,91.4Zm5,20.9a5.4,5.4,0,0,0,.9-3.3,5.7,5.7,0,0,0-.9-3.4,3,3,0,0,0-2.5-1.3h-2.2c-.2,0-.3.1-.3.2v8.8c0,.1.1.2.3.2h2.1A3.2,3.2,0,0,0,908.9,112.3Z" transform="translate(0 -6.9)"/><path class="cls-12" d="M922.2,117.2a9.3,9.3,0,0,1-2.7-7V94.5a9.7,9.7,0,0,1,2.7-7.1,10.1,10.1,0,0,1,7.2-2.6,10.5,10.5,0,0,1,7.3,2.6,9.7,9.7,0,0,1,2.7,7.1v15.7a9.3,9.3,0,0,1-2.7,7,10.1,10.1,0,0,1-7.3,2.7A9.7,9.7,0,0,1,922.2,117.2Zm9.4-4.2a3.7,3.7,0,0,0,.9-2.5V94.2a3.5,3.5,0,0,0-.9-2.5,2.6,2.6,0,0,0-2.2-1,2.7,2.7,0,0,0-2.2,1,3.9,3.9,0,0,0-.8,2.5v16.3a4.1,4.1,0,0,0,.8,2.5,2.9,2.9,0,0,0,2.2.9A2.8,2.8,0,0,0,931.6,113Z" transform="translate(0 -6.9)"/><path class="cls-12" d="M962.6,85.4a.5.5,0,0,1,.2.4v4.7a.5.5,0,0,1-.2.4c-.1.2-.2.2-.4.2h-6.1a.3.3,0,0,0-.3.3v27.5a.6.6,0,0,1-.1.4l-.5.2h-5.7a.5.5,0,0,1-.4-.2.8.8,0,0,1-.2-.4V91.4c0-.2-.1-.3-.2-.3h-5.9c-.2,0-.3,0-.4-.2a.5.5,0,0,1-.2-.4V85.8a.5.5,0,0,1,.2-.4c.1-.2.2-.2.4-.2h19.4C962.4,85.2,962.5,85.2,962.6,85.4Z" transform="translate(0 -6.9)"/></g></g><rect class="cls-13" x="224.1" y="57.1" width="334" height="334.01"/><rect class="cls-13" x="1123.2" y="57.1" width="334" height="49.79"/><rect class="cls-13" x="1123.2" y="128.2" width="334" height="49.79"/><rect class="cls-13" x="1123.2" y="199.2" width="334" height="49.79"/><rect class="cls-13" x="1123.2" y="270.3" width="334" height="49.79"/><rect class="cls-13" x="1123.2" y="341.4" width="334" height="49.79"/><g class="cls-11"><g class="cls-11"><path class="cls-12" d="M1200.9,8.6a8.9,8.9,0,0,1,3.2,3.7,11.9,11.9,0,0,1,1.2,5.4,10.6,10.6,0,0,1-2.5,7.3,8.3,8.3,0,0,1-6.4,2.8h-3.7c-.1,0-.2,0-.2.2V41a.5.5,0,0,1-.2.4c-.1.2-.2.2-.4.2h-5.7a.6.6,0,0,1-.5-.2c-.1-.1-.1-.2-.1-.4V7.9c0-.2,0-.3.1-.4a.6.6,0,0,1,.5-.2h9.9A8.6,8.6,0,0,1,1200.9,8.6Zm-3.5,12.6a5.4,5.4,0,0,0,1-3.3,5.5,5.5,0,0,0-1-3.4,3,3,0,0,0-2.5-1.2h-2.2c-.1,0-.2,0-.2.2v8.6c0,.2.1.3.2.3h2.2A3,3,0,0,0,1197.4,21.2Z" transform="translate(0 -6.9)"/><path class="cls-12" d="M1220.9,7.5a.5.5,0,0,1,.4-.2h5.7a.5.5,0,0,1,.4.2.8.8,0,0,1,.2.4V41a.5.5,0,0,1-.2.4c-.1.2-.2.2-.4.2h-5.7c-.2,0-.3,0-.4-.2s-.2-.2-.2-.4V27.7a.3.3,0,0,0-.3-.3h-4.9c-.1,0-.2.1-.2.3V41a.5.5,0,0,1-.2.4c-.1.2-.2.2-.4.2H1209c-.2,0-.3,0-.4-.2a.5.5,0,0,1-.2-.4V7.9a.8.8,0,0,1,.2-.4.5.5,0,0,1,.4-.2h5.7a.5.5,0,0,1,.4.2.8.8,0,0,1,.2.4V21.2c0,.2.1.3.2.3h4.9a.3.3,0,0,0,.3-.3V7.9A.4.4,0,0,1,1220.9,7.5Z" transform="translate(0 -6.9)"/><path class="cls-12" d="M1234.1,39.4a9.5,9.5,0,0,1-2.7-7.1V16.6a9.4,9.4,0,0,1,2.7-7,11,11,0,0,1,14.4,0,9.4,9.4,0,0,1,2.7,7V32.3a9.5,9.5,0,0,1-2.7,7.1,11.3,11.3,0,0,1-14.4,0Zm9.4-4.3a3.3,3.3,0,0,0,.8-2.5V16.4a3.7,3.7,0,0,0-.8-2.6,2.8,2.8,0,0,0-2.2-.9,2.9,2.9,0,0,0-2.2.9,4.2,4.2,0,0,0-.8,2.6V32.6a3.7,3.7,0,0,0,.8,2.5,2.7,2.7,0,0,0,2.2,1A2.6,2.6,0,0,0,1243.5,35.1Z" transform="translate(0 -6.9)"/><path class="cls-12" d="M1269.2,7.5l.5-.2h5.6l.5.2a.6.6,0,0,1,.1.4V41c0,.2,0,.3-.1.4a.6.6,0,0,1-.5.2h-6.4c-.4,0-.6-.1-.7-.5l-6-18.9c-.1-.1-.1-.2-.2-.1h-.1V41c0,.2,0,.3-.2.4s-.2.2-.4.2h-5.6c-.2,0-.4,0-.5-.2s-.1-.2-.1-.4V7.9a.6.6,0,0,1,.1-.4l.5-.2h6.4a.6.6,0,0,1,.6.5l6.1,19h.2c.1,0,.1-.1.1-.2V7.9A.6.6,0,0,1,1269.2,7.5Z" transform="translate(0 -6.9)"/><path class="cls-12" d="M1298,13.1a.5.5,0,0,1-.4.2h-10.2c-.2,0-.3,0-.3.2v7.7a.3.3,0,0,0,.3.3h5.9l.4.2c.1.1.1.2.1.4v4.7c0,.2,0,.3-.1.4a.4.4,0,0,1-.4.2h-5.9a.3.3,0,0,0-.3.3v7.8c0,.1.1.2.3.2h10.2l.4.2a.5.5,0,0,1,.2.4V41a.5.5,0,0,1-.2.4c-.1.2-.2.2-.4.2h-16.8a.4.4,0,0,1-.4-.2.5.5,0,0,1-.2-.4V7.9a.8.8,0,0,1,.2-.4l.4-.2h16.8a.5.5,0,0,1,.4.2.8.8,0,0,1,.2.4v4.8A.8.8,0,0,1,1298,13.1Z" transform="translate(0 -6.9)"/></g><g class="cls-11"><path class="cls-12" d="M1313.7,39.4a9.4,9.4,0,0,1-2.7-7V16.5a9.4,9.4,0,0,1,2.7-7,9.6,9.6,0,0,1,7-2.6,10.1,10.1,0,0,1,7.2,2.6,9.8,9.8,0,0,1,2.6,7V17a.9.9,0,0,1-.1.5h-.5l-5.7.3a.5.5,0,0,1-.6-.6V16.1a2.8,2.8,0,0,0-.8-2.3,2.6,2.6,0,0,0-2.1-.9,2.5,2.5,0,0,0-2,.9,3.2,3.2,0,0,0-.8,2.3V33a3.1,3.1,0,0,0,.8,2.2,2.5,2.5,0,0,0,2,.9,2.6,2.6,0,0,0,2.1-.9,2.7,2.7,0,0,0,.8-2.2V31.6a.8.8,0,0,1,.2-.4.5.5,0,0,1,.4-.2l5.7.3a.6.6,0,0,1,.5.2c.1.1.1.2.1.4v.5a9.4,9.4,0,0,1-2.7,7,9.8,9.8,0,0,1-7.1,2.6A9.6,9.6,0,0,1,1313.7,39.4Z" transform="translate(0 -6.9)"/></g><g class="cls-11"><path class="cls-12" d="M1347.5,41.1l-.8-4.7a.3.3,0,0,0-.3-.3h-6.2a.3.3,0,0,0-.3.3l-.8,4.7a.6.6,0,0,1-.6.5h-5.8c-.4,0-.6-.2-.5-.6l7.2-33.1a.7.7,0,0,1,.7-.6h6.6a.6.6,0,0,1,.6.6l7.2,33.1v.2c0,.3-.2.4-.5.4h-5.9C1347.7,41.6,1347.5,41.4,1347.5,41.1ZM1341,30.8h4.5l.2-.2-2.3-13.4-.2-.2c-.1,0-.1.1-.1.2l-2.2,13.4C1340.9,30.7,1340.9,30.8,1341,30.8Z" transform="translate(0 -6.9)"/><path class="cls-12" d="M1357.5,41.4a.5.5,0,0,1-.2-.4V7.9a.8.8,0,0,1,.2-.4.5.5,0,0,1,.4-.2h5.7a.5.5,0,0,1,.4.2.4.4,0,0,1,.2.4V35.5c0,.1.1.2.3.2h10.2l.5.2c.1.1.1.2.1.4V41c0,.2,0,.3-.1.4a.6.6,0,0,1-.5.2h-16.8C1357.7,41.6,1357.6,41.6,1357.5,41.4Z" transform="translate(0 -6.9)"/><path class="cls-12" d="M1378.3,41.4c-.1-.1-.1-.2-.1-.4V7.9a.6.6,0,0,1,.1-.4l.5-.2h5.7l.4.2a.8.8,0,0,1,.2.4V35.5a.2.2,0,0,0,.2.2h10.3l.4.2a.5.5,0,0,1,.2.4V41a.5.5,0,0,1-.2.4c-.1.2-.2.2-.4.2h-16.8A.6.6,0,0,1,1378.3,41.4Z" transform="translate(0 -6.9)"/></g></g><g class="cls-11"><g class="cls-11"><path class="cls-12" d="M1223.3,95.7a8.8,8.8,0,0,1-3-3.8,12.6,12.6,0,0,1-1.1-5.7,14.4,14.4,0,0,1,1-5.8,9.1,9.1,0,0,1,3.1-3.8,8.3,8.3,0,0,1,4.7-1.3,8.4,8.4,0,0,1,4.8,1.3,8.3,8.3,0,0,1,3,3.8,14.1,14.1,0,0,1,1.1,5.7,14.6,14.6,0,0,1-1.1,5.8,8.8,8.8,0,0,1-3,3.8A9.3,9.3,0,0,1,1228,97,9.2,9.2,0,0,1,1223.3,95.7Zm9.2-3.4c1.1-1.4,1.6-3.5,1.6-6.2s-.5-4.7-1.6-6.1a5.2,5.2,0,0,0-4.5-2.2,5.3,5.3,0,0,0-4.4,2.2c-1.1,1.4-1.6,3.5-1.6,6.1s.5,4.8,1.6,6.2a5.3,5.3,0,0,0,4.4,2.2A5.5,5.5,0,0,0,1232.5,92.3Z" transform="translate(0 -6.9)"/><path class="cls-12" d="M1241.1,96.5a1.6,1.6,0,0,1-.4-1.2V77.1a1.2,1.2,0,0,1,.4-1.1,1.1,1.1,0,0,1,1-.4h6.5a6.4,6.4,0,1,1,0,12.7h-5.1v7a1.6,1.6,0,0,1-.4,1.2,1.5,1.5,0,0,1-2,0Zm11.2-14.6c0-2.6-1.3-3.9-4-3.9h-4.8v7.8h4.8C1251,85.8,1252.3,84.5,1252.3,81.9Z" transform="translate(0 -6.9)"/><path class="cls-12" d="M1258.7,96.3a1.6,1.6,0,0,1-.4-1.1V77.1a1.6,1.6,0,0,1,.4-1.1,1.2,1.2,0,0,1,1-.4h10a1.2,1.2,0,0,1,.9.3,1.2,1.2,0,0,1,0,1.8,1.2,1.2,0,0,1-.9.3h-8.6v6.7h8a1.1,1.1,0,0,1,1,.4,1.5,1.5,0,0,1,0,1.8,1.3,1.3,0,0,1-1,.3h-8v7.1h8.6c.8,0,1.3.4,1.3,1.2a1,1,0,0,1-.4.9,1.3,1.3,0,0,1-.9.4h-10A1.2,1.2,0,0,1,1258.7,96.3Z" transform="translate(0 -6.9)"/></g><g class="cls-11"><path class="cls-12" d="M1289.3,95.7a1.2,1.2,0,0,1-.4.9,1.8,1.8,0,0,1-.9.4,1.4,1.4,0,0,1-1.2-.8l-3.7-6.2a3.6,3.6,0,0,0-1.3-1.6,3.2,3.2,0,0,0-1.8-.4h-3.1v7.3a2.1,2.1,0,0,1-.3,1.2,1.4,1.4,0,0,1-1.1.4,1.3,1.3,0,0,1-1-.4,2.1,2.1,0,0,1-.3-1.2V77.1a1.6,1.6,0,0,1,.3-1.1,1.3,1.3,0,0,1,1-.4h6.8a6.9,6.9,0,0,1,4.8,1.5,6.2,6.2,0,0,1,1.7,4.6,5.8,5.8,0,0,1-1.3,4,5.6,5.6,0,0,1-3.6,2,3.1,3.1,0,0,1,1.3.8,7.3,7.3,0,0,1,1.1,1.5l2.7,4.8A1.6,1.6,0,0,1,1289.3,95.7ZM1282,85.5a4.6,4.6,0,0,0,3.1-.9,3.7,3.7,0,0,0,1-2.9,3.6,3.6,0,0,0-1-2.8,4.6,4.6,0,0,0-3.1-.9h-5.1v7.5Z" transform="translate(0 -6.9)"/></g><g class="cls-11"><path class="cls-12" d="M1309.6,95.5a1.3,1.3,0,0,1-.4,1,1.2,1.2,0,0,1-.9.4l-.7-.2a1.8,1.8,0,0,1-.5-.7l-1.8-4.5h-9.9l-1.8,4.5a1.6,1.6,0,0,1-.4.7l-.7.2a1.4,1.4,0,0,1-1.4-1.4,3.5,3.5,0,0,0,.1-.6l7.7-18.5a1.6,1.6,0,0,1,.6-.8l.9-.2.8.2a1.6,1.6,0,0,1,.6.8l7.7,18.5A1.8,1.8,0,0,1,1309.6,95.5Zm-13.2-6.4h8l-4-10Z" transform="translate(0 -6.9)"/></g><g class="cls-11"><path class="cls-12" d="M1315.1,96.5a2.1,2.1,0,0,1-.3-1.2V78.1h-5.5a1.2,1.2,0,0,1-1.3-1.3,1.3,1.3,0,0,1,.4-.9,1.2,1.2,0,0,1,.9-.3H1323a1.2,1.2,0,0,1,.9.3,1,1,0,0,1,.4.9,1.2,1.2,0,0,1-1.3,1.3h-5.4V95.3a2.1,2.1,0,0,1-.4,1.2,1.3,1.3,0,0,1-1,.4A1.4,1.4,0,0,1,1315.1,96.5Z" transform="translate(0 -6.9)"/></g><g class="cls-11"><path class="cls-12" d="M1328.9,95.7a8.8,8.8,0,0,1-3-3.8,12.6,12.6,0,0,1-1.1-5.7,14.4,14.4,0,0,1,1-5.8,8.4,8.4,0,0,1,3.1-3.8,8.1,8.1,0,0,1,4.7-1.3,8.6,8.6,0,0,1,4.8,1.3,8.3,8.3,0,0,1,3,3.8,14.1,14.1,0,0,1,1.1,5.7,14.6,14.6,0,0,1-1.1,5.8,8.8,8.8,0,0,1-3,3.8,9.6,9.6,0,0,1-4.8,1.3A8.9,8.9,0,0,1,1328.9,95.7Zm9.2-3.4a10.7,10.7,0,0,0,1.6-6.2c0-2.6-.5-4.7-1.6-6.1a5.5,5.5,0,0,0-4.5-2.2,5.2,5.2,0,0,0-4.4,2.2c-1.1,1.4-1.6,3.5-1.6,6.1s.5,4.8,1.6,6.2a5.2,5.2,0,0,0,4.4,2.2A5.5,5.5,0,0,0,1338.1,92.3Z" transform="translate(0 -6.9)"/><path class="cls-12" d="M1361.4,95.7a1.2,1.2,0,0,1-.4.9,1.3,1.3,0,0,1-.9.4,1.4,1.4,0,0,1-1.2-.8l-3.6-6.2a3.8,3.8,0,0,0-1.4-1.6,3,3,0,0,0-1.8-.4H1349v7.3a2.1,2.1,0,0,1-.3,1.2,1.3,1.3,0,0,1-1,.4,1.1,1.1,0,0,1-1-.4,1.6,1.6,0,0,1-.4-1.2V77.1a1.6,1.6,0,0,1,.3-1.1,1.4,1.4,0,0,1,1.1-.4h6.7a6.9,6.9,0,0,1,4.8,1.5,6.2,6.2,0,0,1,1.7,4.6,5.8,5.8,0,0,1-1.3,4,5.4,5.4,0,0,1-3.6,2,2.6,2.6,0,0,1,1.3.8,7.3,7.3,0,0,1,1.1,1.5l2.8,4.8A2.9,2.9,0,0,1,1361.4,95.7Zm-7.3-10.2a4.6,4.6,0,0,0,3.1-.9,3.7,3.7,0,0,0,1-2.9,3.6,3.6,0,0,0-1-2.8,4.6,4.6,0,0,0-3.1-.9H1349v7.5Z" transform="translate(0 -6.9)"/></g></g><g class="cls-11"><g class="cls-11"><path class="cls-12" d="M1223.3,167.2a8.8,8.8,0,0,1-3-3.8,12.6,12.6,0,0,1-1.1-5.7,14.4,14.4,0,0,1,1-5.8,9.8,9.8,0,0,1,3.1-3.8,9.2,9.2,0,0,1,4.7-1.3,9.3,9.3,0,0,1,4.8,1.3,8.8,8.8,0,0,1,3,3.8,14.1,14.1,0,0,1,1.1,5.7,14.3,14.3,0,0,1-1.1,5.8,8.8,8.8,0,0,1-3,3.8,8.4,8.4,0,0,1-4.8,1.3A8.3,8.3,0,0,1,1223.3,167.2Zm9.2-3.4c1.1-1.4,1.6-3.5,1.6-6.2s-.5-4.7-1.6-6.1a5.2,5.2,0,0,0-4.5-2.2,5.3,5.3,0,0,0-4.4,2.2c-1.1,1.4-1.6,3.5-1.6,6.1s.5,4.8,1.6,6.2a5.1,5.1,0,0,0,4.4,2.2A5.2,5.2,0,0,0,1232.5,163.8Z" transform="translate(0 -6.9)"/><path class="cls-12" d="M1241.1,168a1.6,1.6,0,0,1-.4-1.2V148.6a1.2,1.2,0,0,1,.4-1.1,1.1,1.1,0,0,1,1-.4h6.5a6.4,6.4,0,1,1,0,12.7h-5.1v7a1.6,1.6,0,0,1-.4,1.2,1.5,1.5,0,0,1-2,0Zm11.2-14.6c0-2.6-1.3-3.8-4-3.8h-4.8v7.7h4.8C1251,157.3,1252.3,156,1252.3,153.4Z" transform="translate(0 -6.9)"/><path class="cls-12" d="M1258.7,167.9a2.1,2.1,0,0,1-.4-1.1V148.6a1.6,1.6,0,0,1,.4-1.1,1.2,1.2,0,0,1,1-.4h10a1.2,1.2,0,0,1,.9.3,1.3,1.3,0,0,1-.9,2.2h-8.6v6.6h8a1.1,1.1,0,0,1,1,.4,1.5,1.5,0,0,1,0,1.8,1.3,1.3,0,0,1-1,.4h-8v7h8.6c.8,0,1.3.4,1.3,1.2a1,1,0,0,1-.4.9,1.3,1.3,0,0,1-.9.4h-10A1.5,1.5,0,0,1,1258.7,167.9Z" transform="translate(0 -6.9)"/></g><g class="cls-11"><path class="cls-12" d="M1289.3,167.2a1.2,1.2,0,0,1-.4.9,1.8,1.8,0,0,1-.9.4,1.4,1.4,0,0,1-1.2-.8l-3.7-6.2a3.6,3.6,0,0,0-1.3-1.6,4.4,4.4,0,0,0-1.8-.4h-3.1v7.3a2.1,2.1,0,0,1-.3,1.2,1.4,1.4,0,0,1-1.1.4,1.3,1.3,0,0,1-1-.4,2.1,2.1,0,0,1-.3-1.2V148.6a1.6,1.6,0,0,1,.3-1.1,1.3,1.3,0,0,1,1-.4h6.8a6.9,6.9,0,0,1,4.8,1.5,6.2,6.2,0,0,1,1.7,4.6,5.7,5.7,0,0,1-4.9,6,3.1,3.1,0,0,1,1.3.8,7.3,7.3,0,0,1,1.1,1.5l2.7,4.8A1.6,1.6,0,0,1,1289.3,167.2ZM1282,157a4.6,4.6,0,0,0,3.1-.9,3.6,3.6,0,0,0,1-2.8,3.7,3.7,0,0,0-1-2.9,5.2,5.2,0,0,0-3.1-.8h-5.1V157Z" transform="translate(0 -6.9)"/></g><g class="cls-11"><path class="cls-12" d="M1309.6,167.1a1.1,1.1,0,0,1-.4.9,1.2,1.2,0,0,1-.9.4l-.7-.2a1.8,1.8,0,0,1-.5-.7l-1.8-4.5h-9.9l-1.8,4.5a1.6,1.6,0,0,1-.4.7l-.7.2a1.3,1.3,0,0,1-1-.4,1.1,1.1,0,0,1-.4-.9c0-.2.1-.4.1-.6l7.7-18.6a1.1,1.1,0,0,1,.6-.7,1.6,1.6,0,0,1,.9-.3,1.1,1.1,0,0,1,.8.3,1.1,1.1,0,0,1,.6.7l7.7,18.6A1.3,1.3,0,0,1,1309.6,167.1Zm-13.2-6.5h8l-4-10Z" transform="translate(0 -6.9)"/></g><g class="cls-11"><path class="cls-12" d="M1315.1,168a2.1,2.1,0,0,1-.3-1.2V149.6h-5.5c-.8,0-1.3-.4-1.3-1.2a1.3,1.3,0,0,1,.4-1,1.2,1.2,0,0,1,.9-.3H1323a1.2,1.2,0,0,1,.9.3,1.1,1.1,0,0,1,.4,1c0,.8-.5,1.2-1.3,1.2h-5.4v17.2a2.1,2.1,0,0,1-.4,1.2,1.3,1.3,0,0,1-1,.4A1.4,1.4,0,0,1,1315.1,168Z" transform="translate(0 -6.9)"/></g><g class="cls-11"><path class="cls-12" d="M1328.9,167.2a8.8,8.8,0,0,1-3-3.8,12.6,12.6,0,0,1-1.1-5.7,14.4,14.4,0,0,1,1-5.8,8.1,8.1,0,0,1,7.8-5.1,9.6,9.6,0,0,1,4.8,1.3,8.8,8.8,0,0,1,3,3.8,14.1,14.1,0,0,1,1.1,5.7,14.3,14.3,0,0,1-1.1,5.8,8.8,8.8,0,0,1-3,3.8,8.6,8.6,0,0,1-4.8,1.3A8.1,8.1,0,0,1,1328.9,167.2Zm9.2-3.4a10.7,10.7,0,0,0,1.6-6.2c0-2.6-.5-4.7-1.6-6.1a5.5,5.5,0,0,0-4.5-2.2,5.2,5.2,0,0,0-4.4,2.2c-1.1,1.4-1.6,3.5-1.6,6.1s.5,4.8,1.6,6.2a5,5,0,0,0,4.4,2.2A5.2,5.2,0,0,0,1338.1,163.8Z" transform="translate(0 -6.9)"/><path class="cls-12" d="M1361.4,167.2a1.2,1.2,0,0,1-.4.9,1.3,1.3,0,0,1-.9.4,1.4,1.4,0,0,1-1.2-.8l-3.6-6.2a3.8,3.8,0,0,0-1.4-1.6,4,4,0,0,0-1.8-.4H1349v7.3a2.1,2.1,0,0,1-.3,1.2,1.3,1.3,0,0,1-1,.4,1.1,1.1,0,0,1-1-.4,1.6,1.6,0,0,1-.4-1.2V148.6a1.6,1.6,0,0,1,.3-1.1,1.4,1.4,0,0,1,1.1-.4h6.7a6.9,6.9,0,0,1,4.8,1.5,6.2,6.2,0,0,1,1.7,4.6,5.7,5.7,0,0,1-1.3,4,5.4,5.4,0,0,1-3.6,2,2.6,2.6,0,0,1,1.3.8,7.3,7.3,0,0,1,1.1,1.5l2.8,4.8A2.9,2.9,0,0,1,1361.4,167.2Zm-7.3-10.2a4.6,4.6,0,0,0,3.1-.9,3.6,3.6,0,0,0,1-2.8,3.7,3.7,0,0,0-1-2.9,5.2,5.2,0,0,0-3.1-.8H1349V157Z" transform="translate(0 -6.9)"/></g></g><g class="cls-11"><g class="cls-11"><path class="cls-12" d="M1223.3,238.7a8.3,8.3,0,0,1-3-3.8,12.6,12.6,0,0,1-1.1-5.7,14.7,14.7,0,0,1,1-5.8,9.8,9.8,0,0,1,3.1-3.8,9.2,9.2,0,0,1,4.7-1.3,9.3,9.3,0,0,1,4.8,1.3,8.8,8.8,0,0,1,3,3.8,14.6,14.6,0,0,1,1.1,5.8,14.1,14.1,0,0,1-1.1,5.7,8.8,8.8,0,0,1-3,3.8,8.4,8.4,0,0,1-4.8,1.3A8.3,8.3,0,0,1,1223.3,238.7Zm9.2-3.4c1.1-1.4,1.6-3.5,1.6-6.1s-.5-4.8-1.6-6.2a5.2,5.2,0,0,0-4.5-2.1,5.2,5.2,0,0,0-4.4,2.1c-1.1,1.4-1.6,3.5-1.6,6.2s.5,4.7,1.6,6.1a5.1,5.1,0,0,0,4.4,2.2A5.2,5.2,0,0,0,1232.5,235.3Z" transform="translate(0 -6.9)"/><path class="cls-12" d="M1241.1,239.5a1.5,1.5,0,0,1-.4-1.1V220.1a1.2,1.2,0,0,1,.4-1.1,1.1,1.1,0,0,1,1-.4h6.5a6.4,6.4,0,1,1,0,12.7h-5.1v7.1a1.5,1.5,0,0,1-.4,1.1,1.5,1.5,0,0,1-2,0Zm11.2-14.6c0-2.6-1.3-3.8-4-3.8h-4.8v7.7h4.8C1251,228.8,1252.3,227.5,1252.3,224.9Z" transform="translate(0 -6.9)"/><path class="cls-12" d="M1258.7,239.4a2.1,2.1,0,0,1-.4-1.1V220.1a1.6,1.6,0,0,1,.4-1.1,1.2,1.2,0,0,1,1-.4h10a1.2,1.2,0,0,1,.9.3,1,1,0,0,1,.4.9,1.3,1.3,0,0,1-.4,1,1.2,1.2,0,0,1-.9.3h-8.6v6.6h8a1.3,1.3,0,0,1,1,.4,1.5,1.5,0,0,1,0,1.8,1.1,1.1,0,0,1-1,.4h-8v7h8.6c.8,0,1.3.4,1.3,1.2a1.4,1.4,0,0,1-1.3,1.3h-10A1.5,1.5,0,0,1,1258.7,239.4Z" transform="translate(0 -6.9)"/></g><g class="cls-11"><path class="cls-12" d="M1289.3,238.7a1.1,1.1,0,0,1-.4.9,1.2,1.2,0,0,1-.9.4,1.4,1.4,0,0,1-1.2-.8l-3.7-6.2a3.3,3.3,0,0,0-1.3-1.5,3.2,3.2,0,0,0-1.8-.5h-3.1v7.4a2,2,0,0,1-.3,1.1,1.4,1.4,0,0,1-1.1.4,1.3,1.3,0,0,1-1-.4,2,2,0,0,1-.3-1.1V220.1a1.6,1.6,0,0,1,.3-1.1,1.3,1.3,0,0,1,1-.4h6.8a6.9,6.9,0,0,1,4.8,1.5,6.2,6.2,0,0,1,1.7,4.6,6.1,6.1,0,0,1-1.3,4.1,6,6,0,0,1-3.6,1.9,4.6,4.6,0,0,1,1.3.8,7.3,7.3,0,0,1,1.1,1.5l2.7,4.8A1.6,1.6,0,0,1,1289.3,238.7Zm-7.3-10.2a4.6,4.6,0,0,0,3.1-.9,3.6,3.6,0,0,0,1-2.8,3.3,3.3,0,0,0-1-2.8,4.6,4.6,0,0,0-3.1-.9h-5.1v7.4Z" transform="translate(0 -6.9)"/></g><g class="cls-11"><path class="cls-12" d="M1309.6,238.6a1.1,1.1,0,0,1-.4.9,1.2,1.2,0,0,1-.9.4l-.7-.2a1.8,1.8,0,0,1-.5-.7l-1.8-4.5h-9.9l-1.8,4.5a1.6,1.6,0,0,1-.4.7l-.7.2a1.3,1.3,0,0,1-1-.4,1.1,1.1,0,0,1-.4-.9c0-.2.1-.4.1-.6l7.7-18.6a1.1,1.1,0,0,1,.6-.7,1.6,1.6,0,0,1,.9-.3,1.1,1.1,0,0,1,.8.3,1.1,1.1,0,0,1,.6.7l7.7,18.6A1.3,1.3,0,0,1,1309.6,238.6Zm-13.2-6.5h8l-4-10Z" transform="translate(0 -6.9)"/></g><g class="cls-11"><path class="cls-12" d="M1315.1,239.5a2,2,0,0,1-.3-1.1V221.2h-5.5a1.2,1.2,0,0,1-1.3-1.3,1.3,1.3,0,0,1,.4-1,1.2,1.2,0,0,1,.9-.3H1323a1.2,1.2,0,0,1,.9.3,1.1,1.1,0,0,1,.4,1,1.2,1.2,0,0,1-1.3,1.3h-5.4v17.2a2.1,2.1,0,0,1-.4,1.1,1.3,1.3,0,0,1-1,.4A1.4,1.4,0,0,1,1315.1,239.5Z" transform="translate(0 -6.9)"/></g><g class="cls-11"><path class="cls-12" d="M1328.9,238.7a8.3,8.3,0,0,1-3-3.8,12.6,12.6,0,0,1-1.1-5.7,14.7,14.7,0,0,1,1-5.8,8.1,8.1,0,0,1,7.8-5.1,9.6,9.6,0,0,1,4.8,1.3,8.8,8.8,0,0,1,3,3.8,14.6,14.6,0,0,1,1.1,5.8,14.1,14.1,0,0,1-1.1,5.7,8.8,8.8,0,0,1-3,3.8,8.6,8.6,0,0,1-4.8,1.3A8.1,8.1,0,0,1,1328.9,238.7Zm9.2-3.4a10.5,10.5,0,0,0,1.6-6.1c0-2.7-.5-4.8-1.6-6.2a5.4,5.4,0,0,0-4.5-2.1,5.1,5.1,0,0,0-4.4,2.1c-1.1,1.4-1.6,3.5-1.6,6.2s.5,4.7,1.6,6.1a5,5,0,0,0,4.4,2.2A5.2,5.2,0,0,0,1338.1,235.3Z" transform="translate(0 -6.9)"/><path class="cls-12" d="M1361.4,238.7a1.1,1.1,0,0,1-.4.9,1,1,0,0,1-.9.4,1.4,1.4,0,0,1-1.2-.8l-3.6-6.2a3.4,3.4,0,0,0-1.4-1.5,3,3,0,0,0-1.8-.5H1349v7.4a2,2,0,0,1-.3,1.1,1.3,1.3,0,0,1-1,.4,1.1,1.1,0,0,1-1-.4,1.5,1.5,0,0,1-.4-1.1V220.1a1.6,1.6,0,0,1,.3-1.1,1.4,1.4,0,0,1,1.1-.4h6.7a6.9,6.9,0,0,1,4.8,1.5,6.2,6.2,0,0,1,1.7,4.6,6.1,6.1,0,0,1-1.3,4.1,5.7,5.7,0,0,1-3.6,1.9,3.5,3.5,0,0,1,1.3.8,7.3,7.3,0,0,1,1.1,1.5l2.8,4.8A2.9,2.9,0,0,1,1361.4,238.7Zm-7.3-10.2a4.6,4.6,0,0,0,3.1-.9,3.6,3.6,0,0,0,1-2.8,3.3,3.3,0,0,0-1-2.8,4.6,4.6,0,0,0-3.1-.9H1349v7.4Z" transform="translate(0 -6.9)"/></g></g><g class="cls-11"><g class="cls-11"><path class="cls-12" d="M1223.3,310.2a8.3,8.3,0,0,1-3-3.8,12.6,12.6,0,0,1-1.1-5.7,14.7,14.7,0,0,1,1-5.8,9.8,9.8,0,0,1,3.1-3.8,9.2,9.2,0,0,1,4.7-1.3,9.3,9.3,0,0,1,4.8,1.3,8.8,8.8,0,0,1,3,3.8,14.6,14.6,0,0,1,1.1,5.8,14.1,14.1,0,0,1-1.1,5.7,8.3,8.3,0,0,1-3,3.8,8.4,8.4,0,0,1-4.8,1.3A8.3,8.3,0,0,1,1223.3,310.2Zm9.2-3.4c1.1-1.4,1.6-3.5,1.6-6.1s-.5-4.8-1.6-6.2a5.2,5.2,0,0,0-4.5-2.1,5.2,5.2,0,0,0-4.4,2.1c-1.1,1.4-1.6,3.5-1.6,6.2s.5,4.7,1.6,6.1a5.1,5.1,0,0,0,4.4,2.2A5.2,5.2,0,0,0,1232.5,306.8Z" transform="translate(0 -6.9)"/><path class="cls-12" d="M1241.1,311a1.5,1.5,0,0,1-.4-1.1V291.6a1.4,1.4,0,0,1,.4-1.1,1.1,1.1,0,0,1,1-.4h6.5a6.4,6.4,0,1,1,0,12.7h-5.1v7.1a1.5,1.5,0,0,1-.4,1.1,1.4,1.4,0,0,1-2,0Zm11.2-14.6c0-2.5-1.3-3.8-4-3.8h-4.8v7.7h4.8C1251,300.3,1252.3,299,1252.3,296.4Z" transform="translate(0 -6.9)"/><path class="cls-12" d="M1258.7,310.9a2.1,2.1,0,0,1-.4-1.1V291.6a1.8,1.8,0,0,1,.4-1.1,1.2,1.2,0,0,1,1-.4h10a1.2,1.2,0,0,1,.9.3,1,1,0,0,1,.4.9,1.2,1.2,0,0,1-.4,1,1.2,1.2,0,0,1-.9.3h-8.6v6.7h8a1.3,1.3,0,0,1,1,.3,1.5,1.5,0,0,1,0,1.8,1.1,1.1,0,0,1-1,.4h-8v7h8.6c.8,0,1.3.4,1.3,1.2a1.4,1.4,0,0,1-1.3,1.3h-10A1.5,1.5,0,0,1,1258.7,310.9Z" transform="translate(0 -6.9)"/></g><g class="cls-11"><path class="cls-12" d="M1289.3,310.2a1,1,0,0,1-.4.9,1.2,1.2,0,0,1-.9.4,1.4,1.4,0,0,1-1.2-.8l-3.7-6.2a3.9,3.9,0,0,0-1.3-1.5,3.2,3.2,0,0,0-1.8-.5h-3.1v7.4a2,2,0,0,1-.3,1.1,1.4,1.4,0,0,1-1.1.4,1.3,1.3,0,0,1-1-.4,2,2,0,0,1-.3-1.1V291.6a1.8,1.8,0,0,1,.3-1.1,1.3,1.3,0,0,1,1-.4h6.8a6.9,6.9,0,0,1,4.8,1.5,6.2,6.2,0,0,1,1.7,4.6,6.1,6.1,0,0,1-1.3,4.1,6,6,0,0,1-3.6,1.9,4.6,4.6,0,0,1,1.3.8,7.3,7.3,0,0,1,1.1,1.5l2.7,4.9A1.1,1.1,0,0,1,1289.3,310.2ZM1282,300a4.6,4.6,0,0,0,3.1-.9,4.4,4.4,0,0,0,0-5.6,4.6,4.6,0,0,0-3.1-.9h-5.1V300Z" transform="translate(0 -6.9)"/></g><g class="cls-11"><path class="cls-12" d="M1309.6,310.1a1,1,0,0,1-.4.9,1.2,1.2,0,0,1-.9.4.8.8,0,0,1-.7-.2,1.5,1.5,0,0,1-.5-.6l-1.8-4.6h-9.9l-1.8,4.6c-.1.2-.2.5-.4.6a1.1,1.1,0,0,1-.7.2,1.3,1.3,0,0,1-1-.4,1,1,0,0,1-.4-.9c0-.2.1-.4.1-.6l7.7-18.6a1.3,1.3,0,0,1,.6-.7,1.6,1.6,0,0,1,.9-.3,1.1,1.1,0,0,1,.8.3,1.3,1.3,0,0,1,.6.7l7.7,18.6A1.3,1.3,0,0,1,1309.6,310.1Zm-13.2-6.5h8l-4-10Z" transform="translate(0 -6.9)"/></g><g class="cls-11"><path class="cls-12" d="M1315.1,311a2,2,0,0,1-.3-1.1V292.7h-5.5a1.2,1.2,0,0,1-1.3-1.3,1.5,1.5,0,0,1,.4-1,1.2,1.2,0,0,1,.9-.3H1323a1.2,1.2,0,0,1,.9.3,1.2,1.2,0,0,1,.4,1,1.2,1.2,0,0,1-1.3,1.3h-5.4v17.2a2.1,2.1,0,0,1-.4,1.1,1.3,1.3,0,0,1-1,.4A1.4,1.4,0,0,1,1315.1,311Z" transform="translate(0 -6.9)"/></g><g class="cls-11"><path class="cls-12" d="M1328.9,310.2a8.3,8.3,0,0,1-3-3.8,12.6,12.6,0,0,1-1.1-5.7,14.7,14.7,0,0,1,1-5.8,8.1,8.1,0,0,1,7.8-5.1,9.6,9.6,0,0,1,4.8,1.3,8.8,8.8,0,0,1,3,3.8,14.6,14.6,0,0,1,1.1,5.8,14.1,14.1,0,0,1-1.1,5.7,8.3,8.3,0,0,1-3,3.8,8.6,8.6,0,0,1-4.8,1.3A8.1,8.1,0,0,1,1328.9,310.2Zm9.2-3.4a10.5,10.5,0,0,0,1.6-6.1c0-2.7-.5-4.8-1.6-6.2a5.4,5.4,0,0,0-4.5-2.1,5.1,5.1,0,0,0-4.4,2.1c-1.1,1.4-1.6,3.5-1.6,6.2s.5,4.7,1.6,6.1a5,5,0,0,0,4.4,2.2A5.2,5.2,0,0,0,1338.1,306.8Z" transform="translate(0 -6.9)"/><path class="cls-12" d="M1361.4,310.2a1.4,1.4,0,0,1-1.3,1.3,1.4,1.4,0,0,1-1.2-.8l-3.6-6.2a4.1,4.1,0,0,0-1.4-1.5,3,3,0,0,0-1.8-.5H1349v7.4a2,2,0,0,1-.3,1.1,1.3,1.3,0,0,1-1,.4,1.1,1.1,0,0,1-1-.4,1.5,1.5,0,0,1-.4-1.1V291.6a1.8,1.8,0,0,1,.3-1.1,1.4,1.4,0,0,1,1.1-.4h6.7a6.9,6.9,0,0,1,4.8,1.5,6.2,6.2,0,0,1,1.7,4.6,6.1,6.1,0,0,1-1.3,4.1,5.7,5.7,0,0,1-3.6,1.9,3.5,3.5,0,0,1,1.3.8,7.3,7.3,0,0,1,1.1,1.5l2.8,4.9A1.9,1.9,0,0,1,1361.4,310.2Zm-7.3-10.2a4.6,4.6,0,0,0,3.1-.9,4.4,4.4,0,0,0,0-5.6,4.6,4.6,0,0,0-3.1-.9H1349V300Z" transform="translate(0 -6.9)"/></g></g><g class="cls-11"><g class="cls-11"><path class="cls-12" d="M1223.3,381.7a8.3,8.3,0,0,1-3-3.8,12.6,12.6,0,0,1-1.1-5.7,15,15,0,0,1,1-5.8,8.8,8.8,0,0,1,3.1-3.7,8.4,8.4,0,0,1,4.7-1.4,8.5,8.5,0,0,1,4.8,1.4,8,8,0,0,1,3,3.7,15,15,0,0,1,1.1,5.8,14.1,14.1,0,0,1-1.1,5.7,8.3,8.3,0,0,1-3,3.8,8.4,8.4,0,0,1-4.8,1.3A8.3,8.3,0,0,1,1223.3,381.7Zm9.2-3.4c1.1-1.4,1.6-3.5,1.6-6.1a10.2,10.2,0,0,0-1.6-6.2,5.2,5.2,0,0,0-4.5-2.1,5.2,5.2,0,0,0-4.4,2.1,10.2,10.2,0,0,0-1.6,6.2c0,2.6.5,4.7,1.6,6.1a5.1,5.1,0,0,0,4.4,2.2A5.2,5.2,0,0,0,1232.5,378.3Z" transform="translate(0 -6.9)"/><path class="cls-12" d="M1241.1,382.5a1.4,1.4,0,0,1-.4-1.1V363.1a1.4,1.4,0,0,1,.4-1.1,1.1,1.1,0,0,1,1-.4h6.5a6.6,6.6,0,0,1,4.7,11,6.1,6.1,0,0,1-4.7,1.7h-5.1v7.1a1.4,1.4,0,0,1-.4,1.1,1.4,1.4,0,0,1-2,0Zm11.2-14.6c0-2.5-1.3-3.8-4-3.8h-4.8v7.7h4.8C1251,371.8,1252.3,370.5,1252.3,367.9Z" transform="translate(0 -6.9)"/><path class="cls-12" d="M1258.7,382.4a2.1,2.1,0,0,1-.4-1.1V363.1a1.8,1.8,0,0,1,.4-1.1,1.2,1.2,0,0,1,1-.4h10a1.2,1.2,0,0,1,.9.3,1.2,1.2,0,0,1,.4,1,1,1,0,0,1-.4.9,1.2,1.2,0,0,1-.9.3h-8.6v6.7h8a1.3,1.3,0,0,1,1,.3,1.2,1.2,0,0,1,.3.9,1.7,1.7,0,0,1-.3,1,1.3,1.3,0,0,1-1,.3h-8v7h8.6c.8,0,1.3.4,1.3,1.2a1.3,1.3,0,0,1-.4,1,1.2,1.2,0,0,1-.9.3h-10A1.2,1.2,0,0,1,1258.7,382.4Z" transform="translate(0 -6.9)"/></g><g class="cls-11"><path class="cls-12" d="M1289.3,381.7a1,1,0,0,1-.4.9,1.2,1.2,0,0,1-.9.4,1.2,1.2,0,0,1-1.2-.8l-3.7-6.2a3.9,3.9,0,0,0-1.3-1.5,3.2,3.2,0,0,0-1.8-.5h-3.1v7.4a1.8,1.8,0,0,1-.3,1.1,1.4,1.4,0,0,1-1.1.4,1.3,1.3,0,0,1-1-.4,1.8,1.8,0,0,1-.3-1.1V363.1a1.8,1.8,0,0,1,.3-1.1,1.3,1.3,0,0,1,1-.4h6.8a6.5,6.5,0,0,1,4.8,1.6,5.8,5.8,0,0,1,1.7,4.5,6.1,6.1,0,0,1-1.3,4.1,5.5,5.5,0,0,1-3.6,1.9,4.6,4.6,0,0,1,1.3.8l1.1,1.5,2.7,4.9A1.1,1.1,0,0,1,1289.3,381.7Zm-7.3-10.2a4.6,4.6,0,0,0,3.1-.9,4.4,4.4,0,0,0,0-5.6,4.6,4.6,0,0,0-3.1-.9h-5.1v7.4Z" transform="translate(0 -6.9)"/></g><g class="cls-11"><path class="cls-12" d="M1309.6,381.6a1,1,0,0,1-.4.9,1.2,1.2,0,0,1-.9.4.8.8,0,0,1-.7-.2,1.5,1.5,0,0,1-.5-.6l-1.8-4.5h-9.9l-1.8,4.5c-.1.2-.2.5-.4.6a1.1,1.1,0,0,1-.7.2,1.3,1.3,0,0,1-1-.4,1,1,0,0,1-.4-.9c0-.2.1-.4.1-.6l7.7-18.6a1.3,1.3,0,0,1,.6-.7,1.6,1.6,0,0,1,.9-.3,1.1,1.1,0,0,1,.8.3,1.3,1.3,0,0,1,.6.7l7.7,18.6A1.3,1.3,0,0,1,1309.6,381.6Zm-13.2-6.5h8l-4-10Z" transform="translate(0 -6.9)"/></g><g class="cls-11"><path class="cls-12" d="M1315.1,382.5a2,2,0,0,1-.3-1.1V364.2h-5.5a1.2,1.2,0,0,1-1.3-1.3,1.5,1.5,0,0,1,.4-1,1.2,1.2,0,0,1,.9-.3H1323a1.2,1.2,0,0,1,.9.3,1.2,1.2,0,0,1,.4,1,1.2,1.2,0,0,1-1.3,1.3h-5.4v17.2a2.1,2.1,0,0,1-.4,1.1,1.3,1.3,0,0,1-1,.4A1.4,1.4,0,0,1,1315.1,382.5Z" transform="translate(0 -6.9)"/></g><g class="cls-11"><path class="cls-12" d="M1328.9,381.7a8.3,8.3,0,0,1-3-3.8,12.6,12.6,0,0,1-1.1-5.7,15,15,0,0,1,1-5.8,8.5,8.5,0,0,1,7.8-5.1,8.7,8.7,0,0,1,4.8,1.4,8,8,0,0,1,3,3.7,15,15,0,0,1,1.1,5.8,14.1,14.1,0,0,1-1.1,5.7,8.3,8.3,0,0,1-3,3.8,8.6,8.6,0,0,1-4.8,1.3A8.1,8.1,0,0,1,1328.9,381.7Zm9.2-3.4a10.5,10.5,0,0,0,1.6-6.1,10.2,10.2,0,0,0-1.6-6.2,5.4,5.4,0,0,0-4.5-2.1,5.1,5.1,0,0,0-4.4,2.1,10.2,10.2,0,0,0-1.6,6.2c0,2.6.5,4.7,1.6,6.1a5,5,0,0,0,4.4,2.2A5.2,5.2,0,0,0,1338.1,378.3Z" transform="translate(0 -6.9)"/><path class="cls-12" d="M1361.4,381.7a1.4,1.4,0,0,1-1.3,1.3,1.2,1.2,0,0,1-1.2-.8l-3.6-6.2a4.1,4.1,0,0,0-1.4-1.5,3,3,0,0,0-1.8-.5H1349v7.4a1.8,1.8,0,0,1-.3,1.1,1.3,1.3,0,0,1-1,.4,1.1,1.1,0,0,1-1-.4,1.4,1.4,0,0,1-.4-1.1V363.1a1.8,1.8,0,0,1,.3-1.1,1.4,1.4,0,0,1,1.1-.4h6.7a6.5,6.5,0,0,1,4.8,1.6,5.8,5.8,0,0,1,1.7,4.5,6.1,6.1,0,0,1-1.3,4.1,5.3,5.3,0,0,1-3.6,1.9,3.5,3.5,0,0,1,1.3.8l1.1,1.5,2.8,4.9A1.9,1.9,0,0,1,1361.4,381.7Zm-7.3-10.2a4.6,4.6,0,0,0,3.1-.9,4.4,4.4,0,0,0,0-5.6,4.6,4.6,0,0,0-3.1-.9H1349v7.4Z" transform="translate(0 -6.9)"/></g></g><circle class="cls-14" cx="839.7" cy="224.1" r="89.9"/><circle class="cls-15" cx="839.7" cy="224.1" r="50.7"/><circle class="cls-16" cx="839.7" cy="224.1" r="63.8"/><circle class="cls-14" cx="507" cy="337.1" r="38.7"/><circle class="cls-15" cx="507" cy="337.1" r="21.9"/><circle class="cls-17" cx="507" cy="344.1" r="27.5" transform="translate(86.2 782.4) rotate(-80.8)"/><polygon class="cls-18" points="16.1 150.6 0 150.6 25.5 105.3 0 60 16.1 60 41.5 105.3 16.1 150.6"/><polygon class="cls-19" points="42.1 150.6 26 150.6 51.5 105.3 26 60 42.1 60 67.6 105.3 42.1 150.6"/><polygon class="cls-20" points="165.5 150.6 52.1 150.6 77.5 105.3 52.1 60 165.5 60 191 105.3 165.5 150.6"/><g class="cls-11"><g class="cls-11"><path class="cls-21" d="M89.4,120a7.8,7.8,0,0,1-2-5.8,6.2,6.2,0,0,1,.1-1.2l.6-9.7a2.9,2.9,0,0,1,.7-1.6,2,2,0,0,1,1.5-.6,1.7,1.7,0,0,1,1.4.7,2,2,0,0,1,.4,1.6l-.6,9.7a2.2,2.2,0,0,0-.1.9,5.5,5.5,0,0,0,1,3.4,3.7,3.7,0,0,0,2.9,1,3.4,3.4,0,0,0,2.8-1.1c.7-.7,1-1.9,1.1-3.6l.8-10.4a2.3,2.3,0,0,1,.6-1.6,2,2,0,0,1,1.5-.6,1.7,1.7,0,0,1,1.4.7,2.1,2.1,0,0,1,.5,1.6l-.7,10c-.3,2.8-1,5-2.4,6.4a7.8,7.8,0,0,1-5.8,2.2A7.7,7.7,0,0,1,89.4,120Z" transform="translate(0 -6.9)"/><path class="cls-21" d="M109.2,121.5a8.5,8.5,0,0,1-2.7-1.3,1.8,1.8,0,0,1-.7-.8,1.9,1.9,0,0,1-.3-1,2.1,2.1,0,0,1,.4-1.2,1.1,1.1,0,0,1,1-.5,2.3,2.3,0,0,1,1.1.3,6.4,6.4,0,0,0,2.2,1,9.2,9.2,0,0,0,2.9.4,4.6,4.6,0,0,0,2.6-.5,2,2,0,0,0,.9-1.7,1.6,1.6,0,0,0-.4-1.2,5.7,5.7,0,0,0-1.3-.8l-2-.8-3.2-1.2a6,6,0,0,1-2.1-1.8,5.7,5.7,0,0,1-.8-3.1,6.3,6.3,0,0,1,.9-3.3,6,6,0,0,1,2.7-2.2,9.5,9.5,0,0,1,4-.8,10.5,10.5,0,0,1,3.6.6,5.9,5.9,0,0,1,2.6,1.4,1.6,1.6,0,0,1,.7,1.5,2.1,2.1,0,0,1-.4,1.2,1.4,1.4,0,0,1-1.1.6,1.7,1.7,0,0,1-1.1-.4,7.5,7.5,0,0,0-2-1,10,10,0,0,0-2.4-.4,4,4,0,0,0-2.6.7,2,2,0,0,0-.9,1.7,1.7,1.7,0,0,0,.5,1.3,3,3,0,0,0,1.3.9l2.1.8a20.2,20.2,0,0,1,3.1,1.2,4.7,4.7,0,0,1,2,1.7,4.4,4.4,0,0,1,.9,2.9,5.7,5.7,0,0,1-2,4.6A9,9,0,0,1,113,122,15.2,15.2,0,0,1,109.2,121.5Z" transform="translate(0 -6.9)"/><path class="cls-21" d="M128.3,104.8l-.3,4.8h6.6a2,2,0,0,1,1.4.4,1.6,1.6,0,0,1,.4,1.2c0,1.2-.6,1.9-2,1.9h-6.6l-.4,5.1h7.1a2,2,0,0,1,1.4.4,1.6,1.6,0,0,1,.4,1.2c0,1.3-.6,1.9-2,1.9h-9.2a1.7,1.7,0,0,1-1.4-.6,2.1,2.1,0,0,1-.4-1.5l1.2-16.2a2.1,2.1,0,0,1,.6-1.6,2,2,0,0,1,1.4-.5h9.2a2,2,0,0,1,1.4.4,1.6,1.6,0,0,1,.4,1.2c0,1.3-.6,1.9-2,1.9Z" transform="translate(0 -6.9)"/></g><g class="cls-11"><path class="cls-21" d="M153.4,119a3.7,3.7,0,0,1,.2.9,2,2,0,0,1-.6,1.5,2.2,2.2,0,0,1-1.5.6,2.1,2.1,0,0,1-1-.4,2.2,2.2,0,0,1-.7-.9l-2.4-5.5a3.5,3.5,0,0,0-.9-1.1,2.3,2.3,0,0,0-1.3-.3h-2l-.4,5.8a2.9,2.9,0,0,1-.7,1.7,2,2,0,0,1-1.5.6,1.7,1.7,0,0,1-1.4-.6,1.9,1.9,0,0,1-.4-1.7l1.1-16.2a3.4,3.4,0,0,1,.6-1.6,2.5,2.5,0,0,1,1.5-.5h6.6a5.7,5.7,0,0,1,4.4,1.6,5.4,5.4,0,0,1,1.6,4.2,7.1,7.1,0,0,1-1.2,4.3,5.8,5.8,0,0,1-3.6,2,4.1,4.1,0,0,1,1.1.7,3.2,3.2,0,0,1,.9,1.5Zm-5.7-8.7a3.2,3.2,0,0,0,2.3-.7,2.9,2.9,0,0,0,.8-2.2,2.4,2.4,0,0,0-.7-2,2.8,2.8,0,0,0-2-.7h-4.3l-.4,5.6Z" transform="translate(0 -6.9)"/></g><g class="cls-11"><path class="cls-21" d="M159.7,121.5a8.5,8.5,0,0,1-2.7-1.3,1.8,1.8,0,0,1-.7-.8,1.9,1.9,0,0,1-.3-1,2.1,2.1,0,0,1,.4-1.2,1.1,1.1,0,0,1,1-.5,2.3,2.3,0,0,1,1.1.3,6.4,6.4,0,0,0,2.2,1,9.2,9.2,0,0,0,2.9.4,4.6,4.6,0,0,0,2.6-.5,2,2,0,0,0,.9-1.7,1.6,1.6,0,0,0-.4-1.2,5.7,5.7,0,0,0-1.3-.8l-2-.8-3.2-1.2a6,6,0,0,1-2.1-1.8,5.7,5.7,0,0,1-.8-3.1,6.3,6.3,0,0,1,.9-3.3,6,6,0,0,1,2.7-2.2,9.5,9.5,0,0,1,4-.8,10.5,10.5,0,0,1,3.6.6,5.9,5.9,0,0,1,2.6,1.4,1.6,1.6,0,0,1,.7,1.5,2.1,2.1,0,0,1-.4,1.2,1.4,1.4,0,0,1-1.1.6,1.7,1.7,0,0,1-1.1-.4,7.5,7.5,0,0,0-2-1,10,10,0,0,0-2.4-.4,4,4,0,0,0-2.6.7,2,2,0,0,0-.9,1.7,1.7,1.7,0,0,0,.5,1.3,3,3,0,0,0,1.3.9l2.1.8a20.2,20.2,0,0,1,3.1,1.2,4.7,4.7,0,0,1,2,1.7,4.4,4.4,0,0,1,.9,2.9,5.7,5.7,0,0,1-2,4.6,9,9,0,0,1-5.7,1.7A15.2,15.2,0,0,1,159.7,121.5Z" transform="translate(0 -6.9)"/></g></g><polygon class="cls-18" points="16.1 267.8 0 267.8 25.5 222.5 0 177.2 16.1 177.2 41.5 222.5 16.1 267.8"/><polygon class="cls-19" points="42.1 267.8 26 267.8 51.5 222.5 26 177.2 42.1 177.2 67.6 222.5 42.1 267.8"/><polygon class="cls-20" points="165.5 267.8 52.1 267.8 77.5 222.5 52.1 177.2 165.5 177.2 191 222.5 165.5 267.8"/><g class="cls-11"><g class="cls-11"><path class="cls-21" d="M89.4,237.2a7.8,7.8,0,0,1-2-5.8,6.8,6.8,0,0,1,.1-1.2l.6-9.6a2.6,2.6,0,0,1,.7-1.6,2,2,0,0,1,1.5-.6,1.7,1.7,0,0,1,1.4.6,2,2,0,0,1,.4,1.6l-.6,9.7a2.8,2.8,0,0,0-.1.9,5.5,5.5,0,0,0,1,3.4,3.7,3.7,0,0,0,2.9,1.1,3.8,3.8,0,0,0,2.8-1.1,6,6,0,0,0,1.1-3.7l.8-10.3a2.1,2.1,0,0,1,.6-1.6,2,2,0,0,1,1.5-.6,1.7,1.7,0,0,1,1.4.6,2.1,2.1,0,0,1,.5,1.6l-.7,10c-.3,2.8-1,5-2.4,6.4a7.5,7.5,0,0,1-5.8,2.2A7.7,7.7,0,0,1,89.4,237.2Z" transform="translate(0 -6.9)"/><path class="cls-21" d="M109.2,238.7a6.8,6.8,0,0,1-2.7-1.3,1.8,1.8,0,0,1-.7-.8,1.7,1.7,0,0,1-.3-1,2.5,2.5,0,0,1,.4-1.2,1.1,1.1,0,0,1,1-.5,2.3,2.3,0,0,1,1.1.3,9,9,0,0,0,2.2,1.1,13.5,13.5,0,0,0,2.9.4,4.5,4.5,0,0,0,2.6-.6,1.9,1.9,0,0,0,.9-1.7,1.9,1.9,0,0,0-.4-1.2,5.7,5.7,0,0,0-1.3-.8l-2-.8a22,22,0,0,1-3.2-1.2,6,6,0,0,1-2.1-1.8,5.6,5.6,0,0,1-.8-3,6.4,6.4,0,0,1,.9-3.4,6.7,6.7,0,0,1,2.7-2.2,9.6,9.6,0,0,1,4-.7,10.5,10.5,0,0,1,3.6.5,5.9,5.9,0,0,1,2.6,1.4,1.8,1.8,0,0,1,.7,1.5,2.8,2.8,0,0,1-.4,1.3,1.6,1.6,0,0,1-1.1.5,1.7,1.7,0,0,1-1.1-.4,7.5,7.5,0,0,0-2-1l-2.4-.3a4.8,4.8,0,0,0-2.6.6,2,2,0,0,0-.9,1.8,2.1,2.1,0,0,0,.5,1.3,4.1,4.1,0,0,0,1.3.8l2.1.8a20.2,20.2,0,0,1,3.1,1.2,5.1,5.1,0,0,1,2.9,4.7,5.6,5.6,0,0,1-2,4.5,9,9,0,0,1-5.7,1.7A15.2,15.2,0,0,1,109.2,238.7Z" transform="translate(0 -6.9)"/><path class="cls-21" d="M128.3,222l-.3,4.8h6.6a2,2,0,0,1,1.4.4,1.6,1.6,0,0,1,.4,1.2c0,1.3-.6,1.9-2,1.9h-6.6l-.4,5.1h7.1a2.6,2.6,0,0,1,1.4.4,1.7,1.7,0,0,1,.4,1.3c0,1.2-.6,1.8-2,1.8h-9.2a2,2,0,0,1-1.4-.5,2.5,2.5,0,0,1-.4-1.6l1.2-16.2a1.9,1.9,0,0,1,.6-1.5,1.7,1.7,0,0,1,1.4-.6h9.2a2.6,2.6,0,0,1,1.4.4,1.6,1.6,0,0,1,.4,1.2c0,1.3-.6,1.9-2,1.9Z" transform="translate(0 -6.9)"/></g><g class="cls-11"><path class="cls-21" d="M153.4,236.2a5.1,5.1,0,0,1,.2.9,2,2,0,0,1-.6,1.5,2.2,2.2,0,0,1-1.5.6,1.9,1.9,0,0,1-1-.3,3.6,3.6,0,0,1-.7-1l-2.4-5.5a3.5,3.5,0,0,0-.9-1.1,2.3,2.3,0,0,0-1.3-.3h-2l-.4,5.9a2.9,2.9,0,0,1-.7,1.6,2,2,0,0,1-1.5.6,1.7,1.7,0,0,1-1.4-.6,1.9,1.9,0,0,1-.4-1.7l1.1-16.2a3,3,0,0,1,.6-1.5,2,2,0,0,1,1.5-.6h6.6a5.7,5.7,0,0,1,4.4,1.6,5.4,5.4,0,0,1,1.6,4.3,6.6,6.6,0,0,1-1.2,4.2,5.4,5.4,0,0,1-3.6,2,4.1,4.1,0,0,1,1.1.7,3.8,3.8,0,0,1,.9,1.5Zm-5.7-8.6a3.2,3.2,0,0,0,2.3-.8,2.9,2.9,0,0,0,.8-2.2,2.4,2.4,0,0,0-.7-2,2.8,2.8,0,0,0-2-.6h-4.3l-.4,5.6Z" transform="translate(0 -6.9)"/></g><g class="cls-11"><path class="cls-21" d="M159.7,238.7a6.8,6.8,0,0,1-2.7-1.3,1.8,1.8,0,0,1-.7-.8,1.7,1.7,0,0,1-.3-1,2.5,2.5,0,0,1,.4-1.2,1.1,1.1,0,0,1,1-.5,2.3,2.3,0,0,1,1.1.3,9,9,0,0,0,2.2,1.1,13.5,13.5,0,0,0,2.9.4,4.5,4.5,0,0,0,2.6-.6,1.9,1.9,0,0,0,.9-1.7,1.9,1.9,0,0,0-.4-1.2,5.7,5.7,0,0,0-1.3-.8l-2-.8-3.2-1.2a6,6,0,0,1-2.1-1.8,5.6,5.6,0,0,1-.8-3,6.4,6.4,0,0,1,.9-3.4,6.7,6.7,0,0,1,2.7-2.2,9.6,9.6,0,0,1,4-.7,10.5,10.5,0,0,1,3.6.5,5.9,5.9,0,0,1,2.6,1.4,1.8,1.8,0,0,1,.7,1.5,2.8,2.8,0,0,1-.4,1.3,1.6,1.6,0,0,1-1.1.5,1.7,1.7,0,0,1-1.1-.4,7.5,7.5,0,0,0-2-1l-2.4-.3a4.8,4.8,0,0,0-2.6.6,2,2,0,0,0-.9,1.8,2.1,2.1,0,0,0,.5,1.3,4.1,4.1,0,0,0,1.3.8l2.1.8a20.2,20.2,0,0,1,3.1,1.2,5.1,5.1,0,0,1,2.9,4.7,5.6,5.6,0,0,1-2,4.5,9,9,0,0,1-5.7,1.7A15.2,15.2,0,0,1,159.7,238.7Z" transform="translate(0 -6.9)"/></g></g><polygon class="cls-18" points="541.9 269.5 525.8 269.5 551.3 224.1 525.8 178.8 541.9 178.8 567.4 224.1 541.9 269.5"/><polygon class="cls-19" points="567.9 269.5 551.9 269.5 577.4 224.1 551.9 178.8 567.9 178.8 593.4 224.1 567.9 269.5"/><polygon class="cls-20" points="741.4 269.5 577.9 269.5 603.4 224.1 577.9 178.8 741.4 178.8 766.8 224.1 741.4 269.5"/><g class="cls-11"><g class="cls-11"><path class="cls-21" d="M632.7,238.8c-1.3-1.3-1.9-3.2-1.9-5.8a5.4,5.4,0,0,1,.1-1.1l.6-9.7a2.6,2.6,0,0,1,.7-1.6,2,2,0,0,1,1.5-.6,1.7,1.7,0,0,1,1.4.6,2.2,2.2,0,0,1,.4,1.6l-.7,9.8v.9a4.5,4.5,0,0,0,1,3.3,3.7,3.7,0,0,0,2.9,1.1,3.8,3.8,0,0,0,2.8-1.1,6.7,6.7,0,0,0,1.1-3.6l.8-10.4a2.1,2.1,0,0,1,.6-1.6,2,2,0,0,1,1.5-.6,1.7,1.7,0,0,1,1.4.6,2.2,2.2,0,0,1,.4,1.6l-.7,10c-.2,2.9-1,5-2.3,6.4a7.5,7.5,0,0,1-5.8,2.2A8,8,0,0,1,632.7,238.8Z" transform="translate(0 -6.9)"/><path class="cls-21" d="M652.6,240.3a10.3,10.3,0,0,1-2.8-1.2,1.8,1.8,0,0,1-.6-.9,1.6,1.6,0,0,1-.3-.9,2.8,2.8,0,0,1,.4-1.3,1.4,1.4,0,0,1,1-.5,1.7,1.7,0,0,1,1.1.4,9,9,0,0,0,2.2,1,9.2,9.2,0,0,0,2.9.4,4.5,4.5,0,0,0,2.6-.6,1.8,1.8,0,0,0,.9-1.6,1.7,1.7,0,0,0-.5-1.3,3.6,3.6,0,0,0-1.2-.8l-2.1-.7-3.1-1.3a6.8,6.8,0,0,1-2.1-1.7,5.2,5.2,0,0,1-.9-3.1,5.9,5.9,0,0,1,1-3.3,5.6,5.6,0,0,1,2.6-2.2,8.7,8.7,0,0,1,4-.8,13.6,13.6,0,0,1,3.6.5,7.6,7.6,0,0,1,2.7,1.4,2,2,0,0,1,.6,1.5,2,2,0,0,1-.4,1.3,1,1,0,0,1-1,.5,1.5,1.5,0,0,1-1.1-.4,9.3,9.3,0,0,0-2-.9,6.7,6.7,0,0,0-2.4-.4,4.8,4.8,0,0,0-2.6.6,2,2,0,0,0-.9,1.8,2.1,2.1,0,0,0,.5,1.3,4.1,4.1,0,0,0,1.3.8,11.7,11.7,0,0,0,2.1.8l3.1,1.2a6.5,6.5,0,0,1,2,1.7,4.8,4.8,0,0,1,.8,3,5.5,5.5,0,0,1-2,4.6,8.5,8.5,0,0,1-5.6,1.6A14.6,14.6,0,0,1,652.6,240.3Z" transform="translate(0 -6.9)"/><path class="cls-21" d="M671.7,223.6l-.3,4.8H678a2.2,2.2,0,0,1,1.3.4,1.7,1.7,0,0,1,.5,1.2c0,1.3-.7,1.9-2,1.9h-6.7l-.3,5.1h7.1a2.2,2.2,0,0,1,1.4.5,1.6,1.6,0,0,1,.4,1.2c0,1.2-.7,1.8-2,1.8h-9.3a1.4,1.4,0,0,1-1.3-.5,2.5,2.5,0,0,1-.4-1.6l1.2-16.1a2.1,2.1,0,0,1,.6-1.6,1.7,1.7,0,0,1,1.4-.6h9.2a2,2,0,0,1,1.4.5,1.6,1.6,0,0,1,.4,1.2c0,1.2-.7,1.8-2,1.8Z" transform="translate(0 -6.9)"/></g><g class="cls-11"><path class="cls-21" d="M696.8,237.8a4.4,4.4,0,0,1,.2,1,1.7,1.7,0,0,1-.7,1.4,2,2,0,0,1-1.4.6,1.7,1.7,0,0,1-1-.3,1.5,1.5,0,0,1-.7-1l-2.5-5.5a3.1,3.1,0,0,0-.8-1.1,2.5,2.5,0,0,0-1.3-.3h-2.1l-.4,5.9a2.1,2.1,0,0,1-.6,1.6,2,2,0,0,1-1.5.6,1.7,1.7,0,0,1-1.4-.6,2.1,2.1,0,0,1-.5-1.6l1.2-16.2a2.1,2.1,0,0,1,.6-1.6,1.8,1.8,0,0,1,1.4-.6H692a6.2,6.2,0,0,1,4.4,1.6A5.6,5.6,0,0,1,698,226a6.6,6.6,0,0,1-1.2,4.2,5.5,5.5,0,0,1-3.6,2.1,1.9,1.9,0,0,1,1.1.7,5.6,5.6,0,0,1,.9,1.4Zm-5.7-8.6a3.2,3.2,0,0,0,2.3-.8,2.9,2.9,0,0,0,.8-2.2,2.6,2.6,0,0,0-.7-2,2.9,2.9,0,0,0-2.1-.6h-4.3l-.3,5.6Z" transform="translate(0 -6.9)"/></g><g class="cls-11"><path class="cls-21" d="M703.1,240.3a10.3,10.3,0,0,1-2.8-1.2,1.8,1.8,0,0,1-.6-.9,1.6,1.6,0,0,1-.3-.9,2.8,2.8,0,0,1,.4-1.3,1.4,1.4,0,0,1,1-.5,1.7,1.7,0,0,1,1.1.4,9,9,0,0,0,2.2,1,9.2,9.2,0,0,0,2.9.4,4.5,4.5,0,0,0,2.6-.6,1.8,1.8,0,0,0,.9-1.6,1.7,1.7,0,0,0-.5-1.3,3.6,3.6,0,0,0-1.2-.8l-2.1-.7-3.1-1.3a6.8,6.8,0,0,1-2.1-1.7,5.2,5.2,0,0,1-.9-3.1,5.9,5.9,0,0,1,1-3.3,5.6,5.6,0,0,1,2.6-2.2,8.7,8.7,0,0,1,4-.8,13.6,13.6,0,0,1,3.6.5,7.6,7.6,0,0,1,2.7,1.4,2,2,0,0,1,.6,1.5,2,2,0,0,1-.4,1.3,1,1,0,0,1-1,.5,1.5,1.5,0,0,1-1.1-.4,9.3,9.3,0,0,0-2-.9,6.7,6.7,0,0,0-2.4-.4,4.8,4.8,0,0,0-2.6.6,2,2,0,0,0-.9,1.8,2.1,2.1,0,0,0,.5,1.3,4.1,4.1,0,0,0,1.3.8,11.7,11.7,0,0,0,2.1.8l3.1,1.2a6.5,6.5,0,0,1,2,1.7,4.8,4.8,0,0,1,.8,3,5.5,5.5,0,0,1-2,4.6,8.5,8.5,0,0,1-5.6,1.6A14.6,14.6,0,0,1,703.1,240.3Z" transform="translate(0 -6.9)"/></g></g><polygon class="cls-18" points="16.1 385 0 385 25.5 339.7 0 294.4 16.1 294.4 41.5 339.7 16.1 385"/><polygon class="cls-19" points="42.1 385 26 385 51.5 339.7 26 294.4 42.1 294.4 67.6 339.7 42.1 385"/><polygon class="cls-20" points="165.5 385 52.1 385 77.5 339.7 52.1 294.4 165.5 294.4 191 339.7 165.5 385"/><g class="cls-11"><g class="cls-11"><path class="cls-21" d="M89.4,354.4a7.8,7.8,0,0,1-2-5.8,6.8,6.8,0,0,1,.1-1.2l.6-9.6a2.6,2.6,0,0,1,.7-1.6,2,2,0,0,1,1.5-.6,1.7,1.7,0,0,1,1.4.6,2,2,0,0,1,.4,1.6l-.6,9.8a2.2,2.2,0,0,0-.1.9,5.4,5.4,0,0,0,1,3.3,3.7,3.7,0,0,0,2.9,1.1,3.8,3.8,0,0,0,2.8-1.1,6,6,0,0,0,1.1-3.7l.8-10.3a2.1,2.1,0,0,1,.6-1.6,2,2,0,0,1,1.5-.6,1.7,1.7,0,0,1,1.4.6,2.1,2.1,0,0,1,.5,1.6l-.7,10c-.3,2.9-1,5-2.4,6.4a7.5,7.5,0,0,1-5.8,2.2A7.7,7.7,0,0,1,89.4,354.4Z" transform="translate(0 -6.9)"/><path class="cls-21" d="M109.2,355.9a6.8,6.8,0,0,1-2.7-1.3,1.8,1.8,0,0,1-.7-.8,1.6,1.6,0,0,1-.3-.9,2.8,2.8,0,0,1,.4-1.3,1.4,1.4,0,0,1,1-.5,2.3,2.3,0,0,1,1.1.3,6.5,6.5,0,0,0,2.2,1.1,13.5,13.5,0,0,0,2.9.4,4.5,4.5,0,0,0,2.6-.6,1.8,1.8,0,0,0,.9-1.6,2,2,0,0,0-.4-1.3,5.7,5.7,0,0,0-1.3-.8l-2-.8-3.2-1.2a6,6,0,0,1-2.1-1.8,5.6,5.6,0,0,1-.8-3,5.8,5.8,0,0,1,.9-3.3,6.2,6.2,0,0,1,2.7-2.3,9.6,9.6,0,0,1,4-.7,10.5,10.5,0,0,1,3.6.5,5.9,5.9,0,0,1,2.6,1.4,1.8,1.8,0,0,1,.7,1.5,2.8,2.8,0,0,1-.4,1.3,1.6,1.6,0,0,1-1.1.5,1.7,1.7,0,0,1-1.1-.4,5.3,5.3,0,0,0-2-.9,6.7,6.7,0,0,0-2.4-.4,4.8,4.8,0,0,0-2.6.6,2,2,0,0,0-.9,1.8,2.1,2.1,0,0,0,.5,1.3,4.1,4.1,0,0,0,1.3.8l2.1.8a20.2,20.2,0,0,1,3.1,1.2,5.5,5.5,0,0,1,2,1.7,4.7,4.7,0,0,1,.9,3,5.5,5.5,0,0,1-2,4.5,9,9,0,0,1-5.7,1.7A15.2,15.2,0,0,1,109.2,355.9Z" transform="translate(0 -6.9)"/><path class="cls-21" d="M128.3,339.2,128,344h6.6a2,2,0,0,1,1.4.4,1.6,1.6,0,0,1,.4,1.2c0,1.3-.6,1.9-2,1.9h-6.6l-.4,5.1h7.1a2,2,0,0,1,1.4.5c.3.2.4.6.4,1.2s-.6,1.8-2,1.8h-9.2a2,2,0,0,1-1.4-.5,2.5,2.5,0,0,1-.4-1.6l1.2-16.2a1.9,1.9,0,0,1,.6-1.5,1.7,1.7,0,0,1,1.4-.6h9.2a2,2,0,0,1,1.4.5,1.2,1.2,0,0,1,.4,1.1c0,1.3-.6,1.9-2,1.9Z" transform="translate(0 -6.9)"/></g><g class="cls-11"><path class="cls-21" d="M153.4,353.4a4.4,4.4,0,0,1,.2,1,2,2,0,0,1-.6,1.4,2.2,2.2,0,0,1-1.5.6,1.9,1.9,0,0,1-1-.3,3.6,3.6,0,0,1-.7-1l-2.4-5.5a3.5,3.5,0,0,0-.9-1.1,2.3,2.3,0,0,0-1.3-.3h-2l-.4,5.9a2.9,2.9,0,0,1-.7,1.6,2,2,0,0,1-1.5.6,1.7,1.7,0,0,1-1.4-.6,1.9,1.9,0,0,1-.4-1.7l1.1-16.2a3,3,0,0,1,.6-1.5,2,2,0,0,1,1.5-.6h6.6a5.7,5.7,0,0,1,4.4,1.6,5.6,5.6,0,0,1,1.6,4.3,6.6,6.6,0,0,1-1.2,4.2,5.4,5.4,0,0,1-3.6,2,4.1,4.1,0,0,1,2,2.2Zm-5.7-8.6a3.2,3.2,0,0,0,2.3-.8,2.9,2.9,0,0,0,.8-2.2,2.6,2.6,0,0,0-.7-2,2.8,2.8,0,0,0-2-.6h-4.3l-.4,5.6Z" transform="translate(0 -6.9)"/></g><g class="cls-11"><path class="cls-21" d="M159.7,355.9a6.8,6.8,0,0,1-2.7-1.3,1.8,1.8,0,0,1-.7-.8,1.6,1.6,0,0,1-.3-.9,2.8,2.8,0,0,1,.4-1.3,1.4,1.4,0,0,1,1-.5,2.3,2.3,0,0,1,1.1.3,6.5,6.5,0,0,0,2.2,1.1,13.5,13.5,0,0,0,2.9.4,4.5,4.5,0,0,0,2.6-.6,1.8,1.8,0,0,0,.9-1.6,2,2,0,0,0-.4-1.3,5.7,5.7,0,0,0-1.3-.8l-2-.8-3.2-1.2a6,6,0,0,1-2.1-1.8,5.6,5.6,0,0,1-.8-3,5.8,5.8,0,0,1,.9-3.3,6.2,6.2,0,0,1,2.7-2.3,9.6,9.6,0,0,1,4-.7,10.5,10.5,0,0,1,3.6.5,5.9,5.9,0,0,1,2.6,1.4,1.8,1.8,0,0,1,.7,1.5,2.8,2.8,0,0,1-.4,1.3,1.6,1.6,0,0,1-1.1.5,1.7,1.7,0,0,1-1.1-.4,5.3,5.3,0,0,0-2-.9,6.7,6.7,0,0,0-2.4-.4,4.8,4.8,0,0,0-2.6.6,2,2,0,0,0-.9,1.8,2.1,2.1,0,0,0,.5,1.3,4.1,4.1,0,0,0,1.3.8l2.1.8a20.2,20.2,0,0,1,3.1,1.2,5.5,5.5,0,0,1,2,1.7,4.7,4.7,0,0,1,.9,3,5.5,5.5,0,0,1-2,4.5,9,9,0,0,1-5.7,1.7A15.2,15.2,0,0,1,159.7,355.9Z" transform="translate(0 -6.9)"/></g></g><g class="cls-11"><g class="cls-11"><path class="cls-12" d="M331.3,337.4c-.1,0-.1-.1-.1-.2V320.3c0-.1,0-.2.1-.2s.1-.1.2-.1h2.9c.1,0,.2,0,.2.1s.1.1.1.2v16.9c0,.1,0,.2-.1.2s-.1.1-.2.1h-2.9C331.4,337.5,331.3,337.5,331.3,337.4Z" transform="translate(0 -6.9)"/><path class="cls-12" d="M343.5,337.3l-1.9-6.9h-1.1v6.8a.3.3,0,0,1-.1.2H337a.3.3,0,0,1-.1-.2V320.3a.3.3,0,0,1,.1-.2h5.3a4,4,0,0,1,2.4.7,3.7,3.7,0,0,1,1.7,1.8,6.1,6.1,0,0,1,.6,2.8,5.5,5.5,0,0,1-.6,2.6,4.1,4.1,0,0,1-1.5,1.7h-.1l2.3,7.4h0a.2.2,0,0,1-.2.2h-3.1Zm-3-14.1v4.2c0,.1,0,.2.1.2h1.1a1.5,1.5,0,0,0,1.3-.7,2.5,2.5,0,0,0,.5-1.6,2.9,2.9,0,0,0-.5-1.7,1.6,1.6,0,0,0-1.3-.6h-1.1C340.5,323,340.5,323.1,340.5,323.2Z" transform="translate(0 -6.9)"/><path class="cls-12" d="M349.8,336.4a4.8,4.8,0,0,1-1.3-3.6v-8.1a4.8,4.8,0,0,1,1.3-3.6,5.2,5.2,0,0,1,3.7-1.3,4.8,4.8,0,0,1,3.6,1.3,4.9,4.9,0,0,1,1.4,3.6v.5h-3.2a.3.3,0,0,1-.3-.3v-.6a1.6,1.6,0,0,0-.4-1.2,1.2,1.2,0,0,0-1-.5,1.4,1.4,0,0,0-1.1.5,1.6,1.6,0,0,0-.4,1.2v8.6a1.6,1.6,0,0,0,.4,1.2,1.4,1.4,0,0,0,1.1.4,1.2,1.2,0,0,0,1-.4,1.6,1.6,0,0,0,.4-1.2v-.7c0-.1.1-.1.1-.2h3.4v.5a4.9,4.9,0,0,1-1.4,3.6,4.8,4.8,0,0,1-3.6,1.3A5.2,5.2,0,0,1,349.8,336.4Z" transform="translate(0 -6.9)"/><path class="cls-12" d="M361.5,336.4a4.9,4.9,0,0,1-1.4-3.6v-8.1a4.9,4.9,0,0,1,1.4-3.6,5.6,5.6,0,0,1,7.2,0,4.9,4.9,0,0,1,1.4,3.6v.3a.3.3,0,0,1-.1.2h-3.1a.3.3,0,0,1-.3-.3v-.6a2.1,2.1,0,0,0-.4-1.2,1.5,1.5,0,0,0-2.2,0,2.1,2.1,0,0,0-.4,1.2v8.6a2.1,2.1,0,0,0,.4,1.2,1.7,1.7,0,0,0,2.2,0,2.1,2.1,0,0,0,.4-1.2v-.9H370a.3.3,0,0,1,.1.2v.3a4.9,4.9,0,0,1-1.4,3.6,5.6,5.6,0,0,1-7.2,0Z" transform="translate(0 -6.9)"/><path class="cls-12" d="M378.1,336.4a4.9,4.9,0,0,1-1.4-3.6v-8.1a4.9,4.9,0,0,1,1.4-3.6,4.8,4.8,0,0,1,3.6-1.3,5.1,5.1,0,0,1,3.7,1.3,4.8,4.8,0,0,1,1.3,3.6v.3a.3.3,0,0,1-.1.2h-3.1a.3.3,0,0,1-.3-.3v-.6a1.6,1.6,0,0,0-.4-1.2,1.4,1.4,0,0,0-1.1-.5,1.2,1.2,0,0,0-1,.5,1.6,1.6,0,0,0-.4,1.2v8.6a1.6,1.6,0,0,0,.4,1.2,1.2,1.2,0,0,0,1,.4,1.4,1.4,0,0,0,1.1-.4,1.6,1.6,0,0,0,.4-1.2v-.9h3.3a.3.3,0,0,1,.1.2v.3a4.8,4.8,0,0,1-1.3,3.6,5.2,5.2,0,0,1-3.7,1.3A4.8,4.8,0,0,1,378.1,336.4Z" transform="translate(0 -6.9)"/><path class="cls-12" d="M395,320.1c0-.1.1-.1.2-.1h2.9c.1,0,.2,0,.2.1s.1.1.1.2v16.9c0,.1,0,.2-.1.2s-.1.1-.2.1h-2.9c-.1,0-.2,0-.2-.1s-.1-.1-.1-.2v-6.8h-2.8v7h-3.4c-.1,0-.1-.1-.1-.2V320.3c0-.1,0-.2.1-.2h3.4v7h2.8v-6.8C394.9,320.2,394.9,320.1,395,320.1Z" transform="translate(0 -6.9)"/></g><g class="cls-11"><path class="cls-12" d="M407.7,337.3l-.4-2.5h-3.5l-.4,2.5c0,.1-.1.2-.3.2h-2.9c-.3,0-.3-.1-.3-.3l3.7-16.9a.3.3,0,0,1,.3-.3h3.4a.3.3,0,0,1,.3.3l3.7,16.9h0c0,.2-.1.2-.3.2h-3C407.8,337.5,407.7,337.4,407.7,337.3Zm-3.3-5.3h2.3a.1.1,0,0,0,.1-.1l-1.2-6.9h-.2l-1.1,6.9C404.3,332,404.3,332,404.4,332Z" transform="translate(0 -6.9)"/></g><g class="cls-11"><path class="cls-12" d="M421.2,320.1a.3.3,0,0,1,.1.2v2.4a.3.3,0,0,1-.1.2h-3.4c-.1,0-.1.1-.1.2v14c0,.1,0,.2-.1.2s-.1.1-.2.1h-2.9c-.1,0-.2,0-.2-.1s-.1-.1-.1-.2v-14a.2.2,0,0,0-.2-.2h-3.2a.3.3,0,0,1-.1-.2v-2.4a.3.3,0,0,1,.1-.2h10.4Z" transform="translate(0 -6.9)"/><path class="cls-12" d="M431.6,336.3a5.2,5.2,0,0,1-3.6,1.2h-4.7c-.1,0-.2,0-.2-.1s-.1-.1-.1-.2V320.3c0-.1,0-.2.1-.2s.1-.1.2-.1h4.1a6.2,6.2,0,0,1,4,1.2,4.6,4.6,0,0,1,1.4,3.6,4.2,4.2,0,0,1-1.7,3.6c-.1,0-.1.1,0,.1a5,5,0,0,1,1.9,4.2A4.5,4.5,0,0,1,431.6,336.3Zm-5.1-13.1v3.9h1a2.2,2.2,0,0,0,1.4-.5,2.4,2.4,0,0,0,.4-1.5,2.4,2.4,0,0,0-.4-1.6,1.7,1.7,0,0,0-1.4-.6h-.9C426.5,323,426.5,323.1,426.5,323.2Zm2.5,10.7a2.9,2.9,0,0,0,.5-1.7,3.2,3.2,0,0,0-.5-1.8,1.4,1.4,0,0,0-1.2-.6h-1.3v4.4c0,.1,0,.2.1.2h1.1A1.5,1.5,0,0,0,429,333.9Z" transform="translate(0 -6.9)"/><path class="cls-12" d="M435.9,336.4a4.5,4.5,0,0,1-1.4-3.6v-8a4.8,4.8,0,0,1,1.4-3.7,4.8,4.8,0,0,1,3.6-1.3,4.9,4.9,0,0,1,3.7,1.3,4.8,4.8,0,0,1,1.4,3.7v8a4.5,4.5,0,0,1-1.4,3.6,4.9,4.9,0,0,1-3.7,1.3A4.8,4.8,0,0,1,435.9,336.4Zm4.8-2.2a1.7,1.7,0,0,0,.4-1.3v-8.3a1.8,1.8,0,0,0-.4-1.3,1.7,1.7,0,0,0-1.2-.5,1.6,1.6,0,0,0-1.1.5,2.5,2.5,0,0,0-.4,1.3v8.3a2.2,2.2,0,0,0,.4,1.3,1.6,1.6,0,0,0,1.1.5A1.7,1.7,0,0,0,440.7,334.2Z" transform="translate(0 -6.9)"/><path class="cls-12" d="M456.5,320.1c.1,0,.1.1.1.2v2.4c0,.1,0,.2-.1.2s-.1.1-.2.1h-3.1l-.2.2v14.2h-3.4c-.1,0-.1-.1-.1-.2v-14c0-.1,0-.2-.1-.2h-3c-.1,0-.2,0-.2-.1s-.1-.1-.1-.2v-2.4c0-.1,0-.2.1-.2s.1-.1.2-.1h9.9C456.4,320,456.5,320,456.5,320.1Z" transform="translate(0 -6.9)"/></g><g class="cls-11"><path class="cls-12" d="M352.4,366.7a3.9,3.9,0,0,1-1.3-3.1v-4.9a3.7,3.7,0,0,1,1.3-3,4.8,4.8,0,0,1,3.5-1.2,5,5,0,0,1,3.5,1.2,4,4,0,0,1,1.3,3v4.9a4.2,4.2,0,0,1-1.3,3.1,6.1,6.1,0,0,1-7,0Zm4.4-2.4a1.5,1.5,0,0,0,.3-1V359a1.5,1.5,0,0,0-.3-1,1.2,1.2,0,0,0-.9-.4,1,1,0,0,0-.9.4,1.5,1.5,0,0,0-.4,1v4.3a1.5,1.5,0,0,0,.4,1,1,1,0,0,0,.9.4A1.2,1.2,0,0,0,356.8,364.3Z" transform="translate(0 -6.9)"/><path class="cls-12" d="M370.9,355.7a4.8,4.8,0,0,1,.9,3.1v8.7h-3.4v-8.4a1.6,1.6,0,0,0-.3-1.1.8.8,0,0,0-.8-.4,1,1,0,0,0-.9.4,1.6,1.6,0,0,0-.3,1.1v8.2c0,.1,0,.2-.1.2h-3.1c-.1,0-.2,0-.2-.1s-.1-.1-.1-.2V355c0-.1,0-.1.1-.2h3.3c.1.1.1.1.1.2v.5c0,.1,0,.1.1.1h.1a2.8,2.8,0,0,1,2.3-1A2.9,2.9,0,0,1,370.9,355.7Z" transform="translate(0 -6.9)"/><path class="cls-12" d="M381.5,367.3l-3.4-16.9h0c0-.2.1-.2.3-.2h3.1c.2,0,.3.1.3.2l1.4,9.1a.1.1,0,0,0,.1.1.1.1,0,0,1,.1-.1l1.3-9.1c0-.1.1-.2.3-.2h2.6c.2,0,.3.1.3.2l1.5,9.1h0a.1.1,0,0,0,.1-.1l1.3-9.1c0-.1.1-.2.3-.2h3a.3.3,0,0,1,.3.3l-3.2,16.9c0,.2-.2.3-.4.3h-2.7a.3.3,0,0,1-.3-.3l-1.5-9.2h0c-.1,0-.1,0-.1.1l-1.3,9.2c-.1.2-.2.3-.4.3h-2.6C381.7,367.6,381.6,367.5,381.5,367.3Z" transform="translate(0 -6.9)"/><path class="cls-12" d="M405.1,353h-5.6v4a.1.1,0,0,0,.1.1h3.3v2.8h-3.3a.3.3,0,0,0-.1.2v3.9a.3.3,0,0,0,.1.2h5.5v2.8h-8.8c-.1,0-.2,0-.2-.1s-.1-.1-.1-.2V350.4c0-.1,0-.2.1-.2h9v2.6C405.2,352.9,405.1,352.9,405.1,353Z" transform="translate(0 -6.9)"/><path class="cls-12" d="M415.6,366.3a4.8,4.8,0,0,1-3.6,1.3h-5V350.2h4.4a6.2,6.2,0,0,1,4,1.2,4.5,4.5,0,0,1,1.4,3.5,4.3,4.3,0,0,1-1.7,3.7.1.1,0,0,0-.1.1,4.6,4.6,0,0,1,2,4.2A4.2,4.2,0,0,1,415.6,366.3Zm-5.1-13.1v4a.1.1,0,0,0,.1.1h.9a1.5,1.5,0,0,0,1.3-.6,1.7,1.7,0,0,0,.5-1.5,2.5,2.5,0,0,0-.4-1.6,2.2,2.2,0,0,0-1.4-.5h-1Zm2.5,10.7a2.6,2.6,0,0,0,.5-1.7,2.9,2.9,0,0,0-.5-1.7,1.6,1.6,0,0,0-1.3-.7h-1.1c-.1,0-.1.1-.1.2v4.4c0,.1,0,.1.1.1h1.1A1.5,1.5,0,0,0,413,363.9Z" transform="translate(0 -6.9)"/><path class="cls-12" d="M420.7,367.2a3.8,3.8,0,0,1-1.7-1.6,4.8,4.8,0,0,1-.6-2.4v-.7c0-.1,0-.2.1-.2s.1-.1.2-.1h3.1a.3.3,0,0,1,.1.2v.5a1.7,1.7,0,0,0,.4,1.3,1.2,1.2,0,0,0,1,.5,1.4,1.4,0,0,0,1-.5,2.1,2.1,0,0,0,.4-1.2,1.7,1.7,0,0,0-.5-1.2,15,15,0,0,0-2-1.6l-2-1.6a5.9,5.9,0,0,1-1.3-1.8,5.1,5.1,0,0,1,.7-5.8,5.1,5.1,0,0,1,3.5-1.2,4.8,4.8,0,0,1,3.6,1.3,4.6,4.6,0,0,1,1.3,3.5v.8h-3.3c0-.1-.1-.1-.1-.2v-.7a1.6,1.6,0,0,0-.4-1.2c-.2-.4-.5-.5-1-.5a1,1,0,0,0-.9.4,1.6,1.6,0,0,0-.4,1.2,1.9,1.9,0,0,0,.5,1.4,10.7,10.7,0,0,0,1.8,1.6,24.3,24.3,0,0,1,2.4,1.8,6.1,6.1,0,0,1,1.2,1.6,5.5,5.5,0,0,1-.9,5.6,4.8,4.8,0,0,1-3.6,1.3A5.1,5.1,0,0,1,420.7,367.2Z" transform="translate(0 -6.9)"/><path class="cls-12" d="M429.9,367.5V350.2h3.4v17.3h-3.4Z" transform="translate(0 -6.9)"/><path class="cls-12" d="M445.5,350.2c.1,0,.1.1.1.2V353c0,.1-.1.1-.2.1h-3.2v14.3h-3.4V353.2h-3.3v-2.6c0-.1,0-.2.1-.2h10.3Z" transform="translate(0 -6.9)"/><path class="cls-12" d="M456.4,353c0,.1-.1.1-.2.1h-5.3v4c0,.1,0,.1.1.1h3.2c.1.1.1.1.1.2V360c0,.1,0,.2-.1.2H451c-.1,0-.1.1-.1.2v3.9c0,.1,0,.2.1.2h5.4c.1,0,.1.1.1.2v2.4c0,.1,0,.2-.1.2s-.1.1-.2.1h-8.8V350.2h9c.1,0,.1.1.1.2V353Z" transform="translate(0 -6.9)"/></g></g></g></svg>