<svg xmlns="http://www.w3.org/2000/svg" viewBox="0 0 175.75 41.53"><title>자산 1</title><g id="b51f1cfa-ffc2-4aac-8694-d4736da34203" data-name="레이어 2"><g id="b22a78d6-8be3-49b9-814f-b2f581bad360" data-name="레이어 1"><path d="M34.29.82l.34,13H34c-.16-.39-.32-.81-.49-1.28a30.42,30.42,0,0,0-2.54-5.79Q27.13.94,21.33.94,15,.94,11,7A24.14,24.14,0,0,0,7.13,20.75Q7.13,29,10.68,34c2.68,3.76,6.49,5.64,11.46,5.64a14.22,14.22,0,0,0,6.27-1.31,9.47,9.47,0,0,0,4.14-3.74,17.1,17.1,0,0,0,2-5.71l.66.11q-.78,6.3-4.55,9.41T20,41.52q-9.45,0-14.9-5.76Q0,30.38,0,21.51A25.22,25.22,0,0,1,1.56,12.6,18.75,18.75,0,0,1,6,5.67a19.21,19.21,0,0,1,7.24-4.31A23,23,0,0,1,21,0a21.48,21.48,0,0,1,5.94.88c.49.14,1.75.55,3.8,1.23a4.11,4.11,0,0,0,1.25.23c.67,0,1.22-.51,1.65-1.52Z" fill="#231815" fill-rule="evenodd"/><path d="M62.52,37.77l.5.29q-1.07,3-4.8,3a5.55,5.55,0,0,1-3.78-1.23,7.42,7.42,0,0,1-1.58-2,29.54,29.54,0,0,1-2.44,2,8.85,8.85,0,0,1-4.88,1.31,8,8,0,0,1-4.94-1.44,4.94,4.94,0,0,1-2-4.2,5.46,5.46,0,0,1,1.9-4.32,12.21,12.21,0,0,1,5-2.19,22.84,22.84,0,0,0,5.37-1.84,3.67,3.67,0,0,0,1.66-1.73,6.68,6.68,0,0,0,.38-2.51,8.69,8.69,0,0,0-1-4.63,4,4,0,0,0-3.66-1.93,3.69,3.69,0,0,0-2.64,1,11,11,0,0,0-1.6,2.85,2.1,2.1,0,0,1-2.12,1.31,2.15,2.15,0,0,1-1.8-.82,2.23,2.23,0,0,1-.49-1.42A2.45,2.45,0,0,1,41,17.06a13.39,13.39,0,0,1,6.75-1.5,16.19,16.19,0,0,1,5,.8,6.7,6.7,0,0,1,3.93,2.58,8.26,8.26,0,0,1,.67,3.91V33.59a17.82,17.82,0,0,0,.23,3.6,2.29,2.29,0,0,0,2.38,2,2.88,2.88,0,0,0,2-.74c.13-.14.32-.36.57-.67ZM52.86,26.33a20.24,20.24,0,0,1-3.41,2.28,27.89,27.89,0,0,0-3,1.79,6.29,6.29,0,0,0-2.7,5.21,4.66,4.66,0,0,0,1,3.06A3.36,3.36,0,0,0,47.41,40a4.65,4.65,0,0,0,3.47-1.56q2-2,2-7.26V26.33Z" fill="#231815" fill-rule="evenodd"/><path d="M71.32,15.44a15.64,15.64,0,0,1,.39,3.6,11.93,11.93,0,0,1,8.59-3.46A9.94,9.94,0,0,1,85.74,17a5.63,5.63,0,0,1,2.72,5.16V32.23q0,3.36.09,4.29a3.31,3.31,0,0,0,1.94,2.93,9.9,9.9,0,0,0,2.12.58v.58H79.73V40a6.94,6.94,0,0,0,2.43-.64A4.34,4.34,0,0,0,83.9,35.8c.06-.41.1-1.66.12-3.74V25.89q0-4.83-.77-6.42a4.26,4.26,0,0,0-1.9-1.9,6.28,6.28,0,0,0-3-.7,7.13,7.13,0,0,0-3.32.78,5.26,5.26,0,0,0-2.22,2.1,7.86,7.86,0,0,0-1,3.46c-.06.9-.09,2-.09,3.38v5.7q0,3.3.09,4.23a3.29,3.29,0,0,0,2,2.93,9.11,9.11,0,0,0,2.09.58v.58H63V40a7,7,0,0,0,2.44-.64,4.39,4.39,0,0,0,1.74-3.59c.06-.43.09-1.68.11-3.77V24.84c0-2.32-.06-3.72-.14-4.18q-.47-3.48-3.83-3.6v-.58l8-1Z" fill="#231815" fill-rule="evenodd"/><path d="M118.79,37.77l.49.29q-1.05,3-4.8,3a5.5,5.5,0,0,1-3.77-1.23,7.43,7.43,0,0,1-1.59-2,27.93,27.93,0,0,1-2.44,2,8.83,8.83,0,0,1-4.88,1.31,8,8,0,0,1-4.94-1.44,4.93,4.93,0,0,1-2-4.2,5.49,5.49,0,0,1,1.89-4.32,12.28,12.28,0,0,1,5-2.19,22.84,22.84,0,0,0,5.37-1.84,3.63,3.63,0,0,0,1.66-1.73,6.49,6.49,0,0,0,.38-2.51,8.79,8.79,0,0,0-1-4.63,4.05,4.05,0,0,0-3.66-1.93,3.7,3.7,0,0,0-2.65,1,10.81,10.81,0,0,0-1.59,2.85,2.12,2.12,0,0,1-2.12,1.31,2.16,2.16,0,0,1-1.81-.82,2.29,2.29,0,0,1-.49-1.42,2.47,2.47,0,0,1,1.43-2.1,13.34,13.34,0,0,1,6.75-1.5,16.17,16.17,0,0,1,5,.8,6.67,6.67,0,0,1,3.93,2.58,8.13,8.13,0,0,1,.67,3.91V33.59a18.62,18.62,0,0,0,.23,3.6,2.29,2.29,0,0,0,2.38,2,2.85,2.85,0,0,0,2-.74c.13-.14.33-.36.58-.67Zm-9.67-11.44a20.24,20.24,0,0,1-3.41,2.28,29,29,0,0,0-3,1.79,6.29,6.29,0,0,0-2.7,5.21,4.66,4.66,0,0,0,1,3.06A3.33,3.33,0,0,0,103.67,40a4.69,4.69,0,0,0,3.48-1.56q2-2,2-7.26V26.33Z" fill="#231815" fill-rule="evenodd"/><path d="M140.38,41.53a12.92,12.92,0,0,1-.29-3,15,15,0,0,1-8.1,2.55,11.14,11.14,0,0,1-8.2-3.23,12.34,12.34,0,0,1-3.47-9.13A13.2,13.2,0,0,1,124,19a11.56,11.56,0,0,1,8.56-3.43A10.29,10.29,0,0,1,138,17a18.7,18.7,0,0,1,2,1.44V7.8q0-3.85-1.68-5.22a5,5,0,0,0-2.81-.72V1.13L144.41,0V33.56A9.93,9.93,0,0,0,145,37.3a3.47,3.47,0,0,0,2.41,2.17,9.88,9.88,0,0,0,1.54.15v.72l-8.53,1.19Zm-6.86-25.25q-3.3,0-5.62,3.46a14.87,14.87,0,0,0-2.43,8.5,15.52,15.52,0,0,0,2.23,8.31q2.2,3.59,5.7,3.59a6,6,0,0,0,5.36-3.5,10.63,10.63,0,0,0,1-3.75c.13-1.39.2-2.94.2-4.65a37.59,37.59,0,0,0-.37-6.53,6.78,6.78,0,0,0-2.55-4.33,6,6,0,0,0-3.53-1.1Z" fill="#231815" fill-rule="evenodd"/><path d="M175.25,37.77l.5.29q-1.06,3-4.8,3a5.55,5.55,0,0,1-3.78-1.23,7.42,7.42,0,0,1-1.58-2,29.54,29.54,0,0,1-2.44,2,8.85,8.85,0,0,1-4.88,1.31,8,8,0,0,1-4.94-1.44,4.94,4.94,0,0,1-2-4.2,5.46,5.46,0,0,1,1.9-4.32,12.21,12.21,0,0,1,5-2.19,22.84,22.84,0,0,0,5.37-1.84,3.67,3.67,0,0,0,1.66-1.73,6.68,6.68,0,0,0,.38-2.51,8.79,8.79,0,0,0-1-4.63,4.06,4.06,0,0,0-3.67-1.93,3.69,3.69,0,0,0-2.64,1,11,11,0,0,0-1.6,2.85,2.1,2.1,0,0,1-2.12,1.31,2.15,2.15,0,0,1-1.8-.82,2.23,2.23,0,0,1-.49-1.42,2.45,2.45,0,0,1,1.42-2.1,13.39,13.39,0,0,1,6.75-1.5,16.19,16.19,0,0,1,5,.8,6.7,6.7,0,0,1,3.93,2.58,8.26,8.26,0,0,1,.67,3.91V33.59a17.82,17.82,0,0,0,.23,3.6,2.28,2.28,0,0,0,2.37,2,2.89,2.89,0,0,0,2-.74c.13-.14.32-.36.57-.67Zm-9.66-11.44a20.24,20.24,0,0,1-3.41,2.28,27.89,27.89,0,0,0-3,1.79,6.29,6.29,0,0,0-2.7,5.21,4.66,4.66,0,0,0,1,3.06,3.36,3.36,0,0,0,2.7,1.33,4.65,4.65,0,0,0,3.47-1.56q2-2,2-7.26V26.33Z" fill="#231815" fill-rule="evenodd"/><polygon points="153.95 12.64 153.95 0.01 147.92 0.01 147.92 12.64 153.95 12.64 153.95 12.64 153.95 12.64 153.95 12.64" fill="#e60012" fill-rule="evenodd"/><polygon points="174.5 12.64 174.5 0.01 168.49 0.01 168.49 12.64 174.5 12.64 174.5 12.64 174.5 12.64 174.5 12.64" fill="#e60012" fill-rule="evenodd"/><polygon points="161.15 12.09 160.65 12.09 160.65 9.66 157.92 9.91 158.43 8.94 155.47 6.77 156.26 6.33 155.5 4.26 157.11 4.65 157.71 3.82 159.77 5.87 158.68 1.93 159.98 2.66 161.15 0.54 162.33 2.66 163.65 1.93 162.54 5.87 164.61 3.82 165.22 4.65 166.81 4.26 166.05 6.33 166.86 6.77 163.88 8.94 164.41 9.91 161.68 9.66 161.68 12.09 161.15 12.09 161.15 12.09 161.15 12.09 161.15 12.09" fill="#e60012" fill-rule="evenodd"/></g></g></svg>