<svg xmlns="http://www.w3.org/2000/svg" viewBox="0 0 420.45 81.79"><title>자산 24</title><g id="ee371096-f92e-4743-8a96-6747a6e01cf4" data-name="레이어 2"><g id="b3ffcc9e-a536-4544-bfb3-b52c0ffa841c" data-name="Layer 1"><path d="M2.13,69.74a6.91,6.91,0,0,0,0,10,7.39,7.39,0,0,0,10.26,0,6.93,6.93,0,0,0,0-10,7.39,7.39,0,0,0-10.26,0" fill="#e8abb0"/><path d="M4.07,71.63a4.3,4.3,0,0,0,0,6.2,4.6,4.6,0,0,0,6.37,0,4.3,4.3,0,0,0,0-6.2,4.6,4.6,0,0,0-6.37,0" fill="#e72025"/><path d="M123.72,23l-6.3,3.74a10.88,10.88,0,0,0-3.36-4,9,9,0,0,0-9.67.77A5.65,5.65,0,0,0,102.26,28c0,2.52,1.86,4.53,5.6,6.07l5.13,2.1q6.27,2.54,9.17,6.18a14,14,0,0,1,2.9,8.95A15.72,15.72,0,0,1,120.32,63a16.24,16.24,0,0,1-11.83,4.67,15.85,15.85,0,0,1-11.07-4q-4.31-4-5.36-11.17l7.87-1.73q.52,4.53,1.86,6.26a8.86,8.86,0,0,0,13,.9,8.41,8.41,0,0,0,2.39-6.16,8.58,8.58,0,0,0-.41-2.75,7,7,0,0,0-1.31-2.3,10,10,0,0,0-2.28-2,21.35,21.35,0,0,0-3.33-1.75l-5-2.07Q94.36,36.54,94.36,27.93a12.37,12.37,0,0,1,4.43-9.7,16,16,0,0,1,11-3.93q8.9,0,13.9,8.66" fill="#231f20"/><rect x="134.42" y="15.3" width="7.76" height="51.47" fill="#231f20"/><polygon points="154.56 66.76 154.56 11.79 192.09 51.06 192.09 15.3 199.85 15.3 199.85 69.89 162.32 30.73 162.32 66.76 154.56 66.76" fill="#231f20"/><path d="M250.69,18.06v9.2q-6.74-5.62-13.94-5.64a17.78,17.78,0,0,0-13.37,5.71,19.24,19.24,0,0,0-5.46,13.87,18.75,18.75,0,0,0,5.46,13.66,18.09,18.09,0,0,0,13.41,5.57,16.39,16.39,0,0,0,7-1.34,19.19,19.19,0,0,0,3.32-1.8,37.35,37.35,0,0,0,3.62-2.73v9.37a28.05,28.05,0,0,1-14,3.77A25.83,25.83,0,0,1,217.86,60a25.54,25.54,0,0,1-7.77-18.74,26.39,26.39,0,0,1,6.5-17.53,25.87,25.87,0,0,1,20.7-9.44,26.29,26.29,0,0,1,13.4,3.77" fill="#231f20"/><path d="M257.59,40.79a25.17,25.17,0,0,1,8-18.66,26.21,26.21,0,0,1,19.06-7.8,25.75,25.75,0,0,1,18.87,7.86,25.76,25.76,0,0,1,7.9,18.9,25.29,25.29,0,0,1-7.94,18.83,27.2,27.2,0,0,1-37.13.88q-8.73-7.65-8.73-20m7.83.1a18.61,18.61,0,0,0,5.73,14,19,19,0,0,0,26.84-.1A19,19,0,0,0,303.55,41a18.87,18.87,0,0,0-5.49-13.8,19.19,19.19,0,0,0-27.1,0,18.56,18.56,0,0,0-5.54,13.66" fill="#e72025"/><path d="M318.58,40.79a25.21,25.21,0,0,1,8-18.66,26.23,26.23,0,0,1,19.07-7.8,25.73,25.73,0,0,1,18.86,7.86,25.68,25.68,0,0,1,7.9,18.9,25.28,25.28,0,0,1-7.93,18.83,27.2,27.2,0,0,1-37.13.88q-8.74-7.65-8.74-20m7.84.1a18.61,18.61,0,0,0,5.73,14,19,19,0,0,0,26.84-.1A19,19,0,0,0,364.55,41a18.84,18.84,0,0,0-5.5-13.8,19.19,19.19,0,0,0-27.1,0,18.59,18.59,0,0,0-5.53,13.66" fill="#e72025"/><polygon points="389.92 35.83 409.95 15.3 420.32 15.3 397.05 38.59 420.45 66.76 410.05 66.76 391.52 43.86 389.92 45.46 389.92 66.76 382.15 66.76 382.15 15.3 389.92 15.3 389.92 35.83" fill="#231f20"/><path d="M83,1.21l-.16-.16a3.78,3.78,0,0,0-5.23,0L59.81,18.33a33.11,33.11,0,0,0-43,2.47,31,31,0,0,0,0,44.68,33.11,33.11,0,0,0,45.91,0,31,31,0,0,0,2.53-41.9L83,6.3a3.54,3.54,0,0,0,0-5.09" fill="#231f20"/><path d="M39.72,60.17a17.69,17.69,0,0,1-12.38-5,16.73,16.73,0,0,1,0-24.11,17.88,17.88,0,0,1,24.76,0,16.75,16.75,0,0,1,0,24.11,17.71,17.71,0,0,1-12.38,5m0-32.8A16.36,16.36,0,0,0,28.26,32a15.47,15.47,0,0,0,0,22.31,16.54,16.54,0,0,0,22.92,0,15.5,15.5,0,0,0,0-22.31,16.36,16.36,0,0,0-11.46-4.61" fill="#fff"/></g></g></svg>