<?xml version="1.0" encoding="utf-8"?>
<!-- Generator: Adobe Illustrator 23.0.3, SVG Export Plug-In . SVG Version: 6.00 Build 0)  -->
<svg version="1.1" id="Layer_1" xmlns="http://www.w3.org/2000/svg" xmlns:xlink="http://www.w3.org/1999/xlink" x="0px" y="0px"
	 viewBox="0 0 69.4 79.5" style="enable-background:new 0 0 69.4 79.5;" xml:space="preserve">
<style type="text/css">
	.st0{fill:#221E1F;}
	.st1{fill:#FFFFFF;}
	.st2{fill:#E8ABB0;}
	.st3{fill:#231F20;}
	.st4{fill:#E72025;}
</style>
<g>
	<path class="st0" d="M1292.7,267.2c-0.4,0-0.7,0-1.1,0c-0.2,0-0.4,0-0.6,0c-0.2,0-0.5,0-0.7,0.1c0,0-0.1,0-0.1,0
		c-0.3,0-0.7,0.1-1,0.1c-0.1,0-0.2,0-0.2,0c-0.3,0-0.6,0.1-0.9,0.2c-0.1,0-0.1,0-0.1,0c-0.4,0.1-0.7,0.2-1.1,0.3
		c-0.4,0.1-0.7,0.2-1.1,0.4c-0.7,0.2-1.3,0.5-1.9,0.8c-0.2,0.1-0.4,0.2-0.6,0.3c-0.3,0.1-0.6,0.3-0.8,0.5c-0.2,0.1-0.3,0.2-0.5,0.3
		c-0.2,0.1-0.3,0.2-0.5,0.3c-0.4,0.2-0.7,0.5-1,0.7c-0.5,0.3-0.9,0.7-1.3,1.1c-0.2,0.2-0.5,0.4-0.7,0.7c2.1,2.5,3.7,5.6,4.6,8.9
		c0.1-0.2,0.2-0.4,0.4-0.6c0.1-0.2,0.3-0.4,0.4-0.6c0,0,0.1-0.1,0.1-0.1c0.3-0.3,0.6-0.7,0.9-1c0.2-0.2,0.3-0.3,0.5-0.5
		c0.2-0.2,0.4-0.3,0.6-0.5c0.2-0.1,0.4-0.3,0.6-0.4c0.2-0.1,0.4-0.2,0.6-0.3c0,0,0.1,0,0.1-0.1c0.1-0.1,0.3-0.2,0.4-0.2
		c1.2-0.6,2.4-1,3.8-1.2c0.2,0,0.4-0.1,0.6-0.1c0.2,0,0.5,0,0.8,0c6.3,0,11.5,5.2,11.5,11.5c0,6.4-5.2,11.5-11.5,11.5
		c-0.3,0-0.5,0-0.8,0c-0.2,0-0.4,0-0.6-0.1c-1.5-0.2-2.8-0.6-4.1-1.3c-0.1-0.1-0.2-0.1-0.3-0.2c-0.2-0.1-0.3-0.2-0.5-0.3
		c-0.2-0.1-0.4-0.3-0.6-0.4c-0.2-0.2-0.4-0.3-0.6-0.5c-0.2-0.1-0.4-0.3-0.5-0.5c-0.3-0.3-0.6-0.6-0.9-1c0,0-0.1-0.1-0.1-0.1
		c-0.2-0.2-0.3-0.4-0.4-0.6c-0.1-0.2-0.3-0.4-0.4-0.6c-0.1-0.2-0.3-0.4-0.4-0.7c-0.1-0.2-0.2-0.4-0.3-0.7c0,0,0,0,0,0
		c-0.2-0.5-0.4-1-0.5-1.5c-0.1-0.2-0.1-0.4-0.2-0.6c-0.1-0.4-0.2-0.7-0.2-1.1c0-0.2-0.1-0.4-0.1-0.6c0-0.3,0-0.5,0-0.8
		c0-4.9-1.7-9.5-4.6-13c-0.3-0.4-0.7-0.8-1-1.2c-0.2-0.2-0.4-0.5-0.7-0.7l0,0c-0.2-0.2-0.5-0.5-0.7-0.7c-0.4-0.4-0.9-0.8-1.3-1.1
		c-0.3-0.3-0.7-0.5-1-0.7c-0.2-0.1-0.3-0.2-0.5-0.3c-0.2-0.1-0.3-0.2-0.5-0.3c-0.3-0.2-0.6-0.3-0.8-0.5c-0.2-0.1-0.4-0.2-0.6-0.3
		c-0.6-0.3-1.3-0.6-1.9-0.8c-0.4-0.1-0.7-0.2-1.1-0.4c-0.3-0.1-0.7-0.2-1.1-0.3c-0.1,0-0.1,0-0.2,0c-0.3-0.1-0.6-0.1-0.9-0.2
		c-0.1,0-0.2,0-0.2,0c-0.3-0.1-0.6-0.1-1-0.1c0,0-0.1,0-0.1,0c-0.2,0-0.5-0.1-0.7-0.1c-0.2,0-0.4,0-0.6,0c-0.4,0-0.7,0-1.1,0
		c-11.4,0-20.7,9.3-20.7,20.7s9.3,20.7,20.7,20.7c0.3,0,0.7,0,1.1,0c0.2,0,0.4,0,0.6,0c0.2,0,0.5,0,0.7-0.1c0,0,0.1,0,0.1,0
		c0.3,0,0.6-0.1,1-0.1c0.1,0,0.2,0,0.2,0c0.3,0,0.6-0.1,0.9-0.2l0.2,0c0.4-0.1,0.7-0.2,1.1-0.3c0.4-0.1,0.7-0.2,1.1-0.3
		c0.7-0.2,1.3-0.5,1.9-0.8c0.2-0.1,0.4-0.2,0.6-0.3c0.3-0.1,0.6-0.3,0.8-0.5c0.2-0.1,0.3-0.2,0.5-0.3c0.2-0.1,0.3-0.2,0.5-0.3
		c0.3-0.2,0.7-0.5,1-0.7c0.5-0.3,0.9-0.7,1.3-1.1c0.2-0.2,0.5-0.5,0.7-0.7c-2.1-2.5-3.7-5.6-4.6-8.9c-0.1,0.2-0.2,0.4-0.4,0.6
		c-0.1,0.2-0.2,0.4-0.4,0.5c-0.1,0.1-0.1,0.1-0.1,0.2c-0.3,0.3-0.6,0.7-0.9,1c-0.2,0.2-0.3,0.3-0.5,0.5c-0.2,0.2-0.4,0.3-0.6,0.5
		c0,0,0,0,0,0c-0.2,0.1-0.4,0.3-0.6,0.4c-0.2,0.1-0.4,0.2-0.6,0.3c-0.2,0.1-0.5,0.3-0.7,0.4c-0.2,0.1-0.4,0.2-0.7,0.3
		c-0.9,0.4-1.9,0.7-3,0.8c-0.2,0-0.4,0-0.6,0.1c-0.2,0-0.5,0-0.8,0c-6.4,0-11.5-5.1-11.5-11.5c0-6.3,5.1-11.5,11.5-11.5
		c0.3,0,0.5,0,0.8,0c0.2,0,0.4,0,0.6,0.1c0.7,0.1,1.4,0.2,2,0.4c0.1,0,0.3,0.1,0.4,0.1c0.6,0.2,1.2,0.5,1.7,0.8
		c0.1,0.1,0.2,0.1,0.4,0.2c0.6,0.3,1.2,0.8,1.7,1.2c0.1,0.1,0.3,0.2,0.4,0.4c0.2,0.2,0.3,0.3,0.5,0.5c0.2,0.2,0.3,0.4,0.5,0.6
		c0.1,0.2,0.3,0.3,0.4,0.5c0.2,0.2,0.3,0.4,0.4,0.6c0.3,0.4,0.5,0.9,0.7,1.4c0.1,0.2,0.2,0.5,0.3,0.7c0,0,0,0,0,0
		c0.1,0.2,0.2,0.5,0.2,0.8c0.1,0.2,0.1,0.4,0.2,0.7c0.1,0.6,0.2,1.1,0.2,1.7c0,0.3,0,0.5,0,0.8c0,4.9,1.7,9.5,4.6,13
		c0.3,0.4,0.7,0.8,1,1.2c0.2,0.2,0.4,0.5,0.7,0.7l0,0c0.2,0.2,0.5,0.5,0.7,0.7c0.4,0.4,0.9,0.8,1.3,1.1c0.3,0.3,0.7,0.5,1,0.7
		c0.2,0.1,0.3,0.2,0.5,0.3c0.2,0.1,0.3,0.2,0.5,0.3c0.3,0.2,0.6,0.3,0.8,0.5c0.2,0.1,0.4,0.2,0.6,0.3c0.6,0.3,1.3,0.6,1.9,0.8
		c0.4,0.1,0.7,0.2,1.1,0.3c0.4,0.1,0.7,0.2,1.1,0.3l0.1,0c0.3,0.1,0.6,0.1,0.9,0.2c0.1,0,0.2,0,0.2,0c0.3,0.1,0.6,0.1,1,0.1
		c0,0,0.1,0,0.1,0c0.2,0,0.5,0.1,0.7,0.1c0.2,0,0.4,0,0.6,0c0.4,0,0.7,0,1.1,0c11.4,0,20.7-9.3,20.7-20.7S1304.2,267.2,1292.7,267.2
		z"/>
	<g>
		<path class="st0" d="M1292.7,205.3c-11.4,0-20.7,9.3-20.7,20.7c0,11.4,9.3,20.7,20.7,20.7c11.4,0,20.7-9.3,20.7-20.7
			C1313.5,214.6,1304.2,205.3,1292.7,205.3z M1292.7,237.5c-6.3,0-11.5-5.1-11.5-11.5c0-6.3,5.1-11.5,11.5-11.5
			c6.3,0,11.5,5.1,11.5,11.5C1304.2,232.4,1299.1,237.5,1292.7,237.5z"/>
		<path class="st1" d="M1292.7,205.3c11.4,0,20.7,9.3,20.7,20.7c0,11.4-9.3,20.7-20.7,20.7c-11.4,0-20.7-9.3-20.7-20.7
			C1272,214.6,1281.3,205.3,1292.7,205.3 M1292.7,237.5c6.3,0,11.5-5.1,11.5-11.5c0-6.3-5.1-11.5-11.5-11.5
			c-6.3,0-11.5,5.1-11.5,11.5C1281.2,232.4,1286.4,237.5,1292.7,237.5 M1292.7,202.8c-12.8,0-23.2,10.4-23.2,23.2
			c0,12.8,10.4,23.2,23.2,23.2s23.2-10.4,23.2-23.2C1316,213.2,1305.5,202.8,1292.7,202.8L1292.7,202.8z M1292.7,235c-5,0-9-4-9-9
			c0-5,4-9,9-9c5,0,9,4,9,9C1301.7,231,1297.7,235,1292.7,235L1292.7,235z"/>
	</g>
	<g>
		<path class="st0" d="M1260.5,205.3c-11.4,0-20.7,9.3-20.7,20.7c0,11.4,9.3,20.7,20.7,20.7c11.4,0,20.7-9.3,20.7-20.7
			C1281.2,214.6,1272,205.3,1260.5,205.3z M1260.5,237.5c-6.3,0-11.5-5.1-11.5-11.5c0-6.3,5.1-11.5,11.5-11.5
			c6.3,0,11.5,5.1,11.5,11.5C1272,232.4,1266.9,237.5,1260.5,237.5z"/>
		<path class="st1" d="M1260.5,205.3c11.4,0,20.7,9.3,20.7,20.7c0,11.4-9.3,20.7-20.7,20.7c-11.4,0-20.7-9.3-20.7-20.7
			C1239.8,214.6,1249.1,205.3,1260.5,205.3 M1260.5,237.5c6.3,0,11.5-5.1,11.5-11.5c0-6.3-5.1-11.5-11.5-11.5
			c-6.3,0-11.5,5.1-11.5,11.5C1249,232.4,1254.2,237.5,1260.5,237.5 M1260.5,202.8c-12.8,0-23.2,10.4-23.2,23.2
			c0,12.8,10.4,23.2,23.2,23.2s23.2-10.4,23.2-23.2C1283.7,213.2,1273.3,202.8,1260.5,202.8L1260.5,202.8z M1260.5,235c-5,0-9-4-9-9
			c0-5,4-9,9-9c5,0,9,4,9,9C1269.5,231,1265.5,235,1260.5,235L1260.5,235z"/>
	</g>
</g>
<path class="st2" d="M5.9,55.1c-2.2,2.2-2.2,5.7,0,7.9c2.2,2.2,5.7,2.2,7.9,0s2.2-5.7,0-7.9C11.6,52.9,8.1,52.9,5.9,55.1L5.9,55.1z"
	/>
<path class="st3" d="M6.7,69.6l-1.3,0.8c-0.2-0.4-0.5-0.7-0.7-0.8c-0.2-0.2-0.5-0.2-0.9-0.2c-0.5,0-0.8,0.1-1.1,0.4
	c-0.3,0.3-0.5,0.6-0.5,1c0,0.5,0.4,1,1.2,1.3l1.1,0.4c0.9,0.4,1.5,0.8,1.9,1.3C6.8,74.2,7,74.9,7,75.6c0,1-0.3,1.8-1,2.5
	c-0.7,0.7-1.5,1-2.5,1c-0.9,0-1.7-0.3-2.3-0.8c-0.6-0.6-1-1.3-1.1-2.4l1.7-0.4c0.1,0.6,0.2,1.1,0.4,1.3c0.3,0.5,0.8,0.7,1.5,0.7
	c0.5,0,0.9-0.2,1.3-0.5c0.3-0.3,0.5-0.8,0.5-1.3c0-0.2,0-0.4-0.1-0.6C5.2,75,5.1,74.8,5,74.7c-0.1-0.1-0.3-0.3-0.5-0.4
	C4.3,74.1,4,74,3.8,73.9l-1-0.4c-1.5-0.6-2.2-1.5-2.2-2.8c0-0.8,0.3-1.5,0.9-2c0.6-0.6,1.4-0.8,2.3-0.8C5,67.8,6,68.4,6.7,69.6z"/>
<path class="st3" d="M10.6,68v10.9H9V68H10.6z"/>
<path class="st3" d="M13.2,78.9V67.3l7.9,8.3V68h1.6v11.5l-7.9-8.3v7.6H13.2z"/>
<path class="st3" d="M33.5,68.6v1.9c-0.9-0.8-1.9-1.2-2.9-1.2c-1.1,0-2.1,0.4-2.8,1.2c-0.8,0.8-1.2,1.8-1.2,2.9
	c0,1.1,0.4,2.1,1.2,2.9c0.8,0.8,1.7,1.2,2.8,1.2c0.6,0,1.1-0.1,1.5-0.3c0.2-0.1,0.5-0.2,0.7-0.4c0.2-0.2,0.5-0.4,0.8-0.6v2
	c-0.9,0.5-1.9,0.8-3,0.8c-1.6,0-2.9-0.5-4-1.6c-1.1-1.1-1.6-2.4-1.6-4c0-1.4,0.5-2.6,1.4-3.7c1.1-1.3,2.6-2,4.4-2
	C31.7,67.8,32.6,68.1,33.5,68.6z"/>
<path class="st4" d="M35,73.4c0-1.5,0.6-2.8,1.7-3.9c1.1-1.1,2.5-1.6,4-1.6c1.5,0,2.9,0.6,4,1.7c1.1,1.1,1.7,2.4,1.7,4
	c0,1.6-0.6,2.9-1.7,4c-1.1,1.1-2.5,1.6-4.1,1.6c-1.4,0-2.7-0.5-3.8-1.5C35.6,76.5,35,75.1,35,73.4z M36.6,73.4c0,1.2,0.4,2.2,1.2,3
	c0.8,0.8,1.7,1.2,2.8,1.2c1.1,0,2.1-0.4,2.9-1.2c0.8-0.8,1.2-1.8,1.2-2.9c0-1.2-0.4-2.1-1.2-2.9c-0.8-0.8-1.7-1.2-2.9-1.2
	c-1.1,0-2.1,0.4-2.9,1.2C37,71.3,36.6,72.3,36.6,73.4z"/>
<path class="st4" d="M47.9,73.4c0-1.5,0.6-2.8,1.7-3.9c1.1-1.1,2.5-1.6,4-1.6c1.5,0,2.9,0.6,4,1.7c1.1,1.1,1.7,2.4,1.7,4
	c0,1.6-0.6,2.9-1.7,4c-1.1,1.1-2.5,1.6-4.1,1.6c-1.4,0-2.7-0.5-3.8-1.5C48.5,76.5,47.9,75.1,47.9,73.4z M49.5,73.4
	c0,1.2,0.4,2.2,1.2,3c0.8,0.8,1.7,1.2,2.8,1.2c1.1,0,2.1-0.4,2.9-1.2c0.8-0.8,1.2-1.8,1.2-2.9c0-1.2-0.4-2.1-1.2-2.9
	c-0.8-0.8-1.7-1.2-2.9-1.2c-1.1,0-2.1,0.4-2.9,1.2C49.9,71.3,49.5,72.3,49.5,73.4z"/>
<path class="st3" d="M62.9,72.3l4.2-4.3h2.2l-4.9,4.9l4.9,6h-2.2L63.3,74l-0.3,0.3v4.5h-1.6V68h1.6V72.3z"/>
<path class="st3" d="M68.1,1L68,0.8c-1.1-1.1-2.9-1.1-4,0L50.3,14.5c-9.8-7.7-24.1-7.1-33.1,1.9c-9.8,9.8-9.8,25.6,0,35.3
	c9.8,9.8,25.6,9.8,35.3,0c9-9,9.7-23.3,1.9-33.1L68.1,5C69.2,3.9,69.2,2.1,68.1,1z"/>
<path class="st1" d="M34.8,47.6c-3.4,0-6.9-1.3-9.5-3.9l0,0l0,0c-2.5-2.5-3.9-5.9-3.9-9.5c0-3.6,1.4-7,3.9-9.5
	c5.3-5.3,13.8-5.3,19,0c5.3,5.3,5.3,13.8,0,19C41.7,46.2,38.3,47.6,34.8,47.6z M34.8,21.6c-3.2,0-6.4,1.2-8.8,3.6
	c-2.4,2.4-3.6,5.5-3.6,8.8c0,3.3,1.3,6.5,3.6,8.8l0,0c4.9,4.9,12.8,4.9,17.6,0c4.9-4.9,4.9-12.8,0-17.6C41.2,22.8,38,21.6,34.8,21.6
	z"/>
<path class="st4" d="M7.4,56.6c-1.4,1.4-1.4,3.5,0,4.9c1.4,1.4,3.5,1.4,4.9,0c1.4-1.4,1.4-3.5,0-4.9C11,55.3,8.8,55.3,7.4,56.6
	L7.4,56.6z"/>
</svg>
