<svg xmlns="http://www.w3.org/2000/svg" viewBox="0 0 69.4 12.28">
<title>logo</title><g id="a2de093a-468b-4280-a719-2c59004a96f0" data-name=""><g id="b77cc777-42f4-49ae-b025-c630b0fa4d6c" data-name="Layer 1"><path d="M6.69,2.36l-1.33.79a2.48,2.48,0,0,0-.71-.85,1.68,1.68,0,0,0-.91-.22,1.67,1.67,0,0,0-1.13.39,1.19,1.19,0,0,0-.45.95c0,.53.39,1,1.18,1.29l1.08.44A4.58,4.58,0,0,1,6.36,6.46,2.92,2.92,0,0,1,7,8.35a3.32,3.32,0,0,1-1,2.48,3.45,3.45,0,0,1-2.5,1A3.36,3.36,0,0,1,1.13,11,3.85,3.85,0,0,1,0,8.62l1.66-.37a2.81,2.81,0,0,0,.4,1.32,1.71,1.71,0,0,0,1.48.71,1.69,1.69,0,0,0,1.27-.52,1.76,1.76,0,0,0,.51-1.3,1.81,1.81,0,0,0-.09-.58A1.57,1.57,0,0,0,5,7.39,2.59,2.59,0,0,0,4.47,7a3.79,3.79,0,0,0-.7-.37l-1-.44C1.23,5.54.49,4.62.49,3.41a2.62,2.62,0,0,1,.93-2A3.41,3.41,0,0,1,3.75.53,3.25,3.25,0,0,1,6.69,2.36Z" fill="#231f20"/><path d="M10.59.74V11.62H9V.74Z" fill="#231f20"/><path d="M13.21,11.62V0l7.93,8.3V.74h1.64V12.28L14.85,4v7.62Z" fill="#231f20"/><path d="M33.52,1.32v2a4.57,4.57,0,0,0-2.94-1.19,3.77,3.77,0,0,0-2.83,1.2A4.07,4.07,0,0,0,26.6,6.21,4,4,0,0,0,27.75,9.1a3.81,3.81,0,0,0,2.84,1.18A3.64,3.64,0,0,0,32.06,10a6.14,6.14,0,0,0,.7-.38A8.56,8.56,0,0,0,33.52,9v2a5.92,5.92,0,0,1-3,.79,5.57,5.57,0,0,1-5.62-5.58,5.58,5.58,0,0,1,1.38-3.71,5.44,5.44,0,0,1,4.37-2A5.53,5.53,0,0,1,33.52,1.32Z" fill="#231f20"/><path d="M35,6.13a5.32,5.32,0,0,1,1.69-3.95,5.55,5.55,0,0,1,4-1.64,5.44,5.44,0,0,1,4,1.66,5.45,5.45,0,0,1,1.67,4,5.33,5.33,0,0,1-1.68,4,5.75,5.75,0,0,1-7.84.19A5.37,5.37,0,0,1,35,6.13Zm1.66,0a3.94,3.94,0,0,0,1.21,3,4,4,0,0,0,5.67,0A4,4,0,0,0,44.7,6.18a4,4,0,0,0-1.17-2.92,4.06,4.06,0,0,0-5.72,0A3.92,3.92,0,0,0,36.64,6.15Z" fill="#e72025"/><path d="M47.87,6.13a5.32,5.32,0,0,1,1.69-3.95,5.56,5.56,0,0,1,4-1.64,5.43,5.43,0,0,1,4,1.66,5.41,5.41,0,0,1,1.67,4,5.33,5.33,0,0,1-1.68,4,5.75,5.75,0,0,1-7.84.19A5.37,5.37,0,0,1,47.87,6.13Zm1.66,0a3.94,3.94,0,0,0,1.21,3,4,4,0,0,0,5.67,0,4,4,0,0,0,1.18-2.91,4,4,0,0,0-1.17-2.92,4.06,4.06,0,0,0-5.72,0A3.92,3.92,0,0,0,49.53,6.15Z" fill="#e72025"/><path d="M63,5.08,67.18.74h2.19L64.45,5.66l5,6H67.2L63.28,6.78,63,7.11v4.51H61.31V.74H63Z" fill="#231f20"/></g></g>
</svg>