<svg xmlns="http://www.w3.org/2000/svg" viewBox="0 0 568.83 491.74">
<title>colorpallete</title><g id="b0e5ef0a-2b79-48a2-8ef5-2cd9c05a9b16" data-name=""><g id="a1a1c2a7-7af3-4c0a-9296-784ed838aa05" data-name="Layer 1"><path d="M7.72,53.11H4.63l-1.4-3.75c0-.07,0-.15-.08-.26s-.07-.23-.12-.37l0,.69v3.69H.21V42.56H3.13A4.58,4.58,0,0,1,6,43.32a3.33,3.33,0,0,1,1.21,2.76A2.65,2.65,0,0,1,5.6,48.73ZM3.06,47.45h.19a1,1,0,0,0,.82-.38,1.4,1.4,0,0,0,.33-1c0-.78-.41-1.18-1.23-1.18H3.06Z" fill="#ee2525"/><path d="M12.18,47h4v.44a8.14,8.14,0,0,1-.91,4.39,3.33,3.33,0,0,1-2.94,1.46,3.53,3.53,0,0,1-3-1.44,6.5,6.5,0,0,1-1.08-4,6.64,6.64,0,0,1,1.09-4,3.47,3.47,0,0,1,3-1.48A3.78,3.78,0,0,1,15.93,45l-2.76,1a1.72,1.72,0,0,0-.28-.79.7.7,0,0,0-.56-.29c-.79,0-1.18,1.08-1.18,3.24a5.62,5.62,0,0,0,.26,2,.87.87,0,0,0,.83.62.72.72,0,0,0,.41-.11.89.89,0,0,0,.31-.3,2,2,0,0,0,.2-.49,2.43,2.43,0,0,0,.07-.63H12.18Z" fill="#ee2525"/><path d="M17.42,53.11V42.56h3.31a4,4,0,0,1,2.76.82,2.84,2.84,0,0,1,.9,2.17,1.91,1.91,0,0,1-2,2.15,2.7,2.7,0,0,1,1.64.74,2.35,2.35,0,0,1,.52,1.65,2.85,2.85,0,0,1-.88,2.19,3.17,3.17,0,0,1-2.3.83Zm2.85-6.45h.19a1.26,1.26,0,0,0,.81-.24.8.8,0,0,0,.29-.67c0-.61-.33-.91-1-.91h-.29Zm0,4.16.14,0h.1a1.26,1.26,0,0,0,.85-.28.93.93,0,0,0,.32-.75.89.89,0,0,0-.32-.74,1.29,1.29,0,0,0-.87-.27h-.22Z" fill="#ee2525"/><path d="M1.54,75H.14v-.42a4.21,4.21,0,0,1,.52-2.43,2,2,0,0,1,1.76-.72c1.56,0,2.33.87,2.33,2.59A12.06,12.06,0,0,1,3,79l-.84,1.58a.54.54,0,0,1,0,.08l-.1.2H4.63v1.22H0c.08-.17.24-.52.49-1s.58-1.21,1-2.09.66-1.41.9-1.95.43-1,.55-1.31A5.24,5.24,0,0,0,3.31,74c0-.87-.31-1.31-.91-1.31s-.88.54-.88,1.62V75Z" fill="#000100"/><path d="M7.33,74.38H6V74.1a5.32,5.32,0,0,1,.12-1.21,2.05,2.05,0,0,1,.38-.83,1.42,1.42,0,0,1,.65-.48,2.66,2.66,0,0,1,1-.16,2,2,0,0,1,1.69.66,3.27,3.27,0,0,1,.54,2.09,4.31,4.31,0,0,1-.25,1.69,1.61,1.61,0,0,1-.92.8,1.72,1.72,0,0,1,1,.79,3.88,3.88,0,0,1,.28,1.69,3.66,3.66,0,0,1-.61,2.34A2.25,2.25,0,0,1,8,82.23c-1.45,0-2.17-.83-2.17-2.49v-.28H7.13a1.41,1.41,0,0,0,0,.2c0,.06,0,.1,0,.14a1.39,1.39,0,0,0,.24.86A.77.77,0,0,0,8,81a.81.81,0,0,0,.45-.11.74.74,0,0,0,.31-.34,1.78,1.78,0,0,0,.17-.61A5.84,5.84,0,0,0,9,79a2.59,2.59,0,0,0-.29-1.39,1.11,1.11,0,0,0-1-.42H7.57l-.21,0V76h.2a1.4,1.4,0,0,0,1.12-.35A2.21,2.21,0,0,0,9,74.3c0-1.09-.27-1.64-.82-1.64s-.82.47-.82,1.4Z" fill="#000100"/><path d="M11.81,71.55h2.41V82.11H12.86V72.76h-1Z" fill="#000100"/><path d="M21.38,74.38H20V74.1a5.32,5.32,0,0,1,.12-1.21,2.19,2.19,0,0,1,.38-.83,1.48,1.48,0,0,1,.65-.48,2.7,2.7,0,0,1,.95-.16,2.06,2.06,0,0,1,1.7.66,3.34,3.34,0,0,1,.53,2.09,4.34,4.34,0,0,1-.24,1.69,1.6,1.6,0,0,1-.93.8,1.72,1.72,0,0,1,1,.79,5,5,0,0,1-.32,4,2.26,2.26,0,0,1-1.87.75c-1.45,0-2.18-.83-2.18-2.49v-.19s0-.08,0-.09h1.33a1.27,1.27,0,0,1,0,.2v.14a1.46,1.46,0,0,0,.23.86A.78.78,0,0,0,22,81a.85.85,0,0,0,.46-.11.78.78,0,0,0,.3-.34,2,2,0,0,0,.18-.61A7.64,7.64,0,0,0,23,79a2.5,2.5,0,0,0-.29-1.39,1.08,1.08,0,0,0-1-.42h-.16l-.2,0V76h.19a1.39,1.39,0,0,0,1.12-.35A2.2,2.2,0,0,0,23,74.3c0-1.09-.28-1.64-.83-1.64s-.82.47-.82,1.4Z" fill="#000100"/><path d="M27,75h-1.4v-.42a4.21,4.21,0,0,1,.52-2.43,2,2,0,0,1,1.76-.72c1.55,0,2.33.87,2.33,2.59a12.06,12.06,0,0,1-1.74,5l-.84,1.58,0,.08s-.06.12-.1.2h2.61v1.22H25.5l.48-1L27,79q.54-1.14.9-1.95c.24-.53.42-1,.55-1.31A5.49,5.49,0,0,0,28.81,74c0-.87-.31-1.31-.91-1.31s-.88.54-.88,1.62V75Z" fill="#000100"/><path d="M35.79,74.38H34.43V74.1a5.32,5.32,0,0,1,.12-1.21,2.19,2.19,0,0,1,.38-.83,1.48,1.48,0,0,1,.65-.48,2.66,2.66,0,0,1,1-.16,2.06,2.06,0,0,1,1.7.66,3.34,3.34,0,0,1,.53,2.09,4.13,4.13,0,0,1-.25,1.69,1.58,1.58,0,0,1-.92.8,1.72,1.72,0,0,1,1,.79,5,5,0,0,1-.32,4,2.26,2.26,0,0,1-1.87.75c-1.45,0-2.18-.83-2.18-2.49v-.19s0-.08,0-.09h1.33c0,.07,0,.14,0,.2v.14a1.46,1.46,0,0,0,.23.86.78.78,0,0,0,.65.32.79.79,0,0,0,.45-.11.74.74,0,0,0,.31-.34,2,2,0,0,0,.18-.61,7.64,7.64,0,0,0,0-.91,2.59,2.59,0,0,0-.29-1.39,1.09,1.09,0,0,0-1-.42H36l-.21,0V76H36a1.39,1.39,0,0,0,1.12-.35,2.2,2.2,0,0,0,.3-1.35c0-1.09-.28-1.64-.83-1.64s-.82.47-.82,1.4Z" fill="#000100"/><path d="M40,71.55H44.7L41.5,82.11H40l2.93-9.35H40Z" fill="#000100"/><path d="M7.72,189.61H4.63l-1.4-3.75c0-.07,0-.15-.08-.26s-.07-.23-.12-.37l0,.69v3.69H.21V179.06H3.13a4.58,4.58,0,0,1,2.89.76,3.33,3.33,0,0,1,1.21,2.76,2.65,2.65,0,0,1-1.63,2.65ZM3.06,184h.19a1,1,0,0,0,.82-.38,1.4,1.4,0,0,0,.33-1c0-.78-.41-1.18-1.23-1.18H3.06Z" fill="#ee2525"/><path d="M12.18,183.51h4V184a8.14,8.14,0,0,1-.91,4.39,3.33,3.33,0,0,1-2.94,1.46,3.53,3.53,0,0,1-3-1.44,6.5,6.5,0,0,1-1.08-4,6.64,6.64,0,0,1,1.09-4,3.47,3.47,0,0,1,3-1.48,3.78,3.78,0,0,1,3.63,2.61l-2.76,1a1.72,1.72,0,0,0-.28-.79.7.7,0,0,0-.56-.29c-.79,0-1.18,1.08-1.18,3.24a5.62,5.62,0,0,0,.26,2,.87.87,0,0,0,.83.62.72.72,0,0,0,.41-.11.89.89,0,0,0,.31-.3,2,2,0,0,0,.2-.49,2.43,2.43,0,0,0,.07-.63H12.18Z" fill="#ee2525"/><path d="M17.42,189.61V179.06h3.31a4,4,0,0,1,2.76.82,2.84,2.84,0,0,1,.9,2.17,1.91,1.91,0,0,1-2,2.15,2.7,2.7,0,0,1,1.64.74,2.35,2.35,0,0,1,.52,1.65,2.85,2.85,0,0,1-.88,2.19,3.17,3.17,0,0,1-2.3.83Zm2.85-6.45h.19a1.26,1.26,0,0,0,.81-.24.8.8,0,0,0,.29-.67c0-.61-.33-.91-1-.91h-.29Zm0,4.16.14,0h.1a1.26,1.26,0,0,0,.85-.28.93.93,0,0,0,.32-.75.89.89,0,0,0-.32-.74,1.29,1.29,0,0,0-.87-.27h-.22Z" fill="#ee2525"/><path d="M1.54,211.49H.14v-.42a4.21,4.21,0,0,1,.52-2.43,2,2,0,0,1,1.76-.72c1.56,0,2.33.87,2.33,2.59a12.06,12.06,0,0,1-1.74,5l-.84,1.58,0,.08c0,.05-.06.12-.1.2H4.63v1.22H0c.08-.17.24-.52.49-1s.58-1.21,1-2.09.66-1.41.9-2,.43-1,.55-1.31a5.24,5.24,0,0,0,.37-1.77c0-.87-.31-1.31-.91-1.31s-.88.54-.88,1.62v.72Z" fill="#000100"/><path d="M7.33,210.88H6v-.28a5.32,5.32,0,0,1,.12-1.21,2.05,2.05,0,0,1,.38-.83,1.42,1.42,0,0,1,.65-.48,2.66,2.66,0,0,1,1-.16,2,2,0,0,1,1.69.66,3.27,3.27,0,0,1,.54,2.09,4.31,4.31,0,0,1-.25,1.69,1.61,1.61,0,0,1-.92.8,1.72,1.72,0,0,1,1,.79,3.88,3.88,0,0,1,.28,1.69A3.66,3.66,0,0,1,9.83,218a2.25,2.25,0,0,1-1.87.75c-1.45,0-2.17-.83-2.17-2.49V216H7.13a1.41,1.41,0,0,0,0,.2c0,.06,0,.1,0,.14a1.39,1.39,0,0,0,.24.86.77.77,0,0,0,.65.32.81.81,0,0,0,.45-.11.74.74,0,0,0,.31-.34,1.78,1.78,0,0,0,.17-.61,5.84,5.84,0,0,0,.06-.91,2.59,2.59,0,0,0-.29-1.39,1.11,1.11,0,0,0-1-.42H7.57l-.21,0V212.5h.2a1.4,1.4,0,0,0,1.12-.35A2.21,2.21,0,0,0,9,210.8c0-1.09-.27-1.64-.82-1.64s-.82.47-.82,1.4Z" fill="#000100"/><path d="M13,211.49H11.6l0-.42a4.29,4.29,0,0,1,.52-2.43,2,2,0,0,1,1.77-.72c1.55,0,2.33.87,2.33,2.59a12,12,0,0,1-1.75,5l-.84,1.58a.18.18,0,0,1,0,.08l-.09.2h2.61v1.22H11.45c.08-.17.24-.52.49-1s.58-1.21,1-2.09.66-1.41.91-2,.42-1,.54-1.31a5.24,5.24,0,0,0,.37-1.77c0-.87-.3-1.31-.91-1.31s-.87.54-.87,1.62v.72Z" fill="#000100"/><path d="M20.87,208.05h2.41v10.56H21.92v-9.35H20.87Z" fill="#000100"/><path d="M25.27,208.05H30l-3.2,10.56H25.27l2.93-9.35H25.27Z" fill="#000100"/><path d="M31.4,208.05h2.41v10.56H32.45v-9.35H31.4Z" fill="#000100"/><path d="M40.1,208.05h2.4v10.56H41.14v-9.35h-1Z" fill="#000100"/><path d="M44.5,208.05h4.71L46,218.61H44.5l2.93-9.35H44.5Z" fill="#000100"/><path d="M51.68,208.05h1.51l-1,2c-.17.37-.34.77-.52,1.18s-.36.86-.55,1.33a1.86,1.86,0,0,1,1.14-.48,1.52,1.52,0,0,1,1.36.77,5.22,5.22,0,0,1,.45,2.57,4.6,4.6,0,0,1-.52,2.52,2.29,2.29,0,0,1-3.48-.08,5.31,5.31,0,0,1-.54-2.76,11,11,0,0,1,.43-3.06,14.73,14.73,0,0,1,.64-1.71C50.9,209.7,51.26,208.93,51.68,208.05Zm1,7.39a6.35,6.35,0,0,0,0-.93,2.24,2.24,0,0,0-.15-.63.78.78,0,0,0-.28-.35.69.69,0,0,0-.41-.12.65.65,0,0,0-.4.12.78.78,0,0,0-.28.35,2.64,2.64,0,0,0-.16.62,8.38,8.38,0,0,0,0,.93c0,1.38.29,2.07.88,2.07S52.72,216.82,52.72,215.44Z" fill="#000100"/><path d="M7.72,326.11H4.63l-1.4-3.75c0-.07,0-.15-.08-.26s-.07-.23-.12-.37l0,.69v3.69H.21V315.56H3.13a4.58,4.58,0,0,1,2.89.76,3.33,3.33,0,0,1,1.21,2.76,2.65,2.65,0,0,1-1.63,2.65Zm-4.66-5.66h.19a1,1,0,0,0,.82-.38,1.4,1.4,0,0,0,.33-1c0-.78-.41-1.18-1.23-1.18H3.06Z" fill="#ee2525"/><path d="M12.18,320h4v.44a8.14,8.14,0,0,1-.91,4.39,3.33,3.33,0,0,1-2.94,1.46,3.53,3.53,0,0,1-3-1.44,6.5,6.5,0,0,1-1.08-4,6.64,6.64,0,0,1,1.09-4,3.47,3.47,0,0,1,3-1.48A3.78,3.78,0,0,1,15.93,318l-2.76,1a1.72,1.72,0,0,0-.28-.79.7.7,0,0,0-.56-.29c-.79,0-1.18,1.08-1.18,3.24a5.62,5.62,0,0,0,.26,2,.87.87,0,0,0,.83.62.72.72,0,0,0,.41-.11.89.89,0,0,0,.31-.3,2,2,0,0,0,.2-.49,2.43,2.43,0,0,0,.07-.63H12.18Z" fill="#ee2525"/><path d="M17.42,326.11V315.56h3.31a4,4,0,0,1,2.76.82,2.84,2.84,0,0,1,.9,2.17,1.91,1.91,0,0,1-2,2.15,2.7,2.7,0,0,1,1.64.74,2.35,2.35,0,0,1,.52,1.65,2.85,2.85,0,0,1-.88,2.19,3.17,3.17,0,0,1-2.3.83Zm2.85-6.45h.19a1.26,1.26,0,0,0,.81-.24.8.8,0,0,0,.29-.67c0-.61-.33-.91-1-.91h-.29Zm0,4.16.14,0h.1a1.26,1.26,0,0,0,.85-.28.93.93,0,0,0,.32-.75.89.89,0,0,0-.32-.74,1.29,1.29,0,0,0-.87-.27h-.22Z" fill="#ee2525"/><path d="M1.54,348H.14v-.42a4.21,4.21,0,0,1,.52-2.43,2,2,0,0,1,1.76-.72c1.56,0,2.33.87,2.33,2.59A12.06,12.06,0,0,1,3,352l-.84,1.58,0,.08-.1.2H4.63v1.22H0c.08-.17.24-.52.49-1s.58-1.21,1-2.09.66-1.41.9-1.95.43-1,.55-1.31A5.24,5.24,0,0,0,3.31,347c0-.87-.31-1.31-.91-1.31s-.88.54-.88,1.62V348Z" fill="#000100"/><path d="M6.94,344.55H10.3v1.23H8l-.34,2.65h.17a2.93,2.93,0,0,1,1.11.2,2,2,0,0,1,.81.58,2.64,2.64,0,0,1,.5.94,5.29,5.29,0,0,1-.6,4.08,2.57,2.57,0,0,1-2.15,1,3.79,3.79,0,0,1-1.68-.44l.36-1.25a2.83,2.83,0,0,0,1.22.38,1.26,1.26,0,0,0,1.11-.63,3.13,3.13,0,0,0,.41-1.71c0-1.35-.58-2-1.74-2a2.91,2.91,0,0,0-.87.13Z" fill="#000100"/><path d="M12.42,344.55h3.36v1.23H13.5l-.34,2.65h.17a2.92,2.92,0,0,1,1.1.2,2,2,0,0,1,.81.58,2.49,2.49,0,0,1,.5.94,4.22,4.22,0,0,1,.17,1.28,4.5,4.5,0,0,1-.77,2.8,2.56,2.56,0,0,1-2.15,1,3.75,3.75,0,0,1-1.67-.44l.35-1.25a2.87,2.87,0,0,0,1.23.38,1.25,1.25,0,0,0,1.1-.63,3,3,0,0,0,.42-1.71c0-1.35-.59-2-1.75-2a3,3,0,0,0-.87.13Z" fill="#000100"/><path d="M21.48,348h-1.4v-.42a4.21,4.21,0,0,1,.52-2.43,2,2,0,0,1,1.76-.72c1.56,0,2.33.87,2.33,2.59a12.06,12.06,0,0,1-1.74,5l-.84,1.58,0,.08-.1.2h2.61v1.22H19.94l.48-1,1-2.09q.54-1.14.9-1.95c.24-.53.42-1,.55-1.31a5.49,5.49,0,0,0,.37-1.77c0-.87-.31-1.31-.91-1.31s-.88.54-.88,1.62V348Z" fill="#000100"/><path d="M26.88,344.55h3.36v1.23H28l-.34,2.65h.17a2.93,2.93,0,0,1,1.11.2,2,2,0,0,1,.81.58,2.64,2.64,0,0,1,.5.94,4.56,4.56,0,0,1,.17,1.28,4.5,4.5,0,0,1-.78,2.8,2.54,2.54,0,0,1-2.14,1,3.76,3.76,0,0,1-1.68-.44l.36-1.25a2.83,2.83,0,0,0,1.22.38,1.26,1.26,0,0,0,1.11-.63,3.13,3.13,0,0,0,.41-1.71c0-1.35-.58-2-1.74-2a2.91,2.91,0,0,0-.87.13Z" fill="#000100"/><path d="M32.36,344.55h3.35v1.23H33.44l-.34,2.65h.17a2.92,2.92,0,0,1,1.1.2,2,2,0,0,1,.81.58,2.49,2.49,0,0,1,.5.94,5.29,5.29,0,0,1-.6,4.08,2.56,2.56,0,0,1-2.15,1,3.75,3.75,0,0,1-1.67-.44l.35-1.25a2.87,2.87,0,0,0,1.23.38,1.25,1.25,0,0,0,1.1-.63,3,3,0,0,0,.41-1.71c0-1.35-.58-2-1.74-2a2.91,2.91,0,0,0-.87.13Z" fill="#000100"/><path d="M41.42,348H40v-.42a4.21,4.21,0,0,1,.52-2.43,2,2,0,0,1,1.76-.72c1.55,0,2.33.87,2.33,2.59a12.06,12.06,0,0,1-1.74,5L42,353.61l0,.08-.1.2h2.61v1.22H39.88l.48-1,1-2.09q.54-1.14.9-1.95c.24-.53.42-1,.55-1.31a5.49,5.49,0,0,0,.37-1.77c0-.87-.31-1.31-.91-1.31s-.88.54-.88,1.62V348Z" fill="#000100"/><path d="M46.82,344.55h3.36v1.23H47.9l-.34,2.65h.17a3,3,0,0,1,1.11.2,2,2,0,0,1,.81.58,2.62,2.62,0,0,1,.49.94,4.21,4.21,0,0,1,.18,1.28,4.5,4.5,0,0,1-.78,2.8,2.54,2.54,0,0,1-2.14,1,3.76,3.76,0,0,1-1.68-.44l.36-1.25a2.83,2.83,0,0,0,1.22.38,1.27,1.27,0,0,0,1.11-.63,3.13,3.13,0,0,0,.41-1.71c0-1.35-.58-2-1.74-2a2.91,2.91,0,0,0-.87.13Z" fill="#000100"/><path d="M52.3,344.55h3.35v1.23H53.38L53,348.43h.17a2.92,2.92,0,0,1,1.1.2,2,2,0,0,1,.81.58,2.49,2.49,0,0,1,.5.94,5.29,5.29,0,0,1-.6,4.08,2.56,2.56,0,0,1-2.15,1,3.75,3.75,0,0,1-1.67-.44l.35-1.25a2.87,2.87,0,0,0,1.23.38,1.25,1.25,0,0,0,1.1-.63,3,3,0,0,0,.41-1.71c0-1.35-.58-2-1.74-2a2.91,2.91,0,0,0-.87.13Z" fill="#000100"/><path d="M7.72,462.61H4.63l-1.4-3.75c0-.07,0-.15-.08-.26s-.07-.23-.12-.37l0,.69v3.69H.21V452.06H3.13a4.58,4.58,0,0,1,2.89.76,3.33,3.33,0,0,1,1.21,2.76,2.65,2.65,0,0,1-1.63,2.65ZM3.06,457h.19a1,1,0,0,0,.82-.38,1.4,1.4,0,0,0,.33-1c0-.78-.41-1.18-1.23-1.18H3.06Z" fill="#ee2525"/><path d="M12.18,456.51h4V457a8.14,8.14,0,0,1-.91,4.39,3.33,3.33,0,0,1-2.94,1.46,3.53,3.53,0,0,1-3-1.44,6.5,6.5,0,0,1-1.08-4,6.64,6.64,0,0,1,1.09-4,3.47,3.47,0,0,1,3-1.48,3.78,3.78,0,0,1,3.63,2.61l-2.76,1a1.72,1.72,0,0,0-.28-.79.7.7,0,0,0-.56-.29c-.79,0-1.18,1.08-1.18,3.24a5.62,5.62,0,0,0,.26,2,.87.87,0,0,0,.83.62.72.72,0,0,0,.41-.11.89.89,0,0,0,.31-.3,2,2,0,0,0,.2-.49,2.43,2.43,0,0,0,.07-.63H12.18Z" fill="#ee2525"/><path d="M17.42,462.61V452.06h3.31a4,4,0,0,1,2.76.82,2.84,2.84,0,0,1,.9,2.17,1.91,1.91,0,0,1-2,2.15,2.7,2.7,0,0,1,1.64.74,2.35,2.35,0,0,1,.52,1.65,2.85,2.85,0,0,1-.88,2.19,3.17,3.17,0,0,1-2.3.83Zm2.85-6.45h.19a1.26,1.26,0,0,0,.81-.24.8.8,0,0,0,.29-.67c0-.61-.33-.91-1-.91h-.29Zm0,4.16.14,0h.1a1.26,1.26,0,0,0,.85-.28.93.93,0,0,0,.32-.75.89.89,0,0,0-.32-.74,1.29,1.29,0,0,0-.87-.27h-.22Z" fill="#ee2525"/><path d="M1.54,484.49H.14v-.42a4.21,4.21,0,0,1,.52-2.43,2,2,0,0,1,1.76-.72c1.56,0,2.33.87,2.33,2.59a12.06,12.06,0,0,1-1.74,5l-.84,1.58,0,.08-.1.2H4.63v1.22H0c.08-.17.24-.52.49-1s.58-1.21,1-2.09.66-1.41.9-1.95.43-1,.55-1.31a5.24,5.24,0,0,0,.37-1.77c0-.87-.31-1.31-.91-1.31s-.88.54-.88,1.62v.72Z" fill="#000100"/><path d="M7.33,483.88H6v-.28a5.32,5.32,0,0,1,.12-1.21,2.05,2.05,0,0,1,.38-.83,1.42,1.42,0,0,1,.65-.48,2.66,2.66,0,0,1,1-.16,2,2,0,0,1,1.69.66,3.27,3.27,0,0,1,.54,2.09,4.31,4.31,0,0,1-.25,1.69,1.61,1.61,0,0,1-.92.8,1.72,1.72,0,0,1,1,.79,3.88,3.88,0,0,1,.28,1.69A3.66,3.66,0,0,1,9.83,491a2.25,2.25,0,0,1-1.87.75c-1.45,0-2.17-.83-2.17-2.49V489H7.13a1.41,1.41,0,0,0,0,.2c0,.06,0,.1,0,.14a1.39,1.39,0,0,0,.24.86.77.77,0,0,0,.65.32.81.81,0,0,0,.45-.11.74.74,0,0,0,.31-.34,1.78,1.78,0,0,0,.17-.61,5.84,5.84,0,0,0,.06-.91,2.59,2.59,0,0,0-.29-1.39,1.11,1.11,0,0,0-1-.42H7.57l-.21,0V485.5h.2a1.4,1.4,0,0,0,1.12-.35A2.21,2.21,0,0,0,9,483.8c0-1.09-.27-1.64-.82-1.64s-.82.47-.82,1.4Z" fill="#000100"/><path d="M11.81,481.05h2.41v10.56H12.86v-9.35h-1Z" fill="#000100"/><path d="M21.38,483.88H20v-.28a5.32,5.32,0,0,1,.12-1.21,2.19,2.19,0,0,1,.38-.83,1.48,1.48,0,0,1,.65-.48,2.7,2.7,0,0,1,.95-.16,2.06,2.06,0,0,1,1.7.66,3.34,3.34,0,0,1,.53,2.09,4.34,4.34,0,0,1-.24,1.69,1.6,1.6,0,0,1-.93.8,1.72,1.72,0,0,1,1,.79,5,5,0,0,1-.32,4,2.26,2.26,0,0,1-1.87.75c-1.45,0-2.18-.83-2.18-2.49v-.19c0-.05,0-.08,0-.09h1.33a1.27,1.27,0,0,1,0,.2v.14a1.46,1.46,0,0,0,.23.86.78.78,0,0,0,.65.32.85.85,0,0,0,.46-.11.78.78,0,0,0,.3-.34,2,2,0,0,0,.18-.61,7.64,7.64,0,0,0,.05-.91,2.5,2.5,0,0,0-.29-1.39,1.08,1.08,0,0,0-1-.42h-.16l-.2,0V485.5h.19a1.39,1.39,0,0,0,1.12-.35,2.2,2.2,0,0,0,.3-1.35c0-1.09-.28-1.64-.83-1.64s-.82.47-.82,1.4Z" fill="#000100"/><path d="M27,484.49h-1.4v-.42a4.21,4.21,0,0,1,.52-2.43,2,2,0,0,1,1.76-.72c1.55,0,2.33.87,2.33,2.59a12.06,12.06,0,0,1-1.74,5l-.84,1.58,0,.08-.1.2h2.61v1.22H25.5l.48-1,1-2.09q.54-1.14.9-1.95c.24-.53.42-1,.55-1.31a5.49,5.49,0,0,0,.37-1.77c0-.87-.31-1.31-.91-1.31s-.88.54-.88,1.62v.72Z" fill="#000100"/><path d="M35.79,483.88H34.43v-.28a5.32,5.32,0,0,1,.12-1.21,2.19,2.19,0,0,1,.38-.83,1.48,1.48,0,0,1,.65-.48,2.66,2.66,0,0,1,1-.16,2.06,2.06,0,0,1,1.7.66,3.34,3.34,0,0,1,.53,2.09,4.13,4.13,0,0,1-.25,1.69,1.58,1.58,0,0,1-.92.8,1.72,1.72,0,0,1,1,.79,5,5,0,0,1-.32,4,2.26,2.26,0,0,1-1.87.75c-1.45,0-2.18-.83-2.18-2.49v-.19c0-.05,0-.08,0-.09h1.33c0,.07,0,.14,0,.2v.14a1.46,1.46,0,0,0,.23.86.78.78,0,0,0,.65.32.79.79,0,0,0,.45-.11.74.74,0,0,0,.31-.34,2,2,0,0,0,.18-.61,7.64,7.64,0,0,0,0-.91,2.59,2.59,0,0,0-.29-1.39,1.09,1.09,0,0,0-1-.42H36l-.21,0V485.5H36a1.39,1.39,0,0,0,1.12-.35,2.2,2.2,0,0,0,.3-1.35c0-1.09-.28-1.64-.83-1.64s-.82.47-.82,1.4Z" fill="#000100"/><path d="M40,481.05H44.7l-3.2,10.56H40l2.93-9.35H40Z" fill="#000100"/><path d="M150.29,49.87l-.17,3.05a4.7,4.7,0,0,1-1.7.38,3.9,3.9,0,0,1-3-1.3,5.83,5.83,0,0,1-1.35-4.12,6,6,0,0,1,1.27-4,4.41,4.41,0,0,1,4.81-1.24v3a1.88,1.88,0,0,0-1.31-.63,1.57,1.57,0,0,0-1.37.74,3.85,3.85,0,0,0-.49,2.08,5,5,0,0,0,.12,1.15,2.66,2.66,0,0,0,.36.85,1.48,1.48,0,0,0,1.33.72A2.24,2.24,0,0,0,150.29,49.87Z" fill="#ee2525"/><path d="M162.25,53.11h-3l-.21-4.81L159,46.38c0,.37-.07.72-.11,1.06s-.09.66-.15,1l-.89,4.7h-2.33l-.76-4.71c0-.27-.11-.74-.19-1.4l-.06-.62-.07,1.95-.25,4.78h-3l1.23-10.55h3.55l.6,3.55c.05.3.09.61.13,1s.07.72.11,1.12a16.11,16.11,0,0,1,.24-1.8l.73-3.82h3.52Z" fill="#ee2525"/><path d="M167.94,53.11h-2.85V48.64l-2.62-6.08h3l.52,1.57c.1.3.19.6.27.88s.15.55.21.81l.28-1c.07-.28.14-.51.2-.68l.52-1.58h2.95l-2.45,6.08Z" fill="#ee2525"/><path d="M179,53.11h-3.08L174,48.25l.08,4.86h-2.85V42.56h2.85L174,47.09l1.68-4.53h3l-2.28,5.09Z" fill="#ee2525"/><path d="M148.9,76.91a11,11,0,0,1-.55,4.11,1.86,1.86,0,0,1-1.83,1.21A1.9,1.9,0,0,1,144.67,81a11.22,11.22,0,0,1-.54-4.18,11.25,11.25,0,0,1,.54-4.18,1.87,1.87,0,0,1,1.84-1.23,1.9,1.9,0,0,1,1.78,1.08A10.59,10.59,0,0,1,148.9,76.91Zm-1.45,0a18.38,18.38,0,0,0-.2-3.3c-.14-.61-.39-.91-.75-.91s-.61.3-.75.9a16.67,16.67,0,0,0-.21,3.25,16.81,16.81,0,0,0,.21,3.25q.21.9.75.9c.36,0,.6-.3.74-.89A15.93,15.93,0,0,0,147.45,76.91Z" fill="#000100"/><path d="M155.29,82.11h-1.51l1-2c.19-.38.37-.76.55-1.15s.35-.81.53-1.24a1.75,1.75,0,0,1-1.09.43,1.51,1.51,0,0,1-1.38-.76A4.75,4.75,0,0,1,153,75a5.48,5.48,0,0,1,.51-2.74,2.23,2.23,0,0,1,3.48,0,5.31,5.31,0,0,1,.53,2.77,10.2,10.2,0,0,1-.33,2.66A10.54,10.54,0,0,1,156.7,79c-.19.49-.44,1-.73,1.66l-.55,1.16Zm.8-7.3c0-1.39-.3-2.09-.89-2.09s-.89.69-.89,2.06a4.3,4.3,0,0,0,.21,1.57.7.7,0,0,0,.68.48.71.71,0,0,0,.68-.48A4.15,4.15,0,0,0,156.09,74.81Z" fill="#000100"/><path d="M160.74,71.55h1.51l-1,2c-.18.37-.35.77-.53,1.18s-.35.86-.55,1.33a1.86,1.86,0,0,1,1.15-.48,1.53,1.53,0,0,1,1.36.77,5.22,5.22,0,0,1,.45,2.57,4.59,4.59,0,0,1-.53,2.52,2.28,2.28,0,0,1-3.47-.08,5.31,5.31,0,0,1-.54-2.76,11,11,0,0,1,.42-3.06,15,15,0,0,1,.65-1.71C160,73.2,160.31,72.43,160.74,71.55Zm1,7.39a8.14,8.14,0,0,0-.05-.93,2.21,2.21,0,0,0-.16-.63.72.72,0,0,0-.28-.35.65.65,0,0,0-.4-.12.69.69,0,0,0-.41.12.76.76,0,0,0-.27.35,1.93,1.93,0,0,0-.16.62,8.14,8.14,0,0,0-.05.93c0,1.38.3,2.07.89,2.07S161.78,80.32,161.78,78.94Z" fill="#000100"/><path d="M170.6,76.38a1.61,1.61,0,0,1,1,.83,4.58,4.58,0,0,1,.27,1.84,4.27,4.27,0,0,1-.55,2.41,2,2,0,0,1-1.73.77,2,2,0,0,1-1.73-.77,4.19,4.19,0,0,1-.55-2.41,4.81,4.81,0,0,1,.26-1.84,1.64,1.64,0,0,1,1-.83,1.69,1.69,0,0,1-.89-.81,3.87,3.87,0,0,1-.26-1.55,4.5,4.5,0,0,1,.13-1.17,2,2,0,0,1,.39-.81,1.73,1.73,0,0,1,.68-.47,3,3,0,0,1,1-.15,2.84,2.84,0,0,1,1,.15,1.66,1.66,0,0,1,.68.47,2,2,0,0,1,.39.81,4.5,4.5,0,0,1,.13,1.17,3.87,3.87,0,0,1-.26,1.55A1.66,1.66,0,0,1,170.6,76.38Zm-.15,2.83a8.52,8.52,0,0,0,0-.95,2.39,2.39,0,0,0-.16-.64.8.8,0,0,0-.28-.36.72.72,0,0,0-.4-.11.68.68,0,0,0-.66.47,4,4,0,0,0-.21,1.52c0,1.23.29,1.84.88,1.84S170.45,80.39,170.45,79.21Zm-.1-5.07c0-1-.26-1.49-.79-1.49s-.78.49-.78,1.47.27,1.65.79,1.65S170.35,75.22,170.35,74.14Z" fill="#000100"/><path d="M173,71.55h4.72l-3.2,10.56H173l2.94-9.35H173Z" fill="#000100"/><path d="M186.29,76.91a11,11,0,0,1-.55,4.11,2,2,0,0,1-3.68,0,11.22,11.22,0,0,1-.54-4.18,11.25,11.25,0,0,1,.54-4.18,2,2,0,0,1,3.61-.15A10.54,10.54,0,0,1,186.29,76.91Zm-1.45,0a17.22,17.22,0,0,0-.21-3.3c-.13-.61-.38-.91-.74-.91s-.61.3-.75.9a16.67,16.67,0,0,0-.21,3.25,16.81,16.81,0,0,0,.21,3.25q.21.9.75.9c.35,0,.6-.3.74-.89A15.93,15.93,0,0,0,184.84,76.91Z" fill="#000100"/><path d="M150.29,186.37l-.17,3a4.7,4.7,0,0,1-1.7.38,3.9,3.9,0,0,1-3-1.3,5.83,5.83,0,0,1-1.35-4.12,6,6,0,0,1,1.27-4,4.41,4.41,0,0,1,4.81-1.24v3a1.88,1.88,0,0,0-1.31-.63,1.57,1.57,0,0,0-1.37.74,3.85,3.85,0,0,0-.49,2.08,5,5,0,0,0,.12,1.15,2.66,2.66,0,0,0,.36.85,1.48,1.48,0,0,0,1.33.72A2.24,2.24,0,0,0,150.29,186.37Z" fill="#ee2525"/><path d="M162.25,189.61h-3l-.21-4.81-.09-1.92c0,.37-.07.72-.11,1.06s-.09.66-.15,1l-.89,4.7h-2.33l-.76-4.71c0-.27-.11-.74-.19-1.4l-.06-.62-.07,2-.25,4.78h-3l1.23-10.55h3.55l.6,3.55c.05.3.09.61.13.95s.07.72.11,1.12a16.11,16.11,0,0,1,.24-1.8l.73-3.82h3.52Z" fill="#ee2525"/><path d="M167.94,189.61h-2.85v-4.47l-2.62-6.08h3l.52,1.57c.1.3.19.6.27.88s.15.55.21.81l.28-1c.07-.28.14-.51.2-.68l.52-1.58h2.95l-2.45,6.08Z" fill="#ee2525"/><path d="M179,189.61h-3.08L174,184.75l.08,4.86h-2.85V179.06h2.85l-.08,4.53,1.68-4.53h3l-2.28,5.09Z" fill="#ee2525"/><path d="M144.29,208.05H149l-3.2,10.56h-1.52l2.94-9.35h-2.94Z" fill="#000100"/><path d="M155.61,208.05h1.32v6.58h.68v1.09h-.68v2.89h-1.32v-2.89h-2.89v-1.21Zm0,6.58V210.2l-1.77,4.43Z" fill="#000100"/><path d="M158.74,208.05h2.41v10.56h-1.36v-9.35h-1Z" fill="#000100"/><path d="M168.25,211.49h-1.39l0-.42a4.29,4.29,0,0,1,.52-2.43,2.06,2.06,0,0,1,1.77-.72c1.55,0,2.33.87,2.33,2.59a12.06,12.06,0,0,1-1.74,5l-.84,1.58,0,.08-.09.2h2.61v1.22h-4.64c.08-.17.24-.52.49-1l1-2.09q.54-1.14.9-2c.24-.53.42-1,.54-1.31a5.24,5.24,0,0,0,.37-1.77c0-.87-.3-1.31-.91-1.31s-.87.54-.87,1.62v.72Z" fill="#000100"/><path d="M177.27,213.41a11,11,0,0,1-.55,4.11,2,2,0,0,1-3.68,0,16.45,16.45,0,0,1,0-8.36,2,2,0,0,1,3.61-.15A10.54,10.54,0,0,1,177.27,213.41Zm-1.45,0a18.38,18.38,0,0,0-.2-3.3c-.14-.61-.39-.91-.75-.91s-.61.3-.75.9a25.25,25.25,0,0,0,0,6.5q.21.9.75.9c.36,0,.6-.3.74-.89A15.93,15.93,0,0,0,175.82,213.41Z" fill="#000100"/><path d="M186,213.41a11.29,11.29,0,0,1-.54,4.11,1.87,1.87,0,0,1-1.84,1.21,1.9,1.9,0,0,1-1.85-1.22,16.45,16.45,0,0,1,0-8.36,2,2,0,0,1,3.62-.15A10.59,10.59,0,0,1,186,213.41Zm-1.44,0a17.22,17.22,0,0,0-.21-3.3c-.14-.61-.38-.91-.74-.91s-.61.3-.76.9a26.51,26.51,0,0,0,0,6.5c.15.6.4.9.76.9s.6-.3.73-.89A15,15,0,0,0,184.52,213.41Z" fill="#000100"/><path d="M150.29,322.87l-.17,3.05a4.7,4.7,0,0,1-1.7.38,3.9,3.9,0,0,1-3-1.3,5.83,5.83,0,0,1-1.35-4.12,6,6,0,0,1,1.27-4,4.41,4.41,0,0,1,4.81-1.24v3a1.88,1.88,0,0,0-1.31-.63,1.57,1.57,0,0,0-1.37.74,3.85,3.85,0,0,0-.49,2.08,5,5,0,0,0,.12,1.15,2.66,2.66,0,0,0,.36.85,1.48,1.48,0,0,0,1.33.72A2.24,2.24,0,0,0,150.29,322.87Z" fill="#ee2525"/><path d="M162.25,326.11h-3l-.21-4.81-.09-1.92c0,.37-.07.72-.11,1.06s-.09.66-.15,1l-.89,4.7h-2.33l-.76-4.71c0-.27-.11-.74-.19-1.4l-.06-.62-.07,1.95-.25,4.78h-3l1.23-10.55h3.55l.6,3.55c.05.3.09.61.13.95s.07.72.11,1.12a16.11,16.11,0,0,1,.24-1.8l.73-3.82h3.52Z" fill="#ee2525"/><path d="M167.94,326.11h-2.85v-4.47l-2.62-6.08h3l.52,1.57c.1.3.19.6.27.88s.15.55.21.81l.28-1c.07-.28.14-.51.2-.68l.52-1.58h2.95l-2.45,6.08Z" fill="#ee2525"/><path d="M179,326.11h-3.08L174,321.25l.08,4.86h-2.85V315.56h2.85l-.08,4.53,1.68-4.53h3l-2.28,5.09Z" fill="#ee2525"/><path d="M148.9,349.91a11,11,0,0,1-.55,4.11,1.86,1.86,0,0,1-1.83,1.21,1.9,1.9,0,0,1-1.85-1.22,16.45,16.45,0,0,1,0-8.36,1.87,1.87,0,0,1,1.84-1.23,1.9,1.9,0,0,1,1.78,1.08A10.59,10.59,0,0,1,148.9,349.91Zm-1.45,0a18.38,18.38,0,0,0-.2-3.3c-.14-.61-.39-.91-.75-.91s-.61.3-.75.9a25.25,25.25,0,0,0,0,6.5q.21.9.75.9c.36,0,.6-.3.74-.89A15.93,15.93,0,0,0,147.45,349.91Z" fill="#000100"/><path d="M157.6,349.91a11,11,0,0,1-.55,4.11,2,2,0,0,1-3.68,0,16.45,16.45,0,0,1,0-8.36,2,2,0,0,1,3.61-.15A10.54,10.54,0,0,1,157.6,349.91Zm-1.45,0a17.22,17.22,0,0,0-.21-3.3c-.13-.61-.38-.91-.74-.91s-.61.3-.75.9a25.25,25.25,0,0,0,0,6.5q.21.9.75.9c.35,0,.6-.3.74-.89A15.93,15.93,0,0,0,156.15,349.91Z" fill="#000100"/><path d="M166.29,349.91a11.29,11.29,0,0,1-.54,4.11,1.88,1.88,0,0,1-1.84,1.21,1.9,1.9,0,0,1-1.85-1.22,16.45,16.45,0,0,1,0-8.36,1.87,1.87,0,0,1,1.84-1.23,1.9,1.9,0,0,1,1.78,1.08A10.59,10.59,0,0,1,166.29,349.91Zm-1.45,0a18.38,18.38,0,0,0-.2-3.3c-.14-.61-.39-.91-.75-.91s-.61.3-.75.9a26.51,26.51,0,0,0,0,6.5q.21.9.75.9c.36,0,.6-.3.74-.89A15.93,15.93,0,0,0,164.84,349.91Z" fill="#000100"/><path d="M175,349.91a11,11,0,0,1-.55,4.11,2,2,0,0,1-3.68,0,16.45,16.45,0,0,1,0-8.36,2,2,0,0,1,3.61-.15A10.54,10.54,0,0,1,175,349.91Zm-1.45,0a17.22,17.22,0,0,0-.21-3.3c-.13-.61-.38-.91-.74-.91s-.61.3-.75.9a25.25,25.25,0,0,0,0,6.5q.21.9.75.9c.35,0,.6-.3.74-.89A15.93,15.93,0,0,0,173.54,349.91Z" fill="#000100"/><path d="M150.29,459.37l-.17,3.05a4.7,4.7,0,0,1-1.7.38,3.9,3.9,0,0,1-3-1.3,5.83,5.83,0,0,1-1.35-4.12,6,6,0,0,1,1.27-4,4.41,4.41,0,0,1,4.81-1.24v3a1.88,1.88,0,0,0-1.31-.63,1.57,1.57,0,0,0-1.37.74,3.85,3.85,0,0,0-.49,2.08,5,5,0,0,0,.12,1.15,2.66,2.66,0,0,0,.36.85,1.48,1.48,0,0,0,1.33.72A2.24,2.24,0,0,0,150.29,459.37Z" fill="#ee2525"/><path d="M162.25,462.61h-3l-.21-4.81-.09-1.92c0,.37-.07.72-.11,1.06s-.09.66-.15,1l-.89,4.7h-2.33l-.76-4.71c0-.27-.11-.74-.19-1.4l-.06-.62-.07,1.95-.25,4.78h-3l1.23-10.55h3.55l.6,3.55c.05.3.09.61.13.95s.07.72.11,1.12a16.11,16.11,0,0,1,.24-1.8l.73-3.82h3.52Z" fill="#ee2525"/><path d="M167.94,462.61h-2.85v-4.47l-2.62-6.08h3l.52,1.57c.1.3.19.6.27.88s.15.55.21.81l.28-1c.07-.28.14-.51.2-.68l.52-1.58h2.95l-2.45,6.08Z" fill="#ee2525"/><path d="M179,462.61h-3.08L174,457.75l.08,4.86h-2.85V452.06h2.85l-.08,4.53,1.68-4.53h3l-2.28,5.09Z" fill="#ee2525"/><path d="M148.9,486.41a11,11,0,0,1-.55,4.11,1.86,1.86,0,0,1-1.83,1.21,1.9,1.9,0,0,1-1.85-1.22,16.45,16.45,0,0,1,0-8.36,1.87,1.87,0,0,1,1.84-1.23,1.9,1.9,0,0,1,1.78,1.08A10.59,10.59,0,0,1,148.9,486.41Zm-1.45,0a18.38,18.38,0,0,0-.2-3.3c-.14-.61-.39-.91-.75-.91s-.61.3-.75.9a25.25,25.25,0,0,0,0,6.5q.21.9.75.9c.36,0,.6-.3.74-.89A15.93,15.93,0,0,0,147.45,486.41Z" fill="#000100"/><path d="M157.6,486.41a11,11,0,0,1-.55,4.11,2,2,0,0,1-3.68,0,16.45,16.45,0,0,1,0-8.36A2,2,0,0,1,157,482,10.54,10.54,0,0,1,157.6,486.41Zm-1.45,0a17.22,17.22,0,0,0-.21-3.3c-.13-.61-.38-.91-.74-.91s-.61.3-.75.9a25.25,25.25,0,0,0,0,6.5q.21.9.75.9c.35,0,.6-.3.74-.89A15.93,15.93,0,0,0,156.15,486.41Z" fill="#000100"/><path d="M166.29,486.41a11.29,11.29,0,0,1-.54,4.11,1.88,1.88,0,0,1-1.84,1.21,1.9,1.9,0,0,1-1.85-1.22,16.45,16.45,0,0,1,0-8.36,1.87,1.87,0,0,1,1.84-1.23,1.9,1.9,0,0,1,1.78,1.08A10.59,10.59,0,0,1,166.29,486.41Zm-1.45,0a18.38,18.38,0,0,0-.2-3.3c-.14-.61-.39-.91-.75-.91s-.61.3-.75.9a26.51,26.51,0,0,0,0,6.5q.21.9.75.9c.36,0,.6-.3.74-.89A15.93,15.93,0,0,0,164.84,486.41Z" fill="#000100"/><path d="M171,481.05h2.41v10.56H172v-9.35H171Z" fill="#000100"/><path d="M180.17,486.41a11,11,0,0,1-.55,4.11,2,2,0,0,1-3.68,0,16.45,16.45,0,0,1,0-8.36,2,2,0,0,1,3.61-.15A10.54,10.54,0,0,1,180.17,486.41Zm-1.45,0a17.22,17.22,0,0,0-.21-3.3c-.13-.61-.38-.91-.74-.91s-.61.3-.75.9a25.25,25.25,0,0,0,0,6.5q.21.9.75.9c.35,0,.6-.3.74-.89A15.93,15.93,0,0,0,178.72,486.41Z" fill="#000100"/><path d="M186.06,486.41a11.29,11.29,0,0,1-.54,4.11,1.88,1.88,0,0,1-1.84,1.21,1.9,1.9,0,0,1-1.85-1.22,16.45,16.45,0,0,1,0-8.36,2,2,0,0,1,3.62-.15A10.59,10.59,0,0,1,186.06,486.41Zm-1.45,0a17.46,17.46,0,0,0-.2-3.3c-.14-.61-.39-.91-.75-.91s-.61.3-.75.9a26.51,26.51,0,0,0,0,6.5q.21.9.75.9c.36,0,.61-.3.74-.89A15.93,15.93,0,0,0,184.61,486.41Z" fill="#000100"/><path d="M292.89,53.11H290V42.56h2.76a4.66,4.66,0,0,1,3.06.84A3.4,3.4,0,0,1,297,46.16,3.36,3.36,0,0,1,295.79,49a4.1,4.1,0,0,1-2.46.64h-.44Zm0-5.83H293a1.08,1.08,0,0,0,.83-.32,1.21,1.21,0,0,0,.31-.87,1.32,1.32,0,0,0-.31-.89,1,1,0,0,0-.76-.35h-.2Z" fill="#ee2525"/><path d="M305.22,53.11h-3l-.21-1.34h-1.92l-.23,1.34h-3l2.54-10.55H303Zm-3.49-3.6-.19-1.23,0-.18c0-.1-.05-.5-.14-1.19,0-.08,0-.19,0-.32s0-.3-.06-.51l-.09-1,0,.32q0,.18-.06.39c0,.29-.05.48-.06.59a1.88,1.88,0,0,0,0,.2l-.2,1.28-.29,1.65Z" fill="#ee2525"/><path d="M306.09,53.11V42.56h2.72l1.43,3.71c.08.21.16.46.26.75s.21.61.33,1l.29.93c-.11-.91-.18-1.7-.24-2.35s-.08-1.2-.08-1.64V42.56h2.72V53.11H310.8l-1.44-3.88c-.15-.41-.28-.8-.4-1.16s-.23-.71-.32-1c.06.74.1,1.39.13,1.94s0,1,0,1.45v2.69Z" fill="#ee2525"/><path d="M318.76,53.11h-2.85v-8h-1.57V42.56h6.06v2.53h-1.64Z" fill="#ee2525"/><path d="M328.94,47.87a6.55,6.55,0,0,1-1.1,3.93A3.38,3.38,0,0,1,325,53.3a3.61,3.61,0,0,1-2.68-1.16,6.11,6.11,0,0,1-1.4-4.38,5.84,5.84,0,0,1,1.47-4.29,3.5,3.5,0,0,1,2.57-1.1,3.42,3.42,0,0,1,2.91,1.49A6.69,6.69,0,0,1,328.94,47.87Zm-3,0c0-1.91-.34-2.86-1-2.86q-.51,0-.81.75a5.43,5.43,0,0,0-.29,2,6.24,6.24,0,0,0,.27,2.07c.19.49.44.73.77.73s.6-.24.78-.72A5.69,5.69,0,0,0,326,47.89Z" fill="#ee2525"/><path d="M330.18,53.11V42.56h2.72l1.43,3.71c.08.21.17.46.26.75s.21.61.33,1l.29.93c-.1-.91-.18-1.7-.24-2.35s-.08-1.2-.08-1.64V42.56h2.72V53.11h-2.72l-1.43-3.88c-.15-.41-.29-.8-.41-1.16s-.23-.71-.32-1c.06.74.1,1.39.13,1.94s0,1,0,1.45v2.69Z" fill="#ee2525"/><path d="M339.19,53.11V42.56h5.3V45H342v1.54h2.19V49H342v1.61h2.45v2.53Z" fill="#ee2525"/><path d="M290.12,71.55H292a2.52,2.52,0,0,1,2,.69,3.24,3.24,0,0,1,.61,2.19c0,1.4-.41,2.31-1.24,2.72a4.61,4.61,0,0,1-1.79.28v4.68h-1.42Zm1.42,4.66a1.62,1.62,0,0,0,1.21-.36,1.85,1.85,0,0,0,.35-1.28,2.3,2.3,0,0,0-.33-1.38,1.22,1.22,0,0,0-1-.44h-.2Z" fill="#000100"/><path d="M296.88,71.55H298l2.27,10.56h-1.41l-.4-2.06h-2.09l-.4,2.06h-1.37Zm1.36,7.4-.32-1.68c-.21-1.14-.38-2.37-.51-3.66-.07.63-.15,1.27-.25,1.92s-.22,1.34-.35,2.07L296.55,79Z" fill="#000100"/><path d="M301.25,71.55h1.32L304,75.77a39.05,39.05,0,0,1,1.09,3.8c-.12-.81-.2-1.55-.26-2.21s-.08-1.29-.08-1.87V71.55h1.43V82.11h-1.33l-1.6-4.75c-.14-.44-.28-.9-.41-1.36s-.25-1-.36-1.47c0-.06,0-.14,0-.23s-.05-.19-.07-.31q0,.18,0,.3c0,.09,0,.16,0,.22l.08,1.07.07,1.31c0,.07,0,.16,0,.26v.36l.08,4.6h-1.4Z" fill="#000100"/><path d="M307.14,71.55h4.63V72.8h-1.6v9.31h-1.39V72.8h-1.64Z" fill="#000100"/><path d="M317.91,77.09a9,9,0,0,1-.63,4,2.16,2.16,0,0,1-2.08,1.18A2.22,2.22,0,0,1,313,81a10.85,10.85,0,0,1-.62-4.39,9.24,9.24,0,0,1,.62-4,2.18,2.18,0,0,1,2.1-1.17,2.25,2.25,0,0,1,2,.91,4.19,4.19,0,0,1,.61,1.73A17.48,17.48,0,0,1,317.91,77.09Zm-1.49.15a16.93,16.93,0,0,0-.25-3.63c-.16-.61-.5-.91-1-.91a1,1,0,0,0-1,.83,14.79,14.79,0,0,0-.24,3.35,12.92,12.92,0,0,0,.26,3.21,1,1,0,0,0,1,.85,1,1,0,0,0,1-.79A10.45,10.45,0,0,0,316.42,77.24Z" fill="#000100"/><path d="M319.3,71.55h1.33L322,75.77a39.05,39.05,0,0,1,1.09,3.8c-.12-.81-.2-1.55-.25-2.21s-.09-1.29-.09-1.87V71.55h1.43V82.11h-1.33l-1.59-4.75c-.15-.44-.29-.9-.42-1.36s-.25-1-.36-1.47c0-.06,0-.14,0-.23s-.05-.19-.07-.31q0,.18,0,.3c0,.09,0,.16,0,.22l.08,1.07.07,1.31a2,2,0,0,1,0,.26c0,.11,0,.23,0,.36l.07,4.6h-1.4Z" fill="#000100"/><path d="M325.81,71.55h3.78v1.21h-2.36V76.1h2.09v1.2h-2.09v3.61h2.36v1.2h-3.78Z" fill="#000100"/><path d="M334.23,71.55h2.4V82.11h-1.36V72.76h-1Z" fill="#000100"/><path d="M338.64,71.55h4.72l-3.2,10.56h-1.52l2.93-9.35h-2.93Z" fill="#000100"/><path d="M347.52,76.38a1.59,1.59,0,0,1,1,.83,4.58,4.58,0,0,1,.27,1.84,4.19,4.19,0,0,1-.55,2.41,2.33,2.33,0,0,1-3.46,0,4.19,4.19,0,0,1-.55-2.41,4.58,4.58,0,0,1,.27-1.84,1.59,1.59,0,0,1,1-.83,1.63,1.63,0,0,1-.88-.81A3.7,3.7,0,0,1,344.3,74a5,5,0,0,1,.12-1.17,2.12,2.12,0,0,1,.4-.81,1.6,1.6,0,0,1,.68-.47,2.84,2.84,0,0,1,1-.15,2.9,2.9,0,0,1,1,.15,1.63,1.63,0,0,1,.67.47,2.12,2.12,0,0,1,.4.81,5,5,0,0,1,.12,1.17,3.7,3.7,0,0,1-.26,1.55A1.67,1.67,0,0,1,347.52,76.38Zm-.16,2.83a8.52,8.52,0,0,0-.05-.95,2.06,2.06,0,0,0-.16-.64.86.86,0,0,0-.27-.36.77.77,0,0,0-.4-.11.69.69,0,0,0-.67.47,4,4,0,0,0-.21,1.52c0,1.23.3,1.84.88,1.84S347.36,80.39,347.36,79.21Zm-.1-5.07c0-1-.26-1.49-.78-1.49s-.78.49-.78,1.47.26,1.65.78,1.65S347.26,75.22,347.26,74.14Z" fill="#000100"/><path d="M353.28,76.38a1.61,1.61,0,0,1,1,.83,4.58,4.58,0,0,1,.27,1.84,4.27,4.27,0,0,1-.55,2.41,2.33,2.33,0,0,1-3.46,0,4.19,4.19,0,0,1-.55-2.41,4.58,4.58,0,0,1,.27-1.84,1.59,1.59,0,0,1,1-.83,1.69,1.69,0,0,1-.89-.81,3.87,3.87,0,0,1-.26-1.55,5,5,0,0,1,.13-1.17,2.26,2.26,0,0,1,.39-.81,1.73,1.73,0,0,1,.68-.47,3.34,3.34,0,0,1,2,0,1.63,1.63,0,0,1,.67.47,2.12,2.12,0,0,1,.4.81,5,5,0,0,1,.12,1.17,3.7,3.7,0,0,1-.26,1.55A1.66,1.66,0,0,1,353.28,76.38Zm-.15,2.83a8.52,8.52,0,0,0-.05-.95,2.39,2.39,0,0,0-.16-.64.8.8,0,0,0-.28-.36.71.71,0,0,0-.39-.11.69.69,0,0,0-.67.47,4,4,0,0,0-.21,1.52c0,1.23.29,1.84.88,1.84S353.13,80.39,353.13,79.21Zm-.1-5.07c0-1-.26-1.49-.78-1.49s-.78.49-.78,1.47.26,1.65.78,1.65S353,75.22,353,74.14Z" fill="#000100"/><path d="M360,71.73V73a2.28,2.28,0,0,0-.91-.26,1.46,1.46,0,0,0-.87.25,1.79,1.79,0,0,0-.6.77,4.84,4.84,0,0,0-.35,1.31A14.53,14.53,0,0,0,357.2,77c0,2.61.67,3.91,2,3.91a2.15,2.15,0,0,0,.84-.21V82a2.3,2.3,0,0,1-1.14.29q-3.21,0-3.21-5.24a8.84,8.84,0,0,1,.78-4.21,2.57,2.57,0,0,1,2.4-1.38A2.43,2.43,0,0,1,360,71.73Z" fill="#000100"/><path d="M292.89,189.61H290V179.06h2.76a4.66,4.66,0,0,1,3.06.84,3.4,3.4,0,0,1,1.18,2.76,3.36,3.36,0,0,1-1.25,2.86,4.1,4.1,0,0,1-2.46.64h-.44Zm0-5.83H293a1.08,1.08,0,0,0,.83-.32,1.21,1.21,0,0,0,.31-.87,1.32,1.32,0,0,0-.31-.89,1,1,0,0,0-.76-.35h-.2Z" fill="#ee2525"/><path d="M305.22,189.61h-3l-.21-1.34h-1.92l-.23,1.34h-3l2.54-10.55H303Zm-3.49-3.6-.19-1.23,0-.18c0-.1-.05-.5-.14-1.19,0-.08,0-.19,0-.32s0-.3-.06-.51l-.09-1,0,.32q0,.18-.06.39c0,.29-.05.48-.06.59a1.88,1.88,0,0,0,0,.2l-.2,1.28-.29,1.65Z" fill="#ee2525"/><path d="M306.09,189.61V179.06h2.72l1.43,3.71c.08.21.16.46.26.75s.21.61.33,1l.29.93c-.11-.91-.18-1.7-.24-2.35s-.08-1.2-.08-1.64v-2.37h2.72v10.55H310.8l-1.44-3.88c-.15-.41-.28-.8-.4-1.16s-.23-.71-.32-1c.06.74.1,1.39.13,1.94s0,1,0,1.45v2.69Z" fill="#ee2525"/><path d="M318.76,189.61h-2.85v-8h-1.57v-2.53h6.06v2.53h-1.64Z" fill="#ee2525"/><path d="M328.94,184.37a6.55,6.55,0,0,1-1.1,3.93,3.38,3.38,0,0,1-2.85,1.5,3.61,3.61,0,0,1-2.68-1.16,6.11,6.11,0,0,1-1.4-4.38,5.84,5.84,0,0,1,1.47-4.29,3.5,3.5,0,0,1,2.57-1.1,3.42,3.42,0,0,1,2.91,1.49A6.69,6.69,0,0,1,328.94,184.37Zm-3,0c0-1.91-.34-2.86-1-2.86q-.51,0-.81.75a5.43,5.43,0,0,0-.29,2.05,6.24,6.24,0,0,0,.27,2.07c.19.49.44.73.77.73s.6-.24.78-.72A5.69,5.69,0,0,0,326,184.39Z" fill="#ee2525"/><path d="M330.18,189.61V179.06h2.72l1.43,3.71c.08.21.17.46.26.75s.21.61.33,1l.29.93c-.1-.91-.18-1.7-.24-2.35s-.08-1.2-.08-1.64v-2.37h2.72v10.55h-2.72l-1.43-3.88c-.15-.41-.29-.8-.41-1.16s-.23-.71-.32-1c.06.74.1,1.39.13,1.94s0,1,0,1.45v2.69Z" fill="#ee2525"/><path d="M339.19,189.61V179.06h5.3v2.48H342v1.54h2.19v2.39H342v1.61h2.45v2.53Z" fill="#ee2525"/><path d="M290.12,208.05H292a2.52,2.52,0,0,1,2,.69,3.24,3.24,0,0,1,.61,2.19c0,1.4-.41,2.31-1.24,2.72a4.61,4.61,0,0,1-1.79.28v4.68h-1.42Zm1.42,4.66a1.62,1.62,0,0,0,1.21-.36,1.85,1.85,0,0,0,.35-1.28,2.3,2.3,0,0,0-.33-1.38,1.22,1.22,0,0,0-1-.44h-.2Z" fill="#000100"/><path d="M296.88,208.05H298l2.27,10.56h-1.41l-.4-2.06h-2.09l-.4,2.06h-1.37Zm1.36,7.4-.32-1.68c-.21-1.14-.38-2.37-.51-3.66-.07.63-.15,1.27-.25,1.92s-.22,1.34-.35,2.07l-.26,1.35Z" fill="#000100"/><path d="M301.25,208.05h1.32l1.42,4.22a39.05,39.05,0,0,1,1.09,3.8c-.12-.81-.2-1.55-.26-2.21s-.08-1.29-.08-1.87v-3.94h1.43v10.56h-1.33l-1.6-4.75c-.14-.44-.28-.9-.41-1.36s-.25-.95-.36-1.47c0-.06,0-.14,0-.23s-.05-.19-.07-.31q0,.18,0,.3c0,.09,0,.16,0,.22l.08,1.07.07,1.31c0,.07,0,.16,0,.26V214l.08,4.6h-1.4Z" fill="#000100"/><path d="M307.14,208.05h4.63v1.25h-1.6v9.31h-1.39V209.3h-1.64Z" fill="#000100"/><path d="M317.91,213.59a9,9,0,0,1-.63,4,2.16,2.16,0,0,1-2.08,1.18,2.22,2.22,0,0,1-2.17-1.27,10.85,10.85,0,0,1-.62-4.39,9.24,9.24,0,0,1,.62-4,2.18,2.18,0,0,1,2.1-1.17,2.25,2.25,0,0,1,2,.91,4.19,4.19,0,0,1,.61,1.73A17.48,17.48,0,0,1,317.91,213.59Zm-1.49.15a16.93,16.93,0,0,0-.25-3.63c-.16-.61-.5-.91-1-.91a1,1,0,0,0-1,.83,14.79,14.79,0,0,0-.24,3.35,12.92,12.92,0,0,0,.26,3.21,1,1,0,0,0,1,.85,1,1,0,0,0,1-.79A10.45,10.45,0,0,0,316.42,213.74Z" fill="#000100"/><path d="M319.3,208.05h1.33l1.41,4.22a39.05,39.05,0,0,1,1.09,3.8c-.12-.81-.2-1.55-.25-2.21s-.09-1.29-.09-1.87v-3.94h1.43v10.56h-1.33l-1.59-4.75c-.15-.44-.29-.9-.42-1.36s-.25-.95-.36-1.47c0-.06,0-.14,0-.23s-.05-.19-.07-.31q0,.18,0,.3c0,.09,0,.16,0,.22l.08,1.07.07,1.31a2,2,0,0,1,0,.26c0,.11,0,.23,0,.36l.07,4.6h-1.4Z" fill="#000100"/><path d="M325.81,208.05h3.78v1.21h-2.36v3.34h2.09v1.2h-2.09v3.61h2.36v1.2h-3.78Z" fill="#000100"/><path d="M334.68,208.05H338v1.23h-2.28l-.34,2.65h.17a2.92,2.92,0,0,1,1.1.2,2,2,0,0,1,.81.58,2.49,2.49,0,0,1,.5.94,4.22,4.22,0,0,1,.17,1.28,4.5,4.5,0,0,1-.77,2.8,2.55,2.55,0,0,1-2.15,1,3.75,3.75,0,0,1-1.67-.44l.35-1.25a2.87,2.87,0,0,0,1.23.38,1.28,1.28,0,0,0,1.11-.63,3.13,3.13,0,0,0,.41-1.71c0-1.35-.59-2-1.75-2a3,3,0,0,0-.87.13Z" fill="#000100"/><path d="M344.07,213.41a11.29,11.29,0,0,1-.54,4.11,1.88,1.88,0,0,1-1.84,1.21,1.9,1.9,0,0,1-1.85-1.22,16.45,16.45,0,0,1,0-8.36,2,2,0,0,1,3.62-.15A10.59,10.59,0,0,1,344.07,213.41Zm-1.45,0a17.46,17.46,0,0,0-.2-3.3c-.14-.61-.39-.91-.75-.91s-.61.3-.75.9a26.51,26.51,0,0,0,0,6.5q.21.9.75.9c.36,0,.61-.3.74-.89A15.93,15.93,0,0,0,342.62,213.41Z" fill="#000100"/><path d="M345.35,208.05h2.4v10.56h-1.36v-9.35h-1Z" fill="#000100"/><path d="M354.11,208.23v1.27a2.31,2.31,0,0,0-.92-.26,1.46,1.46,0,0,0-.87.25,1.79,1.79,0,0,0-.6.77,4.86,4.86,0,0,0-.34,1.31,12.81,12.81,0,0,0-.12,1.88c0,2.61.67,3.91,2,3.91a2.23,2.23,0,0,0,.84-.21v1.3a2.37,2.37,0,0,1-1.15.29q-3.21,0-3.21-5.24a8.71,8.71,0,0,1,.79-4.21,2.57,2.57,0,0,1,2.39-1.38A2.46,2.46,0,0,1,354.11,208.23Z" fill="#000100"/><path d="M292.89,326.11H290V315.56h2.76a4.66,4.66,0,0,1,3.06.84,3.4,3.4,0,0,1,1.18,2.76,3.36,3.36,0,0,1-1.25,2.86,4.1,4.1,0,0,1-2.46.64h-.44Zm0-5.83H293a1.08,1.08,0,0,0,.83-.32,1.21,1.21,0,0,0,.31-.87,1.32,1.32,0,0,0-.31-.89,1,1,0,0,0-.76-.35h-.2Z" fill="#ee2525"/><path d="M305.22,326.11h-3l-.21-1.34h-1.92l-.23,1.34h-3l2.54-10.55H303Zm-3.49-3.6-.19-1.23,0-.18c0-.1-.05-.5-.14-1.19,0-.08,0-.19,0-.32s0-.3-.06-.51l-.09-1,0,.32q0,.18-.06.39c0,.29-.05.48-.06.59a1.88,1.88,0,0,0,0,.2l-.2,1.28-.29,1.65Z" fill="#ee2525"/><path d="M306.09,326.11V315.56h2.72l1.43,3.71c.08.21.16.46.26.75s.21.61.33,1l.29.93c-.11-.91-.18-1.7-.24-2.35s-.08-1.2-.08-1.64v-2.37h2.72v10.55H310.8l-1.44-3.88c-.15-.41-.28-.8-.4-1.16s-.23-.71-.32-1c.06.74.1,1.39.13,1.94s0,1,0,1.45v2.69Z" fill="#ee2525"/><path d="M318.76,326.11h-2.85v-8h-1.57v-2.53h6.06v2.53h-1.64Z" fill="#ee2525"/><path d="M328.94,320.87a6.55,6.55,0,0,1-1.1,3.93,3.38,3.38,0,0,1-2.85,1.5,3.61,3.61,0,0,1-2.68-1.16,6.11,6.11,0,0,1-1.4-4.38,5.84,5.84,0,0,1,1.47-4.29,3.5,3.5,0,0,1,2.57-1.1,3.42,3.42,0,0,1,2.91,1.49A6.69,6.69,0,0,1,328.94,320.87Zm-3,0c0-1.91-.34-2.86-1-2.86q-.51,0-.81.75a5.43,5.43,0,0,0-.29,2.05,6.24,6.24,0,0,0,.27,2.07c.19.49.44.73.77.73s.6-.24.78-.72A5.69,5.69,0,0,0,326,320.89Z" fill="#ee2525"/><path d="M330.18,326.11V315.56h2.72l1.43,3.71c.08.21.17.46.26.75s.21.61.33,1l.29.93c-.1-.91-.18-1.7-.24-2.35s-.08-1.2-.08-1.64v-2.37h2.72v10.55h-2.72l-1.43-3.88c-.15-.41-.29-.8-.41-1.16s-.23-.71-.32-1c.06.74.1,1.39.13,1.94s0,1,0,1.45v2.69Z" fill="#ee2525"/><path d="M339.19,326.11V315.56h5.3V318H342v1.54h2.19V322H342v1.61h2.45v2.53Z" fill="#ee2525"/><path d="M290.12,344.55H292a2.52,2.52,0,0,1,2,.69,3.24,3.24,0,0,1,.61,2.19c0,1.4-.41,2.31-1.24,2.72a4.61,4.61,0,0,1-1.79.28v4.68h-1.42Zm1.42,4.66a1.62,1.62,0,0,0,1.21-.36,1.85,1.85,0,0,0,.35-1.28,2.3,2.3,0,0,0-.33-1.38,1.22,1.22,0,0,0-1-.44h-.2Z" fill="#000100"/><path d="M296.88,344.55H298l2.27,10.56h-1.41l-.4-2.06h-2.09l-.4,2.06h-1.37Zm1.36,7.4-.32-1.68c-.21-1.14-.38-2.37-.51-3.66-.07.63-.15,1.27-.25,1.92s-.22,1.34-.35,2.07l-.26,1.35Z" fill="#000100"/><path d="M301.25,344.55h1.32l1.42,4.22a39.05,39.05,0,0,1,1.09,3.8c-.12-.81-.2-1.55-.26-2.21s-.08-1.29-.08-1.87v-3.94h1.43v10.56h-1.33l-1.6-4.75c-.14-.44-.28-.9-.41-1.36s-.25-.95-.36-1.47c0-.06,0-.14,0-.23s-.05-.19-.07-.31q0,.18,0,.3c0,.09,0,.16,0,.22l.08,1.07.07,1.31c0,.07,0,.16,0,.26v.36l.08,4.6h-1.4Z" fill="#000100"/><path d="M307.14,344.55h4.63v1.25h-1.6v9.31h-1.39V345.8h-1.64Z" fill="#000100"/><path d="M317.91,350.09a9,9,0,0,1-.63,4,2.16,2.16,0,0,1-2.08,1.18A2.22,2.22,0,0,1,313,354a10.85,10.85,0,0,1-.62-4.39,9.24,9.24,0,0,1,.62-4,2.18,2.18,0,0,1,2.1-1.17,2.25,2.25,0,0,1,2,.91,4.19,4.19,0,0,1,.61,1.73A17.48,17.48,0,0,1,317.91,350.09Zm-1.49.15a16.93,16.93,0,0,0-.25-3.63c-.16-.61-.5-.91-1-.91a1,1,0,0,0-1,.83,14.79,14.79,0,0,0-.24,3.35,12.92,12.92,0,0,0,.26,3.21,1,1,0,0,0,1,.85,1,1,0,0,0,1-.79A10.45,10.45,0,0,0,316.42,350.24Z" fill="#000100"/><path d="M319.29,344.55h1.32l1.42,4.22a36.47,36.47,0,0,1,1.08,3.8c-.11-.81-.19-1.55-.25-2.21s-.08-1.29-.08-1.87v-3.94h1.43v10.56h-1.33l-1.6-4.75c-.14-.44-.28-.9-.41-1.36s-.25-.95-.36-1.47c0-.06,0-.14,0-.23s-.05-.19-.08-.31c0,.12,0,.22,0,.3s0,.16,0,.22l.07,1.07.08,1.31c0,.07,0,.16,0,.26v.36l.08,4.6h-1.4Z" fill="#000100"/><path d="M325.79,344.55h3.78v1.21h-2.36v3.34h2.1v1.2h-2.1v3.61h2.36v1.2h-3.78Z" fill="#000100"/><path d="M337.92,344.73V346a2.27,2.27,0,0,0-.92-.26,1.45,1.45,0,0,0-.86.25,1.72,1.72,0,0,0-.6.77,4.5,4.5,0,0,0-.35,1.31,12.94,12.94,0,0,0-.11,1.88c0,2.61.66,3.91,2,3.91a2.23,2.23,0,0,0,.84-.21V355a2.31,2.31,0,0,1-1.15.29c-2.14,0-3.2-1.75-3.2-5.24a8.84,8.84,0,0,1,.78-4.21,2.57,2.57,0,0,1,2.39-1.38A2.46,2.46,0,0,1,337.92,344.73Z" fill="#000100"/><path d="M344.32,350.09a9,9,0,0,1-.63,4,2.16,2.16,0,0,1-2.08,1.18,2.22,2.22,0,0,1-2.17-1.27,10.85,10.85,0,0,1-.62-4.39,9.24,9.24,0,0,1,.62-4,2.18,2.18,0,0,1,2.1-1.17,2.24,2.24,0,0,1,2,.91,4.19,4.19,0,0,1,.61,1.73A17.48,17.48,0,0,1,344.32,350.09Zm-1.49.15a16.93,16.93,0,0,0-.25-3.63c-.16-.61-.5-.91-1-.91a1,1,0,0,0-1,.83,14.79,14.79,0,0,0-.24,3.35,12.92,12.92,0,0,0,.26,3.21,1,1,0,0,0,1,.85,1,1,0,0,0,1-.79A10.45,10.45,0,0,0,342.83,350.24Z" fill="#000100"/><path d="M351,350.09a9.17,9.17,0,0,1-.62,4,2.17,2.17,0,0,1-2.09,1.18,2.23,2.23,0,0,1-2.17-1.27,10.85,10.85,0,0,1-.62-4.39,9.24,9.24,0,0,1,.62-4,2.19,2.19,0,0,1,2.1-1.17,2.24,2.24,0,0,1,2,.91,4.19,4.19,0,0,1,.62,1.73A17.69,17.69,0,0,1,351,350.09Zm-1.49.15a16.27,16.27,0,0,0-.25-3.63c-.16-.61-.5-.91-1-.91a1,1,0,0,0-1,.83,14,14,0,0,0-.25,3.35,13.43,13.43,0,0,0,.26,3.21,1,1,0,0,0,1,.85,1,1,0,0,0,1-.79A10.45,10.45,0,0,0,349.52,350.24Z" fill="#000100"/><path d="M352.39,344.55h1.42v9.36h2.32v1.2h-3.74Z" fill="#000100"/><path d="M362.43,349.56H365V350a10.84,10.84,0,0,1-.54,4.16,2,2,0,0,1-2,1.11,2.22,2.22,0,0,1-2.15-1.23,9.59,9.59,0,0,1-.64-4.14c0-2.21.23-3.69.7-4.42a2.22,2.22,0,0,1,2-1,2.35,2.35,0,0,1,1.62.5,3.27,3.27,0,0,1,.92,1.66l-1.33.55a5.24,5.24,0,0,0-.19-.7,1.92,1.92,0,0,0-.24-.44,1,1,0,0,0-.78-.32c-.48,0-.8.29-1,.87a13.58,13.58,0,0,0-.26,3.29,13.37,13.37,0,0,0,.26,3.25,1,1,0,0,0,1,.85,1,1,0,0,0,.95-.61,5.42,5.42,0,0,0,.28-2.06v-.5h-1.24Z" fill="#000100"/><path d="M366.36,344.55h1.87a2.38,2.38,0,0,1,1.73.56,3,3,0,0,1,.72,2.19,3.76,3.76,0,0,1-.38,1.82,1.62,1.62,0,0,1-1.08.86l1.94,5.13h-1.44l-1.94-5.17v5.17h-1.42Zm1.42,4.68a1.54,1.54,0,0,0,1.17-.38,1.94,1.94,0,0,0,.34-1.29,4.22,4.22,0,0,0-.07-.85,1.52,1.52,0,0,0-.22-.56.88.88,0,0,0-.4-.32,1.43,1.43,0,0,0-.58-.11h-.24Z" fill="#000100"/><path d="M374.18,344.55h1.11l2.26,10.56h-1.4l-.4-2.06h-2.09l-.41,2.06h-1.36Zm1.36,7.4-.31-1.68c-.21-1.14-.38-2.37-.51-3.66-.07.63-.15,1.27-.25,1.92s-.22,1.34-.35,2.07l-.26,1.35Z" fill="#000100"/><path d="M377,344.55h1.51l.69,2.3a1.25,1.25,0,0,1,.07.23c0,.08.05.17.08.26a17.21,17.21,0,0,1,.54,2.1c.08-.57.15-1,.2-1.19l.22-.94.08-.37.59-2.39h1.48l-1.83,6v4.54h-1.43v-4.54Z" fill="#000100"/><path d="M386.63,344.55H389v10.56h-1.36v-9.35h-1Z" fill="#000100"/><path d="M394.88,344.55h1.4V352a3.82,3.82,0,0,0,.2,1.52,1.15,1.15,0,0,0,1.66.05,3,3,0,0,0,.2-1.36v-7.67h1.4v7.67a3.71,3.71,0,0,1-.53,2.33,2.47,2.47,0,0,1-1.92.69,2.21,2.21,0,0,1-2-.89,4.61,4.61,0,0,1-.41-2.34Z" fill="#000100"/><path d="M292.89,462.61H290V452.06h2.76a4.66,4.66,0,0,1,3.06.84,3.4,3.4,0,0,1,1.18,2.76,3.36,3.36,0,0,1-1.25,2.86,4.1,4.1,0,0,1-2.46.64h-.44Zm0-5.83H293a1.08,1.08,0,0,0,.83-.32,1.21,1.21,0,0,0,.31-.87,1.32,1.32,0,0,0-.31-.89,1,1,0,0,0-.76-.35h-.2Z" fill="#ee2525"/><path d="M305.22,462.61h-3l-.21-1.34h-1.92l-.23,1.34h-3l2.54-10.55H303Zm-3.49-3.6-.19-1.23,0-.18c0-.1-.05-.5-.14-1.19,0-.08,0-.19,0-.32s0-.3-.06-.51l-.09-1,0,.32q0,.18-.06.39c0,.29-.05.48-.06.59a1.88,1.88,0,0,0,0,.2l-.2,1.28-.29,1.65Z" fill="#ee2525"/><path d="M306.09,462.61V452.06h2.72l1.43,3.71c.08.21.16.46.26.75s.21.61.33,1l.29.93c-.11-.91-.18-1.7-.24-2.35s-.08-1.2-.08-1.64v-2.37h2.72v10.55H310.8l-1.44-3.88c-.15-.41-.28-.8-.4-1.16s-.23-.71-.32-1c.06.74.1,1.39.13,1.94s0,1,0,1.45v2.69Z" fill="#ee2525"/><path d="M318.76,462.61h-2.85v-8h-1.57v-2.53h6.06v2.53h-1.64Z" fill="#ee2525"/><path d="M328.94,457.37a6.55,6.55,0,0,1-1.1,3.93,3.38,3.38,0,0,1-2.85,1.5,3.61,3.61,0,0,1-2.68-1.16,6.11,6.11,0,0,1-1.4-4.38,5.84,5.84,0,0,1,1.47-4.29,3.5,3.5,0,0,1,2.57-1.1,3.42,3.42,0,0,1,2.91,1.49A6.69,6.69,0,0,1,328.94,457.37Zm-3,0c0-1.91-.34-2.86-1-2.86q-.51,0-.81.75a5.43,5.43,0,0,0-.29,2.05,6.24,6.24,0,0,0,.27,2.07c.19.49.44.73.77.73s.6-.24.78-.72A5.69,5.69,0,0,0,326,457.39Z" fill="#ee2525"/><path d="M330.18,462.61V452.06h2.72l1.43,3.71c.08.21.17.46.26.75s.21.61.33,1l.29.93c-.1-.91-.18-1.7-.24-2.35s-.08-1.2-.08-1.64v-2.37h2.72v10.55h-2.72l-1.43-3.88c-.15-.41-.29-.8-.41-1.16s-.23-.71-.32-1c.06.74.1,1.39.13,1.94s0,1,0,1.45v2.69Z" fill="#ee2525"/><path d="M339.19,462.61V452.06h5.3v2.48H342v1.54h2.19v2.39H342v1.61h2.45v2.53Z" fill="#ee2525"/><path d="M290.12,481.05H292a2.52,2.52,0,0,1,2,.69,3.24,3.24,0,0,1,.61,2.19c0,1.4-.41,2.31-1.24,2.72a4.61,4.61,0,0,1-1.79.28v4.68h-1.42Zm1.42,4.66a1.62,1.62,0,0,0,1.21-.36,1.85,1.85,0,0,0,.35-1.28,2.3,2.3,0,0,0-.33-1.38,1.22,1.22,0,0,0-1-.44h-.2Z" fill="#000100"/><path d="M296.88,481.05H298l2.27,10.56h-1.41l-.4-2.06h-2.09l-.4,2.06h-1.37Zm1.36,7.4-.32-1.68c-.21-1.14-.38-2.37-.51-3.66-.07.63-.15,1.27-.25,1.92s-.22,1.34-.35,2.07l-.26,1.35Z" fill="#000100"/><path d="M301.25,481.05h1.32l1.42,4.22a39.05,39.05,0,0,1,1.09,3.8c-.12-.81-.2-1.55-.26-2.21s-.08-1.29-.08-1.87v-3.94h1.43v10.56h-1.33l-1.6-4.75c-.14-.44-.28-.9-.41-1.36s-.25-.95-.36-1.47c0-.06,0-.14,0-.23s-.05-.19-.07-.31q0,.18,0,.3c0,.09,0,.16,0,.22l.08,1.07.07,1.31c0,.07,0,.16,0,.26V487l.08,4.6h-1.4Z" fill="#000100"/><path d="M307.14,481.05h4.63v1.25h-1.6v9.31h-1.39V482.3h-1.64Z" fill="#000100"/><path d="M317.91,486.59a9,9,0,0,1-.63,4,2.16,2.16,0,0,1-2.08,1.18,2.22,2.22,0,0,1-2.17-1.27,10.85,10.85,0,0,1-.62-4.39,9.24,9.24,0,0,1,.62-4,2.18,2.18,0,0,1,2.1-1.17,2.25,2.25,0,0,1,2,.91,4.19,4.19,0,0,1,.61,1.73A17.48,17.48,0,0,1,317.91,486.59Zm-1.49.15a16.93,16.93,0,0,0-.25-3.63c-.16-.61-.5-.91-1-.91a1,1,0,0,0-1,.83,14.79,14.79,0,0,0-.24,3.35,12.92,12.92,0,0,0,.26,3.21,1,1,0,0,0,1,.85,1,1,0,0,0,1-.79A10.45,10.45,0,0,0,316.42,486.74Z" fill="#000100"/><path d="M319.3,481.05h1.33l1.41,4.22a39.05,39.05,0,0,1,1.09,3.8c-.12-.81-.2-1.55-.25-2.21s-.09-1.29-.09-1.87v-3.94h1.43v10.56h-1.33l-1.59-4.75c-.15-.44-.29-.9-.42-1.36s-.25-.95-.36-1.47c0-.06,0-.14,0-.23s-.05-.19-.07-.31q0,.18,0,.3c0,.09,0,.16,0,.22l.08,1.07.07,1.31a2,2,0,0,1,0,.26c0,.11,0,.23,0,.36l.07,4.6h-1.4Z" fill="#000100"/><path d="M325.81,481.05h3.78v1.21h-2.36v3.34h2.09v1.2h-2.09v3.61h2.36v1.2h-3.78Z" fill="#000100"/><path d="M333.79,481.05h1.93c1.51,0,2.26.94,2.26,2.81a3.45,3.45,0,0,1-.29,1.6,1.87,1.87,0,0,1-1,.78,2.27,2.27,0,0,1,1.17.88,3.14,3.14,0,0,1,.32,1.58q0,2.91-2.49,2.91h-1.86Zm1.34,4.65a1.46,1.46,0,0,0,1.15-.38,2.37,2.37,0,0,0,.32-1.42c0-1.13-.41-1.7-1.23-1.7h-.24Zm0,4.69a1.58,1.58,0,0,0,1.21-.37,2.1,2.1,0,0,0,.34-1.36,2.21,2.21,0,0,0-.35-1.42,1.51,1.51,0,0,0-1.2-.41Z" fill="#000100"/><path d="M339.5,481.05h1.42v9.36h2.32v1.2H339.5Z" fill="#000100"/><path d="M346.17,481.05h1.11l2.26,10.56h-1.41l-.4-2.06h-2.09l-.4,2.06h-1.37Zm1.36,7.4-.32-1.68c-.21-1.14-.38-2.37-.51-3.66q-.09.94-.24,1.92t-.36,2.07l-.26,1.35Z" fill="#000100"/><path d="M354.42,481.23v1.27a2.31,2.31,0,0,0-.92-.26,1.48,1.48,0,0,0-.87.25,1.7,1.7,0,0,0-.59.77,4.5,4.5,0,0,0-.35,1.31,12.81,12.81,0,0,0-.12,1.88c0,2.61.67,3.91,2,3.91a2.23,2.23,0,0,0,.84-.21v1.3a2.34,2.34,0,0,1-1.15.29q-3.21,0-3.21-5.24a8.71,8.71,0,0,1,.79-4.21,2.57,2.57,0,0,1,2.39-1.38A2.46,2.46,0,0,1,354.42,481.23Z" fill="#000100"/><path d="M355.61,481.05H357v5.12l2-5.12h1.43l-2.07,5.12,2.24,5.44H359l-2-5.44v5.44h-1.43Z" fill="#000100"/><path d="M364.41,481.05h1.39v7.46A3.82,3.82,0,0,0,366,490a1.15,1.15,0,0,0,1.66.05,3,3,0,0,0,.2-1.36v-7.67h1.4v7.67a3.71,3.71,0,0,1-.53,2.33,2.47,2.47,0,0,1-1.92.69,2.21,2.21,0,0,1-2-.89,4.64,4.64,0,0,1-.4-2.34Z" fill="#000100"/><path d="M442.29,53.11h-2.85V48.87h-1.36v4.24h-2.85V42.56h2.85v3.73h1.36V42.56h2.85Z" fill="#ee2525"/><path d="M443.87,53.11V42.56h5.3V45h-2.45v1.54h2.2V49h-2.2v1.61h2.45v2.53Z" fill="#ee2525"/><path d="M458.05,53.11h-3.16l-.53-1.5a13.31,13.31,0,0,1-.41-1.33,12.76,12.76,0,0,1-.45,1.45L453,53.11h-3.1l2.56-5.47L450,42.56h3.18l.47,1.43a3.63,3.63,0,0,1,.14.46c.05.18.1.38.15.61.11-.46.21-.81.29-1.06l.44-1.44h3.19l-2.41,5.08Z" fill="#ee2525"/><path d="M439.77,77.56v1.17h-1.12l-.41,3.38h-1.13l.42-3.38h-.9l-.41,3.38H435.1l.42-3.38h-1V77.56h1.15l.2-1.66h-1V74.73H436l.39-3.18h1.11l-.39,3.18H438l.4-3.18h1.12l-.39,3.18h1.11V75.9H439l-.21,1.66Zm-1.89-1.66H437l-.19,1.66h.89Z" fill="#000100"/><path d="M443.83,79.72h1.22c-.09,1.67-.78,2.5-2.05,2.5a2.07,2.07,0,0,1-1-.21,1.79,1.79,0,0,1-.68-.66,3.48,3.48,0,0,1-.39-1.13,9.4,9.4,0,0,1-.13-1.62,5.69,5.69,0,0,1,.53-2.78,1.73,1.73,0,0,1,1.61-.9c1.42,0,2.13,1.25,2.13,3.74v.17h-3c0,1.51.3,2.27.9,2.27S443.83,80.64,443.83,79.72Zm-.06-1.84a4.66,4.66,0,0,0-.26-1.46.6.6,0,0,0-.57-.39.58.58,0,0,0-.57.39,4.66,4.66,0,0,0-.26,1.46Z" fill="#000100"/><path d="M445.91,71.55h4.71l-3.2,10.56h-1.51l2.93-9.35h-2.93Z" fill="#000100"/><path d="M452.89,75H451.5v-.42a4.21,4.21,0,0,1,.52-2.43,2,2,0,0,1,1.76-.72c1.55,0,2.33.87,2.33,2.59a12.06,12.06,0,0,1-1.74,5l-.84,1.58,0,.08s-.06.12-.1.2H456v1.22h-4.63c.07-.17.24-.52.48-1l1-2.09q.54-1.14.9-1.95c.24-.53.42-1,.55-1.31a5.49,5.49,0,0,0,.37-1.77c0-.87-.31-1.31-.91-1.31s-.88.54-.88,1.62V75Z" fill="#000100"/><path d="M461.91,76.91a11,11,0,0,1-.55,4.11,1.86,1.86,0,0,1-1.83,1.21A1.89,1.89,0,0,1,457.68,81a11.22,11.22,0,0,1-.54-4.18,11.25,11.25,0,0,1,.54-4.18,1.87,1.87,0,0,1,1.84-1.23,1.9,1.9,0,0,1,1.78,1.08A10.59,10.59,0,0,1,461.91,76.91Zm-1.45,0a18.38,18.38,0,0,0-.2-3.3c-.14-.61-.39-.91-.75-.91s-.61.3-.75.9a16.67,16.67,0,0,0-.21,3.25,16.81,16.81,0,0,0,.21,3.25q.21.9.75.9c.36,0,.6-.3.74-.89A15.93,15.93,0,0,0,460.46,76.91Z" fill="#000100"/><path d="M464.46,75h-1.39l0-.42a4.29,4.29,0,0,1,.52-2.43,2,2,0,0,1,1.76-.72c1.56,0,2.34.87,2.34,2.59a12.11,12.11,0,0,1-1.75,5l-.84,1.58a.54.54,0,0,1,0,.08l-.09.2h2.61v1.22h-4.64c.08-.17.24-.52.49-1s.58-1.21,1-2.09.66-1.41.9-1.95.43-1,.55-1.31a5.24,5.24,0,0,0,.37-1.77c0-.87-.3-1.31-.91-1.31s-.87.54-.87,1.62V75Z" fill="#000100"/><path d="M469.87,71.55h3.35v1.23H471l-.34,2.65h.17a2.92,2.92,0,0,1,1.1.2,2,2,0,0,1,.81.58,2.49,2.49,0,0,1,.5.94,5.29,5.29,0,0,1-.6,4.08,2.56,2.56,0,0,1-2.15,1,3.75,3.75,0,0,1-1.67-.44l.35-1.25a2.87,2.87,0,0,0,1.23.38,1.25,1.25,0,0,0,1.1-.63,3,3,0,0,0,.41-1.71c0-1.35-.58-2-1.74-2a2.91,2.91,0,0,0-.87.13Z" fill="#000100"/><path d="M442.29,189.61h-2.85v-4.24h-1.36v4.24h-2.85V179.06h2.85v3.73h1.36v-3.73h2.85Z" fill="#ee2525"/><path d="M443.87,189.61V179.06h5.3v2.48h-2.45v1.54h2.2v2.39h-2.2v1.61h2.45v2.53Z" fill="#ee2525"/><path d="M458.05,189.61h-3.16l-.53-1.5a13.31,13.31,0,0,1-.41-1.33,12.76,12.76,0,0,1-.45,1.45l-.53,1.38h-3.1l2.56-5.47L450,179.06h3.18l.47,1.43a3.63,3.63,0,0,1,.14.46c.05.18.1.38.15.61.11-.46.21-.81.29-1.06l.44-1.44h3.19l-2.41,5.08Z" fill="#ee2525"/><path d="M439.77,214.06v1.17h-1.12l-.41,3.38h-1.13l.42-3.38h-.9l-.41,3.38H435.1l.42-3.38h-1v-1.17h1.15l.2-1.66h-1v-1.17H436l.39-3.18h1.11l-.39,3.18H438l.4-3.18h1.12l-.39,3.18h1.11v1.17H439l-.21,1.66Zm-1.89-1.66H437l-.19,1.66h.89Z" fill="#000100"/><path d="M443.83,216.22h1.22c-.09,1.67-.78,2.5-2.05,2.5a2.07,2.07,0,0,1-1-.21,1.79,1.79,0,0,1-.68-.66,3.48,3.48,0,0,1-.39-1.13,9.4,9.4,0,0,1-.13-1.62,5.69,5.69,0,0,1,.53-2.78,1.73,1.73,0,0,1,1.61-.9c1.42,0,2.13,1.25,2.13,3.74v.17h-3c0,1.51.3,2.27.9,2.27S443.83,217.14,443.83,216.22Zm-.06-1.84a4.66,4.66,0,0,0-.26-1.46.6.6,0,0,0-.57-.39.58.58,0,0,0-.57.39,4.66,4.66,0,0,0-.26,1.46Z" fill="#000100"/><path d="M448.29,208.05h1.51l-1,2c-.17.37-.35.77-.52,1.18s-.36.86-.55,1.33a1.82,1.82,0,0,1,1.14-.48,1.52,1.52,0,0,1,1.36.77,5.22,5.22,0,0,1,.45,2.57,4.6,4.6,0,0,1-.52,2.52,2.29,2.29,0,0,1-3.48-.08,5.31,5.31,0,0,1-.54-2.76,10.63,10.63,0,0,1,.43-3.06,14.73,14.73,0,0,1,.64-1.71C447.51,209.7,447.86,208.93,448.29,208.05Zm1,7.39a8.14,8.14,0,0,0-.05-.93,2.24,2.24,0,0,0-.15-.63.85.85,0,0,0-.28-.35.69.69,0,0,0-.41-.12.65.65,0,0,0-.4.12.72.72,0,0,0-.28.35,2.23,2.23,0,0,0-.16.62,8.14,8.14,0,0,0-.05.93c0,1.38.3,2.07.89,2.07S449.33,216.82,449.33,215.44Z" fill="#000100"/><path d="M456.08,211.53v7.08h-1.3v-.91a2.28,2.28,0,0,1-.56.8,1.14,1.14,0,0,1-.74.22,1.35,1.35,0,0,1-1.29-.9,7.37,7.37,0,0,1-.41-2.83,6.76,6.76,0,0,1,.41-2.71,1.35,1.35,0,0,1,1.29-.86,1.46,1.46,0,0,1,1.3.91v-.8ZM453.13,215a6.7,6.7,0,0,0,.19,2,.68.68,0,0,0,.67.55q.43,0,.63-.57a9.13,9.13,0,0,0,0-3.8q-.19-.57-.63-.57a.71.71,0,0,0-.67.55A6.43,6.43,0,0,0,453.13,215Z" fill="#000100"/><path d="M460.09,208.05h1.32v6.58h.68v1.09h-.68v2.89h-1.32v-2.89H457.2v-1.21Zm0,6.58V210.2l-1.78,4.43Z" fill="#000100"/><path d="M467.39,211.53v7.08h-1.31v-.91a2.16,2.16,0,0,1-.56.8,1.12,1.12,0,0,1-.73.22,1.37,1.37,0,0,1-1.3-.9,7.37,7.37,0,0,1-.41-2.83,6.76,6.76,0,0,1,.41-2.71,1.37,1.37,0,0,1,1.3-.86,1.45,1.45,0,0,1,1.29.91v-.8ZM464.44,215a7.18,7.18,0,0,0,.18,2,.69.69,0,0,0,.67.55c.29,0,.51-.19.64-.57a9.13,9.13,0,0,0,0-3.8c-.13-.38-.35-.57-.64-.57a.69.69,0,0,0-.66.55A6.1,6.1,0,0,0,464.44,215Z" fill="#000100"/><path d="M468.8,207h1.31v5.34a2.13,2.13,0,0,1,.28-.43,1.84,1.84,0,0,1,.28-.28,1.19,1.19,0,0,1,.71-.2,1.42,1.42,0,0,1,.78.21,1.51,1.51,0,0,1,.54.64,4.08,4.08,0,0,1,.31,1.12,10.6,10.6,0,0,1,.1,1.6,7.3,7.3,0,0,1-.41,2.83,1.34,1.34,0,0,1-1.28.9,1.17,1.17,0,0,1-.75-.22,2.28,2.28,0,0,1-.56-.8v.91H468.8Zm3,8.12a6.91,6.91,0,0,0-.19-2,.69.69,0,0,0-.67-.55c-.3,0-.51.19-.63.56a6.52,6.52,0,0,0-.19,1.91,6.6,6.6,0,0,0,.19,1.92c.12.37.33.55.63.55a.71.71,0,0,0,.67-.54A6.48,6.48,0,0,0,471.76,215.11Z" fill="#000100"/><path d="M442.29,326.11h-2.85v-4.24h-1.36v4.24h-2.85V315.56h2.85v3.73h1.36v-3.73h2.85Z" fill="#ee2525"/><path d="M443.87,326.11V315.56h5.3V318h-2.45v1.54h2.2V322h-2.2v1.61h2.45v2.53Z" fill="#ee2525"/><path d="M458.05,326.11h-3.16l-.53-1.5a13.31,13.31,0,0,1-.41-1.33,12.76,12.76,0,0,1-.45,1.45l-.53,1.38h-3.1l2.56-5.47L450,315.56h3.18l.47,1.43a3.63,3.63,0,0,1,.14.46c.05.18.1.38.15.61.11-.46.21-.81.29-1.06l.44-1.44h3.19l-2.41,5.08Z" fill="#ee2525"/><path d="M439.77,350.56v1.17h-1.12l-.41,3.38h-1.13l.42-3.38h-.9l-.41,3.38H435.1l.42-3.38h-1v-1.17h1.15l.2-1.66h-1v-1.17H436l.39-3.18h1.11l-.39,3.18H438l.4-3.18h1.12l-.39,3.18h1.11v1.17H439l-.21,1.66Zm-1.89-1.66H437l-.19,1.66h.89Z" fill="#000100"/><path d="M440.91,348h.66v-2.46a3,3,0,0,1,.35-1.71,1.4,1.4,0,0,1,1.24-.5,2.75,2.75,0,0,1,.89.18v1.38a1.26,1.26,0,0,0-.56-.17.54.54,0,0,0-.47.2,1.15,1.15,0,0,0-.14.67V348H444v1h-1.11v6h-1.3v-6h-.66Z" fill="#000100"/><path d="M444.61,348h.65v-2.46a3,3,0,0,1,.36-1.71,1.4,1.4,0,0,1,1.24-.5,2.75,2.75,0,0,1,.89.18v1.38a1.26,1.26,0,0,0-.56-.17.54.54,0,0,0-.47.2,1.15,1.15,0,0,0-.14.67V348h1.11v1h-1.11v6h-1.31v-6h-.65Z" fill="#000100"/><path d="M448.3,348H449v-2.46a3,3,0,0,1,.36-1.71,1.38,1.38,0,0,1,1.23-.5,2.65,2.65,0,0,1,.89.18v1.38a1.23,1.23,0,0,0-.55-.17.57.57,0,0,0-.48.2,1.24,1.24,0,0,0-.14.67V348h1.1v1h-1.1v6H449v-6h-.66Z" fill="#000100"/><path d="M452,348h.66v-2.46a3.12,3.12,0,0,1,.35-1.71,1.4,1.4,0,0,1,1.24-.5,2.7,2.7,0,0,1,.89.18v1.38a1.23,1.23,0,0,0-.55-.17.55.55,0,0,0-.48.2,1.24,1.24,0,0,0-.14.67V348h1.11v1H454v6h-1.3v-6H452Z" fill="#000100"/><path d="M455.7,348h.66v-2.46a3,3,0,0,1,.35-1.71,1.4,1.4,0,0,1,1.24-.5,2.75,2.75,0,0,1,.89.18v1.38a1.26,1.26,0,0,0-.56-.17.54.54,0,0,0-.47.2,1.24,1.24,0,0,0-.14.67V348h1.11v1h-1.11v6h-1.3v-6h-.66Z" fill="#000100"/><path d="M459.4,348h.65v-2.46a3,3,0,0,1,.36-1.71,1.4,1.4,0,0,1,1.24-.5,2.75,2.75,0,0,1,.89.18v1.38a1.26,1.26,0,0,0-.56-.17.54.54,0,0,0-.47.2,1.15,1.15,0,0,0-.14.67V348h1.11v1h-1.11v6h-1.31v-6h-.65Z" fill="#000100"/><path d="M442.29,462.61h-2.85v-4.24h-1.36v4.24h-2.85V452.06h2.85v3.73h1.36v-3.73h2.85Z" fill="#ee2525"/><path d="M443.87,462.61V452.06h5.3v2.48h-2.45v1.54h2.2v2.39h-2.2v1.61h2.45v2.53Z" fill="#ee2525"/><path d="M458.05,462.61h-3.16l-.53-1.5a13.31,13.31,0,0,1-.41-1.33,12.76,12.76,0,0,1-.45,1.45l-.53,1.38h-3.1l2.56-5.47L450,452.06h3.18l.47,1.43a3.63,3.63,0,0,1,.14.46c.05.18.1.38.15.61.11-.46.21-.81.29-1.06l.44-1.44h3.19l-2.41,5.08Z" fill="#ee2525"/><path d="M439.77,487.06v1.17h-1.12l-.41,3.38h-1.13l.42-3.38h-.9l-.41,3.38H435.1l.42-3.38h-1v-1.17h1.15l.2-1.66h-1v-1.17H436l.39-3.18h1.11l-.39,3.18H438l.4-3.18h1.12l-.39,3.18h1.11v1.17H439l-.21,1.66Zm-1.89-1.66H437l-.19,1.66h.89Z" fill="#000100"/><path d="M442.59,484.49H441.2v-.42a4.21,4.21,0,0,1,.52-2.43,2,2,0,0,1,1.76-.72c1.55,0,2.33.87,2.33,2.59a12.06,12.06,0,0,1-1.74,5l-.84,1.58a.56.56,0,0,0,0,.08c0,.05-.06.12-.1.2h2.61v1.22h-4.63c.07-.17.24-.52.48-1l1-2.09q.54-1.14.9-1.95c.24-.53.42-1,.55-1.31a5.49,5.49,0,0,0,.37-1.77c0-.87-.31-1.31-.91-1.31s-.88.54-.88,1.62v.72Z" fill="#000100"/><path d="M448.39,484.49H447l0-.42a4.29,4.29,0,0,1,.52-2.43,2,2,0,0,1,1.77-.72c1.55,0,2.33.87,2.33,2.59a12,12,0,0,1-1.75,5l-.84,1.58a.18.18,0,0,1,0,.08l-.09.2h2.61v1.22h-4.64c.08-.17.24-.52.49-1s.58-1.21,1-2.09.66-1.41.91-1.95.42-1,.54-1.31a5.24,5.24,0,0,0,.37-1.77c0-.87-.3-1.31-.91-1.31s-.87.54-.87,1.62v.72Z" fill="#000100"/><path d="M453,481.05h2.4v10.56h-1.36v-9.35h-1Z" fill="#000100"/><path d="M460.37,489.22h1.22c-.1,1.67-.78,2.5-2,2.5a2.12,2.12,0,0,1-1-.21,1.76,1.76,0,0,1-.67-.66,3.26,3.26,0,0,1-.39-1.13,8.49,8.49,0,0,1-.13-1.62,5.71,5.71,0,0,1,.52-2.78,1.75,1.75,0,0,1,1.62-.9c1.42,0,2.13,1.25,2.13,3.74v.17h-3c0,1.51.3,2.27.9,2.27S460.37,490.14,460.37,489.22Zm-.07-1.84a4.75,4.75,0,0,0-.25-1.46.62.62,0,0,0-1.15,0,4.75,4.75,0,0,0-.25,1.46Z" fill="#000100"/><path d="M462.55,481.05H465v10.56H463.6v-9.35h-1.05Z" fill="#000100"/><path d="M466.67,484.53h.65v-2.46a3,3,0,0,1,.36-1.71,1.4,1.4,0,0,1,1.24-.5,2.75,2.75,0,0,1,.89.18v1.38a1.26,1.26,0,0,0-.56-.17.54.54,0,0,0-.47.2,1.15,1.15,0,0,0-.14.67v2.41h1.11v1h-1.11v6h-1.31v-6h-.65Z" fill="#000100"/><rect x="0.21" width="568.48" height="29.5" fill="#db3234"/><rect x="0.21" y="136.5" width="568.48" height="29.5" fill="#dea0a8"/><rect x="0.21" y="273" width="568.48" height="29.5" fill="#fff" stroke="#221e1f" stroke-width="0.28"/><rect x="0.21" y="409.5" width="568.48" height="29.5" fill="#231f20"/></g></g>
</svg>