<svg xmlns="http://www.w3.org/2000/svg" viewBox="0 0 271.54 43.11"><defs><style>.cls-1{fill:#dbdbdb;}.cls-2{fill:#d92727;}.cls-3,.cls-6{fill:#fff;}.cls-4{fill:#231815;}.cls-5{fill:none;}.cls-5,.cls-6{stroke:#231815;stroke-miterlimit:10;}.cls-7{fill:#9e9e9e;}</style></defs><g id="Layer_2" data-name="Layer 2"><g id="레이어_1" data-name="레이어 1"><rect class="cls-1" width="30.24" height="8"/><rect class="cls-2" x="5.96" y="12.89" width="48.56" height="17.28"/><path class="cls-3" d="M18.16,21a1.27,1.27,0,0,1,.61.46,1.09,1.09,0,0,1,.21.67,1.19,1.19,0,0,1-.37.92,1.33,1.33,0,0,1-1,.35,1.29,1.29,0,0,1-.82-.25,1.25,1.25,0,0,1-.45-.71l.45-.22a1.11,1.11,0,0,0,.3.57.73.73,0,0,0,.52.19.84.84,0,0,0,.6-.21.74.74,0,0,0,.23-.56.75.75,0,0,0-.16-.48,1.3,1.3,0,0,0-.48-.35l-.51-.21a1.39,1.39,0,0,1-.61-.45,1,1,0,0,1-.2-.65,1,1,0,0,1,.32-.73,1.24,1.24,0,0,1,.84-.28,1.33,1.33,0,0,1,.65.15,1.13,1.13,0,0,1,.42.47l-.4.26a1.14,1.14,0,0,0-.32-.36.7.7,0,0,0-.38-.11.61.61,0,0,0-.46.17.55.55,0,0,0-.18.43.57.57,0,0,0,.14.38,1.19,1.19,0,0,0,.42.29Z"/><path class="cls-3" d="M19.66,21.1h-.48v-.36h.48v-1h.45v1h.47v.36h-.47v2.23h-.45Z"/><path class="cls-3" d="M23.5,20.74v2.59h-.43v-.47a1.28,1.28,0,0,1-.4.43,1,1,0,0,1-.54.15,1.14,1.14,0,0,1-.9-.39,1.44,1.44,0,0,1-.34-1,1.49,1.49,0,0,1,.33-1,1.13,1.13,0,0,1,.89-.38,1,1,0,0,1,.56.15,1.09,1.09,0,0,1,.39.43v-.48Zm-.43,1.32a1,1,0,0,0-.24-.71.8.8,0,0,0-.63-.27.79.79,0,0,0-.62.25,1,1,0,0,0-.22.69,1.05,1.05,0,0,0,.22.72.81.81,0,0,0,.64.25.8.8,0,0,0,.62-.24A1,1,0,0,0,23.07,22.06Z"/><path class="cls-3" d="M24.39,23.33V20.74h.39v.54a1.46,1.46,0,0,1,.38-.49.86.86,0,0,1,.49-.14h.15l.15,0-.15.4-.14,0h-.13a.6.6,0,0,0-.53.25,1.34,1.34,0,0,0-.17.76v1.27Z"/><path class="cls-3" d="M26.48,21.1H26v-.36h.47v-1h.46v1h.47v.36h-.47v2.23h-.46Z"/><path class="cls-3" d="M29.49,19.09h.39l-2,4.77h-.38Z"/><path class="cls-3" d="M30.38,23.33V19.19h2.18v.44H30.87v1.19h1.69v.46H30.87v2Z"/><path class="cls-3" d="M33.08,19.49a.3.3,0,0,1,.1-.23.32.32,0,0,1,.23-.09.33.33,0,0,1,.23.09.36.36,0,0,1,.09.24.31.31,0,0,1-.09.22.34.34,0,0,1-.23.1.33.33,0,0,1-.23-.1A.29.29,0,0,1,33.08,19.49Zm.11,3.84V20.74h.44v2.59Z"/><path class="cls-3" d="M34.57,23.33V20.74H35v.4a1,1,0,0,1,.4-.37,1.21,1.21,0,0,1,.55-.13,1,1,0,0,1,.71.25.89.89,0,0,1,.26.67v1.77h-.45V21.8a.85.85,0,0,0-.17-.58.63.63,0,0,0-.51-.19.86.86,0,0,0-.36.07.68.68,0,0,0-.27.2.55.55,0,0,0-.12.24A2.2,2.2,0,0,0,35,22v1.34Z"/><path class="cls-3" d="M37.71,19.49a.3.3,0,0,1,.1-.23.32.32,0,0,1,.23-.09.33.33,0,0,1,.23.09.36.36,0,0,1,.09.24.31.31,0,0,1-.09.22.34.34,0,0,1-.23.1.33.33,0,0,1-.23-.1A.29.29,0,0,1,37.71,19.49Zm.11,3.84V20.74h.44v2.59Z"/><path class="cls-3" d="M38.92,22.89l.38-.25a.82.82,0,0,0,.27.31.81.81,0,0,0,.39.1.54.54,0,0,0,.35-.11.34.34,0,0,0,.14-.28.32.32,0,0,0-.09-.23.94.94,0,0,0-.32-.16l-.07,0c-.63-.22-.95-.49-.95-.81a.73.73,0,0,1,.26-.57,1,1,0,0,1,.66-.22,1.18,1.18,0,0,1,.58.14.74.74,0,0,1,.34.38l-.36.22a.56.56,0,0,0-.23-.27.63.63,0,0,0-.36-.1.48.48,0,0,0-.32.11.35.35,0,0,0-.12.28c0,.16.17.29.51.4l.16,0a1.46,1.46,0,0,1,.58.31.65.65,0,0,1,.17.46.76.76,0,0,1-.26.6,1,1,0,0,1-.69.23,1.28,1.28,0,0,1-.61-.14A1,1,0,0,1,38.92,22.89Z"/><path class="cls-3" d="M41.56,23.33V18.94H42v2.2a1,1,0,0,1,.4-.37,1.2,1.2,0,0,1,.54-.13,1,1,0,0,1,.72.25.89.89,0,0,1,.26.67v1.77h-.46V21.8a.86.86,0,0,0-.16-.58.63.63,0,0,0-.51-.19.86.86,0,0,0-.36.07.68.68,0,0,0-.27.2.55.55,0,0,0-.12.24A2,2,0,0,0,42,22v1.34Z"/><rect class="cls-4" x="61.88" y="13.46" width="48.56" height="17.28"/><path class="cls-3" d="M81,22.05V23.9h-.48V19.76h.86a3.62,3.62,0,0,1,.68,0,1.12,1.12,0,0,1,.37.16,1,1,0,0,1,.31.39,1.33,1.33,0,0,1,.11.54,1.42,1.42,0,0,1-.11.55,1.1,1.1,0,0,1-.31.39,1.12,1.12,0,0,1-.37.16,3.62,3.62,0,0,1-.68.05H81Zm0-.45h.25a1.66,1.66,0,0,0,.85-.15.6.6,0,0,0,.22-.52.66.66,0,0,0-.23-.56,1.62,1.62,0,0,0-.84-.16H81Z"/><path class="cls-3" d="M85.55,21.32V23.9h-.43v-.47a1.22,1.22,0,0,1-.4.44,1.09,1.09,0,0,1-.54.14,1.14,1.14,0,0,1-.9-.38,1.44,1.44,0,0,1-.34-1,1.49,1.49,0,0,1,.33-1,1.11,1.11,0,0,1,.88-.38,1.05,1.05,0,0,1,.57.15,1,1,0,0,1,.38.43v-.48Zm-.43,1.31a1,1,0,0,0-.24-.7.8.8,0,0,0-.63-.27.79.79,0,0,0-.62.25,1,1,0,0,0-.22.68,1.06,1.06,0,0,0,.22.73.8.8,0,0,0,.64.25.81.81,0,0,0,.62-.24A1,1,0,0,0,85.12,22.63Z"/><path class="cls-3" d="M88.84,21.32v2.54a2.11,2.11,0,0,1-.06.6.85.85,0,0,1-.18.32,1.06,1.06,0,0,1-.45.29,1.79,1.79,0,0,1-.6.1,1.39,1.39,0,0,1-.91-.27,1,1,0,0,1-.35-.76h.5v0a.56.56,0,0,0,.2.45.86.86,0,0,0,.57.16,1,1,0,0,0,.45-.09.65.65,0,0,0,.29-.25.57.57,0,0,0,.08-.23,1.6,1.6,0,0,0,0-.36v-.44a1.09,1.09,0,0,1-.39.43,1,1,0,0,1-.55.15,1.17,1.17,0,0,1-.9-.38,1.5,1.5,0,0,1-.34-1,1.48,1.48,0,0,1,.33-1,1.16,1.16,0,0,1,.89-.37,1,1,0,0,1,.56.15,1,1,0,0,1,.39.43v-.48Zm-.43,1.3a1,1,0,0,0-.24-.7.78.78,0,0,0-.62-.27.76.76,0,0,0-.62.25,1,1,0,0,0-.23.68,1.06,1.06,0,0,0,.23.73.8.8,0,0,0,.64.25.79.79,0,0,0,.62-.25A1,1,0,0,0,88.41,22.62Z"/><path class="cls-3" d="M92.05,22.68H90v0a1,1,0,0,0,.23.67.81.81,0,0,0,.62.25.77.77,0,0,0,.47-.14,1.1,1.1,0,0,0,.37-.42l.34.23a1.27,1.27,0,0,1-1.2.7,1.24,1.24,0,0,1-1-.39,1.41,1.41,0,0,1-.37-1,1.43,1.43,0,0,1,.36-1,1.24,1.24,0,0,1,.93-.38,1.17,1.17,0,0,1,.91.36,1.42,1.42,0,0,1,.34,1Zm-.48-.36a.71.71,0,0,0-.23-.53.81.81,0,0,0-.56-.19.76.76,0,0,0-.53.2.74.74,0,0,0-.25.52Z"/><rect class="cls-5" x="117.8" y="13.46" width="48.56" height="17.28"/><path class="cls-4" d="M132.11,21.6a1.41,1.41,0,0,1,.61.46,1.12,1.12,0,0,1,.21.68,1.19,1.19,0,0,1-.37.92,1.33,1.33,0,0,1-1,.35,1.22,1.22,0,0,1-1.27-1l.45-.22a1.11,1.11,0,0,0,.3.57.73.73,0,0,0,.52.19.84.84,0,0,0,.6-.21.8.8,0,0,0,.07-1,1.3,1.3,0,0,0-.48-.35l-.51-.21a1.47,1.47,0,0,1-.61-.45,1,1,0,0,1-.2-.65,1,1,0,0,1,.32-.73,1.24,1.24,0,0,1,.84-.29,1.33,1.33,0,0,1,.65.16,1.07,1.07,0,0,1,.42.47l-.4.26a1.26,1.26,0,0,0-.31-.36.69.69,0,0,0-.39-.12.65.65,0,0,0-.46.17.59.59,0,0,0-.18.44.59.59,0,0,0,.14.38,1.06,1.06,0,0,0,.42.28Z"/><path class="cls-4" d="M133.61,21.68h-.48v-.36h.48V20.27h.45v1.05h.47v.36h-.47V23.9h-.45Z"/><path class="cls-4" d="M137.35,22.68h-2v0a1,1,0,0,0,.23.67.82.82,0,0,0,.63.25.74.74,0,0,0,.46-.14,1.1,1.1,0,0,0,.37-.42l.34.23a1.27,1.27,0,0,1-1.2.7,1.24,1.24,0,0,1-.95-.39,1.41,1.41,0,0,1-.37-1,1.43,1.43,0,0,1,.36-1,1.24,1.24,0,0,1,.93-.38,1.17,1.17,0,0,1,.91.36,1.42,1.42,0,0,1,.34,1Zm-.48-.36a.74.74,0,0,0-.22-.53.85.85,0,0,0-.57-.19.76.76,0,0,0-.53.2.74.74,0,0,0-.25.52Z"/><path class="cls-4" d="M138,25.17V21.32h.42v.48a1.16,1.16,0,0,1,.39-.43,1.06,1.06,0,0,1,.55-.15,1.14,1.14,0,0,1,.9.38,1.72,1.72,0,0,1,0,2,1.13,1.13,0,0,1-.89.37,1,1,0,0,1-.56-.14,1.05,1.05,0,0,1-.39-.44v1.74Zm.42-2.55a1,1,0,0,0,.24.7.85.85,0,0,0,.64.26.79.79,0,0,0,.61-.24.93.93,0,0,0,.22-.67,1.14,1.14,0,0,0-.22-.75.77.77,0,0,0-.62-.27.84.84,0,0,0-.64.26A1,1,0,0,0,138.44,22.62Z"/><path class="cls-4" d="M142.9,19.67h.39l-2,4.77h-.38Z"/><path class="cls-4" d="M144.51,23.9V20.23h-1.17v-.47h2.84v.47H145V23.9Z"/><path class="cls-4" d="M148.4,21.32V23.9H148v-.47a1.07,1.07,0,0,1-.4.44A1.09,1.09,0,0,1,147,24a1.14,1.14,0,0,1-.9-.38,1.71,1.71,0,0,1,0-2,1.15,1.15,0,0,1,.89-.38,1,1,0,0,1,.56.15,1.09,1.09,0,0,1,.39.43v-.48ZM148,22.63a1,1,0,0,0-.24-.7.78.78,0,0,0-.62-.27.77.77,0,0,0-.62.25,1,1,0,0,0-.23.68,1.06,1.06,0,0,0,.23.73.8.8,0,0,0,.64.25.81.81,0,0,0,.62-.24A1,1,0,0,0,148,22.63Z"/><path class="cls-4" d="M149,23.47l.38-.26a.75.75,0,0,0,.27.31.71.71,0,0,0,.39.11.54.54,0,0,0,.35-.11.35.35,0,0,0,.14-.28.32.32,0,0,0-.09-.23.94.94,0,0,0-.32-.17l-.07,0c-.63-.22-.95-.49-.95-.82a.71.71,0,0,1,.26-.56,1,1,0,0,1,.66-.22,1.18,1.18,0,0,1,.58.14.74.74,0,0,1,.34.38l-.36.22a.63.63,0,0,0-.23-.28.71.71,0,0,0-.36-.09.43.43,0,0,0-.32.11.35.35,0,0,0-.12.28c0,.15.17.29.51.39l.16.05a1.46,1.46,0,0,1,.58.31.65.65,0,0,1,.17.46.78.78,0,0,1-.26.6A1,1,0,0,1,150,24a1.28,1.28,0,0,1-.61-.13A1,1,0,0,1,149,23.47Z"/><path class="cls-4" d="M151.65,23.9V19.52h.45v3l1.24-1.17h.59l-1.29,1.18,1.41,1.4h-.62l-1.33-1.36V23.9Z"/><path class="cls-4" d="M6.36,5.71V2.28h.55V5.21H8.16v.5Z"/><path class="cls-4" d="M8.61,5.71V2.28h1.92v.47H9.17v.86h1.36V4.1H9.17V5.21h1.36v.5Z"/><path class="cls-4" d="M13.07,4h1.36v.1c0,.11,0,.19,0,.23A1.48,1.48,0,0,1,14,5.4a1.58,1.58,0,0,1-1.17.4,2.19,2.19,0,0,1-.75-.12,1.72,1.72,0,0,1-.58-.38,1.6,1.6,0,0,1-.37-.58A1.88,1.88,0,0,1,11,4a1.88,1.88,0,0,1,.13-.72,1.7,1.7,0,0,1,.39-.57,1.76,1.76,0,0,1,.59-.38,2.18,2.18,0,0,1,.72-.13,1.59,1.59,0,0,1,1.3.6l-.41.31a1,1,0,0,0-.39-.3,1.13,1.13,0,0,0-.49-.1,1.23,1.23,0,0,0-.91.36A1.29,1.29,0,0,0,11.6,4a1.3,1.3,0,0,0,.35.94,1.24,1.24,0,0,0,.92.36,1.14,1.14,0,0,0,.75-.22.75.75,0,0,0,.27-.61v0h-.82Z"/><path class="cls-4" d="M15,5.71V2.28h1.92v.47H15.58v.86h1.36V4.1H15.58V5.21h1.36v.5Z"/><path class="cls-4" d="M17.58,5.71V2.14l2.18,2.1.18.19.19.23V2.28h.52V5.84L18.42,3.71l-.17-.18a1.66,1.66,0,0,1-.16-.21V5.71Z"/><path class="cls-4" d="M21.43,5.71V2.28h.76a5,5,0,0,1,1,.07,1.48,1.48,0,0,1,.52.25,1.43,1.43,0,0,1,.45.58,1.94,1.94,0,0,1,.16.82,1.92,1.92,0,0,1-.16.81,1.43,1.43,0,0,1-.45.58,1.35,1.35,0,0,1-.51.25,3.9,3.9,0,0,1-.89.07h-.91Zm.56-.5h.47a2.69,2.69,0,0,0,.58,0A1,1,0,0,0,23.38,5a1.09,1.09,0,0,0,.29-.41,1.72,1.72,0,0,0,.1-.58,1.61,1.61,0,0,0-.1-.57A1.06,1.06,0,0,0,23.38,3,.88.88,0,0,0,23,2.83a3.21,3.21,0,0,0-.64-.05H22Z"/><polygon class="cls-5" points="204.21 38.12 173.71 22.1 204.21 6.09 234.7 22.1 204.21 38.12"/><path class="cls-4" d="M194,23.9V19.76h.8a5.8,5.8,0,0,1,1.24.09,1.67,1.67,0,0,1,.63.3,1.7,1.7,0,0,1,.54.7,2.65,2.65,0,0,1,0,2,1.77,1.77,0,0,1-.54.7,1.63,1.63,0,0,1-.62.3,5.45,5.45,0,0,1-1.07.08h-1Zm.5-.46h.31a5.05,5.05,0,0,0,1.06-.07,1.17,1.17,0,0,0,.49-.22,1.45,1.45,0,0,0,.39-.55,2,2,0,0,0,.13-.77,2,2,0,0,0-.13-.76,1.38,1.38,0,0,0-.39-.55,1.06,1.06,0,0,0-.5-.23,5.06,5.06,0,0,0-1.05-.07h-.31Z"/><path class="cls-4" d="M200.44,22.68h-2.05v0a1,1,0,0,0,.23.67.81.81,0,0,0,.62.25.77.77,0,0,0,.47-.14,1.1,1.1,0,0,0,.37-.42l.34.23a1.27,1.27,0,0,1-1.2.7,1.24,1.24,0,0,1-.95-.39,1.41,1.41,0,0,1-.37-1,1.43,1.43,0,0,1,.36-1,1.24,1.24,0,0,1,.93-.38,1.17,1.17,0,0,1,.91.36,1.42,1.42,0,0,1,.34,1Zm-.48-.36a.74.74,0,0,0-.22-.53.85.85,0,0,0-.57-.19.76.76,0,0,0-.53.2.74.74,0,0,0-.25.52Z"/><path class="cls-4" d="M203.09,23.29v.52a1.66,1.66,0,0,1-.39.15,1.86,1.86,0,0,1-.48.05,1.24,1.24,0,0,1-1-.38,1.34,1.34,0,0,1-.37-1,1.41,1.41,0,0,1,.38-1,1.27,1.27,0,0,1,1-.4,2,2,0,0,1,.42.05,1.63,1.63,0,0,1,.39.13v.48a1.41,1.41,0,0,0-.35-.17,1.24,1.24,0,0,0-.37-.06.93.93,0,0,0-.7.27,1,1,0,0,0-.26.73.91.91,0,0,0,.26.67.93.93,0,0,0,.66.26,1.09,1.09,0,0,0,.4-.07A1.46,1.46,0,0,0,203.09,23.29Z"/><path class="cls-4" d="M203.63,20.07a.33.33,0,0,1,.55-.23.33.33,0,0,1,.09.23.32.32,0,1,1-.64,0Zm.1,3.83V21.32h.45V23.9Z"/><path class="cls-4" d="M204.84,23.47l.38-.26a.75.75,0,0,0,.27.31.7.7,0,0,0,.38.11.57.57,0,0,0,.36-.11.34.34,0,0,0,.13-.28.32.32,0,0,0-.09-.23.85.85,0,0,0-.32-.17l-.07,0c-.63-.22-.94-.49-.94-.82a.7.7,0,0,1,.25-.56,1,1,0,0,1,.66-.22,1.16,1.16,0,0,1,.58.14.74.74,0,0,1,.34.38l-.36.22a.63.63,0,0,0-.23-.28.69.69,0,0,0-.36-.09.41.41,0,0,0-.31.11.33.33,0,0,0-.13.28c0,.15.17.29.52.39l.15.05a1.51,1.51,0,0,1,.59.31.65.65,0,0,1,.16.46.78.78,0,0,1-.26.6,1,1,0,0,1-.68.22,1.32,1.32,0,0,1-.62-.13A1,1,0,0,1,204.84,23.47Z"/><path class="cls-4" d="M207.39,20.07a.32.32,0,0,1,.09-.23.33.33,0,0,1,.23-.09.32.32,0,0,1,.23.09.33.33,0,0,1,.09.23.31.31,0,0,1-.32.32.33.33,0,0,1-.23-.09A.32.32,0,0,1,207.39,20.07Zm.1,3.83V21.32h.45V23.9Z"/><path class="cls-4" d="M208.66,22.62a1.41,1.41,0,0,1,.11-.54,1.36,1.36,0,0,1,.76-.75,1.38,1.38,0,0,1,1.08,0,1.52,1.52,0,0,1,.46.3,1.37,1.37,0,0,1,.3.45,1.41,1.41,0,0,1,.11.54,1.42,1.42,0,0,1-.41,1,1.55,1.55,0,0,1-.46.31,1.44,1.44,0,0,1-.54.1,1.4,1.4,0,0,1-.54-.1,1.38,1.38,0,0,1-.46-.31,1.37,1.37,0,0,1-.3-.45A1.32,1.32,0,0,1,208.66,22.62Zm.47,0a.94.94,0,0,0,.28.69.9.9,0,0,0,1.32,0,1,1,0,0,0,0-1.39.92.92,0,0,0-1.32,0A.94.94,0,0,0,209.13,22.62Z"/><path class="cls-4" d="M212.17,23.9V21.32h.43v.39a1.27,1.27,0,0,1,.4-.37,1.19,1.19,0,0,1,.54-.12,1,1,0,0,1,.72.25.87.87,0,0,1,.26.67V23.9h-.45V22.38a.85.85,0,0,0-.17-.58.63.63,0,0,0-.51-.2.86.86,0,0,0-.36.08.6.6,0,0,0-.27.2.57.57,0,0,0-.12.23,2.39,2.39,0,0,0,0,.46V23.9Z"/><path class="cls-4" d="M255.6,17.56v-1.9l-1.4-2.25h.57l1.08,1.8,1.08-1.8h.56l-1.4,2.25v1.9Z"/><path class="cls-4" d="M259.63,16.33h-2.05v0a1,1,0,0,0,.24.67.81.81,0,0,0,.62.26.86.86,0,0,0,.47-.14,1.33,1.33,0,0,0,.37-.43l.33.23a1.35,1.35,0,0,1-.5.53,1.33,1.33,0,0,1-.7.18,1.24,1.24,0,0,1-1-.39,1.43,1.43,0,0,1-.37-1,1.39,1.39,0,0,1,.36-1,1.24,1.24,0,0,1,.94-.39,1.13,1.13,0,0,1,.9.37,1.39,1.39,0,0,1,.34,1Zm-.47-.36a.81.81,0,0,0-.23-.53.84.84,0,0,0-.56-.18.76.76,0,0,0-.54.19.78.78,0,0,0-.25.52Z"/><path class="cls-4" d="M260,17.12l.38-.26a.69.69,0,0,0,.27.31.71.71,0,0,0,.39.11.54.54,0,0,0,.35-.11.35.35,0,0,0,.14-.28.32.32,0,0,0-.09-.23,1.15,1.15,0,0,0-.32-.17l-.07,0c-.63-.22-.95-.49-.95-.81a.72.72,0,0,1,.26-.57,1,1,0,0,1,.66-.22,1.18,1.18,0,0,1,.58.14.74.74,0,0,1,.34.38l-.36.22a.63.63,0,0,0-.23-.28.69.69,0,0,0-.36-.09.48.48,0,0,0-.32.11.35.35,0,0,0-.12.28c0,.15.17.29.51.4l.16,0a1.46,1.46,0,0,1,.58.31.65.65,0,0,1,.17.46.76.76,0,0,1-.26.6,1,1,0,0,1-.69.23,1.28,1.28,0,0,1-.61-.14A1,1,0,0,1,260,17.12Z"/><path class="cls-4" d="M254.8,30.25V26l3,3.31V26.11h.47v4.3l-3-3.27v3.11Z"/><path class="cls-4" d="M259,29a1.32,1.32,0,0,1,.1-.53,1.38,1.38,0,0,1,.31-.46,1.37,1.37,0,0,1,.45-.3,1.63,1.63,0,0,1,.55-.1,1.61,1.61,0,0,1,.53.1,1.55,1.55,0,0,1,.46.31,1.42,1.42,0,0,1,.31,1.52,1.47,1.47,0,0,1-.31.44,1.38,1.38,0,0,1-.46.31,1.23,1.23,0,0,1-.53.11,1.45,1.45,0,0,1-.55-.1,1.39,1.39,0,0,1-.45-.31,1.25,1.25,0,0,1-.31-.45A1.37,1.37,0,0,1,259,29Zm.47,0a1,1,0,0,0,.27.7.89.89,0,0,0,.67.28.9.9,0,0,0,.66-.28,1,1,0,0,0,0-1.39.9.9,0,0,0-.66-.28.88.88,0,0,0-.67.28A1,1,0,0,0,259.51,29Z"/><circle class="cls-6" cx="246.25" cy="28.45" r="4.19"/><path class="cls-4" d="M244.77,30.2V26.56l2.56,2.8V26.7h.4v3.64l-2.56-2.77V30.2Z"/><circle class="cls-6" cx="246.25" cy="15.75" r="4.19"/><path class="cls-4" d="M246,17.68V16.07l-1.19-1.9h.49l.91,1.52.91-1.52h.48l-1.18,1.9v1.61Z"/><path class="cls-7" d="M270.54,0H270V1h.5V0Zm-1,0H269V1h.5V0Zm-1,0H268V1h.5V0Zm-1,0H267V1h.5V0Zm-1,0H266V1h.5V0Zm-1,0H265V1h.5V0Zm-1,0H264V1h.5V0Zm-1,0H263V1h.5V0Zm-1,0H262V1h.5V0Zm-1,0H261V1h.5V0Zm-1,0H260V1h.5V0Zm-1,0H259V1h.5V0Zm-1,0H258V1h.5V0Zm-1,0H257V1h.5V0Zm-1,0H256V1h.5V0Zm-1,0H255V1h.5V0Zm-1,0H254V1h.5V0Zm-1,0H253V1h.5V0Zm-1,0H252V1h.5V0Zm-1,0H251V1h.5V0Zm-1,0H250V1h.5V0Zm-1,0H249V1h.5V0Zm-1,0H248V1h.5V0Zm-1,0H247V1h.5V0Zm-1,0H246V1h.5V0Zm-1,0H245V1h.5V0Zm-1,0H244V1h.5V0Zm-1,0H243V1h.5V0Zm-1,0H242V1h.5V0Zm-1,0H241V1h.5V0Zm-1,0H240V1h.5V0Zm-1,0H239V1h.5V0Zm-1,0H238V1h.5V0Zm-1,0H237V1h.5V0Zm-1,0H236V1h.5V0Zm-1,0H235V1h.5V0Zm-1,0H234V1h.5V0Zm-1,0H233V1h.5V0Zm-1,0H232V1h.5V0Zm-1,0H231V1h.5V0Zm-1,0H230V1h.5V0Zm-1,0H229V1h.5V0Zm-1,0H228V1h.5V0Zm-1,0H227V1h.5V0Zm-1,0H226V1h.5V0Zm-1,0H225V1h.5V0Zm-1,0H224V1h.5V0Zm-1,0H223V1h.5V0Zm-1,0H222V1h.5V0Zm-1,0H221V1h.5V0Zm-1,0H220V1h.5V0Zm-1,0H219V1h.5V0Zm-1,0H218V1h.5V0Zm-1,0H217V1h.5V0Zm-1,0H216V1h.5V0Zm-1,0H215V1h.5V0Zm-1,0H214V1h.5V0Zm-1,0H213V1h.5V0Zm-1,0H212V1h.5V0Zm-1,0H211V1h.5V0Zm-1,0H210V1h.5V0Zm-1,0H209V1h.5V0Zm-1,0H208V1h.5V0Zm-1,0H207V1h.5V0Zm-1,0H206V1h.5V0Zm-1,0H205V1h.5V0Zm-1,0H204V1h.5V0Zm-1,0H203V1h.5V0Zm-1,0H202V1h.5V0Zm-1,0H201V1h.5V0Zm-1,0H200V1h.5V0Zm-1,0H199V1h.5V0Zm-1,0H198V1h.5V0Zm-1,0H197V1h.5V0Zm-1,0H196V1h.5V0Zm-1,0H195V1h.5V0Zm-1,0H194V1h.5V0Zm-1,0H193V1h.5V0Zm-1,0H192V1h.5V0Zm-1,0H191V1h.5V0Zm-1,0H190V1h.5V0Zm-1,0H189V1h.5V0Zm-1,0H188V1h.5V0Zm-1,0H187V1h.5V0Zm-1,0H186V1h.5V0Zm-1,0H185V1h.5V0Zm-1,0H184V1h.5V0Zm-1,0H183V1h.5V0Zm-1,0H182V1h.5V0Zm-1,0H181V1h.5V0Zm-1,0H180V1h.5V0Zm-1,0H179V1h.5V0Zm-1,0H178V1h.5V0Zm-1,0H177V1h.5V0Zm-1,0H176V1h.5V0Zm-1,0H175V1h.5V0Zm-1,0H174V1h.5V0Zm-1,0H173V1h.5V0Zm-1,0H172V1h.5V0Zm-1,0H171V1h.5V0Zm-1,0H170V1h.5V0Zm-1,0H169V1h.5V0Zm-1,0H168V1h.5V0Zm-1,0H167V1h.5V0Zm-1,0H166V1h.5V0Zm-1,0H165V1h.5V0Zm-1,0H164V1h.5V0Zm-1,0H163V1h.5V0Zm-1,0H162V1h.5V0Zm-1,0H161V1h.5V0Zm-1,0H160V1h.5V0Zm-1,0H159V1h.5V0Zm-1,0H158V1h.5V0Zm-1,0H157V1h.5V0Zm-1,0H156V1h.5V0Zm-1,0H155V1h.5V0Zm-1,0H154V1h.5V0Zm-1,0H153V1h.5V0Zm-1,0H152V1h.5V0Zm-1,0H151V1h.5V0Zm-1,0H150V1h.5V0Zm-1,0H149V1h.5V0Zm-1,0H148V1h.5V0Zm-1,0H147V1h.5V0Zm-1,0H146V1h.5V0Zm-1,0H145V1h.5V0Zm-1,0H144V1h.5V0Zm-1,0H143V1h.5V0Zm-1,0H142V1h.5V0Zm-1,0H141V1h.5V0Zm-1,0H140V1h.5V0Zm-1,0H139V1h.5V0Zm-1,0H138V1h.5V0Zm-1,0H137V1h.5V0Zm-1,0H136V1h.5V0Zm-1,0H135V1h.5V0Zm-1,0H134V1h.5V0Zm-1,0H133V1h.5V0Zm-1,0H132V1h.5V0Zm-1,0H131V1h.5V0Zm-1,0H130V1h.5V0Zm-1,0H129V1h.5V0Zm-1,0H128V1h.5V0Zm-1,0H127V1h.5V0Zm-1,0H126V1h.5V0Zm-1,0H125V1h.5V0Zm-1,0H124V1h.5V0Zm-1,0H123V1h.5V0Zm-1,0H122V1h.5V0Zm-1,0H121V1h.5V0Zm-1,0H120V1h.5V0Zm-1,0H119V1h.5V0Zm-1,0H118V1h.5V0Zm-1,0H117V1h.5V0Zm-1,0H116V1h.5V0Zm-1,0H115V1h.5V0Zm-1,0H114V1h.5V0Zm-1,0H113V1h.5V0Zm-1,0H112V1h.5V0Zm-1,0H111V1h.5V0Zm-1,0H110V1h.5V0Zm-1,0H109V1h.5V0Zm-1,0H108V1h.5V0Zm-1,0H107V1h.5V0Zm-1,0H106V1h.5V0Zm-1,0H105V1h.5V0Zm-1,0H104V1h.5V0Zm-1,0H103V1h.5V0Zm-1,0H102V1h.5V0Zm-1,0H101V1h.5V0Zm-1,0H100V1h.5V0Zm-1,0H99V1h.5V0Zm-1,0H98V1h.5V0Zm-1,0H97V1h.5V0Zm-1,0H96V1h.5V0Zm-1,0H95V1h.5V0Zm-1,0H94V1h.5V0Zm-1,0H93V1h.5V0Zm-1,0H92V1h.5V0Zm-1,0H91V1h.5V0Zm-1,0H90V1h.5V0Zm-1,0H89V1h.5V0Zm-1,0H88V1h.5V0Zm-1,0H87V1h.5V0Zm-1,0H86V1h.5V0Zm-1,0H85V1h.5V0Zm-1,0H84V1h.5V0Zm-1,0H83V1h.5V0Zm-1,0H82V1h.5V0Zm-1,0H81V1h.5V0Zm-1,0H80V1h.5V0Zm-1,0H79V1h.5V0Zm-1,0H78V1h.5V0Zm-1,0H77V1h.5V0Zm-1,0H76V1h.5V0Zm-1,0H75V1h.5V0Zm-1,0H74V1h.5V0Zm-1,0H73V1h.5V0Zm-1,0H72V1h.5V0Zm-1,0H71V1h.5V0Zm-1,0H70V1h.5V0Zm-1,0H69V1h.5V0Zm-1,0H68V1h.5V0Zm-1,0H67V1h.5V0Zm-1,0H66V1h.5V0Zm-1,0H65V1h.5V0Zm-1,0H64V1h.5V0Zm-1,0H63V1h.5V0Zm-1,0H62V1h.5V0Zm-1,0H61V1h.5V0Zm-1,0H60V1h.5V0Zm-1,0H59V1h.5V0Zm-1,0H58V1h.5V0Zm-1,0H57V1h.5V0Zm-1,0H56V1h.5V0Zm-1,0H55V1h.5V0Zm-1,0H54V1h.5V0Zm-1,0H53V1h.5V0Zm-1,0H52V1h.5V0Zm-1,0H51V1h.5V0Zm-1,0H50V1h.5V0Zm-1,0H49V1h.5V0Zm-1,0H48V1h.5V0Zm-1,0H47V1h.5V0Zm-1,0H46V1h.5V0Zm-1,0H45V1h.5V0Zm-1,0H44V1h.5V0Zm-1,0H43V1h.5V0Zm-1,0H42V1h.5V0Zm-1,0H41V1h.5V0Zm-1,0H40V1h.5V0Zm-1,0H39V1h.5V0Zm-1,0H38V1h.5V0Zm-1,0H37V1h.5V0Zm-1,0H36V1h.5V0Zm-1,0H35V1h.5V0Zm-1,0H34V1h.5V0Zm-1,0H33V1h.5V0Zm-1,0H32V1h.5V0Zm-1,0H31V1h.5V0Zm-1,0H30V1h.5V0Zm-1,0H29V1h.5V0Zm-1,0H28V1h.5V0Zm-1,0H27V1h.5V0Zm-1,0H26V1h.5V0Zm-1,0H25V1h.5V0Zm-1,0H24V1h.5V0Zm-1,0H23V1h.5V0Zm-1,0H22V1h.5V0Zm-1,0H21V1h.5V0Zm-1,0H20V1h.5V0Zm-1,0H19V1h.5V0Zm-1,0H18V1h.5V0Zm-1,0H17V1h.5V0Zm-1,0H16V1h.5V0Zm-1,0H15V1h.5V0Zm-1,0H14V1h.5V0Zm-1,0H13V1h.5V0Zm-1,0H12V1h.5V0Zm-1,0H11V1h.5V0Zm-1,0H10V1h.5V0Zm-1,0H9V1h.5V0Zm-1,0H8V1h.5V0Zm-1,0H7V1h.5V0Zm-1,0H6V1h.5V0Zm-1,0H5V1h.5V0Zm-1,0H4V1h.5V0Zm-1,0H3V1h.5V0Zm-1,0H2V1h.5V0Zm-1,0H1V1h.5V0Zm-1,0H0V.46H0V1H0V1h.5V1H1V.46H.54V0ZM1,1.46H0V2H1v-.5Zm0,1H0V3H1v-.5Zm0,1H0V4H1v-.5Zm0,1H0V5H1v-.5Zm0,1H0V6H1v-.5Zm0,1H0V7H1v-.5Zm0,1H0V8H1v-.5Zm0,1H0V9H1v-.5Zm0,1H0V10H1v-.5Zm0,1H0V11H1v-.5Zm0,1H0V12H1v-.5Zm0,1H0V13H1v-.5Zm0,1H0V14H1v-.5Zm0,1H0V15H1v-.5Zm0,1H0V16H1v-.5Zm0,1H0V17H1v-.5Zm0,1H0V18H1v-.5Zm0,1H0V19H1v-.5Zm0,1H0V20H1v-.5Zm0,1H0V21H1v-.5Zm0,1H0V22H1v-.5Zm0,1H0V23H1v-.5Zm0,1H0V24H1v-.5Zm0,1H0V25H1v-.5Zm0,1H0V26H1v-.5Zm0,1H0V27H1v-.5Zm0,1H0V28H1v-.5Zm0,1H0V29H1v-.5Zm0,1H0V30H1v-.5Zm0,1H0V31H1v-.5Zm0,1H0V32H1v-.5Zm0,1H0V33H1v-.5Zm0,1H0V34H1v-.5Zm0,1H0V35H1v-.5Zm0,1H0V36H1v-.5Zm0,1H0V37H1v-.5Zm0,1H0V38H1v-.5Zm0,1H0V39H1v-.5Zm0,1H0V40H1v-.5Zm0,1H0V41H1v-.5Zm0,1H0V42H1v-.5Zm-.15.65H.35v.35H0V43H.35v.15h.5V43H1v-.5H.85v-.35Zm1,0h-.5v1h.5v-1Zm1,0h-.5v1h.5v-1Zm1,0h-.5v1h.5v-1Zm1,0h-.5v1h.5v-1Zm1,0h-.5v1h.5v-1Zm1,0h-.5v1h.5v-1Zm1,0h-.5v1h.5v-1Zm1,0h-.5v1h.5v-1Zm1,0h-.5v1h.5v-1Zm1,0h-.5v1h.5v-1Zm1,0h-.5v1h.5v-1Zm1,0h-.5v1h.5v-1Zm1,0h-.5v1h.5v-1Zm1,0h-.5v1h.5v-1Zm1,0h-.5v1h.5v-1Zm1,0h-.5v1h.5v-1Zm1,0h-.5v1h.5v-1Zm1,0h-.5v1h.5v-1Zm1,0h-.5v1h.5v-1Zm1,0h-.5v1h.5v-1Zm1,0h-.5v1h.5v-1Zm1,0h-.5v1h.5v-1Zm1,0h-.5v1h.5v-1Zm1,0h-.5v1h.5v-1Zm1,0h-.5v1h.5v-1Zm1,0h-.5v1h.5v-1Zm1,0h-.5v1h.5v-1Zm1,0h-.5v1h.5v-1Zm1,0h-.5v1h.5v-1Zm1,0h-.5v1h.5v-1Zm1,0h-.5v1h.5v-1Zm1,0h-.5v1h.5v-1Zm1,0h-.5v1h.5v-1Zm1,0h-.5v1h.5v-1Zm1,0h-.5v1h.5v-1Zm1,0h-.5v1h.5v-1Zm1,0h-.5v1h.5v-1Zm1,0h-.5v1h.5v-1Zm1,0h-.5v1h.5v-1Zm1,0h-.5v1h.5v-1Zm1,0h-.5v1h.5v-1Zm1,0h-.5v1h.5v-1Zm1,0h-.5v1h.5v-1Zm1,0h-.5v1h.5v-1Zm1,0h-.5v1h.5v-1Zm1,0h-.5v1h.5v-1Zm1,0h-.5v1h.5v-1Zm1,0h-.5v1h.5v-1Zm1,0h-.5v1h.5v-1Zm1,0h-.5v1h.5v-1Zm1,0h-.5v1h.5v-1Zm1,0h-.5v1h.5v-1Zm1,0h-.5v1h.5v-1Zm1,0h-.5v1h.5v-1Zm1,0h-.5v1h.5v-1Zm1,0h-.5v1h.5v-1Zm1,0h-.5v1h.5v-1Zm1,0h-.5v1h.5v-1Zm1,0h-.5v1h.5v-1Zm1,0h-.5v1h.5v-1Zm1,0h-.5v1h.5v-1Zm1,0h-.5v1h.5v-1Zm1,0h-.5v1h.5v-1Zm1,0h-.5v1h.5v-1Zm1,0h-.5v1h.5v-1Zm1,0h-.5v1h.5v-1Zm1,0h-.5v1h.5v-1Zm1,0h-.5v1h.5v-1Zm1,0h-.5v1h.5v-1Zm1,0h-.5v1h.5v-1Zm1,0h-.5v1h.5v-1Zm1,0h-.5v1h.5v-1Zm1,0h-.5v1h.5v-1Zm1,0h-.5v1h.5v-1Zm1,0h-.5v1h.5v-1Zm1,0h-.5v1h.5v-1Zm1,0h-.5v1h.5v-1Zm1,0h-.5v1h.5v-1Zm1,0h-.5v1h.5v-1Zm1,0h-.5v1h.5v-1Zm1,0h-.5v1h.5v-1Zm1,0h-.5v1h.5v-1Zm1,0h-.5v1h.5v-1Zm1,0h-.5v1h.5v-1Zm1,0h-.5v1h.5v-1Zm1,0h-.5v1h.5v-1Zm1,0h-.5v1h.5v-1Zm1,0h-.5v1h.5v-1Zm1,0h-.5v1h.5v-1Zm1,0h-.5v1h.5v-1Zm1,0h-.5v1h.5v-1Zm1,0h-.5v1h.5v-1Zm1,0h-.5v1h.5v-1Zm1,0h-.5v1h.5v-1Zm1,0h-.5v1h.5v-1Zm1,0h-.5v1h.5v-1Zm1,0h-.5v1h.5v-1Zm1,0h-.5v1h.5v-1Zm1,0h-.5v1h.5v-1Zm1,0h-.5v1h.5v-1Zm1,0h-.5v1h.5v-1Zm1,0h-.5v1h.5v-1Zm1,0h-.5v1h.5v-1Zm1,0h-.5v1h.5v-1Zm1,0h-.5v1h.5v-1Zm1,0h-.5v1h.5v-1Zm1,0h-.5v1h.5v-1Zm1,0h-.5v1h.5v-1Zm1,0h-.5v1h.5v-1Zm1,0h-.5v1h.5v-1Zm1,0h-.5v1h.5v-1Zm1,0h-.5v1h.5v-1Zm1,0h-.5v1h.5v-1Zm1,0h-.5v1h.5v-1Zm1,0h-.5v1h.5v-1Zm1,0h-.5v1h.5v-1Zm1,0h-.5v1h.5v-1Zm1,0h-.5v1h.5v-1Zm1,0h-.5v1h.5v-1Zm1,0h-.5v1h.5v-1Zm1,0h-.5v1h.5v-1Zm1,0h-.5v1h.5v-1Zm1,0h-.5v1h.5v-1Zm1,0h-.5v1h.5v-1Zm1,0h-.5v1h.5v-1Zm1,0h-.5v1h.5v-1Zm1,0h-.5v1h.5v-1Zm1,0h-.5v1h.5v-1Zm1,0h-.5v1h.5v-1Zm1,0h-.5v1h.5v-1Zm1,0h-.5v1h.5v-1Zm1,0h-.5v1h.5v-1Zm1,0h-.5v1h.5v-1Zm1,0h-.5v1h.5v-1Zm1,0h-.5v1h.5v-1Zm1,0h-.5v1h.5v-1Zm1,0h-.5v1h.5v-1Zm1,0h-.5v1h.5v-1Zm1,0h-.5v1h.5v-1Zm1,0h-.5v1h.5v-1Zm1,0h-.5v1h.5v-1Zm1,0h-.5v1h.5v-1Zm1,0h-.5v1h.5v-1Zm1,0h-.5v1h.5v-1Zm1,0h-.5v1h.5v-1Zm1,0h-.5v1h.5v-1Zm1,0h-.5v1h.5v-1Zm1,0h-.5v1h.5v-1Zm1,0h-.5v1h.5v-1Zm1,0h-.5v1h.5v-1Zm1,0h-.5v1h.5v-1Zm1,0h-.5v1h.5v-1Zm1,0h-.5v1h.5v-1Zm1,0h-.5v1h.5v-1Zm1,0h-.5v1h.5v-1Zm1,0h-.5v1h.5v-1Zm1,0h-.5v1h.5v-1Zm1,0h-.5v1h.5v-1Zm1,0h-.5v1h.5v-1Zm1,0h-.5v1h.5v-1Zm1,0h-.5v1h.5v-1Zm1,0h-.5v1h.5v-1Zm1,0h-.5v1h.5v-1Zm1,0h-.5v1h.5v-1Zm1,0h-.5v1h.5v-1Zm1,0h-.5v1h.5v-1Zm1,0h-.5v1h.5v-1Zm1,0h-.5v1h.5v-1Zm1,0h-.5v1h.5v-1Zm1,0h-.5v1h.5v-1Zm1,0h-.5v1h.5v-1Zm1,0h-.5v1h.5v-1Zm1,0h-.5v1h.5v-1Zm1,0h-.5v1h.5v-1Zm1,0h-.5v1h.5v-1Zm1,0h-.5v1h.5v-1Zm1,0h-.5v1h.5v-1Zm1,0h-.5v1h.5v-1Zm1,0h-.5v1h.5v-1Zm1,0h-.5v1h.5v-1Zm1,0h-.5v1h.5v-1Zm1,0h-.5v1h.5v-1Zm1,0h-.5v1h.5v-1Zm1,0h-.5v1h.5v-1Zm1,0h-.5v1h.5v-1Zm1,0h-.5v1h.5v-1Zm1,0h-.5v1h.5v-1Zm1,0h-.5v1h.5v-1Zm1,0h-.5v1h.5v-1Zm1,0h-.5v1h.5v-1Zm1,0h-.5v1h.5v-1Zm1,0h-.5v1h.5v-1Zm1,0h-.5v1h.5v-1Zm1,0h-.5v1h.5v-1Zm1,0h-.5v1h.5v-1Zm1,0h-.5v1h.5v-1Zm1,0h-.5v1h.5v-1Zm1,0h-.5v1h.5v-1Zm1,0h-.5v1h.5v-1Zm1,0h-.5v1h.5v-1Zm1,0h-.5v1h.5v-1Zm1,0h-.5v1h.5v-1Zm1,0h-.5v1h.5v-1Zm1,0h-.5v1h.5v-1Zm1,0h-.5v1h.5v-1Zm1,0h-.5v1h.5v-1Zm1,0h-.5v1h.5v-1Zm1,0h-.5v1h.5v-1Zm1,0h-.5v1h.5v-1Zm1,0h-.5v1h.5v-1Zm1,0h-.5v1h.5v-1Zm1,0h-.5v1h.5v-1Zm1,0h-.5v1h.5v-1Zm1,0h-.5v1h.5v-1Zm1,0h-.5v1h.5v-1Zm1,0h-.5v1h.5v-1Zm1,0h-.5v1h.5v-1Zm1,0h-.5v1h.5v-1Zm1,0h-.5v1h.5v-1Zm1,0h-.5v1h.5v-1Zm1,0h-.5v1h.5v-1Zm1,0h-.5v1h.5v-1Zm1,0h-.5v1h.5v-1Zm1,0h-.5v1h.5v-1Zm1,0h-.5v1h.5v-1Zm1,0h-.5v1h.5v-1Zm1,0h-.5v1h.5v-1Zm1,0h-.5v1h.5v-1Zm1,0h-.5v1h.5v-1Zm1,0h-.5v1h.5v-1Zm1,0h-.5v1h.5v-1Zm1,0h-.5v1h.5v-1Zm1,0h-.5v1h.5v-1Zm1,0h-.5v1h.5v-1Zm1,0h-.5v1h.5v-1Zm1,0h-.5v1h.5v-1Zm1,0h-.5v1h.5v-1Zm1,0h-.5v1h.5v-1Zm1,0h-.5v1h.5v-1Zm1,0h-.5v1h.5v-1Zm1,0h-.5v1h.5v-1Zm1,0h-.5v1h.5v-1Zm1,0h-.5v1h.5v-1Zm1,0h-.5v1h.5v-1Zm1,0h-.5v1h.5v-1Zm1,0h-.5v1h.5v-1Zm1,0h-.5v1h.5v-1Zm1,0h-.5v1h.5v-1Zm1,0h-.5v1h.5v-1Zm1,0h-.5v1h.5v-1Zm1,0h-.5v1h.5v-1Zm1,0h-.5v1h.5v-1Zm1,0h-.5v1h.5v-1Zm1,0h-.5v1h.5v-1Zm1,0h-.5v1h.5v-1Zm1,0h-.5v1h.5v-1Zm1,0h-.5v1h.5v-1Zm1,0h-.5v1h.5v-1Zm1,0h-.5v1h.5v-1Zm1,0h-.5v1h.5v-1Zm1,0h-.5v1h.5v-1Zm1,0h-.5v1h.5v-1Zm1,0h-.5v1h.5v-1Zm1,0h-.5v1h.5v-1Zm1,0h-.5v1h.5v-1Zm1,0h-.5v1h.5v-1Zm1,0h-.5v1h.5v-1Zm1,0h-.5v1h.5v-1Zm1,0h-.5v1h.5v-1Zm1.69-.31h-1v.31h-.19v1h1.19V41.8Zm-.69.5h.5v.5h-.5v-.5Zm0,.81h0Zm.69-2.31h-1v.5h1v-.5Zm0-1h-1v.5h1v-.5Zm0-1h-1v.5h1v-.5Zm0-1h-1v.5h1v-.5Zm0-1h-1v.5h1v-.5Zm0-1h-1v.5h1v-.5Zm0-1h-1v.5h1v-.5Zm0-1h-1v.5h1v-.5Zm0-1h-1v.5h1v-.5Zm0-1h-1v.5h1v-.5Zm0-1h-1v.5h1v-.5Zm0-1h-1v.5h1v-.5Zm0-1h-1v.5h1v-.5Zm0-1h-1v.5h1v-.5Zm0-1h-1v.5h1v-.5Zm0-1h-1v.5h1v-.5Zm0-1h-1v.5h1v-.5Zm0-1h-1v.5h1v-.5Zm0-1h-1v.5h1v-.5Zm0-1h-1v.5h1v-.5Zm0-1h-1v.5h1v-.5Zm0-1h-1v.5h1v-.5Zm0-1h-1v.5h1v-.5Zm0-1h-1v.5h1v-.5Zm0-1h-1v.5h1v-.5Zm0-1h-1v.5h1v-.5Zm0-1h-1v.5h1v-.5Zm0-1h-1v.5h1v-.5Zm0-1h-1v.5h1v-.5Zm0-1h-1v.5h1v-.5Zm0-1h-1v.5h1v-.5Zm0-1h-1v.5h1V9.8Zm0-1h-1v.5h1V8.8Zm0-1h-1v.5h1V7.8Zm0-1h-1v.5h1V6.8Zm0-1h-1v.5h1V5.8Zm0-1h-1v.5h1V4.8Zm0-1h-1v.5h1V3.8Zm0-1h-1v.5h1V2.8Zm0-1h-1v.5h1V1.8Zm0-1.8h-1V.3h.5V.8h-.5v.5h1V0Z"/></g></g></svg>