<svg xmlns="http://www.w3.org/2000/svg" viewBox="0 0 447.27 135.38">
<title>logotypography</title><g id="fd402404-6c24-4d20-8883-68a6fd442ae7" data-name=""><g id="fba3dae1-ec75-4b3a-9e31-3e275456766c" data-name="Layer 1"><path d="M9.75,3.44H4.23v3.8H9.55V9.48H4.23V17H1.84V1.19H9.75Z" fill="#000100"/><path d="M17.7,1.19v9.54a5.19,5.19,0,0,0,.67,3,3.24,3.24,0,0,0,2.79,1.36A3.27,3.27,0,0,0,24,13.71a5.1,5.1,0,0,0,.67-3V1.19H27V11.38a5.75,5.75,0,0,1-5.87,5.93,5.75,5.75,0,0,1-5.85-5.93V1.19Z" fill="#000100"/><path d="M38.3,3.44V17H35.91V3.44H32.27V1.19h9.66V3.44Z" fill="#000100"/><path d="M49.56,1.19v9.54a5.19,5.19,0,0,0,.67,3,3.56,3.56,0,0,0,5.6,0,5.1,5.1,0,0,0,.67-3V1.19h2.39V11.38a5.86,5.86,0,1,1-11.72,0V1.19Z" fill="#000100"/><path d="M71.18,10.27,76.08,17H73.16l-4.53-6.48H68.2V17H65.81V1.19h2.8c2.1,0,3.61.39,4.54,1.18a4.33,4.33,0,0,1,1.53,3.46,4.52,4.52,0,0,1-1,2.9A4.28,4.28,0,0,1,71.18,10.27Zm-3-1.81H69c2.26,0,3.4-.87,3.4-2.59s-1.1-2.43-3.31-2.43H68.2Z" fill="#000100"/><path d="M91.66,13.18H84.89L83.12,17H80.55L88.38.2,95.94,17H93.32Zm-1-2.25L88.34,5.55l-2.46,5.38Z" fill="#000100"/><path d="M110.12,17l3.34-17,5.43,12.3L124.52,0l3,17h-2.45l-1.52-9.56-4.69,10.29L114.3,7.46,112.59,17Z" fill="#000100"/><path d="M142.44,3.44h-6.35v3.8h6.16V9.48h-6.16v5.3h6.35V17H133.7V1.19h8.74Z" fill="#000100"/><path d="M148.77,17V1.19h3.32a12.21,12.21,0,0,1,3.77.47,7,7,0,0,1,2.7,1.57A7.59,7.59,0,0,1,161,9.11a7.5,7.5,0,0,1-2.55,5.9,7.46,7.46,0,0,1-2.69,1.57,12,12,0,0,1-3.72.44Zm2.39-2.24h1.07a9.16,9.16,0,0,0,2.68-.34,5.51,5.51,0,0,0,1.93-1.14,5.42,5.42,0,0,0,1.76-4.19,5.51,5.51,0,0,0-1.74-4.23,6.64,6.64,0,0,0-4.63-1.44h-1.07Z" fill="#000100"/><path d="M169.58,1.19V17h-2.39V1.19Z" fill="#000100"/><path d="M178.9,1.19v9.54a5.28,5.28,0,0,0,.66,3,3.57,3.57,0,0,0,5.61,0,5.1,5.1,0,0,0,.67-3V1.19h2.39V11.38a5.86,5.86,0,1,1-11.72,0V1.19Z" fill="#000100"/><path d="M194.09,17l3.34-17,5.43,12.3L208.49,0l3,17H209l-1.52-9.56-4.69,10.29L198.27,7.46,196.57,17Z" fill="#000100"/><path d="M7.41,61.69H2.89L1.72,64.25H0L5.22,53l5,11.22H8.52Zm-.65-1.5L5.2,56.6,3.55,60.19Z" fill="#000100"/><path d="M19.74,64.25V53.7h1.59a7,7,0,0,1,1.69.16,2.54,2.54,0,0,1,1.07.55,2.82,2.82,0,0,1,.7,1,3,3,0,0,1,.27,1.23,2.48,2.48,0,0,1-.87,1.92,2.58,2.58,0,0,1,1.33,1A2.79,2.79,0,0,1,26,61.23a2.82,2.82,0,0,1-.87,2.09,2.87,2.87,0,0,1-1.19.73,6.91,6.91,0,0,1-1.79.2Zm1.59-6h.5a1.82,1.82,0,0,0,1.31-.4,1.52,1.52,0,0,0,.41-1.15,1.44,1.44,0,0,0-.42-1.13,1.78,1.78,0,0,0-1.23-.39h-.57Zm0,4.52h1a2.48,2.48,0,0,0,1.59-.42,1.54,1.54,0,0,0,0-2.31,2.66,2.66,0,0,0-1.79-.46h-.81Z" fill="#000100"/><path d="M43.8,54.26v1.89A4.4,4.4,0,0,0,40.94,55a3.63,3.63,0,0,0-2.74,1.16A4,4,0,0,0,37.08,59a3.82,3.82,0,0,0,1.12,2.8A3.72,3.72,0,0,0,41,63a3.41,3.41,0,0,0,1.43-.27,4.63,4.63,0,0,0,.68-.37c.23-.16.48-.34.74-.56v1.92a5.8,5.8,0,0,1-2.87.77A5.43,5.43,0,0,1,35.47,59a5.41,5.41,0,0,1,1.34-3.59,5.3,5.3,0,0,1,4.24-1.94A5.42,5.42,0,0,1,43.8,54.26Z" fill="#000100"/><path d="M54,64.25V53.7h2.22a8,8,0,0,1,2.51.31,4.71,4.71,0,0,1,1.8,1.05A5,5,0,0,1,62.2,59a5.15,5.15,0,0,1-3.49,5,8.34,8.34,0,0,1-2.48.29Zm1.59-1.5h.72a6.07,6.07,0,0,0,1.79-.22,3.57,3.57,0,0,0,1.28-.76A3.6,3.6,0,0,0,60.6,59a3.68,3.68,0,0,0-1.16-2.81,4.39,4.39,0,0,0-3.09-1h-.72Z" fill="#000100"/><path d="M78.17,55.19H73.93v2.54H78v1.5H73.93v3.52h4.24v1.5H72.34V53.7h5.83Z" fill="#000100"/><path d="M93.7,55.19H90v2.54h3.54v1.5H90v5h-1.6V53.7H93.7Z" fill="#000100"/><path d="M109.08,58.75h4.36v.35a7.1,7.1,0,0,1-.28,2.11,4.48,4.48,0,0,1-.92,1.58,4.76,4.76,0,0,1-3.74,1.66,5.12,5.12,0,0,1-3.79-1.6A5.32,5.32,0,0,1,103.13,59a5.24,5.24,0,0,1,1.61-3.89A5.53,5.53,0,0,1,111,54a6.52,6.52,0,0,1,2,1.64l-1.13,1.08A3.85,3.85,0,0,0,108.67,55a3.79,3.79,0,0,0-2.81,1.15A3.87,3.87,0,0,0,104.73,59a4,4,0,0,0,3.83,4,3.24,3.24,0,0,0,2.11-.79,2.83,2.83,0,0,0,1-1.92h-2.63Z" fill="#000100"/><path d="M125.15,57.83h4.55V53.7h1.59V64.25H129.7V59.32h-4.55v4.93h-1.6V53.7h1.6Z" fill="#000100"/><path d="M143.56,53.7V64.25H142V53.7Z" fill="#000100"/><path d="M157.64,53.7v6.83a7.37,7.37,0,0,1-.17,1.82,2.76,2.76,0,0,1-.58,1.16,2.65,2.65,0,0,1-2.12.93,3.54,3.54,0,0,1-1.87-.52l.78-1.36a2,2,0,0,0,1.09.39,1,1,0,0,0,1-.54,4.22,4.22,0,0,0,.29-1.88V53.7Z" fill="#000100"/><path d="M169.9,57.91,174,53.7h2.13l-4.77,4.77,4.8,5.78H174l-3.81-4.7-.32.33v4.37h-1.6V53.7h1.6Z" fill="#000100"/><path d="M187.29,53.7v9h3.11v1.5h-4.7V53.7Z" fill="#000100"/><path d="M199.8,64.25,202,52.9l3.62,8.21,3.76-8.21,2,11.35h-1.63l-1-6.37-3.12,6.86-3-6.87-1.13,6.38Z" fill="#000100"/><path d="M221.57,64.25V53L229.26,61V53.7h1.6V64.89l-7.7-8v7.39Z" fill="#000100"/><path d="M241,58.93a5.16,5.16,0,0,1,1.64-3.83,5.52,5.52,0,0,1,7.78,0A5.29,5.29,0,0,1,252,59a5.22,5.22,0,0,1-1.63,3.86,5.59,5.59,0,0,1-7.62.18A5.2,5.2,0,0,1,241,58.93Zm1.61,0a3.81,3.81,0,0,0,1.17,2.87,3.75,3.75,0,0,0,2.7,1.13,3.79,3.79,0,0,0,2.81-1.15,4.1,4.1,0,0,0,0-5.66A3.73,3.73,0,0,0,246.52,55a3.79,3.79,0,0,0-2.79,1.14A3.84,3.84,0,0,0,242.6,59Z" fill="#000100"/><path d="M263.75,60v4.29h-1.59V53.7H264a8.33,8.33,0,0,1,2,.18,2.62,2.62,0,0,1,1.2.7,3,3,0,0,1,.91,2.24,2.89,2.89,0,0,1-1,2.3,3.87,3.87,0,0,1-2.62.84Zm0-1.47h.6c1.46,0,2.19-.56,2.19-1.69s-.75-1.63-2.26-1.63h-.53Z" fill="#000100"/><path d="M288.64,64.44h-2l-.83-.85a5.29,5.29,0,0,1-2.94.85A5.51,5.51,0,0,1,279.14,63a5.1,5.1,0,0,1-1.77-4,5.26,5.26,0,0,1,1.68-4,5.52,5.52,0,0,1,7.44-.19,5.31,5.31,0,0,1,1.92,4.25,5.18,5.18,0,0,1-1.51,3.64Zm-4.38-4.37,1.53,1.53a3.63,3.63,0,0,0,1-2.61,3.93,3.93,0,0,0-1.13-2.85,3.77,3.77,0,0,0-2.8-1.14,3.7,3.7,0,0,0-2.79,1.14A4,4,0,0,0,279,59a3.71,3.71,0,0,0,1.13,2.79,3.87,3.87,0,0,0,4.57.65l-2.48-2.41Z" fill="#000100"/><path d="M302.17,59.75l3.27,4.5h-1.95l-3-4.32h-.29v4.32H298.6V53.7h1.86a4.71,4.71,0,0,1,3,.78,2.91,2.91,0,0,1,1,2.31,3,3,0,0,1-.64,1.93A2.84,2.84,0,0,1,302.17,59.75Zm-2-1.21h.51c1.51,0,2.26-.57,2.26-1.73s-.73-1.62-2.2-1.62h-.57Z" fill="#000100"/><path d="M320.82,55.27l-1.29.76a2.29,2.29,0,0,0-.69-.82A1.66,1.66,0,0,0,318,55a1.63,1.63,0,0,0-1.1.37,1.15,1.15,0,0,0-.44.93c0,.52.38.93,1.15,1.24l1.05.44a4.51,4.51,0,0,1,1.88,1.26,2.84,2.84,0,0,1,.59,1.84,3.23,3.23,0,0,1-1,2.41,3.35,3.35,0,0,1-2.42.95,3.24,3.24,0,0,1-2.27-.81,3.71,3.71,0,0,1-1.1-2.29l1.61-.36a2.78,2.78,0,0,0,.38,1.29,1.68,1.68,0,0,0,1.44.68,1.64,1.64,0,0,0,1.24-.5,1.86,1.86,0,0,0,.4-1.83,1.37,1.37,0,0,0-.26-.47,2.4,2.4,0,0,0-.47-.4,3.69,3.69,0,0,0-.69-.36L317,59c-1.45-.61-2.17-1.51-2.17-2.68a2.52,2.52,0,0,1,.91-2,3.26,3.26,0,0,1,2.26-.81A3.14,3.14,0,0,1,320.82,55.27Z" fill="#000100"/><path d="M334.22,55.19v9.06h-1.6V55.19H330.2V53.7h6.44v1.49Z" fill="#000100"/><path d="M347.77,53.7v6.35a3.55,3.55,0,0,0,.44,2,2.19,2.19,0,0,0,1.87.91A2.16,2.16,0,0,0,352,62a3.4,3.4,0,0,0,.45-2V53.7H354v6.79a3.94,3.94,0,0,1-6.77,2.75,3.78,3.78,0,0,1-1-2.75V53.7Z" fill="#000100"/><path d="M365.19,53.7,368.11,61l3-7.31h1.74L368.07,65,363.44,53.7Z" fill="#000100"/><path d="M383.35,53.7l2.75,7L389,53.18l2.75,7.57,2.92-7h1.73l-4.72,11.22-2.72-7.48-2.83,7.49L381.62,53.7Z" fill="#000100"/><path d="M408.31,58.73l-2.9-5h1.81l2,3.57,2.12-3.57h1.82l-3,5,3.19,5.52h-1.78l-2.34-4-2.41,4H405Z" fill="#000100"/><path d="M425.48,59.69l-3.44-6h1.83l2.41,4.21,2.42-4.21h1.83l-3.46,6v4.56h-1.59Z" fill="#000100"/><path d="M441.71,62.75h5.06v1.5h-7.68l5.18-9.06h-4.33V53.7h6.95Z" fill="#000100"/><path d="M.54,75.91a6.32,6.32,0,0,1,1.18-4,3.12,3.12,0,0,1,2.55-1.36,3.15,3.15,0,0,1,2.55,1.36A6.5,6.5,0,0,1,8,76a6.48,6.48,0,0,1-1.17,4.09,3.13,3.13,0,0,1-2.55,1.36,3.15,3.15,0,0,1-2.55-1.36A6.54,6.54,0,0,1,.54,75.91Zm1.57,0a6.32,6.32,0,0,0,.6,2.92A1.8,1.8,0,0,0,4.27,80a1.8,1.8,0,0,0,1.55-1.14A6,6,0,0,0,6.43,76a6,6,0,0,0-.61-2.87A1.8,1.8,0,0,0,4.27,72,1.8,1.8,0,0,0,2.72,73.1,5.81,5.81,0,0,0,2.11,75.91Z" fill="#000100"/><path d="M51.94,72.19H50.12L51,70.7h2.55V81.25h-1.6Z" fill="#000100"/><path d="M99.74,79.75h3.93v1.5H96.58l3.66-4.44c.36-.44.66-.82.91-1.14a8.35,8.35,0,0,0,.55-.82,2.28,2.28,0,0,0,.39-1.15,1.64,1.64,0,0,0-.52-1.24,1.77,1.77,0,0,0-1.28-.5q-1.61,0-1.83,1.89H96.87q.39-3.33,3.37-3.33a3.4,3.4,0,0,1,2.42.91,3,3,0,0,1,1,2.27,3.49,3.49,0,0,1-.46,1.69,9,9,0,0,1-.68,1c-.3.39-.68.85-1.13,1.39Z" fill="#000100"/><path d="M148.71,76.35V75a2.74,2.74,0,0,0,1.36-.23,1.38,1.38,0,0,0,.63-1.27,1.44,1.44,0,0,0-.45-1.1,1.6,1.6,0,0,0-1.16-.43,1.55,1.55,0,0,0-1,.32,2.13,2.13,0,0,0-.51,1.11H146a3.63,3.63,0,0,1,1-2.18,3,3,0,0,1,2.14-.7,3.18,3.18,0,0,1,2.26.82,2.71,2.71,0,0,1,.88,2.1,2.6,2.6,0,0,1-1.15,2.26,2.67,2.67,0,0,1,1.31,2.51,3.08,3.08,0,0,1-.95,2.32,3.45,3.45,0,0,1-2.46.9,3.15,3.15,0,0,1-2.83-1.4,3.58,3.58,0,0,1-.48-1.63h1.53a2,2,0,0,0,.6,1.18,1.85,1.85,0,0,0,1.24.4,1.73,1.73,0,0,0,1.28-.51,1.83,1.83,0,0,0,.51-1.33,1.64,1.64,0,0,0-.76-1.52A2.88,2.88,0,0,0,148.71,76.35Z" fill="#000100"/><path d="M201,78.3h1.12v1.45H201v1.5h-1.59v-1.5h-5.18L201,69.91Zm-1.59,0V74.77L197,78.3Z" fill="#000100"/><path d="M251,72.19h-3.26l-.51,1.75.22,0h.19a3.31,3.31,0,0,1,2.52,1,3.95,3.95,0,0,1-.13,5.39,3.88,3.88,0,0,1-2.82,1.08,3.71,3.71,0,0,1-3.31-2l1.21-1a3.6,3.6,0,0,0,1,1.2,2.15,2.15,0,0,0,1.24.34,2.11,2.11,0,0,0,1.6-.67,2.32,2.32,0,0,0,.65-1.67,2.24,2.24,0,0,0-.64-1.66,2.14,2.14,0,0,0-1.6-.66,2.34,2.34,0,0,0-1.86.94h-.52l1.66-5.55H251Z" fill="#000100"/><path d="M298,70.33l1.17.87-2.52,3.43.34,0h.23a3,3,0,0,1,2.22,1,3.27,3.27,0,0,1,.93,2.34,3.53,3.53,0,0,1-3.52,3.52,3.53,3.53,0,0,1-2.51-1A3.22,3.22,0,0,1,293.31,78a4.52,4.52,0,0,1,1-2.65Zm.82,7.67a1.92,1.92,0,0,0-.58-1.42,2,2,0,0,0-1.42-.59,1.93,1.93,0,0,0-1.41.59,1.88,1.88,0,0,0-.58,1.4,1.9,1.9,0,0,0,.58,1.41,1.92,1.92,0,0,0,1.42.58,2,2,0,0,0,2-2Z" fill="#000100"/><path d="M347.13,72.19h-5.21V70.7h7.87l-6.66,10.91-1.26-.8Z" fill="#000100"/><path d="M392.36,75.76a2.59,2.59,0,0,1-1.17-2.23,2.87,2.87,0,0,1,.89-2.15,3,3,0,0,1,2.2-.86,3,3,0,0,1,2.19.86,2.9,2.9,0,0,1,.88,2.15,2.65,2.65,0,0,1-1.16,2.22,2.53,2.53,0,0,1,1,1,2.93,2.93,0,0,1,.37,1.48,3.1,3.1,0,0,1-.92,2.3,3.23,3.23,0,0,1-2.34.89,3.39,3.39,0,0,1-2.42-.9,3,3,0,0,1-.95-2.27A2.55,2.55,0,0,1,392.36,75.76Zm.13,2.44a1.74,1.74,0,0,0,.51,1.25,1.65,1.65,0,0,0,1.24.52,1.68,1.68,0,0,0,1.24-.51,1.77,1.77,0,0,0,0-2.49A1.75,1.75,0,0,0,393,77,1.65,1.65,0,0,0,392.49,78.2Zm.2-4.68a1.51,1.51,0,0,0,.46,1.13,1.59,1.59,0,1,0,0-2.22A1.49,1.49,0,0,0,392.69,73.52Z" fill="#000100"/><path d="M442,81.61l-1.17-.86,2.52-3.44-.35,0h-.23a3,3,0,0,1-2.22-1,3.23,3.23,0,0,1-.93-2.33,3.55,3.55,0,0,1,3.52-3.53,3.5,3.5,0,0,1,2.51,1A3.24,3.24,0,0,1,446.71,74a4.64,4.64,0,0,1-1,2.66Zm-.82-7.68a2,2,0,0,0,.58,1.44A2,2,0,0,0,445.16,74a2,2,0,0,0-.59-1.42,2,2,0,0,0-3.4,1.39Z" fill="#000100"/><path d="M2.39,95.2V103H5.05v1.28H1v-9Z" fill="#221e1f"/><path d="M5.86,101.36a2.85,2.85,0,0,1,.89-2.11,3,3,0,0,1,2.16-.86,3,3,0,0,1,2.16.87,3.05,3.05,0,0,1,0,4.29,3,3,0,0,1-2.19.87,3,3,0,0,1-3-3.06Zm1.35,0a1.89,1.89,0,0,0,.46,1.35,1.59,1.59,0,0,0,1.24.51,1.61,1.61,0,0,0,1.23-.5,2.15,2.15,0,0,0,0-2.66,1.58,1.58,0,0,0-1.23-.5,1.58,1.58,0,0,0-1.23.5A1.85,1.85,0,0,0,7.21,101.38Z" fill="#221e1f"/><path d="M13.37,98.54h1.32v.51a2.85,2.85,0,0,1,.64-.52,1.45,1.45,0,0,1,.68-.14,2.09,2.09,0,0,1,1.09.34l-.6,1.2a1.25,1.25,0,0,0-.73-.27c-.72,0-1.08.55-1.08,1.63v3H13.37Z" fill="#221e1f"/><path d="M23,101.71H18.91a1.7,1.7,0,0,0,.45,1.12,1.42,1.42,0,0,0,1,.41,1.3,1.3,0,0,0,.81-.24,3.05,3.05,0,0,0,.73-.86l1.11.62a4,4,0,0,1-.55.75,3,3,0,0,1-.61.52,2.59,2.59,0,0,1-.71.29,3.56,3.56,0,0,1-.83.1,2.69,2.69,0,0,1-2.05-.83,3.1,3.1,0,0,1-.77-2.19,3.16,3.16,0,0,1,.75-2.19,2.57,2.57,0,0,1,2-.82,2.56,2.56,0,0,1,2,.8A3.18,3.18,0,0,1,23,101.4Zm-1.36-1.08a1.25,1.25,0,0,0-1.33-1,1.33,1.33,0,0,0-.45.07,1.28,1.28,0,0,0-.38.21,1.18,1.18,0,0,0-.3.33,2,2,0,0,0-.19.44Z" fill="#221e1f"/><path d="M24.49,98.54H25.8v.53a3.25,3.25,0,0,1,.65-.54,1.6,1.6,0,0,1,.72-.14,1.74,1.74,0,0,1,1.53.84,2,2,0,0,1,1.69-.84c1.28,0,1.92.78,1.92,2.33v3.53H31v-3.17a2.48,2.48,0,0,0-.2-1.16.72.72,0,0,0-.67-.34.85.85,0,0,0-.8.41,2.68,2.68,0,0,0-.25,1.31v3H27.75V101.1c0-1-.29-1.52-.88-1.52a.87.87,0,0,0-.81.41,2.6,2.6,0,0,0-.26,1.31v3H24.49Z" fill="#221e1f"/><path d="M38.24,96.17a.82.82,0,0,1,.25-.6.86.86,0,0,1,1.21,0A.86.86,0,0,1,39.1,97a.86.86,0,0,1-.61-.25A.84.84,0,0,1,38.24,96.17Zm1.52,2.37v5.71H38.44V98.54Z" fill="#221e1f"/><path d="M42.82,107.36H41.5V98.54h1.32v.63a2.4,2.4,0,0,1,1.76-.78,2.44,2.44,0,0,1,1.94.86,3.4,3.4,0,0,1,0,4.32,2.5,2.5,0,0,1-1.92.85,2.42,2.42,0,0,1-1.79-.81ZM46,101.43a2,2,0,0,0-.45-1.33,1.41,1.41,0,0,0-1.13-.52,1.49,1.49,0,0,0-1.18.5,1.92,1.92,0,0,0-.45,1.32,2,2,0,0,0,.45,1.33,1.49,1.49,0,0,0,1.17.51,1.4,1.4,0,0,0,1.13-.52A1.84,1.84,0,0,0,46,101.43Z" fill="#221e1f"/><path d="M52,99.52l-1.09.58c-.17-.35-.38-.53-.64-.53a.45.45,0,0,0-.31.12.42.42,0,0,0-.13.31c0,.22.26.43.77.65a4.55,4.55,0,0,1,1.41.83,1.43,1.43,0,0,1,.36,1,1.78,1.78,0,0,1-.61,1.39,2.18,2.18,0,0,1-3.46-.88l1.12-.52a2.33,2.33,0,0,0,.36.52.82.82,0,0,0,.58.23c.44,0,.66-.21.66-.61q0-.36-.51-.66l-.4-.19-.4-.2a2.21,2.21,0,0,1-.81-.56,1.38,1.38,0,0,1-.3-.92,1.64,1.64,0,0,1,.51-1.23,1.8,1.8,0,0,1,1.26-.48A1.71,1.71,0,0,1,52,99.52Z" fill="#221e1f"/><path d="M54.88,98.54v3.28c0,.94.37,1.42,1.12,1.42s1.12-.48,1.12-1.42V98.54h1.32v3.31a3.72,3.72,0,0,1-.17,1.18,1.91,1.91,0,0,1-.57.8,2.49,2.49,0,0,1-1.7.59,2.47,2.47,0,0,1-1.69-.59,1.85,1.85,0,0,1-.58-.8,3.2,3.2,0,0,1-.17-1.18V98.54Z" fill="#221e1f"/><path d="M60.15,98.54h1.32v.53a3,3,0,0,1,.65-.54,1.54,1.54,0,0,1,.72-.14,1.76,1.76,0,0,1,1.53.84,2,2,0,0,1,1.68-.84c1.28,0,1.93.78,1.93,2.33v3.53H66.65v-3.17a2.36,2.36,0,0,0-.2-1.16.71.71,0,0,0-.67-.34A.84.84,0,0,0,65,100a2.57,2.57,0,0,0-.25,1.31v3H63.41V101.1c0-1-.29-1.52-.88-1.52a.87.87,0,0,0-.81.41,2.62,2.62,0,0,0-.25,1.31v3H60.15Z" fill="#221e1f"/><path d="M78.31,94.35h1.32v9.9H78.31v-.6a2.47,2.47,0,0,1-1.77.77,2.5,2.5,0,0,1-1.94-.86,3.19,3.19,0,0,1-.77-2.18,3.08,3.08,0,0,1,.77-2.13,2.47,2.47,0,0,1,3.71,0Zm-3.13,7a2,2,0,0,0,.44,1.34,1.46,1.46,0,0,0,1.13.52,1.51,1.51,0,0,0,1.19-.51,1.94,1.94,0,0,0,.45-1.32,2,2,0,0,0-.45-1.33,1.51,1.51,0,0,0-1.17-.5,1.45,1.45,0,0,0-1.14.51A1.91,1.91,0,0,0,75.18,101.38Z" fill="#221e1f"/><path d="M81.05,101.36a2.84,2.84,0,0,1,.88-2.11,3,3,0,0,1,2.16-.86,3,3,0,0,1,2.17.87,2.93,2.93,0,0,1,.88,2.14,2.87,2.87,0,0,1-.89,2.15,3,3,0,0,1-2.18.87,2.92,2.92,0,0,1-2.15-.88A3,3,0,0,1,81.05,101.36Zm1.35,0a1.93,1.93,0,0,0,.45,1.35,1.77,1.77,0,0,0,2.48,0,2.15,2.15,0,0,0,0-2.66,1.61,1.61,0,0,0-1.24-.5,1.57,1.57,0,0,0-1.22.5A1.81,1.81,0,0,0,82.4,101.38Z" fill="#221e1f"/><path d="M89.89,94.35v9.9H88.57v-9.9Z" fill="#221e1f"/><path d="M91.32,101.36a2.85,2.85,0,0,1,.89-2.11,3.13,3.13,0,0,1,4.32,0,3.05,3.05,0,0,1,0,4.29,3,3,0,0,1-2.19.87,2.92,2.92,0,0,1-2.15-.88A3,3,0,0,1,91.32,101.36Zm1.35,0a1.89,1.89,0,0,0,.46,1.35,1.58,1.58,0,0,0,1.23.51,1.62,1.62,0,0,0,1.24-.5,2.15,2.15,0,0,0,0-2.66,1.76,1.76,0,0,0-2.46,0A1.85,1.85,0,0,0,92.67,101.38Z" fill="#221e1f"/><path d="M98.83,98.54h1.32v.51a2.65,2.65,0,0,1,.64-.52,1.45,1.45,0,0,1,.68-.14,2.09,2.09,0,0,1,1.09.34l-.6,1.2a1.27,1.27,0,0,0-.73-.27c-.72,0-1.08.55-1.08,1.63v3H98.83Z" fill="#221e1f"/><path d="M111.09,99.52l-1.09.58c-.17-.35-.38-.53-.64-.53a.45.45,0,0,0-.31.12.41.41,0,0,0-.12.31c0,.22.25.43.76.65a4.55,4.55,0,0,1,1.41.83,1.43,1.43,0,0,1,.36,1,1.78,1.78,0,0,1-.61,1.39,2.18,2.18,0,0,1-3.46-.88l1.13-.52a2.08,2.08,0,0,0,.35.52.82.82,0,0,0,.58.23c.44,0,.66-.21.66-.61q0-.36-.51-.66l-.4-.19-.4-.2A2.21,2.21,0,0,1,108,101a1.38,1.38,0,0,1-.3-.92,1.64,1.64,0,0,1,.51-1.23,1.8,1.8,0,0,1,1.26-.48A1.71,1.71,0,0,1,111.09,99.52Z" fill="#221e1f"/><path d="M112.54,96.17a.86.86,0,0,1,1.47-.6.87.87,0,0,1,0,1.22.86.86,0,0,1-.61.25.85.85,0,0,1-.86-.87Zm1.52,2.37v5.71h-1.32V98.54Z" fill="#221e1f"/><path d="M117.22,99.77v4.48H115.9V99.77h-.56V98.54h.56V96.45h1.32v2.09h1v1.23Z" fill="#221e1f"/><path d="M127.81,98.54h1.32v5.71h-1.32v-.6a2.52,2.52,0,0,1-3.71-.09,3.19,3.19,0,0,1-.77-2.18,3.09,3.09,0,0,1,.77-2.14,2.46,2.46,0,0,1,1.92-.85,2.42,2.42,0,0,1,1.79.82Zm-3.13,2.84a2,2,0,0,0,.44,1.34,1.46,1.46,0,0,0,1.14.52,1.49,1.49,0,0,0,1.18-.51,1.94,1.94,0,0,0,.45-1.32,2,2,0,0,0-.45-1.33,1.51,1.51,0,0,0-1.17-.5,1.48,1.48,0,0,0-1.14.51A1.91,1.91,0,0,0,124.68,101.38Z" fill="#221e1f"/><path d="M130.86,98.54h1.32v.53a3,3,0,0,1,.65-.54,1.54,1.54,0,0,1,.72-.14,1.76,1.76,0,0,1,1.53.84,2,2,0,0,1,1.68-.84c1.28,0,1.93.78,1.93,2.33v3.53h-1.33v-3.17a2.36,2.36,0,0,0-.2-1.16.71.71,0,0,0-.67-.34.86.86,0,0,0-.8.41,2.69,2.69,0,0,0-.24,1.31v3h-1.33V101.1c0-1-.29-1.52-.88-1.52a.87.87,0,0,0-.81.41,2.62,2.62,0,0,0-.25,1.31v3h-1.32Z" fill="#221e1f"/><path d="M145.57,101.71h-4.09a1.76,1.76,0,0,0,.46,1.12,1.4,1.4,0,0,0,1,.41,1.32,1.32,0,0,0,.81-.24,3.23,3.23,0,0,0,.72-.86l1.11.62a4.52,4.52,0,0,1-.54.75,3,3,0,0,1-.62.52,2.36,2.36,0,0,1-.71.29,3.47,3.47,0,0,1-.82.1,2.67,2.67,0,0,1-2.05-.83,3.06,3.06,0,0,1-.78-2.19,3.16,3.16,0,0,1,.75-2.19,2.61,2.61,0,0,1,2-.82,2.54,2.54,0,0,1,2,.8,3.18,3.18,0,0,1,.73,2.21Zm-1.35-1.08a1.27,1.27,0,0,0-1.33-1,1.33,1.33,0,0,0-.45.07,1.47,1.47,0,0,0-.39.21,1.47,1.47,0,0,0-.48.77Z" fill="#221e1f"/><path d="M148.43,99.77v4.48h-1.32V99.77h-.56V98.54h.56V96.45h1.32v2.09h1v1.23Z" fill="#221e1f"/><path d="M151,102.56l1.17.45-1.67,3.35-.89-.37Z" fill="#221e1f"/><path d="M162.73,98.79v1.75a3,3,0,0,0-.81-.75,1.57,1.57,0,0,0-.83-.21,1.62,1.62,0,0,0-1.23.52,1.8,1.8,0,0,0-.49,1.3,1.84,1.84,0,0,0,.47,1.32,1.59,1.59,0,0,0,1.23.52,1.63,1.63,0,0,0,.83-.21,3.26,3.26,0,0,0,.83-.77V104a3.45,3.45,0,0,1-1.61.42,3.06,3.06,0,0,1-2.21-.86,2.87,2.87,0,0,1-.89-2.14,2.91,2.91,0,0,1,.9-2.16,3.07,3.07,0,0,1,2.22-.87A3.29,3.29,0,0,1,162.73,98.79Z" fill="#221e1f"/><path d="M163.87,101.36a2.84,2.84,0,0,1,.88-2.11,3,3,0,0,1,2.16-.86,3,3,0,0,1,2.17.87,2.93,2.93,0,0,1,.88,2.14,2.87,2.87,0,0,1-.89,2.15,3,3,0,0,1-2.18.87,2.9,2.9,0,0,1-2.15-.88A3,3,0,0,1,163.87,101.36Zm1.35,0a1.93,1.93,0,0,0,.45,1.35,1.77,1.77,0,0,0,2.48,0,2.15,2.15,0,0,0,0-2.66,1.61,1.61,0,0,0-1.24-.5,1.57,1.57,0,0,0-1.22.5A1.81,1.81,0,0,0,165.22,101.38Z" fill="#221e1f"/><path d="M171.38,98.54h1.32v.53a2.14,2.14,0,0,1,1.56-.68,2,2,0,0,1,1.55.62,2.58,2.58,0,0,1,.48,1.74v3.5H175v-3.19a2,2,0,0,0-.24-1.16.94.94,0,0,0-.83-.33,1,1,0,0,0-.93.43,3,3,0,0,0-.27,1.5v2.75h-1.32Z" fill="#221e1f"/><path d="M181.27,99.52l-1.09.58c-.17-.35-.38-.53-.64-.53a.45.45,0,0,0-.31.12.42.42,0,0,0-.13.31c0,.22.26.43.77.65a4.55,4.55,0,0,1,1.41.83,1.43,1.43,0,0,1,.36,1,1.78,1.78,0,0,1-.61,1.39,2.18,2.18,0,0,1-3.46-.88l1.12-.52a2.33,2.33,0,0,0,.36.52.82.82,0,0,0,.58.23c.44,0,.66-.21.66-.61q0-.36-.51-.66l-.4-.19-.4-.2a2.21,2.21,0,0,1-.81-.56,1.38,1.38,0,0,1-.3-.92,1.64,1.64,0,0,1,.51-1.23,1.8,1.8,0,0,1,1.26-.48A1.71,1.71,0,0,1,181.27,99.52Z" fill="#221e1f"/><path d="M188.09,101.71H184a1.76,1.76,0,0,0,.46,1.12,1.42,1.42,0,0,0,1,.41,1.3,1.3,0,0,0,.81-.24,3.23,3.23,0,0,0,.72-.86l1.12.62a4.55,4.55,0,0,1-.55.75,3,3,0,0,1-.61.52,2.59,2.59,0,0,1-.71.29,3.63,3.63,0,0,1-.83.1,2.69,2.69,0,0,1-2-.83,3.1,3.1,0,0,1-.77-2.19,3.16,3.16,0,0,1,.75-2.19,2.57,2.57,0,0,1,2-.82,2.53,2.53,0,0,1,2,.8,3.14,3.14,0,0,1,.73,2.21Zm-1.35-1.08a1.26,1.26,0,0,0-1.33-1,1.33,1.33,0,0,0-.45.07,1.28,1.28,0,0,0-.38.21,1.18,1.18,0,0,0-.3.33,2,2,0,0,0-.19.44Z" fill="#221e1f"/><path d="M194,98.79v1.75a3,3,0,0,0-.81-.75,1.73,1.73,0,0,0-2.06.31,1.8,1.8,0,0,0-.5,1.3,1.85,1.85,0,0,0,.48,1.32,1.58,1.58,0,0,0,1.22.52,1.64,1.64,0,0,0,.84-.21,3.26,3.26,0,0,0,.83-.77V104a3.45,3.45,0,0,1-1.61.42,3.06,3.06,0,0,1-2.21-.86,2.83,2.83,0,0,1-.89-2.14,2.91,2.91,0,0,1,.9-2.16,3.06,3.06,0,0,1,2.21-.87A3.3,3.3,0,0,1,194,98.79Z" fill="#221e1f"/><path d="M196.93,99.77v4.48h-1.32V99.77H195V98.54h.57V96.45h1.32v2.09h1v1.23Z" fill="#221e1f"/><path d="M204.14,101.71h-4.09a1.76,1.76,0,0,0,.46,1.12,1.4,1.4,0,0,0,1,.41,1.32,1.32,0,0,0,.81-.24,3.23,3.23,0,0,0,.72-.86l1.11.62a4.52,4.52,0,0,1-.54.75,3,3,0,0,1-.62.52,2.47,2.47,0,0,1-.71.29,3.47,3.47,0,0,1-.82.1,2.67,2.67,0,0,1-2.05-.83,3.06,3.06,0,0,1-.78-2.19,3.16,3.16,0,0,1,.75-2.19,2.61,2.61,0,0,1,2-.82,2.54,2.54,0,0,1,2,.8,3.18,3.18,0,0,1,.73,2.21Zm-1.35-1.08a1.27,1.27,0,0,0-1.33-1,1.33,1.33,0,0,0-.45.07,1.47,1.47,0,0,0-.39.21,1.47,1.47,0,0,0-.48.77Z" fill="#221e1f"/><path d="M207,99.77v4.48h-1.32V99.77h-.56V98.54h.56V96.45H207v2.09h1v1.23Z" fill="#221e1f"/><path d="M210.35,98.54v3.28c0,.94.37,1.42,1.12,1.42s1.12-.48,1.12-1.42V98.54h1.32v3.31a3.72,3.72,0,0,1-.17,1.18,1.91,1.91,0,0,1-.57.8,2.49,2.49,0,0,1-1.7.59,2.47,2.47,0,0,1-1.69-.59,1.85,1.85,0,0,1-.58-.8,3.2,3.2,0,0,1-.17-1.18V98.54Z" fill="#221e1f"/><path d="M215.62,98.54h1.32v.51a2.65,2.65,0,0,1,.64-.52,1.45,1.45,0,0,1,.68-.14,2.09,2.09,0,0,1,1.09.34l-.6,1.2a1.27,1.27,0,0,0-.73-.27c-.72,0-1.08.55-1.08,1.63v3h-1.32Z" fill="#221e1f"/><path d="M228.77,98.54h1.33v5.71h-1.33v-.6a2.51,2.51,0,0,1-1.75.77,2.54,2.54,0,0,1-2-.86,3.18,3.18,0,0,1-.76-2.18,3.08,3.08,0,0,1,.76-2.14,2.5,2.5,0,0,1,1.93-.85,2.4,2.4,0,0,1,1.78.82Zm-3.13,2.84a2,2,0,0,0,.44,1.34,1.46,1.46,0,0,0,1.14.52,1.49,1.49,0,0,0,1.18-.51,1.94,1.94,0,0,0,.45-1.32,2,2,0,0,0-.45-1.33,1.51,1.51,0,0,0-1.17-.5,1.45,1.45,0,0,0-1.13.51A1.87,1.87,0,0,0,225.64,101.38Z" fill="#221e1f"/><path d="M236,94.35h1.32v9.9H236v-.6a2.47,2.47,0,0,1-1.77.77,2.5,2.5,0,0,1-1.94-.86,3.19,3.19,0,0,1-.77-2.18,3.08,3.08,0,0,1,.77-2.13,2.47,2.47,0,0,1,3.71,0Zm-3.13,7a2,2,0,0,0,.44,1.34,1.46,1.46,0,0,0,1.13.52,1.51,1.51,0,0,0,1.19-.51,1.94,1.94,0,0,0,.45-1.32,2,2,0,0,0-.45-1.33,1.51,1.51,0,0,0-1.17-.5,1.45,1.45,0,0,0-1.14.51A1.91,1.91,0,0,0,232.89,101.38Z" fill="#221e1f"/><path d="M238.87,96.17a.82.82,0,0,1,.25-.6.86.86,0,0,1,1.21,0,.86.86,0,0,1-.6,1.47.86.86,0,0,1-.61-.25A.84.84,0,0,1,238.87,96.17Zm1.51,2.37v5.71h-1.32V98.54Z" fill="#221e1f"/><path d="M243.44,107.36h-1.32V98.54h1.32v.63a2.51,2.51,0,0,1,3.71.08,3.4,3.4,0,0,1,0,4.32,2.5,2.5,0,0,1-1.92.85,2.46,2.46,0,0,1-1.8-.81Zm3.14-5.93a2,2,0,0,0-.45-1.33,1.43,1.43,0,0,0-1.13-.52,1.49,1.49,0,0,0-1.18.5,1.92,1.92,0,0,0-.45,1.32,2,2,0,0,0,.45,1.33,1.49,1.49,0,0,0,1.17.51,1.41,1.41,0,0,0,1.13-.52A1.84,1.84,0,0,0,246.58,101.43Z" fill="#221e1f"/><path d="M249.16,96.17a.82.82,0,0,1,.25-.6.86.86,0,0,1,1.21,0A.86.86,0,0,1,250,97a.86.86,0,0,1-.61-.25A.84.84,0,0,1,249.16,96.17Zm1.51,2.37v5.71h-1.31V98.54Z" fill="#221e1f"/><path d="M255.66,99.52l-1.09.58c-.17-.35-.38-.53-.64-.53a.45.45,0,0,0-.31.12.42.42,0,0,0-.13.31c0,.22.26.43.76.65a4.77,4.77,0,0,1,1.42.83,1.43,1.43,0,0,1,.36,1,1.78,1.78,0,0,1-.61,1.39A2.18,2.18,0,0,1,252,103l1.12-.52a2.33,2.33,0,0,0,.36.52.81.81,0,0,0,.57.23c.45,0,.67-.21.67-.61q0-.36-.51-.66l-.4-.19-.41-.2a2.25,2.25,0,0,1-.8-.56,1.38,1.38,0,0,1-.3-.92,1.64,1.64,0,0,1,.51-1.23,1.79,1.79,0,0,1,1.26-.48A1.71,1.71,0,0,1,255.66,99.52Z" fill="#221e1f"/><path d="M261.72,98.79v1.75a3.12,3.12,0,0,0-.81-.75,1.6,1.6,0,0,0-.83-.21,1.62,1.62,0,0,0-1.24.52,2,2,0,0,0,0,2.62,1.58,1.58,0,0,0,1.22.52,1.64,1.64,0,0,0,.84-.21,3.44,3.44,0,0,0,.83-.77V104a3.45,3.45,0,0,1-1.61.42,3.06,3.06,0,0,1-2.21-.86,2.84,2.84,0,0,1-.9-2.14,2.92,2.92,0,0,1,.91-2.16,3.06,3.06,0,0,1,2.21-.87A3.33,3.33,0,0,1,261.72,98.79Z" fill="#221e1f"/><path d="M263,96.17a.85.85,0,1,1,.25.62A.89.89,0,0,1,263,96.17Zm1.52,2.37v5.71h-1.32V98.54Z" fill="#221e1f"/><path d="M266.28,98.54h1.32v.53a2.17,2.17,0,0,1,1.56-.68,2,2,0,0,1,1.56.62,2.58,2.58,0,0,1,.48,1.74v3.5h-1.33v-3.19a2.12,2.12,0,0,0-.23-1.16.94.94,0,0,0-.83-.33,1,1,0,0,0-.94.43,3,3,0,0,0-.27,1.5v2.75h-1.32Z" fill="#221e1f"/><path d="M278.42,104.12c0,.27,0,.5,0,.71s0,.38-.07.54a2.53,2.53,0,0,1-.55,1.11,2.7,2.7,0,0,1-2.13.89,2.84,2.84,0,0,1-1.88-.62,2.5,2.5,0,0,1-.88-1.75h1.32a1.45,1.45,0,0,0,.26.65,1.39,1.39,0,0,0,1.19.53c1,0,1.45-.59,1.45-1.77v-.8a2.47,2.47,0,0,1-1.81.81,2.43,2.43,0,0,1-1.91-.85,3.12,3.12,0,0,1-.75-2.14,3.31,3.31,0,0,1,.69-2.12,2.42,2.42,0,0,1,2-.92,2.29,2.29,0,0,1,1.79.8v-.65h1.32Zm-1.27-2.71a1.94,1.94,0,0,0-.44-1.33,1.5,1.5,0,0,0-1.16-.51,1.39,1.39,0,0,0-1.18.56,2.3,2.3,0,0,0,0,2.56,1.4,1.4,0,0,0,1.18.55,1.48,1.48,0,0,0,1.2-.55A2,2,0,0,0,277.15,101.41Z" fill="#221e1f"/><path d="M289.72,101.71h-4.09a1.76,1.76,0,0,0,.46,1.12,1.42,1.42,0,0,0,1,.41,1.3,1.3,0,0,0,.81-.24,3.23,3.23,0,0,0,.72-.86l1.12.62a4.55,4.55,0,0,1-.55.75,3,3,0,0,1-.61.52,2.59,2.59,0,0,1-.71.29,3.63,3.63,0,0,1-.83.1,2.69,2.69,0,0,1-2.05-.83,3.1,3.1,0,0,1-.77-2.19,3.16,3.16,0,0,1,.75-2.19,2.57,2.57,0,0,1,2-.82,2.53,2.53,0,0,1,2,.8,3.14,3.14,0,0,1,.73,2.21Zm-1.35-1.08a1.26,1.26,0,0,0-1.33-1,1.33,1.33,0,0,0-.45.07,1.28,1.28,0,0,0-.38.21,1.18,1.18,0,0,0-.3.33,2,2,0,0,0-.19.44Z" fill="#221e1f"/><path d="M292.52,94.35v9.9H291.2v-9.9Z" fill="#221e1f"/><path d="M294.06,96.17a.87.87,0,0,1,.86-.85.86.86,0,0,1,.61.25.87.87,0,0,1,0,1.22.86.86,0,0,1-.61.25.84.84,0,0,1-.6-.25A.85.85,0,0,1,294.06,96.17Zm1.52,2.37v5.71h-1.32V98.54Z" fill="#221e1f"/><path d="M298.74,99.77v4.48h-1.32V99.77h-.56V98.54h.56V96.45h1.32v2.09h1v1.23Z" fill="#221e1f"/><path d="M300.65,103.59a.77.77,0,0,1,.24-.56.8.8,0,0,1,.58-.24.81.81,0,0,1,.57,1.39.81.81,0,0,1-1.15,0A.79.79,0,0,1,300.65,103.59Z" fill="#221e1f"/><path d="M308.85,104.25V94.59l6.6,6.9V95.2h1.36v9.6l-6.59-6.88v6.33Z" fill="#221e1f"/><path d="M320.08,98.54v3.28c0,.94.38,1.42,1.12,1.42s1.12-.48,1.12-1.42V98.54h1.32v3.31a3.72,3.72,0,0,1-.17,1.18,1.91,1.91,0,0,1-.57.8,2.73,2.73,0,0,1-3.39,0,1.94,1.94,0,0,1-.58-.8,3.24,3.24,0,0,1-.16-1.18V98.54Z" fill="#221e1f"/><path d="M326.67,94.35v9.9h-1.32v-9.9Z" fill="#221e1f"/><path d="M329.72,94.35v9.9H328.4v-9.9Z" fill="#221e1f"/><path d="M335.66,98.54H337v5.71h-1.32v-.6a2.55,2.55,0,0,1-1.76.77,2.5,2.5,0,0,1-1.95-.86,3.19,3.19,0,0,1-.77-2.18,3.09,3.09,0,0,1,.77-2.14,2.46,2.46,0,0,1,1.92-.85,2.43,2.43,0,0,1,1.79.82Zm-3.13,2.84a2,2,0,0,0,.44,1.34,1.46,1.46,0,0,0,1.13.52,1.51,1.51,0,0,0,1.19-.51,1.94,1.94,0,0,0,.45-1.32,2,2,0,0,0-.45-1.33,1.52,1.52,0,0,0-1.18-.5,1.45,1.45,0,0,0-1.13.51A1.91,1.91,0,0,0,332.53,101.38Z" fill="#221e1f"/><path d="M338.7,98.54H340v.53a3.25,3.25,0,0,1,.65-.54,1.54,1.54,0,0,1,.72-.14,1.74,1.74,0,0,1,1.53.84,2,2,0,0,1,1.68-.84c1.29,0,1.93.78,1.93,2.33v3.53h-1.32v-3.17a2.48,2.48,0,0,0-.2-1.16.72.72,0,0,0-.68-.34.85.85,0,0,0-.79.41,2.68,2.68,0,0,0-.25,1.31v3H342V101.1c0-1-.3-1.52-.88-1.52a.87.87,0,0,0-.81.41,2.6,2.6,0,0,0-.26,1.31v3H338.7Z" fill="#221e1f"/><path d="M352.66,98.54H354v.53a2.14,2.14,0,0,1,1.56-.68,2,2,0,0,1,1.55.62,2.58,2.58,0,0,1,.48,1.74v3.5h-1.32v-3.19A2,2,0,0,0,356,99.9a.94.94,0,0,0-.83-.33,1,1,0,0,0-.93.43,3,3,0,0,0-.27,1.5v2.75h-1.32Z" fill="#221e1f"/><path d="M359.07,96.17a.86.86,0,0,1,1.47-.6.87.87,0,0,1,0,1.22.86.86,0,0,1-.61.25.85.85,0,0,1-.86-.87Zm1.52,2.37v5.71h-1.32V98.54Z" fill="#221e1f"/><path d="M363.65,94.35v4.86a2.42,2.42,0,0,1,1.79-.82,2.44,2.44,0,0,1,1.92.86,3,3,0,0,1,.77,2.13,3.16,3.16,0,0,1-.77,2.18,2.5,2.5,0,0,1-1.94.86,2.47,2.47,0,0,1-1.77-.77v.6h-1.32v-9.9Zm3.13,7.09a2,2,0,0,0-.44-1.34,1.43,1.43,0,0,0-1.13-.52,1.55,1.55,0,0,0-1.19.5,2.18,2.18,0,0,0,0,2.65,1.49,1.49,0,0,0,1.17.51,1.45,1.45,0,0,0,1.14-.51A1.91,1.91,0,0,0,366.78,101.44Z" fill="#221e1f"/><path d="M369.59,94.35h1.32V99a2.25,2.25,0,0,1,1.55-.63A2,2,0,0,1,374,99a2.56,2.56,0,0,1,.5,1.74v3.5h-1.32v-3.37a1.65,1.65,0,0,0-.24-1,1,1,0,0,0-.79-.3,1.08,1.08,0,0,0-1,.42,3,3,0,0,0-.27,1.49v2.76h-1.32Z" fill="#221e1f"/><path d="M380.36,101.36a2.84,2.84,0,0,1,.88-2.11,3,3,0,0,1,2.16-.86,3,3,0,0,1,2.17.87,2.92,2.92,0,0,1,.87,2.14,2.87,2.87,0,0,1-.88,2.15,3,3,0,0,1-2.19.87,2.93,2.93,0,0,1-2.15-.88A3,3,0,0,1,380.36,101.36Zm1.34,0a1.94,1.94,0,0,0,.46,1.35,1.76,1.76,0,0,0,2.47,0,2.12,2.12,0,0,0,0-2.66,1.76,1.76,0,0,0-2.46,0A1.85,1.85,0,0,0,381.7,101.38Z" fill="#221e1f"/><path d="M392.07,94.35h1.32v9.9h-1.32v-.6a2.46,2.46,0,0,1-1.76.77,2.53,2.53,0,0,1-1.95-.86,3.19,3.19,0,0,1-.77-2.18,3.08,3.08,0,0,1,.77-2.13,2.44,2.44,0,0,1,1.92-.86,2.42,2.42,0,0,1,1.79.82Zm-3.13,7a2,2,0,0,0,.44,1.34,1.46,1.46,0,0,0,1.14.52,1.49,1.49,0,0,0,1.18-.51,1.94,1.94,0,0,0,.45-1.32,2,2,0,0,0-.45-1.33,1.51,1.51,0,0,0-1.17-.5,1.48,1.48,0,0,0-1.14.51A1.91,1.91,0,0,0,388.94,101.38Z" fill="#221e1f"/><path d="M394.92,96.17a.82.82,0,0,1,.25-.6.86.86,0,0,1,.6-.25.85.85,0,0,1,.61.25.85.85,0,0,1,0,1.22.82.82,0,0,1-.6.25.86.86,0,0,1-.61-.25A.84.84,0,0,1,394.92,96.17Zm1.52,2.37v5.71h-1.32V98.54Z" fill="#221e1f"/><path d="M397.84,101.36a2.84,2.84,0,0,1,.88-2.11,3,3,0,0,1,2.16-.86,3,3,0,0,1,2.17.87,2.93,2.93,0,0,1,.88,2.14,2.87,2.87,0,0,1-.89,2.15,3,3,0,0,1-2.19.87,2.93,2.93,0,0,1-2.15-.88A3,3,0,0,1,397.84,101.36Zm1.35,0a1.93,1.93,0,0,0,.45,1.35,1.76,1.76,0,0,0,2.47,0,2.12,2.12,0,0,0,0-2.66,1.76,1.76,0,0,0-2.46,0A1.85,1.85,0,0,0,399.19,101.38Z" fill="#221e1f"/><path d="M405.81,102.56,407,103l-1.67,3.35-.89-.37Z" fill="#221e1f"/><path d="M417.35,98.54h1.33v5.71h-1.33v-.6a2.51,2.51,0,0,1-1.75.77,2.54,2.54,0,0,1-2-.86,3.18,3.18,0,0,1-.76-2.18,3.08,3.08,0,0,1,.76-2.14,2.5,2.5,0,0,1,1.93-.85,2.4,2.4,0,0,1,1.78.82Zm-3.13,2.84a2,2,0,0,0,.44,1.34,1.46,1.46,0,0,0,1.14.52,1.49,1.49,0,0,0,1.18-.51,2,2,0,0,0,.46-1.32,2,2,0,0,0-.46-1.33,1.51,1.51,0,0,0-1.17-.5,1.45,1.45,0,0,0-1.13.51A1.87,1.87,0,0,0,414.22,101.38Z" fill="#221e1f"/><path d="M421.71,98.54v3.28c0,.94.37,1.42,1.12,1.42s1.12-.48,1.12-1.42V98.54h1.31v3.31a3.46,3.46,0,0,1-.17,1.18,1.89,1.89,0,0,1-.56.8,2.74,2.74,0,0,1-3.4,0,2,2,0,0,1-.58-.8,3.24,3.24,0,0,1-.16-1.18V98.54Z" fill="#221e1f"/><path d="M431.37,98.79v1.75a3,3,0,0,0-.81-.75,1.57,1.57,0,0,0-.83-.21,1.62,1.62,0,0,0-1.23.52,1.8,1.8,0,0,0-.49,1.3,1.84,1.84,0,0,0,.47,1.32,1.59,1.59,0,0,0,1.23.52,1.63,1.63,0,0,0,.83-.21,3.26,3.26,0,0,0,.83-.77V104a3.45,3.45,0,0,1-1.61.42,3.06,3.06,0,0,1-2.21-.86,2.87,2.87,0,0,1-.89-2.14,2.91,2.91,0,0,1,.9-2.16,3.07,3.07,0,0,1,2.22-.87A3.29,3.29,0,0,1,431.37,98.79Z" fill="#221e1f"/><path d="M434.32,99.77v4.48H433V99.77h-.56V98.54H433V96.45h1.32v2.09h1v1.23Z" fill="#221e1f"/><path d="M436,101.36a2.85,2.85,0,0,1,.89-2.11,2.93,2.93,0,0,1,2.15-.86,3,3,0,0,1,2.17.87,3,3,0,0,1,0,4.29,3,3,0,0,1-2.18.87,2.92,2.92,0,0,1-2.15-.88A3,3,0,0,1,436,101.36Zm1.35,0a1.89,1.89,0,0,0,.46,1.35,1.58,1.58,0,0,0,1.23.51,1.62,1.62,0,0,0,1.24-.5,2.15,2.15,0,0,0,0-2.66,1.6,1.6,0,0,0-1.24-.5,1.57,1.57,0,0,0-1.22.5A1.81,1.81,0,0,0,437.38,101.38Z" fill="#221e1f"/><path d="M443.54,98.54h1.32v.51a2.65,2.65,0,0,1,.64-.52,1.45,1.45,0,0,1,.68-.14,2.09,2.09,0,0,1,1.09.34l-.6,1.2a1.27,1.27,0,0,0-.74-.27c-.72,0-1.07.55-1.07,1.63v3h-1.32Z" fill="#221e1f"/><path d="M4.09,113.52,3,114.1c-.17-.35-.38-.53-.63-.53a.45.45,0,0,0-.32.12.43.43,0,0,0-.12.31c0,.22.25.44.76.65a4.55,4.55,0,0,1,1.41.83,1.45,1.45,0,0,1,.36,1,1.78,1.78,0,0,1-.61,1.38,2.07,2.07,0,0,1-1.43.53,2.08,2.08,0,0,1-2-1.4l1.13-.52a2.59,2.59,0,0,0,.35.52.81.81,0,0,0,.58.22c.44,0,.67-.2.67-.61,0-.23-.18-.45-.52-.65l-.4-.2-.4-.19A2.49,2.49,0,0,1,1,115a1.39,1.39,0,0,1-.3-.92,1.61,1.61,0,0,1,.51-1.23,1.77,1.77,0,0,1,1.26-.49A1.72,1.72,0,0,1,4.09,113.52Z" fill="#221e1f"/><path d="M7,112.55v3.27c0,1,.37,1.42,1.12,1.42s1.12-.47,1.12-1.42v-3.27h1.32v3.3a3.83,3.83,0,0,1-.17,1.19,2,2,0,0,1-.57.8,2.49,2.49,0,0,1-1.7.58,2.46,2.46,0,0,1-1.69-.58,2,2,0,0,1-.58-.8,3.26,3.26,0,0,1-.17-1.19v-3.3Z" fill="#221e1f"/><path d="M15.51,113.52l-1.09.58c-.17-.35-.38-.53-.63-.53a.41.41,0,0,0-.31.12.4.4,0,0,0-.13.31c0,.22.25.44.76.65a4.55,4.55,0,0,1,1.41.83,1.45,1.45,0,0,1,.36,1,1.78,1.78,0,0,1-.61,1.38,2.18,2.18,0,0,1-3.46-.87l1.13-.52a2.59,2.59,0,0,0,.35.52.82.82,0,0,0,.58.22c.44,0,.67-.2.67-.61,0-.23-.18-.45-.52-.65l-.4-.2-.4-.19a2.49,2.49,0,0,1-.81-.56,1.39,1.39,0,0,1-.3-.92,1.61,1.61,0,0,1,.51-1.23,1.77,1.77,0,0,1,1.27-.49A1.72,1.72,0,0,1,15.51,113.52Z" fill="#221e1f"/><path d="M21.57,112.79v1.76a3.21,3.21,0,0,0-.81-.76,1.73,1.73,0,0,0-2.06.31,1.83,1.83,0,0,0-.5,1.31,1.88,1.88,0,0,0,.48,1.32,1.61,1.61,0,0,0,1.22.51,1.74,1.74,0,0,0,.84-.2,3.34,3.34,0,0,0,.83-.78V118a3.45,3.45,0,0,1-1.61.42,3.06,3.06,0,0,1-2.21-.86,2.82,2.82,0,0,1-.89-2.14,2.88,2.88,0,0,1,.9-2.15,3,3,0,0,1,2.21-.88A3.3,3.3,0,0,1,21.57,112.79Z" fill="#221e1f"/><path d="M22.87,110.17a.87.87,0,0,1,.86-.84.82.82,0,0,1,.61.25.79.79,0,0,1,.25.6.85.85,0,0,1-.85.86.81.81,0,0,1-.61-.25A.84.84,0,0,1,22.87,110.17Zm1.52,2.38v5.7H23.07v-5.7Z" fill="#221e1f"/><path d="M27.45,121.36H26.13v-8.81h1.32v.62a2.5,2.5,0,0,1,3.71.09,3.42,3.42,0,0,1,0,4.31,2.46,2.46,0,0,1-1.92.85,2.49,2.49,0,0,1-1.8-.8Zm3.14-5.92a2,2,0,0,0-.45-1.34,1.43,1.43,0,0,0-1.14-.52,1.51,1.51,0,0,0-1.17.5,1.93,1.93,0,0,0-.45,1.33,2,2,0,0,0,.45,1.32,1.46,1.46,0,0,0,1.17.51,1.43,1.43,0,0,0,1.13-.51A1.92,1.92,0,0,0,30.59,115.44Z" fill="#221e1f"/><path d="M33.17,110.17a.79.79,0,0,1,.25-.59.86.86,0,0,1,1.21,0,.79.79,0,0,1,.25.6.82.82,0,0,1-.25.61.79.79,0,0,1-.6.25.85.85,0,0,1-.86-.87Zm1.51,2.38v5.7H33.37v-5.7Z" fill="#221e1f"/><path d="M37.84,113.78v4.47H36.53v-4.47H36v-1.23h.57v-2.09h1.31v2.09h1v1.23Z" fill="#221e1f"/><path d="M43.41,112.55h1.32v.53a2.5,2.5,0,0,1,.65-.54,1.54,1.54,0,0,1,.72-.15,1.76,1.76,0,0,1,1.53.84,2,2,0,0,1,1.68-.84c1.29,0,1.93.78,1.93,2.34v3.52H49.91v-3.17a2.38,2.38,0,0,0-.2-1.16.71.71,0,0,0-.67-.34.86.86,0,0,0-.79.41,2.58,2.58,0,0,0-.25,1.32v2.94H46.67V115.1c0-1-.29-1.52-.88-1.52A.88.88,0,0,0,45,114a2.57,2.57,0,0,0-.25,1.31v2.94H43.41Z" fill="#221e1f"/><path d="M52.63,115.36a2.83,2.83,0,0,1,.89-2.1,3.12,3.12,0,0,1,4.32,0,3.07,3.07,0,0,1,0,4.3,3.07,3.07,0,0,1-2.19.86,2.88,2.88,0,0,1-2.15-.88A3,3,0,0,1,52.63,115.36Zm1.35,0a1.92,1.92,0,0,0,.46,1.36,1.61,1.61,0,0,0,1.23.5,1.58,1.58,0,0,0,1.24-.5,1.86,1.86,0,0,0,.46-1.33,1.89,1.89,0,0,0-.46-1.33,1.76,1.76,0,0,0-2.46,0A1.85,1.85,0,0,0,54,115.38Z" fill="#221e1f"/><path d="M61.47,108.36v9.89H60.15v-9.89Z" fill="#221e1f"/><path d="M68.4,115.71H64.31a1.7,1.7,0,0,0,.45,1.12,1.55,1.55,0,0,0,1.86.18,3.49,3.49,0,0,0,.72-.87l1.11.62a4,4,0,0,1-.55.75,2.58,2.58,0,0,1-1.32.82,3.58,3.58,0,0,1-.83.09,2.68,2.68,0,0,1-2-.82,3.1,3.1,0,0,1-.77-2.19,3.13,3.13,0,0,1,.75-2.19,2.86,2.86,0,0,1,4,0,3.18,3.18,0,0,1,.72,2.21ZM67,114.63a1.25,1.25,0,0,0-1.33-1,1.33,1.33,0,0,0-.45.07,1.28,1.28,0,0,0-.38.21,1.55,1.55,0,0,0-.3.33,2,2,0,0,0-.19.44Z" fill="#221e1f"/><path d="M73.19,113.52l-1.09.58c-.17-.35-.38-.53-.64-.53a.45.45,0,0,0-.31.12A.4.4,0,0,0,71,114c0,.22.26.44.76.65a4.77,4.77,0,0,1,1.42.83,1.45,1.45,0,0,1,.36,1,1.78,1.78,0,0,1-.61,1.38,2.18,2.18,0,0,1-3.46-.87l1.12-.52A3,3,0,0,0,71,117a.8.8,0,0,0,.57.22c.45,0,.67-.2.67-.61,0-.23-.17-.45-.51-.65l-.4-.2-.41-.19a2.73,2.73,0,0,1-.81-.56,1.45,1.45,0,0,1-.29-.92,1.61,1.61,0,0,1,.51-1.23,1.79,1.79,0,0,1,2.89.64Z" fill="#221e1f"/><path d="M76.23,113.78v4.47H74.92v-4.47h-.57v-1.23h.57v-2.09h1.31v2.09h1v1.23Z" fill="#221e1f"/><path d="M78.06,110.17a.87.87,0,0,1,.86-.84.82.82,0,0,1,.61.25.79.79,0,0,1,.25.6.82.82,0,0,1-.25.61.86.86,0,0,1-1.21,0A.84.84,0,0,1,78.06,110.17Zm1.52,2.38v5.7H78.26v-5.7Z" fill="#221e1f"/><path d="M86.49,115.71H82.4a1.7,1.7,0,0,0,.45,1.12,1.42,1.42,0,0,0,1,.41,1.36,1.36,0,0,0,.81-.23,3.28,3.28,0,0,0,.73-.87l1.11.62a4,4,0,0,1-.55.75,2.58,2.58,0,0,1-1.32.82,3.58,3.58,0,0,1-.83.09,2.68,2.68,0,0,1-2-.82,3.1,3.1,0,0,1-.77-2.19,3.13,3.13,0,0,1,.75-2.19,2.86,2.86,0,0,1,4,0,3.18,3.18,0,0,1,.72,2.21Zm-1.36-1.08a1.25,1.25,0,0,0-1.33-1,1.33,1.33,0,0,0-.45.07,1.28,1.28,0,0,0-.38.21,1.55,1.55,0,0,0-.3.33,2,2,0,0,0-.19.44Z" fill="#221e1f"/><path d="M96.77,115.71H92.68a1.76,1.76,0,0,0,.45,1.12A1.55,1.55,0,0,0,95,117a3.49,3.49,0,0,0,.72-.87l1.11.62a4.52,4.52,0,0,1-.54.75,3.29,3.29,0,0,1-.62.52,2.81,2.81,0,0,1-.71.3,3.58,3.58,0,0,1-.83.09,2.68,2.68,0,0,1-2.05-.82,3.1,3.1,0,0,1-.77-2.19,3.13,3.13,0,0,1,.75-2.19,2.86,2.86,0,0,1,4,0,3.18,3.18,0,0,1,.72,2.21Zm-1.36-1.08a1.25,1.25,0,0,0-1.33-1,1.33,1.33,0,0,0-.45.07,1.28,1.28,0,0,0-.38.21,1.87,1.87,0,0,0-.3.33,1.57,1.57,0,0,0-.18.44Z" fill="#221e1f"/><path d="M99.53,112.55v3.27c0,1,.37,1.42,1.12,1.42s1.12-.47,1.12-1.42v-3.27h1.31v3.3a3.56,3.56,0,0,1-.17,1.19,2,2,0,0,1-.56.8,2.78,2.78,0,0,1-3.4,0,2.18,2.18,0,0,1-.58-.8,3.3,3.3,0,0,1-.16-1.19v-3.3Z" fill="#221e1f"/><path d="M105.27,116.56l1.18.46-1.67,3.34-.89-.36Z" fill="#221e1f"/><path d="M113.11,112.55v3.27c0,1,.38,1.42,1.12,1.42s1.12-.47,1.12-1.42v-3.27h1.32v3.3a3.83,3.83,0,0,1-.17,1.19,2,2,0,0,1-.57.8,2.77,2.77,0,0,1-3.39,0,2,2,0,0,1-.58-.8,3.26,3.26,0,0,1-.17-1.19v-3.3Z" fill="#221e1f"/><path d="M119.7,108.36v9.89h-1.32v-9.89Z" fill="#221e1f"/><path d="M122.75,108.36v9.89h-1.32v-9.89Z" fill="#221e1f"/><path d="M128.69,112.55H130v5.7h-1.32v-.59a2.54,2.54,0,0,1-1.76.76,2.5,2.5,0,0,1-2-.86,3.14,3.14,0,0,1-.77-2.18,3,3,0,0,1,.77-2.13,2.47,2.47,0,0,1,3.71,0Zm-3.13,2.83a2,2,0,0,0,.44,1.34,1.43,1.43,0,0,0,1.13.52,1.54,1.54,0,0,0,1.19-.5,2.18,2.18,0,0,0,0-2.65,1.51,1.51,0,0,0-1.18-.51,1.45,1.45,0,0,0-1.13.51A1.91,1.91,0,0,0,125.56,115.38Z" fill="#221e1f"/><path d="M131.73,112.55h1.32v.53a2.68,2.68,0,0,1,.65-.54,1.54,1.54,0,0,1,.72-.15,1.74,1.74,0,0,1,1.53.84,2,2,0,0,1,1.68-.84c1.29,0,1.93.78,1.93,2.34v3.52h-1.32v-3.17a2.51,2.51,0,0,0-.2-1.16.72.72,0,0,0-.68-.34.87.87,0,0,0-.79.41,2.58,2.58,0,0,0-.25,1.32v2.94H135V115.1c0-1-.3-1.52-.88-1.52a.88.88,0,0,0-.81.42,2.55,2.55,0,0,0-.26,1.31v2.94h-1.32Z" fill="#221e1f"/><path d="M145.67,112.79v1.76a3.21,3.21,0,0,0-.81-.76,1.73,1.73,0,0,0-2.06.31,1.83,1.83,0,0,0-.5,1.31,1.88,1.88,0,0,0,.48,1.32,1.61,1.61,0,0,0,1.22.51,1.74,1.74,0,0,0,.84-.2,3.52,3.52,0,0,0,.83-.78V118a3.45,3.45,0,0,1-1.61.42,3.06,3.06,0,0,1-2.21-.86,2.82,2.82,0,0,1-.89-2.14,2.88,2.88,0,0,1,.9-2.15,3,3,0,0,1,2.21-.88A3.3,3.3,0,0,1,145.67,112.79Z" fill="#221e1f"/><path d="M146.81,115.36a2.82,2.82,0,0,1,.88-2.1,3,3,0,0,1,2.16-.87,3,3,0,0,1,2.17.87,2.93,2.93,0,0,1,.87,2.15,2.9,2.9,0,0,1-.88,2.15,3,3,0,0,1-2.19.86,2.9,2.9,0,0,1-2.15-.88A3,3,0,0,1,146.81,115.36Zm1.34,0a2,2,0,0,0,.46,1.36,1.63,1.63,0,0,0,1.24.5,1.56,1.56,0,0,0,1.23-.5,1.86,1.86,0,0,0,.47-1.33,1.89,1.89,0,0,0-.47-1.33,1.76,1.76,0,0,0-2.46,0A1.85,1.85,0,0,0,148.15,115.38Z" fill="#221e1f"/><path d="M154.31,112.55h1.32v.51a2.26,2.26,0,0,1,.65-.52,1.42,1.42,0,0,1,.68-.15,2.12,2.12,0,0,1,1.09.34l-.61,1.21a1.25,1.25,0,0,0-.73-.27c-.72,0-1.08.54-1.08,1.63v3h-1.32Z" fill="#221e1f"/><path d="M160.29,121.36H159v-8.81h1.32v.62a2.44,2.44,0,0,1,1.77-.78,2.48,2.48,0,0,1,1.94.87,3.15,3.15,0,0,1,.77,2.17,3.09,3.09,0,0,1-.77,2.14,2.5,2.5,0,0,1-3.71.05Zm3.13-5.92a2,2,0,0,0-.44-1.34,1.43,1.43,0,0,0-1.14-.52,1.53,1.53,0,0,0-1.18.5,1.93,1.93,0,0,0-.45,1.33,2,2,0,0,0,.45,1.32,1.49,1.49,0,0,0,1.17.51,1.45,1.45,0,0,0,1.14-.51A1.91,1.91,0,0,0,163.42,115.44Z" fill="#221e1f"/><path d="M171.41,115.71h-4.09a1.71,1.71,0,0,0,.46,1.12,1.39,1.39,0,0,0,1,.41,1.42,1.42,0,0,0,.82-.23,3.49,3.49,0,0,0,.72-.87l1.11.62a4.52,4.52,0,0,1-.54.75,3,3,0,0,1-.62.52,2.81,2.81,0,0,1-.71.3,3.55,3.55,0,0,1-.82.09,2.67,2.67,0,0,1-2.05-.82,3.06,3.06,0,0,1-.78-2.19,3.13,3.13,0,0,1,.75-2.19,2.86,2.86,0,0,1,4,0,3.18,3.18,0,0,1,.73,2.21Zm-1.35-1.08a1.27,1.27,0,0,0-1.33-1,1.28,1.28,0,0,0-.84.28,1.81,1.81,0,0,0-.29.33,1.34,1.34,0,0,0-.19.44Z" fill="#221e1f"/><path d="M172.9,112.55h1.32v.51a2.24,2.24,0,0,1,.64-.52,1.45,1.45,0,0,1,.68-.15,2.09,2.09,0,0,1,1.09.34l-.6,1.21a1.27,1.27,0,0,0-.73-.27c-.72,0-1.08.54-1.08,1.63v3H172.9Z" fill="#221e1f"/><path d="M185.24,112.55h1.32v5.7h-1.32v-.59a2.53,2.53,0,0,1-3.71-.1,3.19,3.19,0,0,1-.77-2.18,3.08,3.08,0,0,1,.77-2.13,2.47,2.47,0,0,1,3.71,0Zm-3.13,2.83a2,2,0,0,0,.44,1.34,1.43,1.43,0,0,0,1.14.52,1.53,1.53,0,0,0,1.18-.5,2.18,2.18,0,0,0,0-2.65,1.49,1.49,0,0,0-1.17-.51,1.45,1.45,0,0,0-1.14.51A1.91,1.91,0,0,0,182.11,115.38Z" fill="#221e1f"/><path d="M192.69,112.79v1.76a3.21,3.21,0,0,0-.81-.76,1.56,1.56,0,0,0-.82-.21,1.62,1.62,0,0,0-1.24.52,1.82,1.82,0,0,0-.49,1.31,1.92,1.92,0,0,0,.47,1.32,1.61,1.61,0,0,0,1.23.51,1.8,1.8,0,0,0,.84-.2,3.33,3.33,0,0,0,.82-.78V118a3.42,3.42,0,0,1-1.6.42,3.07,3.07,0,0,1-2.22-.86,3,3,0,0,1,0-4.29,3,3,0,0,1,2.22-.88A3.29,3.29,0,0,1,192.69,112.79Z" fill="#221e1f"/><path d="M200.92,113.52l-1.09.58c-.18-.35-.39-.53-.64-.53a.43.43,0,0,0-.31.12.4.4,0,0,0-.13.31c0,.22.25.44.76.65a4.55,4.55,0,0,1,1.41.83,1.46,1.46,0,0,1,.37,1,1.81,1.81,0,0,1-.61,1.38,2.11,2.11,0,0,1-1.43.53,2.09,2.09,0,0,1-2-1.4l1.13-.52a2.16,2.16,0,0,0,.36.52.8.8,0,0,0,.57.22c.44,0,.67-.2.67-.61,0-.23-.17-.45-.52-.65l-.4-.2-.4-.19a2.73,2.73,0,0,1-.81-.56,1.39,1.39,0,0,1-.3-.92,1.61,1.61,0,0,1,.51-1.23,1.77,1.77,0,0,1,1.27-.49A1.74,1.74,0,0,1,200.92,113.52Z" fill="#221e1f"/><path d="M207.74,115.71h-4.09a1.71,1.71,0,0,0,.46,1.12,1.39,1.39,0,0,0,1,.41A1.42,1.42,0,0,0,206,117a3.49,3.49,0,0,0,.72-.87l1.11.62a4.52,4.52,0,0,1-.54.75,3.29,3.29,0,0,1-.62.52,2.81,2.81,0,0,1-.71.3,3.55,3.55,0,0,1-.82.09,2.69,2.69,0,0,1-2.06-.82,3.1,3.1,0,0,1-.77-2.19,3.13,3.13,0,0,1,.75-2.19,2.86,2.86,0,0,1,4,0,3.18,3.18,0,0,1,.72,2.21Zm-1.36-1.08a1.25,1.25,0,0,0-1.33-1,1.33,1.33,0,0,0-.45.07,1.28,1.28,0,0,0-.38.21,1.87,1.87,0,0,0-.3.33,1.57,1.57,0,0,0-.18.44Z" fill="#221e1f"/><path d="M209.23,112.55h1.32v.53a2.5,2.5,0,0,1,.65-.54,1.54,1.54,0,0,1,.72-.15,1.76,1.76,0,0,1,1.53.84,2,2,0,0,1,1.68-.84c1.28,0,1.93.78,1.93,2.34v3.52h-1.33v-3.17a2.38,2.38,0,0,0-.2-1.16.71.71,0,0,0-.67-.34.88.88,0,0,0-.8.41,2.71,2.71,0,0,0-.24,1.32v2.94h-1.33V115.1c0-1-.29-1.52-.88-1.52a.88.88,0,0,0-.81.42,2.57,2.57,0,0,0-.25,1.31v2.94h-1.32Z" fill="#221e1f"/><path d="M218.85,117.6a.82.82,0,1,1,1.39.58.82.82,0,0,1-1.39-.58Z" fill="#221e1f"/><path d="M226.23,118.25v-9h1.9a6.94,6.94,0,0,1,2.16.27,4,4,0,0,1,1.54.89,4.35,4.35,0,0,1,1.4,3.36,4.39,4.39,0,0,1-3,4.27,7,7,0,0,1-2.13.25ZM227.6,117h.61a5.06,5.06,0,0,0,1.53-.19,3.28,3.28,0,0,0,1.11-.65,3.1,3.1,0,0,0,1-2.4,3.14,3.14,0,0,0-1-2.41,3.79,3.79,0,0,0-2.65-.83h-.61Z" fill="#221e1f"/><path d="M234.43,115.36a2.82,2.82,0,0,1,.88-2.1,3.12,3.12,0,0,1,4.32,0,3.07,3.07,0,0,1,0,4.3,3,3,0,0,1-2.19.86,2.9,2.9,0,0,1-2.15-.88A2.94,2.94,0,0,1,234.43,115.36Zm1.34,0a2,2,0,0,0,.46,1.36,1.62,1.62,0,0,0,1.24.5,1.58,1.58,0,0,0,1.23-.5,1.86,1.86,0,0,0,.47-1.33,1.89,1.89,0,0,0-.47-1.33,1.76,1.76,0,0,0-2.46,0A1.85,1.85,0,0,0,235.77,115.38Z" fill="#221e1f"/><path d="M241.93,112.55h1.33v.53a2.15,2.15,0,0,1,1.55-.69,2,2,0,0,1,1.56.63,2.55,2.55,0,0,1,.48,1.74v3.49h-1.33v-3.18a2.07,2.07,0,0,0-.23-1.17.94.94,0,0,0-.83-.33,1,1,0,0,0-.93.44,3,3,0,0,0-.27,1.49v2.75h-1.33Z" fill="#221e1f"/><path d="M253.75,115.71h-4.09a1.7,1.7,0,0,0,.45,1.12,1.42,1.42,0,0,0,1,.41A1.36,1.36,0,0,0,252,117a3.29,3.29,0,0,0,.72-.87l1.12.62a4.55,4.55,0,0,1-.55.75,2.58,2.58,0,0,1-1.32.82,3.64,3.64,0,0,1-.83.09,2.68,2.68,0,0,1-2-.82,3.1,3.1,0,0,1-.77-2.19,3.13,3.13,0,0,1,.75-2.19,2.85,2.85,0,0,1,4,0,3.14,3.14,0,0,1,.73,2.21Zm-1.36-1.08a1.26,1.26,0,0,0-1.33-1,1.33,1.33,0,0,0-.45.07,1.28,1.28,0,0,0-.38.21,1.55,1.55,0,0,0-.3.33,2,2,0,0,0-.19.44Z" fill="#221e1f"/><path d="M259.63,112.79v1.76a3.21,3.21,0,0,0-.81-.76,1.73,1.73,0,0,0-2.06.31,1.83,1.83,0,0,0-.5,1.31,1.88,1.88,0,0,0,.48,1.32,1.61,1.61,0,0,0,1.22.51,1.74,1.74,0,0,0,.84-.2,3.34,3.34,0,0,0,.83-.78V118a3.45,3.45,0,0,1-1.61.42,3.06,3.06,0,0,1-2.21-.86,2.82,2.82,0,0,1-.89-2.14,2.88,2.88,0,0,1,.9-2.15,3,3,0,0,1,2.21-.88A3.3,3.3,0,0,1,259.63,112.79Z" fill="#221e1f"/><path d="M265.87,108.36v9.89h-1.32v-9.89Z" fill="#221e1f"/><path d="M271.8,112.55h1.33v5.7H271.8v-.59a2.5,2.5,0,0,1-1.75.76,2.54,2.54,0,0,1-2-.86,3.18,3.18,0,0,1-.76-2.18,3.07,3.07,0,0,1,.76-2.13,2.47,2.47,0,0,1,1.93-.86,2.4,2.4,0,0,1,1.78.82Zm-3.13,2.83a2,2,0,0,0,.44,1.34,1.45,1.45,0,0,0,1.14.52,1.52,1.52,0,0,0,1.18-.5,2.14,2.14,0,0,0,0-2.65,1.49,1.49,0,0,0-1.17-.51,1.45,1.45,0,0,0-1.13.51A1.92,1.92,0,0,0,268.67,115.38Z" fill="#221e1f"/><path d="M274.55,115.36a2.82,2.82,0,0,1,.88-2.1,3,3,0,0,1,2.16-.87,3,3,0,0,1,2.17.87,2.93,2.93,0,0,1,.87,2.15,2.9,2.9,0,0,1-.88,2.15,3,3,0,0,1-2.19.86,2.9,2.9,0,0,1-2.15-.88A3,3,0,0,1,274.55,115.36Zm1.34,0a2,2,0,0,0,.46,1.36,1.63,1.63,0,0,0,1.24.5,1.56,1.56,0,0,0,1.23-.5,1.86,1.86,0,0,0,.47-1.33,1.89,1.89,0,0,0-.47-1.33,1.76,1.76,0,0,0-2.46,0A1.85,1.85,0,0,0,275.89,115.38Z" fill="#221e1f"/><path d="M282.05,112.55h1.32v.51a2.26,2.26,0,0,1,.65-.52,1.42,1.42,0,0,1,.68-.15,2.12,2.12,0,0,1,1.09.34l-.61,1.21a1.25,1.25,0,0,0-.73-.27c-.72,0-1.08.54-1.08,1.63v3h-1.32Z" fill="#221e1f"/><path d="M291.68,115.71h-4.09a1.71,1.71,0,0,0,.46,1.12,1.39,1.39,0,0,0,1,.41,1.42,1.42,0,0,0,.82-.23,3.49,3.49,0,0,0,.72-.87l1.11.62a4.52,4.52,0,0,1-.54.75,3,3,0,0,1-.62.52,2.81,2.81,0,0,1-.71.3,3.55,3.55,0,0,1-.82.09,2.65,2.65,0,0,1-2.05-.82,3.06,3.06,0,0,1-.78-2.19,3.13,3.13,0,0,1,.75-2.19,2.86,2.86,0,0,1,4,0,3.18,3.18,0,0,1,.72,2.21Zm-1.35-1.08a1.27,1.27,0,0,0-1.33-1,1.35,1.35,0,0,0-.46.07,1.41,1.41,0,0,0-.38.21,1.87,1.87,0,0,0-.3.33,1.57,1.57,0,0,0-.18.44Z" fill="#221e1f"/><path d="M298.34,115.71h-4.09a1.76,1.76,0,0,0,.46,1.12,1.4,1.4,0,0,0,1,.41,1.38,1.38,0,0,0,.81-.23,3.49,3.49,0,0,0,.72-.87l1.11.62a4.52,4.52,0,0,1-.54.75,3,3,0,0,1-.62.52,2.66,2.66,0,0,1-.71.3,3.49,3.49,0,0,1-.82.09,2.67,2.67,0,0,1-2.05-.82,3.06,3.06,0,0,1-.78-2.19,3.13,3.13,0,0,1,.75-2.19,2.62,2.62,0,0,1,2-.83,2.58,2.58,0,0,1,2,.8,3.18,3.18,0,0,1,.73,2.21ZM297,114.63a1.27,1.27,0,0,0-1.33-1,1.33,1.33,0,0,0-.45.07,1.47,1.47,0,0,0-.39.21,1.81,1.81,0,0,0-.29.33,1.34,1.34,0,0,0-.19.44Z" fill="#221e1f"/><path d="M301.2,113.78v4.47h-1.32v-4.47h-.56v-1.23h.56v-2.09h1.32v2.09h1v1.23Z" fill="#221e1f"/><path d="M308.13,113.78v4.47h-1.32v-4.47h-.56v-1.23h.56v-2.09h1.32v2.09h1v1.23Z" fill="#221e1f"/><path d="M315.34,115.71h-4.09a1.76,1.76,0,0,0,.46,1.12,1.4,1.4,0,0,0,1,.41,1.38,1.38,0,0,0,.81-.23,3.49,3.49,0,0,0,.72-.87l1.11.62a4.52,4.52,0,0,1-.54.75,3,3,0,0,1-.62.52,2.66,2.66,0,0,1-.71.3,3.49,3.49,0,0,1-.82.09,2.67,2.67,0,0,1-2.05-.82,3.06,3.06,0,0,1-.78-2.19,3.13,3.13,0,0,1,.75-2.19,2.62,2.62,0,0,1,2-.83,2.58,2.58,0,0,1,2,.8,3.18,3.18,0,0,1,.73,2.21ZM314,114.63a1.27,1.27,0,0,0-1.33-1,1.33,1.33,0,0,0-.45.07,1.47,1.47,0,0,0-.39.21,1.81,1.81,0,0,0-.29.33,1.34,1.34,0,0,0-.19.44Z" fill="#221e1f"/><path d="M316.83,112.55h1.32v.53a2.5,2.5,0,0,1,.65-.54,1.54,1.54,0,0,1,.72-.15,1.75,1.75,0,0,1,1.53.84,2,2,0,0,1,1.68-.84c1.29,0,1.93.78,1.93,2.34v3.52h-1.33v-3.17a2.53,2.53,0,0,0-.19-1.16.74.74,0,0,0-.68-.34.86.86,0,0,0-.79.41,2.58,2.58,0,0,0-.25,1.32v2.94h-1.33V115.1c0-1-.29-1.52-.87-1.52a.88.88,0,0,0-.82.42,2.57,2.57,0,0,0-.25,1.31v2.94h-1.32Z" fill="#221e1f"/><path d="M327.69,121.36h-1.32v-8.81h1.32v.62a2.44,2.44,0,0,1,1.77-.78,2.48,2.48,0,0,1,1.94.87,3.15,3.15,0,0,1,.77,2.17,3,3,0,0,1-.77,2.14,2.43,2.43,0,0,1-1.92.85,2.47,2.47,0,0,1-1.79-.8Zm3.13-5.92a2,2,0,0,0-.44-1.34,1.43,1.43,0,0,0-1.14-.52,1.55,1.55,0,0,0-1.18.5,1.93,1.93,0,0,0-.45,1.33,2,2,0,0,0,.45,1.32,1.49,1.49,0,0,0,1.18.51,1.45,1.45,0,0,0,1.13-.51A1.91,1.91,0,0,0,330.82,115.44Z" fill="#221e1f"/><path d="M333.31,115.36a2.82,2.82,0,0,1,.88-2.1,3,3,0,0,1,2.16-.87,3,3,0,0,1,2.17.87,2.93,2.93,0,0,1,.88,2.15,2.9,2.9,0,0,1-.89,2.15,3,3,0,0,1-2.18.86,2.87,2.87,0,0,1-2.15-.88A3,3,0,0,1,333.31,115.36Zm1.35,0a2,2,0,0,0,.45,1.36,1.65,1.65,0,0,0,1.24.5,1.58,1.58,0,0,0,1.24-.5,1.9,1.9,0,0,0,.46-1.33,1.94,1.94,0,0,0-.46-1.33,1.78,1.78,0,0,0-2.47,0A1.85,1.85,0,0,0,334.66,115.38Z" fill="#221e1f"/><path d="M340.82,112.55h1.31v.51a2.4,2.4,0,0,1,.65-.52,1.45,1.45,0,0,1,.68-.15,2.09,2.09,0,0,1,1.09.34l-.61,1.21a1.25,1.25,0,0,0-.73-.27c-.72,0-1.08.54-1.08,1.63v3h-1.31Z" fill="#221e1f"/><path d="M350.27,108.36v9.89H349v-9.89Z" fill="#221e1f"/><path d="M351.7,115.36a2.83,2.83,0,0,1,.89-2.1,2.94,2.94,0,0,1,2.15-.87,3,3,0,0,1,2.17.87,3.05,3.05,0,0,1,0,4.3,3,3,0,0,1-2.18.86,2.88,2.88,0,0,1-2.15-.88A3,3,0,0,1,351.7,115.36Zm1.35,0a1.92,1.92,0,0,0,.46,1.36,1.61,1.61,0,0,0,1.23.5,1.58,1.58,0,0,0,1.24-.5,1.86,1.86,0,0,0,.46-1.33,1.89,1.89,0,0,0-.46-1.33,1.63,1.63,0,0,0-1.24-.5,1.61,1.61,0,0,0-1.22.5A1.85,1.85,0,0,0,353.05,115.38Z" fill="#221e1f"/><path d="M359.21,112.55h1.32v.51a2.24,2.24,0,0,1,.64-.52,1.45,1.45,0,0,1,.68-.15,2.09,2.09,0,0,1,1.09.34l-.6,1.21a1.27,1.27,0,0,0-.74-.27c-.71,0-1.07.54-1.07,1.63v3h-1.32Z" fill="#221e1f"/><path d="M368.83,115.71h-4.09a1.76,1.76,0,0,0,.46,1.12,1.42,1.42,0,0,0,1,.41,1.36,1.36,0,0,0,.81-.23,3.49,3.49,0,0,0,.72-.87l1.12.62a5.21,5.21,0,0,1-.55.75,3.24,3.24,0,0,1-.61.52,3,3,0,0,1-.71.3,3.64,3.64,0,0,1-.83.09,2.68,2.68,0,0,1-2.05-.82,3.05,3.05,0,0,1-.77-2.19,3.13,3.13,0,0,1,.75-2.19,2.85,2.85,0,0,1,4,0,3.14,3.14,0,0,1,.73,2.21Zm-1.35-1.08a1.26,1.26,0,0,0-1.33-1,1.33,1.33,0,0,0-.45.07,1.47,1.47,0,0,0-.39.21,1.81,1.81,0,0,0-.29.33,1.58,1.58,0,0,0-.19.44Z" fill="#221e1f"/><path d="M370.32,112.55h1.32v.53a2.68,2.68,0,0,1,.65-.54,1.54,1.54,0,0,1,.72-.15,1.74,1.74,0,0,1,1.53.84,2,2,0,0,1,1.68-.84c1.29,0,1.93.78,1.93,2.34v3.52h-1.32v-3.17a2.51,2.51,0,0,0-.2-1.16.72.72,0,0,0-.68-.34.87.87,0,0,0-.79.41,2.58,2.58,0,0,0-.25,1.32v2.94h-1.32V115.1c0-1-.3-1.52-.88-1.52a.88.88,0,0,0-.81.42,2.55,2.55,0,0,0-.26,1.31v2.94h-1.32Z" fill="#221e1f"/><path d="M380.52,116.56l1.17.46L380,120.36l-.89-.36Z" fill="#221e1f"/><path d="M388.36,112.55v3.27c0,1,.37,1.42,1.12,1.42s1.12-.47,1.12-1.42v-3.27h1.32v3.3a3.83,3.83,0,0,1-.17,1.19,2,2,0,0,1-.57.8,2.49,2.49,0,0,1-1.7.58,2.44,2.44,0,0,1-1.69-.58,2,2,0,0,1-.58-.8,3.26,3.26,0,0,1-.17-1.19v-3.3Z" fill="#221e1f"/><path d="M395.07,113.78v4.47h-1.32v-4.47h-.56v-1.23h.56v-2.09h1.32v2.09h1v1.23Z" fill="#221e1f"/><path d="M400.44,110.17a.79.79,0,0,1,.25-.59.86.86,0,0,1,1.21,0,.79.79,0,0,1,.25.6.82.82,0,0,1-.25.61.79.79,0,0,1-.6.25.85.85,0,0,1-.86-.87Zm1.52,2.38v5.7h-1.32v-5.7Z" fill="#221e1f"/><path d="M403.7,112.55H405v.53a2.15,2.15,0,0,1,1.56-.69,2,2,0,0,1,1.55.63,2.55,2.55,0,0,1,.48,1.74v3.49h-1.32v-3.18a2.06,2.06,0,0,0-.24-1.17.94.94,0,0,0-.83-.33,1,1,0,0,0-.93.44,3,3,0,0,0-.27,1.49v2.75H403.7Z" fill="#221e1f"/><path d="M411.73,113.78v4.47h-1.32v-4.47h-.56v-1.23h.56v-2.09h1.32v2.09h1v1.23Z" fill="#221e1f"/><path d="M419,115.71h-4.09a1.76,1.76,0,0,0,.45,1.12,1.55,1.55,0,0,0,1.86.18,3.49,3.49,0,0,0,.72-.87l1.11.62a4.52,4.52,0,0,1-.54.75,3.29,3.29,0,0,1-.62.52,2.81,2.81,0,0,1-.71.3,3.55,3.55,0,0,1-.82.09,2.69,2.69,0,0,1-2.06-.82,3.1,3.1,0,0,1-.77-2.19,3.13,3.13,0,0,1,.75-2.19,2.86,2.86,0,0,1,4,0,3.18,3.18,0,0,1,.72,2.21Zm-1.36-1.08a1.25,1.25,0,0,0-1.33-1,1.33,1.33,0,0,0-.45.07,1.28,1.28,0,0,0-.38.21,1.87,1.87,0,0,0-.3.33,1.57,1.57,0,0,0-.18.44Z" fill="#221e1f"/><path d="M420.44,112.55h1.32v.51a2.24,2.24,0,0,1,.64-.52,1.45,1.45,0,0,1,.68-.15,2.09,2.09,0,0,1,1.09.34l-.6,1.21a1.27,1.27,0,0,0-.74-.27c-.72,0-1.07.54-1.07,1.63v3h-1.32Z" fill="#221e1f"/><path d="M429.06,108.36h1.32v9.89h-1.32v-.59a2.45,2.45,0,0,1-1.76.76,2.53,2.53,0,0,1-1.95-.86,3.19,3.19,0,0,1-.77-2.18,3.08,3.08,0,0,1,.77-2.13,2.47,2.47,0,0,1,1.92-.86,2.42,2.42,0,0,1,1.79.82Zm-3.13,7a2,2,0,0,0,.44,1.34,1.43,1.43,0,0,0,1.14.52,1.52,1.52,0,0,0,1.18-.5,2.18,2.18,0,0,0,0-2.65,1.56,1.56,0,0,0-2.31,0A1.91,1.91,0,0,0,425.93,115.38Z" fill="#221e1f"/><path d="M433.42,112.55v3.27c0,1,.37,1.42,1.11,1.42s1.12-.47,1.12-1.42v-3.27H437v3.3a3.56,3.56,0,0,1-.17,1.19,2,2,0,0,1-.57.8,2.77,2.77,0,0,1-3.39,0,2.07,2.07,0,0,1-.58-.8,3.3,3.3,0,0,1-.16-1.19v-3.3Z" fill="#221e1f"/><path d="M438.68,112.55H440v.53a2.68,2.68,0,0,1,.65-.54,1.54,1.54,0,0,1,.72-.15,1.74,1.74,0,0,1,1.53.84,2,2,0,0,1,1.68-.84c1.29,0,1.93.78,1.93,2.34v3.52h-1.32v-3.17a2.51,2.51,0,0,0-.2-1.16.72.72,0,0,0-.68-.34.87.87,0,0,0-.79.41,2.58,2.58,0,0,0-.25,1.32v2.94H442V115.1c0-1-.3-1.52-.88-1.52a.88.88,0,0,0-.81.42,2.55,2.55,0,0,0-.26,1.31v2.94h-1.32Z" fill="#221e1f"/><path d="M5,126.55H6.31v5.71H5v-.6a2.53,2.53,0,0,1-3.7-.09,3.14,3.14,0,0,1-.77-2.18,3,3,0,0,1,.77-2.14,2.47,2.47,0,0,1,1.92-.86,2.43,2.43,0,0,1,1.78.82Zm-3.12,2.84a2,2,0,0,0,.43,1.33,1.46,1.46,0,0,0,1.14.53,1.53,1.53,0,0,0,1.19-.51,2.18,2.18,0,0,0,0-2.65,1.52,1.52,0,0,0-1.18-.51,1.43,1.43,0,0,0-1.13.52A1.91,1.91,0,0,0,1.86,129.39Z" fill="#221e1f"/><path d="M8,126.55H9.35v.51a2.44,2.44,0,0,1,.65-.52,1.42,1.42,0,0,1,.68-.15,2.22,2.22,0,0,1,1.09.34l-.61,1.21a1.25,1.25,0,0,0-.73-.27c-.72,0-1.08.54-1.08,1.63v3H8Z" fill="#221e1f"/><path d="M16.85,126.8v1.75a3.38,3.38,0,0,0-.8-.76,1.6,1.6,0,0,0-.83-.21,1.66,1.66,0,0,0-1.24.52,1.88,1.88,0,0,0-.49,1.31,1.85,1.85,0,0,0,.48,1.32,1.6,1.6,0,0,0,1.22.52A1.64,1.64,0,0,0,16,131a3.26,3.26,0,0,0,.82-.77V132a3.52,3.52,0,0,1-1.6.41,3.1,3.1,0,0,1-2.22-.85,3,3,0,0,1,0-4.3,3.07,3.07,0,0,1,2.21-.88A3.3,3.3,0,0,1,16.85,126.8Z" fill="#221e1f"/><path d="M19.65,126.55v3.28c0,.94.38,1.42,1.12,1.42s1.12-.48,1.12-1.42v-3.28h1.32v3.31A3.77,3.77,0,0,1,23,131a2,2,0,0,1-.57.8,2.77,2.77,0,0,1-3.39,0,2,2,0,0,1-.58-.8,3.27,3.27,0,0,1-.16-1.18v-3.31Z" fill="#221e1f"/><path d="M29.64,127.78v4.48H28.32v-4.48h-.56v-1.23h.56v-2.09h1.32v2.09h1v1.23Z" fill="#221e1f"/><path d="M36.85,129.72H32.76a1.74,1.74,0,0,0,.46,1.11,1.37,1.37,0,0,0,1,.42,1.32,1.32,0,0,0,.81-.24,3.31,3.31,0,0,0,.72-.87l1.12.62a4.82,4.82,0,0,1-.55.76,2.85,2.85,0,0,1-.61.51,2.34,2.34,0,0,1-.71.3,3.64,3.64,0,0,1-.83.09,2.67,2.67,0,0,1-2.05-.82,3.05,3.05,0,0,1-.77-2.19,3.16,3.16,0,0,1,.75-2.19,2.58,2.58,0,0,1,2-.83,2.55,2.55,0,0,1,2,.81,3.12,3.12,0,0,1,.73,2.21Zm-1.35-1.08a1.26,1.26,0,0,0-1.33-1.06,1.33,1.33,0,0,0-.45.08,1.47,1.47,0,0,0-.39.21,1.32,1.32,0,0,0-.29.33,1.46,1.46,0,0,0-.19.44Z" fill="#221e1f"/><path d="M38.34,126.55h1.32v.53a2.5,2.5,0,0,1,.65-.54,1.54,1.54,0,0,1,.72-.15,1.73,1.73,0,0,1,1.53.85,2,2,0,0,1,1.68-.85c1.29,0,1.93.78,1.93,2.34v3.53H44.85v-3.17a2.48,2.48,0,0,0-.2-1.16.73.73,0,0,0-.68-.35.86.86,0,0,0-.79.41,2.63,2.63,0,0,0-.25,1.32v2.95H41.61v-3.15c0-1-.3-1.53-.88-1.53a.87.87,0,0,0-.81.42,2.58,2.58,0,0,0-.26,1.31v2.95H38.34Z" fill="#221e1f"/><path d="M49.2,135.36H47.88v-8.81H49.2v.62a2.44,2.44,0,0,1,1.77-.78,2.48,2.48,0,0,1,1.94.87,3.15,3.15,0,0,1,.77,2.17,3.08,3.08,0,0,1-.76,2.14,2.51,2.51,0,0,1-3.72.05Zm3.13-5.92a2,2,0,0,0-.44-1.34,1.46,1.46,0,0,0-1.14-.52,1.49,1.49,0,0,0-1.17.51,1.85,1.85,0,0,0-.46,1.32,1.92,1.92,0,0,0,.46,1.33,1.54,1.54,0,0,0,2.3,0A1.88,1.88,0,0,0,52.33,129.44Z" fill="#221e1f"/><path d="M54.82,129.36a2.83,2.83,0,0,1,.88-2.1,3.12,3.12,0,0,1,4.33,0,3,3,0,0,1,0,4.29,3,3,0,0,1-2.18.86,2.88,2.88,0,0,1-2.15-.88A2.93,2.93,0,0,1,54.82,129.36Zm1.35,0a1.93,1.93,0,0,0,.45,1.35,1.77,1.77,0,0,0,2.48,0,2.15,2.15,0,0,0,0-2.66,1.62,1.62,0,0,0-1.24-.51,1.58,1.58,0,0,0-1.22.51A1.79,1.79,0,0,0,56.17,129.39Z" fill="#221e1f"/><path d="M62.33,126.55h1.31v.51a2.61,2.61,0,0,1,.65-.52,1.45,1.45,0,0,1,.68-.15,2.19,2.19,0,0,1,1.09.34l-.6,1.21a1.27,1.27,0,0,0-.74-.27c-.72,0-1.08.54-1.08,1.63v3H62.33Z" fill="#221e1f"/><path d="M70.93,126.55l1.47,3.21,1.47-3.21h1.49l-3,6.1-2.94-6.1Z" fill="#221e1f"/><path d="M76.16,124.18a.86.86,0,0,1,1.71,0,.81.81,0,0,1-.25.61.79.79,0,0,1-.6.26.83.83,0,0,1-.61-.26A.81.81,0,0,1,76.16,124.18Zm1.51,2.37v5.71H76.35v-5.71Z" fill="#221e1f"/><path d="M80.83,127.78v4.48H79.52v-4.48H79v-1.23h.57v-2.09h1.31v2.09h1v1.23Z" fill="#221e1f"/><path d="M87.05,126.55h1.32v5.71H87.05v-.6a2.54,2.54,0,0,1-3.71-.09,3.19,3.19,0,0,1-.77-2.18,3.09,3.09,0,0,1,.77-2.14,2.47,2.47,0,0,1,3.71,0Zm-3.13,2.84a1.94,1.94,0,0,0,.44,1.33,1.44,1.44,0,0,0,1.13.53,1.51,1.51,0,0,0,1.19-.51,2.18,2.18,0,0,0,0-2.65,1.49,1.49,0,0,0-1.17-.51,1.43,1.43,0,0,0-1.14.52A1.91,1.91,0,0,0,83.92,129.39Z" fill="#221e1f"/><path d="M95.31,129.72H91.22a1.68,1.68,0,0,0,.45,1.11,1.39,1.39,0,0,0,1,.42,1.3,1.3,0,0,0,.81-.24,3.13,3.13,0,0,0,.72-.87l1.12.62a4.26,4.26,0,0,1-.55.76,2.63,2.63,0,0,1-.61.51,2.34,2.34,0,0,1-.71.3,3.64,3.64,0,0,1-.83.09,2.68,2.68,0,0,1-2-.82,3.1,3.1,0,0,1-.77-2.19,3.16,3.16,0,0,1,.75-2.19,2.58,2.58,0,0,1,2-.83,2.53,2.53,0,0,1,2,.81,3.12,3.12,0,0,1,.73,2.21ZM94,128.64a1.26,1.26,0,0,0-1.33-1.06,1.33,1.33,0,0,0-.45.08,1.28,1.28,0,0,0-.38.21,1.18,1.18,0,0,0-.3.33,1.77,1.77,0,0,0-.19.44Z" fill="#221e1f"/><path d="M96.78,131.6A.78.78,0,0,1,97,131a.8.8,0,0,1,.58-.24.78.78,0,0,1,.57.24.82.82,0,0,1,0,1.16.82.82,0,0,1-1.39-.59Z" fill="#221e1f"/><path d="M105.29,123.21v5.45a3,3,0,0,0,.38,1.71,2,2,0,0,0,3.21,0,3,3,0,0,0,.38-1.71v-5.45h1.36V129a3.23,3.23,0,0,1-.89,2.35,3.29,3.29,0,0,1-2.46,1,3.29,3.29,0,0,1-3.35-3.38v-5.83Z" fill="#221e1f"/><path d="M114,127.78v4.48h-1.32v-4.48h-.56v-1.23h.56v-2.09H114v2.09h1v1.23Z" fill="#221e1f"/><path d="M122.6,127.52l-1.09.58c-.17-.35-.39-.52-.64-.52a.45.45,0,0,0-.31.12.38.38,0,0,0-.13.3c0,.22.25.44.76.66a4.36,4.36,0,0,1,1.41.83,1.38,1.38,0,0,1,.37,1,1.85,1.85,0,0,1-.61,1.39,2.08,2.08,0,0,1-1.43.52,2.05,2.05,0,0,1-2-1.4l1.12-.52a2.61,2.61,0,0,0,.36.52.81.81,0,0,0,.57.23c.45,0,.67-.21.67-.61,0-.24-.17-.46-.52-.66l-.39-.19-.41-.2a2.41,2.41,0,0,1-.81-.56,1.38,1.38,0,0,1-.3-.92,1.61,1.61,0,0,1,.51-1.23,1.82,1.82,0,0,1,1.27-.49A1.74,1.74,0,0,1,122.6,127.52Z" fill="#221e1f"/><path d="M129.42,129.72h-4.09a1.74,1.74,0,0,0,.46,1.11,1.37,1.37,0,0,0,1,.42,1.34,1.34,0,0,0,.81-.24,3.31,3.31,0,0,0,.72-.87l1.11.62a4.24,4.24,0,0,1-.54.76,2.67,2.67,0,0,1-.62.51,2.24,2.24,0,0,1-.71.3,3.49,3.49,0,0,1-.82.09,2.67,2.67,0,0,1-2-.82,3.06,3.06,0,0,1-.78-2.19,3.16,3.16,0,0,1,.75-2.19,2.62,2.62,0,0,1,2-.83,2.55,2.55,0,0,1,2,.81,3.17,3.17,0,0,1,.73,2.21Zm-1.35-1.08a1.27,1.27,0,0,0-1.33-1.06,1.33,1.33,0,0,0-.45.08,1.47,1.47,0,0,0-.39.21,1.32,1.32,0,0,0-.29.33,1.25,1.25,0,0,0-.19.44Z" fill="#221e1f"/><path d="M135.09,122.36h1.33v9.9h-1.33v-.6a2.44,2.44,0,0,1-1.76.76,2.53,2.53,0,0,1-2-.85,3.18,3.18,0,0,1-.76-2.18,3.12,3.12,0,0,1,.76-2.14,2.47,2.47,0,0,1,1.92-.86,2.44,2.44,0,0,1,1.79.82Zm-3.13,7a2,2,0,0,0,.44,1.33,1.44,1.44,0,0,0,1.14.53,1.49,1.49,0,0,0,1.18-.51,2.14,2.14,0,0,0,0-2.65,1.49,1.49,0,0,0-1.17-.51,1.43,1.43,0,0,0-1.13.52A1.87,1.87,0,0,0,132,129.39Z" fill="#221e1f"/><path d="M141.27,124.18a.83.83,0,0,1,.26-.6.79.79,0,0,1,.6-.25.85.85,0,0,1,.86.85.81.81,0,0,1-.25.61.83.83,0,0,1-.61.26.89.89,0,0,1-.86-.87Zm1.52,2.37v5.71h-1.32v-5.71Z" fill="#221e1f"/><path d="M145.85,135.36h-1.32v-8.81h1.32v.62a2.5,2.5,0,0,1,3.71.09,3.42,3.42,0,0,1,0,4.31,2.51,2.51,0,0,1-3.72.05Zm3.14-5.92a2,2,0,0,0-.45-1.34,1.46,1.46,0,0,0-1.14-.52,1.49,1.49,0,0,0-1.17.51,1.89,1.89,0,0,0-.46,1.32,2,2,0,0,0,.46,1.33,1.54,1.54,0,0,0,2.3,0A1.88,1.88,0,0,0,149,129.44Z" fill="#221e1f"/><path d="M155,127.52l-1.09.58c-.17-.35-.39-.52-.64-.52a.45.45,0,0,0-.31.12.38.38,0,0,0-.13.3c0,.22.25.44.76.66a4.36,4.36,0,0,1,1.41.83,1.38,1.38,0,0,1,.37,1,1.85,1.85,0,0,1-.61,1.39,2.08,2.08,0,0,1-1.43.52,2.05,2.05,0,0,1-2-1.4l1.12-.52a2.61,2.61,0,0,0,.36.52.81.81,0,0,0,.57.23c.45,0,.67-.21.67-.61,0-.24-.17-.46-.52-.66l-.39-.19-.41-.2a2.41,2.41,0,0,1-.81-.56,1.38,1.38,0,0,1-.3-.92,1.61,1.61,0,0,1,.51-1.23,1.82,1.82,0,0,1,1.27-.49A1.74,1.74,0,0,1,155,127.52Z" fill="#221e1f"/><path d="M157.92,126.55v3.28c0,.94.37,1.42,1.11,1.42s1.12-.48,1.12-1.42v-3.28h1.32v3.31a3.5,3.5,0,0,1-.17,1.18,2,2,0,0,1-.57.8,2.77,2.77,0,0,1-3.39,0,2,2,0,0,1-.58-.8,3.27,3.27,0,0,1-.16-1.18v-3.31Z" fill="#221e1f"/><path d="M163.18,126.55h1.32v.53a2.68,2.68,0,0,1,.65-.54,1.54,1.54,0,0,1,.72-.15,1.73,1.73,0,0,1,1.53.85,2,2,0,0,1,1.68-.85c1.29,0,1.93.78,1.93,2.34v3.53h-1.32v-3.17a2.48,2.48,0,0,0-.2-1.16.73.73,0,0,0-.68-.35.87.87,0,0,0-.79.41,2.63,2.63,0,0,0-.25,1.32v2.95h-1.32v-3.15c0-1-.3-1.53-.88-1.53a.88.88,0,0,0-.81.42,2.58,2.58,0,0,0-.26,1.31v2.95h-1.32Z" fill="#221e1f"/><path d="M175.88,124.18a.85.85,0,0,1,.86-.85.84.84,0,0,1,.61.25.86.86,0,0,1,.25.6.85.85,0,0,1-.25.61.85.85,0,0,1-1.22,0A.81.81,0,0,1,175.88,124.18Zm1.52,2.37v5.71h-1.32v-5.71Z" fill="#221e1f"/><path d="M183.31,122.36h1.33v9.9h-1.33v-.6a2.45,2.45,0,0,1-1.76.76,2.53,2.53,0,0,1-2-.85,3.19,3.19,0,0,1-.77-2.18,3.12,3.12,0,0,1,.77-2.14,2.47,2.47,0,0,1,3.71,0Zm-3.13,7a2,2,0,0,0,.44,1.33,1.44,1.44,0,0,0,1.14.53,1.49,1.49,0,0,0,1.18-.51,2.18,2.18,0,0,0,0-2.65,1.49,1.49,0,0,0-1.17-.51,1.46,1.46,0,0,0-1.14.52A1.91,1.91,0,0,0,180.18,129.39Z" fill="#221e1f"/><path d="M191,122.36v9.9h-1.32v-9.9Z" fill="#221e1f"/><path d="M197,126.55h1.32v5.71H197v-.6a2.54,2.54,0,0,1-1.76.76,2.5,2.5,0,0,1-1.95-.85,3.19,3.19,0,0,1-.77-2.18,3.09,3.09,0,0,1,.77-2.14,2.47,2.47,0,0,1,3.71,0Zm-3.13,2.84a1.94,1.94,0,0,0,.44,1.33,1.44,1.44,0,0,0,1.13.53,1.51,1.51,0,0,0,1.19-.51,2.18,2.18,0,0,0,0-2.65,1.49,1.49,0,0,0-1.18-.51,1.43,1.43,0,0,0-1.13.52A1.91,1.91,0,0,0,193.82,129.39Z" fill="#221e1f"/><path d="M204.4,126.8v1.75a3.21,3.21,0,0,0-.81-.76,1.57,1.57,0,0,0-.83-.21,1.65,1.65,0,0,0-1.23.52,2,2,0,0,0,0,2.63,1.73,1.73,0,0,0,2.06.31,3.26,3.26,0,0,0,.83-.77V132a3.56,3.56,0,0,1-1.61.41,3.06,3.06,0,0,1-2.21-.85,2.88,2.88,0,0,1-.89-2.14,2.91,2.91,0,0,1,.9-2.16,3.08,3.08,0,0,1,2.22-.88A3.3,3.3,0,0,1,204.4,126.8Z" fill="#221e1f"/><path d="M207.2,126.55v3.28c0,.94.37,1.42,1.12,1.42s1.12-.48,1.12-1.42v-3.28h1.32v3.31a3.77,3.77,0,0,1-.17,1.18,2,2,0,0,1-.57.8,2.78,2.78,0,0,1-3.4,0,2.11,2.11,0,0,1-.58-.8,3.51,3.51,0,0,1-.16-1.18v-3.31Z" fill="#221e1f"/><path d="M215.71,127.52l-1.09.58c-.17-.35-.38-.52-.64-.52a.45.45,0,0,0-.31.12.42.42,0,0,0-.13.3c0,.22.26.44.77.66a4.48,4.48,0,0,1,1.41.83,1.41,1.41,0,0,1,.36,1,1.81,1.81,0,0,1-.61,1.39A2.19,2.19,0,0,1,212,131l1.12-.52a2.61,2.61,0,0,0,.36.52.82.82,0,0,0,.58.23c.44,0,.66-.21.66-.61q0-.36-.51-.66l-.4-.19-.4-.2a2.21,2.21,0,0,1-.81-.56,1.38,1.38,0,0,1-.3-.92,1.61,1.61,0,0,1,.51-1.23,1.81,1.81,0,0,1,1.26-.49A1.73,1.73,0,0,1,215.71,127.52Z" fill="#221e1f"/><path d="M221.38,126.55l1.47,3.21,1.47-3.21h1.49l-3,6.1-2.94-6.1Z" fill="#221e1f"/><path d="M230.72,126.55h1.33v5.71h-1.33v-.6a2.53,2.53,0,0,1-3.7-.09,3.14,3.14,0,0,1-.77-2.18,3,3,0,0,1,.77-2.14,2.47,2.47,0,0,1,1.92-.86,2.43,2.43,0,0,1,1.78.82Zm-3.12,2.84a2,2,0,0,0,.43,1.33,1.46,1.46,0,0,0,1.14.53,1.49,1.49,0,0,0,1.18-.51,2.14,2.14,0,0,0,0-2.65,1.49,1.49,0,0,0-1.17-.51,1.43,1.43,0,0,0-1.13.52A1.91,1.91,0,0,0,227.6,129.39Z" fill="#221e1f"/><path d="M233.77,126.55h1.32v.51a2.44,2.44,0,0,1,.65-.52,1.42,1.42,0,0,1,.68-.15,2.16,2.16,0,0,1,1.08.34l-.6,1.21a1.25,1.25,0,0,0-.73-.27c-.72,0-1.08.54-1.08,1.63v3h-1.32Z" fill="#221e1f"/><path d="M238.23,124.18a.85.85,0,0,1,.85-.85.81.81,0,0,1,.61.25.83.83,0,0,1,.26.6.82.82,0,0,1-.26.61.79.79,0,0,1-.6.26.83.83,0,0,1-.61-.26A.81.81,0,0,1,238.23,124.18Zm1.52,2.37v5.71h-1.32v-5.71Z" fill="#221e1f"/><path d="M242.76,126.55v3.28c0,.94.37,1.42,1.12,1.42s1.12-.48,1.12-1.42v-3.28h1.32v3.31a3.77,3.77,0,0,1-.17,1.18,2,2,0,0,1-.57.8,2.49,2.49,0,0,1-1.7.58,2.46,2.46,0,0,1-1.69-.58,1.91,1.91,0,0,1-.58-.8,3.24,3.24,0,0,1-.17-1.18v-3.31Z" fill="#221e1f"/><path d="M251.27,127.52l-1.09.58c-.17-.35-.38-.52-.64-.52a.45.45,0,0,0-.31.12.42.42,0,0,0-.13.3c0,.22.26.44.77.66a4.36,4.36,0,0,1,1.41.83,1.41,1.41,0,0,1,.36,1,1.81,1.81,0,0,1-.61,1.39,2.19,2.19,0,0,1-3.46-.88l1.12-.52a2.61,2.61,0,0,0,.36.52.82.82,0,0,0,.58.23c.44,0,.66-.21.66-.61q0-.36-.51-.66l-.4-.19-.4-.2a2.21,2.21,0,0,1-.81-.56,1.38,1.38,0,0,1-.3-.92,1.61,1.61,0,0,1,.51-1.23,1.81,1.81,0,0,1,1.26-.49A1.73,1.73,0,0,1,251.27,127.52Z" fill="#221e1f"/><path d="M256.94,126.55l1.47,3.21,1.47-3.21h1.49l-3,6.1-2.94-6.1Z" fill="#221e1f"/><path d="M267.29,129.72H263.2a1.68,1.68,0,0,0,.45,1.11,1.39,1.39,0,0,0,1,.42,1.35,1.35,0,0,0,.82-.24,3.31,3.31,0,0,0,.72-.87l1.11.62a3.81,3.81,0,0,1-.55.76,2.63,2.63,0,0,1-.61.51,2.34,2.34,0,0,1-.71.3,3.58,3.58,0,0,1-.83.09,2.68,2.68,0,0,1-2.05-.82,3.1,3.1,0,0,1-.77-2.19,3.16,3.16,0,0,1,.75-2.19,2.85,2.85,0,0,1,4,0,3.16,3.16,0,0,1,.72,2.21Zm-1.36-1.08a1.25,1.25,0,0,0-1.33-1.06,1.33,1.33,0,0,0-.45.08,1.28,1.28,0,0,0-.38.21,1.18,1.18,0,0,0-.3.33,1.45,1.45,0,0,0-.18.44Z" fill="#221e1f"/><path d="M268.78,122.36h1.31V127a2.25,2.25,0,0,1,1.56-.64,2,2,0,0,1,1.54.63,2.53,2.53,0,0,1,.5,1.74v3.5h-1.32v-3.38a1.57,1.57,0,0,0-.25-1,.94.94,0,0,0-.78-.31,1.09,1.09,0,0,0-1,.43,3,3,0,0,0-.28,1.49v2.76h-1.31Z" fill="#221e1f"/><path d="M275.18,124.18a.86.86,0,0,1,.25-.6.82.82,0,0,1,.61-.25.84.84,0,0,1,.61.25.86.86,0,0,1,.25.6.85.85,0,0,1-.25.61.85.85,0,0,1-1.22,0A.85.85,0,0,1,275.18,124.18Zm1.52,2.37v5.71h-1.32v-5.71Z" fill="#221e1f"/><path d="M282.81,126.8v1.75a3.21,3.21,0,0,0-.81-.76,1.56,1.56,0,0,0-.82-.21,1.66,1.66,0,0,0-1.24.52,2,2,0,0,0,0,2.63A1.73,1.73,0,0,0,282,131a3.26,3.26,0,0,0,.83-.77V132a3.56,3.56,0,0,1-1.61.41,3.06,3.06,0,0,1-2.21-.85,2.88,2.88,0,0,1-.89-2.14,2.91,2.91,0,0,1,.9-2.16,3.08,3.08,0,0,1,2.22-.88A3.3,3.3,0,0,1,282.81,126.8Z" fill="#221e1f"/><path d="M285.61,126.55v3.28c0,.94.37,1.42,1.12,1.42s1.12-.48,1.12-1.42v-3.28h1.32v3.31A3.77,3.77,0,0,1,289,131a2,2,0,0,1-.57.8,2.49,2.49,0,0,1-1.7.58,2.46,2.46,0,0,1-1.69-.58,1.91,1.91,0,0,1-.58-.8,3.24,3.24,0,0,1-.17-1.18v-3.31Z" fill="#221e1f"/><path d="M292.2,122.36v9.9h-1.32v-9.9Z" fill="#221e1f"/><path d="M298.13,126.55h1.33v5.71h-1.33v-.6a2.5,2.5,0,0,1-1.75.76,2.53,2.53,0,0,1-2-.85,3.18,3.18,0,0,1-.76-2.18,3.08,3.08,0,0,1,.76-2.14,2.51,2.51,0,0,1,1.93-.86,2.43,2.43,0,0,1,1.78.82ZM295,129.39a2,2,0,0,0,.44,1.33,1.46,1.46,0,0,0,1.14.53,1.49,1.49,0,0,0,1.18-.51,2.14,2.14,0,0,0,0-2.65,1.49,1.49,0,0,0-1.17-.51,1.43,1.43,0,0,0-1.13.52A1.92,1.92,0,0,0,295,129.39Z" fill="#221e1f"/><path d="M301.27,131.6a.82.82,0,0,1,.81-.81.82.82,0,0,1,.58,1.4.81.81,0,0,1-1.39-.59Z" fill="#221e1f"/><path d="M309.77,123.21v9h-1.36v-9Z" fill="#221e1f"/><path d="M311.74,126.55h1.33v.53a2.15,2.15,0,0,1,1.56-.69,2,2,0,0,1,1.55.63,2.58,2.58,0,0,1,.48,1.74v3.5h-1.32v-3.19a2,2,0,0,0-.24-1.16.94.94,0,0,0-.83-.33,1,1,0,0,0-.93.43,3,3,0,0,0-.27,1.49v2.76h-1.33Z" fill="#221e1f"/><path d="M319.78,127.78v4.48h-1.32v-4.48h-.56v-1.23h.56v-2.09h1.32v2.09h1v1.23Z" fill="#221e1f"/><path d="M327,129.72H322.9a1.74,1.74,0,0,0,.46,1.11,1.39,1.39,0,0,0,1,.42,1.3,1.3,0,0,0,.81-.24,3.31,3.31,0,0,0,.72-.87l1.12.62a4.26,4.26,0,0,1-.55.76,2.63,2.63,0,0,1-.61.51,2.34,2.34,0,0,1-.71.3,3.64,3.64,0,0,1-.83.09,2.68,2.68,0,0,1-2.05-.82,3.1,3.1,0,0,1-.77-2.19,3.16,3.16,0,0,1,.75-2.19,2.58,2.58,0,0,1,2-.83,2.53,2.53,0,0,1,2,.81,3.12,3.12,0,0,1,.73,2.21Zm-1.35-1.08a1.26,1.26,0,0,0-1.33-1.06,1.33,1.33,0,0,0-.45.08,1.28,1.28,0,0,0-.38.21,1.18,1.18,0,0,0-.3.33,1.77,1.77,0,0,0-.19.44Z" fill="#221e1f"/><path d="M334,132.12q0,.4,0,.72a4,4,0,0,1-.07.54,2.42,2.42,0,0,1-.55,1.11,2.7,2.7,0,0,1-2.13.89,2.84,2.84,0,0,1-1.88-.62,2.52,2.52,0,0,1-.88-1.75h1.33a1.45,1.45,0,0,0,.25.65,1.42,1.42,0,0,0,1.19.53c1,0,1.45-.59,1.45-1.77v-.8a2.52,2.52,0,0,1-3.72,0,3.12,3.12,0,0,1-.75-2.14,3.26,3.26,0,0,1,.7-2.12,2.42,2.42,0,0,1,2-.93,2.29,2.29,0,0,1,1.79.81v-.65H334Zm-1.27-2.7a1.94,1.94,0,0,0-.44-1.33,1.48,1.48,0,0,0-1.16-.51,1.41,1.41,0,0,0-1.18.55,2.06,2.06,0,0,0-.39,1.29,2,2,0,0,0,.39,1.28,1.55,1.55,0,0,0,2.38,0A1.93,1.93,0,0,0,332.71,129.42Z" fill="#221e1f"/><path d="M340.91,129.72h-4.09a1.74,1.74,0,0,0,.46,1.11,1.39,1.39,0,0,0,1,.42,1.3,1.3,0,0,0,.81-.24,3.31,3.31,0,0,0,.72-.87l1.12.62a4.82,4.82,0,0,1-.55.76,2.85,2.85,0,0,1-.61.51,2.34,2.34,0,0,1-.71.3,3.64,3.64,0,0,1-.83.09,2.67,2.67,0,0,1-2-.82,3.05,3.05,0,0,1-.77-2.19,3.16,3.16,0,0,1,.75-2.19,2.58,2.58,0,0,1,2-.83,2.55,2.55,0,0,1,2,.81,3.12,3.12,0,0,1,.73,2.21Zm-1.35-1.08a1.26,1.26,0,0,0-1.33-1.06,1.33,1.33,0,0,0-.45.08,1.47,1.47,0,0,0-.39.21,1.32,1.32,0,0,0-.29.33,1.46,1.46,0,0,0-.19.44Z" fill="#221e1f"/><path d="M342.4,126.55h1.32v.51a2.59,2.59,0,0,1,.64-.52,1.48,1.48,0,0,1,.68-.15,2.16,2.16,0,0,1,1.09.34l-.6,1.21a1.25,1.25,0,0,0-.73-.27c-.72,0-1.08.54-1.08,1.63v3H342.4Z" fill="#221e1f"/><path d="M351.61,122.36v9.9h-1.32v-9.9Z" fill="#221e1f"/><path d="M358.54,129.72h-4.09a1.69,1.69,0,0,0,.46,1.11,1.36,1.36,0,0,0,1,.42,1.35,1.35,0,0,0,.82-.24,3.31,3.31,0,0,0,.72-.87l1.11.62a4.24,4.24,0,0,1-.54.76,2.89,2.89,0,0,1-.62.51,2.24,2.24,0,0,1-.71.3,3.55,3.55,0,0,1-.82.09,2.65,2.65,0,0,1-2-.82,3.06,3.06,0,0,1-.78-2.19,3.16,3.16,0,0,1,.75-2.19,2.6,2.6,0,0,1,2-.83,2.55,2.55,0,0,1,2,.81,3.16,3.16,0,0,1,.72,2.21Zm-1.35-1.08a1.27,1.27,0,0,0-1.34-1.06,1.33,1.33,0,0,0-.45.08,1.41,1.41,0,0,0-.38.21,1.36,1.36,0,0,0-.3.33,1.45,1.45,0,0,0-.18.44Z" fill="#221e1f"/><path d="M359.71,129.36a2.84,2.84,0,0,1,.89-2.1,3.1,3.1,0,0,1,4.32,0,3,3,0,0,1,0,4.29,3,3,0,0,1-2.18.86,2.88,2.88,0,0,1-2.15-.88A2.93,2.93,0,0,1,359.71,129.36Zm1.35,0a1.89,1.89,0,0,0,.46,1.35,1.58,1.58,0,0,0,1.23.51,1.62,1.62,0,0,0,1.24-.5,2.15,2.15,0,0,0,0-2.66,1.61,1.61,0,0,0-1.24-.51,1.58,1.58,0,0,0-1.22.51A1.79,1.79,0,0,0,361.06,129.39Z" fill="#221e1f"/><path d="M370.6,126.55h1.31v.51a2.61,2.61,0,0,1,.65-.52,1.45,1.45,0,0,1,.68-.15,2.19,2.19,0,0,1,1.09.34l-.6,1.21a1.27,1.27,0,0,0-.74-.27c-.72,0-1.08.54-1.08,1.63v3H370.6Z" fill="#221e1f"/><path d="M375.05,124.18a.83.83,0,0,1,.26-.6.79.79,0,0,1,.6-.25.85.85,0,0,1,.86.85.81.81,0,0,1-.25.61.83.83,0,0,1-.61.26.89.89,0,0,1-.86-.87Zm1.52,2.37v5.71h-1.32v-5.71Z" fill="#221e1f"/><path d="M381.56,127.52l-1.09.58c-.17-.35-.39-.52-.64-.52a.43.43,0,0,0-.31.12.38.38,0,0,0-.13.3c0,.22.25.44.76.66a4.36,4.36,0,0,1,1.41.83,1.38,1.38,0,0,1,.37,1,1.85,1.85,0,0,1-.61,1.39,2.2,2.2,0,0,1-3.47-.88l1.13-.52a2.24,2.24,0,0,0,.36.52.81.81,0,0,0,.57.23c.45,0,.67-.21.67-.61,0-.24-.17-.46-.52-.66l-.4-.19-.4-.2a2.41,2.41,0,0,1-.81-.56,1.38,1.38,0,0,1-.3-.92,1.61,1.61,0,0,1,.51-1.23,1.82,1.82,0,0,1,1.27-.49A1.74,1.74,0,0,1,381.56,127.52Z" fill="#221e1f"/><path d="M384.46,126.55v3.28c0,.94.38,1.42,1.12,1.42s1.12-.48,1.12-1.42v-3.28H388v3.31a3.77,3.77,0,0,1-.17,1.18,2,2,0,0,1-.57.8,2.77,2.77,0,0,1-3.39,0,2,2,0,0,1-.58-.8,3.27,3.27,0,0,1-.16-1.18v-3.31Z" fill="#221e1f"/><path d="M393,127.52l-1.09.58c-.17-.35-.39-.52-.64-.52a.43.43,0,0,0-.31.12.38.38,0,0,0-.13.3c0,.22.25.44.76.66a4.36,4.36,0,0,1,1.41.83,1.38,1.38,0,0,1,.37,1,1.85,1.85,0,0,1-.61,1.39,2.2,2.2,0,0,1-3.47-.88l1.13-.52a2.24,2.24,0,0,0,.36.52.81.81,0,0,0,.57.23c.45,0,.67-.21.67-.61,0-.24-.17-.46-.52-.66l-.4-.19-.4-.2a2.41,2.41,0,0,1-.81-.56,1.38,1.38,0,0,1-.3-.92,1.61,1.61,0,0,1,.51-1.23,1.82,1.82,0,0,1,1.27-.49A1.74,1.74,0,0,1,393,127.52Z" fill="#221e1f"/><path d="M395.33,130.57l1.17.45-1.67,3.35-.89-.37Z" fill="#221e1f"/><path d="M406.05,126.8v1.75a3.38,3.38,0,0,0-.8-.76,1.6,1.6,0,0,0-.83-.21,1.66,1.66,0,0,0-1.24.52,2,2,0,0,0,0,2.63,1.6,1.6,0,0,0,1.22.52,1.64,1.64,0,0,0,.84-.21,3.26,3.26,0,0,0,.82-.77V132a3.52,3.52,0,0,1-1.6.41,3.1,3.1,0,0,1-2.22-.85,3,3,0,0,1,0-4.3,3.06,3.06,0,0,1,2.21-.88A3.3,3.3,0,0,1,406.05,126.8Z" fill="#221e1f"/><path d="M407.19,129.36a2.84,2.84,0,0,1,.89-2.1,3.1,3.1,0,0,1,4.32,0,3.05,3.05,0,0,1,0,4.29,3,3,0,0,1-2.19.86,2.9,2.9,0,0,1-2.15-.88A2.93,2.93,0,0,1,407.19,129.36Zm1.35,0a1.89,1.89,0,0,0,.46,1.35,1.58,1.58,0,0,0,1.23.51,1.62,1.62,0,0,0,1.24-.5,2.15,2.15,0,0,0,0-2.66,1.74,1.74,0,0,0-2.46,0A1.84,1.84,0,0,0,408.54,129.39Z" fill="#221e1f"/><path d="M414.7,126.55H416v.53a2.17,2.17,0,0,1,1.56-.69,2,2,0,0,1,1.56.63,2.58,2.58,0,0,1,.48,1.74v3.5h-1.33v-3.19a2.12,2.12,0,0,0-.23-1.16.94.94,0,0,0-.83-.33,1,1,0,0,0-.94.43,3,3,0,0,0-.27,1.49v2.76H414.7Z" fill="#221e1f"/><path d="M421.83,126.55l1.48,3.21,1.47-3.21h1.48l-3,6.1-2.94-6.1Z" fill="#221e1f"/><path d="M431.18,126.55h1.32v5.71h-1.32v-.6a2.54,2.54,0,0,1-3.71-.09,3.19,3.19,0,0,1-.77-2.18,3.09,3.09,0,0,1,.77-2.14,2.47,2.47,0,0,1,3.71,0Zm-3.13,2.84a2,2,0,0,0,.44,1.33,1.44,1.44,0,0,0,1.14.53,1.49,1.49,0,0,0,1.18-.51,2.18,2.18,0,0,0,0-2.65,1.49,1.49,0,0,0-1.17-.51,1.46,1.46,0,0,0-1.14.52A1.91,1.91,0,0,0,428.05,129.39Z" fill="#221e1f"/><path d="M435.55,122.36v9.9h-1.32v-9.9Z" fill="#221e1f"/><path d="M438.6,122.36v9.9h-1.32v-9.9Z" fill="#221e1f"/><path d="M440.14,124.18a.85.85,0,0,1,.85-.85.81.81,0,0,1,.61.25.82.82,0,0,1,.25.6.81.81,0,0,1-.25.61.79.79,0,0,1-.6.26.83.83,0,0,1-.61-.26A.81.81,0,0,1,440.14,124.18Zm1.52,2.37v5.71h-1.32v-5.71Z" fill="#221e1f"/><path d="M446.64,127.52l-1.09.58c-.17-.35-.38-.52-.64-.52a.45.45,0,0,0-.31.12.42.42,0,0,0-.13.3c0,.22.26.44.77.66a4.36,4.36,0,0,1,1.41.83,1.41,1.41,0,0,1,.36,1,1.81,1.81,0,0,1-.61,1.39,2.19,2.19,0,0,1-3.46-.88l1.12-.52a2.61,2.61,0,0,0,.36.52.82.82,0,0,0,.58.23c.44,0,.66-.21.66-.61q0-.36-.51-.66l-.4-.19-.4-.2a2.21,2.21,0,0,1-.81-.56,1.38,1.38,0,0,1-.3-.92,1.61,1.61,0,0,1,.51-1.23,1.81,1.81,0,0,1,1.26-.49A1.73,1.73,0,0,1,446.64,127.52Z" fill="#221e1f"/></g></g>
</svg>