<svg xmlns="http://www.w3.org/2000/svg" viewBox="0 0 132.01 94.87">
<title>logosystemcontent</title><g id="ab866fe9-a957-4f26-84fd-e791596d8d43" data-name=""><g id="f0e4b290-405a-465d-b749-f2d7414a94d9" data-name="Layer 1"><path d="M42.15,55.24a5.58,5.58,0,1,0,7.89,0,5.58,5.58,0,0,0-7.89,0Z" fill="#e8abb0"/><path d="M42.92,69.75l-1.33.79a2.38,2.38,0,0,0-.71-.85,1.68,1.68,0,0,0-.91-.22,1.72,1.72,0,0,0-1.14.38,1.22,1.22,0,0,0-.45,1c0,.53.4,1,1.19,1.29l1.08.44a4.65,4.65,0,0,1,1.94,1.31,2.92,2.92,0,0,1,.61,1.89,3.32,3.32,0,0,1-1,2.48,3.46,3.46,0,0,1-2.5,1,3.36,3.36,0,0,1-2.34-.84A3.8,3.8,0,0,1,36.23,76l1.66-.36A2.71,2.71,0,0,0,38.28,77a1.87,1.87,0,0,0,2.76.19,1.75,1.75,0,0,0,.5-1.3,1.77,1.77,0,0,0-.08-.58,1.42,1.42,0,0,0-.28-.49,2,2,0,0,0-.48-.41A3.9,3.9,0,0,0,40,74l-1-.44c-1.49-.63-2.24-1.55-2.24-2.76a2.6,2.6,0,0,1,.94-2A3.34,3.34,0,0,1,40,67.92,3.27,3.27,0,0,1,42.92,69.75Z" fill="#231f20"/><path d="M46.82,68.13V79H45.18V68.13Z" fill="#231f20"/><path d="M49.43,79V67.39l7.94,8.3V68.13H59V79.67l-7.93-8.28V79Z" fill="#231f20"/><path d="M69.75,68.71v2a4.52,4.52,0,0,0-3-1.19A3.76,3.76,0,0,0,64,70.67a4.08,4.08,0,0,0-1.16,2.93A4,4,0,0,0,64,76.49a3.83,3.83,0,0,0,2.83,1.18,3.41,3.41,0,0,0,1.47-.29A4.14,4.14,0,0,0,69,77a7.9,7.9,0,0,0,.76-.57v2a5.94,5.94,0,0,1-3,.79,5.57,5.57,0,0,1-5.62-5.58,5.62,5.62,0,0,1,1.37-3.71,5.48,5.48,0,0,1,4.38-2A5.56,5.56,0,0,1,69.75,68.71Z" fill="#231f20"/><path d="M71.21,73.52a5.35,5.35,0,0,1,1.68-4,5.54,5.54,0,0,1,4-1.65,5.7,5.7,0,0,1,5.66,5.66,5.33,5.33,0,0,1-1.68,4,5.75,5.75,0,0,1-7.85.18A5.32,5.32,0,0,1,71.21,73.52Zm1.65,0a3.94,3.94,0,0,0,1.21,3,3.89,3.89,0,0,0,2.79,1.17,3.93,3.93,0,0,0,2.89-1.19,4.23,4.23,0,0,0,0-5.83,3.82,3.82,0,0,0-2.86-1.18A3.88,3.88,0,0,0,74,70.65,3.92,3.92,0,0,0,72.86,73.54Z" fill="#e72025"/><path d="M84.1,73.52a5.35,5.35,0,0,1,1.68-4,5.54,5.54,0,0,1,4-1.65,5.7,5.7,0,0,1,5.66,5.66,5.33,5.33,0,0,1-1.68,4,5.75,5.75,0,0,1-7.85.18A5.32,5.32,0,0,1,84.1,73.52Zm1.65,0a3.91,3.91,0,0,0,1.22,3,3.87,3.87,0,0,0,2.78,1.17,3.93,3.93,0,0,0,2.89-1.19,4.23,4.23,0,0,0,0-5.83,3.82,3.82,0,0,0-2.86-1.18,3.88,3.88,0,0,0-2.87,1.18A3.92,3.92,0,0,0,85.75,73.54Z" fill="#e72025"/><path d="M99.17,72.47l4.24-4.34h2.19l-4.92,4.92,4.95,6h-2.2l-3.92-4.84-.34.33V79H97.53V68.13h1.64Z" fill="#231f20"/><path d="M104.33,1.08,104.2,1a2.86,2.86,0,0,0-4,0L86.52,14.61a25,25,0,1,0,4.15,4.15L104.33,5.1A2.86,2.86,0,0,0,104.33,1.08Z" fill="#231f20"/><path d="M71.06,47.68a13.41,13.41,0,0,1-9.52-3.94h0a13.48,13.48,0,1,1,9.52,3.94Zm0-25.93A12.47,12.47,0,0,0,62.25,43h0a12.47,12.47,0,1,0,8.81-21.29Z" fill="#fff"/><path d="M43.64,56.74a3.46,3.46,0,1,0,4.9,0,3.47,3.47,0,0,0-4.9,0Z" fill="#e72025"/><path d="M48.88,42a2.06,2.06,0,1,1-2.06-2.06A2.06,2.06,0,0,1,48.88,42Z" fill="none" stroke="#4c4b4c" stroke-miterlimit="10" stroke-width="0.25" stroke-dasharray="0.5 0.5"/><path d="M73.27,82.1a2,2,0,0,1,0,.25" fill="none" stroke="#4c4b4c" stroke-miterlimit="10" stroke-width="0.25"/><path d="M73.12,82.88a2.06,2.06,0,0,1-3.91-.26" fill="none" stroke="#4c4b4c" stroke-miterlimit="10" stroke-width="0.25" stroke-dasharray="0.54 0.54"/><path d="M69.16,82.35a2,2,0,0,1,0-.25" fill="none" stroke="#4c4b4c" stroke-miterlimit="10" stroke-width="0.25"/><circle cx="39.45" cy="59.19" r="2.06" fill="none" stroke="#4c4b4c" stroke-miterlimit="10" stroke-width="0.25" stroke-dasharray="0.5 0.5"/><circle cx="58.21" cy="34.22" r="2.06" fill="none" stroke="#4c4b4c" stroke-miterlimit="10" stroke-width="0.25" stroke-dasharray="0.5 0.5"/><path d="M119.54,23.34h.23l.29,1.85s0,.18,0,.44c0,.1,0,.19,0,.25l0-.33.06-.36.31-1.85h.22l.35,2.85h-.24l-.19-1.86s0,0,0,0c0-.22,0-.41,0-.58a3.53,3.53,0,0,1,0,.42,2,2,0,0,1,0,.29l-.3,1.77H120l-.28-1.84s0,0,0,0c0-.23-.06-.43-.08-.6,0,.08,0,.2,0,.33s0,.31,0,.34l-.21,1.81h-.24Z"/><path d="M121.53,23.52a.17.17,0,0,1,.18.17.17.17,0,0,1-.18.18.17.17,0,0,1-.17-.18.17.17,0,0,1,.17-.17Zm-.12.76h.24v1.91h-.24Z"/><path d="M122.11,24.28h.24v.17a.39.39,0,0,1,.36-.2.32.32,0,0,1,.3.15.9.9,0,0,1,.09.47v1.32h-.23V24.83a.58.58,0,0,0-.06-.31.19.19,0,0,0-.18-.08.24.24,0,0,0-.21.12.7.7,0,0,0-.07.36v1.27h-.24Z"/><path d="M123.65,23.52a.17.17,0,0,1,.18.17.17.17,0,0,1-.18.18.17.17,0,0,1-.12-.05.18.18,0,0,1-.06-.13.14.14,0,0,1,.06-.12A.13.13,0,0,1,123.65,23.52Zm-.12.76h.24v1.91h-.24Z"/><path d="M124.23,24.28h.24v.17a.39.39,0,0,1,.36-.2.33.33,0,0,1,.21.06.49.49,0,0,1,.15.19.42.42,0,0,1,.17-.18.37.37,0,0,1,.23-.07.32.32,0,0,1,.3.15.9.9,0,0,1,.09.47v1.32h-.24V24.83a.73.73,0,0,0,0-.31.22.22,0,0,0-.18-.08.24.24,0,0,0-.22.12.82.82,0,0,0-.07.36v1.27H125V24.83a.58.58,0,0,0-.06-.31.19.19,0,0,0-.18-.08.24.24,0,0,0-.21.12.7.7,0,0,0-.07.36v1.27h-.24Z"/><path d="M127.13,26.19V26a.28.28,0,0,1-.13.15.37.37,0,0,1-.21.06.36.36,0,0,1-.35-.24,2,2,0,0,1-.11-.8,1.61,1.61,0,0,1,.11-.71.37.37,0,0,1,.35-.23.42.42,0,0,1,.2.05.56.56,0,0,1,.14.16v-.18h.23v1.91Zm-.56-.94a2,2,0,0,0,.06.61.23.23,0,0,0,.23.17.24.24,0,0,0,.22-.17,2.14,2.14,0,0,0,.06-.61,2.17,2.17,0,0,0-.06-.62c0-.12-.12-.18-.22-.18a.24.24,0,0,0-.23.17A2.26,2.26,0,0,0,126.57,25.25Z"/><path d="M127.81,23.17h.24v3h-.24Z"/><path d="M128.63,23.52a.17.17,0,0,1,.18.17.17.17,0,0,1-.18.18.17.17,0,0,1-.12-.05.18.18,0,0,1-.06-.13.17.17,0,0,1,.18-.17Zm-.12.76h.24v1.91h-.24Z"/><path d="M129.11,25.82a1.19,1.19,0,0,0,.18.15.41.41,0,0,0,.18.05.29.29,0,0,0,.22-.09.25.25,0,0,0,.08-.21c0-.11-.09-.25-.29-.42l0,0a1.62,1.62,0,0,1-.3-.31.56.56,0,0,1-.07-.26.46.46,0,0,1,.48-.46.5.5,0,0,1,.17,0,.65.65,0,0,1,.17.08v.24a.57.57,0,0,0-.16-.11.45.45,0,0,0-.16,0,.25.25,0,0,0-.19.07.22.22,0,0,0-.08.18q0,.16.27.39h0a1.63,1.63,0,0,1,.33.34.5.5,0,0,1,.07.27.54.54,0,0,1-.14.38.5.5,0,0,1-.37.15.45.45,0,0,1-.2,0,.52.52,0,0,1-.18-.1Z"/><path d="M130.27,24.28h.23v.17a.57.57,0,0,1,.16-.15.46.46,0,0,1,.21-.05.37.37,0,0,1,.21.06.4.4,0,0,1,.14.19.59.59,0,0,1,.17-.18.39.39,0,0,1,.23-.07.32.32,0,0,1,.3.15.9.9,0,0,1,.09.47v1.32h-.23V24.83a.58.58,0,0,0-.06-.31.19.19,0,0,0-.18-.08.24.24,0,0,0-.21.12.7.7,0,0,0-.07.36v1.27H131V24.83a.73.73,0,0,0-.05-.31.22.22,0,0,0-.18-.08.24.24,0,0,0-.22.12.82.82,0,0,0-.07.36v1.27h-.23Z"/><path d="M119.25,30.55a.73.73,0,0,0,.22.18.48.48,0,0,0,.24.06.39.39,0,0,0,.32-.15.51.51,0,0,0,.13-.37.48.48,0,0,0,0-.18.28.28,0,0,0-.08-.15,1.3,1.3,0,0,0-.29-.27l-.13-.09a1.2,1.2,0,0,1-.31-.35.7.7,0,0,1-.1-.38.75.75,0,0,1,.19-.53.63.63,0,0,1,.47-.22.85.85,0,0,1,.23,0,1.13,1.13,0,0,1,.21.12v.34a.57.57,0,0,0-.19-.19.46.46,0,0,0-.23-.06.35.35,0,0,0-.3.13.5.5,0,0,0-.12.35.58.58,0,0,0,.08.3,1.25,1.25,0,0,0,.37.35,1.41,1.41,0,0,1,.39.39.65.65,0,0,1,.1.38.76.76,0,0,1-.2.56.61.61,0,0,1-.49.22.69.69,0,0,1-.25,0,.77.77,0,0,1-.23-.1Z"/><path d="M120.88,28.32a.14.14,0,0,1,.13.05.13.13,0,0,1,0,.12.17.17,0,0,1,0,.13.19.19,0,0,1-.13.05.21.21,0,0,1-.12-.05.21.21,0,0,1-.05-.13.17.17,0,0,1,.05-.12A.15.15,0,0,1,120.88,28.32Zm-.11.76H121V31h-.24Z"/><path d="M121.46,29.08h.24v.17a.42.42,0,0,1,.37-.2.37.37,0,0,1,.21.06.47.47,0,0,1,.14.19.49.49,0,0,1,.17-.18.39.39,0,0,1,.23-.07.32.32,0,0,1,.3.15.88.88,0,0,1,.09.46V31H123V29.63a.58.58,0,0,0-.06-.31.19.19,0,0,0-.18-.08.24.24,0,0,0-.21.12.7.7,0,0,0-.07.36V31h-.24V29.63a.73.73,0,0,0,0-.31.23.23,0,0,0-.19-.08.24.24,0,0,0-.21.12.82.82,0,0,0-.07.36V31h-.24Z"/><path d="M123.65,29.08h.24v.16a.33.33,0,0,1,.15-.14.35.35,0,0,1,.18-.05.39.39,0,0,1,.36.23,2,2,0,0,1,.11.76,1.76,1.76,0,0,1-.12.75.36.36,0,0,1-.35.24.48.48,0,0,1-.18,0,.37.37,0,0,1-.15-.13v.9h-.24Zm.51,1.75a.22.22,0,0,0,.22-.17,2,2,0,0,0,.06-.61,2.16,2.16,0,0,0-.06-.63.23.23,0,0,0-.22-.17.22.22,0,0,0-.22.18,1.79,1.79,0,0,0-.07.62,1.76,1.76,0,0,0,.07.61A.22.22,0,0,0,124.16,30.83Z"/><path d="M125.05,28h.24v3h-.24Z"/><path d="M126.71,30.09h-.83v.07a1.28,1.28,0,0,0,.08.49c.06.12.13.18.23.18a.23.23,0,0,0,.19-.13.66.66,0,0,0,.08-.34h.23a.86.86,0,0,1-.15.49.43.43,0,0,1-.36.18.43.43,0,0,1-.4-.25,1.53,1.53,0,0,1-.13-.73,1.62,1.62,0,0,1,.14-.74.45.45,0,0,1,.41-.27.4.4,0,0,1,.38.25,1.61,1.61,0,0,1,.13.74Zm-.22-.19a1.22,1.22,0,0,0-.08-.48.23.23,0,0,0-.21-.16.24.24,0,0,0-.22.16,1.15,1.15,0,0,0-.1.48Z"/><path d="M120.26,35.72a.8.8,0,0,1-.16.08.47.47,0,0,1-.17,0,.55.55,0,0,1-.53-.36,2.52,2.52,0,0,1-.18-1.1,2.6,2.6,0,0,1,.18-1.11.55.55,0,0,1,.53-.36.58.58,0,0,1,.54.36,2.79,2.79,0,0,1,.17,1.11,3.66,3.66,0,0,1-.06.72,1.08,1.08,0,0,1-.17.47l.21.31-.18.12Zm-.13-.21-.26-.4.18-.12.23.37a2.32,2.32,0,0,0,.07-.39,5.44,5.44,0,0,0,0-.6,3,3,0,0,0-.1-.93c-.07-.2-.19-.3-.34-.3s-.26.1-.33.3a4,4,0,0,0,0,1.86c.07.19.18.29.34.29l.1,0Z"/><path d="M121,33.88h.23v1.25a.88.88,0,0,0,.06.38.27.27,0,0,0,.42,0,.85.85,0,0,0,.06-.38V33.88H122v1.29a.82.82,0,0,1-.12.5.43.43,0,0,1-.38.16.44.44,0,0,1-.38-.16.82.82,0,0,1-.12-.5Z"/><path d="M122.55,33.12a.15.15,0,0,1,.13.05.13.13,0,0,1,0,.12.17.17,0,0,1-.18.18.18.18,0,0,1-.12,0,.17.17,0,0,1-.05-.13.17.17,0,0,1,.17-.17Zm-.12.76h.24v1.91h-.24Z"/><path d="M123.9,33.93v.27l-.11-.1a.28.28,0,0,0-.13,0,.29.29,0,0,0-.27.2,1.75,1.75,0,0,0-.08.61,1.4,1.4,0,0,0,.08.53.29.29,0,0,0,.26.18.32.32,0,0,0,.14,0,.36.36,0,0,0,.1-.11v.28l-.13.07-.15,0a.46.46,0,0,1-.4-.25,1.5,1.5,0,0,1-.14-.7,1.52,1.52,0,0,1,.15-.76.48.48,0,0,1,.44-.26l.13,0A.3.3,0,0,1,123.9,33.93Z"/><path d="M124.19,32.77h.24v3h-.24Zm.73,1.11h.26l-.51.83.68,1.08h-.28l-.64-1.07Z"/><path d="M119.36,37.74h.26v2a1.08,1.08,0,0,0,.08.49.29.29,0,0,0,.26.13.3.3,0,0,0,.27-.13,1.08,1.08,0,0,0,.08-.49v-2h.26v2a1.15,1.15,0,0,1-.14.66.53.53,0,0,1-.47.19.52.52,0,0,1-.46-.19,1.15,1.15,0,0,1-.14-.66Z"/><path d="M121.09,38.68h.23v.17a.75.75,0,0,1,.16-.15.46.46,0,0,1,.21-.05.32.32,0,0,1,.3.15.9.9,0,0,1,.09.47v1.32h-.24V39.23a.6.6,0,0,0,0-.31.19.19,0,0,0-.18-.08.24.24,0,0,0-.21.12.69.69,0,0,0-.08.36v1.27h-.23Z"/><path d="M122.63,37.92a.13.13,0,0,1,.12,0,.14.14,0,0,1,.06.12.18.18,0,0,1-.06.13.17.17,0,0,1-.12.05.17.17,0,0,1-.18-.18.17.17,0,0,1,.18-.17Zm-.12.76h.24v1.91h-.24Z"/><path d="M123.91,41.36v-.9a.37.37,0,0,1-.15.13.47.47,0,0,1-.17,0,.37.37,0,0,1-.36-.24,2,2,0,0,1-.11-.8,1.61,1.61,0,0,1,.11-.71.37.37,0,0,1,.35-.23.41.41,0,0,1,.19.05.37.37,0,0,1,.14.14v-.16h.24v2.68Zm-.55-1.71a2,2,0,0,0,.06.61.22.22,0,0,0,.23.17.24.24,0,0,0,.22-.17,2.14,2.14,0,0,0,.06-.61,2.17,2.17,0,0,0-.06-.62c-.05-.12-.12-.18-.22-.18a.23.23,0,0,0-.23.17A2.26,2.26,0,0,0,123.36,39.65Z"/><path d="M124.59,38.68h.24v1.25a.88.88,0,0,0,.06.38.22.22,0,0,0,.21.1.2.2,0,0,0,.2-.1.85.85,0,0,0,.06-.38V38.68h.24V40a.82.82,0,0,1-.12.5.53.53,0,0,1-.76,0,.75.75,0,0,1-.13-.5Z"/><path d="M127,39.69h-.83v.07a1.11,1.11,0,0,0,.08.49.25.25,0,0,0,.22.18.24.24,0,0,0,.2-.13.66.66,0,0,0,.08-.34H127a.86.86,0,0,1-.15.49.43.43,0,0,1-.36.18.42.42,0,0,1-.4-.25,1.53,1.53,0,0,1-.13-.73,1.5,1.5,0,0,1,.14-.74.45.45,0,0,1,.4-.27.42.42,0,0,1,.39.25,1.61,1.61,0,0,1,.13.74Zm-.22-.19a1.22,1.22,0,0,0-.08-.48.23.23,0,0,0-.21-.16.26.26,0,0,0-.23.16,1.17,1.17,0,0,0-.09.48Z"/><path d="M119.25,45a.73.73,0,0,0,.22.18.48.48,0,0,0,.24.06A.39.39,0,0,0,120,45a.51.51,0,0,0,.13-.37.48.48,0,0,0,0-.18.28.28,0,0,0-.08-.15,1.59,1.59,0,0,0-.29-.27l-.13-.09a1.2,1.2,0,0,1-.31-.35.7.7,0,0,1-.1-.38.75.75,0,0,1,.19-.53.63.63,0,0,1,.47-.22.85.85,0,0,1,.23,0,1.13,1.13,0,0,1,.21.12V43a.57.57,0,0,0-.19-.19.46.46,0,0,0-.23-.06.35.35,0,0,0-.3.13.5.5,0,0,0-.12.35.62.62,0,0,0,.08.31,1.41,1.41,0,0,0,.37.34,1.41,1.41,0,0,1,.39.39.65.65,0,0,1,.1.38.76.76,0,0,1-.2.56.61.61,0,0,1-.49.22,1,1,0,0,1-.25,0,1.2,1.2,0,0,1-.23-.11Z"/><path d="M120.77,43.48H121v.17a.54.54,0,0,1,.15-.15.46.46,0,0,1,.21,0,.33.33,0,0,1,.21.06.45.45,0,0,1,.14.19.52.52,0,0,1,.18-.18.37.37,0,0,1,.23-.07.32.32,0,0,1,.3.15.9.9,0,0,1,.09.47v1.32h-.24V44a.73.73,0,0,0,0-.31.23.23,0,0,0-.19-.08.24.24,0,0,0-.21.12.82.82,0,0,0-.07.36v1.27h-.23V44a.58.58,0,0,0-.06-.31.19.19,0,0,0-.18-.08.24.24,0,0,0-.21.12.7.7,0,0,0-.07.36v1.27h-.24Z"/><path d="M123.67,45.39v-.17a.28.28,0,0,1-.13.15.37.37,0,0,1-.21.06.36.36,0,0,1-.35-.24,2,2,0,0,1-.11-.8,1.61,1.61,0,0,1,.11-.71.37.37,0,0,1,.35-.23.42.42,0,0,1,.2,0,.56.56,0,0,1,.14.16v-.18h.23v1.91Zm-.56-.94a2,2,0,0,0,.06.61.22.22,0,0,0,.23.17.23.23,0,0,0,.22-.17,2.14,2.14,0,0,0,.06-.61,2.17,2.17,0,0,0-.06-.62c-.05-.12-.12-.18-.22-.18a.23.23,0,0,0-.23.18A2.13,2.13,0,0,0,123.11,44.45Z"/><path d="M124.36,43.48h.23v.26a.55.55,0,0,1,.14-.21.37.37,0,0,1,.18-.08v.26a.32.32,0,0,0-.25.12,1,1,0,0,0-.07.42v1.14h-.23Z"/><path d="M125.23,43.67H125v-.19h.2v-.54h.23v.54h.32v.19h-.32v1.72h-.23Z"/><path d="M119.36,47.34h.9v.24h-.64v1h.63v.23h-.63v1.37h-.26Z"/><path d="M120.5,49.23a1.56,1.56,0,0,1,.14-.74.46.46,0,0,1,.82,0,1.62,1.62,0,0,1,.14.74,1.64,1.64,0,0,1-.14.75.46.46,0,0,1-.82,0A1.64,1.64,0,0,1,120.5,49.23Zm.55-.79c-.11,0-.18.06-.23.19a1.68,1.68,0,0,0-.08.6,1.79,1.79,0,0,0,.08.61c.05.13.12.19.23.19s.18-.07.23-.2a1.7,1.7,0,0,0,.07-.59,1.81,1.81,0,0,0-.07-.6C121.23,48.51,121.15,48.44,121.05,48.44Z"/><path d="M122.72,48.33v.27l-.11-.1a.28.28,0,0,0-.13,0,.29.29,0,0,0-.27.2,1.75,1.75,0,0,0-.08.61,1.4,1.4,0,0,0,.08.53.29.29,0,0,0,.26.18.32.32,0,0,0,.14,0,.36.36,0,0,0,.1-.11v.28l-.13.07-.15,0A.46.46,0,0,1,122,50a1.5,1.5,0,0,1-.14-.7,1.52,1.52,0,0,1,.15-.76.48.48,0,0,1,.44-.26l.13,0A.3.3,0,0,1,122.72,48.33Z"/><path d="M123,48.28h.23v1.25a.85.85,0,0,0,.07.38.21.21,0,0,0,.2.1.22.22,0,0,0,.21-.1.85.85,0,0,0,.06-.38V48.28H124v1.29a.82.82,0,0,1-.12.5.43.43,0,0,1-.38.16.44.44,0,0,1-.38-.16.82.82,0,0,1-.12-.5Z"/><path d="M124.33,49.82a1.19,1.19,0,0,0,.18.15.41.41,0,0,0,.18.05.29.29,0,0,0,.22-.09.25.25,0,0,0,.08-.21c0-.11-.09-.25-.29-.42l0,0a1.62,1.62,0,0,1-.3-.31.56.56,0,0,1-.07-.26.46.46,0,0,1,.48-.46.5.5,0,0,1,.17,0,.65.65,0,0,1,.17.08v.24a.57.57,0,0,0-.16-.11.45.45,0,0,0-.16,0,.26.26,0,0,0-.27.25q0,.16.27.39h0a1.63,1.63,0,0,1,.33.34.5.5,0,0,1,.07.27.54.54,0,0,1-.14.38.5.5,0,0,1-.37.15.45.45,0,0,1-.2,0,.52.52,0,0,1-.18-.1Z"/><path d="M119.55,52.37h-.45v-.23h1.15v.23h-.44V55h-.26Z"/><path d="M121.09,55v-.17A.24.24,0,0,1,121,55a.36.36,0,0,1-.2.06.38.38,0,0,1-.36-.24,2.16,2.16,0,0,1-.11-.8,1.74,1.74,0,0,1,.11-.71.39.39,0,0,1,.36-.23.38.38,0,0,1,.19.05.44.44,0,0,1,.14.16v-.18h.24V55Zm-.56-.94a1.69,1.69,0,0,0,.07.61.22.22,0,0,0,.22.17.22.22,0,0,0,.22-.17,1.76,1.76,0,0,0,.07-.61,1.79,1.79,0,0,0-.07-.62.22.22,0,0,0-.22-.18.23.23,0,0,0-.22.17A1.86,1.86,0,0,0,120.53,54.05Z"/><path d="M121.78,53.08H122v.26a.54.54,0,0,1,.13-.21.33.33,0,0,1,.18-.08v.26a.31.31,0,0,0-.24.12.86.86,0,0,0-.07.42V55h-.24Z"/><path d="M122.57,55.19h.22v0a.41.41,0,0,0,.07.27.25.25,0,0,0,.2.08.26.26,0,0,0,.21-.09.63.63,0,0,0,.06-.31v-.34a.29.29,0,0,1-.13.14A.38.38,0,0,1,123,55a.38.38,0,0,1-.37-.24,2.09,2.09,0,0,1-.11-.8,1.72,1.72,0,0,1,.11-.7.39.39,0,0,1,.36-.23.31.31,0,0,1,.19.06.34.34,0,0,1,.14.15v-.18h.24V55a2.67,2.67,0,0,1,0,.36.38.38,0,0,1,0,.17.41.41,0,0,1-.18.19.53.53,0,0,1-.26.06.49.49,0,0,1-.36-.14.62.62,0,0,1-.13-.4Zm.2-1.14a1.69,1.69,0,0,0,.07.61.22.22,0,0,0,.22.17.22.22,0,0,0,.22-.17,1.76,1.76,0,0,0,.07-.61,1.79,1.79,0,0,0-.07-.62.22.22,0,0,0-.22-.18.23.23,0,0,0-.22.17A1.86,1.86,0,0,0,122.77,54.05Z"/><path d="M125,54.09h-.84v.07a1.1,1.1,0,0,0,.09.49.25.25,0,0,0,.22.18.24.24,0,0,0,.2-.13.77.77,0,0,0,.08-.34H125a.86.86,0,0,1-.15.49.43.43,0,0,1-.36.18.42.42,0,0,1-.4-.25,1.52,1.52,0,0,1-.14-.73,1.49,1.49,0,0,1,.15-.74.45.45,0,0,1,.4-.27.42.42,0,0,1,.39.25A1.61,1.61,0,0,1,125,54Zm-.22-.19a1.44,1.44,0,0,0-.08-.48.23.23,0,0,0-.21-.16.25.25,0,0,0-.23.16,1.15,1.15,0,0,0-.1.48Z"/><path d="M125.35,53.27h-.2v-.19h.2v-.54h.24v.54h.31v.19h-.31V55h-.24Z"/><path d="M126.23,52.32a.17.17,0,0,1,.18.17.17.17,0,0,1-.18.18.17.17,0,0,1-.12-.05.18.18,0,0,1-.06-.13.14.14,0,0,1,.06-.12A.13.13,0,0,1,126.23,52.32Zm-.12.76h.24V55h-.24Z"/><path d="M126.81,53.08h.24v.17a.39.39,0,0,1,.36-.2.32.32,0,0,1,.3.15.88.88,0,0,1,.09.46V55h-.23V53.63a.58.58,0,0,0-.06-.31.19.19,0,0,0-.18-.08.24.24,0,0,0-.21.12.7.7,0,0,0-.07.36V55h-.24Z"/><path d="M128.19,55.19h.22v0a.41.41,0,0,0,.07.27.25.25,0,0,0,.2.08.23.23,0,0,0,.2-.09.53.53,0,0,0,.07-.31v-.34a.29.29,0,0,1-.13.14.39.39,0,0,1-.2.05.38.38,0,0,1-.36-.24,2.09,2.09,0,0,1-.11-.8,1.72,1.72,0,0,1,.11-.7.39.39,0,0,1,.36-.23.33.33,0,0,1,.19.06.34.34,0,0,1,.14.15v-.18h.24V55a2.67,2.67,0,0,1,0,.36.58.58,0,0,1,0,.17.41.41,0,0,1-.18.19.53.53,0,0,1-.26.06.49.49,0,0,1-.36-.14.62.62,0,0,1-.13-.4Zm.2-1.14a1.69,1.69,0,0,0,.07.61.22.22,0,0,0,.22.17.22.22,0,0,0,.22-.17,1.76,1.76,0,0,0,.07-.61,1.79,1.79,0,0,0-.07-.62.22.22,0,0,0-.22-.18.23.23,0,0,0-.22.17A1.86,1.86,0,0,0,128.39,54.05Z"/><path d="M12.88,40.41h.26l.37,2s0,.12,0,.22,0,.2,0,.32a4.24,4.24,0,0,1,.06-.51v0l.35-2h.27l-.58,2.85h-.23Z"/><path d="M14.38,42.3a1.56,1.56,0,0,1,.14-.74.46.46,0,0,1,.82,0,1.62,1.62,0,0,1,.14.74,1.64,1.64,0,0,1-.14.75.45.45,0,0,1-.41.25.44.44,0,0,1-.41-.25A1.64,1.64,0,0,1,14.38,42.3Zm.55-.79c-.11,0-.18.06-.23.19a1.72,1.72,0,0,0-.08.6,1.79,1.79,0,0,0,.08.61c.05.13.12.19.23.19a.26.26,0,0,0,.23-.19,2.61,2.61,0,0,0,0-1.2C15.11,41.58,15,41.51,14.93,41.51Z"/><path d="M16,40.59a.17.17,0,0,1,.18.17.18.18,0,0,1-.06.13.17.17,0,0,1-.12,0,.17.17,0,0,1-.18-.18.17.17,0,0,1,.18-.17Zm-.12.76h.24v1.91h-.24Z"/><path d="M17.29,41.4v.27l-.11-.1a.28.28,0,0,0-.13,0,.27.27,0,0,0-.26.2,1.53,1.53,0,0,0-.09.61,1.17,1.17,0,0,0,.09.53.28.28,0,0,0,.39.15.38.38,0,0,0,.11-.11v.28l-.14.07-.14,0a.46.46,0,0,1-.4-.25,1.37,1.37,0,0,1-.15-.7,1.52,1.52,0,0,1,.15-.76.49.49,0,0,1,.44-.26l.13,0A.24.24,0,0,1,17.29,41.4Z"/><path d="M18.55,42.36h-.84v.07a1.1,1.1,0,0,0,.09.49.25.25,0,0,0,.22.18.24.24,0,0,0,.2-.13.77.77,0,0,0,.08-.34h.23a.86.86,0,0,1-.15.49.43.43,0,0,1-.36.18.42.42,0,0,1-.4-.25,1.52,1.52,0,0,1-.14-.73,1.49,1.49,0,0,1,.15-.74.45.45,0,0,1,.4-.27.44.44,0,0,1,.39.25,1.61,1.61,0,0,1,.13.74Zm-.22-.19a1.14,1.14,0,0,0-.08-.47c-.05-.12-.12-.17-.21-.17a.25.25,0,0,0-.23.16,1.15,1.15,0,0,0-.1.48Z"/><path d="M20,40.41h.25l.58,2.85h-.26l-.12-.57h-.65l-.1.57h-.27Zm.08.72-.24,1.33h.57l-.24-1.33a1.54,1.54,0,0,0,0-.19c0-.07,0-.15,0-.24,0,.09,0,.16,0,.23Z"/><path d="M21,42.89a1.19,1.19,0,0,0,.18.15.41.41,0,0,0,.19.05.29.29,0,0,0,.21-.09.26.26,0,0,0,.09-.21q0-.16-.3-.42l0,0a1.46,1.46,0,0,1-.31-.31.55.55,0,0,1-.06-.26.44.44,0,0,1,.13-.33.45.45,0,0,1,.34-.13.47.47,0,0,1,.17,0,.65.65,0,0,1,.17.08v.24a.57.57,0,0,0-.16-.11.41.41,0,0,0-.16,0,.26.26,0,0,0-.19.07.26.26,0,0,0-.08.19c0,.1.09.23.27.38h0a1.63,1.63,0,0,1,.33.34.5.5,0,0,1,.07.27.54.54,0,0,1-.14.38.5.5,0,0,1-.37.15.45.45,0,0,1-.2,0,.52.52,0,0,1-.18-.1Z"/><path d="M22.07,42.89a1.19,1.19,0,0,0,.18.15.41.41,0,0,0,.18.05.29.29,0,0,0,.22-.09.29.29,0,0,0,.08-.21c0-.11-.1-.25-.29-.42l0,0a1.62,1.62,0,0,1-.3-.31.56.56,0,0,1-.07-.26.45.45,0,0,1,.14-.33.44.44,0,0,1,.34-.13.52.52,0,0,1,.17,0,.65.65,0,0,1,.17.08v.24a.57.57,0,0,0-.16-.11.45.45,0,0,0-.16,0,.25.25,0,0,0-.19.07.22.22,0,0,0-.08.19c0,.1.09.23.27.38h0a1.22,1.22,0,0,1,.33.34.53.53,0,0,1-.07.65.46.46,0,0,1-.36.15.45.45,0,0,1-.2,0,.52.52,0,0,1-.18-.1Z"/><path d="M23.34,40.59a.17.17,0,0,1,.18.17.17.17,0,0,1-.18.18.17.17,0,0,1-.12,0,.18.18,0,0,1-.06-.13.17.17,0,0,1,.18-.17Zm-.12.76h.24v1.91h-.24Z"/><path d="M23.82,42.89A1.19,1.19,0,0,0,24,43a.41.41,0,0,0,.18.05A.29.29,0,0,0,24.4,43a.25.25,0,0,0,.08-.21c0-.11-.09-.25-.29-.42l0,0a1.62,1.62,0,0,1-.3-.31.56.56,0,0,1-.07-.26.46.46,0,0,1,.48-.46.5.5,0,0,1,.17,0,.65.65,0,0,1,.17.08v.24a.57.57,0,0,0-.16-.11.45.45,0,0,0-.16,0,.25.25,0,0,0-.19.07.26.26,0,0,0-.08.19c0,.1.09.23.27.38h0a1.63,1.63,0,0,1,.33.34.5.5,0,0,1,.07.27.54.54,0,0,1-.14.38.5.5,0,0,1-.37.15.45.45,0,0,1-.2,0,.52.52,0,0,1-.18-.1Z"/><path d="M25,41.54h-.2v-.19H25v-.54h.23v.54h.32v.19h-.32v1.72H25Z"/><path d="M26.5,43.26v-.17a.28.28,0,0,1-.13.15.37.37,0,0,1-.21.06.36.36,0,0,1-.35-.24,2,2,0,0,1-.11-.8,1.78,1.78,0,0,1,.11-.71.37.37,0,0,1,.35-.23.42.42,0,0,1,.2,0,.56.56,0,0,1,.14.16v-.18h.23v1.91Zm-.56-.94a2,2,0,0,0,.06.61.23.23,0,0,0,.23.17.22.22,0,0,0,.22-.17,2.14,2.14,0,0,0,.06-.61,2.17,2.17,0,0,0-.06-.62.23.23,0,0,0-.22-.18.24.24,0,0,0-.23.18A2.13,2.13,0,0,0,25.94,42.32Z"/><path d="M27.19,41.35h.24v.17a.54.54,0,0,1,.15-.15.46.46,0,0,1,.21,0,.32.32,0,0,1,.3.15.9.9,0,0,1,.09.47v1.32H28V41.9a.58.58,0,0,0-.06-.31.19.19,0,0,0-.18-.08.24.24,0,0,0-.21.12.7.7,0,0,0-.07.36v1.27h-.24Z"/><path d="M28.65,41.54h-.2v-.19h.2v-.54h.24v.54h.32v.19h-.32v1.72h-.24Z"/><path d="M1,48l-.15.08a.51.51,0,0,1-.17,0,.57.57,0,0,1-.54-.36A2.71,2.71,0,0,1,0,46.64a2.79,2.79,0,0,1,.17-1.11.57.57,0,0,1,.54-.36.55.55,0,0,1,.53.36,2.6,2.6,0,0,1,.18,1.11,3.66,3.66,0,0,1-.06.72,1.41,1.41,0,0,1-.17.47l.2.31-.18.12Zm-.12-.21-.26-.4.17-.12.23.37a1.61,1.61,0,0,0,.07-.39,5.21,5.21,0,0,0,0-.6A2.91,2.91,0,0,0,1,45.71q-.11-.3-.33-.3c-.15,0-.26.1-.34.3a4.37,4.37,0,0,0,0,1.86c.08.19.19.29.34.29l.11,0Z"/><path d="M1.77,46.15H2V47.4a.88.88,0,0,0,.06.38.22.22,0,0,0,.21.1.21.21,0,0,0,.2-.1.85.85,0,0,0,.06-.38V46.15h.24v1.29a.82.82,0,0,1-.12.5.44.44,0,0,1-.38.16.46.46,0,0,1-.39-.16.82.82,0,0,1-.12-.5Z"/><path d="M3.33,45.39a.17.17,0,0,1,.18.17.17.17,0,0,1-.18.18.17.17,0,0,1-.12-.05.18.18,0,0,1-.06-.13.17.17,0,0,1,.18-.17Zm-.12.76h.24v1.91H3.21Z"/><path d="M4.67,46.2v.27a.35.35,0,0,0-.11-.1l-.12,0a.28.28,0,0,0-.27.2,1.5,1.5,0,0,0-.09.61,1.2,1.2,0,0,0,.09.53.28.28,0,0,0,.39.15.38.38,0,0,0,.11-.11V48l-.14.07-.14,0a.46.46,0,0,1-.4-.25,1.37,1.37,0,0,1-.15-.7A1.52,1.52,0,0,1,4,46.38a.49.49,0,0,1,.45-.26l.12,0A.24.24,0,0,1,4.67,46.2Z"/><path d="M5,45H5.2v3H5Zm.73,1.11H6L5.44,47l.69,1.08H5.85L5.21,47Z"/><path d="M7.76,48.06v-.17a.24.24,0,0,1-.13.15.36.36,0,0,1-.2.06.38.38,0,0,1-.36-.24,2.16,2.16,0,0,1-.11-.8,1.78,1.78,0,0,1,.11-.71.39.39,0,0,1,.36-.23.38.38,0,0,1,.19.05.44.44,0,0,1,.14.16v-.18H8v1.91Zm-.56-.94a1.69,1.69,0,0,0,.07.61.22.22,0,0,0,.22.17.21.21,0,0,0,.22-.17,1.76,1.76,0,0,0,.07-.61,1.79,1.79,0,0,0-.07-.62.22.22,0,0,0-.22-.18.23.23,0,0,0-.22.17A1.86,1.86,0,0,0,7.2,47.12Z"/><path d="M8.45,46.15h.24v.17a.42.42,0,0,1,.37-.2.32.32,0,0,1,.29.15.8.8,0,0,1,.1.47v1.32H9.21V46.7a.73.73,0,0,0-.05-.31A.23.23,0,0,0,9,46.31a.24.24,0,0,0-.21.12.7.7,0,0,0-.07.36v1.27H8.45Z"/><path d="M10.59,48.06v-.17a.37.37,0,0,1-.33.21.38.38,0,0,1-.36-.24,2.16,2.16,0,0,1-.11-.8,1.59,1.59,0,0,1,.12-.71.37.37,0,0,1,.35-.23.46.46,0,0,1,.2.05.47.47,0,0,1,.13.15V45h.24v3ZM10,47.12a2,2,0,0,0,.07.61.22.22,0,0,0,.22.17.21.21,0,0,0,.22-.17,1.76,1.76,0,0,0,.07-.61,1.79,1.79,0,0,0-.07-.62.22.22,0,0,0-.22-.18.23.23,0,0,0-.22.17A2.16,2.16,0,0,0,10,47.12Z"/><path d="M12,47.62a.84.84,0,0,0,.21.18.53.53,0,0,0,.24.06.43.43,0,0,0,.33-.15.55.55,0,0,0,.13-.37.48.48,0,0,0,0-.18.36.36,0,0,0-.08-.15,1.71,1.71,0,0,0-.3-.27l-.13-.09a1.59,1.59,0,0,1-.31-.35.79.79,0,0,1-.09-.38.75.75,0,0,1,.19-.53.6.6,0,0,1,.47-.22.78.78,0,0,1,.22,0,.94.94,0,0,1,.22.12v.34a.6.6,0,0,0-.2-.19.46.46,0,0,0-.23-.06.38.38,0,0,0-.3.13.54.54,0,0,0-.11.35.56.56,0,0,0,.07.3,1.58,1.58,0,0,0,.37.35,1.47,1.47,0,0,1,.4.39.74.74,0,0,1,.1.38.8.8,0,0,1-.2.56.62.62,0,0,1-.5.22.93.93,0,0,1-.24,0A1,1,0,0,1,12,48Z"/><path d="M13.64,45.39a.17.17,0,0,1,.18.17.17.17,0,0,1-.18.18.17.17,0,0,1-.12-.05.18.18,0,0,1-.06-.13.14.14,0,0,1,.06-.12A.13.13,0,0,1,13.64,45.39Zm-.12.76h.24v1.91h-.24Z"/><path d="M14.22,46.15h.24v.17a.39.39,0,0,1,.36-.2.38.38,0,0,1,.22.06.59.59,0,0,1,.14.19.42.42,0,0,1,.17-.18.37.37,0,0,1,.23-.07.32.32,0,0,1,.3.15.9.9,0,0,1,.09.47v1.32h-.24V46.7a.73.73,0,0,0-.05-.31.22.22,0,0,0-.18-.08.21.21,0,0,0-.21.12.69.69,0,0,0-.08.36v1.27H15V46.7a.58.58,0,0,0-.06-.31.19.19,0,0,0-.18-.08.24.24,0,0,0-.21.12.7.7,0,0,0-.07.36v1.27h-.24Z"/><path d="M16.41,46.15h.23v.16a.48.48,0,0,1,.15-.14.41.41,0,0,1,.19-.05.37.37,0,0,1,.35.23,1.81,1.81,0,0,1,.11.76,1.79,1.79,0,0,1-.11.75.38.38,0,0,1-.36.24.39.39,0,0,1-.33-.17v.9h-.23Zm.5,1.75a.21.21,0,0,0,.22-.16,2.83,2.83,0,0,0,0-1.25.22.22,0,0,0-.22-.17c-.1,0-.17.06-.22.18a2.17,2.17,0,0,0-.06.62,2.14,2.14,0,0,0,.06.61A.23.23,0,0,0,16.91,47.9Z"/><path d="M17.8,45H18v3H17.8Z"/><path d="M19.47,47.16h-.84v.07a1.1,1.1,0,0,0,.09.49.25.25,0,0,0,.22.18.24.24,0,0,0,.2-.13.77.77,0,0,0,.08-.34h.23a.86.86,0,0,1-.15.49.43.43,0,0,1-.36.18.42.42,0,0,1-.4-.25,1.52,1.52,0,0,1-.14-.73,1.49,1.49,0,0,1,.15-.74.45.45,0,0,1,.4-.27.44.44,0,0,1,.39.25,1.61,1.61,0,0,1,.13.74ZM19.25,47a1.22,1.22,0,0,0-.08-.48.23.23,0,0,0-.21-.16.25.25,0,0,0-.23.16,1.15,1.15,0,0,0-.1.48Z"/><path d="M21.62,48l-.18.07-.19,0a.61.61,0,0,1-.58-.35,2.43,2.43,0,0,1-.18-1.07,2.25,2.25,0,0,1,.2-1.09.61.61,0,0,1,.58-.37.58.58,0,0,1,.19,0,.44.44,0,0,1,.16.06v.28l-.16-.09a.45.45,0,0,0-.16,0,.44.44,0,0,0-.41.29,2.22,2.22,0,0,0-.13.89,2.55,2.55,0,0,0,.12.94.42.42,0,0,0,.41.27h.11l.1,0,.06,0,.06,0Z"/><path d="M21.78,47.1a1.56,1.56,0,0,1,.14-.74.46.46,0,0,1,.82,0,1.62,1.62,0,0,1,.14.74,1.64,1.64,0,0,1-.14.75.45.45,0,0,1-.41.25.44.44,0,0,1-.41-.25A1.64,1.64,0,0,1,21.78,47.1Zm.55-.79c-.11,0-.18.06-.23.19a1.77,1.77,0,0,0-.07.6,1.84,1.84,0,0,0,.07.61c0,.13.12.19.23.19s.18-.07.23-.2a1.7,1.7,0,0,0,.07-.59,1.81,1.81,0,0,0-.07-.6C22.51,46.38,22.43,46.31,22.33,46.31Z"/><path d="M23.13,47.1a1.56,1.56,0,0,1,.14-.74.44.44,0,0,1,.42-.25.43.43,0,0,1,.4.25,1.62,1.62,0,0,1,.14.74,1.64,1.64,0,0,1-.14.75.46.46,0,0,1-.82,0A1.64,1.64,0,0,1,23.13,47.1Zm.55-.79a.25.25,0,0,0-.23.19,1.77,1.77,0,0,0-.07.6,1.84,1.84,0,0,0,.07.61.25.25,0,0,0,.23.19c.11,0,.18-.07.23-.2a1.66,1.66,0,0,0,.08-.59,1.76,1.76,0,0,0-.08-.6C23.86,46.38,23.79,46.31,23.68,46.31Z"/><path d="M24.59,45h.23v3h-.23Zm.72,1.11h.27l-.52.83.69,1.08h-.28L24.83,47Z"/><path d="M26,45.39a.13.13,0,0,1,.12,0,.14.14,0,0,1,.06.12.18.18,0,0,1-.06.13.17.17,0,0,1-.12.05.17.17,0,0,1-.18-.18.17.17,0,0,1,.18-.17Zm-.12.76h.24v1.91h-.24Z"/><path d="M26.59,46.15h.23v.17a.57.57,0,0,1,.16-.15.46.46,0,0,1,.21-.05.33.33,0,0,1,.3.15.9.9,0,0,1,.09.47v1.32h-.24V46.7a.73.73,0,0,0-.05-.31.22.22,0,0,0-.18-.08.24.24,0,0,0-.22.12.82.82,0,0,0-.07.36v1.27h-.23Z"/><path d="M28,48.26h.22v0a.49.49,0,0,0,.06.27.28.28,0,0,0,.2.08.23.23,0,0,0,.21-.09.63.63,0,0,0,.06-.31V47.9a.33.33,0,0,1-.12.14.42.42,0,0,1-.2.05.37.37,0,0,1-.36-.24,1.91,1.91,0,0,1-.11-.8,1.57,1.57,0,0,1,.11-.7.38.38,0,0,1,.35-.23.34.34,0,0,1,.2.06.32.32,0,0,1,.13.15v-.18H29v1.91a3.24,3.24,0,0,1,0,.36.58.58,0,0,1-.05.17.46.46,0,0,1-.44.25.46.46,0,0,1-.36-.14.57.57,0,0,1-.13-.4Zm.2-1.14a2,2,0,0,0,.06.61.23.23,0,0,0,.23.17.23.23,0,0,0,.22-.17,2.14,2.14,0,0,0,.06-.61,2.17,2.17,0,0,0-.06-.62c-.05-.12-.12-.18-.22-.18a.24.24,0,0,0-.23.17A2.26,2.26,0,0,0,28.17,47.12Z"/><path d="M16.81,52.42a.73.73,0,0,0,.22.18.46.46,0,0,0,.23.06.4.4,0,0,0,.33-.15.51.51,0,0,0,.13-.37.48.48,0,0,0,0-.18.36.36,0,0,0-.08-.15,1.42,1.42,0,0,0-.3-.27l-.12-.09a1.2,1.2,0,0,1-.31-.35.7.7,0,0,1-.1-.38.75.75,0,0,1,.19-.53.62.62,0,0,1,.47-.22.93.93,0,0,1,.23,0,1.13,1.13,0,0,1,.21.12v.34a.69.69,0,0,0-.19-.19.46.46,0,0,0-.23-.06.39.39,0,0,0-.31.13.54.54,0,0,0-.11.35.62.62,0,0,0,.08.31,1.41,1.41,0,0,0,.37.34,1.41,1.41,0,0,1,.39.39.65.65,0,0,1,.1.38.8.8,0,0,1-.2.56.61.61,0,0,1-.49.22,1,1,0,0,1-.25,0,1,1,0,0,1-.23-.11Z"/><path d="M18.44,50.19a.15.15,0,0,1,.13.05.13.13,0,0,1,.05.12.17.17,0,0,1-.05.13.19.19,0,0,1-.13,0,.21.21,0,0,1-.12,0,.21.21,0,0,1-.05-.13.17.17,0,0,1,.05-.12A.13.13,0,0,1,18.44,50.19Zm-.12.76h.24v1.91h-.24Z"/><path d="M19,51h.24v.17a.42.42,0,0,1,.37-.2.32.32,0,0,1,.29.15.8.8,0,0,1,.1.47v1.32h-.24V51.5a.73.73,0,0,0-.05-.31.23.23,0,0,0-.19-.08.24.24,0,0,0-.21.12.7.7,0,0,0-.07.36v1.27H19Z"/><path d="M20.41,53.06h.21v0a.48.48,0,0,0,.07.27.26.26,0,0,0,.2.08.25.25,0,0,0,.21-.09.63.63,0,0,0,.06-.31V52.7a.29.29,0,0,1-.13.14.38.38,0,0,1-.19,0,.39.39,0,0,1-.37-.24,2.09,2.09,0,0,1-.11-.8,1.54,1.54,0,0,1,.12-.7.37.37,0,0,1,.35-.23A.31.31,0,0,1,21,51a.29.29,0,0,1,.14.15V51h.24v1.91a2.67,2.67,0,0,1,0,.36.38.38,0,0,1-.05.17.45.45,0,0,1-.17.19.57.57,0,0,1-.27.06.45.45,0,0,1-.35-.14.57.57,0,0,1-.13-.4Zm.19-1.14a2,2,0,0,0,.07.61.22.22,0,0,0,.22.17.21.21,0,0,0,.22-.17,1.76,1.76,0,0,0,.07-.61,1.79,1.79,0,0,0-.07-.62.22.22,0,0,0-.22-.18.23.23,0,0,0-.22.18A2,2,0,0,0,20.6,51.92Z"/><path d="M21.85,49.84h.24v3h-.24Z"/><path d="M23.52,52h-.84V52a1.28,1.28,0,0,0,.08.49c.06.12.13.18.23.18a.23.23,0,0,0,.19-.13.65.65,0,0,0,.09-.34h.22a.74.74,0,0,1-.15.49.42.42,0,0,1-.35.18.44.44,0,0,1-.41-.25,1.67,1.67,0,0,1-.13-.73,1.49,1.49,0,0,1,.15-.74.43.43,0,0,1,.79,0,1.75,1.75,0,0,1,.13.74Zm-.23-.19a1.16,1.16,0,0,0-.07-.47c0-.12-.12-.17-.21-.17a.24.24,0,0,0-.23.16,1.15,1.15,0,0,0-.1.48Z"/><path d="M24.67,50H25a.71.71,0,0,1,.67.31,2.26,2.26,0,0,1,.2,1.13,2.23,2.23,0,0,1-.2,1.1.74.74,0,0,1-.68.31h-.32Zm.26.24v2.37H25a.51.51,0,0,0,.48-.23,2,2,0,0,0,.14-.91,2.55,2.55,0,0,0-.13-1,.49.49,0,0,0-.47-.24Z"/><path d="M26.36,50.19a.17.17,0,0,1,.18.17.18.18,0,0,1-.06.13.17.17,0,0,1-.12,0,.17.17,0,0,1-.18-.18.17.17,0,0,1,.18-.17Zm-.12.76h.24v1.91h-.24Z"/><path d="M26.84,52.49l.18.15a.41.41,0,0,0,.18,0,.29.29,0,0,0,.22-.09.29.29,0,0,0,.08-.21c0-.11-.1-.25-.29-.42l0,0a1.62,1.62,0,0,1-.3-.31.56.56,0,0,1-.07-.26.45.45,0,0,1,.14-.33.44.44,0,0,1,.34-.13.52.52,0,0,1,.17,0,.6.6,0,0,1,.16.08v.24a.42.42,0,0,0-.15-.11.45.45,0,0,0-.16,0,.25.25,0,0,0-.19.07.22.22,0,0,0-.08.19c0,.1.09.23.27.38h0a1.22,1.22,0,0,1,.33.34.53.53,0,0,1-.07.65.46.46,0,0,1-.36.15.52.52,0,0,1-.21,0,.59.59,0,0,1-.17-.1Z"/><path d="M28,49.84h.24v1.28a.42.42,0,0,1,.37-.2.32.32,0,0,1,.29.15.8.8,0,0,1,.1.47v1.32h-.24V51.5a.73.73,0,0,0-.05-.31.23.23,0,0,0-.19-.08.24.24,0,0,0-.21.12.7.7,0,0,0-.07.36v1.27H28Z"/><path d="M62,91.29l-.36.86L61.36,92l.44-.83Zm.57,0-.36.86L61.93,92l.44-.83Z"/><path d="M62.79,93.65a.73.73,0,0,0,.22.18.6.6,0,0,0,.24,0,.39.39,0,0,0,.32-.14.52.52,0,0,0,.13-.37.48.48,0,0,0,0-.18.35.35,0,0,0-.08-.16,1.31,1.31,0,0,0-.29-.26l-.13-.09a1.2,1.2,0,0,1-.31-.35.72.72,0,0,1-.1-.38.78.78,0,0,1,.19-.54.62.62,0,0,1,.47-.21.85.85,0,0,1,.23,0,1.13,1.13,0,0,1,.21.12v.33a.54.54,0,0,0-.19-.18.46.46,0,0,0-.23-.06.35.35,0,0,0-.3.13.49.49,0,0,0-.12.34.59.59,0,0,0,.08.31,1.39,1.39,0,0,0,.37.35,1.4,1.4,0,0,1,.39.38.71.71,0,0,1,.1.39.77.77,0,0,1-.2.56.64.64,0,0,1-.49.22.69.69,0,0,1-.25,0,.77.77,0,0,1-.23-.1Z"/><path d="M64.42,91.42a.14.14,0,0,1,.13,0,.17.17,0,0,1,0,.24.16.16,0,0,1-.13.06.17.17,0,0,1-.12-.06.17.17,0,0,1,0-.24A.15.15,0,0,1,64.42,91.42Zm-.11.76h.24v1.91h-.24Z"/><path d="M65,92.18h.24v.17a.33.33,0,0,1,.16-.15.46.46,0,0,1,.21,0,.32.32,0,0,1,.29.15.78.78,0,0,1,.1.46v1.33h-.24V92.73a.73.73,0,0,0-.05-.31.2.2,0,0,0-.19-.08.24.24,0,0,0-.21.12.82.82,0,0,0-.07.36v1.27H65Z"/><path d="M66.39,94.29h.21v0a.45.45,0,0,0,.07.26.24.24,0,0,0,.2.09.23.23,0,0,0,.21-.09.63.63,0,0,0,.06-.31v-.34a.29.29,0,0,1-.13.14.36.36,0,0,1-.19,0,.38.38,0,0,1-.37-.23,2.09,2.09,0,0,1-.11-.8,1.54,1.54,0,0,1,.12-.7.37.37,0,0,1,.35-.23.38.38,0,0,1,.19,0,.4.4,0,0,1,.14.15v-.17h.24v1.91a3.24,3.24,0,0,1,0,.36.58.58,0,0,1-.05.17.66.66,0,0,1-.18.19.55.55,0,0,1-.26.06.46.46,0,0,1-.36-.14.58.58,0,0,1-.13-.41Zm.19-1.15a2,2,0,0,0,.07.62.23.23,0,0,0,.23.17.24.24,0,0,0,.22-.17,2.17,2.17,0,0,0,.06-.62,2.14,2.14,0,0,0-.06-.61c0-.12-.12-.18-.22-.18a.23.23,0,0,0-.23.17A2.08,2.08,0,0,0,66.58,93.14Z"/><path d="M67.83,91.06h.24v3h-.24Z"/><path d="M69.5,93.19h-.84v.07a1.1,1.1,0,0,0,.09.49.24.24,0,0,0,.22.17.23.23,0,0,0,.2-.12.81.81,0,0,0,.08-.34h.23a.89.89,0,0,1-.15.49.45.45,0,0,1-.76-.07,2,2,0,0,1,0-1.48.44.44,0,0,1,.4-.26.42.42,0,0,1,.39.25,1.61,1.61,0,0,1,.13.74ZM69.27,93a1.22,1.22,0,0,0-.07-.48c0-.11-.12-.17-.21-.17a.26.26,0,0,0-.23.17,1.15,1.15,0,0,0-.1.48Z"/><path d="M72.11,91.71v1.11H73.2V93H72.11v1.11H72V93H70.86v-.16H72V91.71Z"/><path d="M75.75,94l-.17.07-.2,0a.6.6,0,0,1-.57-.35,2.27,2.27,0,0,1-.19-1.07,2.38,2.38,0,0,1,.2-1.09.64.64,0,0,1,.59-.38l.18,0,.17.06v.28a.51.51,0,0,0-.17-.08.4.4,0,0,0-.15,0,.41.41,0,0,0-.41.29,2.19,2.19,0,0,0-.14.89,2.34,2.34,0,0,0,.13.94.41.41,0,0,0,.4.27h.11l.11,0,.06,0a.1.1,0,0,0,0,0Z"/><path d="M75.92,93.13a1.45,1.45,0,0,1,.14-.74.44.44,0,0,1,.41-.25.45.45,0,0,1,.41.25,1.61,1.61,0,0,1,.13.74,1.58,1.58,0,0,1-.13.74.45.45,0,0,1-.41.26.45.45,0,0,1-.41-.25A1.52,1.52,0,0,1,75.92,93.13Zm.55-.79a.25.25,0,0,0-.24.19,2,2,0,0,0-.07.6,2.15,2.15,0,0,0,.07.61.26.26,0,0,0,.24.19c.1,0,.18-.07.23-.2a1.78,1.78,0,0,0,.07-.59,1.81,1.81,0,0,0-.07-.6C76.65,92.4,76.57,92.34,76.47,92.34Z"/><path d="M77.27,93.13a1.56,1.56,0,0,1,.14-.74.46.46,0,0,1,.82,0,1.59,1.59,0,0,1,.14.74,1.56,1.56,0,0,1-.14.74.45.45,0,0,1-.41.26.45.45,0,0,1-.41-.25A1.64,1.64,0,0,1,77.27,93.13Zm.55-.79a.23.23,0,0,0-.23.19,1.68,1.68,0,0,0-.08.6,1.79,1.79,0,0,0,.08.61.24.24,0,0,0,.23.19c.1,0,.18-.07.23-.2a1.78,1.78,0,0,0,.07-.59,1.81,1.81,0,0,0-.07-.6C78,92.4,77.92,92.34,77.82,92.34Z"/><path d="M78.72,91.06H79v3h-.24Zm.73,1.12h.26L79.2,93l.69,1.08H79.6L79,93Z"/><path d="M79.89,92.06l.36-.86.25.13-.44.82Zm.57,0,.36-.86.25.13-.44.82Z"/><line x1="36.51" y1="80.89" x2="36.76" y2="80.89" fill="none" stroke="#4c4b4c" stroke-miterlimit="10" stroke-width="0.25"/><line x1="37.26" y1="80.89" x2="105.41" y2="80.89" fill="none" stroke="#4c4b4c" stroke-miterlimit="10" stroke-width="0.25" stroke-dasharray="0.5 0.5"/><line x1="105.66" y1="80.89" x2="105.91" y2="80.89" fill="none" stroke="#4c4b4c" stroke-miterlimit="10" stroke-width="0.25"/><line x1="36.51" y1="82.1" x2="36.76" y2="82.1" fill="none" stroke="#4c4b4c" stroke-miterlimit="10" stroke-width="0.25"/><line x1="37.26" y1="82.1" x2="105.41" y2="82.1" fill="none" stroke="#4c4b4c" stroke-miterlimit="10" stroke-width="0.25" stroke-dasharray="0.5 0.5"/><line x1="105.66" y1="82.1" x2="105.91" y2="82.1" fill="none" stroke="#4c4b4c" stroke-miterlimit="10" stroke-width="0.25"/><line x1="44.76" y1="41.96" x2="32.19" y2="41.96" fill="none" stroke="#4c4b4c" stroke-miterlimit="10" stroke-width="0.25" stroke-dasharray="0.5"/><polyline points="56.14 34.22 32.19 34.22 32.19 59.19 37.38 59.19" fill="none" stroke="#4c4b4c" stroke-miterlimit="10" stroke-width="0.25" stroke-dasharray="0.5"/><polyline points="109.55 0.13 116.08 0.13 116.08 79 109.55 79" fill="none" stroke="#4c4b4c" stroke-miterlimit="10" stroke-width="0.25" stroke-dasharray="0.5"/><line x1="71.21" y1="84.17" x2="71.21" y2="90.66" fill="none" stroke="#4c4b4c" stroke-miterlimit="10" stroke-width="0.25" stroke-dasharray="0.5"/></g></g>
</svg>