<svg xmlns="http://www.w3.org/2000/svg" viewBox="0 0 134.37 155.04"><title>자산 1</title><g id="a534d863-e840-496c-afaa-171f03c0e119" data-name="레이어 2"><g id="e57c1cc8-2b93-4503-9b99-ba70aee09000" data-name="레이어 1"><path d="M30.06,22.3V149.78H5.26V22.3h24.8M35.32,17H0V155H35.32V17Z" fill="#040000"/><path d="M52.46,138V124.42H35.32V155H67.46c23.7,0,39.93-8.31,46.34-22.66C106.06,136,96.28,138,84.74,138Z" fill="#d02137"/><path d="M91,83.2c11.56-5.31,20.14-14.73,20.14-30.63v-.39c0-9.42-3.17-16.69-8.39-22.18-7.64-8-19.2-12.37-35.61-12.37H35.32V48.26H58.89c.6,0,1.19,0,1.77,0l.5,0,1.23.1.48,0c.52.06,1,.13,1.54.22l.06,0c.48.08.93.18,1.37.29l.43.11,1,.29.4.13c.41.14.81.3,1.19.47l.14.07c.33.15.64.31,1,.48l.35.21c.24.14.46.29.68.44l.32.22c.29.22.57.45.83.69l.16.16q.32.3.6.63c.09.1.17.21.25.31s.29.38.42.57l.22.32A11,11,0,0,1,75.29,60v.4c0,8-6.15,12-17.15,12H35.32V99.1H63c.69,0,1.35,0,2,.05l.61,0,1.29.1.65.08,1.16.17.59.09,1.41.31.51.14,1.05.32.62.23c.24.09.47.18.69.28l.64.28c.19.09.37.19.55.29s.43.22.63.34l.34.23A11.72,11.72,0,0,1,77,103l.23.19c.2.18.39.37.57.56L78,104c.18.2.36.41.52.62a1.27,1.27,0,0,1,.13.19A9.51,9.51,0,0,1,80,107.25h0a12.2,12.2,0,0,1,.72,4.21v.4c0,8-6.34,12.56-17.34,12.56h-28V155H67.46c31.14,0,49.41-14.33,49.41-37.88v-.4C116.87,98.12,106.8,88.69,91,83.2Z" fill="#d02137"/><path d="M108.61,66c0-.1.1-.2.14-.3l-.41.2Z" fill="#d02137"/><path d="M108.93,66l-.28-.1.41-.2c11.4-5.36,19.5-14.78,19.5-30.56V34.7c0-9.46-3.18-16.76-8.42-22.28C112.46,4.33,100.85,0,84.37,0L52.46.07H31.2v138H52.46V138H84.74c11.54,0,21.32-2,29.06-5.63,13.25-6.26,20.57-17.5,20.57-32.42v-.4C134.37,80.94,124.68,71.49,108.93,66ZM52.46,30.76H76.13c10.86,0,16.48,4.33,16.48,11.82V43c0,8.08-6.18,12-17.23,12H52.46ZM98,94.63c0,8.09-6.37,12.62-17.42,12.62H52.46V81.82H80.25C92.42,81.82,98,86.75,98,94.24Z" fill="#040000"/><polygon points="17.14 51.88 17.14 59.16 31.2 45.1 31.2 37.82 17.14 51.88" fill="#040000"/><polygon points="17.14 25 17.14 32.28 31.2 18.23 31.2 10.94 17.14 25" fill="#040000"/><polygon points="28.7 0.07 17.14 11.56 17.14 18.84 31.2 4.79 31.2 0.07 28.7 0.07" fill="#040000"/><polygon points="17.14 38.44 17.14 45.72 31.2 31.67 31.2 24.38 17.14 38.44" fill="#040000"/><polygon points="17.14 0.07 17.14 5.4 22.55 0.07 17.14 0.07" fill="#040000"/><polygon points="17.14 65.31 17.14 72.6 31.2 58.54 31.2 51.26 17.14 65.31" fill="#040000"/><polygon points="17.14 92.19 17.14 99.48 31.2 85.42 31.2 78.14 17.14 92.19" fill="#040000"/><polygon points="17.14 78.75 17.14 86.04 31.2 71.98 31.2 64.7 17.14 78.75" fill="#040000"/><polygon points="17.14 105.63 17.14 112.92 31.2 98.86 31.2 91.58 17.14 105.63" fill="#040000"/><polygon points="17.14 119.07 17.14 126.35 31.2 112.3 31.2 105.02 17.14 119.07" fill="#040000"/><polygon points="17.14 132.51 17.14 138.01 18.93 138.01 31.2 125.74 31.2 118.45 17.14 132.51" fill="#040000"/><polygon points="25.08 138.01 31.2 138.01 31.2 131.89 25.08 138.01" fill="#040000"/></g></g></svg>