<svg xmlns="http://www.w3.org/2000/svg" viewBox="0 0 2713.82 2394.04"><title>자산 3</title><g id="f3c5439a-7279-48d2-9c7a-a6d2c26d3760" data-name="레이어 2"><g id="af9d9354-f219-42c5-bc2c-0973fe5bb7c4" data-name="레이어 1"><rect width="2713.82" height="2394.04" fill="#fff"/><rect y="128.08" width="56.14" height="322.95" fill="none"/><polygon points="56.14 1901.37 56.14 2224.32 0 2224.32 0 2237.65 69.47 2237.65 69.47 1888.04 0 1888.04 0 1901.37 56.14 1901.37" fill="#040000"/><rect y="1396.03" width="69.47" height="349.61" fill="#040000"/><polygon points="68.19 663.85 68.19 645.4 0 713.59 0 732.05 68.19 663.85" fill="#040000"/><polygon points="61.77 602.18 43.32 602.18 0 645.5 0 663.96 61.77 602.18" fill="#040000"/><polygon points="27.73 602.18 9.28 602.18 0 611.46 0 629.91 27.73 602.18" fill="#040000"/><polygon points="68.19 629.81 68.19 611.35 0 679.55 0 698 68.19 629.81" fill="#040000"/><polygon points="68.19 697.9 68.19 679.44 0 747.64 0 766.09 68.19 697.9" fill="#040000"/><polygon points="68.19 765.99 68.19 747.53 0 815.73 0 834.18 68.19 765.99" fill="#040000"/><polygon points="68.19 731.94 68.19 713.49 0 781.68 0 800.14 68.19 731.94" fill="#040000"/><polygon points="68.19 1242.61 68.19 1224.16 34.16 1258.2 52.6 1258.2 68.19 1242.61" fill="#040000"/><polygon points="68.19 800.03 68.19 781.58 0 849.77 0 868.23 68.19 800.03" fill="#040000"/><polygon points="68.19 834.08 68.19 815.62 0 883.82 0 902.27 68.19 834.08" fill="#040000"/><polygon points="68.19 902.17 68.19 883.71 0 951.91 0 970.36 68.19 902.17" fill="#040000"/><polygon points="68.19 868.12 68.19 849.67 0 917.86 0 936.32 68.19 868.12" fill="#040000"/><polygon points="68.19 936.21 68.19 917.76 0 985.95 0 1004.4 68.19 936.21" fill="#040000"/><polygon points="68.19 1004.3 68.19 985.85 0 1054.04 0 1072.49 68.19 1004.3" fill="#040000"/><polygon points="68.19 970.26 68.19 951.8 0 1020 0 1038.45 68.19 970.26" fill="#040000"/><polygon points="68.19 1038.35 68.19 1019.89 0 1088.09 0 1106.54 68.19 1038.35" fill="#040000"/><polygon points="68.19 1072.39 68.19 1053.94 0 1122.13 0 1140.59 68.19 1072.39" fill="#040000"/><polygon points="68.19 1106.44 68.19 1087.98 0 1156.18 0 1174.63 68.19 1106.44" fill="#040000"/><polygon points="68.19 1140.48 68.19 1122.03 0 1190.22 0 1208.67 68.19 1140.48" fill="#040000"/><polygon points="68.19 1174.53 68.19 1156.07 0 1224.27 0 1242.72 68.19 1174.53" fill="#040000"/><polygon points="68.19 1190.12 0.11 1258.2 18.57 1258.2 68.19 1208.57 68.19 1190.12" fill="#040000"/><rect x="2657.69" y="928.14" width="56.14" height="322.95" fill="none"/><polygon points="2645.63 1533.65 2645.63 1552.11 2713.82 1483.91 2713.82 1465.46 2645.63 1533.65" fill="#040000"/><polygon points="2708.95 1402.24 2645.63 1465.57 2645.63 1484.02 2713.82 1415.82 2713.82 1402.24 2708.95 1402.24" fill="#040000"/><polygon points="2645.63 1449.97 2693.36 1402.24 2674.91 1402.24 2645.63 1431.52 2645.63 1449.97" fill="#040000"/><polygon points="2645.63 1499.61 2645.63 1518.06 2713.82 1449.87 2713.82 1431.41 2645.63 1499.61" fill="#040000"/><polygon points="2645.63 1415.93 2659.31 1402.24 2645.63 1402.24 2645.63 1415.93" fill="#040000"/><polygon points="2645.63 1567.7 2645.63 1586.15 2713.82 1517.96 2713.82 1499.51 2645.63 1567.7" fill="#040000"/><polygon points="2645.63 1635.79 2645.63 1654.24 2713.82 1586.05 2713.82 1567.6 2645.63 1635.79" fill="#040000"/><polygon points="2645.63 1601.74 2645.63 1620.2 2713.82 1552 2713.82 1533.55 2645.63 1601.74" fill="#040000"/><polygon points="2645.63 1669.83 2645.63 1688.29 2713.82 1620.09 2713.82 1601.64 2645.63 1669.83" fill="#040000"/><polygon points="2645.63 1703.88 2645.63 1722.33 2713.82 1654.14 2713.82 1635.68 2645.63 1703.88" fill="#040000"/><polygon points="2645.63 1771.97 2645.63 1790.42 2713.82 1722.23 2713.82 1703.77 2645.63 1771.97" fill="#040000"/><polygon points="2645.63 1737.92 2645.63 1756.38 2713.82 1688.18 2713.82 1669.73 2645.63 1737.92" fill="#040000"/><polygon points="2645.63 1806.01 2645.63 1824.47 2713.82 1756.27 2713.82 1737.82 2645.63 1806.01" fill="#040000"/><polygon points="2645.63 1840.06 2645.63 1858.51 2713.82 1790.32 2713.82 1771.86 2645.63 1840.06" fill="#040000"/><polygon points="2699.79 1888.04 2713.82 1888.04 2713.82 1874.01 2699.79 1888.04" fill="#040000"/><polygon points="2645.63 1874.11 2645.63 1888.04 2650.15 1888.04 2713.82 1824.37 2713.82 1805.92 2645.63 1874.11" fill="#040000"/><polygon points="2665.74 1888.04 2684.2 1888.04 2713.82 1858.41 2713.82 1839.96 2665.74 1888.04" fill="#040000"/><polygon points="2657.68 1251.09 2657.68 928.14 2713.82 928.14 2713.82 914.81 2644.35 914.81 2644.35 1264.42 2713.82 1264.42 2713.82 1251.09 2657.68 1251.09" fill="#040000"/><rect x="2644.35" y="2026.01" width="69.47" height="349.61" fill="#040000"/></g></g></svg>