<svg id="레이어_1" data-name="레이어 1" xmlns="http://www.w3.org/2000/svg" width="2713.8" height="2394" viewBox="0 0 2713.8 2394"><defs><style>.cls-1{fill:#fff;}.cls-2{fill:none;}.cls-3{fill:#040000;}</style></defs><title>pf_bg2</title><g id="f3c5439a-7279-48d2-9c7a-a6d2c26d3760"><g id="af9d9354-f219-42c5-bc2c-0973fe5bb7c4"><rect class="cls-1" width="2713.8" height="2394.04"/><rect class="cls-2" y="128.1" width="56.1" height="322.95"/><polygon class="cls-3" points="56.1 1901.4 56.1 2224.3 0 2224.3 0 2237.7 69.5 2237.7 69.5 1888 0 1888 0 1901.4 56.1 1901.4"/><rect class="cls-3" y="1396" width="69.5" height="349.61"/><polygon class="cls-3" points="68.2 663.9 68.2 645.4 0 713.6 0 732 68.2 663.9"/><polygon class="cls-3" points="61.8 602.2 43.3 602.2 0 645.5 0 664 61.8 602.2"/><polygon class="cls-3" points="27.7 602.2 9.3 602.2 0 611.5 0 629.9 27.7 602.2"/><polygon class="cls-3" points="68.2 629.8 68.2 611.4 0 679.5 0 698 68.2 629.8"/><polygon class="cls-3" points="68.2 697.9 68.2 679.4 0 747.6 0 766.1 68.2 697.9"/><polygon class="cls-3" points="68.2 766 68.2 747.5 0 815.7 0 834.2 68.2 766"/><polygon class="cls-3" points="68.2 731.9 68.2 713.5 0 781.7 0 800.1 68.2 731.9"/><polygon class="cls-3" points="68.2 1242.6 68.2 1224.2 34.2 1258.2 52.6 1258.2 68.2 1242.6"/><polygon class="cls-3" points="68.2 800 68.2 781.6 0 849.8 0 868.2 68.2 800"/><polygon class="cls-3" points="68.2 834.1 68.2 815.6 0 883.8 0 902.3 68.2 834.1"/><polygon class="cls-3" points="68.2 902.2 68.2 883.7 0 951.9 0 970.4 68.2 902.2"/><polygon class="cls-3" points="68.2 868.1 68.2 849.7 0 917.9 0 936.3 68.2 868.1"/><polygon class="cls-3" points="68.2 936.2 68.2 917.8 0 986 0 1004.4 68.2 936.2"/><polygon class="cls-3" points="68.2 1004.3 68.2 985.9 0 1054 0 1072.5 68.2 1004.3"/><polygon class="cls-3" points="68.2 970.3 68.2 951.8 0 1020 0 1038.5 68.2 970.3"/><polygon class="cls-3" points="68.2 1038.3 68.2 1019.9 0 1088.1 0 1106.5 68.2 1038.3"/><polygon class="cls-3" points="68.2 1072.4 68.2 1053.9 0 1122.1 0 1140.6 68.2 1072.4"/><polygon class="cls-3" points="68.2 1106.4 68.2 1088 0 1156.2 0 1174.6 68.2 1106.4"/><polygon class="cls-3" points="68.2 1140.5 68.2 1122 0 1190.2 0 1208.7 68.2 1140.5"/><polygon class="cls-3" points="68.2 1174.5 68.2 1156.1 0 1224.3 0 1242.7 68.2 1174.5"/><polygon class="cls-3" points="68.2 1190.1 0.1 1258.2 18.6 1258.2 68.2 1208.6 68.2 1190.1"/><rect class="cls-2" x="2657.7" y="928.1" width="56.1" height="322.95"/><polygon class="cls-3" points="2645.6 1533.7 2645.6 1552.1 2713.8 1483.9 2713.8 1465.5 2645.6 1533.7"/><polygon class="cls-3" points="2708.9 1402.2 2645.6 1465.6 2645.6 1484 2713.8 1415.8 2713.8 1402.2 2708.9 1402.2"/><polygon class="cls-3" points="2645.6 1450 2693.4 1402.2 2674.9 1402.2 2645.6 1431.5 2645.6 1450"/><polygon class="cls-3" points="2645.6 1499.6 2645.6 1518.1 2713.8 1449.9 2713.8 1431.4 2645.6 1499.6"/><polygon class="cls-3" points="2645.6 1415.9 2659.3 1402.2 2645.6 1402.2 2645.6 1415.9"/><polygon class="cls-3" points="2645.6 1567.7 2645.6 1586.2 2713.8 1518 2713.8 1499.5 2645.6 1567.7"/><polygon class="cls-3" points="2645.6 1635.8 2645.6 1654.2 2713.8 1586 2713.8 1567.6 2645.6 1635.8"/><polygon class="cls-3" points="2645.6 1601.7 2645.6 1620.2 2713.8 1552 2713.8 1533.5 2645.6 1601.7"/><polygon class="cls-3" points="2645.6 1669.8 2645.6 1688.3 2713.8 1620.1 2713.8 1601.6 2645.6 1669.8"/><polygon class="cls-3" points="2645.6 1703.9 2645.6 1722.3 2713.8 1654.1 2713.8 1635.7 2645.6 1703.9"/><polygon class="cls-3" points="2645.6 1772 2645.6 1790.4 2713.8 1722.2 2713.8 1703.8 2645.6 1772"/><polygon class="cls-3" points="2645.6 1737.9 2645.6 1756.4 2713.8 1688.2 2713.8 1669.7 2645.6 1737.9"/><polygon class="cls-3" points="2645.6 1806 2645.6 1824.5 2713.8 1756.3 2713.8 1737.8 2645.6 1806"/><polygon class="cls-3" points="2645.6 1840.1 2645.6 1858.5 2713.8 1790.3 2713.8 1771.9 2645.6 1840.1"/><polygon class="cls-3" points="2699.8 1888 2713.8 1888 2713.8 1874 2699.8 1888"/><polygon class="cls-3" points="2645.6 1874.1 2645.6 1888 2650.2 1888 2713.8 1824.4 2713.8 1805.9 2645.6 1874.1"/><polygon class="cls-3" points="2665.7 1888 2684.2 1888 2713.8 1858.4 2713.8 1840 2665.7 1888"/><polygon class="cls-3" points="2657.7 1251.1 2657.7 928.1 2713.8 928.1 2713.8 914.8 2644.3 914.8 2644.3 1264.4 2713.8 1264.4 2713.8 1251.1 2657.7 1251.1"/><rect class="cls-3" x="2644.4" y="2026" width="69.5" height="349.61"/></g></g></svg>